<svg xmlns="http://www.w3.org/2000/svg" xmlns:xlink="http://www.w3.org/1999/xlink" width="109.882" height="82.892" viewBox="0 0 109.882 82.892">
  <defs>
    <linearGradient id="linear-gradient" x1="0.5" x2="0.5" y2="1" gradientUnits="objectBoundingBox">
      <stop offset="0" stop-color="#fff"/>
      <stop offset="1" stop-color="#d2e6ee"/>
    </linearGradient>
  </defs>
  <g id="Grupo_175144" data-name="Grupo 175144" transform="translate(-1222.567 -89.799)">
    <g id="Grupo_175121" data-name="Grupo 175121">
      <g id="Grupo_175118" data-name="Grupo 175118" transform="translate(1222.567 54.285)">
        <g id="Grupo_156259" data-name="Grupo 156259" transform="translate(0 35.514)">
          <g id="Grupo_156218" data-name="Grupo 156218">
            <g id="Grupo_156217" data-name="Grupo 156217">
              <g id="Grupo_156211" data-name="Grupo 156211" transform="translate(0 3.942)">
                <rect id="Rectángulo_46519" data-name="Rectángulo 46519" width="109.36" height="78.427" transform="translate(0.261 0.261)" fill="#fff"/>
                <path id="Trazado_196568" data-name="Trazado 196568" d="M226.811,181.134H117.451a.261.261,0,0,1-.261-.261V102.445a.261.261,0,0,1,.261-.261h109.36a.261.261,0,0,1,.261.261v78.428A.261.261,0,0,1,226.811,181.134Zm-109.1-.523H226.549v-77.9H117.712Z" transform="translate(-117.19 -102.184)"/>
              </g>
              <g id="Grupo_156212" data-name="Grupo 156212">
                <rect id="Rectángulo_46520" data-name="Rectángulo 46520" width="109.36" height="6.785" transform="translate(0.261 0.262)" fill="#12263f"/>
                <path id="Trazado_196569" data-name="Trazado 196569" d="M226.811,101.637H117.451a.261.261,0,0,1-.261-.261V94.59a.262.262,0,0,1,.261-.261h109.36a.262.262,0,0,1,.261.261v6.785A.261.261,0,0,1,226.811,101.637Zm-109.1-.522H226.549V94.852H117.712Z" transform="translate(-117.19 -94.329)"/>
              </g>
              <g id="Grupo_156213" data-name="Grupo 156213" transform="translate(85.442 1.946)">
                <path id="Trazado_196570" data-name="Trazado 196570" d="M287.975,100.174a1.447,1.447,0,1,1,1.447,1.447A1.447,1.447,0,0,1,287.975,100.174Z" transform="translate(-287.714 -98.466)" fill="#fff"/>
                <path id="Trazado_196571" data-name="Trazado 196571" d="M289.163,101.623a1.708,1.708,0,1,1,1.708-1.709A1.711,1.711,0,0,1,289.163,101.623Zm0-2.894a1.186,1.186,0,1,0,1.185,1.185A1.187,1.187,0,0,0,289.163,98.729Z" transform="translate(-287.455 -98.207)"/>
              </g>
              <g id="Grupo_156214" data-name="Grupo 156214" transform="translate(94.023 1.946)">
                <path id="Trazado_196572" data-name="Trazado 196572" d="M305.075,100.174a1.447,1.447,0,1,1,1.447,1.447A1.447,1.447,0,0,1,305.075,100.174Z" transform="translate(-304.814 -98.466)" fill="#fff"/>
                <path id="Trazado_196573" data-name="Trazado 196573" d="M306.263,101.623a1.708,1.708,0,1,1,1.708-1.709A1.711,1.711,0,0,1,306.263,101.623Zm0-2.894a1.186,1.186,0,1,0,1.185,1.185A1.187,1.187,0,0,0,306.263,98.729Z" transform="translate(-304.555 -98.207)"/>
              </g>
              <g id="Grupo_156215" data-name="Grupo 156215" transform="translate(102.404 1.946)">
                <path id="Trazado_196574" data-name="Trazado 196574" d="M321.778,100.174a1.447,1.447,0,1,1,1.447,1.447A1.447,1.447,0,0,1,321.778,100.174Z" transform="translate(-321.517 -98.466)" fill="#fff"/>
                <path id="Trazado_196575" data-name="Trazado 196575" d="M322.965,101.623a1.708,1.708,0,1,1,1.708-1.709A1.711,1.711,0,0,1,322.965,101.623Zm0-2.894a1.186,1.186,0,1,0,1.186,1.185A1.187,1.187,0,0,0,322.965,98.729Z" transform="translate(-321.257 -98.207)"/>
              </g>
              <g id="Grupo_156216" data-name="Grupo 156216" transform="translate(0.129 6.856)" opacity="0.129">
                <path id="Trazado_196576" data-name="Trazado 196576" d="M226.558,108.49a.851.851,0,0,0-.438-.11c-.272-.032-.548,0-.821-.033-1.12-.054-2.24-.083-3.361-.106-3.366-.115-6.72.273-10.085.214-1.712.019-3.423.073-5.136,0-1.325-.011-2.644-.149-3.969-.181-3.83.026-7.655-.281-11.486-.192q-4.985.065-9.97-.054c-2.654-.027-5.307,0-7.961-.02-2.213-.085-4.417.141-6.628.138-4.842.069-9.689.078-14.53-.066-1.766-.028-3.536-.087-5.3.025-1.48.085-2.964.03-4.446.051-1.641-.006-3.282-.021-4.924-.026-1.934-.083-3.869-.128-5.8-.059-1.578,0-3.151.123-4.728.169-1.452,0-2.9.026-4.354.02a31.52,31.52,0,0,0-3.23-.056c-.565.049-1.223-.146-1.668.29a.979.979,0,0,0,.686,1.656c1.274.042,2.551-.011,3.821.11,1.868.06,3.742.071,5.609-.02,2.291-.148,4.586-.231,6.882-.226,1.773.036,3.546.1,5.321.089,1.946.039,3.893.039,5.839.024,1.264-.041,2.526-.128,3.791-.091,3.526.066,7.05.2,10.576.135,3.562-.01,7.126.051,10.684-.147,3.178.018,6.356.009,9.534.041,4.715.1,9.429,0,14.143-.016,2.862.069,5.723.145,8.587.131,2.144.094,4.29.22,6.438.163,1.71-.061,3.422-.039,5.132-.1,1.032-.038,2.057-.185,3.09-.205,2.681-.109,5.363-.04,8.043-.01a.98.98,0,0,0,.829-.236A.838.838,0,0,0,226.558,108.49Z" transform="translate(-117.448 -107.992)"/>
              </g>
            </g>
          </g>
          <g id="Grupo_156249" data-name="Grupo 156249" transform="translate(32.125 42.833)">
            <g id="Grupo_156219" data-name="Grupo 156219" transform="translate(1.542)">
              <path id="Trazado_196577" data-name="Trazado 196577" d="M153.233,187.809a.218.218,0,0,1-.168-.356l7.557-9.1a.217.217,0,0,1,.3-.035l4.876,3.636,10.782-17.573a.217.217,0,0,1,.313-.062l5.472,3.979,5.977-10.438a.217.217,0,0,1,.348-.039l7.849,8.524,2.3-1.845a.217.217,0,0,1,.313.044l8.075,11.4,11.488-12.776a.218.218,0,1,1,.323.291l-11.67,12.978a.212.212,0,0,1-.175.072.217.217,0,0,1-.165-.091l-8.1-11.433-2.278,1.827a.217.217,0,0,1-.3-.022l-7.785-8.455-5.949,10.391a.217.217,0,0,1-.317.068l-5.477-3.984-10.783,17.575a.217.217,0,0,1-.315.061l-4.9-3.655-7.425,8.944A.217.217,0,0,1,153.233,187.809Z" transform="translate(-153.015 -157.747)"/>
            </g>
            <g id="Grupo_156220" data-name="Grupo 156220" transform="translate(9.117 22.195)">
              <path id="Trazado_196578" data-name="Trazado 196578" d="M171.411,223.5a.218.218,0,0,1-.218-.217l-.006-1.74a.217.217,0,0,1,.216-.218h0a.218.218,0,0,1,.218.217l.006,1.74a.218.218,0,0,1-.216.218Zm-.013-3.48a.218.218,0,0,1-.218-.217l-.006-1.74a.217.217,0,0,1,.217-.218h0a.218.218,0,0,1,.218.217l.006,1.74a.217.217,0,0,1-.216.218Zm-.013-3.48a.217.217,0,0,1-.218-.216l-.006-1.74a.217.217,0,0,1,.217-.218h0a.217.217,0,0,1,.217.216l.007,1.74a.217.217,0,0,1-.217.218Zm-.013-3.48a.218.218,0,0,1-.218-.216l-.006-1.74a.217.217,0,0,1,.217-.218h0a.217.217,0,0,1,.218.216l.006,1.74a.217.217,0,0,1-.217.218Z" transform="translate(-171.148 -210.883)"/>
            </g>
            <g id="Grupo_156221" data-name="Grupo 156221" transform="translate(25.049 7.983)">
              <path id="Trazado_196579" data-name="Trazado 196579" d="M209.556,203.392a.218.218,0,0,1-.218-.217l0-1.74a.218.218,0,0,1,.217-.218h0a.218.218,0,0,1,.218.217l0,1.74a.217.217,0,0,1-.217.218Zm-.007-3.48a.217.217,0,0,1-.217-.217l0-1.74a.218.218,0,0,1,.217-.218h0a.217.217,0,0,1,.217.217l0,1.74a.218.218,0,0,1-.217.218Zm-.006-3.48a.218.218,0,0,1-.218-.217l0-1.74a.217.217,0,0,1,.217-.218h0a.218.218,0,0,1,.218.217l0,1.74a.218.218,0,0,1-.217.218Zm-.007-3.48a.217.217,0,0,1-.217-.217l0-1.74a.218.218,0,0,1,.217-.218h0a.217.217,0,0,1,.217.217l0,1.74a.218.218,0,0,1-.217.218Zm-.006-3.48a.218.218,0,0,1-.218-.217l0-1.74a.217.217,0,0,1,.217-.218h0a.217.217,0,0,1,.218.217l0,1.74a.217.217,0,0,1-.217.218Zm-.006-3.48a.218.218,0,0,1-.218-.217l0-1.74a.218.218,0,0,1,.217-.218h0a.218.218,0,0,1,.218.217l0,1.74a.217.217,0,0,1-.217.218Zm-.007-3.48a.217.217,0,0,1-.217-.217l0-1.74a.217.217,0,0,1,.217-.218h0a.217.217,0,0,1,.217.217l0,1.74a.217.217,0,0,1-.217.218Zm-.006-3.48a.218.218,0,0,1-.218-.217l0-1.74a.218.218,0,0,1,.217-.218h0a.218.218,0,0,1,.218.217l0,1.74a.218.218,0,0,1-.217.218Z" transform="translate(-209.29 -176.859)"/>
            </g>
            <g id="Grupo_156222" data-name="Grupo 156222" transform="translate(37.094 1.024)">
              <path id="Trazado_196580" data-name="Trazado 196580" d="M238.392,193.691a.217.217,0,0,1-.217-.217l0-1.74a.218.218,0,0,1,.217-.218h0a.218.218,0,0,1,.218.217l0,1.74a.217.217,0,0,1-.217.218Zm-.005-3.48a.217.217,0,0,1-.218-.217l0-1.74a.217.217,0,0,1,.217-.218h0a.218.218,0,0,1,.218.217l0,1.74a.217.217,0,0,1-.217.218Zm-.005-3.48a.218.218,0,0,1-.218-.217l0-1.74a.217.217,0,0,1,.217-.218h0a.217.217,0,0,1,.217.217l0,1.74a.218.218,0,0,1-.217.218Zm-.005-3.48a.217.217,0,0,1-.218-.217l0-1.74a.218.218,0,0,1,.217-.218h0a.218.218,0,0,1,.218.217l0,1.74a.217.217,0,0,1-.217.218Zm-.005-3.48a.218.218,0,0,1-.218-.217l0-1.74a.217.217,0,0,1,.217-.218h0a.217.217,0,0,1,.217.217l0,1.74a.217.217,0,0,1-.217.218Zm-.005-3.48a.217.217,0,0,1-.217-.217l0-1.74a.218.218,0,0,1,.217-.218h0a.218.218,0,0,1,.218.217l0,1.74a.218.218,0,0,1-.217.218Zm-.005-3.48a.217.217,0,0,1-.218-.217l0-1.74a.217.217,0,0,1,.217-.218h0a.217.217,0,0,1,.218.217l0,1.74a.217.217,0,0,1-.217.218Zm-.005-3.48a.218.218,0,0,1-.218-.217l0-1.74a.218.218,0,0,1,.217-.218h0a.217.217,0,0,1,.217.217l0,1.74a.218.218,0,0,1-.217.218Zm-.005-3.48a.217.217,0,0,1-.217-.217l0-1.74a.218.218,0,0,1,.217-.218h0a.218.218,0,0,1,.218.217l0,1.74a.217.217,0,0,1-.217.218Zm-.005-3.48a.218.218,0,0,1-.218-.217l0-1.74a.217.217,0,0,1,.217-.218h0a.217.217,0,0,1,.218.217l0,1.74a.217.217,0,0,1-.217.218Z" transform="translate(-238.125 -160.198)"/>
            </g>
            <g id="Grupo_156223" data-name="Grupo 156223" transform="translate(47.299 7.983)">
              <path id="Trazado_196581" data-name="Trazado 196581" d="M262.822,203.392a.217.217,0,0,1-.217-.217l0-1.74a.217.217,0,0,1,.217-.218h0a.217.217,0,0,1,.218.217l0,1.74a.217.217,0,0,1-.217.218Zm-.006-3.48a.217.217,0,0,1-.218-.217l0-1.74a.218.218,0,0,1,.217-.218h0a.218.218,0,0,1,.218.217l0,1.74a.217.217,0,0,1-.217.218Zm-.007-3.48a.217.217,0,0,1-.217-.217l0-1.74a.217.217,0,0,1,.217-.218h0a.217.217,0,0,1,.218.217l0,1.74a.218.218,0,0,1-.217.218Zm-.006-3.48a.217.217,0,0,1-.218-.217l0-1.74a.218.218,0,0,1,.217-.218h0a.218.218,0,0,1,.218.217l0,1.74a.217.217,0,0,1-.217.218Zm-.007-3.48a.217.217,0,0,1-.217-.217l0-1.74a.217.217,0,0,1,.217-.218h0a.217.217,0,0,1,.218.217l0,1.74a.217.217,0,0,1-.217.218Zm-.006-3.48a.217.217,0,0,1-.218-.217l0-1.74a.218.218,0,0,1,.217-.218h0a.218.218,0,0,1,.218.217l0,1.74a.217.217,0,0,1-.217.218Zm-.007-3.48a.217.217,0,0,1-.217-.217l0-1.74a.217.217,0,0,1,.217-.218h0a.217.217,0,0,1,.218.217l0,1.74a.217.217,0,0,1-.217.218Zm-.006-3.48a.217.217,0,0,1-.218-.217l0-1.74a.218.218,0,0,1,.217-.218h0a.218.218,0,0,1,.218.217l0,1.74a.218.218,0,0,1-.217.218Z" transform="translate(-262.556 -176.859)"/>
            </g>
            <g id="Grupo_156224" data-name="Grupo 156224" transform="translate(67.158 5.286)">
              <path id="Trazado_196582" data-name="Trazado 196582" d="M310.367,199.926a.217.217,0,0,1-.217-.217l0-1.74a.217.217,0,0,1,.217-.218h0a.218.218,0,0,1,.218.217l0,1.74a.218.218,0,0,1-.217.218Zm-.006-3.48a.218.218,0,0,1-.218-.217l0-1.74a.218.218,0,0,1,.217-.218h0a.218.218,0,0,1,.218.217l0,1.74a.217.217,0,0,1-.217.218Zm-.006-3.48a.218.218,0,0,1-.218-.217l0-1.74a.218.218,0,0,1,.217-.218h0a.217.217,0,0,1,.217.217l0,1.74a.217.217,0,0,1-.217.218Zm-.006-3.48a.217.217,0,0,1-.218-.217l0-1.74a.217.217,0,0,1,.217-.218h0a.218.218,0,0,1,.218.217l0,1.74a.217.217,0,0,1-.217.218Zm-.006-3.48a.218.218,0,0,1-.218-.217l0-1.74a.217.217,0,0,1,.217-.218h0a.217.217,0,0,1,.218.217l0,1.74a.217.217,0,0,1-.217.218Zm-.006-3.48a.217.217,0,0,1-.217-.217l0-1.74a.218.218,0,0,1,.217-.218h0a.218.218,0,0,1,.218.217l0,1.74a.218.218,0,0,1-.217.218Zm-.006-3.48a.217.217,0,0,1-.218-.217l0-1.74a.217.217,0,0,1,.217-.218h0a.218.218,0,0,1,.218.217l0,1.74a.217.217,0,0,1-.217.218Zm-.006-3.48a.218.218,0,0,1-.218-.217l0-1.74a.218.218,0,0,1,.217-.218h0a.217.217,0,0,1,.217.217l0,1.74a.218.218,0,0,1-.217.218Zm-.006-3.48a.217.217,0,0,1-.217-.217l0-1.25a.217.217,0,0,1,.217-.218h0a.218.218,0,0,1,.218.217l0,1.25a.217.217,0,0,1-.217.218Z" transform="translate(-310.099 -170.403)"/>
            </g>
            <g id="Grupo_156225" data-name="Grupo 156225" transform="translate(0 34.374)">
              <path id="Trazado_196583" data-name="Trazado 196583" d="M219.267,240.474H149.54a.218.218,0,0,1,0-.435h69.727a.218.218,0,0,1,0,.435Z" transform="translate(-149.323 -240.039)"/>
            </g>
            <g id="Grupo_156226" data-name="Grupo 156226" transform="translate(38.191 32.743)">
              <path id="Trazado_196584" data-name="Trazado 196584" d="M241.987,237.3a.071.071,0,0,1-.048-.018l-1.162-1.018a.073.073,0,0,1,.1-.109l1.161,1.018a.072.072,0,0,1,.007.1A.071.071,0,0,1,241.987,237.3Z" transform="translate(-240.753 -236.133)"/>
            </g>
            <g id="Grupo_156227" data-name="Grupo 156227" transform="translate(37.995 31.322)">
              <path id="Trazado_196585" data-name="Trazado 196585" d="M243.539,235.338a.073.073,0,0,1-.041-.013,39.167,39.167,0,0,1-3.191-2.466.072.072,0,0,1,.094-.11,39.041,39.041,0,0,0,3.18,2.457.072.072,0,0,1-.041.132Z" transform="translate(-240.282 -232.732)"/>
            </g>
            <g id="Grupo_156228" data-name="Grupo 156228" transform="translate(38.048 30.031)">
              <path id="Trazado_196586" data-name="Trazado 196586" d="M245.055,233.514a.073.073,0,0,1-.045-.016c-1.532-1.218-3.071-2.473-4.575-3.728a.072.072,0,1,1,.093-.111c1.5,1.255,3.042,2.509,4.573,3.726a.073.073,0,0,1-.046.129Z" transform="translate(-240.409 -229.641)"/>
            </g>
            <g id="Grupo_156229" data-name="Grupo 156229" transform="translate(38.032 28.704)">
              <path id="Trazado_196587" data-name="Trazado 196587" d="M246.482,231.694a.071.071,0,0,1-.045-.016c-2.055-1.63-4.088-3.342-6.042-5.089a.072.072,0,0,1-.006-.1.073.073,0,0,1,.1-.006c1.952,1.745,3.983,3.455,6.036,5.083a.073.073,0,0,1-.045.129Z" transform="translate(-240.371 -226.463)"/>
            </g>
            <g id="Grupo_156230" data-name="Grupo 156230" transform="translate(38.129 27.488)">
              <path id="Trazado_196588" data-name="Trazado 196588" d="M247.921,230a.073.073,0,0,1-.05-.02c-2.336-2.168-4.772-4.288-7.241-6.3a.073.073,0,0,1-.01-.1.072.072,0,0,1,.1-.01c2.471,2.016,4.91,4.138,7.248,6.308a.073.073,0,0,1-.049.126Z" transform="translate(-240.604 -223.553)"/>
            </g>
            <g id="Grupo_156231" data-name="Grupo 156231" transform="translate(38.06 25.729)">
              <path id="Trazado_196589" data-name="Trazado 196589" d="M249.415,227.416a.071.071,0,0,1-.048-.018l-8.9-7.929a.072.072,0,0,1,.1-.108l8.9,7.929a.073.073,0,0,1,.006.1A.074.074,0,0,1,249.415,227.416Z" transform="translate(-240.439 -219.341)"/>
            </g>
            <g id="Grupo_156232" data-name="Grupo 156232" transform="translate(37.999 24.128)">
              <path id="Trazado_196590" data-name="Trazado 196590" d="M249,223.308a.074.074,0,0,1-.046-.016c-2.968-2.424-5.876-5-8.641-7.657a.072.072,0,1,1,.1-.1c2.763,2.654,5.667,5.227,8.632,7.649a.073.073,0,0,1-.046.129Z" transform="translate(-240.292 -215.51)"/>
            </g>
            <g id="Grupo_156233" data-name="Grupo 156233" transform="translate(38.024 22.605)">
              <path id="Trazado_196591" data-name="Trazado 196591" d="M248.885,219.59a.072.072,0,0,1-.048-.018l-8.46-7.581a.072.072,0,1,1,.1-.108l8.46,7.581a.073.073,0,0,1,.005.1A.072.072,0,0,1,248.885,219.59Z" transform="translate(-240.353 -211.865)"/>
            </g>
            <g id="Grupo_156234" data-name="Grupo 156234" transform="translate(38.081 21.036)">
              <path id="Trazado_196592" data-name="Trazado 196592" d="M248.907,215.673a.074.074,0,0,1-.043-.014,37.794,37.794,0,0,1-2.956-2.475c-1.787-1.6-3.634-3.26-5.4-4.952a.073.073,0,0,1,.1-.1c1.763,1.69,3.61,3.347,5.4,4.949a37.666,37.666,0,0,0,2.944,2.465.072.072,0,0,1-.043.131Z" transform="translate(-240.487 -208.107)"/>
            </g>
            <g id="Grupo_156235" data-name="Grupo 156235" transform="translate(38.07 19.701)">
              <path id="Trazado_196593" data-name="Trazado 196593" d="M248.9,212.4a.073.073,0,0,1-.045-.016c-2.9-2.3-5.714-4.773-8.369-7.351a.073.073,0,0,1,.1-.1c2.651,2.574,5.464,5.044,8.358,7.341a.073.073,0,0,1-.045.129Z" transform="translate(-240.462 -204.911)"/>
            </g>
            <g id="Grupo_156236" data-name="Grupo 156236" transform="translate(38.034 18.112)">
              <path id="Trazado_196594" data-name="Trazado 196594" d="M248.84,208.8a.074.074,0,0,1-.048-.018c-2.834-2.452-5.658-4.992-8.394-7.548a.073.073,0,0,1,.1-.106c2.735,2.556,5.558,5.094,8.39,7.545a.072.072,0,0,1-.047.127Z" transform="translate(-240.375 -201.107)"/>
            </g>
            <g id="Grupo_156237" data-name="Grupo 156237" transform="translate(38.021 16.929)">
              <path id="Trazado_196595" data-name="Trazado 196595" d="M248.789,205.662a.071.071,0,0,1-.046-.017c-2.842-2.33-5.661-4.767-8.376-7.244a.073.073,0,1,1,.1-.107c2.713,2.475,5.529,4.911,8.37,7.239a.072.072,0,0,1,.01.1A.073.073,0,0,1,248.789,205.662Z" transform="translate(-240.344 -198.275)"/>
            </g>
            <g id="Grupo_156238" data-name="Grupo 156238" transform="translate(38.031 15.631)">
              <path id="Trazado_196596" data-name="Trazado 196596" d="M248.811,202.4a.071.071,0,0,1-.047-.017l-8.369-7.084a.072.072,0,0,1,.094-.111l8.369,7.084a.073.073,0,0,1,.009.1A.074.074,0,0,1,248.811,202.4Z" transform="translate(-240.37 -195.167)"/>
            </g>
            <g id="Grupo_156239" data-name="Grupo 156239" transform="translate(37.956 14.219)">
              <path id="Trazado_196597" data-name="Trazado 196597" d="M248.806,199.082a.071.071,0,0,1-.046-.017l-8.543-7.15a.073.073,0,0,1,.093-.112l8.544,7.15a.072.072,0,0,1-.047.128Z" transform="translate(-240.19 -191.787)"/>
            </g>
            <g id="Grupo_156240" data-name="Grupo 156240" transform="translate(37.944 12.596)">
              <path id="Trazado_196598" data-name="Trazado 196598" d="M248.732,195.176a.072.072,0,0,1-.046-.016c-2.864-2.318-5.724-4.717-8.5-7.131a.072.072,0,1,1,.1-.109c2.776,2.412,5.635,4.81,8.5,7.127a.072.072,0,0,1,.011.1A.071.071,0,0,1,248.732,195.176Z" transform="translate(-240.159 -187.902)"/>
            </g>
            <g id="Grupo_156241" data-name="Grupo 156241" transform="translate(37.904 11.278)">
              <path id="Trazado_196599" data-name="Trazado 196599" d="M248.744,192.033a.074.074,0,0,1-.044-.015c-2.934-2.277-5.831-4.68-8.61-7.145a.072.072,0,1,1,.1-.108c2.776,2.462,5.67,4.864,8.6,7.138a.073.073,0,0,1,.013.1A.072.072,0,0,1,248.744,192.033Z" transform="translate(-240.065 -184.746)"/>
            </g>
            <g id="Grupo_156242" data-name="Grupo 156242" transform="translate(37.961 10.016)">
              <path id="Trazado_196600" data-name="Trazado 196600" d="M248.8,188.855a.073.073,0,0,1-.042-.014,83.221,83.221,0,0,1-8.534-6.99.073.073,0,0,1,.1-.106,83.041,83.041,0,0,0,8.52,6.978.073.073,0,0,1,.017.1A.074.074,0,0,1,248.8,188.855Z" transform="translate(-240.201 -181.725)"/>
            </g>
            <g id="Grupo_156243" data-name="Grupo 156243" transform="translate(37.97 8.678)">
              <path id="Trazado_196601" data-name="Trazado 196601" d="M248.709,185.631a.073.073,0,0,1-.043-.014,86.247,86.247,0,0,1-8.421-6.97.073.073,0,1,1,.1-.106,86.064,86.064,0,0,0,8.406,6.958.073.073,0,0,1-.043.131Z" transform="translate(-240.223 -178.522)"/>
            </g>
            <g id="Grupo_156244" data-name="Grupo 156244" transform="translate(37.974 7.317)">
              <path id="Trazado_196602" data-name="Trazado 196602" d="M248.781,182.315a.074.074,0,0,1-.044-.015c-2.877-2.213-5.731-4.538-8.48-6.909a.072.072,0,0,1,.094-.11c2.748,2.37,5.6,4.692,8.475,6.9a.072.072,0,0,1-.044.13Z" transform="translate(-240.232 -175.264)"/>
            </g>
            <g id="Grupo_156245" data-name="Grupo 156245" transform="translate(37.853 5.939)">
              <path id="Trazado_196603" data-name="Trazado 196603" d="M248.515,178.724a.074.074,0,0,1-.044-.015c-1.329-1.027-2.647-2.056-4.043-3.146q-2.152-1.68-4.456-3.467a.073.073,0,0,1,.089-.115q2.308,1.784,4.456,3.467c1.4,1.09,2.714,2.119,4.042,3.145a.072.072,0,0,1-.044.13Z" transform="translate(-239.944 -171.966)"/>
            </g>
            <g id="Grupo_156246" data-name="Grupo 156246" transform="translate(37.833 4.676)">
              <path id="Trazado_196604" data-name="Trazado 196604" d="M248.41,175.6a.073.073,0,0,1-.045-.016c-2.3-1.823-5.338-4.211-8.442-6.513a.072.072,0,1,1,.086-.116c3.105,2.3,6.145,4.691,8.445,6.515a.073.073,0,0,1-.045.13Z" transform="translate(-239.894 -168.942)"/>
            </g>
            <g id="Grupo_156247" data-name="Grupo 156247" transform="translate(38.278 3.597)">
              <path id="Trazado_196605" data-name="Trazado 196605" d="M245.307,169.844a.071.071,0,0,1-.044-.015c-1.608-1.233-3.007-2.326-4.274-3.342a.073.073,0,1,1,.091-.113c1.267,1.015,2.665,2.108,4.272,3.34a.072.072,0,0,1-.044.13Z" transform="translate(-240.961 -166.358)"/>
            </g>
            <g id="Grupo_156248" data-name="Grupo 156248" transform="translate(45.604 9.25)">
              <path id="Trazado_196606" data-name="Trazado 196606" d="M259.359,180.619a.074.074,0,0,1-.043-.014q-.4-.29-.789-.583a.073.073,0,1,1,.087-.116q.392.293.787.582a.072.072,0,0,1,.015.1A.071.071,0,0,1,259.359,180.619Z" transform="translate(-258.498 -179.892)"/>
            </g>
          </g>
          <g id="Grupo_156258" data-name="Grupo 156258" transform="translate(13.694 16.869)">
            <g id="Grupo_156250" data-name="Grupo 156250" transform="translate(0.118)">
              <rect id="Rectángulo_46521" data-name="Rectángulo 46521" width="40.91" height="28.138" transform="translate(0.261 0.261)" fill="#fff"/>
              <path id="Trazado_196607" data-name="Trazado 196607" d="M185.886,156.6h-40.91a.261.261,0,0,1-.261-.261V128.205a.261.261,0,0,1,.261-.261h40.91a.261.261,0,0,1,.261.261v28.138A.261.261,0,0,1,185.886,156.6Zm-40.649-.522h40.387V128.466H145.237Z" transform="translate(-144.714 -127.944)"/>
            </g>
            <g id="Grupo_156251" data-name="Grupo 156251" transform="translate(9.117 8.559)">
              <path id="Trazado_196608" data-name="Trazado 196608" d="M185.82,145.523H162.907a.261.261,0,0,1,0-.523H185.82a.261.261,0,1,1,0,.523Z" transform="translate(-162.646 -145)"/>
            </g>
            <g id="Grupo_156252" data-name="Grupo 156252" transform="translate(9.621 20.469)">
              <path id="Trazado_196609" data-name="Trazado 196609" d="M186.824,169.256H163.911a.261.261,0,0,1,0-.522h22.913a.261.261,0,1,1,0,.522Z" transform="translate(-163.65 -168.734)"/>
            </g>
            <g id="Grupo_156253" data-name="Grupo 156253" transform="translate(5.225 14.446)">
              <path id="Trazado_196610" data-name="Trazado 196610" d="M172.4,157.254H155.152a.261.261,0,1,1,0-.522H172.4a.261.261,0,0,1,0,.522Z" transform="translate(-154.891 -156.732)"/>
            </g>
            <g id="Grupo_156254" data-name="Grupo 156254" transform="translate(27.059 6.977)">
              <path id="Trazado_196611" data-name="Trazado 196611" d="M198.921,143.814a1.447,1.447,0,1,1,1.447,1.447A1.447,1.447,0,0,1,198.921,143.814Z" transform="translate(-198.66 -142.106)" fill="#acd4f7"/>
              <path id="Trazado_196612" data-name="Trazado 196612" d="M200.109,145.263a1.708,1.708,0,1,1,1.708-1.708A1.71,1.71,0,0,1,200.109,145.263Zm0-2.893a1.186,1.186,0,1,0,1.186,1.186A1.187,1.187,0,0,0,200.109,142.369Z" transform="translate(-198.401 -141.847)"/>
            </g>
            <g id="Grupo_156255" data-name="Grupo 156255" transform="translate(12.292 13.407)">
              <ellipse id="Elipse_6034" data-name="Elipse 6034" cx="1.447" cy="1.447" rx="1.447" ry="1.447" transform="translate(0.261 0.261)" fill="#fff"/>
              <path id="Trazado_196613" data-name="Trazado 196613" d="M170.681,158.076a1.708,1.708,0,1,1,1.708-1.708A1.71,1.71,0,0,1,170.681,158.076Zm0-2.893a1.186,1.186,0,1,0,1.186,1.185A1.187,1.187,0,0,0,170.681,155.183Z" transform="translate(-168.973 -154.66)"/>
            </g>
            <g id="Grupo_156256" data-name="Grupo 156256" transform="translate(27.059 19.022)">
              <path id="Trazado_196614" data-name="Trazado 196614" d="M198.921,167.818a1.447,1.447,0,1,1,1.447,1.447A1.447,1.447,0,0,1,198.921,167.818Z" transform="translate(-198.66 -166.11)" fill="#acd4f7"/>
              <path id="Trazado_196615" data-name="Trazado 196615" d="M200.109,169.267a1.708,1.708,0,1,1,1.708-1.708A1.71,1.71,0,0,1,200.109,169.267Zm0-2.893a1.186,1.186,0,1,0,1.186,1.185A1.187,1.187,0,0,0,200.109,166.373Z" transform="translate(-198.401 -165.851)"/>
            </g>
            <g id="Grupo_156257" data-name="Grupo 156257" transform="translate(0 28.158)" opacity="0.129">
              <path id="Trazado_196616" data-name="Trazado 196616" d="M185.416,184.509c-.111-.007-.224,0-.336-.009-.819-.021-1.638-.026-2.457-.065-1.891-.1-3.784-.048-5.675-.133-2.2.005-4.4.077-6.6.111-1.233.044-2.466-.031-3.7-.03-1.73.007-3.461.067-5.191.047a136.405,136.405,0,0,0-13.695-.272,10.927,10.927,0,0,0-2.746.012.886.886,0,0,0,.342,1.7,15.265,15.265,0,0,1,2.172.088c1.928.006,3.857,0,5.784-.031,2.67-.032,5.341.181,8,.354,1.783.034,3.568-.032,5.352-.029,1.311.008,2.621.082,3.933.047,1.953.007,3.9-.067,5.857-.1,1.743.019,3.486-.016,5.229-.02,1,0,1.995,0,2.991-.045a4.871,4.871,0,0,0,.846-.072.753.753,0,0,0,.628-.475A.781.781,0,0,0,185.416,184.509Z" transform="translate(-144.478 -184.056)"/>
            </g>
          </g>
        </g>
        <rect id="Rectángulo_53228" data-name="Rectángulo 53228" width="31" height="3" transform="translate(13.766 85.715)" fill="#7f4fc7"/>
        <rect id="Rectángulo_53229" data-name="Rectángulo 53229" width="31" height="3" transform="translate(13.766 90.715)" fill="#7f4fc7"/>
        <rect id="Rectángulo_53230" data-name="Rectángulo 53230" width="25" height="3" transform="translate(13.766 95.715)" fill="#7f4fc7"/>
      </g>
      <g id="Grupo_175119" data-name="Grupo 175119" transform="translate(1295.034 102.686)">
        <rect id="Rectángulo_53220" data-name="Rectángulo 53220" width="28.559" height="28.56" rx="5" transform="translate(0)" fill="#00223d"/>
        <rect id="Rectángulo_53221" data-name="Rectángulo 53221" width="25.154" height="25.154" rx="5" transform="translate(1.702 1.703)" fill="url(#linear-gradient)"/>
      </g>
      <g id="Grupo_175120" data-name="Grupo 175120" transform="translate(1302.335 108.936)">
        <g id="Grupo_169648" data-name="Grupo 169648">
          <g id="Grupo_169647" data-name="Grupo 169647">
            <g id="Grupo_169646" data-name="Grupo 169646">
              <g id="Grupo_169645" data-name="Grupo 169645">
                <path id="Trazado_204752" data-name="Trazado 204752" d="M427.312,135a4.088,4.088,0,0,0,2.436-3.782,3.842,3.842,0,1,0-7.668-.036A4.082,4.082,0,0,0,424.523,135c-5.9.889-5.633,7.3-5.633,7.3l13.952.064S433.161,135.884,427.312,135Z" transform="translate(-418.888 -127.112)" fill="#12263f"/>
              </g>
            </g>
          </g>
        </g>
      </g>
    </g>
  </g>
</svg>
