<svg xmlns="http://www.w3.org/2000/svg" width="102.525" height="54.801" viewBox="0 0 102.525 54.801">
  <g id="Grupo_175145" data-name="Grupo 175145" transform="translate(-1331.538 -395.976)">
    <g id="Grupo_175124" data-name="Grupo 175124" transform="translate(1331.538 395.976)">
      <g id="Grupo_156170" data-name="Grupo 156170">
        <g id="Grupo_156148" data-name="Grupo 156148">
          <path id="Trazado_196507" data-name="Trazado 196507" d="M135.456,352.785c0-19.112.223-35.754,0-53.7-26.777,0-53.691.778-80.668.495-.258,18.286,0,35.486,0,53.266Q95.233,352.849,135.456,352.785Z" transform="translate(-54.152 -298.567)" fill="#fff"/>
          <path id="Trazado_196508" data-name="Trazado 196508" d="M54.787,353.368a.521.521,0,0,1-.521-.52c0-5.928-.029-11.889-.057-17.654-.056-11.517-.115-23.426.057-35.619a.522.522,0,0,1,.527-.514c15.58.164,31.385-.029,46.669-.217,11.153-.137,22.684-.278,33.993-.278a.521.521,0,0,1,.521.514c.148,11.838.1,23.039.052,34.9-.025,6.047-.052,12.3-.052,18.807a.52.52,0,0,1-.52.521c-13.4,0-27.04.016-40.233.032C81.98,353.352,68.286,353.368,54.787,353.368Zm.514-53.26c-.164,12-.106,23.732-.051,35.082.028,5.6.056,11.379.058,17.138,13.33,0,26.842-.016,39.915-.032,13.022-.015,26.483-.031,39.713-.031,0-6.321.027-12.4.051-18.292.049-11.681.095-22.724-.045-34.365-11.139.005-22.486.144-33.467.279C86.354,300.071,70.724,300.262,55.3,300.108Z" transform="translate(-54.152 -298.567)"/>
        </g>
        <g id="Grupo_156149" data-name="Grupo 156149">
          <path id="Trazado_196509" data-name="Trazado 196509" d="M135.456,352.785c0-19.112.223-35.754,0-53.7-26.777,0-53.691.778-80.668.495-.258,18.286,0,35.486,0,53.266Q95.233,352.849,135.456,352.785Z" transform="translate(-54.152 -298.567)" fill="#fff"/>
          <path id="Trazado_196510" data-name="Trazado 196510" d="M54.787,353.368a.521.521,0,0,1-.521-.52c0-5.928-.029-11.889-.057-17.654-.056-11.517-.115-23.426.057-35.619a.522.522,0,0,1,.527-.514c15.58.164,31.385-.029,46.669-.217,11.153-.137,22.684-.278,33.993-.278a.521.521,0,0,1,.521.514c.148,11.838.1,23.039.052,34.9-.025,6.047-.052,12.3-.052,18.807a.52.52,0,0,1-.52.521c-13.4,0-27.04.016-40.233.032C81.98,353.352,68.286,353.368,54.787,353.368Zm.514-53.26c-.164,12-.106,23.732-.051,35.082.028,5.6.056,11.379.058,17.138,13.33,0,26.842-.016,39.915-.032,13.022-.015,26.483-.031,39.713-.031,0-6.321.027-12.4.051-18.292.049-11.681.095-22.724-.045-34.365-11.139.005-22.486.144-33.467.279C86.354,300.071,70.724,300.262,55.3,300.108Z" transform="translate(-54.152 -298.567)"/>
        </g>
        <g id="Grupo_156150" data-name="Grupo 156150" transform="translate(40.441 20.621)">
          <path id="Trazado_196511" data-name="Trazado 196511" d="M95.144,320.253a.521.521,0,0,1,0-1.041l11.34-.009h0a.52.52,0,1,1,0,1.04l-11.34.01Z" transform="translate(-94.623 -319.203)"/>
        </g>
        <g id="Grupo_156151" data-name="Grupo 156151" transform="translate(40.441 30.801)">
          <path id="Trazado_196512" data-name="Trazado 196512" d="M95.144,330.441a.52.52,0,1,1,0-1.04l11.991-.01h0a.52.52,0,0,1,0,1.04l-11.991.01Z" transform="translate(-94.623 -329.391)"/>
        </g>
        <g id="Grupo_156152" data-name="Grupo 156152" transform="translate(11.067 40.801)">
          <path id="Trazado_196513" data-name="Trazado 196513" d="M65.748,340.45a.521.521,0,1,1,0-1.041l37.072-.01a.521.521,0,0,1,0,1.041Z" transform="translate(-65.227 -339.399)"/>
        </g>
        <g id="Grupo_156153" data-name="Grupo 156153" transform="translate(55.371 3.299)">
          <circle id="Elipse_6030" data-name="Elipse 6030" cx="16.671" cy="16.671" r="16.671" transform="translate(0 23.577) rotate(-45)" fill="#fff"/>
          <path id="Trazado_196514" data-name="Trazado 196514" d="M133.146,342.642a17.192,17.192,0,1,1,17.192-17.192A17.211,17.211,0,0,1,133.146,342.642Zm0-33.343A16.151,16.151,0,1,0,149.3,325.45,16.17,16.17,0,0,0,133.146,309.3Z" transform="translate(-109.569 -301.873)"/>
        </g>
        <g id="Grupo_156154" data-name="Grupo 156154" transform="translate(69.672 16.952)">
          <path id="Trazado_196515" data-name="Trazado 196515" d="M124.4,322.868l2.709-2.709,4.169,5.822,5.967-9.928,3.327,2.519-8.917,13.91Z" transform="translate(-123.877 -315.532)" fill="#43a99b"/>
          <path id="Trazado_196516" data-name="Trazado 196516" d="M131.65,333a.522.522,0,0,1-.415-.207l-7.254-9.614a.52.52,0,0,1,.047-.682l2.709-2.709a.52.52,0,0,1,.791.065l3.707,5.178,5.559-9.25a.52.52,0,0,1,.76-.146l3.326,2.519a.522.522,0,0,1,.124.7l-8.917,13.91a.52.52,0,0,1-.419.239Zm-6.565-10.086,6.531,8.656L139.87,318.7l-2.481-1.879-5.669,9.431a.52.52,0,0,1-.868.035l-3.811-5.323Z" transform="translate(-123.876 -315.532)"/>
        </g>
        <g id="Grupo_156165" data-name="Grupo 156165" transform="translate(11.587 10.368)">
          <g id="Grupo_156155" data-name="Grupo 156155">
            <path id="Trazado_196517" data-name="Trazado 196517" d="M86.708,332.429c0-8.174.056-15.292,0-22.965-6.775,0-13.585.333-20.41.212-.066,7.82,0,15.177,0,22.78C73.12,332.456,79.92,332.429,86.708,332.429Z" transform="translate(-65.749 -308.943)" fill="#fff"/>
            <path id="Trazado_196518" data-name="Trazado 196518" d="M66.3,332.976a.52.52,0,0,1-.521-.521c0-2.535-.007-5.043-.015-7.549-.014-4.926-.028-10.019.015-15.235a.52.52,0,0,1,.53-.517c3.933.071,7.927-.013,11.79-.093,2.824-.058,5.744-.119,8.611-.119a.52.52,0,0,1,.52.517c.038,5.064.026,9.856.014,14.928-.007,2.6-.014,5.259-.014,8.041a.521.521,0,0,1-.52.521q-5.084,0-10.178.013Q71.419,332.972,66.3,332.976Zm.516-22.772c-.038,5.026-.024,9.942-.01,14.7.007,2.336.013,4.673.014,7.032q4.862,0,9.71-.013t9.66-.014c0-2.594.007-5.084.013-7.523.012-4.9.024-9.531-.009-14.4-2.69.007-5.424.064-8.073.119C74.417,310.179,70.6,310.258,66.813,310.2Z" transform="translate(-65.748 -308.943)"/>
          </g>
          <g id="Grupo_156156" data-name="Grupo 156156" transform="translate(2.365 19.626)">
            <path id="Trazado_196519" data-name="Trazado 196519" d="M70.029,330.458a.174.174,0,0,1-.1-.034,14.006,14.006,0,0,1-1.763-1.546.173.173,0,1,1,.25-.241,13.546,13.546,0,0,0,1.72,1.507.174.174,0,0,1-.1.314Z" transform="translate(-68.114 -328.584)"/>
          </g>
          <g id="Grupo_156157" data-name="Grupo 156157" transform="translate(2.047 16.224)">
            <path id="Trazado_196520" data-name="Trazado 196520" d="M74.142,331.046a.176.176,0,0,1-.119-.047c-2.007-1.871-4.083-3.725-6.166-5.515a.173.173,0,1,1,.226-.263c2.087,1.792,4.166,3.65,6.177,5.524a.174.174,0,0,1-.118.3Z" transform="translate(-67.796 -325.179)"/>
          </g>
          <g id="Grupo_156158" data-name="Grupo 156158" transform="translate(2.302 13.221)">
            <path id="Trazado_196521" data-name="Trazado 196521" d="M78.28,331.027a.174.174,0,0,1-.112-.041l-10.054-8.508a.172.172,0,0,1-.021-.244.175.175,0,0,1,.245-.021l10.054,8.508a.173.173,0,0,1,.02.244A.171.171,0,0,1,78.28,331.027Z" transform="translate(-68.052 -322.174)"/>
          </g>
          <g id="Grupo_156159" data-name="Grupo 156159" transform="translate(2.447 9.874)">
            <path id="Trazado_196522" data-name="Trazado 196522" d="M82.107,330.836a.175.175,0,0,1-.116-.044c-4.452-3.987-9.07-7.909-13.729-11.659a.173.173,0,1,1,.218-.27c4.662,3.753,9.286,7.68,13.742,11.67a.173.173,0,0,1-.115.3Z" transform="translate(-68.197 -318.825)"/>
          </g>
          <g id="Grupo_156160" data-name="Grupo 156160" transform="translate(2.38 6.256)">
            <path id="Trazado_196523" data-name="Trazado 196523" d="M85.078,329.592a.176.176,0,0,1-.109-.038c-5.662-4.545-11.308-9.271-16.78-14.046a.174.174,0,0,1,.228-.262c5.47,4.773,11.112,9.5,16.769,14.037a.173.173,0,0,1-.108.309Z" transform="translate(-68.13 -315.204)"/>
          </g>
          <g id="Grupo_156161" data-name="Grupo 156161" transform="translate(2.417 2.927)">
            <path id="Trazado_196524" data-name="Trazado 196524" d="M84.955,325.8a.174.174,0,0,1-.11-.039L68.231,312.18a.173.173,0,1,1,.219-.269l16.616,13.578a.173.173,0,0,1-.11.308Z" transform="translate(-68.167 -311.872)"/>
          </g>
          <g id="Grupo_156162" data-name="Grupo 156162" transform="translate(6.77 2.398)">
            <path id="Trazado_196525" data-name="Trazado 196525" d="M84.987,321.907a.175.175,0,0,1-.114-.042c-4.015-3.46-8.148-6.9-12.286-10.213a.174.174,0,0,1,.218-.271c4.14,3.32,8.277,6.758,12.295,10.221a.174.174,0,0,1-.113.3Z" transform="translate(-72.523 -311.343)"/>
          </g>
          <g id="Grupo_156163" data-name="Grupo 156163" transform="translate(11.837 2.72)">
            <path id="Trazado_196526" data-name="Trazado 196526" d="M84.951,317.582a.168.168,0,0,1-.1-.033c-2.448-1.769-4.868-3.645-7.193-5.577a.173.173,0,1,1,.221-.267c2.318,1.927,4.732,3.8,7.175,5.563a.172.172,0,0,1,.039.242A.17.17,0,0,1,84.951,317.582Z" transform="translate(-77.594 -311.665)"/>
          </g>
          <g id="Grupo_156164" data-name="Grupo 156164" transform="translate(16.475 2.782)">
            <path id="Trazado_196527" data-name="Trazado 196527" d="M85.091,314.168a.174.174,0,0,1-.113-.042c-.853-.728-1.753-1.43-2.67-2.084a.173.173,0,1,1,.2-.283c.926.66,1.833,1.369,2.695,2.1a.173.173,0,0,1-.113.3Z" transform="translate(-82.235 -311.727)"/>
          </g>
        </g>
        <g id="Grupo_156166" data-name="Grupo 156166" transform="translate(11.971 31.524)" opacity="0.129">
          <path id="Trazado_196528" data-name="Trazado 196528" d="M86.2,330.676a2.378,2.378,0,0,0-1.2-.159q-1.406-.028-2.81-.087-7.066-.144-14.131-.315c-.544.014-1.172-.085-1.581.355a1.2,1.2,0,0,0,.84,2.028c4.679.023,9.356.256,14.036.281,1.076.041,2.152.093,3.23.112a4.509,4.509,0,0,0,1.478-.127A1.176,1.176,0,0,0,86.2,330.676Z" transform="translate(-66.132 -330.115)"/>
        </g>
        <g id="Grupo_156169" data-name="Grupo 156169" transform="translate(64.245 31.406)">
          <g id="Grupo_156167" data-name="Grupo 156167" opacity="0.129">
            <path id="Trazado_196529" data-name="Trazado 196529" d="M148.811,330.032c-.658-.188-.967.41-1.266.869-.464.642-.9,1.305-1.38,1.933l-.031.04a9.288,9.288,0,0,1-.806.942,11.557,11.557,0,0,0-1.36,1.312c-.253.281-.522.545-.8.8l-.08.047a1.511,1.511,0,0,0-.152.1l-.108.073c-.853.563-1.7,1.136-2.6,1.632a19.178,19.178,0,0,1-4.611,1.325,13.914,13.914,0,0,1-5.346-.519,19.368,19.368,0,0,1-3.514-1.182c-.149-.065-.245-.1-.264-.11a22.529,22.529,0,0,1-3.02-1.481,18.946,18.946,0,0,1-2.574-2.1c-.025-.02-.051-.039-.076-.06l-.014-.011.011.009c-.4-.336-.778-.769-1.322-.778a1.067,1.067,0,0,0-.748,1.806c1.207.955,2.072,2.276,3.4,3.089a38.111,38.111,0,0,0,5.062,2.785,21.718,21.718,0,0,0,5.841,1.256,14.2,14.2,0,0,0,4.241-.571,16.429,16.429,0,0,0,4.975-2.121,8.493,8.493,0,0,0,2.142-1.7,21.6,21.6,0,0,0,1.727-1.927,25.592,25.592,0,0,0,2.636-3.413,3.4,3.4,0,0,0,.636-1.12A.825.825,0,0,0,148.811,330.032Z" transform="translate(-118.445 -329.997)"/>
          </g>
          <g id="Grupo_156168" data-name="Grupo 156168" transform="translate(2.375 3.652)" opacity="0.129">
            <path id="Trazado_196530" data-name="Trazado 196530" d="M120.9,333.713c.043.034.085.068.128.1l-.207-.16,0,0Z" transform="translate(-120.822 -333.651)"/>
          </g>
        </g>
      </g>
    </g>
  </g>
</svg>
