<svg xmlns="http://www.w3.org/2000/svg" xmlns:xlink="http://www.w3.org/1999/xlink" width="960.892" height="369.188" viewBox="0 0 960.892 369.188">
  <defs>
    <clipPath id="clip-path">
      <rect id="Rectángulo_54072" data-name="Rectángulo 54072" width="379.653" height="366.405" fill="none"/>
    </clipPath>
  </defs>
  <g id="Grupo_175151" data-name="Grupo 175151" transform="translate(-308.438 -931.515)">
    <g id="Grupo_174782" data-name="Grupo 174782" transform="translate(0 60)">
      <g id="Grupo_174781" data-name="Grupo 174781" transform="translate(600.768 874.297)">
        <g id="Grupo_174780" data-name="Grupo 174780" clip-path="url(#clip-path)">
          <path id="Trazado_215100" data-name="Trazado 215100" d="M184.472,207.052a39.583,39.583,0,0,0,5.52,16.313c4.85,7.579,12.031,7.579,12.031,7.579s7.954,19.838,19.947,27.915a48.772,48.772,0,0,0,33.742,7.587s.615,14.574,5.519,26.1a71.585,71.585,0,0,0,13,19.779s-13.559,17.727-27.137,3.247c-4.7-5.01-13.6-4.713-18.4-9.352-17.8-17.2-14.1-30.711-14.1-30.711a42.718,42.718,0,0,1-34.9-9.632c-21.466-18.116-24.732-37.933-24.732-37.933s4.787.207,14.759-7.369,14.761-13.52,14.761-13.52" transform="translate(33.786 45.146)" fill="#d8d8d8"/>
          <path id="Trazado_215101" data-name="Trazado 215101" d="M196.3,8.073A60.537,60.537,0,0,0,157.714.6c-17.546,2.506-26.277,10.021-29.8,14.042A49.025,49.025,0,0,0,130.753,31.1c5.793,16.064,21.218,13.311,21.872,13.185a3.276,3.276,0,0,1,1.272,6.426,23.435,23.435,0,0,1-4.535.42c-8.068,0-19.663-3.64-24.772-17.808A55.387,55.387,0,0,1,121.4,17.11c-5.32.188-14.961,1.513-27.178,7.5-13.372,6.548-16.6,14.515-18.563,19.969l.152,4.726,0,1.234c0,.78.3,19.229,14.5,19.584.174,0,.347.006.518.006,12.087,0,14.212-10.8,14.418-12.053a3.276,3.276,0,0,1,6.473,1.012c-.946,6.146-6.531,17.592-20.886,17.592-.227,0-.453,0-.686-.007-15.7-.392-20.429-15.747-20.857-24.844l.012-1.391a55.459,55.459,0,0,0-23.463,9.793,29.917,29.917,0,0,0-12.221,20.4c9.113,2.136,18.1,7.346,25.656,18.9,6.012,9.191,8.023,17.4,5.974,24.4-1.781,6.093-6.465,10.88-13.923,14.233a18.95,18.95,0,0,1-7.72,1.848,12.511,12.511,0,0,1-5.867-1.415c-6.452-3.359-8.07-11.51-8.135-11.856a3.276,3.276,0,1,1,6.437-1.224c.3,1.488,1.733,5.728,4.747,7.283,2.007,1.034,4.65.828,7.851-.611,5.63-2.53,9.1-5.927,10.323-10.1,1.485-5.077-.255-11.461-5.169-18.973-7.739-11.83-16.749-16.09-27.423-17.028-3.194,2.141-7.216,6.235-11.525,14.023-10.066,18.2-3.1,33.684-3.1,33.684S-2.06,139.534.263,158.506s15.746,22.519,15.746,22.519-4.258,13.548,2.711,21.681a24.933,24.933,0,0,0,11.6,7.727c4.669-7.353,16.606-24.255,28.3-25.366a12.479,12.479,0,0,1,3.006.076c2.149-3.113,8.465-13.749-.138-20.759-10.32-8.408-19.211-.468-19.585-.125a3.276,3.276,0,0,1-4.428-4.828c4.608-4.223,16.42-9.683,28.15-.125,10.752,8.759,6.686,21.45,2.076,28.572a15.829,15.829,0,0,1,2.077,1.992c3.726,4.3,5.288,8.882,4.638,13.609-1.182,8.619-9.5,14.217-9.859,14.451a3.276,3.276,0,0,1-3.624-5.459c.088-.058,6.236-4.253,7-9.91.376-2.806-.639-5.555-3.1-8.4-1.688-1.95-3.463-2.77-5.583-2.564C50.662,192.4,39.465,208,34.9,215.474c1.5,5.4,6.261,14.169,21.378,15.5,13.107,1.147,21.846-1.391,26.779-3.638l1.879-3.368c-.752-3.642-1.972-14.42,6.355-25.87,7.988-10.983,21.462-12.637,27.172-12.821A32.33,32.33,0,0,1,128.894,168a20.529,20.529,0,0,1,1.776-1.384c-2.118-4.745-4.706-10.853-7.462-18.057-4.425-11.556-11.152-19.584-18-21.473-4.319-1.192-8.834.032-13.419,3.641-5.033,3.961-7.681,8.116-7.869,12.351-.258,5.833,4.259,10.256,4.306,10.3a3.276,3.276,0,1,1-4.491,4.77c-.277-.259-6.754-6.467-6.361-15.363.276-6.225,3.763-12.015,10.363-17.21,7.861-6.186,14.787-6.029,19.213-4.806,8.978,2.477,17.133,11.753,22.375,25.449,2.644,6.908,5.151,12.828,7.217,17.465,6.806-2.283,13.811-1.407,17.043-.775l4.3-4.834a16.475,16.475,0,0,1-1.856-13.518,18.046,18.046,0,0,1,5.179-8.437,18.5,18.5,0,0,1-5.106-15.444,20.885,20.885,0,0,1,7.067-12.606,3.255,3.255,0,0,1-.481-.875c-.061-.167-6.429-15.312-18.082-17.254-11.51-1.912-19.433,7.925-19.509,8.043a3.277,3.277,0,0,1-5.458-3.627c.418-.627,9.464-14.416,25.105-11.813,8.718,1.449,15.813,7.5,19.58,13.459a74.115,74.115,0,0,1,1.993-22.629c3.878-15.755,14.322-26.032,18.66-29.742-2.164-4.859-5.685-16.166-.77-24.406A27.033,27.033,0,0,1,196.3,8.073" transform="translate(0 0)" fill="#7f4fc7"/>
          <path id="Trazado_215102" data-name="Trazado 215102" d="M287.225,57.548s0-.084-.02-.233c-6.635-.139-12.558,1.485-15.683,4.5a6.965,6.965,0,0,0-2.169,6.313c.959,7.082,3.1,8.409,3.41,8.566a3.276,3.276,0,0,1-.352,6.532H272.4c-1.289,0-8.651.242-10.48-13.284-.62-4.588,1.737-9.642,5.048-12.839,4.059-3.918,10.881-6.156,18.557-6.333-2.345-6.133-7.92-15.456-21.146-23.809C248.65,17.026,234.5,18.5,227.666,20.168A43.166,43.166,0,0,1,226.85,30.9c-2.727,12.942-13.083,20.893-23.232,23.148-.657,3.658-1.549,11.6,1.75,16.889a10.742,10.742,0,0,0,7.467,4.871c6.383,1.277,11.8.181,16.093-3.256a17.178,17.178,0,0,0,4.512-5.384,3.276,3.276,0,1,1,5.956,2.731,23.891,23.891,0,0,1-21.721,12.961,31.252,31.252,0,0,1-6.124-.627A17.19,17.19,0,0,1,199.8,74.379c-3.942-6.337-3.608-14.7-2.915-19.7-10.016-.341-14.433-6.392-14.619-6.658a3.276,3.276,0,0,1,5.352-3.778c.094.122,3.03,3.911,10.119,3.917h.013a23.716,23.716,0,0,0,22.691-18.615,38.114,38.114,0,0,0,.52-11.415A37.935,37.935,0,0,0,175.144,6.822s-7.683,3.352-14.14,13.2c-3.86,5.883-.721,18.559,1.3,22.313a2.9,2.9,0,0,1-.851,3.727c-.136.1-14.02,10.4-18.341,27.963a67.8,67.8,0,0,0-1.177,26.643c4.985,1.261,16.3,3.073,22.562-.423a8.363,8.363,0,0,0,4.182-5.285c3.194-11.431-6.782-19.149-6.883-19.226a3.276,3.276,0,1,1,3.956-5.222c.558.421,13.616,10.534,9.238,26.209a14.818,14.818,0,0,1-7.312,9.252c-3.886,2.164-8.705,2.855-13.274,2.855a59.156,59.156,0,0,1-11.362-1.206,2.885,2.885,0,0,1-1.521,1.732c-.286.138-7.329,3.59-8.52,11.452-1.152,7.614,5.475,12.373,5.758,12.571a2.908,2.908,0,0,1-.782,5.151c-.09.034-3.508,1.336-5.239,6.985a10.466,10.466,0,0,0,.6,7.573c6.465-5.558,24.089-18.888,45.438-19.936,15.587-.764,33.083,5.322,39.981,8.015,4.121-9.975,9.478-27,5.288-35.841a9.755,9.755,0,0,0-7.088-5.457c-6.99-1.636-12.8-.613-17.267,3.037a17.676,17.676,0,0,0-4.84,6.221,3.276,3.276,0,0,1-6.091-2.412c2.509-6.389,11.937-17.375,29.691-13.226a16.132,16.132,0,0,1,11.517,9.037c4.573,9.653.862,24.618-2.806,34.989a28.815,28.815,0,0,1,6.121-1.851c5.409-.982,10.943.195,14.485,1.287a15.048,15.048,0,0,1,4.519-8.045,17.916,17.916,0,0,1,7.365-4.387c.213-4.357,1.549-12.742,8.413-16.713a26.483,26.483,0,0,1,14.288-3.447c.35-5.185,2.1-15.068,10.059-21.3,8.873-6.944,18.68-4.638,22.6-3.269a32.705,32.705,0,0,0-6.484-13.72c-6.582-8.13-21.294-8.518-21.294-8.518" transform="translate(28.843 0.742)" fill="#eeac3a"/>
          <path id="Trazado_215103" data-name="Trazado 215103" d="M278.467,150.144a2.912,2.912,0,0,1,.213-4.257,10.453,10.453,0,0,0,2.641-11.558c-1.777-4.586-7.9-4.317-11.262-3.784-1.146,3.721-6.258,18.558-15.992,22.936a13.622,13.622,0,0,1-5.618,1.224c-.119,0-.24-.018-.359-.021-1.471,3.062-3.44,8.311-2.506,11.722a3.939,3.939,0,0,0,2.043,2.579c3.08,1.706,5.861,1.843,8.5.419a10.69,10.69,0,0,0,3.166-2.655,3.743,3.743,0,0,1,6.118,4.314,16.489,16.489,0,0,1-12.976,6.812,17.286,17.286,0,0,1-8.432-2.34,11.478,11.478,0,0,1-5.642-7.169c-1.5-5.491.693-11.915,2.456-15.821-3.861-2.112-6.412-4.876-7.563-8.246a12.647,12.647,0,0,1,.5-9.288,3.744,3.744,0,0,1,6.715,3.314c-.514,1.13-1.659,5.01,4.782,8.094a6.4,6.4,0,0,0,5.749.23c6.25-2.81,10.923-14.854,12.068-18.85a3.748,3.748,0,0,1,.5-1.044l-2.185-7.867c-2.454-.917-8.273-2.742-13.616-1.769a25.168,25.168,0,0,0-11.715,5.765,2.917,2.917,0,0,1-3.185.57c-.22-.1-22.213-9.654-40.36-8.76-23.535,1.155-42.979,19.414-44.214,20.6l-4.565,5.136a3.7,3.7,0,0,1,.063.631c0,.914.277,22.557,16.869,24.039,9.641.861,12.681-7.659,13-8.633A3.743,3.743,0,0,1,180.8,158.7c-1.549,5-7.407,13.944-18.783,13.944-.657,0-1.33-.029-2.024-.09-17.336-1.549-22.867-18.491-23.6-29.065-4-.676-13-1.431-19.066,3.878-8.189,7.166-8.864,15.647-8.888,16a2.908,2.908,0,0,1-3.085,2.714c-.155-.007-16.545-.87-24.76,10.425-8.337,11.467-5.223,21.909-5.189,22.016a2.9,2.9,0,0,1-.238,2.278l-4.579,8.2c.2,4.177,1.732,9.406,6.418,15.057a31.03,31.03,0,0,0,21.054,11.311,154.993,154.993,0,0,1,1.832-17.536c2.685-16.267,7.605-27.647,14.623-33.82a20.7,20.7,0,0,1,16.961-5.152c6.972.9,12.383,3.955,16.077,9.09,7.875,10.948,4.727,27.391,4.591,28.086a3.744,3.744,0,0,1-7.346-1.453c.046-.24,2.62-14.026-3.336-22.277-2.469-3.421-6.049-5.39-10.939-6.018a13.3,13.3,0,0,0-11.059,3.342c-5.592,4.918-9.8,15.056-12.167,29.316a145.678,145.678,0,0,0-1.882,21.011c0,.027-.007.052-.009.082,3.017,4.615,11.082,10.948,32.657,10.453,25.964-.6,52.832-20.736,63.791-29.939l.1-.234c-4.247-10.716-16.47-45.572.851-53.226,6.988-3.087,12.855-3.146,17.44-.173,7.819,5.072,8.09,16.687,8.1,17.994a3.745,3.745,0,0,1-3.728,3.759H224.6a3.743,3.743,0,0,1-3.744-3.719c-.023-2.442-.911-9.32-4.694-11.759-2.331-1.5-5.806-1.251-10.328.748-8.4,3.709-3.665,24.749,1.4,39.106,3.063-.523,16.155-3.059,24.737-9.415,8.615-6.384,8.154-11.526,8.146-11.577a2.858,2.858,0,0,1,1.754-3.143,2.939,2.939,0,0,1,3.495,1.055c.021.012,2.583,2.871,11.018,3.183,8.26.317,12.554-9.156,12.595-9.252.013-.028.033-.051.045-.078a2.57,2.57,0,0,1,.208-.368c.024-.038.048-.076.074-.11a2.605,2.605,0,0,1,.325-.375l.013-.015a2.7,2.7,0,0,1,.429-.334.393.393,0,0,1,.038-.023,3.478,3.478,0,0,1,.435-.222l.069-.026a3.069,3.069,0,0,1,.481-.139.087.087,0,0,0,.026,0,2.82,2.82,0,0,1,.52-.051c-.046,0,5.368-.519,10.536-11.5,5.231-11.118-3.34-20.144-3.708-20.523" transform="translate(15.391 24.995)" fill="#43a99b"/>
          <path id="Trazado_215104" data-name="Trazado 215104" d="M315.788,111.029a31.466,31.466,0,0,1-16.616,5.24,26.134,26.134,0,0,1-11.641-2.78c-.538-.264-1.045-.54-1.542-.819-3.956,4.167-14.081,16.462-6.365,26.154,9.425,11.842,22.928,2.65,23.5,2.252a2.808,2.808,0,1,1,3.208,4.609,27.38,27.38,0,0,1-14.906,4.759c-5.5,0-11.359-2.046-16.2-8.123-9.1-11.424-.994-25.391,6.085-32.941-11.652-10.417-4.5-25.7-4.415-25.875a2.808,2.808,0,1,1,5.059,2.44c-.726,1.532-6.707,15.254,8.05,22.5,6.475,3.182,13.318,2.95,20.328-.686.481-.25.943-.51,1.395-.773.295-1.672,1.1-8.9-3.951-21.685-2.957-7.492-6.514-11.666-9.3-13.964l-4.5.216a2.949,2.949,0,0,1-1.4-.283c-.392-.186-9.965-4.575-18.246,1.91-8.574,6.711-7.9,19.657-7.894,19.787a2.9,2.9,0,0,1-3.552,3,20.807,20.807,0,0,0-13.573,2.408c-6.1,3.527-5.535,13.906-5.526,14.011a2.861,2.861,0,0,1-.884,2.431,2.684,2.684,0,0,1-2.353.665c-.386.009-2.705.194-5.977,3.225a9.616,9.616,0,0,0-3,7.32l2.378,8.557c6.151-1.043,14.682-.309,17.686,7.448a16.174,16.174,0,0,1-2.333,15.994c3.037,4.1,8.345,13.613,3.027,24.91-2.732,5.805-5.678,9.342-8.281,11.492,3.425.479,8.67.543,16.358-.871,16.663-3.06,18.148-14.394,18.159-14.509a2.888,2.888,0,0,1,.446-1.223c.111-3.784.929-10.676,5.117-15.18a13.667,13.667,0,0,1,10.453-4.317h.069c4.007.015,7.2,1.307,9.478,3.834,4.037,4.476,3.42,11.158,3.392,11.439a2.807,2.807,0,0,1-5.588-.544c.007-.082.374-4.553-1.992-7.15a6.8,6.8,0,0,0-5.309-1.962h-.05a8.164,8.164,0,0,0-6.33,2.512c-4.223,4.53-3.609,13.567-3.6,13.658a2.808,2.808,0,0,1-.055.732,10.64,10.64,0,0,0,4.475,6.456c7.755,5.078,20.759-.1,20.759-.1,7.451-3.888,18.239-13.171,19.243-34.533,1.08-22.93-7.8-35.888-13.284-41.645" transform="translate(50.49 15.187)" fill="#12263f"/>
          <path id="Trazado_215105" data-name="Trazado 215105" d="M292.429,238.262a29.441,29.441,0,0,1-23.976-12.4,23.73,23.73,0,0,1-3.2-6.406c-2.5-1.116-12.123-4.661-18.961,3.37a12.675,12.675,0,0,0-.073,17.338,2.807,2.807,0,0,1-4.121,3.814c-3.827-4.111-8.767-14.585-.083-24.791,6.805-8,16.1-7.877,22.344-6.048a17.088,17.088,0,0,1,1.86-7.213c6.319-12.411,17.536-12.492,22.584-10.8a2.808,2.808,0,0,1-1.77,5.329c-1.044-.333-10.244-2.91-15.808,8.017-2.156,4.236-1.49,9.407,1.834,14.177a23.745,23.745,0,0,0,22.012,9.842c.53-.065,1.044-.132,1.548-.207,3.609-3,8.862-9.374,14.232-22.913a65.993,65.993,0,0,0,3.15-35.75c-2.313.788-10.984,1.211-17.35-2.374a14.4,14.4,0,0,1-5.077-4.732c-2.99,4.5-8.731,9.626-19.691,11.643a70,70,0,0,1-12.553,1.267,30.341,30.341,0,0,1-11.19-1.763c-2.409,3.856-7.791,10.323-16.646,9.986a28.612,28.612,0,0,1-11.063-2.329c-1.141,3.138-3.773,7.3-9.677,11.673-9.056,6.708-21.893,9.52-26.408,10.338,0,0-2.9,9.931,3.772,17.529,2.632,2.993,5.944,3.764,8.309,4.387a38.135,38.135,0,0,0,7.2-.721c5.743-1.18,9.18-3.583,10.216-7.138,2.658-9.111-3.406-13.848-3.664-14.045a2.807,2.807,0,0,1,3.344-4.51c.39.285,9.495,7.161,5.713,20.128-2.113,7.245-9.224,10.123-15.388,11.239.4,5.172,2.524,13.51,10.983,21.249,13.551,12.387,38.717,20.906,60.785,8.905,16.146-8.781,17.369-20.457,16.865-26.1l-.057,0" transform="translate(40.058 36.308)" fill="#1a76b7"/>
        </g>
      </g>
      <path id="Trazado_215106" data-name="Trazado 215106" d="M1836.723-10901.9H1633.1" transform="translate(-1190.555 11812.86)" fill="none" stroke="#11273d" stroke-width="3"/>
      <path id="Trazado_215109" data-name="Trazado 215109" d="M1907.9-10901.9H1633.1" transform="translate(-856.302 11813.346)" fill="none" stroke="#11273d" stroke-width="3"/>
      <path id="Trazado_215110" data-name="Trazado 215110" d="M1889.049-10901.9H1633.1" transform="translate(-837.448 11948.548)" fill="none" stroke="#11273d" stroke-width="3"/>
      <path id="Trazado_215111" data-name="Trazado 215111" d="M1861.909-10901.9H1633.1" transform="translate(-810.308 12055.736)" fill="none" stroke="#11273d" stroke-width="3"/>
      <path id="Trazado_215108" data-name="Trazado 215108" d="M1863.254-10901.9H1633.1" transform="translate(-1190.555 12029.672)" fill="none" stroke="#11273d" stroke-width="3"/>
      <path id="Trazado_215107" data-name="Trazado 215107" d="M1764.973-10901.9H1633.1" transform="translate(-1190.555 11927.356)" fill="none" stroke="#11273d" stroke-width="3"/>
      <path id="Polígono_60" data-name="Polígono 60" d="M9.744,0l9.744,15.835H0Z" transform="translate(688.871 1118.169) rotate(91)" fill="#12263f"/>
      <path id="Polígono_62" data-name="Polígono 62" d="M9.744,0l9.744,15.835H0Z" transform="translate(654.254 901.357) rotate(91)" fill="#12263f"/>
      <path id="Polígono_61" data-name="Polígono 61" d="M9.744,0l9.744,15.835H0Z" transform="translate(582.504 1015.854) rotate(91)" fill="#12263f"/>
      <rect id="Rectángulo_54073" data-name="Rectángulo 54073" width="104.751" height="54.812" rx="4" transform="translate(308.438 884.041)" fill="#afafaf"/>
      <rect id="Rectángulo_54074" data-name="Rectángulo 54074" width="104.751" height="54.812" rx="4" transform="translate(308.438 998.537)" fill="#afafaf"/>
      <rect id="Rectángulo_54075" data-name="Rectángulo 54075" width="104.751" height="54.812" rx="4" transform="translate(308.438 1100.853)" fill="#afafaf"/>
      <text id="PIENSO" transform="translate(320.618 917.658)" fill="#fff" font-size="21" font-family="SegoeUI-Bold, Segoe UI" font-weight="700"><tspan x="0" y="0">PIENSO</tspan></text>
      <text id="Neocortex" transform="translate(1084.33 894.515)" fill="#12263f" font-size="21" font-family="SegoeUI-Bold, Segoe UI" font-weight="700"><tspan x="0" y="0">Neocortex</tspan></text>
      <text id="Cerebro_límbico" data-name="Cerebro límbico" transform="translate(1084.33 1029.718)" fill="#12263f" font-size="21" font-family="SegoeUI-Bold, Segoe UI" font-weight="700"><tspan x="0" y="0">Cerebro límbico</tspan></text>
      <text id="Cerebro_reptiliano" data-name="Cerebro reptiliano" transform="translate(1084.33 1136.905)" fill="#12263f" font-size="21" font-family="SegoeUI-Bold, Segoe UI" font-weight="700"><tspan x="0" y="0">Cerebro reptiliano</tspan></text>
      <text id="Cerebro_racional" data-name="Cerebro racional" transform="translate(1084.33 920.094)" fill="#12263f" font-size="21" font-family="SegoeUI, Segoe UI"><tspan x="0" y="0">Cerebro racional</tspan></text>
      <text id="Cerebro_emocional" data-name="Cerebro emocional" transform="translate(1084.33 1056.297)" fill="#12263f" font-size="22" font-family="SegoeUI, Segoe UI"><tspan x="0" y="0">Cerebro emocional</tspan></text>
      <text id="Cerebro_instintivo_o_de_supervivencia" data-name="Cerebro instintivo o
de supervivencia" transform="translate(1084.33 1162.484)" fill="#12263f" font-size="21" font-family="SegoeUI, Segoe UI"><tspan x="0" y="0">Cerebro instintivo o</tspan><tspan x="0" y="23">de supervivencia</tspan></text>
      <text id="SIENTO" transform="translate(320.618 1032.153)" fill="#fff" font-size="21" font-family="SegoeUI-Bold, Segoe UI" font-weight="700"><tspan x="0" y="0">SIENTO</tspan></text>
      <text id="ACTUO" transform="translate(320.618 1135.469)" fill="#fff" font-size="22" font-family="SegoeUI-Bold, Segoe UI" font-weight="700"><tspan x="0" y="0">ACTUO</tspan></text>
      <ellipse id="Elipse_6182" data-name="Elipse 6182" cx="9.744" cy="9.744" rx="9.744" ry="9.744" transform="translate(767.639 901.094)" fill="#12263f"/>
      <ellipse id="Elipse_6185" data-name="Elipse 6185" cx="9.744" cy="9.744" rx="9.744" ry="9.744" transform="translate(785.91 1036.297)" fill="#12263f"/>
      <ellipse id="Elipse_6187" data-name="Elipse 6187" cx="9.744" cy="9.744" rx="9.744" ry="9.744" transform="translate(812.707 1143.484)" fill="#12263f"/>
      <ellipse id="Elipse_6183" data-name="Elipse 6183" cx="9.744" cy="9.744" rx="9.744" ry="9.744" transform="translate(1041.698 901.094)" fill="#12263f"/>
      <ellipse id="Elipse_6184" data-name="Elipse 6184" cx="9.744" cy="9.744" rx="9.744" ry="9.744" transform="translate(1041.698 1036.297)" fill="#12263f"/>
      <ellipse id="Elipse_6186" data-name="Elipse 6186" cx="9.744" cy="9.744" rx="9.744" ry="9.744" transform="translate(1041.698 1143.484)" fill="#12263f"/>
    </g>
  </g>
</svg>
