<svg xmlns="http://www.w3.org/2000/svg" xmlns:xlink="http://www.w3.org/1999/xlink" width="959.186" height="366.405" viewBox="0 0 959.186 366.405">
  <defs>
    <clipPath id="clip-path">
      <rect id="Rectángulo_54072" data-name="Rectángulo 54072" width="379.653" height="366.405" fill="none"/>
    </clipPath>
  </defs>
  <g id="Grupo_175151" data-name="Grupo 175151" transform="translate(-308.438 -934.297)">
    <g id="Grupo_174781" data-name="Grupo 174781" transform="translate(600.768 934.297)">
      <g id="Grupo_174780" data-name="Grupo 174780" clip-path="url(#clip-path)">
        <path id="Trazado_215100" data-name="Trazado 215100" d="M184.472,207.052a39.583,39.583,0,0,0,5.52,16.313c4.85,7.579,12.031,7.579,12.031,7.579s7.954,19.838,19.947,27.915a48.772,48.772,0,0,0,33.742,7.587s.615,14.574,5.519,26.1a71.585,71.585,0,0,0,13,19.779s-13.559,17.727-27.137,3.247c-4.7-5.01-13.6-4.713-18.4-9.352-17.8-17.2-14.1-30.711-14.1-30.711a42.718,42.718,0,0,1-34.9-9.632c-21.466-18.116-24.732-37.933-24.732-37.933s4.787.207,14.759-7.369,14.761-13.52,14.761-13.52" transform="translate(33.786 45.146)" fill="#d8d8d8"/>
        <path id="Trazado_215101" data-name="Trazado 215101" d="M196.3,8.073A60.537,60.537,0,0,0,157.714.6c-17.546,2.506-26.277,10.021-29.8,14.042A49.025,49.025,0,0,0,130.753,31.1c5.793,16.064,21.218,13.311,21.872,13.185a3.276,3.276,0,0,1,1.272,6.426,23.435,23.435,0,0,1-4.535.42c-8.068,0-19.663-3.64-24.772-17.808A55.387,55.387,0,0,1,121.4,17.11c-5.32.188-14.961,1.513-27.178,7.5-13.372,6.548-16.6,14.515-18.563,19.969l.152,4.726,0,1.234c0,.78.3,19.229,14.5,19.584.174,0,.347.006.518.006,12.087,0,14.212-10.8,14.418-12.053a3.276,3.276,0,0,1,6.473,1.012c-.946,6.146-6.531,17.592-20.886,17.592-.227,0-.453,0-.686-.007-15.7-.392-20.429-15.747-20.857-24.844l.012-1.391a55.459,55.459,0,0,0-23.463,9.793,29.917,29.917,0,0,0-12.221,20.4c9.113,2.136,18.1,7.346,25.656,18.9,6.012,9.191,8.023,17.4,5.974,24.4-1.781,6.093-6.465,10.88-13.923,14.233a18.95,18.95,0,0,1-7.72,1.848,12.511,12.511,0,0,1-5.867-1.415c-6.452-3.359-8.07-11.51-8.135-11.856a3.276,3.276,0,1,1,6.437-1.224c.3,1.488,1.733,5.728,4.747,7.283,2.007,1.034,4.65.828,7.851-.611,5.63-2.53,9.1-5.927,10.323-10.1,1.485-5.077-.255-11.461-5.169-18.973-7.739-11.83-16.749-16.09-27.423-17.028-3.194,2.141-7.216,6.235-11.525,14.023-10.066,18.2-3.1,33.684-3.1,33.684S-2.06,139.534.263,158.506s15.746,22.519,15.746,22.519-4.258,13.548,2.711,21.681a24.933,24.933,0,0,0,11.6,7.727c4.669-7.353,16.606-24.255,28.3-25.366a12.479,12.479,0,0,1,3.006.076c2.149-3.113,8.465-13.749-.138-20.759-10.32-8.408-19.211-.468-19.585-.125a3.276,3.276,0,0,1-4.428-4.828c4.608-4.223,16.42-9.683,28.15-.125,10.752,8.759,6.686,21.45,2.076,28.572a15.829,15.829,0,0,1,2.077,1.992c3.726,4.3,5.288,8.882,4.638,13.609-1.182,8.619-9.5,14.217-9.859,14.451a3.276,3.276,0,0,1-3.624-5.459c.088-.058,6.236-4.253,7-9.91.376-2.806-.639-5.555-3.1-8.4-1.688-1.95-3.463-2.77-5.583-2.564C50.662,192.4,39.465,208,34.9,215.474c1.5,5.4,6.261,14.169,21.378,15.5,13.107,1.147,21.846-1.391,26.779-3.638l1.879-3.368c-.752-3.642-1.972-14.42,6.355-25.87,7.988-10.983,21.462-12.637,27.172-12.821A32.33,32.33,0,0,1,128.894,168a20.529,20.529,0,0,1,1.776-1.384c-2.118-4.745-4.706-10.853-7.462-18.057-4.425-11.556-11.152-19.584-18-21.473-4.319-1.192-8.834.032-13.419,3.641-5.033,3.961-7.681,8.116-7.869,12.351-.258,5.833,4.259,10.256,4.306,10.3a3.276,3.276,0,1,1-4.491,4.77c-.277-.259-6.754-6.467-6.361-15.363.276-6.225,3.763-12.015,10.363-17.21,7.861-6.186,14.787-6.029,19.213-4.806,8.978,2.477,17.133,11.753,22.375,25.449,2.644,6.908,5.151,12.828,7.217,17.465,6.806-2.283,13.811-1.407,17.043-.775l4.3-4.834a16.475,16.475,0,0,1-1.856-13.518,18.046,18.046,0,0,1,5.179-8.437,18.5,18.5,0,0,1-5.106-15.444,20.885,20.885,0,0,1,7.067-12.606,3.255,3.255,0,0,1-.481-.875c-.061-.167-6.429-15.312-18.082-17.254-11.51-1.912-19.433,7.925-19.509,8.043a3.277,3.277,0,0,1-5.458-3.627c.418-.627,9.464-14.416,25.105-11.813,8.718,1.449,15.813,7.5,19.58,13.459a74.115,74.115,0,0,1,1.993-22.629c3.878-15.755,14.322-26.032,18.66-29.742-2.164-4.859-5.685-16.166-.77-24.406A27.033,27.033,0,0,1,196.3,8.073" transform="translate(0 0)" fill="#7f4fc7"/>
        <path id="Trazado_215102" data-name="Trazado 215102" d="M287.225,57.548s0-.084-.02-.233c-6.635-.139-12.558,1.485-15.683,4.5a6.965,6.965,0,0,0-2.169,6.313c.959,7.082,3.1,8.409,3.41,8.566a3.276,3.276,0,0,1-.352,6.532H272.4c-1.289,0-8.651.242-10.48-13.284-.62-4.588,1.737-9.642,5.048-12.839,4.059-3.918,10.881-6.156,18.557-6.333-2.345-6.133-7.92-15.456-21.146-23.809C248.65,17.026,234.5,18.5,227.666,20.168A43.166,43.166,0,0,1,226.85,30.9c-2.727,12.942-13.083,20.893-23.232,23.148-.657,3.658-1.549,11.6,1.75,16.889a10.742,10.742,0,0,0,7.467,4.871c6.383,1.277,11.8.181,16.093-3.256a17.178,17.178,0,0,0,4.512-5.384,3.276,3.276,0,1,1,5.956,2.731,23.891,23.891,0,0,1-21.721,12.961,31.252,31.252,0,0,1-6.124-.627A17.19,17.19,0,0,1,199.8,74.379c-3.942-6.337-3.608-14.7-2.915-19.7-10.016-.341-14.433-6.392-14.619-6.658a3.276,3.276,0,0,1,5.352-3.778c.094.122,3.03,3.911,10.119,3.917h.013a23.716,23.716,0,0,0,22.691-18.615,38.114,38.114,0,0,0,.52-11.415A37.935,37.935,0,0,0,175.144,6.822s-7.683,3.352-14.14,13.2c-3.86,5.883-.721,18.559,1.3,22.313a2.9,2.9,0,0,1-.851,3.727c-.136.1-14.02,10.4-18.341,27.963a67.8,67.8,0,0,0-1.177,26.643c4.985,1.261,16.3,3.073,22.562-.423a8.363,8.363,0,0,0,4.182-5.285c3.194-11.431-6.782-19.149-6.883-19.226a3.276,3.276,0,1,1,3.956-5.222c.558.421,13.616,10.534,9.238,26.209a14.818,14.818,0,0,1-7.312,9.252c-3.886,2.164-8.705,2.855-13.274,2.855a59.156,59.156,0,0,1-11.362-1.206,2.885,2.885,0,0,1-1.521,1.732c-.286.138-7.329,3.59-8.52,11.452-1.152,7.614,5.475,12.373,5.758,12.571a2.908,2.908,0,0,1-.782,5.151c-.09.034-3.508,1.336-5.239,6.985a10.466,10.466,0,0,0,.6,7.573c6.465-5.558,24.089-18.888,45.438-19.936,15.587-.764,33.083,5.322,39.981,8.015,4.121-9.975,9.478-27,5.288-35.841a9.755,9.755,0,0,0-7.088-5.457c-6.99-1.636-12.8-.613-17.267,3.037a17.676,17.676,0,0,0-4.84,6.221,3.276,3.276,0,0,1-6.091-2.412c2.509-6.389,11.937-17.375,29.691-13.226a16.132,16.132,0,0,1,11.517,9.037c4.573,9.653.862,24.618-2.806,34.989a28.815,28.815,0,0,1,6.121-1.851c5.409-.982,10.943.195,14.485,1.287a15.048,15.048,0,0,1,4.519-8.045,17.916,17.916,0,0,1,7.365-4.387c.213-4.357,1.549-12.742,8.413-16.713a26.483,26.483,0,0,1,14.288-3.447c.35-5.185,2.1-15.068,10.059-21.3,8.873-6.944,18.68-4.638,22.6-3.269a32.705,32.705,0,0,0-6.484-13.72c-6.582-8.13-21.294-8.518-21.294-8.518" transform="translate(28.843 0.742)" fill="#eeac3a"/>
        <path id="Trazado_215103" data-name="Trazado 215103" d="M278.467,150.144a2.912,2.912,0,0,1,.213-4.257,10.453,10.453,0,0,0,2.641-11.558c-1.777-4.586-7.9-4.317-11.262-3.784-1.146,3.721-6.258,18.558-15.992,22.936a13.622,13.622,0,0,1-5.618,1.224c-.119,0-.24-.018-.359-.021-1.471,3.062-3.44,8.311-2.506,11.722a3.939,3.939,0,0,0,2.043,2.579c3.08,1.706,5.861,1.843,8.5.419a10.69,10.69,0,0,0,3.166-2.655,3.743,3.743,0,0,1,6.118,4.314,16.489,16.489,0,0,1-12.976,6.812,17.286,17.286,0,0,1-8.432-2.34,11.478,11.478,0,0,1-5.642-7.169c-1.5-5.491.693-11.915,2.456-15.821-3.861-2.112-6.412-4.876-7.563-8.246a12.647,12.647,0,0,1,.5-9.288,3.744,3.744,0,0,1,6.715,3.314c-.514,1.13-1.659,5.01,4.782,8.094a6.4,6.4,0,0,0,5.749.23c6.25-2.81,10.923-14.854,12.068-18.85a3.748,3.748,0,0,1,.5-1.044l-2.185-7.867c-2.454-.917-8.273-2.742-13.616-1.769a25.168,25.168,0,0,0-11.715,5.765,2.917,2.917,0,0,1-3.185.57c-.22-.1-22.213-9.654-40.36-8.76-23.535,1.155-42.979,19.414-44.214,20.6l-4.565,5.136a3.7,3.7,0,0,1,.063.631c0,.914.277,22.557,16.869,24.039,9.641.861,12.681-7.659,13-8.633A3.743,3.743,0,0,1,180.8,158.7c-1.549,5-7.407,13.944-18.783,13.944-.657,0-1.33-.029-2.024-.09-17.336-1.549-22.867-18.491-23.6-29.065-4-.676-13-1.431-19.066,3.878-8.189,7.166-8.864,15.647-8.888,16a2.908,2.908,0,0,1-3.085,2.714c-.155-.007-16.545-.87-24.76,10.425-8.337,11.467-5.223,21.909-5.189,22.016a2.9,2.9,0,0,1-.238,2.278l-4.579,8.2c.2,4.177,1.732,9.406,6.418,15.057a31.03,31.03,0,0,0,21.054,11.311,154.993,154.993,0,0,1,1.832-17.536c2.685-16.267,7.605-27.647,14.623-33.82a20.7,20.7,0,0,1,16.961-5.152c6.972.9,12.383,3.955,16.077,9.09,7.875,10.948,4.727,27.391,4.591,28.086a3.744,3.744,0,0,1-7.346-1.453c.046-.24,2.62-14.026-3.336-22.277-2.469-3.421-6.049-5.39-10.939-6.018a13.3,13.3,0,0,0-11.059,3.342c-5.592,4.918-9.8,15.056-12.167,29.316a145.678,145.678,0,0,0-1.882,21.011c0,.027-.007.052-.009.082,3.017,4.615,11.082,10.948,32.657,10.453,25.964-.6,52.832-20.736,63.791-29.939l.1-.234c-4.247-10.716-16.47-45.572.851-53.226,6.988-3.087,12.855-3.146,17.44-.173,7.819,5.072,8.09,16.687,8.1,17.994a3.745,3.745,0,0,1-3.728,3.759H224.6a3.743,3.743,0,0,1-3.744-3.719c-.023-2.442-.911-9.32-4.694-11.759-2.331-1.5-5.806-1.251-10.328.748-8.4,3.709-3.665,24.749,1.4,39.106,3.063-.523,16.155-3.059,24.737-9.415,8.615-6.384,8.154-11.526,8.146-11.577a2.858,2.858,0,0,1,1.754-3.143,2.939,2.939,0,0,1,3.495,1.055c.021.012,2.583,2.871,11.018,3.183,8.26.317,12.554-9.156,12.595-9.252.013-.028.033-.051.045-.078a2.57,2.57,0,0,1,.208-.368c.024-.038.048-.076.074-.11a2.605,2.605,0,0,1,.325-.375l.013-.015a2.7,2.7,0,0,1,.429-.334.393.393,0,0,1,.038-.023,3.478,3.478,0,0,1,.435-.222l.069-.026a3.069,3.069,0,0,1,.481-.139.087.087,0,0,0,.026,0,2.82,2.82,0,0,1,.52-.051c-.046,0,5.368-.519,10.536-11.5,5.231-11.118-3.34-20.144-3.708-20.523" transform="translate(15.391 24.995)" fill="#43a99b"/>
        <path id="Trazado_215104" data-name="Trazado 215104" d="M315.788,111.029a31.466,31.466,0,0,1-16.616,5.24,26.134,26.134,0,0,1-11.641-2.78c-.538-.264-1.045-.54-1.542-.819-3.956,4.167-14.081,16.462-6.365,26.154,9.425,11.842,22.928,2.65,23.5,2.252a2.808,2.808,0,1,1,3.208,4.609,27.38,27.38,0,0,1-14.906,4.759c-5.5,0-11.359-2.046-16.2-8.123-9.1-11.424-.994-25.391,6.085-32.941-11.652-10.417-4.5-25.7-4.415-25.875a2.808,2.808,0,1,1,5.059,2.44c-.726,1.532-6.707,15.254,8.05,22.5,6.475,3.182,13.318,2.95,20.328-.686.481-.25.943-.51,1.395-.773.295-1.672,1.1-8.9-3.951-21.685-2.957-7.492-6.514-11.666-9.3-13.964l-4.5.216a2.949,2.949,0,0,1-1.4-.283c-.392-.186-9.965-4.575-18.246,1.91-8.574,6.711-7.9,19.657-7.894,19.787a2.9,2.9,0,0,1-3.552,3,20.807,20.807,0,0,0-13.573,2.408c-6.1,3.527-5.535,13.906-5.526,14.011a2.861,2.861,0,0,1-.884,2.431,2.684,2.684,0,0,1-2.353.665c-.386.009-2.705.194-5.977,3.225a9.616,9.616,0,0,0-3,7.32l2.378,8.557c6.151-1.043,14.682-.309,17.686,7.448a16.174,16.174,0,0,1-2.333,15.994c3.037,4.1,8.345,13.613,3.027,24.91-2.732,5.805-5.678,9.342-8.281,11.492,3.425.479,8.67.543,16.358-.871,16.663-3.06,18.148-14.394,18.159-14.509a2.888,2.888,0,0,1,.446-1.223c.111-3.784.929-10.676,5.117-15.18a13.667,13.667,0,0,1,10.453-4.317h.069c4.007.015,7.2,1.307,9.478,3.834,4.037,4.476,3.42,11.158,3.392,11.439a2.807,2.807,0,0,1-5.588-.544c.007-.082.374-4.553-1.992-7.15a6.8,6.8,0,0,0-5.309-1.962h-.05a8.164,8.164,0,0,0-6.33,2.512c-4.223,4.53-3.609,13.567-3.6,13.658a2.808,2.808,0,0,1-.055.732,10.64,10.64,0,0,0,4.475,6.456c7.755,5.078,20.759-.1,20.759-.1,7.451-3.888,18.239-13.171,19.243-34.533,1.08-22.93-7.8-35.888-13.284-41.645" transform="translate(50.49 15.187)" fill="#12263f"/>
        <path id="Trazado_215105" data-name="Trazado 215105" d="M292.429,238.262a29.441,29.441,0,0,1-23.976-12.4,23.73,23.73,0,0,1-3.2-6.406c-2.5-1.116-12.123-4.661-18.961,3.37a12.675,12.675,0,0,0-.073,17.338,2.807,2.807,0,0,1-4.121,3.814c-3.827-4.111-8.767-14.585-.083-24.791,6.805-8,16.1-7.877,22.344-6.048a17.088,17.088,0,0,1,1.86-7.213c6.319-12.411,17.536-12.492,22.584-10.8a2.808,2.808,0,0,1-1.77,5.329c-1.044-.333-10.244-2.91-15.808,8.017-2.156,4.236-1.49,9.407,1.834,14.177a23.745,23.745,0,0,0,22.012,9.842c.53-.065,1.044-.132,1.548-.207,3.609-3,8.862-9.374,14.232-22.913a65.993,65.993,0,0,0,3.15-35.75c-2.313.788-10.984,1.211-17.35-2.374a14.4,14.4,0,0,1-5.077-4.732c-2.99,4.5-8.731,9.626-19.691,11.643a70,70,0,0,1-12.553,1.267,30.341,30.341,0,0,1-11.19-1.763c-2.409,3.856-7.791,10.323-16.646,9.986a28.612,28.612,0,0,1-11.063-2.329c-1.141,3.138-3.773,7.3-9.677,11.673-9.056,6.708-21.893,9.52-26.408,10.338,0,0-2.9,9.931,3.772,17.529,2.632,2.993,5.944,3.764,8.309,4.387a38.135,38.135,0,0,0,7.2-.721c5.743-1.18,9.18-3.583,10.216-7.138,2.658-9.111-3.406-13.848-3.664-14.045a2.807,2.807,0,0,1,3.344-4.51c.39.285,9.495,7.161,5.713,20.128-2.113,7.245-9.224,10.123-15.388,11.239.4,5.172,2.524,13.51,10.983,21.249,13.551,12.387,38.717,20.906,60.785,8.905,16.146-8.781,17.369-20.457,16.865-26.1l-.057,0" transform="translate(40.058 36.308)" fill="#1a76b7"/>
      </g>
    </g>
    <path id="Trazado_215106" data-name="Trazado 215106" d="M1836.723-10901.9H1633.1" transform="translate(-1190.555 11872.86)" fill="none" stroke="#11273d" stroke-width="3"/>
    <path id="Trazado_215109" data-name="Trazado 215109" d="M1907.9-10901.9H1633.1" transform="translate(-856.302 11873.346)" fill="none" stroke="#11273d" stroke-width="3"/>
    <path id="Trazado_215110" data-name="Trazado 215110" d="M1889.049-10901.9H1633.1" transform="translate(-837.448 12008.548)" fill="none" stroke="#11273d" stroke-width="3"/>
    <path id="Trazado_215111" data-name="Trazado 215111" d="M1861.909-10901.9H1633.1" transform="translate(-810.308 12115.736)" fill="none" stroke="#11273d" stroke-width="3"/>
    <path id="Trazado_215108" data-name="Trazado 215108" d="M1863.254-10901.9H1633.1" transform="translate(-1190.555 12089.672)" fill="none" stroke="#11273d" stroke-width="3"/>
    <path id="Trazado_215107" data-name="Trazado 215107" d="M1764.973-10901.9H1633.1" transform="translate(-1190.555 11987.356)" fill="none" stroke="#11273d" stroke-width="3"/>
    <path id="Trazado_217554" data-name="Trazado 217554" d="M9.744,0l9.744,15.835H0Z" transform="translate(688.871 1178.169) rotate(91)" fill="#12263f"/>
    <path id="Trazado_217555" data-name="Trazado 217555" d="M9.744,0l9.744,15.835H0Z" transform="translate(654.254 961.357) rotate(91)" fill="#12263f"/>
    <path id="Trazado_217556" data-name="Trazado 217556" d="M9.744,0l9.744,15.835H0Z" transform="translate(582.504 1075.854) rotate(91)" fill="#12263f"/>
    <path id="Trazado_217557" data-name="Trazado 217557" d="M4,0h96.751a4,4,0,0,1,4,4V50.812a4,4,0,0,1-4,4H4a4,4,0,0,1-4-4V4A4,4,0,0,1,4,0Z" transform="translate(308.438 944.041)" fill="#afafaf"/>
    <path id="Trazado_217558" data-name="Trazado 217558" d="M4,0h96.751a4,4,0,0,1,4,4V50.812a4,4,0,0,1-4,4H4a4,4,0,0,1-4-4V4A4,4,0,0,1,4,0Z" transform="translate(308.438 1058.537)" fill="#afafaf"/>
    <path id="Trazado_217559" data-name="Trazado 217559" d="M4,0h96.751a4,4,0,0,1,4,4V50.812a4,4,0,0,1-4,4H4a4,4,0,0,1-4-4V4A4,4,0,0,1,4,0Z" transform="translate(308.438 1160.853)" fill="#afafaf"/>
    <path id="Trazado_217560" data-name="Trazado 217560" d="M4.409-5.26V0H1.333V-14.93H7.157a6.738,6.738,0,0,1,2.958.615,4.534,4.534,0,0,1,1.964,1.748,4.875,4.875,0,0,1,.687,2.579,4.287,4.287,0,0,1-1.5,3.461A6.257,6.257,0,0,1,7.106-5.26Zm0-2.492H7.157a2.7,2.7,0,0,0,1.861-.574,2.088,2.088,0,0,0,.641-1.641,2.463,2.463,0,0,0-.646-1.774,2.413,2.413,0,0,0-1.784-.7H4.409ZM18.149,0H15.073V-14.93h3.076ZM29.982-6.47H24.076v4h6.932V0H21V-14.93h9.987v2.492H24.076V-8.88h5.906ZM44.953,0H41.877L35.889-9.823V0H32.813V-14.93h3.076l6,9.844V-14.93h3.066ZM55.381-3.917a1.579,1.579,0,0,0-.615-1.338,8.07,8.07,0,0,0-2.215-.984,15.7,15.7,0,0,1-2.533-1.02,4.138,4.138,0,0,1-2.543-3.7,3.605,3.605,0,0,1,.682-2.158A4.448,4.448,0,0,1,50.116-14.6a7.372,7.372,0,0,1,2.866-.533,6.71,6.71,0,0,1,2.851.579,4.539,4.539,0,0,1,1.943,1.635,4.28,4.28,0,0,1,.692,2.4H55.392a2.013,2.013,0,0,0-.646-1.594,2.655,2.655,0,0,0-1.815-.569,2.837,2.837,0,0,0-1.753.477,1.5,1.5,0,0,0-.625,1.256,1.44,1.44,0,0,0,.733,1.22,8.283,8.283,0,0,0,2.158.923A9.326,9.326,0,0,1,57.268-6.85a3.9,3.9,0,0,1,1.2,2.912A3.593,3.593,0,0,1,57-.9a6.419,6.419,0,0,1-3.948,1.1,7.623,7.623,0,0,1-3.138-.631,4.965,4.965,0,0,1-2.158-1.728A4.425,4.425,0,0,1,47.014-4.7H50.1q0,2.471,2.953,2.471a2.873,2.873,0,0,0,1.712-.446A1.451,1.451,0,0,0,55.381-3.917ZM72.813-7.126a9.013,9.013,0,0,1-.779,3.866A5.869,5.869,0,0,1,69.8-.7a6.169,6.169,0,0,1-3.327.9,6.211,6.211,0,0,1-3.312-.892,5.926,5.926,0,0,1-2.256-2.548,8.755,8.755,0,0,1-.81-3.809v-.738a8.965,8.965,0,0,1,.795-3.881,5.917,5.917,0,0,1,2.246-2.574,6.177,6.177,0,0,1,3.317-.9,6.177,6.177,0,0,1,3.317.9,5.917,5.917,0,0,1,2.246,2.574,8.94,8.94,0,0,1,.795,3.871ZM69.7-7.8a6.283,6.283,0,0,0-.841-3.568,2.74,2.74,0,0,0-2.4-1.22,2.741,2.741,0,0,0-2.389,1.2,6.211,6.211,0,0,0-.851,3.532v.728a6.361,6.361,0,0,0,.841,3.548,2.733,2.733,0,0,0,2.42,1.261,2.708,2.708,0,0,0,2.379-1.215A6.324,6.324,0,0,0,69.7-7.075Z" transform="translate(320.618 977.658)" fill="#fff"/>
    <path id="Trazado_217561" data-name="Trazado 217561" d="M13.474,0H10.4L4.409-9.823V0H1.333V-14.93H4.409l6,9.844V-14.93h3.066Zm7.6.205a5.447,5.447,0,0,1-3.973-1.5,5.321,5.321,0,0,1-1.533-3.989v-.287a6.7,6.7,0,0,1,.646-2.989,4.741,4.741,0,0,1,1.83-2.03,5.137,5.137,0,0,1,2.7-.713,4.6,4.6,0,0,1,3.584,1.436,5.833,5.833,0,0,1,1.307,4.071v1.21H18.57a2.753,2.753,0,0,0,.866,1.743,2.619,2.619,0,0,0,1.83.656,3.2,3.2,0,0,0,2.676-1.241L25.4-1.794a4.449,4.449,0,0,1-1.8,1.471A5.921,5.921,0,0,1,21.072.205Zm-.338-9.116a1.852,1.852,0,0,0-1.43.6,3.093,3.093,0,0,0-.7,1.71h4.122V-6.84a2.206,2.206,0,0,0-.533-1.529A1.91,1.91,0,0,0,20.733-8.911ZM26.855-5.65a6.58,6.58,0,0,1,.636-2.943,4.654,4.654,0,0,1,1.83-2,5.34,5.34,0,0,1,2.774-.708A5.052,5.052,0,0,1,35.76-9.926a5.514,5.514,0,0,1,1.584,3.732l.021.759a5.8,5.8,0,0,1-1.425,4.1A4.954,4.954,0,0,1,32.115.205a4.979,4.979,0,0,1-3.83-1.538,5.9,5.9,0,0,1-1.43-4.184Zm2.963.21a4.147,4.147,0,0,0,.595,2.418,1.962,1.962,0,0,0,1.7.837A1.966,1.966,0,0,0,33.8-3.011a4.538,4.538,0,0,0,.6-2.644,4.106,4.106,0,0,0-.6-2.4,1.967,1.967,0,0,0-1.7-.852,1.934,1.934,0,0,0-1.682.847A4.614,4.614,0,0,0,29.818-5.44ZM43.8-2.184a1.944,1.944,0,0,0,1.333-.451,1.581,1.581,0,0,0,.533-1.2H48.45a3.8,3.8,0,0,1-.615,2.066A4.06,4.06,0,0,1,46.178-.313a5.183,5.183,0,0,1-2.323.518A4.817,4.817,0,0,1,40.1-1.307a5.985,5.985,0,0,1-1.374-4.178v-.195a5.917,5.917,0,0,1,1.364-4.091A4.761,4.761,0,0,1,43.835-11.3a4.667,4.667,0,0,1,3.338,1.184A4.193,4.193,0,0,1,48.45-6.962H45.671a2.036,2.036,0,0,0-.533-1.407,1.778,1.778,0,0,0-1.354-.541,1.785,1.785,0,0,0-1.564.755,4.374,4.374,0,0,0-.528,2.449V-5.4a4.43,4.43,0,0,0,.523,2.465A1.807,1.807,0,0,0,43.8-2.184ZM49.68-5.65a6.58,6.58,0,0,1,.636-2.943,4.654,4.654,0,0,1,1.83-2A5.34,5.34,0,0,1,54.92-11.3a5.052,5.052,0,0,1,3.666,1.374A5.514,5.514,0,0,1,60.17-6.193l.021.759a5.8,5.8,0,0,1-1.425,4.1A4.954,4.954,0,0,1,54.94.205a4.979,4.979,0,0,1-3.83-1.538,5.9,5.9,0,0,1-1.43-4.184Zm2.963.21a4.147,4.147,0,0,0,.595,2.418,1.962,1.962,0,0,0,1.7.837,1.966,1.966,0,0,0,1.682-.827,4.538,4.538,0,0,0,.6-2.644,4.106,4.106,0,0,0-.6-2.4,1.967,1.967,0,0,0-1.7-.852,1.934,1.934,0,0,0-1.682.847A4.614,4.614,0,0,0,52.644-5.44ZM55.5-15.75h3.23l-2.84,3.179h-2.41ZM68.25-8.316A8.051,8.051,0,0,0,67.184-8.4a2.171,2.171,0,0,0-2.2,1.138V0H62.016V-11.095h2.8L64.9-9.772A2.746,2.746,0,0,1,67.368-11.3a3.105,3.105,0,0,1,.923.133Zm5.486-5.506v2.728h1.9v2.174h-1.9v5.537a1.322,1.322,0,0,0,.236.882,1.184,1.184,0,0,0,.9.267,4.726,4.726,0,0,0,.872-.072V-.062a6.1,6.1,0,0,1-1.794.267q-3.117,0-3.179-3.148V-8.921h-1.62v-2.174h1.62v-2.728ZM82.39.205a5.447,5.447,0,0,1-3.973-1.5,5.321,5.321,0,0,1-1.533-3.989v-.287a6.7,6.7,0,0,1,.646-2.989,4.741,4.741,0,0,1,1.83-2.03,5.137,5.137,0,0,1,2.7-.713,4.6,4.6,0,0,1,3.584,1.436,5.833,5.833,0,0,1,1.307,4.071v1.21H79.888a2.753,2.753,0,0,0,.866,1.743,2.619,2.619,0,0,0,1.83.656,3.2,3.2,0,0,0,2.676-1.241l1.456,1.63a4.449,4.449,0,0,1-1.8,1.471A5.921,5.921,0,0,1,82.39.205Zm-.338-9.116a1.852,1.852,0,0,0-1.43.6,3.093,3.093,0,0,0-.7,1.71h4.122V-6.84a2.206,2.206,0,0,0-.533-1.529A1.91,1.91,0,0,0,82.052-8.911ZM92.859-7.783l1.866-3.312h3.168L94.736-5.66,98.027,0H94.849L92.87-3.486,90.9,0H87.712L91-5.66l-3.148-5.435h3.179Z" transform="translate(1084.33 954.515)" fill="#12263f"/>
    <path id="Trazado_217562" data-name="Trazado 217562" d="M13.053-4.973a5.283,5.283,0,0,1-1.779,3.794A6.248,6.248,0,0,1,7.044.205,5.618,5.618,0,0,1,2.528-1.728,7.925,7.925,0,0,1,.882-7.034v-.913a8.95,8.95,0,0,1,.759-3.794,5.686,5.686,0,0,1,2.169-2.517,6.075,6.075,0,0,1,3.276-.877,6.087,6.087,0,0,1,4.163,1.384,5.677,5.677,0,0,1,1.825,3.886H10a3.118,3.118,0,0,0-.8-2.1,2.981,2.981,0,0,0-2.107-.651,2.614,2.614,0,0,0-2.3,1.1A6.178,6.178,0,0,0,4-8.09v1.128a6.612,6.612,0,0,0,.733,3.538A2.565,2.565,0,0,0,7.044-2.307a3.037,3.037,0,0,0,2.128-.651,2.941,2.941,0,0,0,.8-2.015ZM19.985.205a5.447,5.447,0,0,1-3.973-1.5,5.321,5.321,0,0,1-1.533-3.989v-.287a6.7,6.7,0,0,1,.646-2.989,4.741,4.741,0,0,1,1.83-2.03,5.137,5.137,0,0,1,2.7-.713A4.6,4.6,0,0,1,23.24-9.864a5.833,5.833,0,0,1,1.307,4.071v1.21H17.483a2.753,2.753,0,0,0,.866,1.743,2.619,2.619,0,0,0,1.83.656,3.2,3.2,0,0,0,2.676-1.241l1.456,1.63a4.449,4.449,0,0,1-1.8,1.471A5.921,5.921,0,0,1,19.985.205Zm-.338-9.116a1.852,1.852,0,0,0-1.43.6,3.093,3.093,0,0,0-.7,1.71h4.122V-6.84A2.206,2.206,0,0,0,21.1-8.37,1.91,1.91,0,0,0,19.646-8.911Zm12.817.595A8.051,8.051,0,0,0,31.4-8.4a2.171,2.171,0,0,0-2.2,1.138V0H26.229V-11.095h2.8l.082,1.323A2.746,2.746,0,0,1,31.582-11.3a3.105,3.105,0,0,1,.923.133ZM39,.205a5.447,5.447,0,0,1-3.973-1.5,5.321,5.321,0,0,1-1.533-3.989v-.287a6.7,6.7,0,0,1,.646-2.989,4.741,4.741,0,0,1,1.83-2.03,5.137,5.137,0,0,1,2.7-.713,4.6,4.6,0,0,1,3.584,1.436,5.833,5.833,0,0,1,1.307,4.071v1.21H36.494A2.753,2.753,0,0,0,37.36-2.84a2.619,2.619,0,0,0,1.83.656,3.2,3.2,0,0,0,2.676-1.241l1.456,1.63a4.449,4.449,0,0,1-1.8,1.471A5.921,5.921,0,0,1,39,.205Zm-.338-9.116a1.852,1.852,0,0,0-1.43.6,3.093,3.093,0,0,0-.7,1.71h4.122V-6.84a2.206,2.206,0,0,0-.533-1.529A1.91,1.91,0,0,0,38.657-8.911ZM55.238-5.445A6.718,6.718,0,0,1,54.1-1.287,3.77,3.77,0,0,1,50.921.205,3.464,3.464,0,0,1,48.04-1.179L47.906,0H45.24V-15.75H48.2v5.65a3.375,3.375,0,0,1,2.7-1.2,3.8,3.8,0,0,1,3.184,1.492,6.728,6.728,0,0,1,1.154,4.2ZM52.274-5.66a4.414,4.414,0,0,0-.533-2.456,1.8,1.8,0,0,0-1.589-.774A1.955,1.955,0,0,0,48.2-7.731v4.378a1.981,1.981,0,0,0,1.969,1.169A1.83,1.83,0,0,0,52.059-3.6,7.3,7.3,0,0,0,52.274-5.66ZM63.3-8.316A8.051,8.051,0,0,0,62.231-8.4a2.171,2.171,0,0,0-2.2,1.138V0H57.063V-11.095h2.8l.082,1.323A2.746,2.746,0,0,1,62.416-11.3a3.105,3.105,0,0,1,.923.133Zm.595,2.666a6.58,6.58,0,0,1,.636-2.943,4.654,4.654,0,0,1,1.83-2,5.34,5.34,0,0,1,2.774-.708A5.052,5.052,0,0,1,72.8-9.926a5.514,5.514,0,0,1,1.584,3.732l.021.759a5.8,5.8,0,0,1-1.425,4.1A4.954,4.954,0,0,1,69.152.205a4.979,4.979,0,0,1-3.83-1.538,5.9,5.9,0,0,1-1.43-4.184Zm2.963.21a4.147,4.147,0,0,0,.595,2.418,1.962,1.962,0,0,0,1.7.837,1.966,1.966,0,0,0,1.682-.827,4.538,4.538,0,0,0,.6-2.644,4.106,4.106,0,0,0-.6-2.4,1.967,1.967,0,0,0-1.7-.852,1.934,1.934,0,0,0-1.682.847A4.614,4.614,0,0,0,66.855-5.44ZM84.584,0H81.611V-15.75h2.974Zm5.64,0H87.261V-11.095h2.963Zm-.872-15.6h3.23l-2.84,3.179h-2.41Zm6.2,4.5.092,1.241A3.9,3.9,0,0,1,98.837-11.3a2.959,2.959,0,0,1,2.943,1.692,3.809,3.809,0,0,1,3.333-1.692,3.309,3.309,0,0,1,2.687,1.051,4.831,4.831,0,0,1,.882,3.163V0h-2.974V-7.075a2.113,2.113,0,0,0-.369-1.379,1.636,1.636,0,0,0-1.3-.436,1.85,1.85,0,0,0-1.846,1.271L102.2,0H99.237V-7.065a2.087,2.087,0,0,0-.379-1.395,1.652,1.652,0,0,0-1.292-.431,1.92,1.92,0,0,0-1.825,1.046V0H92.777V-11.095Zm25.4,5.65a6.718,6.718,0,0,1-1.138,4.158A3.77,3.77,0,0,1,116.638.205a3.464,3.464,0,0,1-2.881-1.384L113.624,0h-2.666V-15.75h2.963v5.65a3.375,3.375,0,0,1,2.7-1.2A3.8,3.8,0,0,1,119.8-9.808a6.728,6.728,0,0,1,1.154,4.2Zm-2.963-.215a4.414,4.414,0,0,0-.533-2.456,1.8,1.8,0,0,0-1.589-.774,1.955,1.955,0,0,0-1.948,1.159v4.378a1.981,1.981,0,0,0,1.969,1.169A1.83,1.83,0,0,0,117.776-3.6,7.3,7.3,0,0,0,117.992-5.66ZM125.908,0h-2.974V-11.095h2.974ZM122.76-13.966a1.459,1.459,0,0,1,.446-1.1,1.676,1.676,0,0,1,1.215-.431,1.679,1.679,0,0,1,1.21.431,1.451,1.451,0,0,1,.451,1.1,1.455,1.455,0,0,1-.456,1.107,1.684,1.684,0,0,1-1.2.431,1.684,1.684,0,0,1-1.2-.431A1.455,1.455,0,0,1,122.76-13.966Zm10.2,11.782a1.944,1.944,0,0,0,1.333-.451,1.581,1.581,0,0,0,.533-1.2h2.779a3.8,3.8,0,0,1-.615,2.066,4.06,4.06,0,0,1-1.656,1.456,5.183,5.183,0,0,1-2.323.518,4.817,4.817,0,0,1-3.753-1.512,5.985,5.985,0,0,1-1.374-4.178v-.195a5.917,5.917,0,0,1,1.364-4.091,4.761,4.761,0,0,1,3.743-1.528,4.667,4.667,0,0,1,3.338,1.184,4.193,4.193,0,0,1,1.277,3.153h-2.779a2.036,2.036,0,0,0-.533-1.407,1.778,1.778,0,0,0-1.354-.541,1.785,1.785,0,0,0-1.564.755,4.374,4.374,0,0,0-.528,2.449V-5.4a4.43,4.43,0,0,0,.523,2.465A1.807,1.807,0,0,0,132.962-2.184Zm5.875-3.466a6.58,6.58,0,0,1,.636-2.943,4.654,4.654,0,0,1,1.83-2,5.34,5.34,0,0,1,2.774-.708,5.052,5.052,0,0,1,3.666,1.374,5.514,5.514,0,0,1,1.584,3.732l.021.759a5.8,5.8,0,0,1-1.425,4.1A4.954,4.954,0,0,1,144.1.205a4.979,4.979,0,0,1-3.83-1.538,5.9,5.9,0,0,1-1.43-4.184Zm2.963.21a4.147,4.147,0,0,0,.595,2.418,1.962,1.962,0,0,0,1.7.837,1.966,1.966,0,0,0,1.682-.827,4.538,4.538,0,0,0,.6-2.644,4.106,4.106,0,0,0-.6-2.4,1.967,1.967,0,0,0-1.7-.852,1.934,1.934,0,0,0-1.682.847A4.614,4.614,0,0,0,141.8-5.44Z" transform="translate(1084.33 1089.718)" fill="#12263f"/>
    <path id="Trazado_217563" data-name="Trazado 217563" d="M13.053-4.973a5.283,5.283,0,0,1-1.779,3.794A6.248,6.248,0,0,1,7.044.205,5.618,5.618,0,0,1,2.528-1.728,7.925,7.925,0,0,1,.882-7.034v-.913a8.95,8.95,0,0,1,.759-3.794,5.686,5.686,0,0,1,2.169-2.517,6.075,6.075,0,0,1,3.276-.877,6.087,6.087,0,0,1,4.163,1.384,5.677,5.677,0,0,1,1.825,3.886H10a3.118,3.118,0,0,0-.8-2.1,2.981,2.981,0,0,0-2.107-.651,2.614,2.614,0,0,0-2.3,1.1A6.178,6.178,0,0,0,4-8.09v1.128a6.612,6.612,0,0,0,.733,3.538A2.565,2.565,0,0,0,7.044-2.307a3.037,3.037,0,0,0,2.128-.651,2.941,2.941,0,0,0,.8-2.015ZM19.985.205a5.447,5.447,0,0,1-3.973-1.5,5.321,5.321,0,0,1-1.533-3.989v-.287a6.7,6.7,0,0,1,.646-2.989,4.741,4.741,0,0,1,1.83-2.03,5.137,5.137,0,0,1,2.7-.713A4.6,4.6,0,0,1,23.24-9.864a5.833,5.833,0,0,1,1.307,4.071v1.21H17.483a2.753,2.753,0,0,0,.866,1.743,2.619,2.619,0,0,0,1.83.656,3.2,3.2,0,0,0,2.676-1.241l1.456,1.63a4.449,4.449,0,0,1-1.8,1.471A5.921,5.921,0,0,1,19.985.205Zm-.338-9.116a1.852,1.852,0,0,0-1.43.6,3.093,3.093,0,0,0-.7,1.71h4.122V-6.84A2.206,2.206,0,0,0,21.1-8.37,1.91,1.91,0,0,0,19.646-8.911Zm12.817.595A8.051,8.051,0,0,0,31.4-8.4a2.171,2.171,0,0,0-2.2,1.138V0H26.229V-11.095h2.8l.082,1.323A2.746,2.746,0,0,1,31.582-11.3a3.105,3.105,0,0,1,.923.133ZM39,.205a5.447,5.447,0,0,1-3.973-1.5,5.321,5.321,0,0,1-1.533-3.989v-.287a6.7,6.7,0,0,1,.646-2.989,4.741,4.741,0,0,1,1.83-2.03,5.137,5.137,0,0,1,2.7-.713,4.6,4.6,0,0,1,3.584,1.436,5.833,5.833,0,0,1,1.307,4.071v1.21H36.494A2.753,2.753,0,0,0,37.36-2.84a2.619,2.619,0,0,0,1.83.656,3.2,3.2,0,0,0,2.676-1.241l1.456,1.63a4.449,4.449,0,0,1-1.8,1.471A5.921,5.921,0,0,1,39,.205Zm-.338-9.116a1.852,1.852,0,0,0-1.43.6,3.093,3.093,0,0,0-.7,1.71h4.122V-6.84a2.206,2.206,0,0,0-.533-1.529A1.91,1.91,0,0,0,38.657-8.911ZM55.238-5.445A6.718,6.718,0,0,1,54.1-1.287,3.77,3.77,0,0,1,50.921.205,3.464,3.464,0,0,1,48.04-1.179L47.906,0H45.24V-15.75H48.2v5.65a3.375,3.375,0,0,1,2.7-1.2,3.8,3.8,0,0,1,3.184,1.492,6.728,6.728,0,0,1,1.154,4.2ZM52.274-5.66a4.414,4.414,0,0,0-.533-2.456,1.8,1.8,0,0,0-1.589-.774A1.955,1.955,0,0,0,48.2-7.731v4.378a1.981,1.981,0,0,0,1.969,1.169A1.83,1.83,0,0,0,52.059-3.6,7.3,7.3,0,0,0,52.274-5.66ZM63.3-8.316A8.051,8.051,0,0,0,62.231-8.4a2.171,2.171,0,0,0-2.2,1.138V0H57.063V-11.095h2.8l.082,1.323A2.746,2.746,0,0,1,62.416-11.3a3.105,3.105,0,0,1,.923.133Zm.595,2.666a6.58,6.58,0,0,1,.636-2.943,4.654,4.654,0,0,1,1.83-2,5.34,5.34,0,0,1,2.774-.708A5.052,5.052,0,0,1,72.8-9.926a5.514,5.514,0,0,1,1.584,3.732l.021.759a5.8,5.8,0,0,1-1.425,4.1A4.954,4.954,0,0,1,69.152.205a4.979,4.979,0,0,1-3.83-1.538,5.9,5.9,0,0,1-1.43-4.184Zm2.963.21a4.147,4.147,0,0,0,.595,2.418,1.962,1.962,0,0,0,1.7.837,1.966,1.966,0,0,0,1.682-.827,4.538,4.538,0,0,0,.6-2.644,4.106,4.106,0,0,0-.6-2.4,1.967,1.967,0,0,0-1.7-.852,1.934,1.934,0,0,0-1.682.847A4.614,4.614,0,0,0,66.855-5.44ZM87.691-8.316A8.051,8.051,0,0,0,86.625-8.4a2.171,2.171,0,0,0-2.2,1.138V0H81.457V-11.095h2.8l.082,1.323A2.746,2.746,0,0,1,86.81-11.3a3.105,3.105,0,0,1,.923.133ZM94.223.205a5.447,5.447,0,0,1-3.973-1.5,5.321,5.321,0,0,1-1.533-3.989v-.287a6.7,6.7,0,0,1,.646-2.989,4.741,4.741,0,0,1,1.83-2.03,5.137,5.137,0,0,1,2.7-.713,4.6,4.6,0,0,1,3.584,1.436,5.833,5.833,0,0,1,1.307,4.071v1.21H91.721a2.753,2.753,0,0,0,.866,1.743,2.619,2.619,0,0,0,1.83.656,3.2,3.2,0,0,0,2.676-1.241l1.456,1.63a4.449,4.449,0,0,1-1.8,1.471A5.921,5.921,0,0,1,94.223.205Zm-.338-9.116a1.852,1.852,0,0,0-1.43.6,3.093,3.093,0,0,0-.7,1.71h4.122V-6.84a2.206,2.206,0,0,0-.533-1.529A1.91,1.91,0,0,0,93.885-8.911Zm16.57,3.466a6.654,6.654,0,0,1-1.164,4.107A3.731,3.731,0,0,1,106.148.205a3.456,3.456,0,0,1-2.717-1.169V4.266h-2.963v-15.36h2.748l.1,1.087a3.483,3.483,0,0,1,2.81-1.292,3.757,3.757,0,0,1,3.189,1.518A6.834,6.834,0,0,1,110.455-5.6Zm-2.963-.215a4.366,4.366,0,0,0-.549-2.389,1.787,1.787,0,0,0-1.594-.841,1.941,1.941,0,0,0-1.917,1.066v4.542a1.973,1.973,0,0,0,1.938,1.1Q107.492-2.184,107.492-5.66Zm8.347-8.162v2.728h1.9v2.174h-1.9v5.537a1.322,1.322,0,0,0,.236.882,1.184,1.184,0,0,0,.9.267,4.726,4.726,0,0,0,.872-.072V-.062a6.1,6.1,0,0,1-1.794.267q-3.117,0-3.179-3.148V-8.921h-1.62v-2.174h1.62v-2.728ZM122.514,0H119.54V-11.095h2.974Zm-3.148-13.966a1.459,1.459,0,0,1,.446-1.1,1.676,1.676,0,0,1,1.215-.431,1.679,1.679,0,0,1,1.21.431,1.451,1.451,0,0,1,.451,1.1,1.455,1.455,0,0,1-.456,1.107,1.684,1.684,0,0,1-1.2.431,1.684,1.684,0,0,1-1.2-.431A1.455,1.455,0,0,1,119.366-13.966ZM128.082,0h-2.974V-15.75h2.974Zm5.568,0h-2.974V-11.095h2.974ZM130.5-13.966a1.459,1.459,0,0,1,.446-1.1,1.676,1.676,0,0,1,1.215-.431,1.679,1.679,0,0,1,1.21.431,1.451,1.451,0,0,1,.451,1.1,1.455,1.455,0,0,1-.456,1.107,1.684,1.684,0,0,1-1.2.431,1.684,1.684,0,0,1-1.2-.431A1.455,1.455,0,0,1,130.5-13.966ZM142.519,0a3.291,3.291,0,0,1-.3-.995,3.586,3.586,0,0,1-2.8,1.2,3.939,3.939,0,0,1-2.7-.943,3.034,3.034,0,0,1-1.072-2.379,3.135,3.135,0,0,1,1.307-2.707,6.451,6.451,0,0,1,3.779-.954H142.1v-.636a1.828,1.828,0,0,0-.395-1.23,1.553,1.553,0,0,0-1.246-.461,1.766,1.766,0,0,0-1.174.359,1.219,1.219,0,0,0-.426.984H135.9a2.977,2.977,0,0,1,.595-1.784,3.931,3.931,0,0,1,1.682-1.287,6.129,6.129,0,0,1,2.44-.467,4.842,4.842,0,0,1,3.256,1.031,3.605,3.605,0,0,1,1.2,2.9v4.809a5.3,5.3,0,0,0,.441,2.389V0Zm-2.451-2.061a2.552,2.552,0,0,0,1.21-.292,1.919,1.919,0,0,0,.82-.784V-5.045h-1.107q-2.225,0-2.369,1.538l-.01.174a1.186,1.186,0,0,0,.39.913A1.514,1.514,0,0,0,140.068-2.061Zm10.008-9.034.092,1.282a3.874,3.874,0,0,1,3.189-1.487,3.219,3.219,0,0,1,2.625,1.036,4.832,4.832,0,0,1,.882,3.1V0H153.9V-7.1a1.923,1.923,0,0,0-.41-1.369,1.836,1.836,0,0,0-1.364-.426,2.039,2.039,0,0,0-1.876,1.066V0h-2.963V-11.095Zm8.572,5.445a6.58,6.58,0,0,1,.636-2.943,4.654,4.654,0,0,1,1.83-2,5.34,5.34,0,0,1,2.774-.708,5.052,5.052,0,0,1,3.666,1.374,5.514,5.514,0,0,1,1.584,3.732l.021.759a5.8,5.8,0,0,1-1.425,4.1A4.954,4.954,0,0,1,163.909.205a4.979,4.979,0,0,1-3.83-1.538,5.9,5.9,0,0,1-1.43-4.184Zm2.963.21a4.147,4.147,0,0,0,.595,2.418,1.962,1.962,0,0,0,1.7.837,1.966,1.966,0,0,0,1.682-.827,4.538,4.538,0,0,0,.6-2.644,4.106,4.106,0,0,0-.6-2.4,1.967,1.967,0,0,0-1.7-.852,1.934,1.934,0,0,0-1.682.847A4.614,4.614,0,0,0,161.612-5.44Z" transform="translate(1084.33 1196.905)" fill="#12263f"/>
    <path id="Trazado_217564" data-name="Trazado 217564" d="M12.715-4.737a5.493,5.493,0,0,1-1.748,3.656A5.73,5.73,0,0,1,7.055.205a5.261,5.261,0,0,1-4.24-1.9A7.632,7.632,0,0,1,1.22-6.768V-8.2a8.506,8.506,0,0,1,.743-3.661,5.553,5.553,0,0,1,2.107-2.425,5.867,5.867,0,0,1,3.158-.846,5.4,5.4,0,0,1,3.814,1.328,5.559,5.559,0,0,1,1.671,3.676H10.736a4.29,4.29,0,0,0-1.113-2.592,3.366,3.366,0,0,0-2.394-.8,3.522,3.522,0,0,0-2.958,1.4A6.407,6.407,0,0,0,3.2-8.158v1.447A6.586,6.586,0,0,0,4.214-2.842,3.28,3.28,0,0,0,7.055-1.4a3.789,3.789,0,0,0,2.517-.743,4.125,4.125,0,0,0,1.164-2.589ZM19.708.205a4.848,4.848,0,0,1-3.671-1.482A5.5,5.5,0,0,1,14.622-5.24v-.349a6.658,6.658,0,0,1,.631-2.948,4.919,4.919,0,0,1,1.764-2.03,4.434,4.434,0,0,1,2.456-.733,4.155,4.155,0,0,1,3.363,1.425,6.171,6.171,0,0,1,1.2,4.081V-5H16.519a3.944,3.944,0,0,0,.959,2.651,3.014,3.014,0,0,0,2.333,1.01,3.3,3.3,0,0,0,1.7-.41,4.277,4.277,0,0,0,1.22-1.087l1.159.9A4.659,4.659,0,0,1,19.708.205Zm-.236-9.946a2.53,2.53,0,0,0-1.928.836,4.062,4.062,0,0,0-.964,2.343h5.558v-.144a3.613,3.613,0,0,0-.779-2.24A2.382,2.382,0,0,0,19.472-9.741Zm12.12.349a5.685,5.685,0,0,0-.933-.072,2.5,2.5,0,0,0-2.533,1.589V0h-1.9V-11.095h1.846l.031,1.282A2.954,2.954,0,0,1,30.751-11.3a1.938,1.938,0,0,1,.841.144Zm6.347,9.6a4.848,4.848,0,0,1-3.671-1.482A5.5,5.5,0,0,1,32.854-5.24v-.349a6.658,6.658,0,0,1,.631-2.948,4.919,4.919,0,0,1,1.764-2.03A4.434,4.434,0,0,1,37.7-11.3a4.155,4.155,0,0,1,3.363,1.425,6.171,6.171,0,0,1,1.2,4.081V-5H34.75a3.944,3.944,0,0,0,.959,2.651,3.014,3.014,0,0,0,2.333,1.01,3.3,3.3,0,0,0,1.7-.41,4.277,4.277,0,0,0,1.22-1.087l1.159.9A4.659,4.659,0,0,1,37.939.205ZM37.7-9.741a2.53,2.53,0,0,0-1.928.836,4.062,4.062,0,0,0-.964,2.343H40.37v-.144a3.613,3.613,0,0,0-.779-2.24A2.382,2.382,0,0,0,37.7-9.741Zm16.15,4.317a6.6,6.6,0,0,1-1.169,4.086A3.735,3.735,0,0,1,49.547.205,3.868,3.868,0,0,1,46.3-1.282L46.2,0H44.461V-15.75h1.9v5.875A3.846,3.846,0,0,1,49.526-11.3,3.758,3.758,0,0,1,52.7-9.772a6.8,6.8,0,0,1,1.154,4.184Zm-1.9-.215a5.126,5.126,0,0,0-.749-2.994A2.478,2.478,0,0,0,49.055-9.69a2.785,2.785,0,0,0-2.7,1.743v4.8A2.863,2.863,0,0,0,49.075-1.4,2.464,2.464,0,0,0,51.2-2.461,5.451,5.451,0,0,0,51.957-5.64Zm9.649-3.753a5.685,5.685,0,0,0-.933-.072A2.5,2.5,0,0,0,58.14-7.875V0h-1.9V-11.095h1.846l.031,1.282A2.954,2.954,0,0,1,60.765-11.3a1.938,1.938,0,0,1,.841.144ZM62.641-5.65a6.553,6.553,0,0,1,.641-2.933,4.781,4.781,0,0,1,1.784-2.01,4.857,4.857,0,0,1,2.61-.708,4.679,4.679,0,0,1,3.666,1.569,6.036,6.036,0,0,1,1.4,4.173v.133a6.61,6.61,0,0,1-.62,2.907,4.71,4.71,0,0,1-1.774,2A4.913,4.913,0,0,1,67.7.205a4.667,4.667,0,0,1-3.656-1.569,6.005,6.005,0,0,1-1.4-4.153Zm1.907.226A4.746,4.746,0,0,0,65.4-2.461,2.74,2.74,0,0,0,67.7-1.343a2.724,2.724,0,0,0,2.3-1.133,5.19,5.19,0,0,0,.851-3.174,4.738,4.738,0,0,0-.866-2.958,2.755,2.755,0,0,0-2.3-1.133A2.724,2.724,0,0,0,65.41-8.624,5.152,5.152,0,0,0,64.548-5.424ZM85.682-9.393a5.685,5.685,0,0,0-.933-.072,2.5,2.5,0,0,0-2.533,1.589V0h-1.9V-11.095h1.846L82.2-9.813A2.954,2.954,0,0,1,84.841-11.3a1.938,1.938,0,0,1,.841.144ZM93.864,0A3.985,3.985,0,0,1,93.6-1.169,4.233,4.233,0,0,1,90.439.205a3.916,3.916,0,0,1-2.692-.928A3,3,0,0,1,86.7-3.076a3.136,3.136,0,0,1,1.318-2.692,6.212,6.212,0,0,1,3.707-.959h1.846V-7.6a2.131,2.131,0,0,0-.595-1.584,2.39,2.39,0,0,0-1.753-.59,2.766,2.766,0,0,0-1.7.513,1.511,1.511,0,0,0-.687,1.241H86.922a2.618,2.618,0,0,1,.59-1.6,4.024,4.024,0,0,1,1.6-1.225,5.381,5.381,0,0,1,2.22-.451,4.386,4.386,0,0,1,3,.959A3.458,3.458,0,0,1,95.464-7.7v5.106a6.243,6.243,0,0,0,.39,2.43V0ZM90.716-1.446a3.334,3.334,0,0,0,1.692-.461,2.791,2.791,0,0,0,1.159-1.2V-5.383H92.08q-3.486,0-3.486,2.041a1.727,1.727,0,0,0,.595,1.395A2.286,2.286,0,0,0,90.716-1.446Zm12.171.1a2.732,2.732,0,0,0,1.774-.615A2.164,2.164,0,0,0,105.5-3.5H107.3a3.44,3.44,0,0,1-.656,1.815,4.322,4.322,0,0,1-1.615,1.374,4.66,4.66,0,0,1-2.138.513,4.57,4.57,0,0,1-3.6-1.512,6.024,6.024,0,0,1-1.338-4.137v-.318a6.679,6.679,0,0,1,.595-2.881,4.53,4.53,0,0,1,1.707-1.958,4.85,4.85,0,0,1,2.63-.7,4.45,4.45,0,0,1,3.1,1.118,3.994,3.994,0,0,1,1.318,2.9H105.5a2.614,2.614,0,0,0-.815-1.769,2.536,2.536,0,0,0-1.81-.692,2.655,2.655,0,0,0-2.24,1.041,4.888,4.888,0,0,0-.795,3.01v.359a4.79,4.79,0,0,0,.79,2.953A2.668,2.668,0,0,0,102.888-1.343ZM111.491,0h-1.9V-11.095h1.9ZM109.44-14.038a1.132,1.132,0,0,1,.282-.779,1.059,1.059,0,0,1,.836-.318,1.075,1.075,0,0,1,.841.318,1.12,1.12,0,0,1,.287.779,1.084,1.084,0,0,1-.287.769,1.1,1.1,0,0,1-.841.308,1.078,1.078,0,0,1-.836-.308A1.1,1.1,0,0,1,109.44-14.038Zm4.583,8.388a6.553,6.553,0,0,1,.641-2.933,4.781,4.781,0,0,1,1.784-2.01,4.857,4.857,0,0,1,2.61-.708,4.679,4.679,0,0,1,3.666,1.569,6.036,6.036,0,0,1,1.4,4.173v.133a6.61,6.61,0,0,1-.62,2.907,4.71,4.71,0,0,1-1.774,2,4.913,4.913,0,0,1-2.651.718,4.667,4.667,0,0,1-3.656-1.569,6.005,6.005,0,0,1-1.4-4.153Zm1.907.226a4.746,4.746,0,0,0,.856,2.963,2.74,2.74,0,0,0,2.292,1.118,2.724,2.724,0,0,0,2.3-1.133,5.19,5.19,0,0,0,.851-3.174,4.738,4.738,0,0,0-.866-2.958,2.755,2.755,0,0,0-2.3-1.133,2.724,2.724,0,0,0-2.266,1.118A5.152,5.152,0,0,0,115.931-5.424Zm12.366-5.67.062,1.395a4.043,4.043,0,0,1,3.322-1.6q3.517,0,3.548,3.968V0h-1.9V-7.342a2.554,2.554,0,0,0-.549-1.774,2.2,2.2,0,0,0-1.677-.574,2.738,2.738,0,0,0-1.62.492A3.342,3.342,0,0,0,128.4-7.906V0h-1.9V-11.095ZM144.939,0a3.985,3.985,0,0,1-.267-1.169A4.233,4.233,0,0,1,141.514.205a3.916,3.916,0,0,1-2.692-.928,3,3,0,0,1-1.051-2.353,3.136,3.136,0,0,1,1.318-2.692,6.212,6.212,0,0,1,3.707-.959h1.846V-7.6a2.131,2.131,0,0,0-.595-1.584,2.39,2.39,0,0,0-1.753-.59,2.766,2.766,0,0,0-1.7.513,1.511,1.511,0,0,0-.687,1.241H138a2.618,2.618,0,0,1,.59-1.6,4.024,4.024,0,0,1,1.6-1.225,5.381,5.381,0,0,1,2.22-.451,4.386,4.386,0,0,1,3,.959,3.458,3.458,0,0,1,1.128,2.64v5.106a6.243,6.243,0,0,0,.39,2.43V0Zm-3.148-1.446a3.334,3.334,0,0,0,1.692-.461,2.791,2.791,0,0,0,1.159-1.2V-5.383h-1.487q-3.486,0-3.486,2.041a1.727,1.727,0,0,0,.595,1.395A2.286,2.286,0,0,0,141.791-1.446ZM151.573,0h-1.9V-15.75h1.9Z" transform="translate(1084.33 980.094)" fill="#12263f"/>
    <path id="Trazado_217565" data-name="Trazado 217565" d="M13.32-4.963a5.754,5.754,0,0,1-1.832,3.83A6,6,0,0,1,7.391.215,5.511,5.511,0,0,1,2.949-1.772,8,8,0,0,1,1.278-7.09v-1.5a8.911,8.911,0,0,1,.779-3.835,5.817,5.817,0,0,1,2.208-2.541,6.147,6.147,0,0,1,3.309-.886,5.652,5.652,0,0,1,4,1.391,5.823,5.823,0,0,1,1.751,3.851H11.247a4.494,4.494,0,0,0-1.166-2.715,3.526,3.526,0,0,0-2.508-.84,3.69,3.69,0,0,0-3.1,1.462A6.712,6.712,0,0,0,3.352-8.546V-7.03A6.9,6.9,0,0,0,4.415-2.977,3.436,3.436,0,0,0,7.391-1.472a3.969,3.969,0,0,0,2.637-.779,4.322,4.322,0,0,0,1.219-2.712ZM20.646.215A5.078,5.078,0,0,1,16.8-1.337a5.761,5.761,0,0,1-1.482-4.152v-.365a6.975,6.975,0,0,1,.661-3.088,5.154,5.154,0,0,1,1.848-2.127,4.645,4.645,0,0,1,2.573-.768,4.353,4.353,0,0,1,3.523,1.493A6.465,6.465,0,0,1,25.18-6.069v.827H17.306a4.132,4.132,0,0,0,1,2.777,3.157,3.157,0,0,0,2.444,1.058,3.461,3.461,0,0,0,1.783-.43,4.48,4.48,0,0,0,1.278-1.139l1.214.945A4.881,4.881,0,0,1,20.646.215ZM20.4-10.205a2.651,2.651,0,0,0-2.02.875,4.255,4.255,0,0,0-1.01,2.455h5.822v-.15a3.785,3.785,0,0,0-.816-2.347A2.5,2.5,0,0,0,20.4-10.205Zm12.7.365a5.955,5.955,0,0,0-.978-.075A2.619,2.619,0,0,0,29.466-8.25V0H27.479V-11.623h1.934l.032,1.343a3.094,3.094,0,0,1,2.771-1.558,2.03,2.03,0,0,1,.881.15ZM39.746.215A5.078,5.078,0,0,1,35.9-1.337a5.761,5.761,0,0,1-1.482-4.152v-.365a6.975,6.975,0,0,1,.661-3.088,5.154,5.154,0,0,1,1.848-2.127,4.645,4.645,0,0,1,2.573-.768,4.353,4.353,0,0,1,3.523,1.493,6.465,6.465,0,0,1,1.257,4.275v.827H36.405a4.132,4.132,0,0,0,1,2.777,3.157,3.157,0,0,0,2.444,1.058,3.461,3.461,0,0,0,1.783-.43,4.48,4.48,0,0,0,1.278-1.139l1.214.945A4.881,4.881,0,0,1,39.746.215ZM39.5-10.205a2.651,2.651,0,0,0-2.02.875,4.255,4.255,0,0,0-1.01,2.455h5.822v-.15a3.785,3.785,0,0,0-.816-2.347A2.5,2.5,0,0,0,39.5-10.205ZM56.418-5.683A6.911,6.911,0,0,1,55.193-1.4,3.913,3.913,0,0,1,51.906.215,4.052,4.052,0,0,1,48.5-1.343L48.4,0H46.578V-16.5h1.987v6.155a4.029,4.029,0,0,1,3.319-1.493,3.937,3.937,0,0,1,3.325,1.6,7.118,7.118,0,0,1,1.208,4.383Zm-1.987-.226a5.37,5.37,0,0,0-.784-3.137,2.6,2.6,0,0,0-2.256-1.106,2.918,2.918,0,0,0-2.825,1.826V-3.3a3,3,0,0,0,2.847,1.826,2.582,2.582,0,0,0,2.224-1.106A5.711,5.711,0,0,0,54.431-5.908ZM64.539-9.84a5.955,5.955,0,0,0-.978-.075A2.619,2.619,0,0,0,60.908-8.25V0H58.921V-11.623h1.934l.032,1.343a3.094,3.094,0,0,1,2.771-1.558,2.03,2.03,0,0,1,.881.15Zm1.085,3.921A6.865,6.865,0,0,1,66.3-8.991,5.009,5.009,0,0,1,68.165-11.1a5.088,5.088,0,0,1,2.734-.741,4.9,4.9,0,0,1,3.84,1.644,6.323,6.323,0,0,1,1.466,4.372v.14a6.925,6.925,0,0,1-.65,3.045A4.935,4.935,0,0,1,73.7-.537,5.147,5.147,0,0,1,70.92.215a4.889,4.889,0,0,1-3.83-1.644,6.291,6.291,0,0,1-1.466-4.351Zm2,.236a4.972,4.972,0,0,0,.9,3.1,2.871,2.871,0,0,0,2.4,1.171,2.853,2.853,0,0,0,2.406-1.187,5.437,5.437,0,0,0,.892-3.325,4.964,4.964,0,0,0-.908-3.1A2.886,2.886,0,0,0,70.9-10.205a2.854,2.854,0,0,0-2.374,1.171A5.4,5.4,0,0,0,67.622-5.683ZM88.967.215a5.078,5.078,0,0,1-3.846-1.552,5.761,5.761,0,0,1-1.482-4.152v-.365A6.975,6.975,0,0,1,84.3-8.943a5.154,5.154,0,0,1,1.848-2.127,4.645,4.645,0,0,1,2.573-.768,4.353,4.353,0,0,1,3.523,1.493A6.465,6.465,0,0,1,93.5-6.069v.827H85.626a4.132,4.132,0,0,0,1,2.777,3.157,3.157,0,0,0,2.444,1.058,3.461,3.461,0,0,0,1.783-.43,4.48,4.48,0,0,0,1.278-1.139l1.214.945A4.881,4.881,0,0,1,88.967.215Zm-.247-10.42a2.651,2.651,0,0,0-2.02.875,4.255,4.255,0,0,0-1.01,2.455h5.822v-.15A3.785,3.785,0,0,0,90.7-9.373,2.5,2.5,0,0,0,88.72-10.205Zm8.948-1.418.054,1.289a4.292,4.292,0,0,1,3.448-1.5,3.323,3.323,0,0,1,3.319,1.869A4.4,4.4,0,0,1,106-11.322a4.458,4.458,0,0,1,2.2-.516q3.824,0,3.889,4.05V0H110.1V-7.67a2.669,2.669,0,0,0-.569-1.864,2.507,2.507,0,0,0-1.912-.618,2.635,2.635,0,0,0-1.837.661,2.68,2.68,0,0,0-.849,1.778V0h-2V-7.616a2.217,2.217,0,0,0-2.481-2.535,2.659,2.659,0,0,0-2.675,1.665V0H95.788V-11.623Zm16.887,5.7a6.865,6.865,0,0,1,.671-3.072A5.009,5.009,0,0,1,117.1-11.1a5.088,5.088,0,0,1,2.734-.741,4.9,4.9,0,0,1,3.84,1.644,6.323,6.323,0,0,1,1.466,4.372v.14a6.925,6.925,0,0,1-.65,3.045,4.935,4.935,0,0,1-1.858,2.1,5.147,5.147,0,0,1-2.777.752,4.889,4.889,0,0,1-3.83-1.644,6.291,6.291,0,0,1-1.466-4.351Zm2,.236a4.972,4.972,0,0,0,.9,3.1,2.871,2.871,0,0,0,2.4,1.171,2.853,2.853,0,0,0,2.406-1.187,5.437,5.437,0,0,0,.892-3.325,4.964,4.964,0,0,0-.908-3.1,2.886,2.886,0,0,0-2.412-1.187,2.854,2.854,0,0,0-2.374,1.171A5.4,5.4,0,0,0,116.553-5.683ZM132.29-1.407a2.863,2.863,0,0,0,1.858-.645,2.268,2.268,0,0,0,.881-1.611h1.88a3.6,3.6,0,0,1-.687,1.9A4.528,4.528,0,0,1,134.53-.322a4.882,4.882,0,0,1-2.24.537,4.788,4.788,0,0,1-3.776-1.584,6.311,6.311,0,0,1-1.4-4.334v-.333a7,7,0,0,1,.623-3.019,4.745,4.745,0,0,1,1.789-2.052,5.081,5.081,0,0,1,2.755-.73,4.662,4.662,0,0,1,3.25,1.171,4.185,4.185,0,0,1,1.38,3.04h-1.88a2.739,2.739,0,0,0-.854-1.853,2.657,2.657,0,0,0-1.9-.725,2.781,2.781,0,0,0-2.347,1.09,5.121,5.121,0,0,0-.833,3.153v.376a5.018,5.018,0,0,0,.827,3.094A2.8,2.8,0,0,0,132.29-1.407ZM141.3,0h-1.987V-11.623H141.3Zm-2.148-14.706a1.186,1.186,0,0,1,.3-.816,1.109,1.109,0,0,1,.875-.333,1.126,1.126,0,0,1,.881.333,1.174,1.174,0,0,1,.3.816,1.135,1.135,0,0,1-.3.806,1.147,1.147,0,0,1-.881.322,1.129,1.129,0,0,1-.875-.322A1.147,1.147,0,0,1,139.154-14.706Zm4.8,8.787a6.865,6.865,0,0,1,.671-3.072A5.008,5.008,0,0,1,146.5-11.1a5.088,5.088,0,0,1,2.734-.741,4.9,4.9,0,0,1,3.84,1.644,6.323,6.323,0,0,1,1.466,4.372v.14a6.925,6.925,0,0,1-.65,3.045,4.935,4.935,0,0,1-1.858,2.1,5.146,5.146,0,0,1-2.777.752,4.889,4.889,0,0,1-3.83-1.644,6.291,6.291,0,0,1-1.466-4.351Zm2,.236a4.972,4.972,0,0,0,.9,3.1,2.871,2.871,0,0,0,2.4,1.171,2.853,2.853,0,0,0,2.406-1.187,5.437,5.437,0,0,0,.892-3.325,4.964,4.964,0,0,0-.908-3.1,2.886,2.886,0,0,0-2.412-1.187,2.854,2.854,0,0,0-2.374,1.171A5.4,5.4,0,0,0,145.954-5.683Zm12.955-5.94.064,1.461a4.236,4.236,0,0,1,3.48-1.676q3.685,0,3.717,4.157V0h-1.987V-7.691a2.676,2.676,0,0,0-.575-1.858,2.3,2.3,0,0,0-1.756-.6,2.868,2.868,0,0,0-1.7.516,3.5,3.5,0,0,0-1.139,1.354V0h-1.987V-11.623ZM176.344,0a4.175,4.175,0,0,1-.279-1.225A4.434,4.434,0,0,1,172.756.215a4.1,4.1,0,0,1-2.82-.972,3.145,3.145,0,0,1-1.1-2.465,3.286,3.286,0,0,1,1.38-2.82,6.508,6.508,0,0,1,3.883-1h1.934V-7.96a2.232,2.232,0,0,0-.623-1.66,2.5,2.5,0,0,0-1.837-.618,2.9,2.9,0,0,0-1.783.537,1.583,1.583,0,0,0-.72,1.3h-2a2.743,2.743,0,0,1,.618-1.681,4.216,4.216,0,0,1,1.676-1.284,5.638,5.638,0,0,1,2.326-.473,4.6,4.6,0,0,1,3.147,1,3.623,3.623,0,0,1,1.182,2.766v5.35a6.54,6.54,0,0,0,.408,2.546V0Zm-3.3-1.515A3.493,3.493,0,0,0,174.818-2a2.924,2.924,0,0,0,1.214-1.257V-5.64h-1.558q-3.652,0-3.652,2.138a1.809,1.809,0,0,0,.623,1.461A2.4,2.4,0,0,0,173.046-1.515ZM183.294,0h-1.987V-16.5h1.987Z" transform="translate(1084.33 1116.297)" fill="#12263f"/>
    <path id="Trazado_217566" data-name="Trazado 217566" d="M12.715-4.737a5.493,5.493,0,0,1-1.748,3.656A5.73,5.73,0,0,1,7.055.205a5.261,5.261,0,0,1-4.24-1.9A7.632,7.632,0,0,1,1.22-6.768V-8.2a8.506,8.506,0,0,1,.743-3.661,5.553,5.553,0,0,1,2.107-2.425,5.867,5.867,0,0,1,3.158-.846,5.4,5.4,0,0,1,3.814,1.328,5.559,5.559,0,0,1,1.671,3.676H10.736a4.29,4.29,0,0,0-1.113-2.592,3.366,3.366,0,0,0-2.394-.8,3.522,3.522,0,0,0-2.958,1.4A6.407,6.407,0,0,0,3.2-8.158v1.447A6.586,6.586,0,0,0,4.214-2.842,3.28,3.28,0,0,0,7.055-1.4a3.789,3.789,0,0,0,2.517-.743,4.125,4.125,0,0,0,1.164-2.589ZM19.708.205a4.848,4.848,0,0,1-3.671-1.482A5.5,5.5,0,0,1,14.622-5.24v-.349a6.658,6.658,0,0,1,.631-2.948,4.919,4.919,0,0,1,1.764-2.03,4.434,4.434,0,0,1,2.456-.733,4.155,4.155,0,0,1,3.363,1.425,6.171,6.171,0,0,1,1.2,4.081V-5H16.519a3.944,3.944,0,0,0,.959,2.651,3.014,3.014,0,0,0,2.333,1.01,3.3,3.3,0,0,0,1.7-.41,4.277,4.277,0,0,0,1.22-1.087l1.159.9A4.659,4.659,0,0,1,19.708.205Zm-.236-9.946a2.53,2.53,0,0,0-1.928.836,4.062,4.062,0,0,0-.964,2.343h5.558v-.144a3.613,3.613,0,0,0-.779-2.24A2.382,2.382,0,0,0,19.472-9.741Zm12.12.349a5.685,5.685,0,0,0-.933-.072,2.5,2.5,0,0,0-2.533,1.589V0h-1.9V-11.095h1.846l.031,1.282A2.954,2.954,0,0,1,30.751-11.3a1.938,1.938,0,0,1,.841.144Zm6.347,9.6a4.848,4.848,0,0,1-3.671-1.482A5.5,5.5,0,0,1,32.854-5.24v-.349a6.658,6.658,0,0,1,.631-2.948,4.919,4.919,0,0,1,1.764-2.03A4.434,4.434,0,0,1,37.7-11.3a4.155,4.155,0,0,1,3.363,1.425,6.171,6.171,0,0,1,1.2,4.081V-5H34.75a3.944,3.944,0,0,0,.959,2.651,3.014,3.014,0,0,0,2.333,1.01,3.3,3.3,0,0,0,1.7-.41,4.277,4.277,0,0,0,1.22-1.087l1.159.9A4.659,4.659,0,0,1,37.939.205ZM37.7-9.741a2.53,2.53,0,0,0-1.928.836,4.062,4.062,0,0,0-.964,2.343H40.37v-.144a3.613,3.613,0,0,0-.779-2.24A2.382,2.382,0,0,0,37.7-9.741Zm16.15,4.317a6.6,6.6,0,0,1-1.169,4.086A3.735,3.735,0,0,1,49.547.205,3.868,3.868,0,0,1,46.3-1.282L46.2,0H44.461V-15.75h1.9v5.875A3.846,3.846,0,0,1,49.526-11.3,3.758,3.758,0,0,1,52.7-9.772a6.8,6.8,0,0,1,1.154,4.184Zm-1.9-.215a5.126,5.126,0,0,0-.749-2.994A2.478,2.478,0,0,0,49.055-9.69a2.785,2.785,0,0,0-2.7,1.743v4.8A2.863,2.863,0,0,0,49.075-1.4,2.464,2.464,0,0,0,51.2-2.461,5.451,5.451,0,0,0,51.957-5.64Zm9.649-3.753a5.685,5.685,0,0,0-.933-.072A2.5,2.5,0,0,0,58.14-7.875V0h-1.9V-11.095h1.846l.031,1.282A2.954,2.954,0,0,1,60.765-11.3a1.938,1.938,0,0,1,.841.144ZM62.641-5.65a6.553,6.553,0,0,1,.641-2.933,4.781,4.781,0,0,1,1.784-2.01,4.857,4.857,0,0,1,2.61-.708,4.679,4.679,0,0,1,3.666,1.569,6.036,6.036,0,0,1,1.4,4.173v.133a6.61,6.61,0,0,1-.62,2.907,4.71,4.71,0,0,1-1.774,2A4.913,4.913,0,0,1,67.7.205a4.667,4.667,0,0,1-3.656-1.569,6.005,6.005,0,0,1-1.4-4.153Zm1.907.226A4.746,4.746,0,0,0,65.4-2.461,2.74,2.74,0,0,0,67.7-1.343a2.724,2.724,0,0,0,2.3-1.133,5.19,5.19,0,0,0,.851-3.174,4.738,4.738,0,0,0-.866-2.958,2.755,2.755,0,0,0-2.3-1.133A2.724,2.724,0,0,0,65.41-8.624,5.152,5.152,0,0,0,64.548-5.424ZM82.38,0h-1.9V-11.095h1.9ZM80.329-14.038a1.132,1.132,0,0,1,.282-.779,1.059,1.059,0,0,1,.836-.318,1.075,1.075,0,0,1,.841.318,1.12,1.12,0,0,1,.287.779,1.084,1.084,0,0,1-.287.769,1.1,1.1,0,0,1-.841.308,1.078,1.078,0,0,1-.836-.308A1.1,1.1,0,0,1,80.329-14.038Zm6.88,2.943L87.271-9.7a4.043,4.043,0,0,1,3.322-1.6q3.517,0,3.548,3.968V0h-1.9V-7.342A2.554,2.554,0,0,0,91.7-9.116a2.2,2.2,0,0,0-1.677-.574A2.738,2.738,0,0,0,88.4-9.2a3.342,3.342,0,0,0-1.087,1.292V0h-1.9V-11.095Zm16.252,8.152a1.4,1.4,0,0,0-.579-1.195,5.576,5.576,0,0,0-2.02-.733,9.551,9.551,0,0,1-2.287-.738,3.253,3.253,0,0,1-1.251-1.025,2.453,2.453,0,0,1-.405-1.415,2.878,2.878,0,0,1,1.154-2.307,4.505,4.505,0,0,1,2.948-.943,4.636,4.636,0,0,1,3.061.974,3.094,3.094,0,0,1,1.174,2.492h-1.907a1.713,1.713,0,0,0-.661-1.343,2.478,2.478,0,0,0-1.666-.564,2.593,2.593,0,0,0-1.62.451,1.42,1.42,0,0,0-.584,1.179,1.151,1.151,0,0,0,.543,1.036,6.687,6.687,0,0,0,1.964.667,10.231,10.231,0,0,1,2.3.759,3.358,3.358,0,0,1,1.307,1.061,2.609,2.609,0,0,1,.426,1.512,2.839,2.839,0,0,1-1.189,2.384,4.989,4.989,0,0,1-3.086.9,5.587,5.587,0,0,1-2.358-.472,3.836,3.836,0,0,1-1.6-1.318,3.176,3.176,0,0,1-.579-1.83h1.9A1.964,1.964,0,0,0,99.2-1.9a2.964,2.964,0,0,0,1.882.559,3.059,3.059,0,0,0,1.728-.436A1.339,1.339,0,0,0,103.462-2.943ZM110.4-13.781v2.687h2.071v1.466H110.4v6.889a1.54,1.54,0,0,0,.277,1,1.165,1.165,0,0,0,.943.334,4.593,4.593,0,0,0,.9-.123V0a5.532,5.532,0,0,1-1.456.2,2.362,2.362,0,0,1-1.917-.769,3.3,3.3,0,0,1-.646-2.184v-6.88h-2.02v-1.466h2.02v-2.687ZM116.751,0h-1.9V-11.095h1.9ZM114.7-14.038a1.132,1.132,0,0,1,.282-.779,1.059,1.059,0,0,1,.836-.318,1.075,1.075,0,0,1,.841.318,1.12,1.12,0,0,1,.287.779,1.084,1.084,0,0,1-.287.769,1.1,1.1,0,0,1-.841.308,1.078,1.078,0,0,1-.836-.308A1.1,1.1,0,0,1,114.7-14.038Zm6.88,2.943.062,1.395a4.043,4.043,0,0,1,3.322-1.6q3.517,0,3.548,3.968V0h-1.9V-7.342a2.554,2.554,0,0,0-.549-1.774,2.2,2.2,0,0,0-1.677-.574,2.738,2.738,0,0,0-1.62.492,3.342,3.342,0,0,0-1.087,1.292V0h-1.9V-11.095Zm12.366-2.687v2.687h2.071v1.466h-2.071v6.889a1.54,1.54,0,0,0,.277,1,1.165,1.165,0,0,0,.943.334,4.593,4.593,0,0,0,.9-.123V0a5.532,5.532,0,0,1-1.456.2A2.362,2.362,0,0,1,132.7-.564a3.3,3.3,0,0,1-.646-2.184v-6.88h-2.02v-1.466h2.02v-2.687ZM140.294,0h-1.9V-11.095h1.9Zm-2.051-14.038a1.132,1.132,0,0,1,.282-.779,1.059,1.059,0,0,1,.836-.318,1.075,1.075,0,0,1,.841.318,1.12,1.12,0,0,1,.287.779,1.084,1.084,0,0,1-.287.769,1.1,1.1,0,0,1-.841.308,1.078,1.078,0,0,1-.836-.308A1.1,1.1,0,0,1,138.243-14.038ZM146.99-2.574l2.748-8.521h1.938L147.7,0h-1.446l-4.02-11.095h1.938Zm5.855-3.076a6.553,6.553,0,0,1,.641-2.933,4.781,4.781,0,0,1,1.784-2.01,4.857,4.857,0,0,1,2.61-.708,4.679,4.679,0,0,1,3.666,1.569,6.036,6.036,0,0,1,1.4,4.173v.133a6.61,6.61,0,0,1-.62,2.907,4.71,4.71,0,0,1-1.774,2A4.913,4.913,0,0,1,157.9.205a4.667,4.667,0,0,1-3.656-1.569,6.005,6.005,0,0,1-1.4-4.153Zm1.907.226a4.746,4.746,0,0,0,.856,2.963A2.74,2.74,0,0,0,157.9-1.343a2.724,2.724,0,0,0,2.3-1.133,5.19,5.19,0,0,0,.851-3.174,4.738,4.738,0,0,0-.866-2.958,2.755,2.755,0,0,0-2.3-1.133,2.724,2.724,0,0,0-2.266,1.118A5.152,5.152,0,0,0,154.752-5.424ZM170.02-5.65a6.553,6.553,0,0,1,.641-2.933,4.781,4.781,0,0,1,1.784-2.01,4.857,4.857,0,0,1,2.61-.708,4.679,4.679,0,0,1,3.666,1.569,6.036,6.036,0,0,1,1.4,4.173v.133a6.61,6.61,0,0,1-.62,2.907,4.71,4.71,0,0,1-1.774,2,4.913,4.913,0,0,1-2.651.718,4.667,4.667,0,0,1-3.656-1.569,6.005,6.005,0,0,1-1.4-4.153Zm1.907.226a4.746,4.746,0,0,0,.856,2.963,2.74,2.74,0,0,0,2.292,1.118,2.724,2.724,0,0,0,2.3-1.133,5.19,5.19,0,0,0,.851-3.174,4.738,4.738,0,0,0-.866-2.958,2.755,2.755,0,0,0-2.3-1.133,2.724,2.724,0,0,0-2.266,1.118A5.152,5.152,0,0,0,171.927-5.424ZM.974,17.36a6.5,6.5,0,0,1,1.21-4.107A3.826,3.826,0,0,1,5.353,11.7a3.848,3.848,0,0,1,3.086,1.333V7.25h1.9V23H8.593L8.5,21.811a3.863,3.863,0,0,1-3.168,1.395,3.789,3.789,0,0,1-3.143-1.579A6.573,6.573,0,0,1,.974,17.5Zm1.9.215a4.921,4.921,0,0,0,.779,2.953A2.519,2.519,0,0,0,5.8,21.6a2.767,2.767,0,0,0,2.635-1.62v-5.1A2.789,2.789,0,0,0,5.824,13.31,2.531,2.531,0,0,0,3.65,14.387,5.418,5.418,0,0,0,2.871,17.576Zm15.012,5.629a4.848,4.848,0,0,1-3.671-1.482A5.5,5.5,0,0,1,12.8,17.76v-.349a6.658,6.658,0,0,1,.631-2.948,4.919,4.919,0,0,1,1.764-2.03,4.434,4.434,0,0,1,2.456-.733,4.155,4.155,0,0,1,3.363,1.425,6.171,6.171,0,0,1,1.2,4.081V18H14.694a3.944,3.944,0,0,0,.959,2.651,3.014,3.014,0,0,0,2.333,1.01,3.3,3.3,0,0,0,1.7-.41,4.277,4.277,0,0,0,1.22-1.087l1.159.9A4.659,4.659,0,0,1,17.883,23.205Zm-.236-9.946a2.53,2.53,0,0,0-1.928.836,4.062,4.062,0,0,0-.964,2.343h5.558v-.144a3.613,3.613,0,0,0-.779-2.24A2.382,2.382,0,0,0,17.647,13.259Zm18.416,6.8a1.4,1.4,0,0,0-.579-1.195,5.576,5.576,0,0,0-2.02-.733,9.551,9.551,0,0,1-2.287-.738,3.253,3.253,0,0,1-1.251-1.025,2.453,2.453,0,0,1-.405-1.415,2.878,2.878,0,0,1,1.154-2.307,4.505,4.505,0,0,1,2.948-.943,4.636,4.636,0,0,1,3.061.974,3.094,3.094,0,0,1,1.174,2.492H35.95a1.713,1.713,0,0,0-.661-1.343,2.478,2.478,0,0,0-1.666-.564A2.593,2.593,0,0,0,32,13.71a1.42,1.42,0,0,0-.584,1.179,1.151,1.151,0,0,0,.543,1.036,6.687,6.687,0,0,0,1.964.667,10.231,10.231,0,0,1,2.3.759,3.358,3.358,0,0,1,1.307,1.061,2.609,2.609,0,0,1,.426,1.512,2.839,2.839,0,0,1-1.189,2.384,4.989,4.989,0,0,1-3.086.9,5.587,5.587,0,0,1-2.358-.472,3.836,3.836,0,0,1-1.6-1.318,3.176,3.176,0,0,1-.579-1.83h1.9A1.964,1.964,0,0,0,31.8,21.1a2.964,2.964,0,0,0,1.882.559,3.059,3.059,0,0,0,1.728-.436A1.339,1.339,0,0,0,36.063,20.057ZM47.281,21.9a4.029,4.029,0,0,1-3.25,1.3,3.449,3.449,0,0,1-2.7-1.031,4.461,4.461,0,0,1-.938-3.051V11.905h1.9v7.167q0,2.522,2.051,2.522a2.84,2.84,0,0,0,2.892-1.62v-8.07h1.9V23h-1.8Zm14.1-4.327a6.643,6.643,0,0,1-1.159,4.081,3.714,3.714,0,0,1-3.138,1.548A4.069,4.069,0,0,1,53.9,21.923v5.342h-1.9V11.905h1.733l.092,1.23a3.908,3.908,0,0,1,3.22-1.436,3.783,3.783,0,0,1,3.163,1.507A6.716,6.716,0,0,1,61.38,17.4Zm-1.9-.215a4.9,4.9,0,0,0-.8-2.963,2.576,2.576,0,0,0-2.194-1.087A2.789,2.789,0,0,0,53.9,14.838v5.3a2.794,2.794,0,0,0,2.6,1.518,2.564,2.564,0,0,0,2.169-1.082A5.351,5.351,0,0,0,59.483,17.36Zm8.911,5.845a4.848,4.848,0,0,1-3.671-1.482,5.5,5.5,0,0,1-1.415-3.963v-.349a6.658,6.658,0,0,1,.631-2.948,4.919,4.919,0,0,1,1.764-2.03,4.434,4.434,0,0,1,2.456-.733,4.155,4.155,0,0,1,3.363,1.425,6.171,6.171,0,0,1,1.2,4.081V18H65.2a3.944,3.944,0,0,0,.959,2.651,3.014,3.014,0,0,0,2.333,1.01,3.3,3.3,0,0,0,1.7-.41,4.277,4.277,0,0,0,1.22-1.087l1.159.9A4.659,4.659,0,0,1,68.394,23.205Zm-.236-9.946a2.53,2.53,0,0,0-1.928.836,4.062,4.062,0,0,0-.964,2.343h5.558v-.144a3.613,3.613,0,0,0-.779-2.24A2.382,2.382,0,0,0,68.158,13.259Zm12.12.349a5.685,5.685,0,0,0-.933-.072,2.5,2.5,0,0,0-2.533,1.589V23h-1.9V11.905h1.846l.031,1.282A2.954,2.954,0,0,1,79.437,11.7a1.938,1.938,0,0,1,.841.144Zm5.588,6.819,2.748-8.521h1.938L86.574,23H85.128l-4.02-11.095h1.938ZM94.438,23h-1.9V11.905h1.9ZM92.388,8.962a1.132,1.132,0,0,1,.282-.779,1.059,1.059,0,0,1,.836-.318,1.075,1.075,0,0,1,.841.318,1.12,1.12,0,0,1,.287.779,1.084,1.084,0,0,1-.287.769,1.1,1.1,0,0,1-.841.308,1.078,1.078,0,0,1-.836-.308A1.1,1.1,0,0,1,92.388,8.962Zm8.747,11.464,2.748-8.521h1.938L101.842,23H100.4l-4.02-11.095h1.938Zm11.115,2.779a4.848,4.848,0,0,1-3.671-1.482,5.5,5.5,0,0,1-1.415-3.963v-.349a6.658,6.658,0,0,1,.631-2.948,4.919,4.919,0,0,1,1.764-2.03,4.434,4.434,0,0,1,2.456-.733,4.155,4.155,0,0,1,3.363,1.425,6.171,6.171,0,0,1,1.2,4.081V18h-7.516a3.944,3.944,0,0,0,.959,2.651,3.014,3.014,0,0,0,2.333,1.01,3.3,3.3,0,0,0,1.7-.41,4.277,4.277,0,0,0,1.22-1.087l1.159.9A4.659,4.659,0,0,1,112.25,23.205Zm-.236-9.946a2.53,2.53,0,0,0-1.928.836,4.062,4.062,0,0,0-.964,2.343h5.558v-.144a3.613,3.613,0,0,0-.779-2.24A2.382,2.382,0,0,0,112.014,13.259Zm8.552-1.354.062,1.395a4.043,4.043,0,0,1,3.322-1.6q3.517,0,3.548,3.968V23h-1.9V15.658a2.554,2.554,0,0,0-.549-1.774,2.2,2.2,0,0,0-1.677-.574,2.738,2.738,0,0,0-1.62.492,3.342,3.342,0,0,0-1.087,1.292V23h-1.9V11.905Zm14.243,9.751a2.732,2.732,0,0,0,1.774-.615,2.164,2.164,0,0,0,.841-1.538h1.794a3.44,3.44,0,0,1-.656,1.815,4.322,4.322,0,0,1-1.615,1.374,4.66,4.66,0,0,1-2.138.513,4.57,4.57,0,0,1-3.6-1.512,6.024,6.024,0,0,1-1.338-4.137v-.318a6.679,6.679,0,0,1,.595-2.881,4.53,4.53,0,0,1,1.707-1.958,4.85,4.85,0,0,1,2.63-.7,4.45,4.45,0,0,1,3.1,1.118,3.994,3.994,0,0,1,1.318,2.9h-1.794a2.614,2.614,0,0,0-.815-1.769,2.536,2.536,0,0,0-1.81-.692,2.655,2.655,0,0,0-2.24,1.041,4.888,4.888,0,0,0-.795,3.01v.359a4.79,4.79,0,0,0,.79,2.953A2.668,2.668,0,0,0,134.808,21.657Zm8.6,1.343h-1.9V11.905h1.9ZM141.36,8.962a1.132,1.132,0,0,1,.282-.779,1.059,1.059,0,0,1,.836-.318,1.075,1.075,0,0,1,.841.318,1.12,1.12,0,0,1,.287.779,1.084,1.084,0,0,1-.287.769,1.1,1.1,0,0,1-.841.308,1.078,1.078,0,0,1-.836-.308A1.1,1.1,0,0,1,141.36,8.962ZM153.3,23a3.985,3.985,0,0,1-.267-1.169,4.233,4.233,0,0,1-3.158,1.374,3.916,3.916,0,0,1-2.692-.928,3,3,0,0,1-1.051-2.353,3.136,3.136,0,0,1,1.318-2.692,6.212,6.212,0,0,1,3.707-.959H153V15.4a2.131,2.131,0,0,0-.595-1.584,2.39,2.39,0,0,0-1.753-.59,2.766,2.766,0,0,0-1.7.513,1.511,1.511,0,0,0-.687,1.241h-1.907a2.618,2.618,0,0,1,.59-1.6,4.024,4.024,0,0,1,1.6-1.225,5.381,5.381,0,0,1,2.22-.451,4.386,4.386,0,0,1,3,.959A3.458,3.458,0,0,1,154.9,15.3v5.106a6.243,6.243,0,0,0,.39,2.43V23Zm-3.148-1.446a3.334,3.334,0,0,0,1.692-.461,2.791,2.791,0,0,0,1.159-1.2V17.617h-1.487q-3.486,0-3.486,2.041a1.727,1.727,0,0,0,.595,1.395A2.286,2.286,0,0,0,150.148,21.554Z" transform="translate(1084.33 1222.484)" fill="#12263f"/>
    <path id="Trazado_217567" data-name="Trazado 217567" d="M9.075-3.917a1.579,1.579,0,0,0-.615-1.338A8.07,8.07,0,0,0,6.245-6.24,15.7,15.7,0,0,1,3.712-7.26a4.138,4.138,0,0,1-2.543-3.7,3.605,3.605,0,0,1,.682-2.158A4.448,4.448,0,0,1,3.809-14.6a7.372,7.372,0,0,1,2.866-.533,6.71,6.71,0,0,1,2.851.579,4.539,4.539,0,0,1,1.943,1.635,4.28,4.28,0,0,1,.692,2.4H9.085a2.013,2.013,0,0,0-.646-1.594,2.655,2.655,0,0,0-1.815-.569,2.837,2.837,0,0,0-1.753.477,1.5,1.5,0,0,0-.625,1.256,1.44,1.44,0,0,0,.733,1.22,8.283,8.283,0,0,0,2.158.923A9.326,9.326,0,0,1,10.961-6.85a3.9,3.9,0,0,1,1.2,2.912A3.593,3.593,0,0,1,10.695-.9,6.419,6.419,0,0,1,6.747.205,7.623,7.623,0,0,1,3.609-.426,4.965,4.965,0,0,1,1.451-2.153,4.425,4.425,0,0,1,.708-4.7H3.794q0,2.471,2.953,2.471a2.873,2.873,0,0,0,1.712-.446A1.451,1.451,0,0,0,9.075-3.917ZM17.514,0H14.438V-14.93h3.076ZM29.347-6.47H23.44v4h6.932V0H20.364V-14.93h9.987v2.492H23.44V-8.88h5.906ZM44.317,0H41.241L35.253-9.823V0H32.177V-14.93h3.076l6,9.844V-14.93h3.066ZM58.242-12.438H53.669V0H50.593V-12.438H46.081V-14.93H58.242Zm13.73,5.312a9.013,9.013,0,0,1-.779,3.866A5.869,5.869,0,0,1,68.963-.7a6.169,6.169,0,0,1-3.327.9,6.211,6.211,0,0,1-3.312-.892,5.926,5.926,0,0,1-2.256-2.548,8.755,8.755,0,0,1-.81-3.809v-.738a8.965,8.965,0,0,1,.795-3.881A5.917,5.917,0,0,1,62.3-14.238a6.177,6.177,0,0,1,3.317-.9,6.177,6.177,0,0,1,3.317.9,5.917,5.917,0,0,1,2.246,2.574,8.94,8.94,0,0,1,.795,3.871ZM68.855-7.8a6.283,6.283,0,0,0-.841-3.568,2.74,2.74,0,0,0-2.4-1.22,2.741,2.741,0,0,0-2.389,1.2,6.211,6.211,0,0,0-.851,3.532v.728a6.361,6.361,0,0,0,.841,3.548,2.733,2.733,0,0,0,2.42,1.261,2.708,2.708,0,0,0,2.379-1.215,6.324,6.324,0,0,0,.841-3.543Z" transform="translate(320.618 1092.153)" fill="#fff"/>
    <path id="Trazado_217568" data-name="Trazado 217568" d="M10.227-3.223H4.576L3.5,0H.075L5.9-15.641H8.884L14.738,0H11.312Zm-4.78-2.61h3.91L7.391-11.687Zm23.031.623a5.535,5.535,0,0,1-1.864,3.975A6.546,6.546,0,0,1,22.183.215,5.886,5.886,0,0,1,17.451-1.81a8.3,8.3,0,0,1-1.724-5.559v-.956a9.376,9.376,0,0,1,.795-3.975,5.957,5.957,0,0,1,2.272-2.637,6.364,6.364,0,0,1,3.432-.918,6.376,6.376,0,0,1,4.361,1.45A5.948,5.948,0,0,1,28.5-10.334H25.276a3.266,3.266,0,0,0-.843-2.2,3.123,3.123,0,0,0-2.208-.682,2.738,2.738,0,0,0-2.412,1.155,6.472,6.472,0,0,0-.822,3.583v1.182a6.927,6.927,0,0,0,.768,3.706,2.687,2.687,0,0,0,2.422,1.171A3.182,3.182,0,0,0,24.412-3.1a3.081,3.081,0,0,0,.843-2.111Zm13.578-7.82H37.265V0H34.042V-13.03H29.315v-2.61h12.74Zm13.675-2.61v10.3a5.274,5.274,0,0,1-1.606,4.061A6.191,6.191,0,0,1,49.736.215a6.261,6.261,0,0,1-4.351-1.45,5.184,5.184,0,0,1-1.644-3.985v-10.42h3.223V-5.317a2.98,2.98,0,0,0,.736,2.24,2.825,2.825,0,0,0,2.036.7q2.718,0,2.761-2.857V-15.641Zm15.49,8.175a9.442,9.442,0,0,1-.816,4.05A6.148,6.148,0,0,1,68.068-.73a6.463,6.463,0,0,1-3.486.945,6.507,6.507,0,0,1-3.47-.935,6.209,6.209,0,0,1-2.363-2.669A9.172,9.172,0,0,1,57.9-7.38v-.773a9.392,9.392,0,0,1,.833-4.066,6.2,6.2,0,0,1,2.353-2.7,6.471,6.471,0,0,1,3.475-.94,6.471,6.471,0,0,1,3.475.94,6.2,6.2,0,0,1,2.353,2.7,9.366,9.366,0,0,1,.833,4.055Zm-3.266-.709a6.582,6.582,0,0,0-.881-3.738,2.871,2.871,0,0,0-2.514-1.278,2.872,2.872,0,0,0-2.5,1.262,6.507,6.507,0,0,0-.892,3.7v.763a6.664,6.664,0,0,0,.881,3.717,2.863,2.863,0,0,0,2.535,1.321A2.837,2.837,0,0,0,67.074-3.7a6.626,6.626,0,0,0,.881-3.711Z" transform="translate(320.618 1195.469)" fill="#fff"/>
    <path id="Trazado_217569" data-name="Trazado 217569" d="M9.744,0A9.744,9.744,0,1,1,0,9.744,9.744,9.744,0,0,1,9.744,0Z" transform="translate(767.639 961.094)" fill="#12263f"/>
    <path id="Trazado_217570" data-name="Trazado 217570" d="M9.744,0A9.744,9.744,0,1,1,0,9.744,9.744,9.744,0,0,1,9.744,0Z" transform="translate(785.91 1096.297)" fill="#12263f"/>
    <path id="Trazado_217571" data-name="Trazado 217571" d="M9.744,0A9.744,9.744,0,1,1,0,9.744,9.744,9.744,0,0,1,9.744,0Z" transform="translate(812.707 1203.484)" fill="#12263f"/>
    <path id="Trazado_217572" data-name="Trazado 217572" d="M9.744,0A9.744,9.744,0,1,1,0,9.744,9.744,9.744,0,0,1,9.744,0Z" transform="translate(1041.698 961.094)" fill="#12263f"/>
    <path id="Trazado_217573" data-name="Trazado 217573" d="M9.744,0A9.744,9.744,0,1,1,0,9.744,9.744,9.744,0,0,1,9.744,0Z" transform="translate(1041.698 1096.297)" fill="#12263f"/>
    <path id="Trazado_217574" data-name="Trazado 217574" d="M9.744,0A9.744,9.744,0,1,1,0,9.744,9.744,9.744,0,0,1,9.744,0Z" transform="translate(1041.698 1203.484)" fill="#12263f"/>
  </g>
</svg>
