<svg xmlns="http://www.w3.org/2000/svg" xmlns:xlink="http://www.w3.org/1999/xlink" width="433.742" height="233.075" viewBox="0 0 433.742 233.075">
  <defs>
    <filter id="Trazado_217552" x="0" y="0" width="433.742" height="233.075" filterUnits="userSpaceOnUse">
      <feOffset dy="3" input="SourceAlpha"/>
      <feGaussianBlur stdDeviation="5" result="blur"/>
      <feFlood flood-opacity="0.161"/>
      <feComposite operator="in" in2="blur"/>
      <feComposite in="SourceGraphic"/>
    </filter>
  </defs>
  <g id="Grupo_175145" data-name="Grupo 175145" transform="translate(-611.212 -1633.924)">
    <g transform="matrix(1, 0, 0, 1, 611.21, 1633.92)" filter="url(#Trazado_217552)">
      <path id="Trazado_217552-2" data-name="Trazado 217552" d="M0,0H341.742a62,62,0,0,1,62,62V203.075H62a62,62,0,0,1-62-62Z" transform="translate(15 12)" fill="#f6f6f6"/>
    </g>
    <path id="Trazado_217551" data-name="Trazado 217551" d="M88.512-49.383q0,24.773-10.254,37.9T48.234,1.641q-19.523,0-29.859-12.879T7.793-48.152V-70.137q0-25.02,10.377-37.98t29.9-12.961q19.523,0,29.859,12.838T88.512-71.367ZM64.8-73.554q0-14.863-4.061-21.637T48.07-101.965q-8.367,0-12.346,6.446T31.5-75.361v29.067q0,14.616,3.979,21.718t12.756,7.1q8.7,0,12.551-6.815T64.8-45.144ZM186.375,0H104.508V-16.242l38.637-41.18A95.316,95.316,0,0,0,154.916-72.6a24.381,24.381,0,0,0,3.814-12.3q0-7.957-4.02-12.51t-11.484-4.553q-8.039,0-12.674,5.537t-4.635,14.561H102.129a39.156,39.156,0,0,1,5.209-19.934,36.713,36.713,0,0,1,14.725-14.15,44.755,44.755,0,0,1,21.574-5.127q18.457,0,28.67,8.859T182.52-87.2a40.159,40.159,0,0,1-4.594,18.047q-4.594,9.188-15.75,21.41L135.023-19.113h51.352Z" transform="translate(827.878 1830.511)" fill="#e2e5e8"/>
    <g id="Grupo_172846" data-name="Grupo 172846" transform="translate(445.878 -545.489)">
      <text id="Perfil_del_negocio_Business_Profile_de_Google" data-name="Perfil del negocio (Business Profile) de Google" transform="translate(225.257 2324.299)" fill="#12263f" font-size="16" font-family="Roboto-Regular, Roboto"><tspan x="0" y="17">Perfil del negocio (Business Profile) de Google</tspan></text>
    </g>
    <g id="LwdD94.tif" transform="translate(3231.684 1391.956)">
      <g id="Grupo_157288" data-name="Grupo 157288" transform="translate(-2560.549 277.279)">
        <path id="Trazado_197625" data-name="Trazado 197625" d="M-2507.622,379.844h-3.306a2.28,2.28,0,0,0-.442-.208,10.149,10.149,0,0,1-7.206-5.923,1.953,1.953,0,0,0-.881-.861,4.986,4.986,0,0,1-2.933-3.5,4.807,4.807,0,0,1,.889-4.1l-1.257-4.282c-3.194,3.2-6.438,6.467-9.717,9.7a4.876,4.876,0,0,1-1.607,1.042c-4.695,1.836-9.411,3.621-14.111,5.442-2.257.874-4.5,1.793-6.744,2.691h-2.272c-3.481-1.986-4-3.488-2.516-7.344,2.436-6.348,4.859-12.7,7.326-19.038a5.362,5.362,0,0,1,1.166-1.771q6.612-6.682,13.29-13.3a1.266,1.266,0,0,0,.363-1.508,22.463,22.463,0,0,1-1.182-4.882c-.193-2.753-.052-5.529-.052-8.33.031.01-.033-.029-.1-.029q-5.06-.012-10.122-.019a22.134,22.134,0,0,1-2.786-.056,10,10,0,0,1-8.656-8.693,10,10,0,0,1,6.3-10.437c.216-.087.429-.181.487-.206a52.948,52.948,0,0,1,.04-6.463c.944-7.5,8.052-13.708,15.6-13.814a16.388,16.388,0,0,1,14.918,8.145,1.152,1.152,0,0,0,.941.436c5.978-1.124,10.666.842,14.164,5.787a1.68,1.68,0,0,0,.973.57c2.05.414,4.122.727,6.161,1.183a1.548,1.548,0,0,0,1.7-.437c6.112-6.16,12.224-12.321,18.4-18.411a12.694,12.694,0,0,1,13.023-3.384,12.893,12.893,0,0,1,9.356,9.683c.123.461.251.921.377,1.382v3.72c-.059.08-.157.154-.171.242a13.939,13.939,0,0,1-4.268,7.82c-5.527,5.476-10.95,11.058-16.55,16.456-1.507,1.452-2.116,2.683-1.364,4.74a29.834,29.834,0,0,1,.942,5.1h3.226c0,1.063,0,2.023,0,2.984a3.2,3.2,0,0,0,1.939,3.234,3.079,3.079,0,0,0,3.746-.832c.722-.728,1.37-1.53,1.969-2.206l7.221,7.224c-.706.676-1.487,1.4-2.236,2.15a3.041,3.041,0,0,0-.75,3.586,3.162,3.162,0,0,0,3.1,1.994c1.066.018,2.134,0,3.2,0v9.92c-1.067,0-2.135-.018-3.2,0a3.131,3.131,0,0,0-3.1,1.99,3.071,3.071,0,0,0,.751,3.591c.75.751,1.528,1.476,2.153,2.076l-7.128,7.162c-.606-.639-1.286-1.368-1.979-2.084a3.088,3.088,0,0,0-3.653-.866,3.222,3.222,0,0,0-2.035,3.282c.006.987,0,1.973,0,2.954h-9.911v-2.963a3.21,3.21,0,0,0-1.944-3.234,3.065,3.065,0,0,0-3.742.841c-.72.73-1.367,1.532-2.311,2.6l-1.875-2.438a5.214,5.214,0,0,1-3.364,5.018,1.461,1.461,0,0,0-.613.726,8.9,8.9,0,0,1-3.31,4.132A40.933,40.933,0,0,1-2507.622,379.844Zm-36.308-66.192c-.084-.47-.156-.908-.243-1.342a6.551,6.551,0,0,0-7.687-5.049,6.522,6.522,0,0,0-5.21,7.571,6.574,6.574,0,0,0,6.743,5.49q22,.018,44,0c.172,0,.345,0,.517-.009a5.008,5.008,0,0,0,4.736-4.271,4.985,4.985,0,0,0-2.812-5.163,4.777,4.777,0,0,0-5.922,1.437,16.719,16.719,0,0,0-1.376,2.964h-3.062a7.6,7.6,0,0,1,3.377-6.478,3.4,3.4,0,0,0,1.582-3.178,9.926,9.926,0,0,0-.149-1.64,9.87,9.87,0,0,0-9.29-8.446,9.988,9.988,0,0,0-10,7.238c-.247.868-.188,1.292.765,1.693a5.98,5.98,0,0,1,3.689,5.868h-3.125c-.548-2.124-1.627-3.179-3.271-3.242s-2.729.942-3.52,3.222h-3.146a6.4,6.4,0,0,1,4.235-6.083,1.232,1.232,0,0,0,.9-1.08,12.856,12.856,0,0,1,4.867-8.123c.45-.359.921-.692,1.372-1.029-2.97-5.867-10.664-8.375-16.875-5.535-6.755,3.088-8.89,10.6-7.211,15.287,5.581.724,9.743,5.133,9.283,9.893Zm38.016-6.608a3.242,3.242,0,0,0,.32.056,8.311,8.311,0,0,1,7.872,7.5,8.208,8.208,0,0,1-6.781,8.877,19.918,19.918,0,0,1-3.5.142c-2.053.019-4.107.005-6.238.005,0,1.527,0,2.932,0,4.337,0,1.723.563,2.281,2.293,2.283,4.131,0,8.262,0,12.394,0a4.921,4.921,0,0,1,5.146,4.9,4.923,4.923,0,0,1-5.14,5.01q-7.8.01-15.6,0a4.762,4.762,0,0,0-.927.031,1.6,1.6,0,0,0-1.446,1.623,1.606,1.606,0,0,0,1.443,1.628,3.566,3.566,0,0,0,.721.03c.929,0,1.859-.006,2.789,0a4.9,4.9,0,0,1,4.928,4.906c.019,2.743,0,5.487,0,8.329,2.48,0,4.848.017,7.215-.028.226,0,.493-.365.659-.615a58.8,58.8,0,0,1,3.878-5.809c2.207-2.587,4.694-4.936,7.081-7.368a19.781,19.781,0,0,0,5.7-17.767c-1.615-10.2-7.315-17.309-16.879-21.209a55.467,55.467,0,0,0-6.209-1.751C-2506.082,303.961-2506,305.46-2505.914,307.044Zm-5.014,49.63c0-2.791.024-5.473-.012-8.154a1.663,1.663,0,0,0-1.783-1.737c-1-.035-2-.006-3-.01a4.924,4.924,0,0,1-5.122-4.925,4.917,4.917,0,0,1,5.162-4.986q7.748-.008,15.5,0a5.737,5.737,0,0,0,1.03-.036,1.616,1.616,0,0,0,1.245-2.335,1.888,1.888,0,0,0-1.912-.946q-6.249.015-12.5,0a4.917,4.917,0,0,1-5.215-5.245c0-1.536,0-3.073,0-4.673-5.776,0-11.418-.006-17.06.023a.9.9,0,0,0-.68.52c-.926,5.288-.559,10.431,2.593,14.94a54.451,54.451,0,0,0,5.9,6.741c3.215,3.276,6.469,6.491,8.235,10.823Zm42.531,8.412,2.27-2.222a6.41,6.41,0,0,1-1.279-7.135,6.471,6.471,0,0,1,5.988-4.057v-3.206c-6-.454-8.2-5.836-4.7-11.274l-2.214-2.242a6.431,6.431,0,0,1-6.583,1.6,6.606,6.606,0,0,1-4.569-5q-.965,3.5-1.9,6.9a11.6,11.6,0,0,1,11.74,10.651,11.583,11.583,0,0,1-9.1,12.3,11.335,11.335,0,0,1-7.985-1.179,11.747,11.747,0,0,1-5.964-8.6,20,20,0,0,0-4.32,6.634,1.022,1.022,0,0,0,.188.736,5.081,5.081,0,0,1,.7,3.562,1.123,1.123,0,0,0,.215.793c.544.661,1.146,1.274,1.753,1.935,2.237-1.965,4.634-2.572,7.28-1.466a6.5,6.5,0,0,1,4.1,6.094h3.191A6.65,6.65,0,0,1-2468.4,365.087Zm-11.82-79.663,14.111,14.115c5.694-5.082,6.408-11.6,1.642-16.1C-2468.291,279.835-2475.057,278.881-2480.217,285.424Zm-62.249,73.636,11.96-11.985-5.091-5.923-12.382,12.39Zm-7.484-2.468a.231.231,0,0,0-.1.1c-1.312,3.389-2.633,6.775-3.9,10.18a1.131,1.131,0,0,0,.306.924c1.7,1.751,3.457,3.449,5.152,5.206a.969.969,0,0,0,1.257.222c1.558-.63,3.131-1.221,4.7-1.827l5.325-2.061Zm10.278,5.018,5.785,5.783c3.585-3.591,7.26-7.263,10.913-10.957a.85.85,0,0,0,.165-.773,26.574,26.574,0,0,0-4.941-5.985Zm66.76-11.525a8.32,8.32,0,0,0-8.3-8.256,4.157,4.157,0,0,0-3.745,1.7,20.855,20.855,0,0,1-3.222,3.473,3.819,3.819,0,0,0-1.26,3.111,8.35,8.35,0,0,0,8.324,8.241A8.354,8.354,0,0,0-2472.912,350.085Zm-6.61-48.649-7.389,7.368,4.531,6.769,8.5-8.5Zm-2.709-2.519-5.638-5.63-8.39,8.389,6.792,4.553Zm-2.971-8.514,13.985,13.984,2.3-2.126L-2483,288.184Zm-24.1,72.911q3.865,0,7.73,0c1.376,0,2.186-.606,2.208-1.627s-.8-1.683-2.148-1.684q-7.782-.007-15.563,0c-1.287,0-2.082.63-2.1,1.624-.022,1.029.8,1.682,2.147,1.685C-2514.458,363.319-2511.881,363.315-2509.3,363.315Zm.013,6.612c2.68,0,5.359.014,8.04-.006a1.721,1.721,0,0,0,1.885-1.634,1.7,1.7,0,0,0-1.852-1.665c-5.359-.016-10.719-.029-16.078.026a2.2,2.2,0,0,0-1.546.774,1.668,1.668,0,0,0-.066,1.575,2.516,2.516,0,0,0,1.683.89C-2514.584,369.98-2511.937,369.927-2509.292,369.927Zm5.769,3.365h-11.509a6.634,6.634,0,0,0,5.76,3.216A6.611,6.611,0,0,0-2503.523,373.292Zm-48.044,1.568-3.973-3.962c-.5,1.309-1.065,2.67-1.52,4.067a1.43,1.43,0,0,0,.262,1.182,1.246,1.246,0,0,0,1.094.265C-2554.287,375.943-2552.9,375.372-2551.567,374.86Z" transform="translate(2560.549 -277.279)" fill="#12263f"/>
        <path id="Trazado_197626" data-name="Trazado 197626" d="M-2191.181,609.946a4.922,4.922,0,0,1-4.969,4.968,4.919,4.919,0,0,1-4.939-5,4.921,4.921,0,0,1,4.917-4.915A4.917,4.917,0,0,1-2191.181,609.946Zm-3.312,0a1.721,1.721,0,0,0-1.659-1.628,1.72,1.72,0,0,0-1.626,1.66,1.722,1.722,0,0,0,1.658,1.628A1.727,1.727,0,0,0-2194.493,609.942Z" transform="translate(2275.509 -537.154)" fill="#12263f"/>
      </g>
    </g>
  </g>
</svg>
