<svg xmlns="http://www.w3.org/2000/svg" xmlns:xlink="http://www.w3.org/1999/xlink" width="433.742" height="233.075" viewBox="0 0 433.742 233.075">
  <defs>
    <filter id="Trazado_217549" x="0" y="0" width="433.742" height="233.075" filterUnits="userSpaceOnUse">
      <feOffset dy="3" input="SourceAlpha"/>
      <feGaussianBlur stdDeviation="5" result="blur"/>
      <feFlood flood-opacity="0.161"/>
      <feComposite operator="in" in2="blur"/>
      <feComposite in="SourceGraphic"/>
    </filter>
    <clipPath id="clip-path">
      <rect id="Rectángulo_53233" data-name="Rectángulo 53233" width="97.01" height="96.02" fill="#12263f"/>
    </clipPath>
  </defs>
  <g id="Grupo_175144" data-name="Grupo 175144" transform="translate(-193.212 -1633.924)">
    <g transform="matrix(1, 0, 0, 1, 193.21, 1633.92)" filter="url(#Trazado_217549)">
      <path id="Trazado_217549-2" data-name="Trazado 217549" d="M0,0H341.742a62,62,0,0,1,62,62V203.075H62a62,62,0,0,1-62-62Z" transform="translate(15 12)" fill="#b1daf6"/>
    </g>
    <path id="Trazado_217550" data-name="Trazado 217550" d="M88.512-49.383q0,24.773-10.254,37.9T48.234,1.641q-19.523,0-29.859-12.879T7.793-48.152V-70.137q0-25.02,10.377-37.98t29.9-12.961q19.523,0,29.859,12.838T88.512-71.367ZM64.8-73.554q0-14.863-4.061-21.637T48.07-101.965q-8.367,0-12.346,6.446T31.5-75.361v29.067q0,14.616,3.979,21.718t12.756,7.1q8.7,0,12.551-6.815T64.8-45.144ZM162.094,0H138.387V-91.383l-28.3,8.777v-19.277L159.551-119.6h2.543Z" transform="translate(414.878 1830.511)" fill="#dee4f0"/>
    <g id="Grupo_172845" data-name="Grupo 172845" transform="translate(27.878 -545.489)">
      <text id="Redes_sociales_Meta_Business_" data-name="Redes sociales (Meta Business)" transform="translate(225.257 2324.299)" fill="#12263f" font-size="16" font-family="Roboto-Regular, Roboto"><tspan x="0" y="17">Redes sociales (Meta Business)</tspan></text>
    </g>
    <g id="Grupo_172847" data-name="Grupo 172847" transform="translate(250.305 1663.682)">
      <g id="Grupo_172847-2" data-name="Grupo 172847" clip-path="url(#clip-path)">
        <path id="Trazado_213451" data-name="Trazado 213451" d="M0,64.112c.165-.731.315-1.465.5-2.191a17.586,17.586,0,0,1,17.6-13.4c.155,0,.311,0,.55,0V45.753A50.9,50.9,0,0,1,13,44.553a17.6,17.6,0,0,1-9.2-26.224c.394-.605.9-1.121,1.6-.836a2.07,2.07,0,0,1,1.119,1.194c.108.413-.251,1-.508,1.448a14.48,14.48,0,0,0-.278,14.95,14.732,14.732,0,0,0,27.431-4.832c.912-6.078-1.181-11.071-6.229-14.538-5.017-3.446-10.365-3.5-15.732-.631-.194.1-.374.235-.569.337a1.445,1.445,0,0,1-2.057-.48A1.388,1.388,0,0,1,9.185,13a16.671,16.671,0,0,1,6.387-2.47c1.017-.164,2.05-.233,3.062-.343a29.412,29.412,0,0,1,.311-3.14A8.771,8.771,0,0,1,26.978.064c.409-.028.819-.052,1.229-.052Q48.992.008,69.777,0a9.033,9.033,0,0,1,9.531,9.092c.009.343,0,.686,0,1.115a17.608,17.608,0,0,1,14.533,7.641,16.946,16.946,0,0,1,3.1,11.541c-.679,8.012-7.066,15.773-17.554,16.189v2.88a17.572,17.572,0,0,1,14.564,7.8A16.916,16.916,0,0,1,96.93,67.732c-.731,8.034-7.146,15.687-17.62,16.1,0,.987.014,1.986,0,2.984a8.949,8.949,0,0,1-7.157,9,9.8,9.8,0,0,1-2.068.189q-21.069.016-42.138,0a8.854,8.854,0,0,1-9.088-7.371,12.579,12.579,0,0,1-.122-2.074c-.019-.879,0-1.759,0-2.705-1.05-.077-2.043-.137-3.033-.225A17.673,17.673,0,0,1,.2,68.907,8.292,8.292,0,0,0,0,68.09V64.112M33.616,8.466c-1.632,0-3.3-.032-4.972.013-.954.026-1.4.542-1.444,1.52-.026.567.03,1.14-.02,1.7a1.163,1.163,0,0,0,.692,1.193,17.62,17.62,0,0,1-.037,30.028,1.559,1.559,0,0,0-.616,1.1c-.059,2.144,0,4.292-.043,6.438a1.508,1.508,0,0,0,.735,1.385,17.027,17.027,0,0,1,7.276,13.213c.344,6.467-2.261,11.627-7.441,15.51a1.59,1.59,0,0,0-.53,1.071c-.065,1.259-.027,2.524-.024,3.786,0,1.783.365,2.138,2.181,2.138h26.8q6.391,0,12.783,0c1.389,0,1.879-.5,1.889-1.883.008-1.042-.039-2.085.016-3.124a1.372,1.372,0,0,0-.806-1.51,9.122,9.122,0,0,1-1.773-1.251C62.822,75.1,60.813,69.2,62.19,62.154c.23-1.179.884-1.682,1.783-1.491.917.194,1.228.869,1,2.078a19.769,19.769,0,0,0-.372,2.522,14.774,14.774,0,1,0,29.054-2.851A14.081,14.081,0,0,0,82.446,51.7c-5.77-1.222-10.707.557-14.557,5.113-.771.912-1.554,1.093-2.262.5a1.456,1.456,0,0,1,.1-2.313c1.422-1.373,2.929-2.662,4.465-3.906a1.362,1.362,0,0,0,.658-1.21c-.034-1.83-.057-3.663.008-5.491a1.644,1.644,0,0,0-.888-1.652,16.854,16.854,0,0,1-8.16-13.67c-.413-7.009,2.53-12.451,8.439-16.271.2-.132.537-.314.538-.475a17.684,17.684,0,0,0-.152-3A1.275,1.275,0,0,0,69.7,8.56c-1.81-.076-3.625-.036-5.422-.036-.556,2.888-1.905,4-4.772,4H38.955c-3.343,0-4.276-.693-5.2-3.851a1.07,1.07,0,0,0-.143-.211m45.713,4.651A14.779,14.779,0,1,0,94.152,27.763,14.75,14.75,0,0,0,79.329,13.117M17.6,51.367a14.776,14.776,0,0,0,.018,29.551A14.776,14.776,0,1,0,17.6,51.367m58.769-40.9c.648-4.891-2.786-7.672-6.733-7.634-13.886.135-27.775.109-41.662.013a6.26,6.26,0,0,0-6.294,7.637l2.584.628c.02-.349.041-.595.047-.842C24.38,7.3,26.1,5.618,29.085,5.609c1.42,0,2.841-.011,4.261,0a2.96,2.96,0,0,1,3.29,2.81c.128.842.522,1.245,1.355,1.245l21.967,0a1.27,1.27,0,0,0,1.423-1.293,2.886,2.886,0,0,1,2.934-2.753c1.735-.041,3.474-.061,5.207.007a4.245,4.245,0,0,1,4.147,4.305c.007.372,0,.744,0,1.2l2.7-.667M21.571,83.35c0,1.18-.006,2.374,0,3.569a5.988,5.988,0,0,0,6.183,6.217c2.272.019,4.545,0,6.817,0q17.753,0,35.506,0c3.1,0,5.466-1.635,6.088-4.485a25.924,25.924,0,0,0,.242-4.8c0-.139-.228-.368-.39-.413-.749-.212-1.512-.373-2.348-.571,0,.942,0,1.823,0,2.7,0,3.141-1.705,4.839-4.865,4.839q-19.789,0-39.578,0c-3.215,0-4.91-1.691-4.918-4.895,0-.989,0-1.977,0-3.035l-2.739.866m2.665-33.611V44.627l-2.622.666v3.62l2.622.827m52.2-1.043c0-1.007.02-1.979-.017-2.949a.711.711,0,0,0-.355-.545c-.764-.225-1.548-.378-2.347-.562v4.725l2.718-.669" transform="translate(0 0)" fill="#12263f"/>
        <path id="Trazado_213452" data-name="Trazado 213452" d="M55.986,94.966c1.768,0,3.535-.018,5.3,0a4.183,4.183,0,0,1,4.492,4.494q.038,5.35,0,10.7a4.254,4.254,0,0,1-4.59,4.526q-5.255.019-10.511,0a4.324,4.324,0,0,1-4.616-4.622q-.015-5.255,0-10.51a4.255,4.255,0,0,1,4.526-4.587c1.8-.021,3.6,0,5.4,0m6.942,9.81c0-1.734.006-3.468,0-5.2-.006-1.323-.427-1.744-1.751-1.746q-5.249-.008-10.5,0c-1.263,0-1.751.444-1.757,1.677q-.028,5.3,0,10.593c.006,1.222.515,1.732,1.737,1.738q5.3.024,10.593,0c1.224-.006,1.671-.5,1.677-1.763.009-1.765,0-3.531,0-5.3" transform="translate(-37.315 -76.936)" fill="#12263f"/>
        <path id="Trazado_213453" data-name="Trazado 213453" d="M199.621,185.565a12.77,12.77,0,0,1,1.711,25.424,12.257,12.257,0,0,1-8.9-2.129,1.328,1.328,0,0,0-1.455-.191c-.693.3-1.416.525-2.136.753a2.1,2.1,0,0,1-2.276-.49,2.044,2.044,0,0,1-.526-2.259c.075-.207.123-.425.21-.626a11.086,11.086,0,0,0,.779-6.351c-.988-6.364,3.686-12.583,10.06-13.821.831-.161,1.685-.209,2.529-.309m-10.339,20.6a1.572,1.572,0,0,0,.432-.062c1.683-.881,3.091-.472,4.633.577a9.647,9.647,0,0,0,11-.279,9.882,9.882,0,0,0-7.757-17.729,9.7,9.7,0,0,0-7.665,11.274,9.64,9.64,0,0,1-.587,5.917,2.094,2.094,0,0,0-.055.3" transform="translate(-150.619 -150.346)" fill="#12263f"/>
        <path id="Trazado_213454" data-name="Trazado 213454" d="M403.342,316.762a1.952,1.952,0,0,1-1.136,1.817c-3.168,1.821-6.322,3.667-9.5,5.473a1.965,1.965,0,0,1-3.11-1.768c-.051-2.05-.014-4.1-.014-6.152,0-1.546-.013-3.092,0-4.638.023-2.107,1.492-2.974,3.3-1.939,3.088,1.772,6.162,3.568,9.25,5.338a2.005,2.005,0,0,1,1.21,1.868M392.5,320.9l7.168-4.143-7.168-4.129Z" transform="translate(-315.632 -250.45)" fill="#12263f"/>
        <path id="Trazado_213455" data-name="Trazado 213455" d="M391.41,101.611c.8,0,1.492-.018,2.178,0A1.351,1.351,0,0,1,395.047,103a1.394,1.394,0,0,1-1.437,1.432c-.688.035-1.379.007-2.2.007V105.5c0,2.522.006,5.044,0,7.566,0,1.08-.577,1.717-1.473,1.684-.86-.031-1.347-.631-1.349-1.7-.006-2.831,0-5.662,0-8.609-.754,0-1.437.019-2.119,0a1.437,1.437,0,0,1-1.547-1.431c0-.843.583-1.371,1.556-1.394.658-.015,1.316,0,2.109,0,0-1.3,0-2.552,0-3.8a4.21,4.21,0,0,1,4.546-4.525c.946,0,1.892-.01,2.837,0,.974.013,1.566.537,1.584,1.371.018.861-.606,1.434-1.617,1.45-.977.016-1.955-.01-2.932.008a1.417,1.417,0,0,0-1.585,1.572c-.02,1.258,0,2.517,0,3.923" transform="translate(-311.862 -75.576)" fill="#12263f"/>
        <path id="Trazado_213456" data-name="Trazado 213456" d="M40.959,314.112a8.258,8.258,0,0,1-3.046-7.293c.046-.686.206-1.365.319-2.046a1.9,1.9,0,0,1,1.415-1.712,2.078,2.078,0,0,1,2.114.73,6.075,6.075,0,0,0,4.023,2.114,5.4,5.4,0,0,1,1.962-3.218,4.9,4.9,0,0,1,5.745-.186,1.738,1.738,0,0,0,1.914.232,2.224,2.224,0,0,1,2.628.374,2.266,2.266,0,0,1,.566,2.522,7.665,7.665,0,0,1-.8,2.1,17.471,17.471,0,0,0-1.83,4.094c-1.829,4.9-6.551,7.814-12.124,7.543-.721-.035-1.439-.146-2.154-.25a4.514,4.514,0,0,1-.908-.25,2.788,2.788,0,0,1-2.135-2.783c.021-1.079.357-1.379,2.312-1.974M43.2,316.4c4.157.45,9.261-1.137,10.623-7.116a8.6,8.6,0,0,1,.883-1.924c.272-.527.6-1.027.96-1.646-2.035.225-2.116.2-3.711-.844a2.134,2.134,0,0,0-3.263,1.329,8.222,8.222,0,0,0-.055,1.038c-.061,1.182-.547,1.646-1.7,1.668a9.391,9.391,0,0,1-4.952-1.324c-.394-.228-.782-.468-1.224-.733a5.307,5.307,0,0,0,1.669,4.718,13.591,13.591,0,0,0,2.117,1.4,1.415,1.415,0,0,1,.082,2.576c-.414.28-.857.516-1.429.856" transform="translate(-30.697 -244.406)" fill="#12263f"/>
        <path id="Trazado_213457" data-name="Trazado 213457" d="M252.107,28.324a1.427,1.427,0,0,1-1.465-1.406,1.459,1.459,0,0,1,1.381-1.411,1.4,1.4,0,0,1,1.438,1.421,1.367,1.367,0,0,1-1.353,1.4" transform="translate(-203.072 -20.665)" fill="#12263f"/>
        <path id="Trazado_213458" data-name="Trazado 213458" d="M80.135,132.945a4.208,4.208,0,0,1-4.242-4.176,4.263,4.263,0,0,1,4.248-4.293,4.333,4.333,0,0,1,4.225,4.251,4.268,4.268,0,0,1-4.23,4.217m-.056-2.832a1.381,1.381,0,1,0-1.355-1.414,1.426,1.426,0,0,0,1.355,1.414" transform="translate(-61.489 -100.851)" fill="#12263f"/>
        <path id="Trazado_213459" data-name="Trazado 213459" d="M239.245,235.933a8.337,8.337,0,0,1-1.557-.5,20.634,20.634,0,0,1-2.664-1.6,4.652,4.652,0,0,1-.63-6.5,1.409,1.409,0,0,1,2.365,1.422c-.688,2.429-.7,2.427,1.439,3.72,1.449.877,1.913.788,3.007-.575.666-.83,1.412-1,2.113-.474a1.468,1.468,0,0,1,.165,2.171,5.191,5.191,0,0,1-4.238,2.346" transform="translate(-189.064 -183.795)" fill="#12263f"/>
      </g>
    </g>
  </g>
</svg>
