<svg xmlns="http://www.w3.org/2000/svg" xmlns:xlink="http://www.w3.org/1999/xlink" width="182.143" height="182.143" viewBox="0 0 182.143 182.143">
  <defs>
    <linearGradient id="linear-gradient" x1="0.5" x2="0.5" y2="1" gradientUnits="objectBoundingBox">
      <stop offset="0" stop-color="#116eb9"/>
      <stop offset="1" stop-color="#1894f6"/>
    </linearGradient>
    <filter id="Trazado_150709" x="0" y="0" width="182.143" height="182.143" filterUnits="userSpaceOnUse">
      <feOffset dx="5" dy="5" input="SourceAlpha"/>
      <feGaussianBlur stdDeviation="12.5" result="blur"/>
      <feFlood flood-opacity="0.161"/>
      <feComposite operator="in" in2="blur"/>
      <feComposite in="SourceGraphic"/>
    </filter>
    <clipPath id="clip-path">
      <rect id="Rectángulo_53544" data-name="Rectángulo 53544" width="48.742" height="67.569" fill="url(#linear-gradient)"/>
    </clipPath>
    <linearGradient id="linear-gradient-2" x1="0.5" x2="0.5" y2="1" gradientUnits="objectBoundingBox">
      <stop offset="0" stop-color="#f5f5f5"/>
      <stop offset="0.25" stop-color="#f5f5f5"/>
      <stop offset="1" stop-color="#a7b3cf"/>
    </linearGradient>
    <linearGradient id="linear-gradient-12" x1="0.5" x2="0.5" y2="1" gradientUnits="objectBoundingBox">
      <stop offset="0" stop-color="#2a9d8d"/>
      <stop offset="1" stop-color="#43a99b"/>
    </linearGradient>
  </defs>
  <g id="Grupo_175157" data-name="Grupo 175157" transform="translate(-287.533 -4923.03)">
    <g id="Grupo_145687" data-name="Grupo 145687" transform="translate(305.534 4941.029)">
      <path id="Trazado_150708" data-name="Trazado 150708" d="M135.906,62.426A68.068,68.068,0,1,1,62.426.238a68.069,68.069,0,0,1,73.48,62.188" transform="translate(0 136.144) rotate(-90)" fill="#eeac3a"/>
      <g transform="matrix(1, 0, 0, 1, -18, -18)" filter="url(#Trazado_150709)">
        <path id="Trazado_150709-2" data-name="Trazado 150709" d="M106.955,49.129A53.568,53.568,0,1,1,49.128.188a53.568,53.568,0,0,1,57.827,48.941" transform="translate(32.5 139.64) rotate(-90)" fill="#fff"/>
      </g>
      <g id="Grupo_173580" data-name="Grupo 173580" transform="translate(43.701 34.288)">
        <g id="Enmascarar_grupo_173579" data-name="Enmascarar grupo 173579" clip-path="url(#clip-path)">
          <path id="Trazado_214278" data-name="Trazado 214278" d="M48.742,5.015V62.554c-.041.189-.1.376-.121.567A5.006,5.006,0,0,1,43.7,67.562q-19.351.013-38.7-.025a5.277,5.277,0,0,1-2.431-.673A5.081,5.081,0,0,1,0,62.009Q.019,39.905.007,17.8c0-1.606-.006-3.211,0-4.817.005-.839.36-1.272,1.005-1.273s1.012.451,1.017,1.266c.007,1.254,0,2.507,0,3.761a5.746,5.746,0,0,0,.069.576C3.148,15.88,4.13,14.558,5.07,13.206A2,2,0,0,0,5.4,12.188c.052-1.427-.021-2.862.086-4.284A2.727,2.727,0,0,1,8.257,5.418q16.088-.011,32.175,0A2.791,2.791,0,0,1,43.214,7.9a13.972,13.972,0,0,1,.058,1.514,11.446,11.446,0,0,0,.1,3.274,11.6,11.6,0,0,0,1.866,2.764c.424.594.859,1.18,1.377,1.891.024-.283.041-.388.041-.492q0-5.905-.005-11.811a2.975,2.975,0,0,0-.1-.779A3.081,3.081,0,0,0,43.33,1.978q-18.989,0-37.977,0c-.132,0-.264,0-.4.007A3.053,3.053,0,0,0,2.039,5.051c-.014.9,0,1.8-.006,2.705-.006.8-.381,1.3-.989,1.316C.419,9.094.019,8.586.009,7.741c-.008-.594,0-1.188,0-1.782,0-3.353,1-4.79,4.12-5.91C4.144.043,4.155.017,4.169,0H44.522c.137.054.271.116.41.16a5.074,5.074,0,0,1,3.61,3.778c.091.353.134.718.2,1.077M10.453,25.733c-.882.617-1.692,1.244-2.565,1.765a.747.747,0,0,0-.452.749q.012,13.163.008,26.326c0,.808.306,1.12,1.111,1.12q15.79.005,31.581,0c.8,0,1.107-.315,1.11-1.123.006-1.737,0-3.475,0-5.212,0-.506-.03-1.015.017-1.516a.984.984,0,0,1,.988-.963,1,1,0,0,1,1,.945,3.387,3.387,0,0,1,.02.461c0,2.045-.037,4.092.011,6.136A3.065,3.065,0,0,1,40.011,57.7c-3.91-.074-7.823-.023-11.735-.023q-9.857,0-19.713.007A2.794,2.794,0,0,1,5.8,56.147,4.348,4.348,0,0,1,5.432,54.3Q5.4,41.571,5.417,28.836v-.647L2.062,26.876c-.006.086-.026.254-.026.422q0,17.518,0,35.036a3.737,3.737,0,0,0,.1.976,3.107,3.107,0,0,0,3.291,2.282c12.571,0,25.142-.017,37.713.02a3.337,3.337,0,0,0,3.536-3.563c-.057-11.524-.026-23.049-.026-34.574v-.6l-3.381,1.308v.678q0,6.994,0,13.988c0,.949-.337,1.4-1.012,1.4s-1.008-.474-1.012-1.405c0-.264,0-.528,0-.792q0-6.862-.009-13.724c0-.237-.063-.628-.2-.685a6.477,6.477,0,0,1-2.7-2.086,5.723,5.723,0,0,1-9.321.024,5.781,5.781,0,0,1-9.348.033,5.734,5.734,0,0,1-9.217.121m30.8-13.7c0-1.121,0-2.172,0-3.223,0-1.2-.22-1.419-1.414-1.419H8.854c-.2,0-.438-.064-.584.025-.3.179-.757.429-.771.673-.076,1.305-.036,2.617-.036,3.945Zm-19.632,2.1-.77,5.372h7l-.776-5.372Zm-2.026.045a.721.721,0,0,0-.2-.071c-1.6-.006-3.2-.023-4.806.008a.8.8,0,0,0-.524.436c-.465.991-.89,2-1.326,3.007-.275.635-.546,1.272-.841,1.959h6.916l.782-5.338m17.141,5.337a.976.976,0,0,0-.016-.214c-.47-1.086-.938-2.172-1.417-3.254-.282-.639-.423-1.513-.918-1.836s-1.356-.109-2.056-.114c-1.068-.008-2.136,0-3.238,0l.795,5.421Zm-24.7-5.421c-1.57,0-3.034.015-4.5-.009a1.037,1.037,0,0,0-.979.485C5.51,16.054,4.428,17.52,3.362,19c-.108.149-.2.313-.335.536,2.182,0,4.266.009,6.349-.018.164,0,.395-.228.475-.4.564-1.235,1.1-2.484,1.64-3.73.172-.4.333-.794.542-1.293m33.547,5.446c-.007-.092.011-.168-.019-.209q-1.813-2.508-3.639-5.006a.547.547,0,0,0-.365-.218c-1.6-.015-3.195-.01-4.779-.01-.021.106-.049.157-.035.19.717,1.671,1.43,3.344,2.17,5a.6.6,0,0,0,.46.237c2.062.016,4.125.01,6.207.01M28,21.559H20.681a3.825,3.825,0,0,0,1.84,3.91,3.447,3.447,0,0,0,3.852-.125A3.823,3.823,0,0,0,28,21.559m-9.349,0H11.382a3.743,3.743,0,0,0,1.694,3.84,3.444,3.444,0,0,0,3.9-.018,3.743,3.743,0,0,0,1.675-3.822m11.382-.021c-.109,1.974.561,3.31,1.983,4.037a3.622,3.622,0,0,0,4-.462,3.765,3.765,0,0,0,1.271-3.574Zm9.353,0A3.69,3.69,0,0,0,41.25,25.5a3.433,3.433,0,0,0,3.9-.243,3.663,3.663,0,0,0,1.46-3.723Zm-37.313,0a3.652,3.652,0,0,0,1.633,3.832,3.476,3.476,0,0,0,4.02-.038,3.6,3.6,0,0,0,1.518-3.794Z" transform="translate(0)" fill="#12263f"/>
          <path id="Trazado_214279" data-name="Trazado 214279" d="M23.806,193.435a5.734,5.734,0,0,0,9.217-.121,5.781,5.781,0,0,0,9.348-.033,5.723,5.723,0,0,0,9.321-.024,6.477,6.477,0,0,0,2.7,2.086c.14.057.2.448.2.685q.017,6.862.009,13.724c0,.264,0,.528,0,.792,0,.931.345,1.4,1.012,1.405s1.012-.452,1.012-1.4q0-6.994,0-13.988v-.678l3.381-1.308v.6c0,11.525-.031,23.049.026,34.574a3.337,3.337,0,0,1-3.536,3.563c-12.571-.038-25.142-.019-37.713-.02a3.107,3.107,0,0,1-3.291-2.282,3.736,3.736,0,0,1-.1-.976q-.008-17.518,0-35.036c0-.168.021-.336.026-.422l3.355,1.313v.647q0,12.734.015,25.469a4.349,4.349,0,0,0,.366,1.842,2.794,2.794,0,0,0,2.764,1.537q9.857-.023,19.713-.007c3.912,0,7.825-.051,11.735.023a3.065,3.065,0,0,0,3.274-3.278c-.048-2.044-.01-4.091-.011-6.136a3.386,3.386,0,0,0-.02-.461,1,1,0,0,0-1-.945.984.984,0,0,0-.988.963c-.047.5-.017,1.011-.017,1.517,0,1.738,0,3.475,0,5.212,0,.808-.307,1.122-1.11,1.123q-15.79.006-31.581,0c-.806,0-1.111-.312-1.111-1.12q0-13.163-.008-26.326a.746.746,0,0,1,.452-.749c.873-.521,1.683-1.148,2.565-1.765m9.732,9.865c.887-.954,1.683-1.8,2.463-2.656a1.01,1.01,0,0,0,.079-1.515c-.445-.433-1.023-.376-1.551.175-.638.667-1.259,1.35-1.891,2.022-.617.656-1.129,1.557-1.889,1.891a7.338,7.338,0,0,1-2.665.112h-.066a2.814,2.814,0,0,0-1.419,5.312.911.911,0,0,1,.408.519q.756,3.974,1.461,7.957a2.96,2.96,0,0,0,3.156,2.716q6.063.009,12.125,0a2.967,2.967,0,0,0,3.173-2.7q.7-3.984,1.459-7.958a.836.836,0,0,1,.342-.491,2.828,2.828,0,0,0-1.53-5.358,6.852,6.852,0,0,1-2.538-.1c-.723-.316-1.21-1.174-1.8-1.8-.724-.767-1.43-1.551-2.174-2.3a.934.934,0,0,0-1.359-.015.965.965,0,0,0-.071,1.363c.162.207.35.394.529.587.662.714,1.325,1.428,2.071,2.232Zm4.189,26.79c.659,0,1.318.017,1.976,0,.757-.025,1.181-.432,1.156-1.062-.024-.6-.441-.955-1.181-.963q-1.976-.02-3.951,0c-.769.008-1.2.392-1.189,1.021s.436.988,1.214,1.006c.658.015,1.317,0,1.976,0" transform="translate(-13.353 -167.703)" fill="#b1daf6"/>
          <path id="Trazado_214280" data-name="Trazado 214280" d="M90.155,60.373H56.369c0-1.328-.04-2.64.036-3.945.014-.243.475-.494.771-.673.146-.088.386-.025.584-.025h30.98c1.194,0,1.413.221,1.414,1.419,0,1.051,0,2.1,0,3.223m-29.33-3.3a1.036,1.036,0,0,0-1,1.011,1,1,0,0,0,1.027.971.944.944,0,0,0,.953-.96,1,1,0,0,0-.975-1.023m10.035.982a1.038,1.038,0,0,0-1.037-.981,1,1,0,0,0-.944,1.052.944.944,0,0,0,.982.931,1,1,0,0,0,1-1m-5.519,1a.987.987,0,0,0,1-1,1,1,0,0,0-2.006,0,.991.991,0,0,0,1,1" transform="translate(-48.907 -48.342)" fill="#fff"/>
          <path id="Trazado_214281" data-name="Trazado 214281" d="M158.422,106.839h5.455l.776,5.372h-7l.77-5.372" transform="translate(-136.806 -92.712)" fill="url(#linear-gradient-2)"/>
          <path id="Trazado_214282" data-name="Trazado 214282" d="M97.637,106.644l-.782,5.338H89.939c.295-.687.565-1.324.841-1.959.436-1.005.861-2.016,1.326-3.007a.8.8,0,0,1,.524-.436c1.6-.031,3.2-.014,4.806-.008a.722.722,0,0,1,.2.071" transform="translate(-78.046 -92.472)" fill="url(#linear-gradient-2)"/>
          <path id="Trazado_214283" data-name="Trazado 214283" d="M227.621,111.547h-6.85l-.795-5.421c1.1,0,2.17-.006,3.238,0,.7.005,1.558-.211,2.056.114s.635,1.2.918,1.836c.478,1.082.947,2.169,1.417,3.254a.983.983,0,0,1,.016.214" transform="translate(-190.889 -92.038)" fill="url(#linear-gradient-2)"/>
          <path id="Trazado_214284" data-name="Trazado 214284" d="M31.9,106.48c-.209.5-.371.9-.542,1.293-.541,1.246-1.076,2.5-1.64,3.73-.081.177-.311.4-.475.4-2.083.027-4.167.018-6.349.018.139-.224.227-.387.335-.536,1.066-1.477,2.147-2.943,3.2-4.433a1.036,1.036,0,0,1,.979-.485c1.463.025,2.927.009,4.5.009" transform="translate(-19.868 -92.392)" fill="url(#linear-gradient-2)"/>
          <path id="Trazado_214285" data-name="Trazado 214285" d="M286.692,112.009c-2.082,0-4.145.005-6.207-.01a.6.6,0,0,1-.46-.237c-.74-1.661-1.454-3.334-2.17-5.005-.014-.033.014-.084.035-.19,1.584,0,3.182-.005,4.779.01a.547.547,0,0,1,.366.217q1.831,2.495,3.639,5.006c.03.042.012.118.019.209" transform="translate(-241.111 -92.475)" fill="url(#linear-gradient-2)"/>
          <path id="Trazado_214286" data-name="Trazado 214286" d="M163.636,163.044A3.823,3.823,0,0,1,162,166.828a3.447,3.447,0,0,1-3.852.125,3.824,3.824,0,0,1-1.84-3.91Z" transform="translate(-135.632 -141.485)" fill="url(#linear-gradient)"/>
          <path id="Trazado_214287" data-name="Trazado 214287" d="M93.184,163.052a3.743,3.743,0,0,1-1.675,3.822,3.444,3.444,0,0,1-3.9.018,3.743,3.743,0,0,1-1.694-3.84Z" transform="translate(-74.529 -141.492)" fill="url(#linear-gradient)"/>
          <path id="Trazado_214288" data-name="Trazado 214288" d="M227.084,162.891h7.252a3.765,3.765,0,0,1-1.271,3.574,3.622,3.622,0,0,1-4,.462c-1.422-.727-2.092-2.063-1.983-4.037" transform="translate(-197.047 -141.352)" fill="url(#linear-gradient)"/>
          <path id="Trazado_214289" data-name="Trazado 214289" d="M297.666,162.891h7.223a3.663,3.663,0,0,1-1.46,3.723,3.433,3.433,0,0,1-3.9.242,3.69,3.69,0,0,1-1.861-3.965" transform="translate(-258.276 -141.352)" fill="url(#linear-gradient)"/>
          <path id="Trazado_214290" data-name="Trazado 214290" d="M15.412,162.906h7.171a3.6,3.6,0,0,1-1.518,3.794,3.476,3.476,0,0,1-4.02.038,3.652,3.652,0,0,1-1.633-3.832" transform="translate(-13.336 -141.365)" fill="url(#linear-gradient)"/>
          <path id="Trazado_214291" data-name="Trazado 214291" d="M97.1,239.894h8.319c-.747-.8-1.41-1.518-2.072-2.232-.179-.193-.367-.38-.529-.587a.966.966,0,0,1,.071-1.363.934.934,0,0,1,1.359.015c.744.747,1.45,1.532,2.174,2.3.588.623,1.075,1.481,1.8,1.8a6.852,6.852,0,0,0,2.538.1,2.828,2.828,0,0,1,1.53,5.358.834.834,0,0,0-.342.491q-.749,3.975-1.459,7.958a2.967,2.967,0,0,1-3.173,2.7q-6.063.008-12.125,0a2.96,2.96,0,0,1-3.156-2.716q-.7-3.984-1.461-7.957a.91.91,0,0,0-.408-.519,2.814,2.814,0,0,1,1.419-5.312h.066a7.341,7.341,0,0,0,2.665-.112c.76-.334,1.272-1.235,1.889-1.891.632-.672,1.253-1.355,1.891-2.022.527-.551,1.106-.608,1.551-.175a1.01,1.01,0,0,1-.079,1.515c-.78.858-1.577,1.7-2.463,2.656m-4.435,5.715a.651.651,0,0,0-.024.164c.468,2.613.93,5.227,1.412,7.837a1.013,1.013,0,0,0,1.157.843c4.021-.007,8.043,0,12.064-.005.8,0,1.1-.271,1.242-1.06.207-1.144.423-2.286.629-3.43.258-1.437.51-2.876.771-4.347Zm8.57-2.074h9.3c.2,0,.4,0,.593-.012a.728.728,0,0,0,.735-.772.776.776,0,0,0-.69-.83,2.226,2.226,0,0,0-.46-.016q-9.46,0-18.92,0c-.175,0-.419-.052-.512.04a1.857,1.857,0,0,0-.594.832c-.074.4.224.694.665.74a6.509,6.509,0,0,0,.658.018h9.229" transform="translate(-76.916 -204.296)" fill="#1a1818"/>
          <path id="Trazado_214292" data-name="Trazado 214292" d="M163.4,458.434c-.659,0-1.317.013-1.976,0-.777-.018-1.206-.386-1.214-1.007s.419-1.013,1.189-1.021q1.975-.019,3.951,0c.74.007,1.157.365,1.181.963.025.63-.4,1.037-1.156,1.062-.658.022-1.317,0-1.976.005" transform="translate(-139.028 -396.046)" fill="#1a1818"/>
          <path id="Trazado_214293" data-name="Trazado 214293" d="M83.538,66.015a1,1,0,0,1,.975,1.023.944.944,0,0,1-.953.96,1,1,0,0,1-1.027-.971,1.036,1.036,0,0,1,1-1.011" transform="translate(-71.62 -57.286)" fill="#1a1818"/>
          <path id="Trazado_214294" data-name="Trazado 214294" d="M153.025,67a1,1,0,0,1-1,1,.944.944,0,0,1-.982-.931,1,1,0,0,1,.944-1.052,1.038,1.038,0,0,1,1.037.981" transform="translate(-131.071 -57.287)" fill="#1a1818"/>
          <path id="Trazado_214295" data-name="Trazado 214295" d="M117.693,67.995a.991.991,0,0,1-1-1,1,1,0,0,1,2.006,0,.987.987,0,0,1-1,1" transform="translate(-101.259 -57.283)" fill="#1a1818"/>
          <path id="Trazado_214296" data-name="Trazado 214296" d="M118.946,312.436H136.2c-.261,1.472-.512,2.91-.771,4.347-.206,1.144-.421,2.286-.629,3.43-.143.789-.443,1.06-1.241,1.06-4.021,0-8.043,0-12.065.005a1.013,1.013,0,0,1-1.157-.843c-.482-2.61-.945-5.224-1.412-7.837a.653.653,0,0,1,.024-.164m9.609,4.265c0-.547.023-1.1-.006-1.642a1.009,1.009,0,1,0-2.015.01c-.027,1.072-.025,2.146,0,3.218a1.047,1.047,0,0,0,.98,1.112,1.06,1.06,0,0,0,1.038-1.122c.023-.524,0-1.051,0-1.576m-6.9-1.624c.2,1.159.38,2.351.605,3.534a.98.98,0,0,0,1.938-.209c-.149-1.26-.366-2.514-.628-3.756a.869.869,0,0,0-1.147-.617c-.529.107-.732.508-.768,1.047m11.74.105a1.008,1.008,0,1,0-2-.233c-.181,1.036-.335,2.077-.5,3.115a1.06,1.06,0,0,0,.785,1.315.988.988,0,0,0,1.165-.886c.213-1.119.379-2.247.555-3.311" transform="translate(-103.196 -271.123)" fill="url(#linear-gradient-12)"/>
          <path id="Trazado_214297" data-name="Trazado 214297" d="M114.6,285.955h-9.229a6.5,6.5,0,0,1-.658-.018c-.441-.046-.739-.34-.665-.74a1.858,1.858,0,0,1,.594-.832c.093-.092.337-.04.512-.04q9.46,0,18.92,0a2.226,2.226,0,0,1,.46.016.776.776,0,0,1,.69.83.728.728,0,0,1-.735.772c-.2.016-.4.012-.593.012h-9.3" transform="translate(-90.282 -246.717)" fill="#eeac3a"/>
          <path id="Trazado_214298" data-name="Trazado 214298" d="M178.392,327c0,.525.019,1.052,0,1.576a1.06,1.06,0,0,1-1.038,1.122,1.047,1.047,0,0,1-.98-1.112c-.024-1.072-.026-2.146,0-3.218a1.009,1.009,0,1,1,2.015-.01c.029.546.006,1.094.006,1.642" transform="translate(-153.032 -281.425)" fill="#1a1818"/>
          <path id="Trazado_214299" data-name="Trazado 214299" d="M139.638,325.331c.036-.539.24-.94.768-1.048a.869.869,0,0,1,1.147.617c.262,1.241.479,2.5.628,3.756a.98.98,0,0,1-1.938.209c-.226-1.184-.41-2.375-.605-3.534" transform="translate(-121.174 -281.377)" fill="#1a1818"/>
          <path id="Trazado_214300" data-name="Trazado 214300" d="M211.851,325.437c-.176,1.064-.342,2.192-.555,3.311a.988.988,0,0,1-1.165.886,1.06,1.06,0,0,1-.785-1.314c.17-1.038.323-2.079.5-3.115a1.008,1.008,0,1,1,2,.233" transform="translate(-181.647 -281.378)" fill="#1a1818"/>
        </g>
      </g>
    </g>
  </g>
</svg>
