<svg xmlns="http://www.w3.org/2000/svg" xmlns:xlink="http://www.w3.org/1999/xlink" width="182.144" height="182.144" viewBox="0 0 182.144 182.144">
  <defs>
    <filter id="Trazado_150707" x="0" y="0" width="182.144" height="182.144" filterUnits="userSpaceOnUse">
      <feOffset dx="5" dy="5" input="SourceAlpha"/>
      <feGaussianBlur stdDeviation="12.5" result="blur"/>
      <feFlood flood-opacity="0.161"/>
      <feComposite operator="in" in2="blur"/>
      <feComposite in="SourceGraphic"/>
    </filter>
    <clipPath id="clip-path">
      <rect id="Rectángulo_53552" data-name="Rectángulo 53552" width="61.022" height="61.771" fill="#12263f"/>
    </clipPath>
    <linearGradient id="linear-gradient" x1="0.5" x2="0.5" y2="1" gradientUnits="objectBoundingBox">
      <stop offset="0" stop-color="#116eb9"/>
      <stop offset="1" stop-color="#1894f6"/>
    </linearGradient>
  </defs>
  <g id="Grupo_175159" data-name="Grupo 175159" transform="translate(-1131.507 -4923.029)">
    <g id="Grupo_145689" data-name="Grupo 145689" transform="translate(1149.508 4941.029)">
      <path id="Trazado_150705" data-name="Trazado 150705" d="M135.906,62.426A68.068,68.068,0,1,1,62.426.238a68.069,68.069,0,0,1,73.48,62.188" transform="translate(0 136.144) rotate(-90)" fill="#60a2d8"/>
      <path id="Trazado_150706" data-name="Trazado 150706" d="M135.906,62.426A68.068,68.068,0,1,1,62.426.238a68.069,68.069,0,0,1,73.48,62.188" transform="translate(0 136.144) rotate(-90)" fill="#eeac3a"/>
      <g transform="matrix(1, 0, 0, 1, -18, -18)" filter="url(#Trazado_150707)">
        <path id="Trazado_150707-2" data-name="Trazado 150707" d="M106.939,48.925A53.569,53.569,0,1,1,48.925.205a53.569,53.569,0,0,1,58.013,48.72" transform="translate(32.5 139.64) rotate(-90)" fill="#fff"/>
      </g>
      <g id="Grupo_173582" data-name="Grupo 173582" transform="translate(-70.508 107.971)">
        <g id="Grupo_173581" data-name="Grupo 173581" transform="translate(111.788 -73.404)" clip-path="url(#clip-path)">
          <path id="Trazado_214301" data-name="Trazado 214301" d="M13.74,0h.315c2.245,1.187,4.477,2.4,6.739,3.556,3.262,1.661,6.4,3.919,9.863,4.733,3.532.829,7.4.219,11.122.236,1.129.005,2.258,0,3.518,0V28.243c5.53.588,9.991,2.931,12.859,7.589,1.31,2.128,1.931,4.68,2.865,7.04v4.413a3.236,3.236,0,0,0-.305.683,16.787,16.787,0,0,1-26.3,10.656,4.512,4.512,0,0,0-2.437-.741c-10.029-.05-20.059-.032-30.089-.032H0V8.47H13.74Zm45.2,45.21A14.727,14.727,0,1,0,44.051,59.7,14.733,14.733,0,0,0,58.939,45.21M9.806,14.543c0,4.431.043,8.726-.027,13.02-.021,1.278.315,1.71,1.655,1.7,7.453-.062,14.906-.028,22.359-.034.457,0,.914-.057,1.423-.092V14.485c-3.4,0-6.7.067-10-.028a8.822,8.822,0,0,0-4.638,1.113c-2.19,1.191-4.455,2.242-6.927,3.471v-4.5Zm.1,22.69V51.71H28.435c-.327-2.524-.95-4.954-.867-7.359a44.409,44.409,0,0,1,1.357-7.118Zm0-2.337a2.2,2.2,0,0,0,.521.158q9.755.019,19.51.01a1.536,1.536,0,0,0,.995-.31c1.13-1.109,2.2-2.275,3.343-3.468H9.9ZM15.727,3.311V15.753l12.438-6.22L15.727,3.311M3.861,45.9l-1.819.21v3.617H7.657V46.082l-1.73-.173V44.09l1.746-.249V40.2H2.057v3.625l1.8.336ZM37.5,10.63V14.4l1.716.162V16.35L37.45,16.5V20.2h5.629V16.538l-1.743-.245V14.581l1.734-.257V10.63ZM9.81,55.692H31.129a2.558,2.558,0,0,0-2.913-1.842c-4.141.111-8.288.039-12.433.039H9.894c-.03.65-.054,1.154-.084,1.8M2.03,14.348H7.657V10.672H2.03Zm5.622,2.158H2.071V20.27H7.652Zm.042,5.971H2.06v3.647H7.694ZM37.471,26.13h5.639V22.447H37.471ZM7.712,28.405H2.019v3.656H7.712Zm-.066,5.918H2.041v3.708H7.646ZM2,55.717H7.674V52.034H2ZM27.562,12.349h7.609v-1.69c-2.7-.224-5.243-.368-7.609,1.69M13.638,10.572a22.324,22.324,0,0,0-2.9.042,1.254,1.254,0,0,0-.855.874,1.239,1.239,0,0,0,.817.905,23.1,23.1,0,0,0,2.937.044ZM37.471,29.554c1.054-.31,2.1-.616,3.135-.933.025-.008.01-.146.014-.223-3.165-.238-3.165-.238-3.15,1.156" fill="#12263f"/>
          <path id="Trazado_214302" data-name="Trazado 214302" d="M31.252,102.356v-3.61H55.621c-1.139,1.193-2.214,2.359-3.344,3.468a1.538,1.538,0,0,1-.995.31q-9.755.018-19.509-.01a2.2,2.2,0,0,1-.521-.158" transform="translate(-21.35 -67.46)" fill="#a493c0"/>
          <path id="Trazado_214303" data-name="Trazado 214303" d="M49.637,10.449l12.439,6.223-12.439,6.22Z" transform="translate(-33.91 -7.138)" fill="url(#linear-gradient)"/>
          <path id="Trazado_214304" data-name="Trazado 214304" d="M8.262,132.576v-1.748l-1.8-.336v-3.624h5.616v3.645l-1.746.249v1.819l1.73.174V136.4H6.443v-3.617l1.819-.21" transform="translate(-4.402 -86.672)" fill="#eeac3a"/>
          <path id="Trazado_214305" data-name="Trazado 214305" d="M118.253,33.553h5.568v3.694l-1.734.257v1.713l1.743.244v3.658H118.2V39.427l1.768-.155V37.48l-1.716-.163Z" transform="translate(-80.751 -22.922)" fill="#eeac3a"/>
          <path id="Trazado_214306" data-name="Trazado 214306" d="M30.962,171.8c.03-.649.054-1.153.084-1.8h5.89c4.145,0,8.291.072,12.433-.039a2.558,2.558,0,0,1,2.913,1.842Z" transform="translate(-21.152 -116.107)" fill="#a493c0"/>
          <rect id="Rectángulo_53545" data-name="Rectángulo 53545" width="5.627" height="3.676" transform="translate(2.03 10.672)" fill="#eeac3a"/>
          <rect id="Rectángulo_53546" data-name="Rectángulo 53546" width="5.582" height="3.764" transform="translate(2.071 16.506)" fill="#eeac3a"/>
          <rect id="Rectángulo_53547" data-name="Rectángulo 53547" width="5.634" height="3.647" transform="translate(2.06 22.478)" fill="#eeac3a"/>
          <rect id="Rectángulo_53548" data-name="Rectángulo 53548" width="5.64" height="3.683" transform="translate(37.471 22.448)" fill="#eeac3a"/>
          <rect id="Rectángulo_53549" data-name="Rectángulo 53549" width="5.694" height="3.656" transform="translate(2.019 28.405)" fill="#eeac3a"/>
          <rect id="Rectángulo_53550" data-name="Rectángulo 53550" width="5.605" height="3.708" transform="translate(2.041 34.323)" fill="#eeac3a"/>
          <rect id="Rectángulo_53551" data-name="Rectángulo 53551" width="5.674" height="3.683" transform="translate(2 52.034)" fill="#eeac3a"/>
          <path id="Trazado_214307" data-name="Trazado 214307" d="M86.994,35.068c2.365-2.058,4.907-1.913,7.609-1.689v1.689Z" transform="translate(-59.431 -22.719)" fill="#a493c0"/>
          <path id="Trazado_214308" data-name="Trazado 214308" d="M34.951,33.312v1.865a23.158,23.158,0,0,1-2.937-.043,1.239,1.239,0,0,1-.817-.906,1.254,1.254,0,0,1,.855-.874,22.327,22.327,0,0,1,2.9-.042" transform="translate(-21.313 -22.74)" fill="#a493c0"/>
          <path id="Trazado_214309" data-name="Trazado 214309" d="M118.262,90.53c-.015-1.394-.015-1.394,3.15-1.156,0,.077.011.215-.014.223-1.039.317-2.081.622-3.135.933" transform="translate(-80.791 -60.976)" fill="#eeac3a"/>
          <path id="Trazado_214310" data-name="Trazado 214310" d="M106.169,119.335v-12l17.718,2.21v3q0,6.061,0,12.12c0,2.2-1.081,3.486-2.921,3.5a2.972,2.972,0,0,1-3.02-2.807c-.1-1.759,1.209-2.976,3.36-3.141a4.531,4.531,0,0,0,.528-.111v-5.845l-13.707-1.725c0,2.65.034,5.193-.011,7.734a2.941,2.941,0,0,1-3.458,2.938,3.1,3.1,0,0,1-2.473-3.041,2.941,2.941,0,0,1,2.82-2.832c.309-.026.622,0,1.167,0m15.5-5.155.327-.319c-.538-.839.854-2.4-1.127-2.666-4.182-.56-8.376-1.029-12.655-1.546V112.5l13.455,1.678M105.2,123.554c.423-.6.914-1.022.838-1.259-.125-.387-.618-.656-.956-.975-.262.331-.707.65-.731,1-.022.31.423.652.849,1.237m16.994,1.563c-.583-.354-1.014-.805-1.264-.721-.358.121-.583.633-.865.978.329.249.667.7.984.69s.626-.491,1.145-.948" transform="translate(-69.806 -73.327)" fill="#12263f"/>
          <path id="Trazado_214311" data-name="Trazado 214311" d="M134.667,119.172l-13.455-1.678v-2.852c4.279.517,8.474.986,12.656,1.546,1.981.265.589,1.826,1.127,2.666l-.327.319" transform="translate(-82.808 -78.319)" fill="#43a99b"/>
          <path id="Trazado_214312" data-name="Trazado 214312" d="M109.869,153.71c-.426-.585-.871-.926-.849-1.236.024-.348.47-.666.731-1,.338.319.832.587.956.975.076.237-.415.656-.838,1.259" transform="translate(-74.478 -103.483)" fill="#43a99b"/>
          <path id="Trazado_214313" data-name="Trazado 214313" d="M160.749,161.884c-.519.457-.821.933-1.145.948s-.656-.441-.984-.69c.282-.345.508-.857.865-.978.25-.085.681.367,1.264.721" transform="translate(-108.364 -110.094)" fill="#43a99b"/>
        </g>
      </g>
    </g>
  </g>
</svg>
