<svg xmlns="http://www.w3.org/2000/svg" xmlns:xlink="http://www.w3.org/1999/xlink" width="593.595" height="581.115" viewBox="0 0 593.595 581.115">
  <defs>
    <clipPath id="clip-path">
      <rect id="Rect치ngulo_53581" data-name="Rect치ngulo 53581" width="593.595" height="581.115" fill="none"/>
    </clipPath>
    <filter id="Trazado_214334" x="46.494" y="41.823" width="239.131" height="238.979" filterUnits="userSpaceOnUse">
      <feOffset dx="3" dy="5" input="SourceAlpha"/>
      <feGaussianBlur stdDeviation="3" result="blur"/>
      <feFlood flood-opacity="0.161"/>
      <feComposite operator="in" in2="blur"/>
      <feComposite in="SourceGraphic"/>
    </filter>
    <filter id="Trazado_214335" x="311.993" y="306.105" width="239.146" height="239.135" filterUnits="userSpaceOnUse">
      <feOffset dx="3" dy="5" input="SourceAlpha"/>
      <feGaussianBlur stdDeviation="3" result="blur-2"/>
      <feFlood flood-opacity="0.161"/>
      <feComposite operator="in" in2="blur-2"/>
      <feComposite in="SourceGraphic"/>
    </filter>
    <filter id="Trazado_214336" x="311.954" y="41.79" width="239.221" height="239.05" filterUnits="userSpaceOnUse">
      <feOffset dx="3" dy="5" input="SourceAlpha"/>
      <feGaussianBlur stdDeviation="3" result="blur-3"/>
      <feFlood flood-opacity="0.161"/>
      <feComposite operator="in" in2="blur-3"/>
      <feComposite in="SourceGraphic"/>
    </filter>
    <filter id="Trazado_214337" x="46.503" y="306.096" width="239.219" height="239.159" filterUnits="userSpaceOnUse">
      <feOffset dx="3" dy="5" input="SourceAlpha"/>
      <feGaussianBlur stdDeviation="3" result="blur-4"/>
      <feFlood flood-opacity="0.161"/>
      <feComposite operator="in" in2="blur-4"/>
      <feComposite in="SourceGraphic"/>
    </filter>
    <filter id="Trazado_214338" x="334.706" y="8.759" width="270.889" height="331.887" filterUnits="userSpaceOnUse">
      <feOffset dx="3" dy="5" input="SourceAlpha"/>
      <feGaussianBlur stdDeviation="3" result="blur-5"/>
      <feFlood flood-opacity="0.161"/>
      <feComposite operator="in" in2="blur-5"/>
      <feComposite in="SourceGraphic"/>
    </filter>
    <filter id="Trazado_214339" x="248.831" y="340.414" width="340.44" height="254.701" filterUnits="userSpaceOnUse">
      <feOffset dx="3" dy="5" input="SourceAlpha"/>
      <feGaussianBlur stdDeviation="3" result="blur-6"/>
      <feFlood flood-opacity="0.161"/>
      <feComposite operator="in" in2="blur-6"/>
      <feComposite in="SourceGraphic"/>
    </filter>
    <filter id="Trazado_214340" x="-6" y="248.972" width="252.577" height="330.7" filterUnits="userSpaceOnUse">
      <feOffset dx="3" dy="5" input="SourceAlpha"/>
      <feGaussianBlur stdDeviation="3" result="blur-7"/>
      <feFlood flood-opacity="0.161"/>
      <feComposite operator="in" in2="blur-7"/>
      <feComposite in="SourceGraphic"/>
    </filter>
    <filter id="Trazado_214341" x="8.274" y="-4" width="327.757" height="252.039" filterUnits="userSpaceOnUse">
      <feOffset dx="3" dy="5" input="SourceAlpha"/>
      <feGaussianBlur stdDeviation="3" result="blur-8"/>
      <feFlood flood-opacity="0.161"/>
      <feComposite operator="in" in2="blur-8"/>
      <feComposite in="SourceGraphic"/>
    </filter>
    <clipPath id="clip-path-2">
      <rect id="Rect치ngulo_50286" data-name="Rect치ngulo 50286" width="39.151" height="39.155" fill="#12263f"/>
    </clipPath>
  </defs>
  <g id="Grupo_175146" data-name="Grupo 175146" transform="translate(-526.65 -10303.809)">
    <g id="Grupo_175127" data-name="Grupo 175127" transform="translate(107.037 -309.302)">
      <g id="Grupo_173637" data-name="Grupo 173637" transform="translate(419.613 10613.11)">
        <g id="Grupo_173636" data-name="Grupo 173636" clip-path="url(#clip-path)">
          <g transform="matrix(1, 0, 0, 1, 0, 0)" filter="url(#Trazado_214334)">
            <path id="Trazado_214334-2" data-name="Trazado 214334" d="M135.9,267.485q-36.393,0-72.785,0c-7.581,0-10.168-2.445-9.791-10,2.462-49.334,19.22-93.326,50.881-131.2,35.985-43.05,82.061-68.781,137.607-77.45,7.623-1.189,15.288-1.776,22.967-2.275,6.305-.409,9.589,2.485,9.6,8.9q.086,73.97,0,147.94c-.008,5.967-2.621,8.451-9.534,9.74-16.949,3.159-29.7,12.278-38.507,27.008a55.206,55.206,0,0,0-6.674,18.845c-1.084,6.039-3.863,8.48-9.991,8.488q-36.885.047-73.768.013M123.187,190.5c5.65.511,5.65.511,6.707-1.294,3.329-5.686,9.319-5.667,12.747.194,1.417,2.424,3.519,1.58,5.156,1.25,2.124-.428.648-2.074.265-3.124-2.682-7.35-5.483-14.657-8.114-22.025-.732-2.051-1.913-2.656-4.008-2.674-2.036-.018-2.909.925-3.525,2.612-3.019,8.256-6.072,16.5-9.229,25.062m27.465-12.6a22.323,22.323,0,0,0,.31,3.953c1.065,4.856,3.711,8.408,8.888,9.294,4.858.831,9.177-.267,12.073-4.589.922-1.376,2.607-3.537.733-4.648-1.586-.94-4.39-1.549-5.576,1.747-.895,2.484-3.254,3.129-5.693,2.773a4.945,4.945,0,0,1-4.416-4.616,44.62,44.62,0,0,1-.208-8.317c.2-2.64.885-5.316,4.142-5.91,3.053-.556,5.461.14,6.6,3.472.931,2.722,3.46,1.829,4.977,1.265,1.862-.693.623-2.509.085-3.779a9.4,9.4,0,0,0-5.966-5.433c-9.149-3.028-15.965,2.89-15.949,14.787m32.605.977c0,2.945.1,5.893-.033,8.831-.1,2.214.5,3.223,2.968,3.229,2.447.006,3.056-.931,2.993-3.179-.128-4.576.171-9.171-.1-13.735-.253-4.3.108-7.487,5.749-6.339,1.807.368,3.136-.2,3.089-2.576-.044-2.248-1.426-2.215-2.953-2.215-5.729,0-11.457.009-17.185-.01-1.585,0-2.956.064-2.932,2.244.021,1.863.831,2.918,2.654,2.559,6.08-1.192,6.2,2.475,5.767,6.775a43.674,43.674,0,0,0-.022,4.415" transform="translate(-0.79 -0.69)" fill="#7f4fc7"/>
          </g>
          <g transform="matrix(1, 0, 0, 1, 0, 0)" filter="url(#Trazado_214335)">
            <path id="Trazado_214335-2" data-name="Trazado 214335" d="M322.786,452.748q0-35.893,0-71.787c0-7.939,1.679-9.933,9.557-11.559,24.258-5.008,40.31-21.454,44.966-46.072,1.082-5.715,4.3-8.529,10.194-8.532q73.554-.047,147.106,0c6.729,0,9.621,3.192,9.286,9.733-2.6,50.767-20.034,95.781-53.2,134.327-34.833,40.481-78.9,65.061-131.566,74.22a195.683,195.683,0,0,1-26.361,2.815c-7.442.274-9.965-2.277-9.974-9.877q-.041-36.631-.01-73.263m81.848-39.078v6.848c0,7.5,0,7.5,7.508,7.39,11.554-.176,17.706-10.916,12.268-21.415-2.9-5.6-10.954-8.944-17.969-6.238-4.008,1.547-1.087,6.287-1.764,9.511a19.325,19.325,0,0,0-.043,3.9m48.484.652c.022-5.241-.747-8.038-2.911-10.586a11.586,11.586,0,0,0-13.293-3.412c-5.165,2.007-7.77,6.994-7.606,14.567.139,6.433,3.1,11.218,7.931,12.831,8.827,2.946,15.837-2.969,15.88-13.4" transform="translate(-4.79 -4.67)" fill="#43a99b"/>
          </g>
          <g transform="matrix(1, 0, 0, 1, 0, 0)" filter="url(#Trazado_214336)">
            <path id="Trazado_214336-2" data-name="Trazado 214336" d="M461.171,267.522q-36.153,0-72.307,0c-8.075,0-10.428-2.011-11.742-9.937C373.49,235.674,354.7,216.9,332.775,213.27c-7.946-1.314-10.026-3.717-10.028-11.726q-.012-72.018,0-144.036c0-9.507,2.722-11.515,12.268-10.937,31.948,1.933,62.293,9.827,90.415,25.04q91.631,49.567,114.157,151.511a211.536,211.536,0,0,1,4.34,34.511c.362,6.743-2.263,9.86-8.975,9.871q-36.891.065-73.783.018m13.562-88.266-.984.277c-2.958-4.84-6.02-9.62-8.832-14.543-1.4-2.453-3.525-2.114-5.552-1.873-2.624.311-1.432,2.557-1.457,3.92-.125,6.871.015,13.747-.1,20.619-.037,2.257.548,3.17,2.993,3.156,2.491-.015,3.01-1.058,2.951-3.253-.118-4.393-.035-8.792-.035-13.187a102.968,102.968,0,0,1,9.9,14.565c1.432,2.476,3.632,1.95,5.611,1.664,2.2-.318,1.216-2.359,1.235-3.618.1-6.708.058-13.419.042-20.129,0-1.877.586-3.879-2.693-3.915-3.413-.037-3.113,1.939-3.092,4.129.038,4.063.011,8.126.011,12.189M454.965,190.34c-3.156-8.494-6.222-16.7-9.241-24.917-.632-1.721-1.567-2.644-3.569-2.434-1.485.156-2.777.015-3.45,1.876-3.067,8.482-6.27,16.915-9.491,25.548,3.548.556,6.4,1.057,7.124-3.25.456-2.718,2.843-2.364,4.72-2.156,2.367.264,5.837-1.534,6.717,2.081,1,4.128,3.47,4.044,7.191,3.252m-70.871-13.366c0,3.266.035,6.532-.012,9.8-.031,2.189-.325,4.126,3.088,4.07,3.157-.051,2.843-1.84,2.8-3.817a7.2,7.2,0,0,0-.008-.978c-.63-3.829.5-5.976,4.845-5.163a7.9,7.9,0,0,0,1.955-.048c5.332-.378,8.854-3.72,8.942-8.473.091-4.883-3.635-8.824-8.882-9.231-2.275-.176-4.6.161-6.852-.15-4.533-.624-6.68.7-5.944,5.68.4,2.716.072,5.541.072,8.316m25.547-.134c0,3.762.012,7.525-.006,11.287-.007,1.4.051,2.616,1.974,2.6,4.583-.043,9.166-.026,13.749,0,1.4.007,2.036-.542,2.068-2.018.036-1.689-.652-2.377-2.306-2.339-1.962.046-3.948-.18-5.887.034-3.121.344-3.933-.976-3.808-3.922.215-5.062.1-10.14.04-15.21-.022-1.945.836-4.259-2.8-4.325-3.482-.063-3.05,1.951-3.033,4.083.026,3.272.007,6.544.011,9.815" transform="translate(-4.79 -0.69)" fill="#eeac3a"/>
          </g>
          <g transform="matrix(1, 0, 0, 1, 0, 0)" filter="url(#Trazado_214337)">
            <path id="Trazado_214337-2" data-name="Trazado 214337" d="M136.1,314.765q35.914,0,71.829,0c8.049,0,10.363,1.927,11.927,9.83,4.653,23.509,21.553,40.14,45.7,44.975,6.684,1.338,8.932,3.95,8.934,10.692q.028,72.768,0,145.536c0,7.743-2.681,10.5-10.4,10.081-53.159-2.857-99.735-21.955-139.058-57.774-36.263-33.032-58.8-74.027-68.18-122.179a183.521,183.521,0,0,1-3.549-30.2c-.23-8.65,2.094-10.957,10.967-10.96q35.915-.012,71.829,0M162.714,415.1c0-3.766-.113-7.539.039-11.3.107-2.661-1.376-2.857-3.4-2.789-3.67.124-2.377,2.9-2.442,4.718-.249,6.96,1.218,6.187-6.652,6.562-3.921.188-4.906-1.3-4.442-4.768.172-1.287-.045-2.621.037-3.926.118-1.874-.633-2.708-2.553-2.589-1.632.1-3.362-.229-3.345,2.335.053,7.7.071,15.4-.014,23.092-.028,2.51,1.515,2.4,3.232,2.451,1.789.057,2.829-.459,2.676-2.471-.087-1.14.153-2.319-.033-3.433-.8-4.809.819-6.523,5.96-6.24,3.956.218,5.774.989,5.117,5.158-.2,1.278.066,2.624-.047,3.924-.21,2.4.905,3.089,3.179,3.094s2.757-1.045,2.712-3.011c-.084-3.6-.024-7.206-.026-10.809m58.857-2.106c0-3.17-.014-5.538,0-7.9.017-2.137.416-4.234-3.042-4.148-3.128.079-2.8,1.941-2.8,3.917.01,6.7,0,13.4.009,20.107,0,1.9-.507,3.894,2.7,3.982,3.365.093,3.256-1.849,3.114-4.075-.151-2.365-.185-5.215,2.318-5.869,2.569-.671,2.882,2.548,3.939,4.158,2.373,3.617,4.389,7.545,10.229,5.083-2.528-3.926-4.9-8-7.673-11.771-1.641-2.233-1.718-3.8.154-5.88,2.558-2.835,4.825-5.933,7.6-9.393-2.8,0-5.525-.82-6.542.149-3.461,3.3-6.321,7.227-10.018,11.641m-53.966,1.747c.5,4.52-1.876,10.383,1,13.235s8.716.593,13.247.893c.651.043,1.308,0,1.963,0,1.541.012,3,.016,2.992-2.192-.01-1.936-1.019-2.572-2.775-2.549-2.128.029-4.263-.108-6.382.027-2.686.17-4.2-.314-4.218-3.637-.02-3.25,1.282-3.933,4.08-3.678,1.784.164,3.6.014,5.4.012,1.511,0,1.934-.918,1.929-2.235,0-1.263-.3-2.331-1.813-2.38-1.962-.062-3.932-.114-5.89-.021-2.272.108-3.692-.281-3.66-3.129.029-2.6.98-3.491,3.474-3.358,2.447.13,4.908-.008,7.363.015,1.695.016,2.269-.892,2.313-2.452.048-1.7-.764-2.353-2.382-2.281-.98.044-1.968-.056-2.945.014-4.357.307-9.992-1.892-12.743.926s-.474,8.419-.95,12.786m-54.214.686a14.923,14.923,0,0,0,1.716,8.176c3.627,6.958,14.608,8.032,19.076,1.771,1.085-1.52,3.293-3.8.849-5.361-1.633-1.044-4.342-.967-5.444,2.167-.8,2.29-3.2,2.686-5.41,2.372a4.932,4.932,0,0,1-4.326-4.08,23.642,23.642,0,0,1-.177-10.2c.495-2.591,1.959-4.564,4.8-4.856,2.65-.273,4.85.415,5.678,3.4.786,2.831,3.3,2.214,4.842,1.587,2.215-.9.648-2.737.084-4.148a8.873,8.873,0,0,0-5.71-5.026c-8.934-3.138-15.972,2.982-15.977,14.2m75.726-.176a16.438,16.438,0,0,0,1.181,7.307,10.481,10.481,0,0,0,9.389,6.827c4.122.347,7.848-.753,10.358-4.294,1.046-1.475,3-3.6.922-4.982-1.532-1.017-4.376-1.416-5.48,1.875-.778,2.32-3.022,2.881-5.282,2.607a5.081,5.081,0,0,1-4.542-3.86c-.907-2.9-.7-5.848-.511-8.759.188-2.846,1.026-5.568,4.338-6.382,3.157-.776,5.315.227,6.529,3.456.939,2.5,3.4,2.036,5,1.229,1.705-.855.453-2.57-.109-3.854a9.286,9.286,0,0,0-6.1-5.268c-8.946-2.742-15.683,3.148-15.7,14.1" transform="translate(-0.79 -4.67)" fill="#0b67d1"/>
          </g>
          <g transform="matrix(1, 0, 0, 1, 0, 0)" filter="url(#Trazado_214338)">
            <path id="Trazado_214338-2" data-name="Trazado 214338" d="M587.122,273.577c0,3.766.729,7.725-.2,11.246-.966,3.653.457,3.776,3.04,3.654a8.7,8.7,0,0,1,5.124,1.374,7.746,7.746,0,0,1,2.7,10.3c-3.889,7.526-7.941,14.968-12.052,22.374-1.618,2.913-4.214,4.657-7.676,4.255a7.718,7.718,0,0,1-6.946-5.949c-2.368-7.953-4.951-15.844-7.246-23.817-1.4-4.873,1.547-10.215,6.309-10.152,4.848.064,4.16-2.175,4.06-5.328-1.143-35.876-7.577-70.838-20.767-104.147-25.348-64.009-69.992-109.352-134.6-134.15C396.833,34.781,373.654,30.65,350.237,28c-4.994-.564-5.436-1.436-2.842-5.978a3.692,3.692,0,0,0-.145-4.051c-2.108-3.916-1.271-5.268,3.2-4.986,11.276.711,22.352,2.833,33.4,5.053,40.225,8.081,76.7,24.279,108.446,50.508,43.237,35.723,71.384,80.961,84.939,135.318a340.181,340.181,0,0,1,6.872,34.551c1.652,11.658,3.18,23.344,3.016,35.161" transform="translate(-5.13 -0.19)" fill="#afafaf"/>
          </g>
          <g transform="matrix(1, 0, 0, 1, 0, 0)" filter="url(#Trazado_214339)">
            <path id="Trazado_214339-2" data-name="Trazado 214339" d="M316.5,575.718c-5.41,0-10.824.144-16.226-.064-2.518-.1-3.319.643-3.672,3.163-.919,6.575-5.638,9.149-11.7,6.384-7.285-3.324-14.421-6.976-21.641-10.446a7.471,7.471,0,0,1-4.595-7.461c.135-3.674,2.251-6.026,5.67-7.226,7.241-2.544,14.467-5.135,21.741-7.583,6.758-2.274,10.741.088,11.587,7.3.346,2.952,2.087,2.4,3.716,2.564,10.823,1.121,21.646.263,32.4-.632,29.308-2.435,58.106-7.734,85.385-19.036,67.087-27.794,113.32-75.368,136.1-144.849a313.9,313.9,0,0,0,11.057-43.178c1.062-6.01,1.3-6.11,6.562-3.191a3.272,3.272,0,0,0,3.22-.1c4.481-1.915,5.546-1.19,4.75,3.639a286.9,286.9,0,0,1-6.828,30.1c-10.09,36.3-25.25,70.016-49.985,98.966-40.6,47.521-91.5,76.772-153.284,87a315.88,315.88,0,0,1-54.263,4.643" transform="translate(-3.84 -5.18)" fill="#e6e2e2"/>
          </g>
          <g transform="matrix(1, 0, 0, 1, 0, 0)" filter="url(#Trazado_214340)">
            <path id="Trazado_214340-2" data-name="Trazado 214340" d="M10.136,317.2c0-6.064-.078-12.128.038-18.189.046-2.424-.262-3.668-3.232-4.151-5.729-.936-8.4-5.7-6.139-11.006,3.275-7.669,7.007-15.152,10.766-22.6a7.422,7.422,0,0,1,7.614-4.424,7.723,7.723,0,0,1,6.889,5.48c2.651,7.736,5.414,15.436,7.943,23.211,1.881,5.786-1.028,10.082-7.233,10.456-2.753.166-3.687.946-3.691,3.707-.062,39.227,4.094,77.7,20.06,114.107a241.165,241.165,0,0,0,42.216,65.27,226.95,226.95,0,0,0,62.82,48.981c21.833,11.529,45.358,18.567,69.459,23.687,4.471.95,8.985,1.7,13.453,2.67,3.351.726,4.819,2.409,1.943,5.367-1.539,1.582-1.663,3.043-.464,4.795.876,1.277,1.469,2.622.149,3.994-1.2,1.251-2.7.961-4.156.7a394.667,394.667,0,0,1-40.062-9.436,241.582,241.582,0,0,1-104.5-60.995A248.737,248.737,0,0,1,20.973,396.041c-5.55-17.386-8.43-35.2-9.983-53.337-.729-8.51-.689-17-.854-25.5" transform="translate(0 -3.81)" fill="#afafaf"/>
          </g>
          <g transform="matrix(1, 0, 0, 1, 0, 0)" filter="url(#Trazado_214341)">
            <path id="Trazado_214341-2" data-name="Trazado 214341" d="M295.079,33.677c-4.814-.1-7.68-2.3-8.049-6.942-.193-2.427-1.251-2.976-3.407-3.008a326.061,326.061,0,0,0-55.591,3.654c-17.461,2.746-34.621,6.4-51.038,13.012-19.7,7.93-37.559,19.03-54.341,31.97a306.645,306.645,0,0,0-40.259,36.5c-19.281,21.263-32.232,46.169-41.11,73.374a351.5,351.5,0,0,0-12.2,47.257c-.911,5.1-1.941,5.663-6.126,2.89-1.67-1.107-2.509-.319-3.888.275-3.249,1.4-5.1-.208-4.451-3.717a359.051,359.051,0,0,1,24.223-79.325C50.869,122.2,69.75,100.139,91.38,80.178a280.084,280.084,0,0,1,74.613-49.07,216.3,216.3,0,0,1,54.662-16.356c20.574-3.4,41.217-4.173,61.972-3.764,3.239.064,5.534.072,5.493-4.483-.043-4.91,5.674-7.977,10.565-5.785,7.171,3.214,14.178,6.815,21.114,10.515,2.65,1.413,4.882,3.868,4.373,7.111-.446,2.846-1.637,5.7-4.826,6.908-7.027,2.658-14.036,5.367-21.082,7.974a14.043,14.043,0,0,1-3.186.449" transform="translate(-0.21 0)" fill="#e6e2e2"/>
          </g>
          <path id="Trazado_214342" data-name="Trazado 214342" d="M124.239,192.253c3.157-8.563,6.211-16.806,9.229-25.062.616-1.687,1.488-2.628,3.525-2.612,2.093.018,3.276.623,4.008,2.674,2.63,7.368,5.432,14.675,8.114,22.025.382,1.05,1.859,2.7-.265,3.125-1.637.329-3.74,1.172-5.156-1.25-3.428-5.862-9.418-5.88-12.747-.2-1.057,1.806-1.057,1.806-6.707,1.294M137.332,172.3c-1,2.684-1.858,4.269-2.124,5.947-.193,1.212-2.2,2.737-.137,3.713a5.562,5.562,0,0,0,4.226.082c1.854-.879.364-2.47.015-3.717-.474-1.693-1.09-3.345-1.98-6.025" transform="translate(-1.843 -2.441)" fill="#e33e3b"/>
          <path id="Trazado_214343" data-name="Trazado 214343" d="M152.117,179.649c-.016-11.9,6.8-17.816,15.949-14.787a9.4,9.4,0,0,1,5.966,5.433c.538,1.27,1.777,3.087-.084,3.778-1.518.564-4.047,1.458-4.978-1.265-1.139-3.332-3.546-4.027-6.6-3.471-3.258.594-3.942,3.27-4.142,5.91a44.621,44.621,0,0,0,.207,8.317,4.946,4.946,0,0,0,4.416,4.616c2.439.355,4.8-.29,5.693-2.774,1.186-3.3,3.99-2.686,5.576-1.746,1.874,1.111.189,3.271-.733,4.648-2.9,4.322-7.214,5.42-12.073,4.589-5.177-.886-7.823-4.439-8.888-9.3a22.306,22.306,0,0,1-.31-3.952" transform="translate(-2.256 -2.433)" fill="#e33e3b"/>
          <path id="Trazado_214344" data-name="Trazado 214344" d="M185.086,180.634a43.961,43.961,0,0,1,.023-4.415c.431-4.3.312-7.967-5.767-6.775-1.824.359-2.633-.7-2.654-2.559-.024-2.18,1.347-2.249,2.931-2.244,5.729.019,11.458.007,17.186.01,1.527,0,2.908-.033,2.953,2.215.046,2.372-1.283,2.945-3.09,2.576-5.641-1.149-6,2.034-5.749,6.339.269,4.564-.031,9.159.1,13.735.063,2.248-.546,3.185-2.993,3.179-2.473-.006-3.067-1.016-2.968-3.229.131-2.938.033-5.886.032-8.831" transform="translate(-2.62 -2.442)" fill="#e33e3b"/>
          <path id="Trazado_214345" data-name="Trazado 214345" d="M405.861,414.943a19.325,19.325,0,0,1,.043-3.9c.679-3.224-2.243-7.964,1.765-9.511,7.014-2.706,15.068.639,17.968,6.238,5.438,10.5-.714,21.238-12.268,21.415-7.507.114-7.507.114-7.507-7.39q0-3.424,0-6.848m15.537.828c.026-2.632-.2-5.058-1.612-7.2-1.58-2.395-4.077-2.818-6.526-2.385-2.689.475-1.365,2.931-1.459,4.484-.2,3.424.129,6.882-.115,10.3-.247,3.446,1.56,3.878,4.192,3.334,4.781-.989,5.16-4.845,5.52-8.532" transform="translate(-6.014 -5.941)" fill="#419b62"/>
          <path id="Trazado_214346" data-name="Trazado 214346" d="M454.721,415.6c-.043,10.431-7.053,16.346-15.88,13.4-4.834-1.613-7.792-6.4-7.931-12.832-.164-7.572,2.441-12.559,7.606-14.566a11.587,11.587,0,0,1,13.294,3.411c2.163,2.549,2.932,5.346,2.91,10.587m-5.924-.305c0-.492.018-.983,0-1.474-.223-5.22-2.356-8.168-5.913-8.184-3.486-.015-5.8,3.122-6.021,8.17-.022.491-.01.982-.01,1.474,0,6.13,2.176,9.607,6.048,9.647,3.9.039,5.914-3.227,5.9-9.633" transform="translate(-6.391 -5.944)" fill="#419b62"/>
          <path id="Trazado_214347" data-name="Trazado 214347" d="M476.764,181.009c0-4.063.027-8.126-.011-12.189-.021-2.19-.32-4.167,3.092-4.129,3.28.036,2.689,2.038,2.693,3.915.016,6.709.06,13.42-.042,20.129-.02,1.257.964,3.3-1.235,3.617-1.979.287-4.179.812-5.612-1.664a102.949,102.949,0,0,0-9.9-14.564c0,4.4-.083,8.794.036,13.186.059,2.195-.46,3.239-2.952,3.253-2.444.014-3.029-.9-2.992-3.155.112-6.872-.028-13.748.1-20.62.025-1.362-1.165-3.608,1.457-3.92,2.028-.241,4.153-.579,5.553,1.873,2.812,4.924,5.874,9.7,8.832,14.543l.984-.276" transform="translate(-6.818 -2.443)" fill="#f2910b"/>
          <path id="Trazado_214348" data-name="Trazado 214348" d="M456.568,192.094c-3.721.792-6.186.876-7.191-3.252-.879-3.615-4.35-1.817-6.717-2.081-1.877-.209-4.264-.563-4.719,2.156-.722,4.306-3.576,3.806-7.124,3.25,3.222-8.633,6.423-17.066,9.49-25.548.673-1.861,1.965-1.721,3.45-1.877,2-.21,2.938.714,3.569,2.435,3.02,8.22,6.085,16.423,9.241,24.917m-12.944-20.361c-1.087,3.248-1.717,5.082-2.312,6.93-.377,1.173-1.443,2.7.139,3.415a6.358,6.358,0,0,0,4.287.134c1.753-.6.793-2.13.392-3.309-.66-1.943-1.352-3.874-2.506-7.169" transform="translate(-6.39 -2.443)" fill="#f2910b"/>
          <path id="Trazado_214349" data-name="Trazado 214349" d="M385.015,178.726c0-2.775.33-5.6-.072-8.316-.737-4.979,1.411-6.3,5.943-5.68,2.247.309,4.576-.027,6.851.15,5.248.406,8.973,4.349,8.882,9.231-.088,4.753-3.61,8.1-8.941,8.473a7.86,7.86,0,0,1-1.956.047c-4.349-.812-5.474,1.334-4.844,5.164a7.353,7.353,0,0,1,.007.978c.048,1.976.363,3.764-2.795,3.817-3.413.056-3.119-1.881-3.088-4.07.046-3.265.012-6.531.012-9.8m5.878-5.386c-.168,2.808-.574,5.584,3.691,5.017,2.982-.4,6.218-.318,6.119-4.576-.093-3.984-3-4.374-6.134-4.721-3.717-.411-4.081,1.607-3.677,4.28" transform="translate(-5.707 -2.441)" fill="#f2910b"/>
          <path id="Trazado_214350" data-name="Trazado 214350" d="M410.947,178.594c0-3.272.017-6.543-.009-9.815-.017-2.132-.448-4.146,3.033-4.083,3.638.066,2.78,2.38,2.8,4.325.056,5.07.174,10.148-.04,15.21-.125,2.946.687,4.266,3.808,3.922,1.94-.215,3.925.012,5.887-.035,1.654-.038,2.343.65,2.306,2.339-.031,1.476-.669,2.025-2.068,2.018-4.583-.022-9.166-.039-13.749,0-1.923.018-1.981-1.2-1.974-2.6.018-3.762.006-7.525,0-11.287" transform="translate(-6.094 -2.443)" fill="#f2910b"/>
          <path id="Trazado_214351" data-name="Trazado 214351" d="M164.019,416.4c0,3.6-.059,7.207.025,10.809.045,1.964-.44,3.015-2.712,3.011s-3.389-.69-3.179-3.1c.113-1.3-.154-2.645.047-3.924.657-4.168-1.161-4.94-5.117-5.157-5.142-.283-6.765,1.431-5.96,6.24.186,1.114-.053,2.293.033,3.433.154,2.011-.887,2.527-2.676,2.47-1.717-.054-3.26.06-3.232-2.45.085-7.7.067-15.4.014-23.092-.018-2.563,1.712-2.234,3.345-2.336,1.919-.119,2.671.716,2.553,2.59-.083,1.3.135,2.638-.037,3.926-.464,3.469.521,4.955,4.442,4.768,7.87-.376,6.4.4,6.652-6.562.065-1.819-1.228-4.594,2.442-4.718,2.024-.069,3.507.127,3.4,2.789-.153,3.76-.039,7.532-.038,11.3" transform="translate(-2.095 -5.966)" fill="#006bb0"/>
          <path id="Trazado_214352" data-name="Trazado 214352" d="M224.016,414.289c3.7-4.414,6.557-8.342,10.018-11.641,1.016-.968,3.738-.149,6.541-.149-2.773,3.461-5.041,6.557-7.6,9.393-1.873,2.076-1.795,3.646-.155,5.88,2.773,3.775,5.146,7.845,7.672,11.771-5.84,2.462-7.855-1.467-10.228-5.082-1.058-1.612-1.369-4.83-3.94-4.159-2.5.653-2.468,3.5-2.317,5.869.142,2.225.251,4.167-3.114,4.075-3.212-.088-2.7-2.083-2.7-3.982-.014-6.7,0-13.405-.009-20.107,0-1.976-.332-3.838,2.8-3.917,3.457-.087,3.058,2.011,3.041,4.148-.019,2.366,0,4.734,0,7.9" transform="translate(-3.236 -5.965)" fill="#006bb0"/>
          <path id="Trazado_214353" data-name="Trazado 214353" d="M169.32,416.026c.475-4.364-1.795-9.977.949-12.784s8.385-.618,12.743-.926c.975-.069,1.964.031,2.945-.013,1.617-.073,2.431.576,2.382,2.281-.044,1.561-.62,2.468-2.313,2.451-2.455-.023-4.916.116-7.364-.015-2.492-.133-3.443.755-3.474,3.358-.032,2.848,1.389,3.237,3.661,3.129,1.96-.094,3.928-.041,5.889.022,1.512.048,1.809,1.116,1.814,2.38.006,1.317-.419,2.233-1.93,2.234-1.8,0-3.612.152-5.4-.011-2.8-.256-4.1.427-4.079,3.678.02,3.323,1.533,3.807,4.219,3.636,2.118-.135,4.253,0,6.38-.027,1.758-.024,2.766.613,2.775,2.549.013,2.209-1.45,2.2-2.992,2.192-.654,0-1.312.039-1.963,0-4.529-.3-10.385,1.945-13.247-.894s-.5-8.715-1-13.238" transform="translate(-2.505 -5.959)" fill="#006bb0"/>
          <path id="Trazado_214354" data-name="Trazado 214354" d="M114.3,416.714c.006-11.222,7.044-17.341,15.976-14.2a8.874,8.874,0,0,1,5.712,5.026c.563,1.411,2.129,3.249-.085,4.147-1.546.628-4.057,1.245-4.841-1.587-.83-2.983-3.029-3.67-5.679-3.4-2.841.292-4.306,2.265-4.8,4.855a23.662,23.662,0,0,0,.177,10.205,4.932,4.932,0,0,0,4.327,4.079c2.2.313,4.6-.081,5.409-2.371,1.1-3.135,3.811-3.213,5.445-2.167,2.443,1.562.236,3.841-.849,5.361-4.469,6.261-15.449,5.186-19.077-1.771a14.915,14.915,0,0,1-1.715-8.176" transform="translate(-1.694 -5.957)" fill="#006bb0"/>
          <path id="Trazado_214355" data-name="Trazado 214355" d="M191.161,416.539c.013-10.95,6.749-16.839,15.7-14.1a9.285,9.285,0,0,1,6.1,5.268c.563,1.284,1.815,3,.109,3.854-1.607.807-4.065,1.268-5-1.229-1.214-3.229-3.371-4.232-6.529-3.456-3.312.814-4.15,3.536-4.338,6.382-.193,2.911-.4,5.857.511,8.759a5.081,5.081,0,0,0,4.542,3.86c2.261.274,4.5-.287,5.282-2.607,1.1-3.29,3.949-2.891,5.48-1.875,2.075,1.378.124,3.507-.922,4.982-2.51,3.542-6.236,4.641-10.358,4.294a10.481,10.481,0,0,1-9.389-6.827,16.438,16.438,0,0,1-1.181-7.307" transform="translate(-2.835 -5.959)" fill="#006bb0"/>
          <path id="Trazado_214356" data-name="Trazado 214356" d="M137.481,172.416c.891,2.681,1.506,4.333,1.98,6.025.349,1.247,1.839,2.838-.015,3.717a5.562,5.562,0,0,1-4.226-.082c-2.064-.976-.056-2.5.137-3.713.266-1.679,1.125-3.264,2.124-5.947" transform="translate(-1.992 -2.557)" fill="#e33e3b"/>
          <path id="Trazado_214357" data-name="Trazado 214357" d="M421.489,415.852c-.36,3.686-.739,7.542-5.52,8.532-2.631.544-4.439.112-4.192-3.334.244-3.42-.09-6.877.115-10.3.094-1.554-1.229-4.01,1.459-4.484,2.449-.432,4.946-.01,6.526,2.385,1.417,2.146,1.637,4.571,1.612,7.2" transform="translate(-6.105 -6.023)" fill="#419b62"/>
          <path id="Trazado_214358" data-name="Trazado 214358" d="M448.887,415.366c.015,6.406-2,9.672-5.9,9.633-3.872-.039-6.052-3.517-6.048-9.647,0-.492-.012-.983.01-1.474.221-5.048,2.535-8.185,6.021-8.17,3.557.016,5.69,2.963,5.913,8.184.021.491,0,.982,0,1.474" transform="translate(-6.48 -6.017)" fill="#419b62"/>
          <path id="Trazado_214359" data-name="Trazado 214359" d="M443.772,171.838c1.155,3.3,1.846,5.226,2.506,7.169.4,1.179,1.361,2.714-.392,3.309a6.358,6.358,0,0,1-4.287-.134c-1.582-.716-.516-2.241-.139-3.415.6-1.847,1.226-3.682,2.312-6.93" transform="translate(-6.537 -2.549)" fill="#f4991c"/>
          <path id="Trazado_214360" data-name="Trazado 214360" d="M390.982,173.407c-.4-2.673-.04-4.69,3.677-4.28,3.132.347,6.041.737,6.134,4.721.1,4.258-3.137,4.18-6.119,4.576-4.266.566-3.86-2.21-3.691-5.017" transform="translate(-5.797 -2.507)" fill="#f4991c"/>
          <path id="Trazado_214361" data-name="Trazado 214361" d="M449.174,150.359v81.454H585.248l-26.927-65.765Z" transform="translate(-84.953 -28.437)" fill="#eeac3a"/>
          <path id="Trazado_214362" data-name="Trazado 214362" d="M449.174,150.359v81.454H585.248l-26.927-65.765Z" transform="translate(-86.755 205.241)" fill="#43a99b"/>
          <path id="Trazado_214363" data-name="Trazado 214363" d="M449.174,150.359v81.454H598.811L569.2,166.049Z" transform="translate(-339.545 205.241)" fill="#0b67d1"/>
          <path id="Trazado_214364" data-name="Trazado 214364" d="M449.174,150.359v81.454H598.811L569.2,166.049Z" transform="translate(-343.98 -19.808)" fill="#7f4fc7"/>
        </g>
      </g>
      <text id="Actuar" transform="translate(581.768 10805.559)" fill="#fff" font-size="26" font-family="SegoeUI-Bold, Segoe UI" font-weight="700"><tspan x="-40.473" y="0">Actuar</tspan></text>
      <text id="Verificar" transform="translate(581.064 11023.248)" fill="#fff" font-size="26" font-family="SegoeUI-Bold, Segoe UI" font-weight="700"><tspan x="-50.864" y="0">Verificar</tspan></text>
      <text id="Planear" transform="translate(840.569 10805.559)" fill="#fff" font-size="26" font-family="SegoeUI-Bold, Segoe UI" font-weight="700"><tspan x="-45.741" y="0">Planear</tspan></text>
      <text id="Hacer" transform="translate(842.712 11024.248)" fill="#fff" font-size="27" font-family="SegoeUI-Bold, Segoe UI" font-weight="700"><tspan x="-36.762" y="0">Hacer</tspan></text>
      <g id="Grupo_173638" data-name="Grupo 173638" transform="translate(646.464 10854.09)">
        <g id="Grupo_166929" data-name="Grupo 166929" transform="translate(50.525)">
          <g id="Grupo_166928" data-name="Grupo 166928" clip-path="url(#clip-path-2)">
            <path id="Trazado_211155" data-name="Trazado 211155" d="M2.072,39.154C.476,38.644-.006,37.5,0,35.9.04,26.57.025,17.243.009,7.916A1.969,1.969,0,0,1,.643,6.387Q3.563,3.514,6.435.594A1.822,1.822,0,0,1,7.84,0c6.224.017,12.448.008,18.671.011A2.478,2.478,0,0,1,29.306,2.78c.006,1.412-.012,2.823-.023,4.235a.919.919,0,0,1-.079.232h-1.43c0-1.188,0-2.338,0-3.489,0-.324.006-.648,0-.972-.015-.929-.276-1.2-1.2-1.205-2.73-.007-5.46,0-8.19,0-3.147,0-6.293.02-9.44-.015-.683-.008-.878.2-.841.861.054.946.021,1.9.011,2.846C8.09,7.177,7.2,8.08,5.3,8.1c-.995.012-1.991.034-2.984-.008-.581-.024-.742.173-.741.746Q1.6,19.325,1.589,29.81c0,2.152,0,4.3,0,6.457,0,1.029.249,1.286,1.264,1.286q11.834.006,23.669,0c1,0,1.248-.261,1.254-1.3,0-.9,0-1.792,0-2.729h1.586c-.078,1.365-.061,2.743-.267,4.088-.132.866-1.011,1.194-1.748,1.537ZM6.523,2.978,3.109,6.506A25.575,25.575,0,0,0,5.8,6.469a1.09,1.09,0,0,0,.694-.775,26.87,26.87,0,0,0,.033-2.716" transform="translate(0 0)" fill="#12263f"/>
            <path id="Trazado_211156" data-name="Trazado 211156" d="M140.144,78.662a1.29,1.29,0,0,1-1.253.559,10.926,10.926,0,0,0-1.456.014.652.652,0,0,0-.439.237c-.046.065.066.3.163.4.393.424.808.828,1.214,1.24a.837.837,0,0,1-.009,1.332c-1.064,1.064-2.119,2.136-3.194,3.188-.512.5-.845.486-1.375-.013-.371-.349-.71-.731-1.092-1.067a2.238,2.238,0,0,0-.574-.268,2.245,2.245,0,0,0-.178.557c-.027.531-.017,1.064-.018,1.6a.838.838,0,0,1-.941.944c-1.5.006-3.008,0-4.512.007a.883.883,0,0,1-.986-.988c-.012-.509.013-1.02-.019-1.527a2.389,2.389,0,0,0-.209-.606,2.521,2.521,0,0,0-.513.287c-.376.343-.731.709-1.086,1.074a.856.856,0,0,1-1.384.024c-1.064-1.063-2.136-2.118-3.187-3.195-.483-.495-.466-.876.01-1.384.284-.3.608-.573.874-.892a5.688,5.688,0,0,0,.468-.771,6.9,6.9,0,0,0-.9-.187c-.414-.033-.832-.013-1.249-.009a.823.823,0,0,1-.952-.923q0-2.291.009-4.583a.809.809,0,0,1,.89-.914c.6-.012,1.2,0,1.8-.023a.34.34,0,0,0,.254-.618c-.392-.425-.818-.818-1.216-1.238a.844.844,0,0,1,0-1.382q1.555-1.587,3.14-3.144c.532-.522.893-.513,1.43,0,.4.384.78.791,1.186,1.17.1.1.34.213.4.167a.651.651,0,0,0,.225-.441c.027-.554.006-1.111.016-1.666.011-.632.294-1,.973-.992,1.5.007,3.008-.009,4.512,0,.7.006.935.266.953.985.012.509-.017,1.02.014,1.527a2.291,2.291,0,0,0,.213.6,2.637,2.637,0,0,0,.568-.3c.378-.339.726-.713,1.086-1.073a.84.84,0,0,1,1.334-.025q1.625,1.615,3.238,3.242a.835.835,0,0,1-.018,1.332c-.41.408-.826.811-1.219,1.235a.337.337,0,0,0,.242.619,14.112,14.112,0,0,0,1.526.019,1.223,1.223,0,0,1,1.232.593ZM134.37,67.905c-.415.471-.79.91-1.181,1.335a.939.939,0,0,1-1.134.23c-1.7-.652-1.7-.644-1.709-2.49,0-.093-.007-.186,0-.277.033-.361-.135-.5-.488-.49-.509.011-1.018-.013-1.527-.01-1.441.008-1.233-.134-1.242,1.27-.008,1.286,0,1.286-1.189,1.767a3.76,3.76,0,0,0-.382.165,1,1,0,0,1-1.359-.275c-.356-.419-.708-.842-1.026-1.221l-2.4,2.382c.144.153.309.339.484.515,1.247,1.253,1.237,1.248.578,2.841a1.036,1.036,0,0,1-1.12.728c-.369-.02-.742.015-1.11-.013-.473-.036-.678.134-.65.629a13.451,13.451,0,0,1,.009,1.8c-.052.657.162.974.844.856a1.828,1.828,0,0,1,2.358,1.5c.175.622.182,1.073-.316,1.48-.408.334-.83.652-1.409,1.1.624.534,1.038.838,1.389,1.2.366.379.671.817,1.1,1.353.554-.614.926-1.022,1.294-1.434a1.023,1.023,0,0,1,1.305-.269c1.574.676,1.58.662,1.6,2.412,0,.093.009.186,0,.278-.033.4.175.526.544.519.6-.012,1.206-.039,1.8.008.68.053,1.025-.167.906-.886a1.757,1.757,0,0,1,1.506-2.272.529.529,0,0,0,.126-.058.958.958,0,0,1,1.254.23c.389.422.761.86,1.046,1.183l2.414-2.4c-.353-.327-.782-.712-1.2-1.112a.962.962,0,0,1-.209-1.2c.767-1.64.337-1.647,2.393-1.627.046,0,.093-.005.139,0,.493.051.727-.133.695-.664-.034-.553-.005-1.11-.006-1.666,0-.951-.011-1.033-.937-.933-1.216.132-1.959-.274-2.206-1.5a.508.508,0,0,0-.057-.126.938.938,0,0,1,.225-1.25c.433-.38.874-.75,1.258-1.079l-2.418-2.531" transform="translate(-100.993 -55.622)" fill="#12263f"/>
            <path id="Trazado_211157" data-name="Trazado 211157" d="M29.383,85.317H34.95a4.406,4.406,0,0,1,.083.467c.061,1.1.059,1.1-1.058,1.1H29.323c0,.771-.025,1.461.021,2.146.009.135.276.339.444.362.433.059.878.016,1.316.046a2.366,2.366,0,0,1,2.283,2.273,13.625,13.625,0,0,1-.011,1.874A2.337,2.337,0,0,1,31,95.828q-2.464.045-4.929,0a2.311,2.311,0,0,1-2.36-2.319c-.024-.555-.022-1.111,0-1.666a2.343,2.343,0,0,1,2.415-2.415c.524-.022,1.05,0,1.633,0,0-1.877,0-3.632,0-5.388,0-1.249,0-1.249-1.246-1.254-1.92-.008-2.816-.9-2.811-2.8,0-.486-.012-.974.025-1.458a2.233,2.233,0,0,1,2.1-2.125c1.8-.061,3.61-.061,5.412,0a2.273,2.273,0,0,1,2.142,2.173,13.759,13.759,0,0,1,0,1.943,2.375,2.375,0,0,1-2.369,2.263c-.542.029-1.082.09-1.623.137Zm-.868-4.161v-.007c.416,0,.832,0,1.248,0,2.159.012,1.991-.007,2-2.1,0-.8-.269-1.078-1.087-1.088-1.109-.014-2.219.011-3.328,0-2.083-.021-2.071-.005-2.053,2.233,0,.023,0,.046,0,.069a.846.846,0,0,0,.928.9c.763,0,1.525,0,2.288,0m.059,9.859v.01c-.416,0-.832.016-1.247,0-2.1-.092-2.084.123-2.019,2.234a.875.875,0,0,0,1,.963c1.132-.011,2.264,0,3.4,0,2.081,0,2.172-.112,2.071-2.211-.031-.651-.335-.986-.984-.992-.739-.007-1.478,0-2.218,0" transform="translate(-20.392 -65.716)" fill="#12263f"/>
            <path id="Trazado_211158" data-name="Trazado 211158" d="M161.143,27.45c0-.469.011-.9,0-1.335-.023-.747-.308-1.028-1.063-1.052-.412-.013-.824,0-1.3,0V23.5a15.257,15.257,0,0,1,2.128.12,2.13,2.13,0,0,1,1.668,1.585,3.851,3.851,0,0,1,.137,1.021c.03,1.439.008,1.451-1.568,1.22" transform="translate(-136.65 -20.228)" fill="#12263f"/>
            <path id="Trazado_211159" data-name="Trazado 211159" d="M27.48,232.678c-3,.491-4.421-.936-3.847-3.868h1.437c0,.429-.007.837,0,1.244.018.854.32,1.152,1.187,1.17.39.008.779,0,1.221,0Z" transform="translate(-20.232 -196.923)" fill="#12263f"/>
            <path id="Trazado_211160" data-name="Trazado 211160" d="M136.679,23.96c.018.263.037.443.042.624.006.25,0,.5,0,.811h-1.508V23.96Z" transform="translate(-116.37 -20.621)" fill="#12263f"/>
            <path id="Trazado_211161" data-name="Trazado 211161" d="M64.992,247.884v-1.426h1.381c.345,1.447.179,1.628-1.381,1.426" transform="translate(-55.935 -212.111)" fill="#12263f"/>
            <path id="Trazado_211162" data-name="Trazado 211162" d="M173.8,125.253a4.066,4.066,0,1,1,4.061-3.918,4.082,4.082,0,0,1-4.061,3.918m-2.487-4.074a2.48,2.48,0,1,0,2.463-2.474,2.5,2.5,0,0,0-2.463,2.474" transform="translate(-146.053 -100.8)" fill="#12263f"/>
          </g>
        </g>
        <text id="MEJORA" transform="translate(64.969 59.066)" fill="#12263f" font-size="14" font-family="SegoeUI-Bold, Segoe UI" font-weight="700"><tspan x="-28.509" y="0">MEJORA</tspan></text>
        <text id="CONTINUA" transform="translate(64 82.144)" fill="#12263f" font-size="26" font-family="SegoeUI-Bold, Segoe UI" font-weight="700"><tspan x="-68.345" y="0">CONTINUA</tspan></text>
      </g>
    </g>
  </g>
</svg>
