<svg xmlns="http://www.w3.org/2000/svg" xmlns:xlink="http://www.w3.org/1999/xlink" width="92.687" height="92.653" viewBox="0 0 92.687 92.653">
  <defs>
    <clipPath id="clip-path">
      <rect id="Rectángulo_54067" data-name="Rectángulo 54067" width="92.686" height="92.653" fill="none"/>
    </clipPath>
    <linearGradient id="linear-gradient" x1="0.5" x2="0.5" y2="1" gradientUnits="objectBoundingBox">
      <stop offset="0" stop-color="#f5f5f5"/>
      <stop offset="0.25" stop-color="#f5f5f5"/>
      <stop offset="1" stop-color="#a7b3cf"/>
    </linearGradient>
    <linearGradient id="linear-gradient-3" x1="0.5" x2="0.5" y2="1" gradientUnits="objectBoundingBox">
      <stop offset="0" stop-color="#116eb9"/>
      <stop offset="1" stop-color="#1894f6"/>
    </linearGradient>
  </defs>
  <g id="Grupo_175148" data-name="Grupo 175148" transform="translate(2357.853 9788.995)">
    <g id="Grupo_174746" data-name="Grupo 174746" transform="translate(-2357.853 -9788.995)">
      <g id="Grupo_174745" data-name="Grupo 174745" clip-path="url(#clip-path)">
        <path id="Trazado_215074" data-name="Trazado 215074" d="M0,23.613V14.77c1.105,0,2.211-.012,3.316.008A2.072,2.072,0,0,0,5.5,13.58a2.026,2.026,0,0,0-.686-2.463c-.8-.742-1.587-1.5-2.264-2.14L8.894,2.619c.735.743,1.535,1.545,2.327,2.356a1.963,1.963,0,0,0,2.33.566,1.938,1.938,0,0,0,1.2-2.07c-.025-1.124-.006-2.249-.006-3.437h1.111Q51.867.034,87.881,0a3.326,3.326,0,0,1,3.533,3.579c-.088,9.149-.037,18.3-.037,27.448q0,14.553.01,29.106a3.177,3.177,0,0,1-.951,2.488,3.224,3.224,0,0,1-2.37.792q-23.3-.017-46.607-.025c-.741,0-1,.2-1.236.931-.721,2.206-1.589,4.363-2.418,6.533-.169.443-.414.858-.644,1.327H72.292V66.645L92.687,79.622,72.206,92.653v-5.6H36.8v4.307H8.847V90.309c0-5.557.013-11.114-.021-16.672a2.782,2.782,0,0,0-.49-1.5A27.444,27.444,0,0,1,3.011,57.1c-.194-5.3-.066-10.622-.05-15.933A2.872,2.872,0,0,1,5.8,38.357a5.845,5.845,0,0,1,5.984,5.807c.018,2.825,0,5.649.006,8.474,0,1.207.588,1.942,1.506,1.918.887-.023,1.444-.734,1.445-1.888,0-5.926,0-11.851.009-17.777a2,2,0,0,0-3.555-1.459c-.783.818-1.576,1.626-2.327,2.4L2.521,29.493c.808-.79,1.664-1.616,2.509-2.454A1.9,1.9,0,0,0,5.5,24.77a1.857,1.857,0,0,0-1.906-1.163c-1.2.014-2.395.005-3.592.006m41.266,25.2A31.932,31.932,0,0,1,45.813,45.7a32.76,32.76,0,0,1,5.525-1.616,2.826,2.826,0,0,0,2.145-1.695,15.571,15.571,0,0,0,.675-2.756c.04-.239-.237-.567-.43-.8a22.822,22.822,0,0,1-2.092-2.543,1.65,1.65,0,0,0-1.665-.9,5.8,5.8,0,0,1-5.208-8.233,3.357,3.357,0,0,0,.143-2.741A13.981,13.981,0,0,1,55.384,6.3a35.7,35.7,0,0,1,7.144-.354,14.026,14.026,0,0,1,13.079,8.8A14.258,14.258,0,0,1,75.8,25a1.866,1.866,0,0,0-.044,1.355A5.917,5.917,0,0,1,70.461,35.4a1.038,1.038,0,0,0-1.024.548c-.722,1.018-1.568,1.947-2.355,2.92-.162.2-.395.425-.408.65a4.125,4.125,0,0,0,3.807,4.738C78.6,45.459,83,51.952,82.54,58.708c-.039.567-.005,1.14-.005,1.681h5.85V3.043H29.994l5.881,5.8c-.854.823-1.661,1.618-2.489,2.392a1.87,1.87,0,0,0-.585,2.307,1.977,1.977,0,0,0,2.056,1.234c1.126-.029,2.253-.007,3.4-.007V23.61c-1.2,0-2.328.017-3.46-.005a1.92,1.92,0,0,0-1.981,1.2,1.893,1.893,0,0,0,.549,2.32c.838.8,1.643,1.625,2.37,2.348l-6.263,6.262c.032.017-.032,0-.073-.042q-1.08-1.069-2.154-2.144c-1.01-1.006-1.686-1.156-2.678-.592-.9.513-1.17,1.333-.85,2.608,2.731-.6,4.567.517,5.651,3A4.593,4.593,0,0,1,35.247,41.5a2.252,2.252,0,0,0,.327-.016,4.4,4.4,0,0,1,5.692,4.544c0,.972,0,1.944,0,2.786m-6.52,21.48a23.836,23.836,0,0,0,3.168-9.626c.329-4.921.312-9.866.375-14.8a1.935,1.935,0,0,0-.739-1.361c-.984-.707-2.162.121-2.173,1.494-.02,2.517-.006,5.034-.006,7.552v.968H32.429V53.477c0-3.5.009-7-.007-10.5a1.528,1.528,0,0,0-1.473-1.67,1.555,1.555,0,0,0-1.473,1.675c-.009.215,0,.43,0,.645q0,4.973,0,9.946v.93H26.534V53.449q0-6.4,0-12.8c0-.246.012-.492-.006-.737a1.472,1.472,0,1,0-2.941-.034c-.02.244-.007.491-.007.737q0,6.447,0,12.893v.987H20.638V41.174q0-6.4,0-12.8c0-1.08-.575-1.776-1.434-1.8-.89-.029-1.495.695-1.516,1.816,0,.215,0,.43,0,.645q0,11.834,0,23.669a6.009,6.009,0,0,1-.1,1.369A4.417,4.417,0,0,1,8.85,53.055c-.011-2.855.009-5.71-.007-8.565a2.9,2.9,0,0,0-2.908-3.128c-.014.181-.04.362-.04.544,0,4.666-.048,9.333.021,14A24.447,24.447,0,0,0,8.832,67.19c.584,1.094,1.265,2.137,1.9,3.2a30.507,30.507,0,0,1,24.012-.1m2.142,13.79H75.195v3.142l11.942-7.6-12-7.633v3.236H36.888Zm-25.1,4.325H33.9c0-4.966.008-9.869-.025-14.772,0-.224-.327-.553-.575-.654a26.857,26.857,0,0,0-20.921-.021.839.839,0,0,0-.6.952c.03,1.564.011,3.128.011,4.693v9.8M72.929,23.911a3.492,3.492,0,0,0,.222-.476A11.059,11.059,0,0,0,65.138,9.277a32.384,32.384,0,0,0-6.675-.387A11.189,11.189,0,0,0,47.42,17.784a10.45,10.45,0,0,0,.484,6.169l2.166-.43a6.024,6.024,0,0,1,4.219-5.552,9.044,9.044,0,0,1,1.026-.4c.589-.139.73-.47.713-1.053-.046-1.55-.016-3.1-.016-4.648h2.94c0,1.42-.013,2.793,0,4.166a4.477,4.477,0,0,0,4.656,4.628c.8.01,1.6.022,2.393,0A4.462,4.462,0,0,1,70.3,23.131a1.119,1.119,0,0,0,.658.469c.62.145,1.261.2,1.976.311M6.769,8.853c1.748,1.622,2.451,3.588,1.471,5.875-.97,2.264-2.882,3.117-5.252,3.02v2.913c2.442-.156,4.32.7,5.269,3.015A4.921,4.921,0,0,1,6.827,29.49l1.99,2.1a5.116,5.116,0,0,1,5.845-1.568,1.656,1.656,0,0,0-.93-2.12A10.166,10.166,0,0,1,9.084,16.882a10.32,10.32,0,0,1,19.855-.974,10.164,10.164,0,0,1-4.424,12.044,1.657,1.657,0,0,0-.858,2.11,4.98,4.98,0,0,1,5.854,1.529l2.13-1.992c-1.867-1.625-2.527-3.584-1.584-5.88.957-2.33,2.856-3.219,5.275-3.075V17.807c-5.805-.822-7.316-4.464-3.868-8.93L29.5,6.8a4.812,4.812,0,0,1-5.877,1.466,4.84,4.84,0,0,1-3.006-5.223H17.677c.173,2.421-.686,4.244-2.9,5.2-2.319,1-4.31.32-6.014-1.5L6.769,8.853M57.052,20.092c-.723.285-1.382.532-2.031.8a2.975,2.975,0,0,0-1.959,2.94c-.016,2.394-.041,4.789.006,7.182a7.39,7.39,0,0,0,6.973,7.321,7.2,7.2,0,0,0,7.591-6.285,51.8,51.8,0,0,0,.131-7.073,1.39,1.39,0,0,0-1.478-1.356,15.887,15.887,0,0,0-1.933-.005,7.647,7.647,0,0,1-7.3-3.524M22.844,25.474a7.2,7.2,0,0,0,3.388-8.228,7.33,7.33,0,0,0-14.273.517c-.568,3.227.972,6.565,3.538,7.672,2.483-2.485,4.915-2.486,7.347.038m29.9,34.949-2.36-12.985c-5.612-.024-10.1,6.478-9.01,12.985ZM68.12,60.4H79.532c.651-7.055-3.312-12.776-9.05-12.98L68.12,60.4M56.2,43.889c1.317.53,2.615,1.059,3.921,1.57a.8.8,0,0,0,.529.037c1.358-.531,2.707-1.085,4.014-1.614l-.855-3.138a10.622,10.622,0,0,1-6.759.014l-.849,3.13m6.565,16.53c-.622-1.888-1.215-3.71-1.837-5.521a.621.621,0,0,0-.469-.311.606.606,0,0,0-.5.262c-.636,1.833-1.239,3.678-1.868,5.571ZM50.1,26.6a2.967,2.967,0,0,0-2.929,3.115A2.812,2.812,0,0,0,50.1,32.345Zm20.664,5.792a2.9,2.9,0,0,0,2.926-2.818,2.935,2.935,0,0,0-2.926-2.953ZM23.631,3a2.1,2.1,0,0,0,.79,2.34,1.676,1.676,0,0,0,1.977.171C27.31,4.807,28.1,3.947,29.1,3ZM57.5,47.636c-1.157-.467-2.185-.934-3.254-1.272-.241-.076-.912.335-.9.463.14,1.166.388,2.318.631,3.615L57.5,47.636m9.4,2.818c.221-1.242.417-2.291.591-3.344.107-.644-.266-.992-.883-.768-1.056.384-2.089.834-3.23,1.3L66.9,50.454M55.413,58.425l.18.016c.43-1.271.8-2.567,1.308-3.8a1.4,1.4,0,0,0-.751-2.092,12.882,12.882,0,0,0-1.058.843c-.2.19-.458.495-.427.71.21,1.448.49,2.886.747,4.328m9.006-5.886c-.2.394-.727.938-.63,1.326.39,1.56.972,3.072,1.484,4.6.33-.958.435-1.936.71-2.863.413-1.394.2-2.451-1.564-3.064M58.626,50.6c1.353,1.505,2.446,1.481,3.569-.031-2.189-1.784-1.331-1.79-3.569.031" transform="translate(0 0)" fill="#1a1818"/>
        <path id="Trazado_215076" data-name="Trazado 215076" d="M199.821,402.042v-8.859h38.245v-3.236l12,7.633-11.942,7.6v-3.142Zm11.712-5.885H208.68v2.837h2.853Zm8.827.016h-2.821v2.838h2.821Zm6,2.83H229.2V396.18h-2.838Z" transform="translate(-162.933 -317.962)" fill="#d8dbf7"/>
        <path id="Trazado_215077" data-name="Trazado 215077" d="M63.8,401.344v-9.8c0-1.564.019-3.129-.011-4.693a.839.839,0,0,1,.6-.952,26.858,26.858,0,0,1,20.921.021c.248.1.574.429.575.654.033,4.9.025,9.807.025,14.772Z" transform="translate(-52.017 -312.939)" fill="#43a99b"/>
        <path id="Trazado_215078" data-name="Trazado 215078" d="M19.969,22.306,21.959,20.2c1.7,1.821,3.7,2.5,6.014,1.5,2.218-.958,3.077-2.781,2.9-5.2h2.939A5.014,5.014,0,0,0,42.7,20.255l1.965,2.075c-3.448,4.467-1.937,8.108,3.868,8.93V34.1c-2.419-.144-4.317.745-5.275,3.075-.943,2.3-.283,4.255,1.584,5.88l-2.13,1.992a4.98,4.98,0,0,0-5.854-1.529,1.657,1.657,0,0,1,.858-2.11A10.164,10.164,0,0,0,42.139,29.36a10.32,10.32,0,0,0-19.856.974A10.166,10.166,0,0,0,26.93,41.358a1.655,1.655,0,0,1,.93,2.12,5.116,5.116,0,0,0-5.844,1.568l-1.99-2.1a4.921,4.921,0,0,0,1.431-5.814c-.95-2.315-2.827-3.171-5.269-3.015V31.2c2.37.1,4.281-.756,5.252-3.02.98-2.287.277-4.253-1.471-5.875" transform="translate(-13.2 -13.452)" fill="#eeac3a"/>
        <path id="Trazado_215079" data-name="Trazado 215079" d="M234.765,269.96H223.4c-1.087-6.507,3.4-13.009,9.01-12.985l2.36,12.985" transform="translate(-182.022 -209.536)" fill="url(#linear-gradient)"/>
        <path id="Trazado_215080" data-name="Trazado 215080" d="M369.006,269.864l2.362-12.98c5.738.2,9.7,5.925,9.05,12.98Z" transform="translate(-300.886 -209.462)" fill="url(#linear-gradient)"/>
        <path id="Trazado_215081" data-name="Trazado 215081" d="M304.425,223.862l.849-3.13a10.622,10.622,0,0,0,6.759-.014l.855,3.138c-1.307.529-2.656,1.083-4.014,1.614a.8.8,0,0,1-.529-.037c-1.305-.512-2.6-1.04-3.921-1.57" transform="translate(-248.227 -179.973)" fill="#fff"/>
        <path id="Trazado_215082" data-name="Trazado 215082" d="M319.361,301.528h-4.67c.628-1.893,1.232-3.737,1.868-5.571a.606.606,0,0,1,.5-.262.621.621,0,0,1,.469.311c.622,1.811,1.214,3.633,1.837,5.521" transform="translate(-256.598 -241.109)" fill="url(#linear-gradient-3)"/>
        <path id="Trazado_215083" data-name="Trazado 215083" d="M293.124,252.388l-3.519,2.807c-.243-1.3-.491-2.45-.631-3.615-.016-.128.656-.539.9-.463,1.068.338,2.1.805,3.254,1.272" transform="translate(-235.627 -204.752)" fill="#fff"/>
        <path id="Trazado_215084" data-name="Trazado 215084" d="M346.818,254.846l-3.522-2.815c1.141-.462,2.173-.912,3.23-1.3.617-.224.99.123.884.768-.175,1.053-.37,2.1-.591,3.344" transform="translate(-279.922 -204.392)" fill="#fff"/>
        <path id="Trazado_215085" data-name="Trazado 215085" d="M296.86,290.516c-.257-1.441-.538-2.879-.747-4.328-.031-.215.231-.52.427-.71a12.879,12.879,0,0,1,1.057-.843,1.4,1.4,0,0,1,.751,2.092c-.511,1.237-.879,2.533-1.308,3.8l-.181-.016" transform="translate(-241.447 -232.091)" fill="#fff"/>
        <path id="Trazado_215086" data-name="Trazado 215086" d="M346.124,284.608c1.765.614,1.976,1.67,1.564,3.064-.275.927-.379,1.9-.71,2.863-.511-1.53-1.094-3.041-1.484-4.6-.1-.388.43-.932.63-1.326" transform="translate(-281.705 -232.068)" fill="#fff"/>
        <path id="Trazado_215087" data-name="Trazado 215087" d="M317.578,268.077c2.238-1.821,1.38-1.815,3.569-.031-1.123,1.512-2.216,1.536-3.569.031" transform="translate(-258.952 -217.475)" fill="url(#linear-gradient-3)"/>
        <rect id="Rectángulo_54064" data-name="Rectángulo 54064" width="2.853" height="2.837" transform="translate(45.746 78.195)" fill="#1a1818"/>
        <rect id="Rectángulo_54065" data-name="Rectángulo 54065" width="2.821" height="2.838" transform="translate(54.605 78.21)" fill="#1a1818"/>
        <rect id="Rectángulo_54066" data-name="Rectángulo 54066" width="2.838" height="2.821" transform="translate(63.424 78.219)" fill="#1a1818"/>
      </g>
    </g>
  </g>
</svg>
