<svg xmlns="http://www.w3.org/2000/svg" xmlns:xlink="http://www.w3.org/1999/xlink" width="101.917" height="101.954" viewBox="0 0 101.917 101.954">
  <defs>
    <clipPath id="clip-path">
      <rect id="Rectángulo_54063" data-name="Rectángulo 54063" width="101.917" height="101.954" fill="none"/>
    </clipPath>
    <linearGradient id="linear-gradient" x1="0.5" x2="0.5" y2="1" gradientUnits="objectBoundingBox">
      <stop offset="0" stop-color="#f5f5f5"/>
      <stop offset="0.25" stop-color="#f5f5f5"/>
      <stop offset="1" stop-color="#a7b3cf"/>
    </linearGradient>
    <linearGradient id="linear-gradient-2" x1="0.5" x2="0.5" y2="1" gradientUnits="objectBoundingBox">
      <stop offset="0" stop-color="#7e53c5"/>
      <stop offset="1" stop-color="#080383"/>
    </linearGradient>
  </defs>
  <g id="Grupo_175146" data-name="Grupo 175146" transform="translate(2367.083 10022.727)">
    <g id="Grupo_174744" data-name="Grupo 174744" transform="translate(-2367.083 -10022.727)">
      <g id="Grupo_174743" data-name="Grupo 174743" clip-path="url(#clip-path)">
        <path id="Trazado_215063" data-name="Trazado 215063" d="M96.574,101.954h-48.5a1.064,1.064,0,0,0-.252-.167c-3.444-1.066-5.086-3.288-5.087-6.9q0-10.326,0-20.652v-1c-2.01.9-3.854,1.788-5.75,2.542a1.1,1.1,0,0,0-.849,1.235q.041,9.2.012,18.392a6.506,6.506,0,0,1-4.492,6.225c-.285.1-.562.218-.843.328H25.062a1.069,1.069,0,0,0-.252-.167c-3.444-1.066-5.086-3.288-5.087-6.9,0-5.925-.014-11.85.016-17.774a1.2,1.2,0,0,0-.938-1.377C7.65,71.427,1.125,63.326.113,51.412-.752,41.221,3.359,32.947,11.525,26.755c1.1-.837,2.318-1.528,3.514-2.308-.1-.139-.171-.249-.252-.352-3.024-3.857-1.8-8.579,2.7-10.553a1.234,1.234,0,0,0,.576-.874A8.294,8.294,0,0,1,31.294,6.586c.189-.271.363-.515.531-.763a13.115,13.115,0,0,1,21.743-.088,1.722,1.722,0,0,0,1.638.871q20.03-.037,40.06-.015a6.542,6.542,0,0,1,6.424,4.784c.058.19.15.37.227.554V96.61a23.283,23.283,0,0,1-1.1,2.388,7.158,7.158,0,0,1-4.247,2.956m-44-72.271H78.845V52.623H55.726l-.607,3.325H92V59.2H75.333q-10.17,0-20.34.011c-.337,0-.866.057-.978.265-.51.943-.9,1.95-1.392,3.059H91.971v3.188H52.592v-3.1c-.229.3-.314.393-.373.5a28.724,28.724,0,0,1-5.775,7.163,1.616,1.616,0,0,0-.406,1.061c-.044,1.506-.019,3.013-.019,4.52v3.026H98.576V23.024h-.75q-17.309,0-34.619.023a1.878,1.878,0,0,0-1.2.542,8.432,8.432,0,0,1-6.4,2.732c-3.561-.034-7.122-.01-10.683-.006-.275,0-.551.039-1.033.076a29.161,29.161,0,0,1,8.688,9.7Zm46.052,52.6h-52.6c0,4.134,0,8.2,0,12.272,0,2.915,1.2,4.113,4.113,4.113H94.5c.308,0,.617.012.924-.009A3.251,3.251,0,0,0,98.6,95.5c.062-4.378.02-8.757.02-13.217M22.217,17.524c-.259-.189-.443-.336-.64-.464a3.238,3.238,0,0,0-5.053,2.035,3.109,3.109,0,0,0,.939,2.992,2.313,2.313,0,0,0,2.615.458,26.1,26.1,0,0,1,13.471-.566,21.632,21.632,0,0,0,4.056,1c6.16.107,12.323.1,18.483.014a4.878,4.878,0,0,0,4.726-4.775,5,5,0,0,0-4.471-5.035,4.933,4.933,0,0,0-5.276,4.025c-.063.286-.136.57-.2.827H47.66a8.32,8.32,0,0,1,4.507-7.3A9.755,9.755,0,0,0,42.721,3.3c-5.28.031-8.741,3.433-9.944,9.8H29.528a16.228,16.228,0,0,1,.3-2.381,1.191,1.191,0,0,0-.593-1.451A4.689,4.689,0,0,0,24.4,8.642a4.925,4.925,0,0,0-3.006,3.988c-.091.539.122.747.608.979.925.44,1.782,1.023,2.783,1.616l-2.566,2.3M27.937,74A24.667,24.667,0,1,0,3.278,49.36,24.773,24.773,0,0,0,27.937,74m70.7-54.3c0-2.092.005-4.074,0-6.056-.008-2.474-1.325-3.777-3.827-3.778q-18.171,0-36.343,0c-.273,0-.546.03-.948.054,4.859,1.6,6.983,4.851,6.544,9.78ZM55.956,49.258H75.562V32.936H55.956ZM23.046,77.087c.011-.047-.033.051-.033.148,0,6.056-.029,12.112.01,18.168a3.266,3.266,0,0,0,3.295,3.257c.888.036,1.779.01,2.668.008,2.617-.006,3.888-1.284,3.889-3.922q0-8.417,0-16.834v-.825Z" transform="translate(0 0)" fill="#1a1818"/>
        <path id="Trazado_215064" data-name="Trazado 215064" d="M276.108,399.64c0,4.46.042,8.839-.02,13.217a3.251,3.251,0,0,1-3.183,3.158c-.307.021-.616.009-.924.009H227.616c-2.916,0-4.113-1.2-4.113-4.113,0-4.069,0-8.137,0-12.272Zm-21.371,8.139a4.927,4.927,0,1,0-4.934,4.949,4.89,4.89,0,0,0,4.934-4.949" transform="translate(-177.484 -317.355)" fill="#d8dbf7"/>
        <path id="Trazado_215065" data-name="Trazado 215065" d="M85.622,30.237l2.566-2.3c-1-.593-1.858-1.176-2.783-1.616-.487-.231-.7-.44-.608-.979A4.925,4.925,0,0,1,87.8,21.355a4.689,4.689,0,0,1,4.841.623,1.191,1.191,0,0,1,.593,1.451,16.227,16.227,0,0,0-.3,2.381h3.248c1.2-6.368,4.664-9.77,9.944-9.8a9.755,9.755,0,0,1,9.446,7.439,8.32,8.32,0,0,0-4.507,7.3h3.21c.062-.258.134-.541.2-.827a4.933,4.933,0,0,1,5.276-4.025,5,5,0,0,1,4.471,5.035,4.878,4.878,0,0,1-4.726,4.775c-6.16.083-12.324.093-18.483-.014a21.648,21.648,0,0,1-4.056-1,26.1,26.1,0,0,0-13.471.566,2.313,2.313,0,0,1-2.615-.458,3.11,3.11,0,0,1-.939-2.992,3.238,3.238,0,0,1,5.053-2.035c.2.128.381.275.64.464" transform="translate(-63.406 -12.713)" fill="url(#linear-gradient)"/>
        <path id="Trazado_215066" data-name="Trazado 215066" d="M40.581,169.149a24.667,24.667,0,1,1,24.662-24.642,24.773,24.773,0,0,1-24.662,24.642m-.056-3.295a21.372,21.372,0,1,0-21.31-21.481,21.351,21.351,0,0,0,21.31,21.481" transform="translate(-12.644 -95.146)" fill="#eeac3a"/>
        <path id="Trazado_215067" data-name="Trazado 215067" d="M320.448,57.768H285.872c.439-4.929-1.685-8.18-6.544-9.78.4-.023.675-.053.948-.054q18.172,0,36.343,0c2.5,0,3.819,1.3,3.827,3.778.006,1.982,0,3.964,0,6.056" transform="translate(-221.815 -38.064)" fill="#d8dbf7"/>
        <path id="Trazado_215068" data-name="Trazado 215068" d="M111.755,374.352h9.829v.825q0,8.417,0,16.834c0,2.638-1.272,3.917-3.889,3.922-.889,0-1.78.027-2.668-.008a3.266,3.266,0,0,1-3.295-3.257c-.039-6.056-.014-12.112-.01-18.168,0-.1.044-.2.033-.148" transform="translate(-88.71 -297.264)" fill="url(#linear-gradient-2)"/>
        <rect id="Rectángulo_54054" data-name="Rectángulo 54054" width="26.162" height="3.159" transform="translate(52.651 69.124)" fill="#1a1818"/>
        <rect id="Rectángulo_54055" data-name="Rectángulo 54055" width="9.721" height="3.171" transform="translate(82.27 29.673)" fill="#1a1818"/>
        <rect id="Rectángulo_54056" data-name="Rectángulo 54056" width="9.725" height="3.156" transform="translate(82.278 42.835)" fill="#1a1818"/>
        <rect id="Rectángulo_54057" data-name="Rectángulo 54057" width="9.725" height="3.155" transform="translate(82.278 49.412)" fill="#1a1818"/>
        <rect id="Rectángulo_54058" data-name="Rectángulo 54058" width="3.189" height="3.136" transform="translate(82.266 36.249)" fill="#1a1818"/>
        <rect id="Rectángulo_54059" data-name="Rectángulo 54059" width="3.154" height="3.172" transform="translate(88.841 36.249)" fill="#1a1818"/>
        <rect id="Rectángulo_54060" data-name="Rectángulo 54060" width="3.152" height="3.171" transform="translate(82.267 69.136)" fill="#1a1818"/>
        <rect id="Rectángulo_54061" data-name="Rectángulo 54061" width="3.165" height="3.148" transform="translate(88.836 69.13)" fill="#1a1818"/>
        <path id="Trazado_215069" data-name="Trazado 215069" d="M337.194,420.24a4.927,4.927,0,1,1-4.972-4.908,4.9,4.9,0,0,1,4.972,4.908m-3.294-.013a1.634,1.634,0,1,0-1.6,1.668,1.712,1.712,0,0,0,1.6-1.668" transform="translate(-259.941 -329.816)" fill="#1a1818"/>
        <path id="Trazado_215070" data-name="Trazado 215070" d="M53.228,178.562A21.372,21.372,0,1,1,74.653,157.3a21.346,21.346,0,0,1-21.425,21.265M71.371,157.2A18.085,18.085,0,1,0,53.252,175.28,18.18,18.18,0,0,0,71.371,157.2" transform="translate(-25.347 -107.854)" fill="#1a1818"/>
        <path id="Trazado_215071" data-name="Trazado 215071" d="M346.6,432.924a1.634,1.634,0,1,1-1.667-1.6,1.713,1.713,0,0,1,1.667,1.6" transform="translate(-272.641 -342.514)" fill="#fff"/>
        <path id="Trazado_215072" data-name="Trazado 215072" d="M84.029,169.855a18.085,18.085,0,1,1-18.1-18.1,18.188,18.188,0,0,1,18.1,18.1m-13.214-1.662v-3.205H61.1v3.255h3.138v9.874H61.072v3.169h9.716v-3.255H67.65v-9.838Zm-3.295-9.778H64.385v3.19H67.52Z" transform="translate(-38.005 -120.512)" fill="#fff"/>
        <path id="Trazado_215073" data-name="Trazado 215073" d="M121.778,219.216h-3.165v9.838h3.138v3.255h-9.716V229.14H115.2v-9.875h-3.138v-3.255h9.716Z" transform="translate(-88.968 -171.535)" fill="#1a1818"/>
        <rect id="Rectángulo_54062" data-name="Rectángulo 54062" width="3.135" height="3.19" transform="translate(26.381 37.903)" fill="#1a1818"/>
      </g>
    </g>
  </g>
</svg>
