<svg xmlns="http://www.w3.org/2000/svg" xmlns:xlink="http://www.w3.org/1999/xlink" width="108.35" height="108.247" viewBox="0 0 108.35 108.247">
  <defs>
    <clipPath id="clip-path">
      <rect id="Rectángulo_54068" data-name="Rectángulo 54068" width="108.35" height="108.248" fill="none"/>
    </clipPath>
    <linearGradient id="linear-gradient" x1="0.5" x2="0.5" y2="1" gradientUnits="objectBoundingBox">
      <stop offset="0" stop-color="#f5f5f5"/>
      <stop offset="0.25" stop-color="#f5f5f5"/>
      <stop offset="1" stop-color="#a7b3cf"/>
    </linearGradient>
    <linearGradient id="linear-gradient-4" x1="0.5" x2="0.5" y2="1" gradientUnits="objectBoundingBox">
      <stop offset="0" stop-color="#278d7e"/>
      <stop offset="1" stop-color="#4fc1b1"/>
    </linearGradient>
    <linearGradient id="linear-gradient-5" x1="0.5" x2="0.5" y2="1" gradientUnits="objectBoundingBox">
      <stop offset="0" stop-color="#116eb9"/>
      <stop offset="1" stop-color="#1894f6"/>
    </linearGradient>
  </defs>
  <g id="Grupo_175149" data-name="Grupo 175149" transform="translate(2365.684 9576.52)">
    <g id="Grupo_174748" data-name="Grupo 174748" transform="translate(-2365.684 -9576.52)">
      <g id="Grupo_174747" data-name="Grupo 174747" clip-path="url(#clip-path)">
        <path id="Trazado_215088" data-name="Trazado 215088" d="M0,41.821a13.856,13.856,0,0,1,10.992,3.131,6.722,6.722,0,0,0,7.494.926c.259-.116.688-.316.682-.464a1.291,1.291,0,0,0-.435-.856A12.55,12.55,0,0,1,13.956,34c.047-2.5-.132-5.024.964-7.368a11.988,11.988,0,0,1,10.875-7.454c.269-.014.537-.043.935-.075-.544-1.316-1.078-2.529-1.535-3.771a1.158,1.158,0,0,1,.105-.995c2.909-2.971,5.854-5.905,8.845-8.9,1.6,1.034,3.175,2.011,4.7,3.069a1.4,1.4,0,0,0,1.618.073c1.592-.737,3.213-1.423,4.863-2.018a1.349,1.349,0,0,0,1.021-1.147c.348-1.792.741-3.575,1.128-5.415H60.851c.38,1.788.779,3.564,1.125,5.35a1.421,1.421,0,0,0,1.072,1.219C64.7,7.16,66.322,7.848,67.905,8.6a1.4,1.4,0,0,0,1.614-.122c1.509-1.035,3.062-2,4.663-3.042,2.977,2.982,5.947,5.939,8.878,8.933a1.173,1.173,0,0,1,.07,1c-.466,1.238-1.006,2.447-1.569,3.785A11.656,11.656,0,0,1,89.7,21.91a12.461,12.461,0,0,1,4.639,9.573,35.546,35.546,0,0,1-.2,5.372A11.594,11.594,0,0,1,89.83,44.37a4.591,4.591,0,0,0-.708,1.064,5.811,5.811,0,0,0,1.044.544q4.045,1.171,8.108,2.276a1.363,1.363,0,0,0,.864-.159,24.032,24.032,0,0,0,2.978-1.589c1.882-1.294,3.944-1.3,6.211-1.068v1c0,7.825-.015,15.65.023,23.476a1.429,1.429,0,0,1-.961,1.494c-9.86,4.9-19.7,9.839-29.567,14.735a1.584,1.584,0,0,0-1.016,1.5,5.1,5.1,0,0,1-4.238,4.734c-.649.121-.947.342-1.06,1.033a5.183,5.183,0,0,1-4.36,4.29,1.2,1.2,0,0,0-.773.726c-.72,2.83-2.242,4.237-5.074,4.59a20.209,20.209,0,0,1-.673,2.182,5.845,5.845,0,0,1-3.712,3.05H54.377c-1.029-.642-2.112-1.214-3.066-1.953a1.394,1.394,0,0,0-1.734-.28,5.337,5.337,0,0,1-7.105-2.67,16.542,16.542,0,0,1-.633-2.039c-.11-.026-.243-.061-.378-.087a5.439,5.439,0,0,1-4.7-4.626,1.108,1.108,0,0,0-.744-.629,5.563,5.563,0,0,1-4.509-4.593,1.081,1.081,0,0,0-.7-.665,5.509,5.509,0,0,1-4.561-4.648,1.214,1.214,0,0,0-.414-.755c-1.573-.987-3.176-1.928-4.639-2.806-.416.489-.758,1.245-1.121,1.255a12.784,12.784,0,0,1-3.951-.336c-3.5-1.043-6.937-2.291-10.408-3.43C3.82,79.363,1.906,78.8,0,78.208V41.821m104.74,7.357c-.491.248-.835.416-1.173.594Q88.62,57.636,73.685,65.524a5.753,5.753,0,0,1-3.617.783,16.786,16.786,0,0,1-2.158-.459Q63.443,64.6,58.989,63.3a8.194,8.194,0,0,0-6.164.432c-3.117,1.55-6.235,3.1-9.337,4.677a2.6,2.6,0,0,0-1.22,3.641c.693,1.253,2.112,1.544,3.553.7,1.822-1.069,3.63-2.16,5.444-3.243,3.68-2.2,6.486-1.954,9.7.921q6.861,6.129,13.669,12.318a1.227,1.227,0,0,0,1.637.273q13.815-6.962,27.671-13.843a1.294,1.294,0,0,0,.858-1.357c-.029-5.887-.016-11.773-.018-17.66,0-.278-.025-.556-.045-.977M50.282,61.035c-3.913-1.46-7.664-2.154-11.59-1.274-3.086.691-6.158,1.5-9.279,1.965-2.145.317-3.075,1.261-3.582,3.366-1.107,4.6-2.536,9.126-3.853,13.75l5.468,3.274c1.344-1.419,2.527-2.89,3.934-4.1a5.159,5.159,0,0,1,7.235.487A20.566,20.566,0,0,1,40.6,82.054c2.676.4,4.442,2.13,4.858,5.172,2.806.483,4.674,1.9,5.159,4.826.036.218.443.473.718.536a7.056,7.056,0,0,1,3.515,2.166,49.182,49.182,0,0,0,4.969,4.361,1.92,1.92,0,0,0,2.729-.427,1.858,1.858,0,0,0-.581-2.6c-.988-.851-2-1.668-3-2.5-1.964-1.64-3.925-3.282-5.932-4.96l2.25-2.677c.324.258.574.45.816.652,2.736,2.276,5.464,4.562,8.214,6.822a3.817,3.817,0,0,0,1.358.764,1.83,1.83,0,0,0,2.185-.86,1.68,1.68,0,0,0-.364-2.2c-.421-.423-.9-.792-1.357-1.175-2.593-2.167-5.188-4.331-7.858-6.56l2.256-2.7c3.03,2.523,5.951,4.961,8.881,7.389a5.393,5.393,0,0,0,1.126.77,2.008,2.008,0,0,0,2.458-.634,1.836,1.836,0,0,0-.238-2.409,7.718,7.718,0,0,0-.616-.578q-6.8-6.121-13.593-12.241c-1.821-1.64-3.231-1.775-5.343-.521-2.058,1.222-4.078,2.515-6.184,3.648a5.781,5.781,0,0,1-8.348-3.6,5.978,5.978,0,0,1,3.126-7.2c2.74-1.419,5.512-2.778,8.485-4.271M36.846,56.44a6.266,6.266,0,0,0,.69-.067A22.1,22.1,0,0,1,48.7,56.8c3.192.948,6.4,1.829,9.612,2.725q4.569,1.276,9.148,2.515c1.047.283,2.107.528,3.171.739.721.143,1-.207.985-.949-.038-1.832.014-3.666-.019-5.5a5.192,5.192,0,0,0-4.34-5.438c-2.9-.731-5.794-1.462-8.7-2.162-.677-.163-1.008-.42-.961-1.2a35.659,35.659,0,0,0,0-3.7,1.292,1.292,0,0,1,.755-1.34A8,8,0,0,0,62.5,37.262a15.99,15.99,0,0,0-.26-8.753,8.589,8.589,0,0,0-8.142-5.792c-4.015.124-7.252,2.415-8.181,6.218a26.845,26.845,0,0,0-.42,6.075,7.121,7.121,0,0,0,3.082,6.4c2.05,1.274,2.391,2.835,2.141,4.888a3.24,3.24,0,0,0,0,.95c.174.967-.268,1.34-1.18,1.55-2.877.661-5.738,1.392-8.6,2.12a5.023,5.023,0,0,0-4.1,5.525m57.142-5.628-.081-.259C91.453,49.945,89,49.32,86.54,48.739c-.68-.16-1.009-.418-.963-1.193a35.087,35.087,0,0,0,0-3.593A1.448,1.448,0,0,1,86.4,42.44a8.017,8.017,0,0,0,4.233-5.993,29.474,29.474,0,0,0,.111-5.583,8.961,8.961,0,0,0-7.42-8.082c-4.513-.5-8.367,1.929-9.488,6.24a23.9,23.9,0,0,0-.414,5.232,8.83,8.83,0,0,0,4.592,8.334,1.63,1.63,0,0,1,.632,1.138c.083,1.192-.04,2.4.052,3.591.072.932-.284,1.288-1.154,1.47-1.59.332-3.158.77-4.868,1.2a8.437,8.437,0,0,1,2.37,5.037c.122,1.84.026,3.694.026,5.751l18.917-9.96m-66.01,7.673c1.505-.334,2.971-.7,4.454-.971.631-.116.807-.393.781-.987a8.39,8.39,0,0,1,1.146-4.755c.353-.594.77-1.15,1.215-1.809-1.605-.405-3.116-.841-4.65-1.154-.929-.19-1.411-.5-1.289-1.573a18.766,18.766,0,0,0,.008-3.167,1.558,1.558,0,0,1,.9-1.672,7.909,7.909,0,0,0,4.048-5.3,16.09,16.09,0,0,0-.3-8.551,8.634,8.634,0,0,0-8.114-5.828,8.307,8.307,0,0,0-8.221,6.174,26.006,26.006,0,0,0-.43,5.333,8.739,8.739,0,0,0,4.543,8.345,1.519,1.519,0,0,1,.628,1.055c.074,1.37.01,2.747.039,4.12a.78.78,0,0,1-.738.923c-1,.207-1.984.505-3.171.817,2.151,1.261,4.091,2.4,6.029,3.535,1,.588,2.374.965,2.884,1.842s.142,2.249.16,3.405a1.374,1.374,0,0,0,.072.219m13.85-25.378c.091-1.227.085-2.469.29-3.676a11.626,11.626,0,0,1,7.962-9.557c4.52-1.609,8.632-.629,12.268,2.54,4.743,4.133,4.9,12.372,3.106,17.117a11.827,11.827,0,0,1-3.865,5.063c-.642.511-.621,1.062.032,1.233q3.111.811,6.244,1.535a2.347,2.347,0,0,0,1.035-.075c1.742-.423,3.482-.853,5.211-1.323a4.593,4.593,0,0,0,1-.566,6.777,6.777,0,0,0-.639-.983A24.819,24.819,0,0,1,72.5,42.369c-3.5-4.845-3.216-10.145-1.687-15.538A1.873,1.873,0,0,0,70.65,25.1c-3.626-5.711-8.745-9.017-15.544-9.3-7.768-.328-13.612,3.087-17.617,9.7a1.459,1.459,0,0,0-.112,1.15c1.336,3.13,1.244,6.395.964,9.672a10.046,10.046,0,0,1-1.9,5.192c-.831,1.119-1.893,2.064-2.827,3.109a1.3,1.3,0,0,0-.354.788c0,.157.34.389.564.448,1.936.512,3.877,1.009,5.826,1.467a2.792,2.792,0,0,0,1.243-.024c1.845-.442,3.682-.919,5.515-1.409.273-.073.741-.32.723-.412a1.992,1.992,0,0,0-.473-.944c-.645-.695-1.409-1.287-2.006-2.018a13.414,13.414,0,0,1-2.819-9.4M73.368,22.676c4-2.64,4-2.64,5.527-6.314a.677.677,0,0,1,.038-.1.907.907,0,0,0-.208-1.288q-2.28-2.2-4.48-4.489c-.448-.467-.77-.423-1.25-.092-1.1.76-2.251,1.447-3.346,2.215a1.3,1.3,0,0,1-1.689.063,24.83,24.83,0,0,0-7.852-3.257,1.209,1.209,0,0,1-1.121-1.133c-.257-1.611-.677-3.2-1.021-4.754h-7.6c-.354,1.6-.754,3.169-1.024,4.755a1.159,1.159,0,0,1-1.016,1.107,25.659,25.659,0,0,0-8.137,3.387,1.035,1.035,0,0,1-1.325-.058c-1.16-.8-2.369-1.523-3.529-2.321-.485-.333-.8-.371-1.249.1-1.463,1.525-2.965,3.015-4.485,4.484a.974.974,0,0,0-.229,1.294c.5,1.085.923,2.2,1.406,3.3a1.779,1.779,0,0,0,.541.735c1.176.815,2.381,1.589,3.629,2.412,4.553-6.63,10.846-10.447,19.067-10.5,8.267-.052,14.624,3.714,19.353,10.46M3.544,45.322v20.19c0,3.065-.015,6.13.022,9.195a1.225,1.225,0,0,0,.492.959c2.266.819,4.56,1.56,6.923,2.351L17.313,52.69c-4.126-2.4-8.161-4.769-12.22-7.092a5.207,5.207,0,0,0-1.549-.277M17.878,80.311,20,72.885c1.408-4.93,2.826-9.857,4.208-14.795.118-.423.174-1.172-.051-1.331-1.125-.794-2.354-1.442-3.666-2.211L14.34,79.132l3.538,1.179m19.045,1.85a8.89,8.89,0,0,0-1.419-1.61,1.647,1.647,0,0,0-2.124.354c-.98.91-1.92,1.863-2.853,2.822a1.985,1.985,0,0,0-.247,2.905c.808.856,1.952.811,2.979-.163.894-.848,1.78-1.708,2.608-2.618a12.032,12.032,0,0,0,1.055-1.69m5.2,5.158a7.92,7.92,0,0,0-1.341-1.513,1.659,1.659,0,0,0-2.133.311c-1.072,1.015-2.13,2.052-3.121,3.147a1.851,1.851,0,0,0,.039,2.655,1.926,1.926,0,0,0,2.748-.047c1.026-.963,2.024-1.96,2.973-3a7.865,7.865,0,0,0,.834-1.554m5.232,5.314a6.788,6.788,0,0,0-1.283-1.563,1.743,1.743,0,0,0-2.228.319c-1,.945-1.971,1.914-2.916,2.91a1.923,1.923,0,0,0-.155,2.829,1.978,1.978,0,0,0,2.911-.116c.947-.894,1.88-1.808,2.754-2.772a9.122,9.122,0,0,0,.916-1.607M52.6,97.8c-.46-.543-.8-1.3-1.34-1.487a2.485,2.485,0,0,0-2.017.269,27,27,0,0,0-3.111,3,1.932,1.932,0,1,0,2.75,2.7c.972-.918,1.928-1.858,2.824-2.849A8.73,8.73,0,0,0,52.6,97.8m.534,5.349c.895.984,1.847,1.973,3.305,1.407a2.152,2.152,0,0,0,1.1-1.475c.208-1.508-1.2-1.931-2-2.731l-2.4,2.8" fill="#1a1818"/>
        <path id="Trazado_215089" data-name="Trazado 215089" d="M173.736,140.89a5.023,5.023,0,0,1,4.1-5.525c2.861-.728,5.722-1.46,8.6-2.121.912-.209,1.354-.583,1.18-1.549a3.241,3.241,0,0,1,0-.95c.249-2.053-.092-3.614-2.141-4.888a7.12,7.12,0,0,1-3.083-6.4,26.844,26.844,0,0,1,.421-6.075c.929-3.8,4.166-6.094,8.18-6.218a8.589,8.589,0,0,1,8.142,5.792,15.991,15.991,0,0,1,.26,8.753,8,8,0,0,1-4.143,5.232,1.292,1.292,0,0,0-.755,1.34,35.6,35.6,0,0,1,0,3.7c-.048.777.284,1.034.961,1.2,2.9.7,5.8,1.431,8.7,2.162a5.192,5.192,0,0,1,4.34,5.438c.033,1.833-.019,3.666.019,5.5.015.742-.264,1.092-.985.949-1.064-.211-2.123-.456-3.171-.739q-4.58-1.236-9.148-2.515c-3.208-.9-6.42-1.777-9.612-2.725a22.108,22.108,0,0,0-11.165-.426,6.211,6.211,0,0,1-.69.067" transform="translate(-136.891 -84.45)" fill="url(#linear-gradient)"/>
        <path id="Trazado_215090" data-name="Trazado 215090" d="M364.2,135.281l-18.917,9.96c0-2.058.1-3.912-.027-5.751a8.436,8.436,0,0,0-2.37-5.037c1.71-.427,3.278-.865,4.868-1.2.87-.182,1.226-.539,1.154-1.47-.092-1.191.031-2.4-.052-3.591a1.631,1.631,0,0,0-.632-1.138,8.83,8.83,0,0,1-4.592-8.334,23.91,23.91,0,0,1,.414-5.232c1.121-4.311,4.975-6.736,9.488-6.24a8.961,8.961,0,0,1,7.42,8.082,29.476,29.476,0,0,1-.111,5.583,8.017,8.017,0,0,1-4.233,5.993,1.448,1.448,0,0,0-.825,1.515,35.1,35.1,0,0,1,0,3.593c-.046.774.283,1.032.963,1.192,2.461.58,4.912,1.206,7.367,1.814l.081.259" transform="translate(-270.215 -84.469)" fill="url(#linear-gradient)"/>
        <path id="Trazado_215091" data-name="Trazado 215091" d="M93.124,142.93a1.335,1.335,0,0,1-.072-.219c-.019-1.156.346-2.534-.16-3.405s-1.884-1.254-2.885-1.842c-1.937-1.14-3.878-2.274-6.029-3.535,1.187-.312,2.169-.61,3.171-.817a.78.78,0,0,0,.738-.923c-.029-1.374.035-2.75-.039-4.121a1.52,1.52,0,0,0-.629-1.055,8.739,8.739,0,0,1-4.542-8.345,25.992,25.992,0,0,1,.43-5.334,8.307,8.307,0,0,1,8.221-6.174,8.633,8.633,0,0,1,8.114,5.828,16.092,16.092,0,0,1,.3,8.551,7.91,7.91,0,0,1-4.048,5.3,1.558,1.558,0,0,0-.9,1.672,18.79,18.79,0,0,1-.008,3.167c-.122,1.07.359,1.383,1.288,1.573,1.535.313,3.045.749,4.651,1.154-.446.659-.863,1.215-1.216,1.809a8.389,8.389,0,0,0-1.146,4.755c.027.595-.15.872-.781.987-1.483.272-2.948.636-4.454.971" transform="translate(-65.145 -84.445)" fill="url(#linear-gradient)"/>
        <path id="Trazado_215092" data-name="Trazado 215092" d="M165.474,91.749a13.415,13.415,0,0,0,2.819,9.4c.6.73,1.361,1.323,2.006,2.018a1.992,1.992,0,0,1,.473.943c.018.092-.45.339-.723.412-1.833.489-3.67.966-5.515,1.409a2.792,2.792,0,0,1-1.243.024c-1.95-.457-3.89-.955-5.827-1.466-.224-.059-.561-.292-.564-.449a1.3,1.3,0,0,1,.354-.788c.934-1.045,2-1.991,2.828-3.11a10.045,10.045,0,0,0,1.9-5.192c.281-3.278.372-6.542-.963-9.672a1.457,1.457,0,0,1,.112-1.15c4.005-6.609,9.849-10.024,17.617-9.7,6.8.287,11.918,3.594,15.544,9.3a1.872,1.872,0,0,1,.161,1.733c-1.529,5.393-1.817,10.693,1.687,15.538a24.788,24.788,0,0,0,1.976,2.046,6.792,6.792,0,0,1,.639.983,4.594,4.594,0,0,1-1,.566c-1.729.47-3.469.9-5.211,1.323a2.346,2.346,0,0,1-1.035.075q-3.132-.727-6.244-1.535c-.654-.17-.674-.722-.033-1.233a11.828,11.828,0,0,0,3.865-5.063c1.792-4.745,1.636-12.984-3.106-17.117-3.636-3.169-7.747-4.148-12.268-2.54a11.627,11.627,0,0,0-7.962,9.557c-.205,1.207-.2,2.45-.29,3.676" transform="translate(-123.646 -58.642)" fill="url(#linear-gradient-4)"/>
        <path id="Trazado_215093" data-name="Trazado 215093" d="M182.026,35.79c-4.729-6.746-11.086-10.512-19.353-10.46-8.221.052-14.514,3.869-19.067,10.5-1.248-.824-2.452-1.6-3.629-2.412a1.779,1.779,0,0,1-.541-.735c-.483-1.092-.907-2.212-1.406-3.3a.973.973,0,0,1,.229-1.294c1.52-1.469,3.022-2.959,4.485-4.484.448-.467.764-.429,1.249-.1,1.16.8,2.369,1.523,3.529,2.321a1.035,1.035,0,0,0,1.325.058,25.666,25.666,0,0,1,8.137-3.387A1.159,1.159,0,0,0,158,21.4c.269-1.586.67-3.151,1.024-4.755h7.6c.345,1.559.764,3.144,1.021,4.755a1.209,1.209,0,0,0,1.121,1.133,24.832,24.832,0,0,1,7.852,3.257,1.3,1.3,0,0,0,1.689-.063c1.094-.768,2.246-1.454,3.346-2.215.48-.331.8-.375,1.25.092q2.194,2.289,4.48,4.489a.906.906,0,0,1,.208,1.288.713.713,0,0,0-.038.1c-1.53,3.674-1.53,3.674-5.527,6.314" transform="translate(-108.658 -13.114)" fill="#eeac3a"/>
        <path id="Trazado_215094" data-name="Trazado 215094" d="M16.712,213.836a5.2,5.2,0,0,1,1.548.277c4.059,2.323,8.094,4.688,12.22,7.091L24.149,246.53c-2.364-.79-4.658-1.531-6.923-2.351a1.224,1.224,0,0,1-.492-.959c-.038-3.065-.022-6.13-.022-9.195v-20.19" transform="translate(-13.167 -168.514)" fill="#d8dbf7"/>
        <path id="Trazado_215095" data-name="Trazado 215095" d="M71.2,283.131l-3.538-1.179,6.151-24.583c1.312.769,2.541,1.417,3.666,2.211.225.159.169.908.051,1.331-1.381,4.938-2.8,9.865-4.208,14.795L71.2,283.131" transform="translate(-53.319 -202.82)" fill="url(#linear-gradient-5)"/>
      </g>
    </g>
  </g>
</svg>
