<svg xmlns="http://www.w3.org/2000/svg" xmlns:xlink="http://www.w3.org/1999/xlink" width="1277.234" height="617.928" viewBox="0 0 1277.234 617.928">
  <defs>
    <linearGradient id="linear-gradient" x1="0.5" x2="0.5" y2="1" gradientUnits="objectBoundingBox">
      <stop offset="0" stop-color="#f5f5f5"/>
      <stop offset="0.25" stop-color="#f5f5f5"/>
      <stop offset="1" stop-color="#a7b3cf"/>
    </linearGradient>
    <radialGradient id="radial-gradient" cx="0.076" cy="0.019" r="1.465" gradientTransform="translate(0.001)" gradientUnits="objectBoundingBox">
      <stop offset="0" stop-color="#f6f6f7"/>
      <stop offset="0.477" stop-color="#f9f9fa"/>
      <stop offset="0.715" stop-color="#fff"/>
    </radialGradient>
    <filter id="Trazado_40937" x="0" y="279.604" width="70.144" height="70.079" filterUnits="userSpaceOnUse">
      <feOffset dy="7" input="SourceAlpha"/>
      <feGaussianBlur stdDeviation="2.5" result="blur"/>
      <feFlood flood-opacity="0.102"/>
      <feComposite operator="in" in2="blur"/>
      <feComposite in="SourceGraphic"/>
    </filter>
    <filter id="Trazado_40937-2" x="247.064" y="279.604" width="70.144" height="70.079" filterUnits="userSpaceOnUse">
      <feOffset dy="7" input="SourceAlpha"/>
      <feGaussianBlur stdDeviation="2.5" result="blur-2"/>
      <feFlood flood-opacity="0.102"/>
      <feComposite operator="in" in2="blur-2"/>
      <feComposite in="SourceGraphic"/>
    </filter>
    <filter id="Trazado_40937-3" x="514.327" y="237.57" width="70.144" height="70.079" filterUnits="userSpaceOnUse">
      <feOffset dy="7" input="SourceAlpha"/>
      <feGaussianBlur stdDeviation="2.5" result="blur-3"/>
      <feFlood flood-opacity="0.102"/>
      <feComposite operator="in" in2="blur-3"/>
      <feComposite in="SourceGraphic"/>
    </filter>
    <filter id="Trazado_40937-4" x="514.327" y="316.032" width="70.144" height="70.079" filterUnits="userSpaceOnUse">
      <feOffset dy="7" input="SourceAlpha"/>
      <feGaussianBlur stdDeviation="2.5" result="blur-4"/>
      <feFlood flood-opacity="0.102"/>
      <feComposite operator="in" in2="blur-4"/>
      <feComposite in="SourceGraphic"/>
    </filter>
    <filter id="Trazado_40937-5" x="514.327" y="443.499" width="70.144" height="70.079" filterUnits="userSpaceOnUse">
      <feOffset dy="7" input="SourceAlpha"/>
      <feGaussianBlur stdDeviation="2.5" result="blur-5"/>
      <feFlood flood-opacity="0.102"/>
      <feComposite operator="in" in2="blur-5"/>
      <feComposite in="SourceGraphic"/>
    </filter>
    <filter id="Trazado_40937-6" x="775.323" y="279.604" width="70.144" height="70.079" filterUnits="userSpaceOnUse">
      <feOffset dy="7" input="SourceAlpha"/>
      <feGaussianBlur stdDeviation="2.5" result="blur-6"/>
      <feFlood flood-opacity="0.102"/>
      <feComposite operator="in" in2="blur-6"/>
      <feComposite in="SourceGraphic"/>
    </filter>
    <filter id="Trazado_40937-7" x="1070.05" y="279.604" width="70.144" height="70.079" filterUnits="userSpaceOnUse">
      <feOffset dy="7" input="SourceAlpha"/>
      <feGaussianBlur stdDeviation="2.5" result="blur-7"/>
      <feFlood flood-opacity="0.102"/>
      <feComposite operator="in" in2="blur-7"/>
      <feComposite in="SourceGraphic"/>
    </filter>
    <linearGradient id="linear-gradient-8" x1="0.5" x2="0.5" y2="1" gradientUnits="objectBoundingBox">
      <stop offset="0" stop-color="#116eb9"/>
      <stop offset="1" stop-color="#1894f6"/>
    </linearGradient>
  </defs>
  <g id="Grupo_175147" data-name="Grupo 175147" transform="translate(-162.456 -2090.455)">
    <g id="Trazado_217549" data-name="Trazado 217549" transform="translate(436 2189)" fill="none">
      <path d="M217,0C336.846,0,434,97.154,434,217S336.846,434,217,434,0,336.846,0,217,97.154,0,217,0Z" stroke="none"/>
      <path d="M 217 6 C 100.6541748046875 6 6 100.6541748046875 6 217 C 6 333.3458251953125 100.6541748046875 428 217 428 C 333.3458251953125 428 428 333.3458251953125 428 217 C 428 100.6541748046875 333.3458251953125 6 217 6 M 217 0 C 336.8457641601562 0 434 97.1541748046875 434 217 C 434 336.8457641601562 336.8457641601562 434 217 434 C 97.1541748046875 434 0 336.8457641601562 0 217 C 0 97.1541748046875 97.1541748046875 0 217 0 Z" stroke="none" fill="#e8e8e8"/>
    </g>
    <g id="Trazado_217552" data-name="Trazado 217552" transform="translate(709 2189)" fill="none">
      <path d="M217,0C336.846,0,434,97.154,434,217S336.846,434,217,434,0,336.846,0,217,97.154,0,217,0Z" stroke="none"/>
      <path d="M 217 6 C 100.6541748046875 6 6 100.6541748046875 6 217 C 6 333.3458251953125 100.6541748046875 428 217 428 C 333.3458251953125 428 428 333.3458251953125 428 217 C 428 100.6541748046875 333.3458251953125 6 217 6 M 217 0 C 336.8457641601562 0 434 97.1541748046875 434 217 C 434 336.8457641601562 336.8457641601562 434 217 434 C 97.1541748046875 434 0 336.8457641601562 0 217 C 0 97.1541748046875 97.1541748046875 0 217 0 Z" stroke="none" fill="#e8e8e8"/>
    </g>
    <g id="Grupo_175004" data-name="Grupo 175004" transform="translate(-1745.195 11948)">
      <path id="Polígono_63" data-name="Polígono 63" d="M19.5,0,39,20H0Z" transform="translate(2162 -9570) rotate(90)" fill="#0b67d1"/>
      <rect id="Rectángulo_55900" data-name="Rectángulo 55900" width="19" height="24" transform="translate(2124 -9563)" fill="#0b67d1"/>
    </g>
    <g id="Grupo_175019" data-name="Grupo 175019" transform="translate(-929.872 11948)">
      <path id="Polígono_63-2" data-name="Polígono 63" d="M19.5,0,39,20H0Z" transform="translate(2162 -9570) rotate(90)" fill="#0b67d1"/>
      <rect id="Rectángulo_55900-2" data-name="Rectángulo 55900" width="19" height="24" transform="translate(2124 -9563)" fill="#0b67d1"/>
    </g>
    <g id="Grupo_175010" data-name="Grupo 175010" transform="translate(-1224.599 11948)">
      <path id="Polígono_63-3" data-name="Polígono 63" d="M19.5,0,39,20H0Z" transform="translate(2162 -9570) rotate(90)" fill="#0b67d1"/>
      <rect id="Rectángulo_55900-3" data-name="Rectángulo 55900" width="19" height="24" transform="translate(2124 -9563)" fill="#0b67d1"/>
    </g>
    <g id="Grupo_175007" data-name="Grupo 175007" transform="translate(-1491.863 11948)">
      <path id="Polígono_63-4" data-name="Polígono 63" d="M19.5,0,39,20H0Z" transform="translate(2162 -9570) rotate(90)" fill="#0b67d1"/>
      <rect id="Rectángulo_55900-4" data-name="Rectángulo 55900" width="19" height="24" transform="translate(2124 -9563)" fill="#0b67d1"/>
    </g>
    <path id="Trazado_217553" data-name="Trazado 217553" d="M10,0H165.793a10,10,0,0,1,10,10V48a10,10,0,0,1-10,10H10A10,10,0,0,1,0,48V10A10,10,0,0,1,10,0Z" transform="translate(708.175 2327.747)" fill="url(#linear-gradient)"/>
    <path id="Trazado_217567" data-name="Trazado 217567" d="M10,0H165.793a10,10,0,0,1,10,10V48a10,10,0,0,1-10,10H10A10,10,0,0,1,0,48V10A10,10,0,0,1,10,0Z" transform="translate(708.175 2403)" fill="url(#linear-gradient)"/>
    <path id="Trazado_217577" data-name="Trazado 217577" d="M10,0H165.793a10,10,0,0,1,10,10V48a10,10,0,0,1-10,10H10A10,10,0,0,1,0,48V10A10,10,0,0,1,10,0Z" transform="translate(708.175 2530.467)" fill="url(#linear-gradient)"/>
    <path id="Trazado_217559" data-name="Trazado 217559" d="M10,0H165.793a10,10,0,0,1,10,10V48a10,10,0,0,1-10,10H10A10,10,0,0,1,0,48V10A10,10,0,0,1,10,0Z" transform="translate(448.575 2368.638)" fill="url(#linear-gradient)"/>
    <path id="Trazado_217582" data-name="Trazado 217582" d="M10,0H165.793a10,10,0,0,1,10,10V48a10,10,0,0,1-10,10H10A10,10,0,0,1,0,48V10A10,10,0,0,1,10,0Z" transform="translate(1263.897 2368.638)" fill="url(#linear-gradient)"/>
    <path id="Trazado_217560" data-name="Trazado 217560" d="M10,0H165.793a10,10,0,0,1,10,10V48a10,10,0,0,1-10,10H10A10,10,0,0,1,0,48V10A10,10,0,0,1,10,0Z" transform="translate(193.848 2368.638)" fill="url(#linear-gradient)"/>
    <path id="Trazado_217564" data-name="Trazado 217564" d="M10,0H204.957a10,10,0,0,1,10,10V48a10,10,0,0,1-10,10H10A10,10,0,0,1,0,48V10A10,10,0,0,1,10,0Z" transform="translate(969.17 2368.638)" fill="url(#linear-gradient)"/>
    <path id="Trazado_217556" data-name="Trazado 217556" d="M9.313,16.6a7.388,7.388,0,0,1-3.2.594A5.4,5.4,0,0,1,2.055,15.68,5.54,5.54,0,0,1,.578,11.641a5.919,5.919,0,0,1,1.66-4.359A5.807,5.807,0,0,1,6.547,5.609a8.058,8.058,0,0,1,2.766.414v2.43A4.9,4.9,0,0,0,6.75,7.781,3.4,3.4,0,0,0,4.2,8.773a3.682,3.682,0,0,0-.969,2.688,3.611,3.611,0,0,0,.914,2.59,3.229,3.229,0,0,0,2.461.965,5.249,5.249,0,0,0,2.7-.719Zm8.367.4H15.344V15.852h-.031A2.607,2.607,0,0,1,12.93,17.2a2.492,2.492,0,0,1-1.832-.66,2.366,2.366,0,0,1-.668-1.762q0-2.328,2.758-2.687l2.172-.289q0-1.312-1.422-1.312a4.853,4.853,0,0,0-2.719.852V9.477a6.116,6.116,0,0,1,1.41-.469,7.413,7.413,0,0,1,1.629-.2q3.422,0,3.422,3.414Zm-2.32-3.25v-.539l-1.453.188q-1.2.156-1.2,1.086a.9.9,0,0,0,.293.691,1.126,1.126,0,0,0,.793.27,1.462,1.462,0,0,0,1.133-.48A1.735,1.735,0,0,0,15.359,13.75Zm12,3.25H24.9V12.555q0-1.859-1.328-1.859a1.318,1.318,0,0,0-1.055.492,1.875,1.875,0,0,0-.414,1.25V17H19.633V9H22.1v1.266h.031A2.829,2.829,0,0,1,24.7,8.8q2.656,0,2.656,3.3Zm8.609,0H33.633V15.852H33.6A2.607,2.607,0,0,1,31.219,17.2a2.492,2.492,0,0,1-1.832-.66,2.366,2.366,0,0,1-.668-1.762q0-2.328,2.758-2.687l2.172-.289q0-1.312-1.422-1.312a4.853,4.853,0,0,0-2.719.852V9.477a6.116,6.116,0,0,1,1.41-.469,7.413,7.413,0,0,1,1.629-.2q3.422,0,3.422,3.414Zm-2.32-3.25v-.539L32.2,13.4q-1.2.156-1.2,1.086a.9.9,0,0,0,.293.691,1.126,1.126,0,0,0,.793.27,1.462,1.462,0,0,0,1.133-.48A1.735,1.735,0,0,0,33.648,13.75ZM40.391,17H37.922V5.156h2.469Z" transform="translate(807.968 2348.938)" fill="#12263f"/>
    <path id="Trazado_217568" data-name="Trazado 217568" d="M14.047,17H11.555V10.3q0-1.086.094-2.4h-.062a11.8,11.8,0,0,1-.352,1.484L8.609,17H6.547L3.875,9.461A14.67,14.67,0,0,1,3.523,7.9h-.07q.1,1.656.1,2.906V17H1.281V5.8h3.7l2.289,6.641a9.35,9.35,0,0,1,.4,1.6h.047a16.126,16.126,0,0,1,.445-1.617L10.445,5.8h3.6Zm9.492-3.3H18.32q.125,1.742,2.2,1.742a4.286,4.286,0,0,0,2.32-.625V16.6a6.1,6.1,0,0,1-2.883.594,4.058,4.058,0,0,1-3.008-1.074,4.058,4.058,0,0,1-1.07-3,4.281,4.281,0,0,1,1.156-3.156A3.852,3.852,0,0,1,19.875,8.8a3.5,3.5,0,0,1,2.707,1.039,4,4,0,0,1,.957,2.82ZM21.25,12.188q0-1.719-1.391-1.719a1.328,1.328,0,0,0-1.027.492,2.234,2.234,0,0,0-.527,1.227ZM32.734,17H30.273V12.555q0-1.859-1.328-1.859a1.318,1.318,0,0,0-1.055.492,1.875,1.875,0,0,0-.414,1.25V17H25.008V9h2.469v1.266h.031A2.829,2.829,0,0,1,30.078,8.8q2.656,0,2.656,3.3Zm1.43-.211v-2a5.256,5.256,0,0,0,1.215.547,4.028,4.028,0,0,0,1.145.18,2.455,2.455,0,0,0,1.035-.18.581.581,0,0,0,.379-.547.506.506,0,0,0-.172-.391,1.6,1.6,0,0,0-.441-.273,5.009,5.009,0,0,0-.59-.211q-.32-.094-.617-.211a5.914,5.914,0,0,1-.84-.387,2.427,2.427,0,0,1-.609-.48,1.889,1.889,0,0,1-.375-.633,2.525,2.525,0,0,1-.129-.852,2.192,2.192,0,0,1,.293-1.156,2.393,2.393,0,0,1,.781-.793,3.57,3.57,0,0,1,1.117-.453A5.825,5.825,0,0,1,37.664,8.8a7.261,7.261,0,0,1,1.078.082,8.047,8.047,0,0,1,1.078.238v1.906a3.9,3.9,0,0,0-1-.41,4.235,4.235,0,0,0-1.051-.137,2.328,2.328,0,0,0-.457.043,1.505,1.505,0,0,0-.379.125.7.7,0,0,0-.258.211.486.486,0,0,0-.094.293.541.541,0,0,0,.141.375,1.221,1.221,0,0,0,.367.27,3.625,3.625,0,0,0,.5.2q.277.09.551.184a7.161,7.161,0,0,1,.891.375,2.848,2.848,0,0,1,.684.477,1.871,1.871,0,0,1,.438.641A2.563,2.563,0,0,1,40,15.77a2.471,2.471,0,0,1-.82.82,3.72,3.72,0,0,1-1.18.461,6.54,6.54,0,0,1-1.387.145A7.149,7.149,0,0,1,34.164,16.789ZM48.383,17H46.047V15.852h-.031A2.607,2.607,0,0,1,43.633,17.2a2.492,2.492,0,0,1-1.832-.66,2.366,2.366,0,0,1-.668-1.762q0-2.328,2.758-2.687l2.172-.289q0-1.312-1.422-1.312a4.853,4.853,0,0,0-2.719.852V9.477a6.116,6.116,0,0,1,1.41-.469,7.413,7.413,0,0,1,1.629-.2q3.422,0,3.422,3.414Zm-2.32-3.25v-.539l-1.453.188q-1.2.156-1.2,1.086a.9.9,0,0,0,.293.691,1.126,1.126,0,0,0,.793.27,1.462,1.462,0,0,0,1.133-.48A1.735,1.735,0,0,0,46.063,13.75Zm5.523-6.016a1.442,1.442,0,0,1-1.023-.371,1.2,1.2,0,0,1-.4-.91,1.153,1.153,0,0,1,.4-.906,1.671,1.671,0,0,1,2.051,0,1.158,1.158,0,0,1,.395.906,1.191,1.191,0,0,1-.395.922A1.466,1.466,0,0,1,51.586,7.734ZM52.8,16.859a4.349,4.349,0,0,1-.867,2.836,3.041,3.041,0,0,1-2.5,1.063,3.457,3.457,0,0,1-1.18-.234V18.586a1.923,1.923,0,0,0,.914.289q1.164,0,1.164-1.828V9H52.8ZM62.07,13.7H56.852q.125,1.742,2.2,1.742a4.286,4.286,0,0,0,2.32-.625V16.6a6.1,6.1,0,0,1-2.883.594,4.058,4.058,0,0,1-3.008-1.074,4.058,4.058,0,0,1-1.07-3,4.281,4.281,0,0,1,1.156-3.156A3.852,3.852,0,0,1,58.406,8.8a3.5,3.5,0,0,1,2.707,1.039,4,4,0,0,1,.957,2.82Zm-2.289-1.516q0-1.719-1.391-1.719a1.328,1.328,0,0,0-1.027.492,2.234,2.234,0,0,0-.527,1.227Z" transform="translate(807.968 2422.572)" fill="#12263f"/>
    <path id="Trazado_217579" data-name="Trazado 217579" d="M9.313,16.6a7.388,7.388,0,0,1-3.2.594A5.4,5.4,0,0,1,2.055,15.68,5.54,5.54,0,0,1,.578,11.641a5.919,5.919,0,0,1,1.66-4.359A5.807,5.807,0,0,1,6.547,5.609a8.058,8.058,0,0,1,2.766.414v2.43A4.9,4.9,0,0,0,6.75,7.781,3.4,3.4,0,0,0,4.2,8.773a3.682,3.682,0,0,0-.969,2.688,3.611,3.611,0,0,0,.914,2.59,3.229,3.229,0,0,0,2.461.965,5.249,5.249,0,0,0,2.7-.719Zm5.523.594a4.3,4.3,0,0,1-3.145-1.121,4.064,4.064,0,0,1-1.145-3.043,4.065,4.065,0,0,1,1.188-3.105A4.487,4.487,0,0,1,14.945,8.8,4.249,4.249,0,0,1,18.07,9.926,3.985,3.985,0,0,1,19.2,12.891a4.23,4.23,0,0,1-1.168,3.148A4.348,4.348,0,0,1,14.836,17.2Zm.063-6.5a1.647,1.647,0,0,0-1.359.6,2.653,2.653,0,0,0-.484,1.7q0,2.3,1.859,2.3,1.773,0,1.773-2.367Q16.688,10.7,14.9,10.7ZM28.531,17H26.07V12.555q0-1.859-1.328-1.859a1.318,1.318,0,0,0-1.055.492,1.875,1.875,0,0,0-.414,1.25V17H20.8V9h2.469v1.266H23.3A2.829,2.829,0,0,1,25.875,8.8q2.656,0,2.656,3.3Zm6.789-.094a3.649,3.649,0,0,1-1.648.289q-2.609,0-2.609-2.711V10.82h-1.3V9h1.3V7.273l2.461-.7V9h1.8v1.82h-1.8v3.234q0,1.25.992,1.25a1.673,1.673,0,0,0,.8-.227Zm8.516-3.2H38.617q.125,1.742,2.2,1.742a4.286,4.286,0,0,0,2.32-.625V16.6a6.1,6.1,0,0,1-2.883.594,4.058,4.058,0,0,1-3.008-1.074,4.058,4.058,0,0,1-1.07-3,4.281,4.281,0,0,1,1.156-3.156A3.852,3.852,0,0,1,40.172,8.8a3.5,3.5,0,0,1,2.707,1.039,4,4,0,0,1,.957,2.82Zm-2.289-1.516q0-1.719-1.391-1.719a1.328,1.328,0,0,0-1.027.492,2.234,2.234,0,0,0-.527,1.227ZM53.031,9l-2.641,3.875L53.016,17H50.172l-1.156-2.156q-.141-.258-.336-.727h-.031a5.073,5.073,0,0,1-.32.7L47.164,17H44.328l2.7-3.984L44.492,9h2.859l1.141,2.242a4.917,4.917,0,0,1,.32.75h.031a5.285,5.285,0,0,1,.336-.766L50.344,9Zm5.945,7.906a3.649,3.649,0,0,1-1.648.289q-2.609,0-2.609-2.711V10.82h-1.3V9h1.3V7.273l2.461-.7V9h1.8v1.82h-1.8v3.234q0,1.25.992,1.25a1.673,1.673,0,0,0,.8-.227Zm5.141.289a4.3,4.3,0,0,1-3.145-1.121,4.064,4.064,0,0,1-1.145-3.043,4.065,4.065,0,0,1,1.188-3.105A4.487,4.487,0,0,1,64.227,8.8a4.249,4.249,0,0,1,3.125,1.121,3.985,3.985,0,0,1,1.133,2.965,4.23,4.23,0,0,1-1.168,3.148A4.348,4.348,0,0,1,64.117,17.2Zm.063-6.5a1.647,1.647,0,0,0-1.359.6,2.653,2.653,0,0,0-.484,1.7q0,2.3,1.859,2.3,1.773,0,1.773-2.367Q65.969,10.7,64.18,10.7Z" transform="translate(807.968 2550.039)" fill="#12263f"/>
    <path id="Trazado_217565" data-name="Trazado 217565" d="M9.313,16.6a7.388,7.388,0,0,1-3.2.594A5.4,5.4,0,0,1,2.055,15.68,5.54,5.54,0,0,1,.578,11.641a5.919,5.919,0,0,1,1.66-4.359A5.807,5.807,0,0,1,6.547,5.609a8.058,8.058,0,0,1,2.766.414v2.43A4.9,4.9,0,0,0,6.75,7.781,3.4,3.4,0,0,0,4.2,8.773a3.682,3.682,0,0,0-.969,2.688,3.611,3.611,0,0,0,.914,2.59,3.229,3.229,0,0,0,2.461.965,5.249,5.249,0,0,0,2.7-.719Zm5.523.594a4.3,4.3,0,0,1-3.145-1.121,4.064,4.064,0,0,1-1.145-3.043,4.065,4.065,0,0,1,1.188-3.105A4.487,4.487,0,0,1,14.945,8.8,4.249,4.249,0,0,1,18.07,9.926,3.985,3.985,0,0,1,19.2,12.891a4.23,4.23,0,0,1-1.168,3.148A4.348,4.348,0,0,1,14.836,17.2Zm.063-6.5a1.647,1.647,0,0,0-1.359.6,2.653,2.653,0,0,0-.484,1.7q0,2.3,1.859,2.3,1.773,0,1.773-2.367Q16.688,10.7,14.9,10.7ZM28.633,17H26.164V15.9h-.031a2.768,2.768,0,0,1-2.477,1.3,3.033,3.033,0,0,1-2.414-1.059,4.382,4.382,0,0,1-.914-2.957A4.77,4.77,0,0,1,21.336,10a3.287,3.287,0,0,1,2.641-1.2,2.246,2.246,0,0,1,2.156,1.109h.031V5.156h2.469Zm-2.422-3.891v-.6a1.893,1.893,0,0,0-.453-1.3,1.6,1.6,0,0,0-2.461.129,2.993,2.993,0,0,0-.461,1.77,2.59,2.59,0,0,0,.445,1.625,1.581,1.581,0,0,0,2.457-.031A2.507,2.507,0,0,0,26.211,13.109Zm5.75-5.375a1.442,1.442,0,0,1-1.023-.371,1.2,1.2,0,0,1-.4-.91,1.153,1.153,0,0,1,.4-.906,1.671,1.671,0,0,1,2.051,0,1.158,1.158,0,0,1,.395.906,1.191,1.191,0,0,1-.395.922A1.466,1.466,0,0,1,31.961,7.734ZM33.18,17H30.711V9H33.18Zm7.3-9.953a2.494,2.494,0,0,0-.914-.187q-1.188,0-1.187,1.289V9H40.2v1.82H38.375V17H35.914V10.82H34.57V9h1.344V8.008A2.88,2.88,0,0,1,36.8,5.8a3.4,3.4,0,0,1,2.422-.836,4.253,4.253,0,0,1,1.25.156Zm2.164.688a1.442,1.442,0,0,1-1.023-.371,1.2,1.2,0,0,1-.4-.91,1.153,1.153,0,0,1,.4-.906,1.671,1.671,0,0,1,2.051,0,1.158,1.158,0,0,1,.395.906,1.191,1.191,0,0,1-.395.922A1.466,1.466,0,0,1,42.641,7.734ZM43.859,17H41.391V9h2.469ZM52,16.711a4.881,4.881,0,0,1-2.414.484A4.083,4.083,0,0,1,46.6,16.078,3.859,3.859,0,0,1,45.461,13.2,4.251,4.251,0,0,1,46.684,9.98,4.518,4.518,0,0,1,49.953,8.8,4.2,4.2,0,0,1,52,9.18v2.094a2.814,2.814,0,0,0-1.727-.578,2.275,2.275,0,0,0-1.684.621,2.317,2.317,0,0,0-.621,1.715,2.28,2.28,0,0,0,.594,1.668A2.182,2.182,0,0,0,50.2,15.3a3.258,3.258,0,0,0,1.8-.578ZM60.273,17H57.938V15.852h-.031A2.607,2.607,0,0,1,55.523,17.2a2.492,2.492,0,0,1-1.832-.66,2.366,2.366,0,0,1-.668-1.762q0-2.328,2.758-2.687l2.172-.289q0-1.312-1.422-1.312a4.853,4.853,0,0,0-2.719.852V9.477a6.116,6.116,0,0,1,1.41-.469,7.413,7.413,0,0,1,1.629-.2q3.422,0,3.422,3.414Zm-2.32-3.25v-.539L56.5,13.4q-1.2.156-1.2,1.086a.9.9,0,0,0,.293.691,1.126,1.126,0,0,0,.793.27,1.462,1.462,0,0,0,1.133-.48A1.735,1.735,0,0,0,57.953,13.75Zm10.336,2.961a4.881,4.881,0,0,1-2.414.484,4.083,4.083,0,0,1-2.984-1.117A3.859,3.859,0,0,1,61.75,13.2,4.251,4.251,0,0,1,62.973,9.98,4.518,4.518,0,0,1,66.242,8.8a4.2,4.2,0,0,1,2.047.375v2.094a2.814,2.814,0,0,0-1.727-.578,2.275,2.275,0,0,0-1.684.621,2.317,2.317,0,0,0-.621,1.715,2.28,2.28,0,0,0,.594,1.668,2.182,2.182,0,0,0,1.633.605,3.258,3.258,0,0,0,1.8-.578Zm2.867-8.977a1.442,1.442,0,0,1-1.023-.371,1.2,1.2,0,0,1-.4-.91,1.153,1.153,0,0,1,.4-.906,1.671,1.671,0,0,1,2.051,0,1.158,1.158,0,0,1,.395.906,1.191,1.191,0,0,1-.395.922A1.466,1.466,0,0,1,71.156,7.734ZM72.375,17H69.906V9h2.469Zm5.891.2a4.3,4.3,0,0,1-3.145-1.121,4.064,4.064,0,0,1-1.145-3.043,4.065,4.065,0,0,1,1.188-3.105A4.487,4.487,0,0,1,78.375,8.8,4.249,4.249,0,0,1,81.5,9.926a3.985,3.985,0,0,1,1.133,2.965,4.23,4.23,0,0,1-1.168,3.148A4.348,4.348,0,0,1,78.266,17.2Zm.063-6.5a1.647,1.647,0,0,0-1.359.6,2.653,2.653,0,0,0-.484,1.7q0,2.3,1.859,2.3,1.773,0,1.773-2.367Q80.117,10.7,78.328,10.7Zm2.648-5.484L78.531,7.734H76.75l2.031-2.523ZM8.766,37H6.3V32.555Q6.3,30.7,4.977,30.7a1.318,1.318,0,0,0-1.055.492,1.875,1.875,0,0,0-.414,1.25V37H1.039V29H3.508v1.266h.031A2.829,2.829,0,0,1,6.109,28.8q2.656,0,2.656,3.3Z" transform="translate(529.471 2390.209)" fill="#12263f"/>
    <path id="Trazado_217585" data-name="Trazado 217585" d="M10.68,17h-2.9L6.039,14.117q-.2-.328-.375-.586A3.255,3.255,0,0,0,5.3,13.09a1.445,1.445,0,0,0-.383-.281.972.972,0,0,0-.434-.1H3.8V17H1.281V5.8h4q4.078,0,4.078,3.047a3.155,3.155,0,0,1-.18,1.082,3.006,3.006,0,0,1-.508.895,3.219,3.219,0,0,1-.793.688,4.089,4.089,0,0,1-1.035.453v.031a1.606,1.606,0,0,1,.484.254,3.469,3.469,0,0,1,.453.41,5.722,5.722,0,0,1,.418.5q.2.27.363.527ZM3.8,7.688V10.8H4.9a1.813,1.813,0,0,0,1.3-.469,1.564,1.564,0,0,0,.5-1.18q0-1.469-1.758-1.469ZM18.273,13.7H13.055q.125,1.742,2.2,1.742a4.286,4.286,0,0,0,2.32-.625V16.6a6.1,6.1,0,0,1-2.883.594,4.058,4.058,0,0,1-3.008-1.074,4.058,4.058,0,0,1-1.07-3,4.281,4.281,0,0,1,1.156-3.156A3.852,3.852,0,0,1,14.609,8.8a3.5,3.5,0,0,1,2.707,1.039,4,4,0,0,1,.957,2.82Zm-2.289-1.516q0-1.719-1.391-1.719a1.328,1.328,0,0,0-1.027.492,2.234,2.234,0,0,0-.527,1.227Zm9.82,4.523a4.881,4.881,0,0,1-2.414.484,4.083,4.083,0,0,1-2.984-1.117A3.859,3.859,0,0,1,19.266,13.2,4.251,4.251,0,0,1,20.488,9.98,4.518,4.518,0,0,1,23.758,8.8,4.2,4.2,0,0,1,25.8,9.18v2.094a2.814,2.814,0,0,0-1.727-.578,2.275,2.275,0,0,0-1.684.621,2.317,2.317,0,0,0-.621,1.715,2.28,2.28,0,0,0,.594,1.668A2.182,2.182,0,0,0,24,15.3a3.258,3.258,0,0,0,1.8-.578Zm8.8-3.008H29.391q.125,1.742,2.2,1.742a4.286,4.286,0,0,0,2.32-.625V16.6a6.1,6.1,0,0,1-2.883.594,4.058,4.058,0,0,1-3.008-1.074,4.058,4.058,0,0,1-1.07-3A4.281,4.281,0,0,1,28.1,9.969,3.852,3.852,0,0,1,30.945,8.8a3.5,3.5,0,0,1,2.707,1.039,4,4,0,0,1,.957,2.82ZM32.32,12.188q0-1.719-1.391-1.719a1.328,1.328,0,0,0-1.027.492,2.234,2.234,0,0,0-.527,1.227Zm6.258,3.883h-.031V20.68H36.078V9h2.469v1.2h.031a3.142,3.142,0,0,1,4.973-.332,4.54,4.54,0,0,1,.848,2.9,4.922,4.922,0,0,1-.988,3.211A3.222,3.222,0,0,1,40.781,17.2,2.491,2.491,0,0,1,38.578,16.07Zm-.07-3.281v.641a2.037,2.037,0,0,0,.438,1.352,1.424,1.424,0,0,0,1.148.523,1.514,1.514,0,0,0,1.309-.652,3.15,3.15,0,0,0,.465-1.848q0-2.109-1.641-2.109a1.541,1.541,0,0,0-1.238.574A2.29,2.29,0,0,0,38.508,12.789Zm12.328,4.117a3.649,3.649,0,0,1-1.648.289q-2.609,0-2.609-2.711V10.82h-1.3V9h1.3V7.273l2.461-.7V9h1.8v1.82h-1.8v3.234q0,1.25.992,1.25a1.673,1.673,0,0,0,.8-.227Zm5.141.289a4.3,4.3,0,0,1-3.145-1.121,4.064,4.064,0,0,1-1.145-3.043,4.065,4.065,0,0,1,1.188-3.105A4.487,4.487,0,0,1,56.086,8.8a4.249,4.249,0,0,1,3.125,1.121,3.985,3.985,0,0,1,1.133,2.965,4.23,4.23,0,0,1-1.168,3.148A4.348,4.348,0,0,1,55.977,17.2Zm.063-6.5a1.647,1.647,0,0,0-1.359.6A2.653,2.653,0,0,0,54.2,13q0,2.3,1.859,2.3,1.773,0,1.773-2.367Q57.828,10.7,56.039,10.7Zm11.125.531a2.141,2.141,0,0,0-1.039-.242,1.5,1.5,0,0,0-1.258.59,2.573,2.573,0,0,0-.453,1.605V17H61.945V9h2.469v1.484h.031a2.136,2.136,0,0,1,2.109-1.625,1.59,1.59,0,0,1,.609.094Z" transform="translate(1363.69 2388.209)" fill="#12263f"/>
    <path id="Trazado_217561" data-name="Trazado 217561" d="M8,17H1.281V5.8H7.742V7.852H3.8v2.492H7.469v2.047H3.8v2.563H8Zm14.258,0H19.8V12.438q0-1.742-1.281-1.742a1.177,1.177,0,0,0-.992.523,2.151,2.151,0,0,0-.383,1.3V17H14.672V12.391q0-1.7-1.258-1.7a1.206,1.206,0,0,0-1.012.5,2.2,2.2,0,0,0-.379,1.359V17H9.555V9h2.469v1.25h.031A3.031,3.031,0,0,1,14.641,8.8a2.3,2.3,0,0,1,2.32,1.492A2.959,2.959,0,0,1,19.648,8.8q2.609,0,2.609,3.219Zm3.2-9.266a1.442,1.442,0,0,1-1.023-.371,1.2,1.2,0,0,1-.4-.91,1.153,1.153,0,0,1,.4-.906,1.671,1.671,0,0,1,2.051,0,1.158,1.158,0,0,1,.395.906,1.191,1.191,0,0,1-.395.922A1.466,1.466,0,0,1,25.461,7.734ZM26.68,17H24.211V9H26.68Zm1.555-.211v-2a5.256,5.256,0,0,0,1.215.547,4.028,4.028,0,0,0,1.145.18,2.455,2.455,0,0,0,1.035-.18.581.581,0,0,0,.379-.547.506.506,0,0,0-.172-.391,1.6,1.6,0,0,0-.441-.273,5.009,5.009,0,0,0-.59-.211q-.32-.094-.617-.211a5.913,5.913,0,0,1-.84-.387,2.427,2.427,0,0,1-.609-.48,1.889,1.889,0,0,1-.375-.633,2.525,2.525,0,0,1-.129-.852,2.192,2.192,0,0,1,.293-1.156,2.393,2.393,0,0,1,.781-.793,3.57,3.57,0,0,1,1.117-.453A5.825,5.825,0,0,1,31.734,8.8a7.261,7.261,0,0,1,1.078.082,8.047,8.047,0,0,1,1.078.238v1.906a3.9,3.9,0,0,0-1-.41,4.235,4.235,0,0,0-1.051-.137,2.328,2.328,0,0,0-.457.043,1.505,1.505,0,0,0-.379.125.7.7,0,0,0-.258.211.486.486,0,0,0-.094.293.541.541,0,0,0,.141.375,1.221,1.221,0,0,0,.367.27,3.625,3.625,0,0,0,.5.2q.277.09.551.184a7.161,7.161,0,0,1,.891.375,2.848,2.848,0,0,1,.684.477,1.871,1.871,0,0,1,.438.641,2.563,2.563,0,0,1-.156,2.09,2.471,2.471,0,0,1-.82.82,3.72,3.72,0,0,1-1.18.461,6.54,6.54,0,0,1-1.387.145A7.149,7.149,0,0,1,28.234,16.789Zm11.375.406a4.3,4.3,0,0,1-3.145-1.121,4.064,4.064,0,0,1-1.145-3.043,4.065,4.065,0,0,1,1.188-3.105A4.487,4.487,0,0,1,39.719,8.8a4.249,4.249,0,0,1,3.125,1.121,3.985,3.985,0,0,1,1.133,2.965,4.23,4.23,0,0,1-1.168,3.148A4.348,4.348,0,0,1,39.609,17.2Zm.063-6.5a1.647,1.647,0,0,0-1.359.6,2.653,2.653,0,0,0-.484,1.7q0,2.3,1.859,2.3,1.773,0,1.773-2.367Q41.461,10.7,39.672,10.7Zm11.125.531a2.142,2.142,0,0,0-1.039-.242,1.5,1.5,0,0,0-1.258.59,2.573,2.573,0,0,0-.453,1.605V17H45.578V9h2.469v1.484h.031a2.136,2.136,0,0,1,2.109-1.625,1.59,1.59,0,0,1,.609.094Z" transform="translate(293.64 2388.209)" fill="#12263f"/>
    <path id="Trazado_217569" data-name="Trazado 217569" d="M1.281,17V5.8H5.25q5.969,0,5.969,5.461a5.522,5.522,0,0,1-1.629,4.18A6.007,6.007,0,0,1,5.25,17ZM3.8,7.852v7.1h1.25a3.378,3.378,0,0,0,2.574-.984,3.735,3.735,0,0,0,.934-2.68,3.388,3.388,0,0,0-.926-2.52,3.529,3.529,0,0,0-2.6-.918ZM20.023,13.7H14.8q.125,1.742,2.2,1.742a4.286,4.286,0,0,0,2.32-.625V16.6a6.1,6.1,0,0,1-2.883.594,4.058,4.058,0,0,1-3.008-1.074,4.058,4.058,0,0,1-1.07-3,4.281,4.281,0,0,1,1.156-3.156A3.852,3.852,0,0,1,16.359,8.8a3.5,3.5,0,0,1,2.707,1.039,4,4,0,0,1,.957,2.82Zm-2.289-1.516q0-1.719-1.391-1.719a1.328,1.328,0,0,0-1.027.492,2.234,2.234,0,0,0-.527,1.227Zm9.82,4.523a4.881,4.881,0,0,1-2.414.484,4.083,4.083,0,0,1-2.984-1.117A3.859,3.859,0,0,1,21.016,13.2,4.251,4.251,0,0,1,22.238,9.98,4.518,4.518,0,0,1,25.508,8.8a4.2,4.2,0,0,1,2.047.375v2.094a2.814,2.814,0,0,0-1.727-.578,2.275,2.275,0,0,0-1.684.621,2.317,2.317,0,0,0-.621,1.715,2.28,2.28,0,0,0,.594,1.668,2.182,2.182,0,0,0,1.633.605,3.258,3.258,0,0,0,1.8-.578Zm5.43.484a4.3,4.3,0,0,1-3.145-1.121A4.064,4.064,0,0,1,28.7,13.031a4.065,4.065,0,0,1,1.188-3.105A4.487,4.487,0,0,1,33.094,8.8a4.249,4.249,0,0,1,3.125,1.121,3.985,3.985,0,0,1,1.133,2.965,4.23,4.23,0,0,1-1.168,3.148A4.348,4.348,0,0,1,32.984,17.2Zm.063-6.5a1.647,1.647,0,0,0-1.359.6A2.653,2.653,0,0,0,31.2,13q0,2.3,1.859,2.3,1.773,0,1.773-2.367Q34.836,10.7,33.047,10.7ZM46.781,17H44.313V15.9h-.031A2.768,2.768,0,0,1,41.8,17.2a3.033,3.033,0,0,1-2.414-1.059,4.382,4.382,0,0,1-.914-2.957A4.77,4.77,0,0,1,39.484,10a3.287,3.287,0,0,1,2.641-1.2,2.246,2.246,0,0,1,2.156,1.109h.031V5.156h2.469Zm-2.422-3.891v-.6a1.893,1.893,0,0,0-.453-1.3,1.6,1.6,0,0,0-2.461.129,2.993,2.993,0,0,0-.461,1.77,2.59,2.59,0,0,0,.445,1.625,1.581,1.581,0,0,0,2.457-.031A2.507,2.507,0,0,0,44.359,13.109Zm5.75-5.375a1.442,1.442,0,0,1-1.023-.371,1.2,1.2,0,0,1-.4-.91,1.153,1.153,0,0,1,.4-.906,1.671,1.671,0,0,1,2.051,0,1.158,1.158,0,0,1,.395.906,1.191,1.191,0,0,1-.395.922A1.466,1.466,0,0,1,50.109,7.734ZM51.328,17H48.859V9h2.469Zm7.3-9.953a2.494,2.494,0,0,0-.914-.187q-1.188,0-1.187,1.289V9h1.828v1.82H56.523V17H54.063V10.82H52.719V9h1.344V8.008a2.88,2.88,0,0,1,.891-2.2,3.4,3.4,0,0,1,2.422-.836,4.253,4.253,0,0,1,1.25.156Zm2.164.688a1.442,1.442,0,0,1-1.023-.371,1.2,1.2,0,0,1-.4-.91,1.153,1.153,0,0,1,.4-.906,1.671,1.671,0,0,1,2.051,0,1.158,1.158,0,0,1,.395.906,1.191,1.191,0,0,1-.395.922A1.466,1.466,0,0,1,60.789,7.734ZM62.008,17H59.539V9h2.469Zm8.141-.289a4.881,4.881,0,0,1-2.414.484,4.083,4.083,0,0,1-2.984-1.117A3.859,3.859,0,0,1,63.609,13.2,4.251,4.251,0,0,1,64.832,9.98,4.518,4.518,0,0,1,68.1,8.8a4.2,4.2,0,0,1,2.047.375v2.094a2.814,2.814,0,0,0-1.727-.578,2.275,2.275,0,0,0-1.684.621,2.317,2.317,0,0,0-.621,1.715,2.28,2.28,0,0,0,.594,1.668,2.182,2.182,0,0,0,1.633.605,3.258,3.258,0,0,0,1.8-.578ZM78.422,17H76.086V15.852h-.031A2.607,2.607,0,0,1,73.672,17.2a2.492,2.492,0,0,1-1.832-.66,2.366,2.366,0,0,1-.668-1.762q0-2.328,2.758-2.687L76.1,11.8q0-1.312-1.422-1.312a4.853,4.853,0,0,0-2.719.852V9.477a6.116,6.116,0,0,1,1.41-.469A7.413,7.413,0,0,1,75,8.8q3.422,0,3.422,3.414ZM76.1,13.75v-.539l-1.453.188q-1.2.156-1.2,1.086a.9.9,0,0,0,.293.691,1.126,1.126,0,0,0,.793.27,1.462,1.462,0,0,0,1.133-.48A1.735,1.735,0,0,0,76.1,13.75Zm10.336,2.961a4.881,4.881,0,0,1-2.414.484,4.083,4.083,0,0,1-2.984-1.117A3.859,3.859,0,0,1,79.9,13.2,4.251,4.251,0,0,1,81.121,9.98,4.518,4.518,0,0,1,84.391,8.8a4.2,4.2,0,0,1,2.047.375v2.094a2.814,2.814,0,0,0-1.727-.578,2.275,2.275,0,0,0-1.684.621,2.317,2.317,0,0,0-.621,1.715A2.28,2.28,0,0,0,83,14.7a2.182,2.182,0,0,0,1.633.605,3.258,3.258,0,0,0,1.8-.578ZM89.3,7.734a1.442,1.442,0,0,1-1.023-.371,1.2,1.2,0,0,1-.4-.91,1.153,1.153,0,0,1,.4-.906,1.671,1.671,0,0,1,2.051,0,1.158,1.158,0,0,1,.395.906,1.191,1.191,0,0,1-.395.922A1.466,1.466,0,0,1,89.3,7.734ZM90.523,17H88.055V9h2.469Zm5.891.2a4.3,4.3,0,0,1-3.145-1.121,4.064,4.064,0,0,1-1.145-3.043,4.065,4.065,0,0,1,1.188-3.105A4.487,4.487,0,0,1,96.523,8.8a4.249,4.249,0,0,1,3.125,1.121,3.985,3.985,0,0,1,1.133,2.965,4.23,4.23,0,0,1-1.168,3.148A4.348,4.348,0,0,1,96.414,17.2Zm.063-6.5a1.647,1.647,0,0,0-1.359.6,2.653,2.653,0,0,0-.484,1.7q0,2.3,1.859,2.3,1.773,0,1.773-2.367Q98.266,10.7,96.477,10.7Zm2.648-5.484L96.68,7.734H94.9L96.93,5.211ZM8.766,37H6.3V32.555Q6.3,30.7,4.977,30.7a1.318,1.318,0,0,0-1.055.492,1.875,1.875,0,0,0-.414,1.25V37H1.039V29H3.508v1.266h.031A2.829,2.829,0,0,1,6.109,28.8q2.656,0,2.656,3.3Z" transform="translate(1068.963 2388.209)" fill="#12263f"/>
    <path id="Trazado_217554" data-name="Trazado 217554" d="M14.185.61q-12.5,0-12.5-17.554,0-9.106,3.381-13.879t9.8-4.773q12.207,0,12.207,17.847,0,8.887-3.333,13.623A10.978,10.978,0,0,1,14.185.61Zm.342-30.322q-5,0-5,12.573Q9.521-5.3,14.429-5.3q4.785,0,4.785-12.207T14.526-29.712ZM31.616-1.147V-7.861a13.551,13.551,0,0,0,8.2,2.563,7.385,7.385,0,0,0,4.6-1.27,4.215,4.215,0,0,0,1.648-3.54,4.024,4.024,0,0,0-2.039-3.613,10.561,10.561,0,0,0-5.6-1.27H35.181V-20.9h3q6.836,0,6.836-4.541,0-4.272-5.249-4.272a11.967,11.967,0,0,0-6.836,2.271v-6.3A18.88,18.88,0,0,1,41.528-35.6q5.371,0,8.362,2.417A7.692,7.692,0,0,1,52.881-26.9q0,6.86-6.958,8.594v.122a9.459,9.459,0,0,1,5.859,2.7,7.607,7.607,0,0,1,2.148,5.481,9.393,9.393,0,0,1-3.589,7.764Q46.753.61,40.43.61A19.157,19.157,0,0,1,31.616-1.147Z" transform="translate(745.198 2373.747)" fill="#12263f" opacity="0.273"/>
    <path id="Trazado_217570" data-name="Trazado 217570" d="M14.185.61q-12.5,0-12.5-17.554,0-9.106,3.381-13.879t9.8-4.773q12.207,0,12.207,17.847,0,8.887-3.333,13.623A10.978,10.978,0,0,1,14.185.61Zm.342-30.322q-5,0-5,12.573Q9.521-5.3,14.429-5.3q4.785,0,4.785-12.207T14.526-29.712ZM52-35.01v22.07h4.2v5.762H52V0H44.971V-7.178H29.712v-6.03q2.026-2.271,4.2-4.968t4.2-5.554q2.026-2.856,3.772-5.75a57.634,57.634,0,0,0,2.966-5.53ZM36.621-12.939h8.35V-25.171q-.854,1.587-1.855,3.21t-2.1,3.2q-1.1,1.575-2.222,3.052T36.621-12.939Z" transform="translate(745.198 2449)" fill="#12263f" opacity="0.273"/>
    <path id="Trazado_217576" data-name="Trazado 217576" d="M14.185.61q-12.5,0-12.5-17.554,0-9.106,3.381-13.879t9.8-4.773q12.207,0,12.207,17.847,0,8.887-3.333,13.623A10.978,10.978,0,0,1,14.185.61Zm.342-30.322q-5,0-5,12.573Q9.521-5.3,14.429-5.3q4.785,0,4.785-12.207T14.526-29.712Zm40.942-.854q-2.344,4.224-4.2,7.922T48-15.344A68.842,68.842,0,0,0,45.581-8.02,70.745,70.745,0,0,0,43.945,0H35.889A65.92,65.92,0,0,1,37.7-7.861,73.726,73.726,0,0,1,40.3-15.2q1.477-3.552,3.271-6.921t3.8-6.592H31.1v-6.3H55.469Z" transform="translate(745.198 2576.467)" fill="#12263f" opacity="0.273"/>
    <path id="Trazado_217557" data-name="Trazado 217557" d="M14.185.61q-12.5,0-12.5-17.554,0-9.106,3.381-13.879t9.8-4.773q12.207,0,12.207,17.847,0,8.887-3.333,13.623A10.978,10.978,0,0,1,14.185.61Zm.342-30.322q-5,0-5,12.573Q9.521-5.3,14.429-5.3q4.785,0,4.785-12.207T14.526-29.712ZM39.233-6.4H54.077V0H30.786V-2.637a12.273,12.273,0,0,1,.9-4.822,16,16,0,0,1,2.271-3.833,19.7,19.7,0,0,1,2.991-3q1.624-1.306,3.088-2.356,1.538-1.1,2.7-2.1a15.373,15.373,0,0,0,1.953-1.99,7.565,7.565,0,0,0,1.184-2,5.954,5.954,0,0,0,.391-2.161A4.342,4.342,0,0,0,45-28.3a5.644,5.644,0,0,0-3.882-1.147,13.038,13.038,0,0,0-8.643,3.589v-6.787a18.552,18.552,0,0,1,10.3-2.954,15.216,15.216,0,0,1,4.773.7,10.1,10.1,0,0,1,3.577,1.99,8.486,8.486,0,0,1,2.234,3.137,10.587,10.587,0,0,1,.769,4.114,11.6,11.6,0,0,1-.745,4.3A13.2,13.2,0,0,1,51.4-17.944a17.938,17.938,0,0,1-2.844,2.82q-1.611,1.282-3.345,2.478-1.172.83-2.258,1.648A21.41,21.41,0,0,0,41.04-9.387a8.747,8.747,0,0,0-1.318,1.55A2.676,2.676,0,0,0,39.233-6.4Z" transform="translate(473.597 2414.638)" fill="#12263f" opacity="0.273"/>
    <path id="Trazado_217583" data-name="Trazado 217583" d="M14.185.61q-12.5,0-12.5-17.554,0-9.106,3.381-13.879t9.8-4.773q12.207,0,12.207,17.847,0,8.887-3.333,13.623A10.978,10.978,0,0,1,14.185.61Zm.342-30.322q-5,0-5,12.573Q9.521-5.3,14.429-5.3q4.785,0,4.785-12.207T14.526-29.712ZM55.859-11.646a12.833,12.833,0,0,1-.9,4.834,11.8,11.8,0,0,1-2.515,3.894A11.635,11.635,0,0,1,48.608-.33,12.342,12.342,0,0,1,43.75.61a12.255,12.255,0,0,1-5.286-1.1,10.669,10.669,0,0,1-3.943-3.186,14.9,14.9,0,0,1-2.466-5.115,25.276,25.276,0,0,1-.854-6.86,28.245,28.245,0,0,1,1.111-8.191,18.806,18.806,0,0,1,3.174-6.287,14.256,14.256,0,0,1,4.993-4.041A14.846,14.846,0,0,1,47.07-35.6a16.626,16.626,0,0,1,6.3.952V-28.2a11.551,11.551,0,0,0-5.811-1.514,8.119,8.119,0,0,0-3.54.757A7.825,7.825,0,0,0,41.3-26.807a10.388,10.388,0,0,0-1.782,3.357,14.94,14.94,0,0,0-.7,4.382h.146a8.491,8.491,0,0,1,7.349-3.442,9.575,9.575,0,0,1,3.931.781,8.527,8.527,0,0,1,3,2.209,10.136,10.136,0,0,1,1.929,3.43A13.685,13.685,0,0,1,55.859-11.646Zm-7.544.488q0-5.64-4.614-5.64a4.527,4.527,0,0,0-1.9.391,4.237,4.237,0,0,0-1.465,1.1,5.012,5.012,0,0,0-.94,1.672,6.573,6.573,0,0,0-.33,2.136A8.262,8.262,0,0,0,39.4-9.082a6.419,6.419,0,0,0,.964,1.965,4.776,4.776,0,0,0,1.477,1.331,3.77,3.77,0,0,0,1.9.488,4.123,4.123,0,0,0,1.892-.427,4.237,4.237,0,0,0,1.44-1.2A5.5,5.5,0,0,0,48-8.777,8.464,8.464,0,0,0,48.315-11.157Z" transform="translate(1300.92 2414.638)" fill="#12263f" opacity="0.273"/>
    <path id="Trazado_217558" data-name="Trazado 217558" d="M14.185.61q-12.5,0-12.5-17.554,0-9.106,3.381-13.879t9.8-4.773q12.207,0,12.207,17.847,0,8.887-3.333,13.623A10.978,10.978,0,0,1,14.185.61Zm.342-30.322q-5,0-5,12.573Q9.521-5.3,14.429-5.3q4.785,0,4.785-12.207T14.526-29.712Zm34.546-6.079V0h-7.69V-27.1a9.209,9.209,0,0,1-1.5,1.062,15.5,15.5,0,0,1-1.843.9,16.459,16.459,0,0,1-2.026.684,14.8,14.8,0,0,1-2.075.4v-6.494A32.08,32.08,0,0,0,39.6-32.788a32.234,32.234,0,0,0,4.81-3Z" transform="translate(230.87 2414.638)" fill="#12263f" opacity="0.273"/>
    <path id="Trazado_217571" data-name="Trazado 217571" d="M14.185.61q-12.5,0-12.5-17.554,0-9.106,3.381-13.879t9.8-4.773q12.207,0,12.207,17.847,0,8.887-3.333,13.623A10.978,10.978,0,0,1,14.185.61Zm.342-30.322q-5,0-5,12.573Q9.521-5.3,14.429-5.3q4.785,0,4.785-12.207T14.526-29.712ZM32.227-.9V-7.5a14.391,14.391,0,0,0,7.642,2.2A7.178,7.178,0,0,0,44.641-6.75a4.89,4.89,0,0,0,1.721-3.943q0-5.2-7.349-5.2a54.416,54.416,0,0,0-6.25.415L34.082-35.01h18.53v6.3H39.966L39.478-21.7q1.88-.146,3.247-.146,5.4,0,8.447,2.832A9.889,9.889,0,0,1,54.224-11.4a11.243,11.243,0,0,1-3.638,8.655Q46.948.61,40.723.61A21.106,21.106,0,0,1,32.227-.9Z" transform="translate(1006.193 2414.638)" fill="#12263f" opacity="0.273"/>
    <g id="Grupo_175017" data-name="Grupo 175017" transform="translate(169.243 2369.781)">
      <g id="Grupo_18423" data-name="Grupo 18423" transform="translate(0 0)">
        <g id="Grupo_18421" data-name="Grupo 18421">
          <g id="Grupo_18420" data-name="Grupo 18420">
            <g id="Grupo_18419" data-name="Grupo 18419">
              <path id="Trazado_40936" data-name="Trazado 40936" d="M250.48,2173.649a27.929,27.929,0,1,1-27.928-27.927A27.928,27.928,0,0,1,250.48,2173.649Z" transform="translate(-194.623 -2145.722)" fill="#fff"/>
            </g>
          </g>
        </g>
        <g transform="matrix(1, 0, 0, 1, -6.79, -279.33)" filter="url(#Trazado_40937)">
          <path id="Trazado_40937-8" data-name="Trazado 40937" d="M250.621,2173.8a27.928,27.928,0,1,0-27.928,27.929A27.817,27.817,0,0,0,250.621,2173.8Z" transform="translate(-187.98 -1866.55)" fill="url(#radial-gradient)"/>
        </g>
        <path id="Trazado_40938" data-name="Trazado 40938" d="M245.38,2175.178a21.318,21.318,0,1,0-21.318,21.318A21.239,21.239,0,0,0,245.38,2175.178Z" transform="translate(-196.048 -2147.158)" fill="none" stroke="#8152c0" stroke-miterlimit="10" stroke-width="3"/>
        <g id="Grupo_18422" data-name="Grupo 18422" transform="translate(4.948 15.68)">
          <path id="Trazado_40939" data-name="Trazado 40939" d="M248.631,2164.489a27.932,27.932,0,0,1-48.086,27.813,27.843,27.843,0,0,0,48.086-27.813Z" transform="translate(-200.545 -2164.489)" fill="#eceef0"/>
        </g>
      </g>
    </g>
    <path id="Trazado_217304" data-name="Trazado 217304" d="M2683.578-9514.857v228.24H3728.934v-228.24" transform="translate(-2386.04 11966)" fill="none" stroke="#006aca" stroke-width="6"/>
    <path id="Trazado_217562" data-name="Trazado 217562" d="M22.488-9H15.345v7.144H11.6V-9H4.416v-3.767H11.6v-7.181h3.748v7.181h7.144Z" transform="translate(187 2411)" fill="#7f4fc7"/>
    <g id="Grupo_175021" data-name="Grupo 175021" transform="translate(416.307 2369.781)">
      <g id="Grupo_18423-2" data-name="Grupo 18423" transform="translate(0 0)">
        <g id="Grupo_18421-2" data-name="Grupo 18421">
          <g id="Grupo_18420-2" data-name="Grupo 18420">
            <g id="Grupo_18419-2" data-name="Grupo 18419">
              <path id="Trazado_40936-2" data-name="Trazado 40936" d="M250.48,2173.649a27.929,27.929,0,1,1-27.928-27.927A27.928,27.928,0,0,1,250.48,2173.649Z" transform="translate(-194.623 -2145.722)" fill="#fff"/>
            </g>
          </g>
        </g>
        <g transform="matrix(1, 0, 0, 1, -253.85, -279.33)" filter="url(#Trazado_40937-2)">
          <path id="Trazado_40937-9" data-name="Trazado 40937" d="M250.621,2173.8a27.928,27.928,0,1,0-27.928,27.929A27.817,27.817,0,0,0,250.621,2173.8Z" transform="translate(59.09 -1866.55)" fill="url(#radial-gradient)"/>
        </g>
        <path id="Trazado_40938-2" data-name="Trazado 40938" d="M245.38,2175.178a21.318,21.318,0,1,0-21.318,21.318A21.239,21.239,0,0,0,245.38,2175.178Z" transform="translate(-196.048 -2147.158)" fill="none" stroke="#8152c0" stroke-miterlimit="10" stroke-width="3"/>
        <g id="Grupo_18422-2" data-name="Grupo 18422" transform="translate(4.948 15.68)">
          <path id="Trazado_40939-2" data-name="Trazado 40939" d="M248.631,2164.489a27.932,27.932,0,0,1-48.086,27.813,27.843,27.843,0,0,0,48.086-27.813Z" transform="translate(-200.545 -2164.489)" fill="#eceef0"/>
        </g>
      </g>
    </g>
    <path id="Trazado_217563" data-name="Trazado 217563" d="M22.488-9H15.345v7.144H11.6V-9H4.416v-3.767H11.6v-7.181h3.748v7.181h7.144Z" transform="translate(434.064 2411)" fill="#7f4fc7"/>
    <g id="Grupo_175022" data-name="Grupo 175022" transform="translate(683.57 2327.747)">
      <g id="Grupo_18423-3" data-name="Grupo 18423" transform="translate(0 0)">
        <g id="Grupo_18421-3" data-name="Grupo 18421">
          <g id="Grupo_18420-3" data-name="Grupo 18420">
            <g id="Grupo_18419-3" data-name="Grupo 18419">
              <path id="Trazado_40936-3" data-name="Trazado 40936" d="M250.48,2173.649a27.929,27.929,0,1,1-27.928-27.927A27.928,27.928,0,0,1,250.48,2173.649Z" transform="translate(-194.623 -2145.722)" fill="#fff"/>
            </g>
          </g>
        </g>
        <g transform="matrix(1, 0, 0, 1, -521.11, -237.29)" filter="url(#Trazado_40937-3)">
          <path id="Trazado_40937-10" data-name="Trazado 40937" d="M250.621,2173.8a27.928,27.928,0,1,0-27.928,27.929A27.817,27.817,0,0,0,250.621,2173.8Z" transform="translate(326.35 -1908.58)" fill="url(#radial-gradient)"/>
        </g>
        <path id="Trazado_40938-3" data-name="Trazado 40938" d="M245.38,2175.178a21.318,21.318,0,1,0-21.318,21.318A21.239,21.239,0,0,0,245.38,2175.178Z" transform="translate(-196.048 -2147.158)" fill="none" stroke="#8152c0" stroke-miterlimit="10" stroke-width="3"/>
        <g id="Grupo_18422-3" data-name="Grupo 18422" transform="translate(4.948 15.68)">
          <path id="Trazado_40939-3" data-name="Trazado 40939" d="M248.631,2164.489a27.932,27.932,0,0,1-48.086,27.813,27.843,27.843,0,0,0,48.086-27.813Z" transform="translate(-200.545 -2164.489)" fill="#eceef0"/>
        </g>
      </g>
    </g>
    <path id="Trazado_217555" data-name="Trazado 217555" d="M22.488-9H15.345v7.144H11.6V-9H4.416v-3.767H11.6v-7.181h3.748v7.181h7.144Z" transform="translate(701.327 2368.966)" fill="#7f4fc7"/>
    <g id="Grupo_175023" data-name="Grupo 175023" transform="translate(683.57 2406.209)">
      <g id="Grupo_18423-4" data-name="Grupo 18423" transform="translate(0 0)">
        <g id="Grupo_18421-4" data-name="Grupo 18421">
          <g id="Grupo_18420-4" data-name="Grupo 18420">
            <g id="Grupo_18419-4" data-name="Grupo 18419">
              <path id="Trazado_40936-4" data-name="Trazado 40936" d="M250.48,2173.649a27.929,27.929,0,1,1-27.928-27.927A27.928,27.928,0,0,1,250.48,2173.649Z" transform="translate(-194.623 -2145.722)" fill="#fff"/>
            </g>
          </g>
        </g>
        <g transform="matrix(1, 0, 0, 1, -521.11, -315.75)" filter="url(#Trazado_40937-4)">
          <path id="Trazado_40937-11" data-name="Trazado 40937" d="M250.621,2173.8a27.928,27.928,0,1,0-27.928,27.929A27.817,27.817,0,0,0,250.621,2173.8Z" transform="translate(326.35 -1830.12)" fill="url(#radial-gradient)"/>
        </g>
        <path id="Trazado_40938-4" data-name="Trazado 40938" d="M245.38,2175.178a21.318,21.318,0,1,0-21.318,21.318A21.239,21.239,0,0,0,245.38,2175.178Z" transform="translate(-196.048 -2147.158)" fill="none" stroke="#8152c0" stroke-miterlimit="10" stroke-width="3"/>
        <g id="Grupo_18422-4" data-name="Grupo 18422" transform="translate(4.948 15.68)">
          <path id="Trazado_40939-4" data-name="Trazado 40939" d="M248.631,2164.489a27.932,27.932,0,0,1-48.086,27.813,27.843,27.843,0,0,0,48.086-27.813Z" transform="translate(-200.545 -2164.489)" fill="#eceef0"/>
        </g>
      </g>
    </g>
    <g id="Grupo_175026" data-name="Grupo 175026" transform="translate(683.57 2533.676)">
      <g id="Grupo_18423-5" data-name="Grupo 18423" transform="translate(0 0)">
        <g id="Grupo_18421-5" data-name="Grupo 18421">
          <g id="Grupo_18420-5" data-name="Grupo 18420">
            <g id="Grupo_18419-5" data-name="Grupo 18419">
              <path id="Trazado_40936-5" data-name="Trazado 40936" d="M250.48,2173.649a27.929,27.929,0,1,1-27.928-27.927A27.928,27.928,0,0,1,250.48,2173.649Z" transform="translate(-194.623 -2145.722)" fill="#fff"/>
            </g>
          </g>
        </g>
        <g transform="matrix(1, 0, 0, 1, -521.11, -443.22)" filter="url(#Trazado_40937-5)">
          <path id="Trazado_40937-12" data-name="Trazado 40937" d="M250.621,2173.8a27.928,27.928,0,1,0-27.928,27.929A27.817,27.817,0,0,0,250.621,2173.8Z" transform="translate(326.35 -1702.65)" fill="url(#radial-gradient)"/>
        </g>
        <path id="Trazado_40938-5" data-name="Trazado 40938" d="M245.38,2175.178a21.318,21.318,0,1,0-21.318,21.318A21.239,21.239,0,0,0,245.38,2175.178Z" transform="translate(-196.048 -2147.158)" fill="none" stroke="#8152c0" stroke-miterlimit="10" stroke-width="3"/>
        <g id="Grupo_18422-5" data-name="Grupo 18422" transform="translate(4.948 15.68)">
          <path id="Trazado_40939-5" data-name="Trazado 40939" d="M248.631,2164.489a27.932,27.932,0,0,1-48.086,27.813,27.843,27.843,0,0,0,48.086-27.813Z" transform="translate(-200.545 -2164.489)" fill="#eceef0"/>
        </g>
      </g>
    </g>
    <path id="Trazado_217572" data-name="Trazado 217572" d="M22.488-9H15.345v7.144H11.6V-9H4.416v-3.767H11.6v-7.181h3.748v7.181h7.144Z" transform="translate(701.327 2447.428)" fill="#7f4fc7"/>
    <path id="Trazado_217578" data-name="Trazado 217578" d="M22.488-9H15.345v7.144H11.6V-9H4.416v-3.767H11.6v-7.181h3.748v7.181h7.144Z" transform="translate(701.327 2574.895)" fill="#7f4fc7"/>
    <g id="Grupo_175024" data-name="Grupo 175024" transform="translate(944.565 2369.781)">
      <g id="Grupo_18423-6" data-name="Grupo 18423" transform="translate(0 0)">
        <g id="Grupo_18421-6" data-name="Grupo 18421">
          <g id="Grupo_18420-6" data-name="Grupo 18420">
            <g id="Grupo_18419-6" data-name="Grupo 18419">
              <path id="Trazado_40936-6" data-name="Trazado 40936" d="M250.48,2173.649a27.929,27.929,0,1,1-27.928-27.927A27.928,27.928,0,0,1,250.48,2173.649Z" transform="translate(-194.623 -2145.722)" fill="#fff"/>
            </g>
          </g>
        </g>
        <g transform="matrix(1, 0, 0, 1, -782.11, -279.33)" filter="url(#Trazado_40937-6)">
          <path id="Trazado_40937-13" data-name="Trazado 40937" d="M250.621,2173.8a27.928,27.928,0,1,0-27.928,27.929A27.817,27.817,0,0,0,250.621,2173.8Z" transform="translate(587.35 -1866.55)" fill="url(#radial-gradient)"/>
        </g>
        <path id="Trazado_40938-6" data-name="Trazado 40938" d="M245.38,2175.178a21.318,21.318,0,1,0-21.318,21.318A21.239,21.239,0,0,0,245.38,2175.178Z" transform="translate(-196.048 -2147.158)" fill="none" stroke="#8152c0" stroke-miterlimit="10" stroke-width="3"/>
        <g id="Grupo_18422-6" data-name="Grupo 18422" transform="translate(4.948 15.68)">
          <path id="Trazado_40939-6" data-name="Trazado 40939" d="M248.631,2164.489a27.932,27.932,0,0,1-48.086,27.813,27.843,27.843,0,0,0,48.086-27.813Z" transform="translate(-200.545 -2164.489)" fill="#eceef0"/>
        </g>
      </g>
    </g>
    <g id="Grupo_175025" data-name="Grupo 175025" transform="translate(1239.292 2369.781)">
      <g id="Grupo_18423-7" data-name="Grupo 18423" transform="translate(0 0)">
        <g id="Grupo_18421-7" data-name="Grupo 18421">
          <g id="Grupo_18420-7" data-name="Grupo 18420">
            <g id="Grupo_18419-7" data-name="Grupo 18419">
              <path id="Trazado_40936-7" data-name="Trazado 40936" d="M250.48,2173.649a27.929,27.929,0,1,1-27.928-27.927A27.928,27.928,0,0,1,250.48,2173.649Z" transform="translate(-194.623 -2145.722)" fill="#fff"/>
            </g>
          </g>
        </g>
        <g transform="matrix(1, 0, 0, 1, -1076.84, -279.33)" filter="url(#Trazado_40937-7)">
          <path id="Trazado_40937-14" data-name="Trazado 40937" d="M250.621,2173.8a27.928,27.928,0,1,0-27.928,27.929A27.817,27.817,0,0,0,250.621,2173.8Z" transform="translate(882.07 -1866.55)" fill="url(#radial-gradient)"/>
        </g>
        <path id="Trazado_40938-7" data-name="Trazado 40938" d="M245.38,2175.178a21.318,21.318,0,1,0-21.318,21.318A21.239,21.239,0,0,0,245.38,2175.178Z" transform="translate(-196.048 -2147.158)" fill="none" stroke="#8152c0" stroke-miterlimit="10" stroke-width="3"/>
        <g id="Grupo_18422-7" data-name="Grupo 18422" transform="translate(4.948 15.68)">
          <path id="Trazado_40939-7" data-name="Trazado 40939" d="M248.631,2164.489a27.932,27.932,0,0,1-48.086,27.813,27.843,27.843,0,0,0,48.086-27.813Z" transform="translate(-200.545 -2164.489)" fill="#eceef0"/>
        </g>
      </g>
    </g>
    <path id="Trazado_217566" data-name="Trazado 217566" d="M22.488-9H15.345v7.144H11.6V-9H4.416v-3.767H11.6v-7.181h3.748v7.181h7.144Z" transform="translate(962.323 2411)" fill="#7f4fc7"/>
    <path id="Trazado_217581" data-name="Trazado 217581" d="M22.488-9H15.345v7.144H11.6V-9H4.416v-3.767H11.6v-7.181h3.748v7.181h7.144Z" transform="translate(1257.05 2411)" fill="#7f4fc7"/>
    <path id="Trazado_217584" data-name="Trazado 217584" d="M10,0H195.121a10,10,0,0,1,10,10V48a10,10,0,0,1-10,10H10A10,10,0,0,1,0,48V10A10,10,0,0,1,10,0Z" transform="translate(670.137 2650.383)" fill="url(#linear-gradient-8)"/>
    <path id="Trazado_217550" data-name="Trazado 217550" d="M10,0H328.98a10,10,0,0,1,10,10V48a10,10,0,0,1-10,10H10A10,10,0,0,1,0,48V10A10,10,0,0,1,10,0Z" transform="translate(603.208 2090.455)" fill="url(#linear-gradient-8)"/>
    <path id="Trazado_217586" data-name="Trazado 217586" d="M10.824,17h-2.9L6.184,14.117q-.2-.328-.375-.586a3.255,3.255,0,0,0-.363-.441,1.445,1.445,0,0,0-.383-.281.972.972,0,0,0-.434-.1h-.68V17H1.426V5.8h4Q9.5,5.8,9.5,8.844a3.155,3.155,0,0,1-.18,1.082,3.006,3.006,0,0,1-.508.895,3.219,3.219,0,0,1-.793.688,4.089,4.089,0,0,1-1.035.453v.031a1.606,1.606,0,0,1,.484.254,3.469,3.469,0,0,1,.453.41,5.722,5.722,0,0,1,.418.5q.2.27.363.527ZM3.949,7.688V10.8H5.043a1.813,1.813,0,0,0,1.3-.469,1.564,1.564,0,0,0,.5-1.18q0-1.469-1.758-1.469ZM18.59,17H11.871V5.8h6.461V7.852H14.395v2.492h3.664v2.047H14.395v2.563h4.2Zm9.8-9.148H25.2V17H22.668V7.852h-3.18V5.8h8.906ZM39.3,17H36.4L34.66,14.117q-.2-.328-.375-.586a3.255,3.255,0,0,0-.363-.441,1.445,1.445,0,0,0-.383-.281.972.972,0,0,0-.434-.1h-.68V17H29.9V5.8h4q4.078,0,4.078,3.047a3.155,3.155,0,0,1-.18,1.082,3.006,3.006,0,0,1-.508.895,3.219,3.219,0,0,1-.793.688,4.089,4.089,0,0,1-1.035.453v.031a1.606,1.606,0,0,1,.484.254,3.468,3.468,0,0,1,.453.41,5.723,5.723,0,0,1,.418.5q.2.27.363.527ZM32.426,7.688V10.8H33.52a1.813,1.813,0,0,0,1.3-.469,1.564,1.564,0,0,0,.5-1.18q0-1.469-1.758-1.469Zm12.5,9.508A5.215,5.215,0,0,1,41,15.629a5.624,5.624,0,0,1-1.516-4.082,6.026,6.026,0,0,1,1.539-4.3,5.328,5.328,0,0,1,4.078-1.641,5.085,5.085,0,0,1,3.879,1.57,5.79,5.79,0,0,1,1.48,4.141,5.929,5.929,0,0,1-1.535,4.258A5.269,5.269,0,0,1,44.926,17.2Zm.109-9.414a2.54,2.54,0,0,0-2.109,1,4.153,4.153,0,0,0-.781,2.637,4.077,4.077,0,0,0,.781,2.633,2.7,2.7,0,0,0,4.117.027,4.032,4.032,0,0,0,.766-2.613,4.369,4.369,0,0,0-.742-2.711A2.42,2.42,0,0,0,45.035,7.781ZM61.934,17h-2.75l-.8-2.492H54.4L53.613,17H50.879L54.957,5.8h2.992Zm-4.125-4.43L56.605,8.8A4.907,4.907,0,0,1,56.418,7.8h-.062a4.273,4.273,0,0,1-.2.977l-1.219,3.8ZM70,17H63.332V5.8h2.523v9.156H70Zm4.031,0H71.512V5.8h2.523Zm15.313,0H86.855V10.3q0-1.086.094-2.4h-.062a11.8,11.8,0,0,1-.352,1.484L83.91,17H81.848L79.176,9.461A14.672,14.672,0,0,1,78.824,7.9h-.07q.1,1.656.1,2.906V17H76.582V5.8h3.7l2.289,6.641a9.35,9.35,0,0,1,.4,1.6h.047a16.127,16.127,0,0,1,.445-1.617L85.746,5.8h3.6Zm9.266,0H91.895V5.8h6.461V7.852H94.418v2.492h3.664v2.047H94.418v2.563h4.2Zm11.875,0h-2.547l-4.617-7.039a10.178,10.178,0,0,1-.562-.93h-.031q.062.594.063,1.813V17H100.41V5.8h2.719l4.445,6.82q.3.461.563.914h.031a11.979,11.979,0,0,1-.062-1.539V5.8h2.383Zm10.43-9.148h-3.2V17h-2.531V7.852h-3.18V5.8h8.906ZM131.16,17h-2.75l-.8-2.492h-3.984L122.84,17h-2.734l4.078-11.2h2.992Zm-4.125-4.43-1.2-3.766a4.908,4.908,0,0,1-.187-1.008h-.062a4.273,4.273,0,0,1-.2.977l-1.219,3.8ZM140.348,16.6a7.388,7.388,0,0,1-3.2.594,5.4,5.4,0,0,1-4.055-1.516,5.54,5.54,0,0,1-1.477-4.039,5.919,5.919,0,0,1,1.66-4.359,5.807,5.807,0,0,1,4.309-1.672,8.058,8.058,0,0,1,2.766.414v2.43a4.9,4.9,0,0,0-2.562-.672,3.4,3.4,0,0,0-2.547.992,3.682,3.682,0,0,0-.969,2.688,3.611,3.611,0,0,0,.914,2.59,3.229,3.229,0,0,0,2.461.965,5.249,5.249,0,0,0,2.7-.719Zm4.477.4H142.3V5.8h2.523Zm7.281.2a5.215,5.215,0,0,1-3.922-1.566,5.624,5.624,0,0,1-1.516-4.082,6.026,6.026,0,0,1,1.539-4.3,5.328,5.328,0,0,1,4.078-1.641,5.085,5.085,0,0,1,3.879,1.57,5.789,5.789,0,0,1,1.48,4.141,5.929,5.929,0,0,1-1.535,4.258A5.269,5.269,0,0,1,152.105,17.2Zm.109-9.414a2.54,2.54,0,0,0-2.109,1,4.153,4.153,0,0,0-.781,2.637,4.077,4.077,0,0,0,.781,2.633,2.7,2.7,0,0,0,4.117.027,4.032,4.032,0,0,0,.766-2.613,4.369,4.369,0,0,0-.742-2.711A2.42,2.42,0,0,0,152.215,7.781Zm2.547-5.547-2.445,2.523h-1.781l2.031-2.523ZM169.574,17h-2.547L162.41,9.961a10.181,10.181,0,0,1-.562-.93h-.031q.063.594.063,1.813V17H159.5V5.8h2.719l4.445,6.82q.3.461.563.914h.031a11.977,11.977,0,0,1-.062-1.539V5.8h2.383Z" transform="translate(687.594 2670.955)" fill="#fff"/>
    <path id="Trazado_217580" data-name="Trazado 217580" d="M-3.848,0V-11.2H.23a5.093,5.093,0,0,1,2.883.688A2.211,2.211,0,0,1,4.121-8.578a2.293,2.293,0,0,1-.613,1.586,3.222,3.222,0,0,1-1.566.945v.031a3.1,3.1,0,0,1,1.91.883,2.469,2.469,0,0,1,.715,1.789A2.99,2.99,0,0,1,3.465-.9,4.61,4.61,0,0,1,.457,0Zm2.523-9.344v2.656H-.215a1.849,1.849,0,0,0,1.23-.379,1.291,1.291,0,0,0,.449-1.043q0-1.234-1.844-1.234Zm0,4.531v2.953H.043a2.1,2.1,0,0,0,1.371-.406,1.357,1.357,0,0,0,.5-1.109A1.266,1.266,0,0,0,1.422-4.43,2.16,2.16,0,0,0,.059-4.812Z" transform="translate(372 2575)" fill="#fff"/>
    <path id="Trazado_217574" data-name="Trazado 217574" d="M-33.008,0V-11.2h4.078a5.093,5.093,0,0,1,2.883.688,2.211,2.211,0,0,1,1.008,1.938,2.293,2.293,0,0,1-.613,1.586,3.222,3.222,0,0,1-1.566.945v.031a3.1,3.1,0,0,1,1.91.883,2.469,2.469,0,0,1,.715,1.789A2.99,2.99,0,0,1-25.7-.9,4.61,4.61,0,0,1-28.7,0Zm2.523-9.344v2.656h1.109a1.849,1.849,0,0,0,1.23-.379A1.291,1.291,0,0,0-27.7-8.109q0-1.234-1.844-1.234Zm0,4.531v2.953h1.367a2.1,2.1,0,0,0,1.371-.406,1.357,1.357,0,0,0,.5-1.109,1.266,1.266,0,0,0-.488-1.055A2.16,2.16,0,0,0-29.1-4.812ZM-16.336,0h-2.336V-1.148H-18.7A2.607,2.607,0,0,1-21.086.2a2.492,2.492,0,0,1-1.832-.66,2.366,2.366,0,0,1-.668-1.762q0-2.328,2.758-2.687l2.172-.289q0-1.312-1.422-1.312a4.853,4.853,0,0,0-2.719.852V-7.523a6.116,6.116,0,0,1,1.41-.469,7.413,7.413,0,0,1,1.629-.2q3.422,0,3.422,3.414Zm-2.32-3.25v-.539l-1.453.188q-1.2.156-1.2,1.086a.9.9,0,0,0,.293.691,1.126,1.126,0,0,0,.793.27,1.462,1.462,0,0,0,1.133-.48A1.735,1.735,0,0,0-18.656-3.25Zm9.492-2.523A2.142,2.142,0,0,0-10.2-6.016a1.5,1.5,0,0,0-1.258.59,2.573,2.573,0,0,0-.453,1.605V0h-2.469V-8h2.469v1.484h.031A2.136,2.136,0,0,1-9.773-8.141a1.59,1.59,0,0,1,.609.094Zm6.367,0a2.142,2.142,0,0,0-1.039-.242,1.5,1.5,0,0,0-1.258.59A2.573,2.573,0,0,0-5.547-3.82V0H-8.016V-8h2.469v1.484h.031A2.136,2.136,0,0,1-3.406-8.141a1.59,1.59,0,0,1,.609.094Zm6.367,0a2.142,2.142,0,0,0-1.039-.242,1.5,1.5,0,0,0-1.258.59A2.573,2.573,0,0,0,.82-3.82V0H-1.648V-8H.82v1.484H.852A2.136,2.136,0,0,1,2.961-8.141a1.59,1.59,0,0,1,.609.094ZM11.844-3.3H6.625q.125,1.742,2.2,1.742a4.286,4.286,0,0,0,2.32-.625V-.4A6.1,6.1,0,0,1,8.258.2,4.058,4.058,0,0,1,5.25-.879a4.058,4.058,0,0,1-1.07-3A4.281,4.281,0,0,1,5.336-7.031,3.852,3.852,0,0,1,8.18-8.2a3.5,3.5,0,0,1,2.707,1.039,4,4,0,0,1,.957,2.82ZM9.555-4.812q0-1.719-1.391-1.719a1.328,1.328,0,0,0-1.027.492,2.234,2.234,0,0,0-.527,1.227Zm8.977-.961a2.142,2.142,0,0,0-1.039-.242,1.5,1.5,0,0,0-1.258.59,2.573,2.573,0,0,0-.453,1.605V0H13.313V-8h2.469v1.484h.031a2.136,2.136,0,0,1,2.109-1.625,1.59,1.59,0,0,1,.609.094ZM26.336,0H24V-1.148h-.031A2.607,2.607,0,0,1,21.586.2a2.492,2.492,0,0,1-1.832-.66,2.366,2.366,0,0,1-.668-1.762q0-2.328,2.758-2.687L24.016-5.2q0-1.312-1.422-1.312a4.853,4.853,0,0,0-2.719.852V-7.523a6.116,6.116,0,0,1,1.41-.469,7.413,7.413,0,0,1,1.629-.2q3.422,0,3.422,3.414Zm-2.32-3.25v-.539L22.563-3.6q-1.2.156-1.2,1.086a.9.9,0,0,0,.293.691,1.126,1.126,0,0,0,.793.27,1.462,1.462,0,0,0,1.133-.48A1.735,1.735,0,0,0,24.016-3.25Zm3.75,3.039v-2a5.256,5.256,0,0,0,1.215.547,4.028,4.028,0,0,0,1.145.18,2.455,2.455,0,0,0,1.035-.18.581.581,0,0,0,.379-.547.506.506,0,0,0-.172-.391,1.6,1.6,0,0,0-.441-.273,5.009,5.009,0,0,0-.59-.211q-.32-.094-.617-.211a5.913,5.913,0,0,1-.84-.387,2.427,2.427,0,0,1-.609-.48,1.889,1.889,0,0,1-.375-.633,2.525,2.525,0,0,1-.129-.852A2.192,2.192,0,0,1,28.059-6.8,2.393,2.393,0,0,1,28.84-7.6a3.57,3.57,0,0,1,1.117-.453A5.825,5.825,0,0,1,31.266-8.2a7.261,7.261,0,0,1,1.078.082,8.047,8.047,0,0,1,1.078.238v1.906a3.9,3.9,0,0,0-1-.41,4.235,4.235,0,0,0-1.051-.137,2.328,2.328,0,0,0-.457.043,1.505,1.505,0,0,0-.379.125.7.7,0,0,0-.258.211.486.486,0,0,0-.094.293.541.541,0,0,0,.141.375,1.221,1.221,0,0,0,.367.27,3.625,3.625,0,0,0,.5.2q.277.09.551.184a7.161,7.161,0,0,1,.891.375,2.848,2.848,0,0,1,.684.477,1.871,1.871,0,0,1,.438.641,2.277,2.277,0,0,1,.152.875A2.282,2.282,0,0,1,33.6-1.23a2.471,2.471,0,0,1-.82.82A3.72,3.72,0,0,1,31.6.051,6.54,6.54,0,0,1,30.211.2,7.149,7.149,0,0,1,27.766-.211ZM-30.418,20h-2.469V18.9h-.031a2.768,2.768,0,0,1-2.477,1.3,3.033,3.033,0,0,1-2.414-1.059,4.382,4.382,0,0,1-.914-2.957A4.77,4.77,0,0,1-37.715,13a3.287,3.287,0,0,1,2.641-1.2,2.246,2.246,0,0,1,2.156,1.109h.031V8.156h2.469Zm-2.422-3.891v-.6a1.893,1.893,0,0,0-.453-1.3,1.5,1.5,0,0,0-1.18-.516,1.487,1.487,0,0,0-1.281.645,2.993,2.993,0,0,0-.461,1.77,2.59,2.59,0,0,0,.445,1.625,1.479,1.479,0,0,0,1.234.57,1.485,1.485,0,0,0,1.223-.6A2.507,2.507,0,0,0-32.84,16.109Zm11.688.594h-5.219q.125,1.742,2.2,1.742a4.286,4.286,0,0,0,2.32-.625V19.6a6.1,6.1,0,0,1-2.883.594,4.058,4.058,0,0,1-3.008-1.074,4.058,4.058,0,0,1-1.07-3,4.281,4.281,0,0,1,1.156-3.156A3.852,3.852,0,0,1-24.816,11.8a3.5,3.5,0,0,1,2.707,1.039,4,4,0,0,1,.957,2.82Zm-2.289-1.516q0-1.719-1.391-1.719a1.328,1.328,0,0,0-1.027.492,2.234,2.234,0,0,0-.527,1.227ZM-17.215,20h-2.469V8.156h2.469Zm13.68-3.3H-8.754q.125,1.742,2.2,1.742a4.286,4.286,0,0,0,2.32-.625V19.6a6.1,6.1,0,0,1-2.883.594,4.058,4.058,0,0,1-3.008-1.074,4.058,4.058,0,0,1-1.07-3,4.281,4.281,0,0,1,1.156-3.156A3.852,3.852,0,0,1-7.2,11.8a3.5,3.5,0,0,1,2.707,1.039,4,4,0,0,1,.957,2.82Zm-2.289-1.516q0-1.719-1.391-1.719a1.328,1.328,0,0,0-1.027.492,2.234,2.234,0,0,0-.527,1.227ZM10.637,20H8.176V15.438q0-1.742-1.281-1.742a1.177,1.177,0,0,0-.992.523,2.151,2.151,0,0,0-.383,1.3V20H3.051V15.391q0-1.7-1.258-1.7a1.206,1.206,0,0,0-1.012.5A2.2,2.2,0,0,0,.4,15.555V20H-2.066V12H.4v1.25H.434a2.952,2.952,0,0,1,1.074-1.043,2.952,2.952,0,0,1,1.512-.4A2.3,2.3,0,0,1,5.34,13.3,2.959,2.959,0,0,1,8.027,11.8q2.609,0,2.609,3.219Zm3.2-9.266a1.442,1.442,0,0,1-1.023-.371,1.2,1.2,0,0,1-.4-.91,1.153,1.153,0,0,1,.4-.906,1.671,1.671,0,0,1,2.051,0,1.158,1.158,0,0,1,.395.906,1.191,1.191,0,0,1-.395.922A1.466,1.466,0,0,1,13.84,10.734ZM15.059,20H12.59V12h2.469Zm1.555-.211v-2a5.256,5.256,0,0,0,1.215.547,4.028,4.028,0,0,0,1.145.18,2.455,2.455,0,0,0,1.035-.18.581.581,0,0,0,.379-.547.506.506,0,0,0-.172-.391,1.6,1.6,0,0,0-.441-.273,5.009,5.009,0,0,0-.59-.211q-.32-.094-.617-.211a5.913,5.913,0,0,1-.84-.387,2.428,2.428,0,0,1-.609-.48,1.889,1.889,0,0,1-.375-.633,2.525,2.525,0,0,1-.129-.852,2.192,2.192,0,0,1,.293-1.156,2.393,2.393,0,0,1,.781-.793,3.57,3.57,0,0,1,1.117-.453,5.825,5.825,0,0,1,1.309-.145,7.261,7.261,0,0,1,1.078.082,8.047,8.047,0,0,1,1.078.238v1.906a3.9,3.9,0,0,0-1-.41,4.235,4.235,0,0,0-1.051-.137,2.328,2.328,0,0,0-.457.043,1.505,1.505,0,0,0-.379.125.7.7,0,0,0-.258.211.486.486,0,0,0-.094.293.541.541,0,0,0,.141.375,1.221,1.221,0,0,0,.367.27,3.625,3.625,0,0,0,.5.2q.277.09.551.184a7.161,7.161,0,0,1,.891.375,2.848,2.848,0,0,1,.684.477,1.871,1.871,0,0,1,.438.641,2.563,2.563,0,0,1-.156,2.09,2.471,2.471,0,0,1-.82.82,3.72,3.72,0,0,1-1.18.461,6.54,6.54,0,0,1-1.387.145A7.149,7.149,0,0,1,16.613,19.789Zm11.375.406a4.3,4.3,0,0,1-3.145-1.121A4.064,4.064,0,0,1,23.7,16.031a4.065,4.065,0,0,1,1.188-3.105A4.487,4.487,0,0,1,28.1,11.8a4.249,4.249,0,0,1,3.125,1.121,3.985,3.985,0,0,1,1.133,2.965,4.23,4.23,0,0,1-1.168,3.148A4.348,4.348,0,0,1,27.988,20.2Zm.063-6.5a1.647,1.647,0,0,0-1.359.6,2.653,2.653,0,0,0-.484,1.7q0,2.3,1.859,2.3,1.773,0,1.773-2.367Q29.84,13.7,28.051,13.7Zm11.125.531a2.142,2.142,0,0,0-1.039-.242,1.5,1.5,0,0,0-1.258.59,2.573,2.573,0,0,0-.453,1.605V20H33.957V12h2.469v1.484h.031a2.136,2.136,0,0,1,2.109-1.625,1.59,1.59,0,0,1,.609.094Z" transform="translate(624 2536)" fill="#12263f"/>
    <path id="Trazado_217575" data-name="Trazado 217575" d="M-33.008,0V-11.2h4.078a5.093,5.093,0,0,1,2.883.688,2.211,2.211,0,0,1,1.008,1.938,2.293,2.293,0,0,1-.613,1.586,3.222,3.222,0,0,1-1.566.945v.031a3.1,3.1,0,0,1,1.91.883,2.469,2.469,0,0,1,.715,1.789A2.99,2.99,0,0,1-25.7-.9,4.61,4.61,0,0,1-28.7,0Zm2.523-9.344v2.656h1.109a1.849,1.849,0,0,0,1.23-.379A1.291,1.291,0,0,0-27.7-8.109q0-1.234-1.844-1.234Zm0,4.531v2.953h1.367a2.1,2.1,0,0,0,1.371-.406,1.357,1.357,0,0,0,.5-1.109,1.266,1.266,0,0,0-.488-1.055A2.16,2.16,0,0,0-29.1-4.812ZM-16.336,0h-2.336V-1.148H-18.7A2.607,2.607,0,0,1-21.086.2a2.492,2.492,0,0,1-1.832-.66,2.366,2.366,0,0,1-.668-1.762q0-2.328,2.758-2.687l2.172-.289q0-1.312-1.422-1.312a4.853,4.853,0,0,0-2.719.852V-7.523a6.116,6.116,0,0,1,1.41-.469,7.413,7.413,0,0,1,1.629-.2q3.422,0,3.422,3.414Zm-2.32-3.25v-.539l-1.453.188q-1.2.156-1.2,1.086a.9.9,0,0,0,.293.691,1.126,1.126,0,0,0,.793.27,1.462,1.462,0,0,0,1.133-.48A1.735,1.735,0,0,0-18.656-3.25Zm9.492-2.523A2.142,2.142,0,0,0-10.2-6.016a1.5,1.5,0,0,0-1.258.59,2.573,2.573,0,0,0-.453,1.605V0h-2.469V-8h2.469v1.484h.031A2.136,2.136,0,0,1-9.773-8.141a1.59,1.59,0,0,1,.609.094Zm6.367,0a2.142,2.142,0,0,0-1.039-.242,1.5,1.5,0,0,0-1.258.59A2.573,2.573,0,0,0-5.547-3.82V0H-8.016V-8h2.469v1.484h.031A2.136,2.136,0,0,1-3.406-8.141a1.59,1.59,0,0,1,.609.094Zm6.367,0a2.142,2.142,0,0,0-1.039-.242,1.5,1.5,0,0,0-1.258.59A2.573,2.573,0,0,0,.82-3.82V0H-1.648V-8H.82v1.484H.852A2.136,2.136,0,0,1,2.961-8.141a1.59,1.59,0,0,1,.609.094ZM11.844-3.3H6.625q.125,1.742,2.2,1.742a4.286,4.286,0,0,0,2.32-.625V-.4A6.1,6.1,0,0,1,8.258.2,4.058,4.058,0,0,1,5.25-.879a4.058,4.058,0,0,1-1.07-3A4.281,4.281,0,0,1,5.336-7.031,3.852,3.852,0,0,1,8.18-8.2a3.5,3.5,0,0,1,2.707,1.039,4,4,0,0,1,.957,2.82ZM9.555-4.812q0-1.719-1.391-1.719a1.328,1.328,0,0,0-1.027.492,2.234,2.234,0,0,0-.527,1.227Zm8.977-.961a2.142,2.142,0,0,0-1.039-.242,1.5,1.5,0,0,0-1.258.59,2.573,2.573,0,0,0-.453,1.605V0H13.313V-8h2.469v1.484h.031a2.136,2.136,0,0,1,2.109-1.625,1.59,1.59,0,0,1,.609.094ZM26.336,0H24V-1.148h-.031A2.607,2.607,0,0,1,21.586.2a2.492,2.492,0,0,1-1.832-.66,2.366,2.366,0,0,1-.668-1.762q0-2.328,2.758-2.687L24.016-5.2q0-1.312-1.422-1.312a4.853,4.853,0,0,0-2.719.852V-7.523a6.116,6.116,0,0,1,1.41-.469,7.413,7.413,0,0,1,1.629-.2q3.422,0,3.422,3.414Zm-2.32-3.25v-.539L22.563-3.6q-1.2.156-1.2,1.086a.9.9,0,0,0,.293.691,1.126,1.126,0,0,0,.793.27,1.462,1.462,0,0,0,1.133-.48A1.735,1.735,0,0,0,24.016-3.25Zm3.75,3.039v-2a5.256,5.256,0,0,0,1.215.547,4.028,4.028,0,0,0,1.145.18,2.455,2.455,0,0,0,1.035-.18.581.581,0,0,0,.379-.547.506.506,0,0,0-.172-.391,1.6,1.6,0,0,0-.441-.273,5.009,5.009,0,0,0-.59-.211q-.32-.094-.617-.211a5.913,5.913,0,0,1-.84-.387,2.427,2.427,0,0,1-.609-.48,1.889,1.889,0,0,1-.375-.633,2.525,2.525,0,0,1-.129-.852A2.192,2.192,0,0,1,28.059-6.8,2.393,2.393,0,0,1,28.84-7.6a3.57,3.57,0,0,1,1.117-.453A5.825,5.825,0,0,1,31.266-8.2a7.261,7.261,0,0,1,1.078.082,8.047,8.047,0,0,1,1.078.238v1.906a3.9,3.9,0,0,0-1-.41,4.235,4.235,0,0,0-1.051-.137,2.328,2.328,0,0,0-.457.043,1.505,1.505,0,0,0-.379.125.7.7,0,0,0-.258.211.486.486,0,0,0-.094.293.541.541,0,0,0,.141.375,1.221,1.221,0,0,0,.367.27,3.625,3.625,0,0,0,.5.2q.277.09.551.184a7.161,7.161,0,0,1,.891.375,2.848,2.848,0,0,1,.684.477,1.871,1.871,0,0,1,.438.641,2.277,2.277,0,0,1,.152.875A2.282,2.282,0,0,1,33.6-1.23a2.471,2.471,0,0,1-.82.82A3.72,3.72,0,0,1,31.6.051,6.54,6.54,0,0,1,30.211.2,7.149,7.149,0,0,1,27.766-.211ZM-36.66,20h-2.469V18.9h-.031a2.768,2.768,0,0,1-2.477,1.3,3.033,3.033,0,0,1-2.414-1.059,4.382,4.382,0,0,1-.914-2.957A4.77,4.77,0,0,1-43.957,13a3.287,3.287,0,0,1,2.641-1.2,2.246,2.246,0,0,1,2.156,1.109h.031V8.156h2.469Zm-2.422-3.891v-.6a1.893,1.893,0,0,0-.453-1.3,1.5,1.5,0,0,0-1.18-.516A1.487,1.487,0,0,0-42,14.34a2.993,2.993,0,0,0-.461,1.77,2.59,2.59,0,0,0,.445,1.625,1.479,1.479,0,0,0,1.234.57,1.485,1.485,0,0,0,1.223-.6A2.507,2.507,0,0,0-39.082,16.109Zm11.688.594h-5.219q.125,1.742,2.2,1.742a4.286,4.286,0,0,0,2.32-.625V19.6a6.1,6.1,0,0,1-2.883.594,4.058,4.058,0,0,1-3.008-1.074,4.058,4.058,0,0,1-1.07-3A4.281,4.281,0,0,1-33.9,12.969,3.852,3.852,0,0,1-31.059,11.8a3.5,3.5,0,0,1,2.707,1.039,4,4,0,0,1,.957,2.82Zm-2.289-1.516q0-1.719-1.391-1.719a1.328,1.328,0,0,0-1.027.492,2.234,2.234,0,0,0-.527,1.227ZM-23.457,20h-2.469V8.156h2.469Zm11.711-5.773a2.142,2.142,0,0,0-1.039-.242,1.5,1.5,0,0,0-1.258.59A2.573,2.573,0,0,0-14.5,16.18V20h-2.469V12H-14.5v1.484h.031a2.136,2.136,0,0,1,2.109-1.625,1.59,1.59,0,0,1,.609.094ZM-3.473,16.7H-8.691q.125,1.742,2.2,1.742a4.286,4.286,0,0,0,2.32-.625V19.6a6.1,6.1,0,0,1-2.883.594,4.058,4.058,0,0,1-3.008-1.074,4.058,4.058,0,0,1-1.07-3A4.281,4.281,0,0,1-9.98,12.969,3.852,3.852,0,0,1-7.137,11.8,3.5,3.5,0,0,1-4.43,12.844a4,4,0,0,1,.957,2.82Zm-2.289-1.516q0-1.719-1.391-1.719a1.328,1.328,0,0,0-1.027.492,2.234,2.234,0,0,0-.527,1.227Zm9.82,4.523a4.881,4.881,0,0,1-2.414.484A4.083,4.083,0,0,1-1.34,19.078,3.859,3.859,0,0,1-2.48,16.2,4.251,4.251,0,0,1-1.258,12.98,4.518,4.518,0,0,1,2.012,11.8a4.2,4.2,0,0,1,2.047.375v2.094A2.814,2.814,0,0,0,2.332,13.7a2.275,2.275,0,0,0-1.684.621,2.317,2.317,0,0,0-.621,1.715A2.28,2.28,0,0,0,.621,17.7a2.182,2.182,0,0,0,1.633.605,3.258,3.258,0,0,0,1.8-.578Zm8.8-3.008H7.645q.125,1.742,2.2,1.742a4.286,4.286,0,0,0,2.32-.625V19.6a6.1,6.1,0,0,1-2.883.594A4.058,4.058,0,0,1,6.27,19.121a4.058,4.058,0,0,1-1.07-3,4.281,4.281,0,0,1,1.156-3.156A3.852,3.852,0,0,1,9.2,11.8a3.5,3.5,0,0,1,2.707,1.039,4,4,0,0,1,.957,2.82Zm-2.289-1.516q0-1.719-1.391-1.719a1.328,1.328,0,0,0-1.027.492,2.234,2.234,0,0,0-.527,1.227Zm6.258,3.883H16.8V23.68H14.332V12H16.8v1.2h.031a2.9,2.9,0,0,1,2.57-1.4,2.892,2.892,0,0,1,2.4,1.066,4.54,4.54,0,0,1,.848,2.9,4.922,4.922,0,0,1-.988,3.211A3.222,3.222,0,0,1,19.035,20.2,2.491,2.491,0,0,1,16.832,19.07Zm-.07-3.281v.641a2.037,2.037,0,0,0,.438,1.352,1.424,1.424,0,0,0,1.148.523,1.514,1.514,0,0,0,1.309-.652,3.15,3.15,0,0,0,.465-1.848q0-2.109-1.641-2.109a1.541,1.541,0,0,0-1.238.574A2.29,2.29,0,0,0,16.762,15.789ZM29.09,19.906a3.649,3.649,0,0,1-1.648.289q-2.609,0-2.609-2.711V13.82h-1.3V12h1.3V10.273l2.461-.7V12h1.8v1.82h-1.8v3.234q0,1.25.992,1.25a1.673,1.673,0,0,0,.8-.227Zm5.141.289a4.3,4.3,0,0,1-3.145-1.121,4.064,4.064,0,0,1-1.145-3.043,4.065,4.065,0,0,1,1.188-3.105A4.487,4.487,0,0,1,34.34,11.8a4.249,4.249,0,0,1,3.125,1.121A3.985,3.985,0,0,1,38.6,15.891a4.23,4.23,0,0,1-1.168,3.148A4.348,4.348,0,0,1,34.23,20.2Zm.063-6.5a1.647,1.647,0,0,0-1.359.6,2.653,2.653,0,0,0-.484,1.7q0,2.3,1.859,2.3,1.773,0,1.773-2.367Q36.082,13.7,34.293,13.7Zm11.125.531a2.142,2.142,0,0,0-1.039-.242,1.5,1.5,0,0,0-1.258.59,2.573,2.573,0,0,0-.453,1.605V20H40.2V12h2.469v1.484H42.7a2.136,2.136,0,0,1,2.109-1.625,1.59,1.59,0,0,1,.609.094Z" transform="translate(945 2536)" fill="#12263f"/>
    <path id="Trazado_217573" data-name="Trazado 217573" d="M-33.008,0V-11.2h4.078a5.093,5.093,0,0,1,2.883.688,2.211,2.211,0,0,1,1.008,1.938,2.293,2.293,0,0,1-.613,1.586,3.222,3.222,0,0,1-1.566.945v.031a3.1,3.1,0,0,1,1.91.883,2.469,2.469,0,0,1,.715,1.789A2.99,2.99,0,0,1-25.7-.9,4.61,4.61,0,0,1-28.7,0Zm2.523-9.344v2.656h1.109a1.849,1.849,0,0,0,1.23-.379A1.291,1.291,0,0,0-27.7-8.109q0-1.234-1.844-1.234Zm0,4.531v2.953h1.367a2.1,2.1,0,0,0,1.371-.406,1.357,1.357,0,0,0,.5-1.109,1.266,1.266,0,0,0-.488-1.055A2.16,2.16,0,0,0-29.1-4.812ZM-16.336,0h-2.336V-1.148H-18.7A2.607,2.607,0,0,1-21.086.2a2.492,2.492,0,0,1-1.832-.66,2.366,2.366,0,0,1-.668-1.762q0-2.328,2.758-2.687l2.172-.289q0-1.312-1.422-1.312a4.853,4.853,0,0,0-2.719.852V-7.523a6.116,6.116,0,0,1,1.41-.469,7.413,7.413,0,0,1,1.629-.2q3.422,0,3.422,3.414Zm-2.32-3.25v-.539l-1.453.188q-1.2.156-1.2,1.086a.9.9,0,0,0,.293.691,1.126,1.126,0,0,0,.793.27,1.462,1.462,0,0,0,1.133-.48A1.735,1.735,0,0,0-18.656-3.25Zm9.492-2.523A2.142,2.142,0,0,0-10.2-6.016a1.5,1.5,0,0,0-1.258.59,2.573,2.573,0,0,0-.453,1.605V0h-2.469V-8h2.469v1.484h.031A2.136,2.136,0,0,1-9.773-8.141a1.59,1.59,0,0,1,.609.094Zm6.367,0a2.142,2.142,0,0,0-1.039-.242,1.5,1.5,0,0,0-1.258.59A2.573,2.573,0,0,0-5.547-3.82V0H-8.016V-8h2.469v1.484h.031A2.136,2.136,0,0,1-3.406-8.141a1.59,1.59,0,0,1,.609.094Zm6.367,0a2.142,2.142,0,0,0-1.039-.242,1.5,1.5,0,0,0-1.258.59A2.573,2.573,0,0,0,.82-3.82V0H-1.648V-8H.82v1.484H.852A2.136,2.136,0,0,1,2.961-8.141a1.59,1.59,0,0,1,.609.094ZM11.844-3.3H6.625q.125,1.742,2.2,1.742a4.286,4.286,0,0,0,2.32-.625V-.4A6.1,6.1,0,0,1,8.258.2,4.058,4.058,0,0,1,5.25-.879a4.058,4.058,0,0,1-1.07-3A4.281,4.281,0,0,1,5.336-7.031,3.852,3.852,0,0,1,8.18-8.2a3.5,3.5,0,0,1,2.707,1.039,4,4,0,0,1,.957,2.82ZM9.555-4.812q0-1.719-1.391-1.719a1.328,1.328,0,0,0-1.027.492,2.234,2.234,0,0,0-.527,1.227Zm8.977-.961a2.142,2.142,0,0,0-1.039-.242,1.5,1.5,0,0,0-1.258.59,2.573,2.573,0,0,0-.453,1.605V0H13.313V-8h2.469v1.484h.031a2.136,2.136,0,0,1,2.109-1.625,1.59,1.59,0,0,1,.609.094ZM26.336,0H24V-1.148h-.031A2.607,2.607,0,0,1,21.586.2a2.492,2.492,0,0,1-1.832-.66,2.366,2.366,0,0,1-.668-1.762q0-2.328,2.758-2.687L24.016-5.2q0-1.312-1.422-1.312a4.853,4.853,0,0,0-2.719.852V-7.523a6.116,6.116,0,0,1,1.41-.469,7.413,7.413,0,0,1,1.629-.2q3.422,0,3.422,3.414Zm-2.32-3.25v-.539L22.563-3.6q-1.2.156-1.2,1.086a.9.9,0,0,0,.293.691,1.126,1.126,0,0,0,.793.27,1.462,1.462,0,0,0,1.133-.48A1.735,1.735,0,0,0,24.016-3.25Zm3.75,3.039v-2a5.256,5.256,0,0,0,1.215.547,4.028,4.028,0,0,0,1.145.18,2.455,2.455,0,0,0,1.035-.18.581.581,0,0,0,.379-.547.506.506,0,0,0-.172-.391,1.6,1.6,0,0,0-.441-.273,5.009,5.009,0,0,0-.59-.211q-.32-.094-.617-.211a5.913,5.913,0,0,1-.84-.387,2.427,2.427,0,0,1-.609-.48,1.889,1.889,0,0,1-.375-.633,2.525,2.525,0,0,1-.129-.852A2.192,2.192,0,0,1,28.059-6.8,2.393,2.393,0,0,1,28.84-7.6a3.57,3.57,0,0,1,1.117-.453A5.825,5.825,0,0,1,31.266-8.2a7.261,7.261,0,0,1,1.078.082,8.047,8.047,0,0,1,1.078.238v1.906a3.9,3.9,0,0,0-1-.41,4.235,4.235,0,0,0-1.051-.137,2.328,2.328,0,0,0-.457.043,1.505,1.505,0,0,0-.379.125.7.7,0,0,0-.258.211.486.486,0,0,0-.094.293.541.541,0,0,0,.141.375,1.221,1.221,0,0,0,.367.27,3.625,3.625,0,0,0,.5.2q.277.09.551.184a7.161,7.161,0,0,1,.891.375,2.848,2.848,0,0,1,.684.477,1.871,1.871,0,0,1,.438.641,2.277,2.277,0,0,1,.152.875A2.282,2.282,0,0,1,33.6-1.23a2.471,2.471,0,0,1-.82.82A3.72,3.72,0,0,1,31.6.051,6.54,6.54,0,0,1,30.211.2,7.149,7.149,0,0,1,27.766-.211ZM-24.457,20h-2.469V18.9h-.031a2.768,2.768,0,0,1-2.477,1.3,3.033,3.033,0,0,1-2.414-1.059,4.382,4.382,0,0,1-.914-2.957A4.77,4.77,0,0,1-31.754,13a3.287,3.287,0,0,1,2.641-1.2,2.246,2.246,0,0,1,2.156,1.109h.031V8.156h2.469Zm-2.422-3.891v-.6a1.893,1.893,0,0,0-.453-1.3,1.5,1.5,0,0,0-1.18-.516,1.487,1.487,0,0,0-1.281.645,2.993,2.993,0,0,0-.461,1.77,2.59,2.59,0,0,0,.445,1.625,1.479,1.479,0,0,0,1.234.57,1.485,1.485,0,0,0,1.223-.6A2.507,2.507,0,0,0-26.879,16.109Zm11.688.594H-20.41q.125,1.742,2.2,1.742a4.286,4.286,0,0,0,2.32-.625V19.6a6.1,6.1,0,0,1-2.883.594,4.058,4.058,0,0,1-3.008-1.074,4.058,4.058,0,0,1-1.07-3A4.281,4.281,0,0,1-21.7,12.969,3.852,3.852,0,0,1-18.855,11.8a3.5,3.5,0,0,1,2.707,1.039,4,4,0,0,1,.957,2.82Zm-2.289-1.516q0-1.719-1.391-1.719a1.328,1.328,0,0,0-1.027.492,2.234,2.234,0,0,0-.527,1.227ZM-11.254,20h-2.469V8.156h2.469ZM1.3,19.711a4.881,4.881,0,0,1-2.414.484A4.083,4.083,0,0,1-4.1,19.078,3.859,3.859,0,0,1-5.238,16.2,4.251,4.251,0,0,1-4.016,12.98,4.518,4.518,0,0,1-.746,11.8,4.2,4.2,0,0,1,1.3,12.18v2.094A2.814,2.814,0,0,0-.426,13.7a2.275,2.275,0,0,0-1.684.621,2.317,2.317,0,0,0-.621,1.715A2.28,2.28,0,0,0-2.137,17.7,2.182,2.182,0,0,0-.5,18.3a3.258,3.258,0,0,0,1.8-.578ZM9.574,20H7.238V18.852H7.207A2.607,2.607,0,0,1,4.824,20.2a2.492,2.492,0,0,1-1.832-.66,2.366,2.366,0,0,1-.668-1.762q0-2.328,2.758-2.687L7.254,14.8q0-1.312-1.422-1.312a4.853,4.853,0,0,0-2.719.852V12.477a6.116,6.116,0,0,1,1.41-.469,7.413,7.413,0,0,1,1.629-.2q3.422,0,3.422,3.414Zm-2.32-3.25v-.539L5.8,16.4q-1.2.156-1.2,1.086a.9.9,0,0,0,.293.691,1.126,1.126,0,0,0,.793.27,1.462,1.462,0,0,0,1.133-.48A1.735,1.735,0,0,0,7.254,16.75Zm12,3.25H16.793V15.555q0-1.859-1.328-1.859a1.318,1.318,0,0,0-1.055.492A1.875,1.875,0,0,0,14,15.438V20H11.527V12H14v1.266h.031A2.829,2.829,0,0,1,16.6,11.8q2.656,0,2.656,3.3Zm8.609,0H25.527V18.852H25.5A2.607,2.607,0,0,1,23.113,20.2a2.492,2.492,0,0,1-1.832-.66,2.366,2.366,0,0,1-.668-1.762q0-2.328,2.758-2.687l2.172-.289q0-1.312-1.422-1.312a4.853,4.853,0,0,0-2.719.852V12.477a6.116,6.116,0,0,1,1.41-.469,7.413,7.413,0,0,1,1.629-.2q3.422,0,3.422,3.414Zm-2.32-3.25v-.539L24.09,16.4q-1.2.156-1.2,1.086a.9.9,0,0,0,.293.691,1.126,1.126,0,0,0,.793.27,1.462,1.462,0,0,0,1.133-.48A1.735,1.735,0,0,0,25.543,16.75ZM32.285,20H29.816V8.156h2.469Z" transform="translate(790 2489)" fill="#12263f"/>
    <path id="Trazado_217551" data-name="Trazado 217551" d="M23.428,10.554a4.1,4.1,0,0,1-.655,2.294A4.267,4.267,0,0,1,20.906,14.4a6.78,6.78,0,0,1-2.821.549h-1.16V19h-3.8V6.4H18.3a6.119,6.119,0,0,1,3.9,1.011A3.83,3.83,0,0,1,23.428,10.554Zm-4.017.132a1.477,1.477,0,0,0-.448-1.169,1.937,1.937,0,0,0-1.318-.4h-.721v3.111h.853Q19.411,12.232,19.411,10.686Zm11.944,2.522a3.6,3.6,0,0,0-1.169-.255q-1.854,0-1.854,2.145V19H24.588V10h3.744v1.582h.035a2.81,2.81,0,0,1,.976-1.3,2.506,2.506,0,0,1,1.477-.444,1.269,1.269,0,0,1,.536.105Zm11.092,1.134a4.687,4.687,0,0,1-1.375,3.577,5.375,5.375,0,0,1-3.845,1.3,5.4,5.4,0,0,1-3.819-1.27,4.546,4.546,0,0,1-1.367-3.5,4.692,4.692,0,0,1,.642-2.487,4.172,4.172,0,0,1,1.828-1.617,6.311,6.311,0,0,1,2.733-.562,6.113,6.113,0,0,1,2.773.589A4.286,4.286,0,0,1,41.819,12,4.452,4.452,0,0,1,42.448,14.342Zm-3.8.018q0-1.837-1.406-1.837t-1.406,1.925q0,2.03,1.424,2.03Q38.651,16.478,38.651,14.359Zm12.612,4.386a3.529,3.529,0,0,1-1.134.343,10.719,10.719,0,0,1-1.784.132,5.488,5.488,0,0,1-2.544-.576,4.2,4.2,0,0,1-1.736-1.613,4.478,4.478,0,0,1-.615-2.329,5.1,5.1,0,0,1,.655-2.65,4.268,4.268,0,0,1,1.868-1.687,6.407,6.407,0,0,1,2.813-.584,9.839,9.839,0,0,1,1.578.114,2.411,2.411,0,0,1,.9.264v2.918a2.6,2.6,0,0,0-.809-.387,3.248,3.248,0,0,0-.976-.167,2.375,2.375,0,0,0-1.666.523,1.9,1.9,0,0,0-.567,1.472,1.868,1.868,0,0,0,.558,1.446,2.177,2.177,0,0,0,1.534.514,3.82,3.82,0,0,0,1.925-.5Zm4.72-3.182a1.265,1.265,0,0,0,.668.91,3.012,3.012,0,0,0,1.512.33,6.226,6.226,0,0,0,2.479-.5v2.373a8.908,8.908,0,0,1-3.3.545,5.214,5.214,0,0,1-3.665-1.2,4.277,4.277,0,0,1-1.31-3.313,5.467,5.467,0,0,1,.576-2.558,4.142,4.142,0,0,1,1.705-1.736,5.038,5.038,0,0,1,2.492-.628,4.9,4.9,0,0,1,2.391.545,3.63,3.63,0,0,1,1.507,1.529,4.906,4.906,0,0,1,.514,2.3v1.406Zm2.25-1.96q0-1.556-1.116-1.556a.944.944,0,0,0-.782.426,2.127,2.127,0,0,0-.369,1.129Zm11.918,2.408a2.749,2.749,0,0,1-1.165,2.369,5.474,5.474,0,0,1-3.248.839,11.291,11.291,0,0,1-1.5-.123,9.257,9.257,0,0,1-1.455-.3V16.17a7.162,7.162,0,0,0,2.777.738q1.1,0,1.1-.571a.451.451,0,0,0-.255-.391,9.009,9.009,0,0,0-1.336-.514,3.773,3.773,0,0,1-1.74-1,2.382,2.382,0,0,1-.545-1.626,2.594,2.594,0,0,1,1.112-2.21,5.216,5.216,0,0,1,3.125-.813,9.931,9.931,0,0,1,2.5.343v2.522a7.549,7.549,0,0,0-1.213-.4,4.9,4.9,0,0,0-1.107-.158,1.205,1.205,0,0,0-.589.123.379.379,0,0,0-.22.343.478.478,0,0,0,.237.413,4.2,4.2,0,0,0,.949.378,4.4,4.4,0,0,1,1.978,1.037A2.272,2.272,0,0,1,70.151,16.012Zm11.391-1.67a4.687,4.687,0,0,1-1.375,3.577,6.355,6.355,0,0,1-7.664.031,4.546,4.546,0,0,1-1.367-3.5,4.692,4.692,0,0,1,.642-2.487A4.172,4.172,0,0,1,73.6,10.343a6.311,6.311,0,0,1,2.733-.562,6.113,6.113,0,0,1,2.773.589A4.286,4.286,0,0,1,80.913,12,4.452,4.452,0,0,1,81.541,14.342Zm-3.8.018q0-1.837-1.406-1.837t-1.406,1.925q0,2.03,1.424,2.03Q77.744,16.478,77.744,14.359ZM93.951,19V17.954h-.035a3.089,3.089,0,0,1-1.169.927,3.331,3.331,0,0,1-1.424.338,3.663,3.663,0,0,1-2.03-.567,3.443,3.443,0,0,1-1.314-1.586,6.106,6.106,0,0,1-.435-2.408,5.925,5.925,0,0,1,.519-2.54A4.059,4.059,0,0,1,89.522,10.4a3.769,3.769,0,0,1,2.109-.615,3.193,3.193,0,0,1,1.024.158,2.77,2.77,0,0,1,.817.426,1.273,1.273,0,0,1,.444.532h.035V5.676H97.7V19Zm.079-4.772a1.974,1.974,0,0,0-.356-1.257,1.2,1.2,0,0,0-1.951.11,2.593,2.593,0,0,0-.382,1.49q0,1.907,1.318,1.907a1.173,1.173,0,0,0,1-.514,2.531,2.531,0,0,0,.374-1.5Zm8.692,1.336a1.265,1.265,0,0,0,.668.91,3.012,3.012,0,0,0,1.512.33,6.226,6.226,0,0,0,2.479-.5v2.373a8.908,8.908,0,0,1-3.3.545,5.214,5.214,0,0,1-3.665-1.2A4.277,4.277,0,0,1,99.1,14.7a5.467,5.467,0,0,1,.576-2.558,4.142,4.142,0,0,1,1.705-1.736,5.038,5.038,0,0,1,2.492-.628,4.9,4.9,0,0,1,2.391.545,3.63,3.63,0,0,1,1.507,1.529,4.906,4.906,0,0,1,.514,2.3v1.406Zm2.25-1.96q0-1.556-1.116-1.556a.944.944,0,0,0-.782.426,2.127,2.127,0,0,0-.369,1.129Zm9.606,5.4V5.676h3.744V19Zm10.538,0V17.629h-.035a2.944,2.944,0,0,1-2.742,1.591,2.625,2.625,0,0,1-2-.756,2.808,2.808,0,0,1-.721-2.021q0-2.654,3.261-3.076l2.232-.29a.851.851,0,0,0-.4-.721,1.8,1.8,0,0,0-1.063-.281,7,7,0,0,0-3.19.861V10.5a8.535,8.535,0,0,1,1.828-.519,10.639,10.639,0,0,1,1.881-.2,4.722,4.722,0,0,1,3.327.98,4.368,4.368,0,0,1,1.033,3.274V19ZM122.9,15.941a.83.83,0,0,0,.233.606.888.888,0,0,0,.664.237,1.18,1.18,0,0,0,.954-.439,1.7,1.7,0,0,0,.365-1.125v-.343l-1.266.176Q122.9,15.212,122.9,15.941Zm19.74,2.8a3.529,3.529,0,0,1-1.134.343,10.719,10.719,0,0,1-1.784.132,5.488,5.488,0,0,1-2.544-.576,4.2,4.2,0,0,1-1.736-1.613,4.478,4.478,0,0,1-.615-2.329,5.1,5.1,0,0,1,.655-2.65,4.268,4.268,0,0,1,1.868-1.687,6.407,6.407,0,0,1,2.813-.584,9.839,9.839,0,0,1,1.578.114,2.411,2.411,0,0,1,.9.264v2.918a2.6,2.6,0,0,0-.809-.387,3.248,3.248,0,0,0-.976-.167,2.375,2.375,0,0,0-1.666.523,1.9,1.9,0,0,0-.567,1.472,1.868,1.868,0,0,0,.558,1.446,2.177,2.177,0,0,0,1.534.514,3.82,3.82,0,0,0,1.925-.5Zm11.5-4.4a4.687,4.687,0,0,1-1.375,3.577,6.355,6.355,0,0,1-7.664.031,4.546,4.546,0,0,1-1.367-3.5,4.692,4.692,0,0,1,.642-2.487,4.172,4.172,0,0,1,1.828-1.617,6.311,6.311,0,0,1,2.733-.562,6.113,6.113,0,0,1,2.773.589,4.286,4.286,0,0,1,1.8,1.635A4.452,4.452,0,0,1,154.148,14.342Zm-3.8.018q0-1.837-1.406-1.837t-1.406,1.925q0,2.03,1.424,2.03Q150.351,16.478,150.351,14.359ZM167.217,19V13.814a1.654,1.654,0,0,0-.233-.971.876.876,0,0,0-.76-.321.949.949,0,0,0-.809.391,1.79,1.79,0,0,0-.29,1.085v5h-3.744V13.9q0-1.38-.94-1.38a1,1,0,0,0-.861.4,1.933,1.933,0,0,0-.29,1.147V19h-3.744V10h3.744v1.424h.035a2.9,2.9,0,0,1,.672-.769,3.946,3.946,0,0,1,1.042-.633A3.235,3.235,0,0,1,162.3,9.78a3.181,3.181,0,0,1,1.613.378,2.931,2.931,0,0,1,1.094,1.2,3.207,3.207,0,0,1,1.266-1.165,3.772,3.772,0,0,1,1.758-.409,2.645,2.645,0,0,1,2.171.923,4.109,4.109,0,0,1,.756,2.663V19Zm11.162,0V17.611h-.035a4.926,4.926,0,0,1-.839.94,3.23,3.23,0,0,1-.844.483,2.983,2.983,0,0,1-1.094.185,2.722,2.722,0,0,1-2.25-.958,4.429,4.429,0,0,1-.773-2.83V10h3.744v5.15q0,1.327.993,1.327a.972.972,0,0,0,.822-.36,1.642,1.642,0,0,0,.277-1.02V10h3.744v9Zm11.373,0V14.087a2.184,2.184,0,0,0-.25-1.2.915.915,0,0,0-.813-.365.88.88,0,0,0-.756.378,1.613,1.613,0,0,0-.272.967V19h-3.744V10h3.744v1.406h.035a3.177,3.177,0,0,1,1.2-1.2,3.29,3.29,0,0,1,1.644-.426q2.953,0,2.953,3.727V19Zm9.4-11.426a1.608,1.608,0,0,1-.576,1.283,2.252,2.252,0,0,1-1.516.492,2.2,2.2,0,0,1-1.5-.51,1.612,1.612,0,0,1-.584-1.266,1.561,1.561,0,0,1,.567-1.252,2.639,2.639,0,0,1,3.032,0A1.551,1.551,0,0,1,199.148,7.574ZM195.184,19V10h3.744v9Zm12.964-.255a3.529,3.529,0,0,1-1.134.343,10.719,10.719,0,0,1-1.784.132,5.488,5.488,0,0,1-2.544-.576,4.2,4.2,0,0,1-1.736-1.613,4.478,4.478,0,0,1-.615-2.329,5.1,5.1,0,0,1,.655-2.65,4.268,4.268,0,0,1,1.868-1.687,6.407,6.407,0,0,1,2.813-.584,9.839,9.839,0,0,1,1.578.114,2.411,2.411,0,0,1,.9.264v2.918a2.6,2.6,0,0,0-.809-.387,3.248,3.248,0,0,0-.976-.167,2.375,2.375,0,0,0-1.666.523,1.9,1.9,0,0,0-.567,1.472,1.868,1.868,0,0,0,.558,1.446,2.177,2.177,0,0,0,1.534.514,3.82,3.82,0,0,0,1.925-.5Zm6.486.255V17.629H214.6a2.944,2.944,0,0,1-2.742,1.591,2.625,2.625,0,0,1-2-.756,2.808,2.808,0,0,1-.721-2.021q0-2.654,3.261-3.076l2.232-.29a.851.851,0,0,0-.4-.721,1.8,1.8,0,0,0-1.063-.281,7,7,0,0,0-3.19.861V10.5a8.535,8.535,0,0,1,1.828-.519,10.639,10.639,0,0,1,1.881-.2,4.722,4.722,0,0,1,3.327.98,4.368,4.368,0,0,1,1.033,3.274V19Zm-2.215-3.059a.83.83,0,0,0,.233.606.888.888,0,0,0,.664.237,1.18,1.18,0,0,0,.954-.439,1.7,1.7,0,0,0,.365-1.125v-.343l-1.266.176Q212.419,15.212,212.419,15.941Zm14.739,2.8a3.529,3.529,0,0,1-1.134.343,10.719,10.719,0,0,1-1.784.132,5.488,5.488,0,0,1-2.544-.576,4.2,4.2,0,0,1-1.736-1.613,4.478,4.478,0,0,1-.615-2.329,5.1,5.1,0,0,1,.655-2.65,4.268,4.268,0,0,1,1.868-1.687,6.407,6.407,0,0,1,2.813-.584,9.839,9.839,0,0,1,1.578.114,2.411,2.411,0,0,1,.9.264v2.918a2.6,2.6,0,0,0-.809-.387,3.248,3.248,0,0,0-.976-.167,2.375,2.375,0,0,0-1.666.523,1.9,1.9,0,0,0-.567,1.472,1.868,1.868,0,0,0,.558,1.446,2.177,2.177,0,0,0,1.534.514,3.82,3.82,0,0,0,1.925-.5Zm5.458-11.171a1.608,1.608,0,0,1-.576,1.283,2.252,2.252,0,0,1-1.516.492,2.2,2.2,0,0,1-1.5-.51,1.612,1.612,0,0,1-.584-1.266,1.561,1.561,0,0,1,.567-1.252,2.639,2.639,0,0,1,3.032,0A1.551,1.551,0,0,1,232.616,7.574ZM228.653,19V10H232.4v9Zm15.557-4.658a4.687,4.687,0,0,1-1.375,3.577,6.355,6.355,0,0,1-7.664.031,4.546,4.546,0,0,1-1.367-3.5,4.692,4.692,0,0,1,.642-2.487,4.172,4.172,0,0,1,1.828-1.617,6.311,6.311,0,0,1,2.733-.562,6.113,6.113,0,0,1,2.773.589,4.286,4.286,0,0,1,1.8,1.635A4.452,4.452,0,0,1,244.209,14.342Zm-3.8.018q0-1.837-1.406-1.837T237.6,14.447q0,2.03,1.424,2.03Q240.412,16.478,240.412,14.359Zm-.94-5.783h-2.646l2.628-2.821H242.6ZM251.443,19V14.087a2.184,2.184,0,0,0-.25-1.2.915.915,0,0,0-.813-.365.88.88,0,0,0-.756.378,1.613,1.613,0,0,0-.272.967V19h-3.744V10h3.744v1.406h.035a3.177,3.177,0,0,1,1.2-1.2,3.29,3.29,0,0,1,1.644-.426q2.953,0,2.953,3.727V19Zm16.233,0V13.867q0-1.345-1.028-1.345a.871.871,0,0,0-.765.382,1.689,1.689,0,0,0-.264.98V19h-3.744V5.676h3.744v5.546h.035a3.391,3.391,0,0,1,1.173-1.068,3.063,3.063,0,0,1,1.481-.374,2.7,2.7,0,0,1,2.224.936,4.273,4.273,0,0,1,.765,2.755V19Zm11.039,0V17.611h-.035a4.926,4.926,0,0,1-.839.94,3.23,3.23,0,0,1-.844.483,2.983,2.983,0,0,1-1.094.185,2.722,2.722,0,0,1-2.25-.958,4.429,4.429,0,0,1-.773-2.83V10h3.744v5.15q0,1.327.993,1.327a.972.972,0,0,0,.822-.36,1.642,1.642,0,0,0,.277-1.02V10h3.744v9Zm17.209,0V13.814a1.654,1.654,0,0,0-.233-.971.876.876,0,0,0-.76-.321.949.949,0,0,0-.809.391,1.79,1.79,0,0,0-.29,1.085v5h-3.744V13.9q0-1.38-.94-1.38a1,1,0,0,0-.861.4,1.933,1.933,0,0,0-.29,1.147V19h-3.744V10H288v1.424h.035a2.9,2.9,0,0,1,.672-.769,3.946,3.946,0,0,1,1.042-.633A3.235,3.235,0,0,1,291,9.78a3.181,3.181,0,0,1,1.613.378,2.931,2.931,0,0,1,1.094,1.2,3.207,3.207,0,0,1,1.266-1.165,3.772,3.772,0,0,1,1.758-.409,2.645,2.645,0,0,1,2.171.923,4.109,4.109,0,0,1,.756,2.663V19Zm10.424,0V17.629h-.035a2.944,2.944,0,0,1-2.742,1.591,2.625,2.625,0,0,1-2-.756,2.808,2.808,0,0,1-.721-2.021q0-2.654,3.261-3.076l2.232-.29a.851.851,0,0,0-.4-.721,1.8,1.8,0,0,0-1.063-.281,7,7,0,0,0-3.19.861V10.5a8.535,8.535,0,0,1,1.828-.519,10.639,10.639,0,0,1,1.881-.2,4.722,4.722,0,0,1,3.327.98,4.368,4.368,0,0,1,1.033,3.274V19Zm-2.215-3.059a.83.83,0,0,0,.233.606.888.888,0,0,0,.664.237,1.18,1.18,0,0,0,.954-.439,1.7,1.7,0,0,0,.365-1.125v-.343l-1.266.176Q304.133,15.212,304.133,15.941ZM317.29,19V14.087a2.184,2.184,0,0,0-.25-1.2.915.915,0,0,0-.813-.365.88.88,0,0,0-.756.378,1.613,1.613,0,0,0-.272.967V19h-3.744V10H315.2v1.406h.035a3.177,3.177,0,0,1,1.2-1.2,3.29,3.29,0,0,1,1.644-.426q2.953,0,2.953,3.727V19Zm10.424,0V17.629h-.035a2.944,2.944,0,0,1-2.742,1.591,2.625,2.625,0,0,1-2-.756,2.808,2.808,0,0,1-.721-2.021q0-2.654,3.261-3.076l2.232-.29a.851.851,0,0,0-.4-.721,1.8,1.8,0,0,0-1.063-.281,7,7,0,0,0-3.19.861V10.5a8.535,8.535,0,0,1,1.828-.519,10.639,10.639,0,0,1,1.881-.2,4.722,4.722,0,0,1,3.327.98,4.368,4.368,0,0,1,1.033,3.274V19ZM325.5,15.941a.83.83,0,0,0,.233.606.888.888,0,0,0,.664.237,1.18,1.18,0,0,0,.954-.439,1.7,1.7,0,0,0,.365-1.125v-.343l-1.266.176Q325.5,15.212,325.5,15.941Z" transform="translate(598.188 2108.955)" fill="#fff"/>
  </g>
</svg>
