<svg xmlns="http://www.w3.org/2000/svg" xmlns:xlink="http://www.w3.org/1999/xlink" width="817" height="553" viewBox="0 0 817 553">
  <defs>
    <clipPath id="clip-path">
      <rect id="Rectángulo_55990" data-name="Rectángulo 55990" width="91.6" height="76.519" transform="translate(0 0.001)" fill="none"/>
    </clipPath>
  </defs>
  <g id="Grupo_175153" data-name="Grupo 175153" transform="translate(-392 -2929)">
    <g id="Grupo_175134" data-name="Grupo 175134" transform="translate(494 3005)">
      <g id="Grupo_175135" data-name="Grupo 175135">
        <g id="Grupo_175140" data-name="Grupo 175140">
          <path id="Trazado_217469" data-name="Trazado 217469" d="M61.826,323.948v-.036H50.359v.008l-16.26.012-6.722,8.109c-1.563,1.951-3.831,3.494-3.831,7.126v6c0,3.194,1.014,3.2,3.16,3.2H51.168c3.01,0,10.608-4.706,10.608-4.706.671,0,1.044-.266,1.044-1.864V327.018c0-2.406-.137-2.946-.994-3.07" fill="#fff"/>
          <path id="Trazado_217470" data-name="Trazado 217470" d="M61.826,323.948v-.036H50.359v.008l-16.26.012-6.722,8.109c-1.563,1.951-3.831,3.494-3.831,7.126v6c0,3.194,1.014,3.2,3.16,3.2H51.168c3.01,0,10.608-4.706,10.608-4.706.671,0,1.044-.266,1.044-1.864V327.018C62.82,324.612,62.683,324.072,61.826,323.948Z" fill="none" stroke="#000" stroke-linecap="round" stroke-width="3"/>
          <path id="Trazado_217471" data-name="Trazado 217471" d="M62.82,327.018c0-2.381-.139-2.932-.994-3.066v-.04H34.072l-6.695,8.128c-1.553,1.94-3.826,3.76-3.826,7.054.023,3.081,1.037,3.093,3.155,3.093H51.168c2.646,0,4.976-1.581,7.27-3.775L62.82,335Z" fill="#fff"/>
          <path id="Trazado_217472" data-name="Trazado 217472" d="M62.82,327.018c0-2.381-.139-2.932-.994-3.066v-.04H34.072l-6.695,8.128c-1.553,1.94-3.826,3.76-3.826,7.054.023,3.081,1.037,3.093,3.155,3.093H51.168c2.646,0,4.976-1.581,7.27-3.775L62.82,335Z" fill="none" stroke="#000" stroke-linecap="round" stroke-width="3"/>
          <path id="Trazado_217473" data-name="Trazado 217473" d="M109.1,332.041l-6.726-8.108-16.256-.013v-.008H74.65v.036c-.858.122-1,.663-1,3.071v14.773c0,1.6.375,1.864,1.045,1.864,0,0,7.6,4.706,10.607,4.706h24.461c2.148,0,3.161,0,3.161-3.2v-6c0-2.745-2.268-5.175-3.829-7.126" fill="#fff"/>
          <path id="Trazado_217474" data-name="Trazado 217474" d="M109.1,332.041l-6.726-8.108-16.256-.013v-.008H74.65v.036c-.858.122-1,.663-1,3.071v14.773c0,1.6.375,1.864,1.045,1.864,0,0,7.6,4.706,10.607,4.706h24.461c2.148,0,3.161,0,3.161-3.2v-6C112.928,336.422,110.66,333.992,109.1,332.041Z" fill="none" stroke="#000" stroke-linecap="round" stroke-width="3"/>
          <path id="Trazado_217475" data-name="Trazado 217475" d="M73.654,327.018c0-2.381.143-2.932,1-3.066v-.04H102.4l6.7,8.128c1.551,1.94,3.825,4.113,3.825,7.054-.024,3.081-1.036,3.093-3.157,3.093H85.306c-2.646,0-4.973-1.581-7.271-3.775L73.654,335Z" fill="#fff"/>
          <path id="Trazado_217476" data-name="Trazado 217476" d="M73.654,327.018c0-2.381.143-2.932,1-3.066v-.04H102.4l6.7,8.128c1.551,1.94,3.825,4.113,3.825,7.054-.024,3.081-1.036,3.093-3.157,3.093H85.306c-2.646,0-4.973-1.581-7.271-3.775L73.654,335Z" fill="none" stroke="#000" stroke-linecap="round" stroke-width="3"/>
          <path id="Trazado_217477" data-name="Trazado 217477" d="M22.16,212.531a4.8,4.8,0,0,0-4.538-5.056l-12.988-.569L1.55,225.549S.5,236.348,8.058,236.681c.354.016.678.027.986.043,2.154.094,2.911-2.531,3.008-4.72l2.6-14.739a1.332,1.332,0,1,1,2.66.121l.7,5.7a2.312,2.312,0,1,0,4.619.2Z" fill="#fff"/>
          <path id="Trazado_217478" data-name="Trazado 217478" d="M22.16,212.531a4.8,4.8,0,0,0-4.538-5.056l-12.988-.569L1.55,225.549S.5,236.348,8.058,236.681c.354.016.678.027.986.043,2.154.094,2.911-2.531,3.008-4.72l2.6-14.739a1.332,1.332,0,1,1,2.66.121l.7,5.7a2.312,2.312,0,1,0,4.619.2Z" fill="none" stroke="#000" stroke-linecap="round" stroke-width="3"/>
          <path id="Trazado_217479" data-name="Trazado 217479" d="M78.64,101.614l1.453-1.511-.349-20.229H56.2L55.88,99.668l1.871,1.954a8.873,8.873,0,0,0,6.373,2.712h4.151v0h3.994a8.858,8.858,0,0,0,6.371-2.715" fill="#fff"/>
          <path id="Trazado_217480" data-name="Trazado 217480" d="M78.64,101.614l1.453-1.511-.349-20.229H56.2L55.88,99.668l1.871,1.954a8.873,8.873,0,0,0,6.373,2.712h4.151v0h3.994A8.858,8.858,0,0,0,78.64,101.614Z" fill="none" stroke="#000" stroke-linecap="round" stroke-width="3"/>
          <path id="Trazado_217481" data-name="Trazado 217481" d="M68.416,186.082h-.223l-34.7.223V324.04c0,1.96,1.065,2,2.07,2L60.881,326c1.939-.035,2.442.2,2.512-2.608l2.337-98.8c.191-4.206,4.512-4.039,4.7.167L73.2,323.687c0,2.313.74,2.5,2.532,2.5l24.923-.013c2.805-.007,2.464-1.069,2.464-2.242V186.3Z" fill="#e8f2fc"/>
          <path id="Trazado_217482" data-name="Trazado 217482" d="M68.416,186.082h-.223l-34.7.223V324.04c0,1.96,1.065,2,2.07,2L60.881,326c1.939-.035,2.442.2,2.512-2.608l2.337-98.8c.191-4.206,4.512-4.039,4.7.167L73.2,323.687c0,2.313.74,2.5,2.532,2.5l24.923-.013c2.805-.007,2.464-1.069,2.464-2.242V186.3Z" fill="none" stroke="#000" stroke-linecap="round" stroke-linejoin="round" stroke-width="3"/>
          <path id="Trazado_217483" data-name="Trazado 217483" d="M50.207,53.574l-1.375.086c-2.072.575-5.266,2.525-4.74,5.678.474,2.866.705,3.111,1.287,6.664.824,5.029,5.894,3.39,5.894,3.39Z" fill="#fff"/>
          <path id="Trazado_217484" data-name="Trazado 217484" d="M50.207,53.574l-1.375.086c-2.072.575-5.266,2.525-4.74,5.678.474,2.866.705,3.111,1.287,6.664.824,5.029,5.894,3.39,5.894,3.39Z" fill="none" stroke="#000" stroke-linecap="round" stroke-width="3"/>
          <path id="Trazado_217485" data-name="Trazado 217485" d="M68.119,36.567v.006l-18.734.077V72.321A9.384,9.384,0,0,0,51.992,78.8l5.76,6a8.864,8.864,0,0,0,6.373,2.713h4.15V87.5h3.994a8.859,8.859,0,0,0,6.371-2.714l5.762-6a9.382,9.382,0,0,0,2.606-6.481V36.646Z" fill="#fff"/>
          <path id="Trazado_217486" data-name="Trazado 217486" d="M68.119,36.567v.006l-18.734.077V72.321A9.384,9.384,0,0,0,51.992,78.8l5.76,6a8.864,8.864,0,0,0,6.373,2.713h4.15V87.5h3.994a8.859,8.859,0,0,0,6.371-2.714l5.762-6a9.382,9.382,0,0,0,2.606-6.481V36.646Z" fill="none" stroke="#000" stroke-linecap="round" stroke-width="3"/>
          <path id="Trazado_217487" data-name="Trazado 217487" d="M49.369,55.494V45.927c-.057-4.318,2.933-8.669,7.683-8.74h9.124c2.419.888.035,6.234,2.439,5.313L83,37.059c2.58-.555,4.059,1.684,4.059,3.765V58.218c0,.722,2.787-1.2,3.753-5.3L92.535,28.49c.065-3.313-.9-6.579-5.527-6.579l-10.437,0H62.413c-11.655-.2-20.435,5.48-18.474,18l1.272,11.011c.406,3.211,4.158,5.2,4.158,4.563" fill="#e8f2fc"/>
          <path id="Trazado_217488" data-name="Trazado 217488" d="M49.369,55.494V45.927c-.057-4.318,2.933-8.669,7.683-8.74h9.124c2.419.888.035,6.234,2.439,5.313L83,37.059c2.58-.555,4.059,1.684,4.059,3.765V58.218c0,.722,2.787-1.2,3.753-5.3L92.535,28.49c.065-3.313-.9-6.579-5.527-6.579l-10.437,0H62.413c-11.655-.2-20.435,5.48-18.474,18l1.272,11.011C45.617,54.142,49.369,56.133,49.369,55.494Z" fill="none" stroke="#000" stroke-linecap="round" stroke-linejoin="round" stroke-width="3"/>
          <path id="Trazado_217489" data-name="Trazado 217489" d="M103.248,97.04,86.158,95.2l-1.146-.074c-2.16-.336-3.825-1.512-3.931-3.695L68.2,104,55.312,91.43c-.107,2.183-1.712,3.359-3.875,3.695l-1.3.126L27.221,97.876c-8.489,1.12-15.414,6.64-15.592,19.48L4.206,206.9l14.4,0c2.019,0,2.565.156,2.808-2.7l8.347-62.892c.073-.624,2.287-.682,2.287-.066v64.014c0,2.8.254,2.537,1.894,2.537h68.506c.9,0,1.8.263,1.8-2.537v-70.53c0-2.672,2.73-2.883,7.143-3.277,11.965-1.062,16.774-1.847,34.874-3.316,12.843-1.041,17.085-13.977,7.432-22.652-16.022-14.4-31.727-30.378-32.682-30.988L108.871,87.12s25.254,22.048,23.856,23.445S109.029,97.3,103.248,97.04" fill="#ddd"/>
          <path id="Trazado_217490" data-name="Trazado 217490" d="M103.248,97.04,86.158,95.2l-1.146-.074c-2.16-.336-3.825-1.512-3.931-3.695L68.2,104,55.312,91.43c-.107,2.183-1.712,3.359-3.875,3.695l-1.3.126L27.221,97.876c-8.489,1.12-15.414,6.64-15.592,19.48L4.206,206.9l14.4,0c2.019,0,2.565.156,2.808-2.7l8.347-62.892c.073-.624,2.287-.682,2.287-.066v64.014c0,2.8.254,2.537,1.894,2.537h68.506c.9,0,1.8.263,1.8-2.537v-70.53c0-2.672,2.73-2.883,7.143-3.277,11.965-1.062,16.774-1.847,34.874-3.316,12.843-1.041,17.085-13.977,7.432-22.652-16.022-14.4-31.727-30.378-32.682-30.988L108.871,87.12s25.254,22.048,23.856,23.445S109.029,97.3,103.248,97.04Z" fill="none" stroke="#000" stroke-linecap="round" stroke-linejoin="round" stroke-width="3"/>
          <path id="Trazado_217491" data-name="Trazado 217491" d="M21.888,207.884c-.146,1.489-.658,1.793-2,1.793H4.423c-1.3-.005-1.5-.369-1.5-1.821v-7.705c0-1.455-.094-1.946,1.77-1.946H21.374c1.256,0,1.27.611,1.131,2.009Z" fill="#fff"/>
          <path id="Trazado_217492" data-name="Trazado 217492" d="M21.888,207.884c-.146,1.489-.658,1.793-2,1.793H4.423c-1.3-.005-1.5-.369-1.5-1.821v-7.705c0-1.455-.094-1.946,1.77-1.946H21.374c1.256,0,1.27.611,1.131,2.009Z" fill="none" stroke="#000" stroke-linecap="round" stroke-width="3"/>
          <path id="Trazado_217493" data-name="Trazado 217493" d="M55.828,89.441c-1-1.15-1.454-1.456-2.145-.079l-3.594,5.817,11.095,18.748c.765,1.3,1.376,1.222,2.067-.079l4.9-10.176Z" fill="#fff"/>
          <path id="Trazado_217494" data-name="Trazado 217494" d="M55.828,89.441c-1-1.15-1.454-1.456-2.145-.079l-3.594,5.817,11.095,18.748c.765,1.3,1.376,1.222,2.067-.079l4.9-10.176Z" fill="none" stroke="#000" stroke-linecap="round" stroke-width="3"/>
          <path id="Trazado_217495" data-name="Trazado 217495" d="M80.393,89.441c.993-1.15,1.453-1.456,2.142-.079l3.595,5.817L75.037,113.927c-.768,1.3-1.379,1.222-2.068-.079l-4.9-10.176Z" fill="#fff"/>
          <path id="Trazado_217496" data-name="Trazado 217496" d="M80.393,89.441c.993-1.15,1.453-1.456,2.142-.079l3.595,5.817L75.037,113.927c-.768,1.3-1.379,1.222-2.068-.079l-4.9-10.176Z" fill="none" stroke="#000" stroke-linecap="round" stroke-width="3"/>
          <path id="Trazado_217497" data-name="Trazado 217497" d="M91.75,81.9a3.138,3.138,0,1,1-6.275,0V36.845a3.138,3.138,0,0,1,6.275,0Z" fill="#3b94ec"/>
          <path id="Trazado_217498" data-name="Trazado 217498" d="M114.677,76.074c-1.638-3.185-6.769-17.588-10.238-20.159l-9.475-7.13c-2.375-2.25-3.892-1.47-4.892-.377-1.022,1.115-.906,5.67,1.884,8.4,0,0,4.784,3.831,6.061,5.229,1.219,1.336,2.7,3.872,1.326,5.279-.629,1.218-2.006.242-3.641-1.151,0,0-5.863-6.256-7.738-3.256-.621.994-.75,2.75,2.375,5.625,0,0,11.258,10.167,11.916,10.7,3.586,2.891,3.873,4.091,5.4,4.114,2.949.042,7.018-7.273,7.018-7.273" fill="#fff"/>
          <path id="Trazado_217499" data-name="Trazado 217499" d="M114.677,76.074c-1.638-3.185-6.769-17.588-10.238-20.159l-9.475-7.13c-2.375-2.25-3.892-1.47-4.892-.377-1.022,1.115-.906,5.67,1.884,8.4,0,0,4.784,3.831,6.061,5.229,1.219,1.336,2.7,3.872,1.326,5.279-.629,1.218-2.006.242-3.641-1.151,0,0-5.863-6.256-7.738-3.256-.621.994-.75,2.75,2.375,5.625,0,0,11.258,10.167,11.916,10.7,3.586,2.891,3.873,4.091,5.4,4.114C110.608,83.389,114.677,76.074,114.677,76.074Z" fill="none" stroke="#000" stroke-linecap="round" stroke-width="3"/>
          <path id="Trazado_217500" data-name="Trazado 217500" d="M115.209,69.257c-1.207-.881-1.784-.712-2.675.284L101.906,81.433c-.861.973-.728,1.367.355,2.338L108,88.908c1.082.97,1.388,1.366,2.63-.022L122.079,76.1c.839-.935.391-1.354-.741-2.182Z" fill="#fff"/>
          <path id="Trazado_217501" data-name="Trazado 217501" d="M115.209,69.257c-1.207-.881-1.784-.712-2.675.284L101.906,81.433c-.861.973-.728,1.367.355,2.338L108,88.908c1.082.97,1.388,1.366,2.63-.022L122.079,76.1c.839-.935.391-1.354-.741-2.182Z" fill="none" stroke="#000" stroke-linecap="round" stroke-width="3"/>
          <path id="Trazado_217503" data-name="Trazado 217503" d="M517.859,320.926l.728-9.884c-1.1,0-20.663,7.571-20.991,8.924-.74,3.075-2.154,8.35-2.312,8.88-1.37,4.72,1.977,5.566,4.282,5.566l9.2-.015s5.282.585,7.676-5.7a52.284,52.284,0,0,0,1.413-7.773" fill="#3b94ec"/>
          <path id="Trazado_217504" data-name="Trazado 217504" d="M517.859,320.926l.728-9.884c-1.1,0-20.663,7.571-20.991,8.924-.74,3.075-2.154,8.35-2.312,8.88-1.37,4.72,1.977,5.566,4.282,5.566l9.2-.015s5.282.585,7.676-5.7A52.284,52.284,0,0,0,517.859,320.926Z" fill="none" stroke="#000" stroke-linecap="round" stroke-linejoin="round" stroke-width="3"/>
          <path id="Trazado_217505" data-name="Trazado 217505" d="M538.389,320.371l-.727-9.884c1.1,0,20.663,7.571,20.99,8.924.741,3.076,2.155,8.35,2.311,8.881,1.371,4.721-1.975,5.565-4.281,5.565l-9.2-.014s-5.282.584-7.675-5.7a52.219,52.219,0,0,1-1.414-7.774" fill="#3b94ec"/>
          <path id="Trazado_217506" data-name="Trazado 217506" d="M538.389,320.371l-.727-9.884c1.1,0,20.663,7.571,20.99,8.924.741,3.076,2.155,8.35,2.311,8.881,1.371,4.721-1.975,5.565-4.281,5.565l-9.2-.014s-5.282.584-7.675-5.7A52.219,52.219,0,0,1,538.389,320.371Z" fill="none" stroke="#000" stroke-linecap="round" stroke-linejoin="round" stroke-width="3"/>
          <path id="Trazado_217507" data-name="Trazado 217507" d="M508.91,85.969h39.539l-.625-18.295-41.307.416Z" fill="#3b94ec"/>
          <path id="Trazado_217508" data-name="Trazado 217508" d="M508.91,85.969h39.539l-.625-18.295-41.307.416Z" fill="none" stroke="#000" stroke-linecap="round" stroke-linejoin="round" stroke-width="3"/>
          <path id="Trazado_217509" data-name="Trazado 217509" d="M560.714,187.293l-4.223-13.4c-2.681-9.013-3.646-12.981-.7-29.3l4.347-24.246-1.248-24.732c-.088-.011-.164-.043-.255-.054l-11.612-1.727-2.06-.439a7.108,7.108,0,0,1-5.6-6.61l-.249-5.492-.163-3.482H517.495l-.16,3.482-.252,5.492a7.107,7.107,0,0,1-5.607,6.61l-2.057.439-11.484,2.455c-7.589,1.05-11.438,6.091-12.663,12.291L472.65,198.253l0,19.955s-.273,6.01,2.969,6.29c.314.027.605.024.88.042,1.922.084,2.6-2.295,2.682-4.277l.6-13.477c.032-.675.577-2.065,1.23-2.036s1.606.321,2.108,2.143l.735,5.16a2.062,2.062,0,1,0,4.118.182l-.214-7.806c.071-1.61-.831-4.139-2.55-6.6l-2.041-2.059,14.924-64.622.051.211v0l2.508,13.236c2.785,16.323,2.516,18.9-.594,29.092l-4.332,13.608c-1.719,5.9-1.719,17.169-1.719,17.169l1.741,30.576h.021L500,308.327a43.594,43.594,0,0,1-2.052,10.3c-.933,3.072-.72,7.554,4.823,7.472H504c14.59,0,14.475-11.584,14.475-11.584l5.219-79.472L525.109,215a15.564,15.564,0,0,1,1.04-3.474,2.677,2.677,0,0,1,4.141,0A15.933,15.933,0,0,1,531.332,215l1.422,20.04s4.758,73.672,4.895,74.628l.319,4.844s2.39,11.557,14.417,11.557h.987c5.547.08,6.046-4.4,5.1-7.472a41.14,41.14,0,0,1-2.065-9.839l4.26-73.718h.023l1.739-30.576s0-11.27-1.719-17.169" fill="#fff"/>
          <path id="Trazado_217510" data-name="Trazado 217510" d="M560.714,187.293l-4.223-13.4c-2.681-9.013-3.646-12.981-.7-29.3l4.347-24.246-1.248-24.732c-.088-.011-.164-.043-.255-.054l-11.612-1.727-2.06-.439a7.108,7.108,0,0,1-5.6-6.61l-.249-5.492-.163-3.482H517.495l-.16,3.482-.252,5.492a7.107,7.107,0,0,1-5.607,6.61l-2.057.439-11.484,2.455c-7.589,1.05-11.438,6.091-12.663,12.291L472.65,198.253l0,19.955s-.273,6.01,2.969,6.29c.314.027.605.024.88.042,1.922.084,2.6-2.295,2.682-4.277l.6-13.477c.032-.675.577-2.065,1.23-2.036s1.606.321,2.108,2.143l.735,5.16a2.062,2.062,0,1,0,4.118.182l-.214-7.806c.071-1.61-.831-4.139-2.55-6.6l-2.041-2.059,14.924-64.622.051.211v0l2.508,13.236c2.785,16.323,2.516,18.9-.594,29.092l-4.332,13.608c-1.719,5.9-1.719,17.169-1.719,17.169l1.741,30.576h.021L500,308.327a43.594,43.594,0,0,1-2.052,10.3c-.933,3.072-.72,7.554,4.823,7.472H504c14.59,0,14.475-11.584,14.475-11.584l5.219-79.472L525.109,215a15.564,15.564,0,0,1,1.04-3.474,2.677,2.677,0,0,1,4.141,0A15.933,15.933,0,0,1,531.332,215l1.422,20.04s4.758,73.672,4.895,74.628l.319,4.844s2.39,11.557,14.417,11.557h.987c5.547.08,6.046-4.4,5.1-7.472a41.14,41.14,0,0,1-2.065-9.839l4.26-73.718h.023l1.739-30.576S562.433,193.192,560.714,187.293Z" fill="none" stroke="#000" stroke-linecap="round" stroke-width="3"/>
          <path id="Trazado_217511" data-name="Trazado 217511" d="M528.189,32.416l-17.354.073V64.151c0,1.7,1.017,6.735,2.245,8.781,0,0,4.639,10.517,15.109,10.517,11.19.01,15.691-11.9,15.691-11.9a36,36,0,0,0,1.663-7.4V32.489Z" fill="#fff"/>
          <path id="Trazado_217512" data-name="Trazado 217512" d="M528.189,32.416l-17.354.073V64.151c0,1.7,1.017,6.735,2.245,8.781,0,0,4.639,10.517,15.109,10.517,11.19.01,15.691-11.9,15.691-11.9a36,36,0,0,0,1.663-7.4V32.489Z" fill="none" stroke="#000" stroke-linecap="round" stroke-width="3"/>
          <path id="Trazado_217513" data-name="Trazado 217513" d="M495.384,49.881c0-18.729,9.164-28.3,18.545-32.188s19.386-.683,21.4,5.325c1.856,5.535-.051,14.962-10.089,16.6-3.133.512-13.224,1.271-13.439,11.687-.055,2.634.006,25.349.116,28.122.161,4.063-1.135,6.628-3.008,6.763-4.173.3-13.525-9.346-13.525-36.313" fill="#3b94ec"/>
          <path id="Trazado_217514" data-name="Trazado 217514" d="M495.384,49.881c0-18.729,9.164-28.3,18.545-32.188s19.386-.683,21.4,5.325c1.856,5.535-.051,14.962-10.089,16.6-3.133.512-13.224,1.271-13.439,11.687-.055,2.634.006,25.349.116,28.122.161,4.063-1.135,6.628-3.008,6.763C504.736,86.5,495.384,76.848,495.384,49.881Z" fill="none" stroke="#000" stroke-linecap="round" stroke-linejoin="round" stroke-width="3"/>
          <path id="Trazado_217515" data-name="Trazado 217515" d="M561.558,49.152c0-18.728-9.725-27.571-19.115-31.459s-18.885-1.657-22.963,3.481c-3.848,4.846-6.025,11.849.134,19.642,7.618,9.636,19.73,10.176,23.439,16.28,1.384,2.276,1.408,5.142,1.408,7.919,0,38.605,17.1,19.452,17.1-15.863" fill="#3b94ec"/>
          <path id="Trazado_217516" data-name="Trazado 217516" d="M561.558,49.152c0-18.728-9.725-27.571-19.115-31.459s-18.885-1.657-22.963,3.481c-3.848,4.846-6.025,11.849.134,19.642,7.618,9.636,19.73,10.176,23.439,16.28,1.384,2.276,1.408,5.142,1.408,7.919C544.461,103.62,561.558,84.467,561.558,49.152Z" fill="none" stroke="#000" stroke-linecap="round" stroke-linejoin="round" stroke-width="3"/>
          <path id="Trazado_217517" data-name="Trazado 217517" d="M562.433,204.462s0-5.328-.557-10.572c-.421-3.958-.339-6.6-4.317-6.6H498.882c-3.978,0-3.9,2.639-4.316,6.6-.56,5.244-.56,10.572-.56,10.572l1.191,41.83c0,2.941.8,2.816,3.238,2.816h59.747c2.233,0,3.126-.686,3.067-3.1Z" fill="#ddd"/>
          <path id="Trazado_217518" data-name="Trazado 217518" d="M562.433,204.462s0-5.328-.557-10.572c-.421-3.958-.339-6.6-4.317-6.6H498.882c-3.978,0-3.9,2.639-4.316,6.6-.56,5.244-.56,10.572-.56,10.572l1.191,41.83c0,2.941.8,2.816,3.238,2.816h59.747c2.233,0,3.126-.686,3.067-3.1Z" fill="none" stroke="#000" stroke-linecap="round" stroke-linejoin="round" stroke-width="3"/>
          <path id="Trazado_217519" data-name="Trazado 217519" d="M560.714,187.293l-4.223-13.4c-2.681-9.013-3.646-12.981-.7-29.3l2.507-14.239c.259-1.073,1.394-7.425,1.589-8.738l.2-1.053v-.005l.04-.169-.031-.262c.6-4.718-4.235-11.994-4.235-11.994-1.009,0-22-12.5-25.914-8.926h-3.619c-3.918-3.577-23.7,8.317-24.707,8.317,0,0-4.086,18.682-3.485,23.4l-.029.263.039.169v0l.2,1.053c.2,1.322.42,2.521.681,3.6l1.626,8.582c2.785,16.323,2.516,18.9-.594,29.092l-4.332,13.608c-.209.722-.394,1.529-.557,2.378l66.172.4a26.678,26.678,0,0,0-.626-2.776" fill="#fff"/>
          <path id="Trazado_217520" data-name="Trazado 217520" d="M560.714,187.293l-4.223-13.4c-2.681-9.013-3.646-12.981-.7-29.3l2.507-14.239c.259-1.073,1.394-7.425,1.589-8.738l.2-1.053v-.005l.04-.169-.031-.262c.6-4.718-4.235-11.994-4.235-11.994-1.009,0-22-12.5-25.914-8.926h-3.619c-3.918-3.577-23.7,8.317-24.707,8.317,0,0-4.086,18.682-3.485,23.4l-.029.263.039.169v0l.2,1.053c.2,1.322.42,2.521.681,3.6l1.626,8.582c2.785,16.323,2.516,18.9-.594,29.092l-4.332,13.608c-.209.722-.394,1.529-.557,2.378l66.172.4A26.678,26.678,0,0,0,560.714,187.293Z" fill="none" stroke="#000" stroke-linecap="round" stroke-width="3"/>
          <path id="Trazado_217521" data-name="Trazado 217521" d="M495.725,187.293c-.239.833-.445,1.776-.627,2.776h22.329a6.9,6.9,0,0,0,6.9-6.9V145.593a65.128,65.128,0,0,0-1.446-13.651l-8.538-39.9a7.019,7.019,0,0,1-2.869,1.358l-2.057.439-11.484,2.455c-7.589,1.05-11.438,6.091-12.663,12.291l-12.948,81.489h13.213l12.555-58.925.051.211v0l2.509,13.236c2.784,16.323,2.515,18.9-.6,29.092Z" fill="#e8f2fc"/>
          <path id="Trazado_217522" data-name="Trazado 217522" d="M495.725,187.293c-.239.833-.445,1.776-.627,2.776h22.329a6.9,6.9,0,0,0,6.9-6.9V145.593a65.128,65.128,0,0,0-1.446-13.651l-8.538-39.9a7.019,7.019,0,0,1-2.869,1.358l-2.057.439-11.484,2.455c-7.589,1.05-11.438,6.091-12.663,12.291l-12.948,81.489h13.213l12.555-58.925.051.211v0l2.509,13.236c2.784,16.323,2.515,18.9-.6,29.092Z" fill="none" stroke="#000" stroke-linecap="round" stroke-linejoin="round" stroke-width="3"/>
          <path id="Trazado_217523" data-name="Trazado 217523" d="M470.957,183.375a.977.977,0,0,0-.974.974l1.148,7.369a.973.973,0,0,0,.972.97h14.529a1.134,1.134,0,0,0,1.119-.96l1.259-7.391a.84.84,0,0,0-.83-.962Z" fill="#fff"/>
          <path id="Trazado_217524" data-name="Trazado 217524" d="M470.957,183.375a.977.977,0,0,0-.974.974l1.148,7.369a.973.973,0,0,0,.972.97h14.529a1.134,1.134,0,0,0,1.119-.96l1.259-7.391a.84.84,0,0,0-.83-.962Z" fill="none" stroke="#000" stroke-linecap="round" stroke-width="3"/>
          <path id="Trazado_217525" data-name="Trazado 217525" d="M559.079,126.184a8.459,8.459,0,0,1,6.6-6.783l24.062-4.466c15.028-2.7,16.523-9.713,10.645-15.563L575.537,73.578l-7.49,6.83,14.314,18.126s1.5,1.9-.732,1.654c-4.885-.529-17.047-3.805-23-4.628l-11.613-1.727-2.059-.438a7.061,7.061,0,0,1-2.865-1.359l-8.425,39.806a65.838,65.838,0,0,0-1.43,13.654v37.671a6.9,6.9,0,0,0,6.9,6.9h22.2a26.7,26.7,0,0,0-.626-2.777l-4.223-13.4c-2.682-9.013-3.646-12.981-.7-29.3Z" fill="#e8f2fc"/>
          <path id="Trazado_217526" data-name="Trazado 217526" d="M559.079,126.184a8.459,8.459,0,0,1,6.6-6.783l24.062-4.466c15.028-2.7,16.523-9.713,10.645-15.563L575.537,73.578l-7.49,6.83,14.314,18.126s1.5,1.9-.732,1.654c-4.885-.529-17.047-3.805-23-4.628l-11.613-1.727-2.059-.438a7.061,7.061,0,0,1-2.865-1.359l-8.425,39.806a65.838,65.838,0,0,0-1.43,13.654v37.671a6.9,6.9,0,0,0,6.9,6.9h22.2a26.7,26.7,0,0,0-.626-2.777l-4.223-13.4c-2.682-9.013-3.646-12.981-.7-29.3Z" fill="none" stroke="#000" stroke-linecap="round" stroke-linejoin="round" stroke-width="3"/>
          <path id="Trazado_217527" data-name="Trazado 217527" d="M512.656,90.252c.89-.586,1.257-.512,2.265.295l12.338,7.528c1.465,1.362,1.109,2.679-.424,4.534,0,0-11.16,13.333-15.943-2.56l-1.3-4.336c-.352-1.466-.561-1.68.409-2.8Z" fill="#fff"/>
          <path id="Trazado_217528" data-name="Trazado 217528" d="M512.656,90.252c.89-.586,1.257-.512,2.265.295l12.338,7.528c1.465,1.362,1.109,2.679-.424,4.534,0,0-11.16,13.333-15.943-2.56l-1.3-4.336c-.352-1.466-.561-1.68.409-2.8Z" fill="none" stroke="#000" stroke-linecap="round" stroke-width="3"/>
          <path id="Trazado_217529" data-name="Trazado 217529" d="M543.245,90.044c-.888-.587-1.257-.512-2.263.295L529.11,98.075c-1.469,1.362-1.109,2.679.423,4.533,0,0,11.465,13.333,15.942-2.559l1.3-4.336c.352-1.466.563-1.68-.407-2.8Z" fill="#fff"/>
          <path id="Trazado_217530" data-name="Trazado 217530" d="M543.245,90.044c-.888-.587-1.257-.512-2.263.295L529.11,98.075c-1.469,1.362-1.109,2.679.423,4.533,0,0,11.465,13.333,15.942-2.559l1.3-4.336c.352-1.466.563-1.68-.407-2.8Z" fill="none" stroke="#000" stroke-linecap="round" stroke-width="3"/>
          <path id="Trazado_217531" data-name="Trazado 217531" d="M553.474,73.048a2.617,2.617,0,1,1-5.234-.012l1.741-37.2a2.619,2.619,0,0,1,5.239.013Z" fill="#fff"/>
          <path id="Trazado_217532" data-name="Trazado 217532" d="M572.414,70.043l-.866.8c-1.344-2.616-5.559-14.448-8.409-16.558l-5.951-4.088a2.862,2.862,0,0,0-3.6.057,3.845,3.845,0,0,0,.277,5.55s2.822,2.492,3.994,3.511c3.279,2.848,2.863,6.385-1.1,4.047,0,0-7.03-4.806-7.516-4.2-.83,1.041-.361,2.771-.241,4.82,0,0,13.421,11.127,14.009,11.6,2.943,2.373,3.212.709,4.474.728,2.419.036,5.367-2.706,4.924-6.266" fill="#fff"/>
          <path id="Trazado_217533" data-name="Trazado 217533" d="M572.414,70.043l-.866.8c-1.344-2.616-5.559-14.448-8.409-16.558l-5.951-4.088a2.862,2.862,0,0,0-3.6.057,3.845,3.845,0,0,0,.277,5.55s2.822,2.492,3.994,3.511c3.279,2.848,2.863,6.385-1.1,4.047,0,0-7.03-4.806-7.516-4.2-.83,1.041-.361,2.771-.241,4.82,0,0,13.421,11.127,14.009,11.6,2.943,2.373,3.212.709,4.474.728C569.909,76.345,572.857,73.6,572.414,70.043Z" fill="none" stroke="#000" stroke-linecap="round" stroke-width="3"/>
          <path id="Trazado_217534" data-name="Trazado 217534" d="M578.725,74.133a.976.976,0,0,0,.209-1.361l-4.693-4.43a.977.977,0,0,0-1.362-.207l-10.885,8.4a1.132,1.132,0,0,0-.331,1.438l3.873,5.115a.837.837,0,0,0,1.237.283Z" fill="#fff"/>
          <path id="Trazado_217535" data-name="Trazado 217535" d="M578.725,74.133a.976.976,0,0,0,.209-1.361l-4.693-4.43a.977.977,0,0,0-1.362-.207l-10.885,8.4a1.132,1.132,0,0,0-.331,1.438l3.873,5.115a.837.837,0,0,0,1.237.283Z" fill="none" stroke="#000" stroke-linecap="round" stroke-width="3"/>
          <path id="Trazado_217542" data-name="Trazado 217542" d="M486.089,65.911a6.25,6.25,0,1,1-6.25-6.25,6.25,6.25,0,0,1,6.25,6.25" fill="#ddd"/>
          <g id="Grupo_175136" data-name="Grupo 175136" transform="translate(332.792 158.146)">
            <path id="Polígono_63" data-name="Polígono 63" d="M22.336,0,44.672,22.908H0Z" transform="translate(128.891 0) rotate(90)" fill="#0b67d1"/>
            <rect id="Rectángulo_55900" data-name="Rectángulo 55900" width="109.419" height="27.49" transform="translate(0 8.591)" fill="#0b67d1"/>
          </g>
          <text id="_Lenguaje_" data-name="(Lenguaje)" transform="translate(270 301)" fill="#12263f" font-size="18" font-family="SegoeUI-Bold, Segoe UI" font-weight="700"><tspan x="0" y="0">(Lenguaje)</tspan></text>
          <rect id="Rectángulo_55991" data-name="Rectángulo 55991" width="100" height="28" rx="5" transform="translate(333 126)" fill="#12263f"/>
          <rect id="Rectángulo_55988" data-name="Rectángulo 55988" width="126" height="35" rx="5" transform="translate(250 237)" fill="#12263f"/>
          <text id="MENSAJE" transform="translate(342 148)" fill="#fff" font-size="18" font-family="SegoeUI-Bold, Segoe UI" font-weight="700"><tspan x="0" y="0">MENSAJE</tspan></text>
          <text id="CÓDIGO" transform="translate(280 262)" fill="#fff" font-size="18" font-family="SegoeUI-Bold, Segoe UI" font-weight="700"><tspan x="0" y="0">CÓDIGO</tspan></text>
          <g id="Elipse_6191" data-name="Elipse 6191" transform="translate(-102 -64)" fill="none" stroke="#11273d" stroke-width="6" stroke-dasharray="12">
            <ellipse cx="408.5" cy="270.5" rx="408.5" ry="270.5" stroke="none"/>
            <ellipse cx="408.5" cy="270.5" rx="405.5" ry="267.5" fill="none"/>
          </g>
          <rect id="Rectángulo_55989" data-name="Rectángulo 55989" width="126" height="35" rx="5" transform="translate(250 -76)" fill="#12263f"/>
          <text id="CONTEXTO" transform="translate(267 -51)" fill="#fff" font-size="18" font-family="SegoeUI-Bold, Segoe UI" font-weight="700"><tspan x="0" y="0">CONTEXTO</tspan></text>
          <g id="Grupo_175137" data-name="Grupo 175137" transform="translate(282 202.817) rotate(180)">
            <path id="Polígono_63-2" data-name="Polígono 63" d="M22.336,0,44.672,22.908H0Z" transform="translate(128.891 0) rotate(90)" fill="#0b67d1"/>
            <rect id="Rectángulo_55900-2" data-name="Rectángulo 55900" width="109.419" height="27.49" transform="translate(0 8.591)" fill="#0b67d1"/>
          </g>
          <rect id="Rectángulo_55992" data-name="Rectángulo 55992" width="100" height="28" rx="5" transform="translate(175 127)" fill="#12263f"/>
          <text id="CANAL" transform="translate(196 148)" fill="#fff" font-size="18" font-family="SegoeUI-Bold, Segoe UI" font-weight="700"><tspan x="0" y="0">CANAL</tspan></text>
        </g>
        <text id="RECEPTOR" transform="translate(487 370)" fill="#12263f" font-size="18" font-family="SegoeUI-Bold, Segoe UI" font-weight="700"><tspan x="0" y="0">RECEPTOR</tspan></text>
        <text id="EMISOR" transform="translate(35 382)" fill="#12263f" font-size="18" font-family="SegoeUI-Bold, Segoe UI" font-weight="700"><tspan x="0" y="0">EMISOR</tspan></text>
        <g id="Grupo_175141" data-name="Grupo 175141" transform="translate(265 147.999)">
          <g id="Grupo_175138" data-name="Grupo 175138" clip-path="url(#clip-path)">
            <path id="Trazado_217543" data-name="Trazado 217543" d="M91.6,44.133c0-11.052-12.186-20.014-27.213-20.014S37.171,33.081,37.171,44.133c0,10.389,10.77,18.927,24.546,19.915,6.254,6.42,17.651,11.7,24.938,12.472-5.547-3.671-8.441-10.3-9.811-14.609C85.6,58.586,91.6,51.879,91.6,44.133" fill="#12263f"/>
            <path id="Trazado_217544" data-name="Trazado 217544" d="M35.4,1.5C16.677,1.5,1.5,12.915,1.5,27c0,9.711,7.222,18.158,17.849,22.461-1.949,4.764-5.209,10.433-10.44,13.9,7.13-.757,17.553-5.122,25.2-10.887.43.011.858.023,1.291.023,18.723,0,33.9-11.416,33.9-25.5S54.121,1.5,35.4,1.5" fill="#fff"/>
            <path id="Trazado_217545" data-name="Trazado 217545" d="M35.4,1.5C16.677,1.5,1.5,12.915,1.5,27c0,9.711,7.222,18.158,17.849,22.461-1.949,4.764-5.209,10.433-10.44,13.9,7.13-.757,17.553-5.122,25.2-10.887.43.011.858.023,1.291.023,18.723,0,33.9-11.416,33.9-25.5S54.121,1.5,35.4,1.5Z" fill="none" stroke="#12263f" stroke-linecap="round" stroke-linejoin="round" stroke-width="3"/>
            <path id="Trazado_217546" data-name="Trazado 217546" d="M22.331,26.917a4.844,4.844,0,1,1-4.843-4.845,4.845,4.845,0,0,1,4.843,4.845" fill="#3381e0"/>
            <path id="Trazado_217547" data-name="Trazado 217547" d="M40.627,27.034a4.844,4.844,0,1,1-4.844-4.846,4.843,4.843,0,0,1,4.844,4.846" fill="#3381e0"/>
            <path id="Trazado_217548" data-name="Trazado 217548" d="M58.943,27.034A4.845,4.845,0,1,1,54.1,22.188a4.845,4.845,0,0,1,4.846,4.846" fill="#3381e0"/>
          </g>
        </g>
      </g>
    </g>
  </g>
</svg>
