<svg xmlns="http://www.w3.org/2000/svg" xmlns:xlink="http://www.w3.org/1999/xlink" width="130.994" height="158.794" viewBox="0 0 130.994 158.794">
  <defs>
    <clipPath id="clip-path">
      <rect id="Rectángulo_52648" data-name="Rectángulo 52648" width="130.994" height="130.999" fill="#12263f"/>
    </clipPath>
    <linearGradient id="linear-gradient" x1="0.5" x2="0.5" y2="1" gradientUnits="objectBoundingBox">
      <stop offset="0" stop-color="#f5f5f5"/>
      <stop offset="0.25" stop-color="#f5f5f5"/>
      <stop offset="1" stop-color="#a7b3cf"/>
    </linearGradient>
    <clipPath id="clip-path-2">
      <rect id="Rectángulo_52657" data-name="Rectángulo 52657" width="52.821" height="52.853" fill="none"/>
    </clipPath>
  </defs>
  <g id="Grupo_175153" data-name="Grupo 175153" transform="translate(-4115.756 7459.459)">
    <g id="Grupo_175058" data-name="Grupo 175058" transform="translate(4115.756 -7431.664)">
      <g id="Grupo_171292" data-name="Grupo 171292" clip-path="url(#clip-path)">
        <path id="Trazado_212408" data-name="Trazado 212408" d="M116.978,78.558c-3.643,0-7.094-.008-10.545,0-1.8.006-2.534.762-2.554,2.581-.006.546,0,1.092,0,1.638V89.5H99.6v4.218h78.419v-4.3h-4.284v-1.5q0-22.924,0-45.848c0-2.1-.688-2.809-2.736-2.812q-6-.008-12.008,0c-1.992,0-2.7.714-2.71,2.7s0,3.966,0,6.033H146.43c-2.733,0-3.252.519-3.252,3.251,0,2.528,0,5.057,0,7.665h-9.853c-2.729,0-3.247.519-3.247,3.256,0,2.528,0,5.056,0,7.533a2.827,2.827,0,0,1-.443.111c-3.366.008-6.732,0-10.1.019-1.8.008-2.547.762-2.557,2.576-.011,1.994,0,3.987,0,6.154M93.028,65.29c.144.064.222.129.3.13,2.546.013,5.092.044,7.638.012a1.4,1.4,0,0,1,1.477.856,6.535,6.535,0,0,0,12.275-3.934,1.483,1.483,0,0,1,.714-1.656q4.751-3.434,9.434-6.961a1.422,1.422,0,0,1,1.889-.124,6.525,6.525,0,0,0,9.657-7.187,1.39,1.39,0,0,1,.666-1.685q4.084-2.959,8.12-5.984a1.374,1.374,0,0,1,1.675-.176,6.38,6.38,0,0,0,8.618-2.829,1.511,1.511,0,0,1,1.6-.883c3.274.029,6.547.012,9.821.012h2.381V30.524h-1.4c-3.638,0-7.276.027-10.913-.033a1.848,1.848,0,0,1-1.344-.736c-1.8-3.017-4.883-4.322-8-3.286a6.533,6.533,0,0,0-4.383,7.293,1.285,1.285,0,0,1-.619,1.442c-2.905,2.109-5.775,4.267-8.7,6.344a2.055,2.055,0,0,1-1.565.254,6.606,6.606,0,0,0-8.873,6.477,2.218,2.218,0,0,1-.765,1.524c-3.29,2.5-6.646,4.921-9.951,7.407a1.486,1.486,0,0,1-1.8.121,6.406,6.406,0,0,0-8.377,2.632,1.885,1.885,0,0,1-1.992,1.15c-2.525-.069-5.054-.023-7.588-.023ZM173.817,34.8H178v-4.21h-4.186ZM88.479,61.16h-4.17V65.4h4.17ZM82.041,23.978a2.175,2.175,0,1,0,2.172,2.143,2.128,2.128,0,0,0-2.172-2.143m8.722,2.2A2.175,2.175,0,1,0,88.6,28.327a2.133,2.133,0,0,0,2.166-2.151m6.55.005a2.175,2.175,0,1,0-2.171,2.145,2.133,2.133,0,0,0,2.171-2.145" transform="translate(-58.023 -17.42)" fill="#12263f"/>
        <path id="Trazado_212409" data-name="Trazado 212409" d="M0,237.419a19.45,19.45,0,0,1,3.076-7.043A15.146,15.146,0,0,1,10,225.268c.75-.269,1.03-.637.923-1.376a.494.494,0,0,1,0-.136A13.3,13.3,0,0,0,8.3,213.949a20.3,20.3,0,0,1-3.777-7.782c-1.394-7.222,4.429-14.514,11.8-14.581,5.5-.05,11.007-.025,16.51-.006A6.525,6.525,0,0,1,35.961,203.8a1.7,1.7,0,0,0-1.055,1.775c.052,3.774-.019,7.551.034,11.325a6.892,6.892,0,0,1-4.162,6.885,1.636,1.636,0,0,0-.325.235c-.024.02-.015.079-.032.188,1.091.167,2.2.269,3.276.514a16.988,16.988,0,0,1,9.589,5.857q6.853,8.316,13.646,16.682a2.555,2.555,0,0,0,2.282,1.1c2.909-.079,5.831-.179,8.73.007a36.964,36.964,0,0,0,13.381-1.951,2.605,2.605,0,0,0,1.342-1.307c2.247-4.759,4.473-9.53,6.6-14.341a3.169,3.169,0,0,1,3.358-2.117c10.37.063,20.74.03,31.11.033,2.647,0,3.506,1.359,2.385,3.8-3.929,8.533-7.894,17.05-11.769,25.607a13.463,13.463,0,0,0-.807,3.638c-.172,1.2-.007,2.476-.3,3.643a6.268,6.268,0,0,1-6.2,4.782q-20.74.02-41.481,0a6.236,6.236,0,0,1-5.792-3.412,1.6,1.6,0,0,0-1.693-.968c-1.909.054-3.821-.018-5.73.025a11.047,11.047,0,0,1-8.808-3.864c-1.335-1.476-2.661-2.959-4.2-4.673v12.811H34.938V268.7c0-5-.021-10.006.019-15.009a3.063,3.063,0,0,0-.871-2.3c-2.464-2.662-4.865-5.383-7.343-8.141l3.27-2.94c2.8,3.105,5.535,6.134,8.265,9.168,2.8,3.11,5.618,6.2,8.38,9.345a7.369,7.369,0,0,0,5.879,2.631c4.995-.026,9.989-.008,15.067-.008V252.7c-3.352,0-6.661-.059-9.966.028a3.678,3.678,0,0,1-3.232-1.575c-4.741-5.873-9.542-11.7-14.329-17.532a13.072,13.072,0,0,0-10.483-4.928c-4.548-.036-9.1-.016-13.645-.006-6.887.016-11.574,4.678-11.584,11.543q-.02,14.122,0,28.245v1.7H0Zm121.012-4.371c-9.206,0-18.161-.013-27.116.042a1.773,1.773,0,0,0-1.193.949c-1.778,3.726-3.489,7.483-5.216,11.233-.374.811-.73,1.63-1.127,2.519,2.047,1.23,3.954,2.454,5.935,3.544,2.268,1.248,4.1,2.727,3.763,5.739,4.516,0,8.874.023,13.231-.042.366-.005.87-.538,1.062-.943,1.936-4.1,3.818-8.229,5.719-12.347,1.612-3.492,3.227-6.981,4.943-10.693M19.655,215.506c0-2.05-.042-4.041.024-6.028a3.984,3.984,0,0,1,.522-1.905c1.273-2.042,2.653-4.015,3.971-6.029a2.566,2.566,0,0,1,2.4-1.249c1.953.044,3.909.036,5.863,0a2.28,2.28,0,0,0,2.487-2.167,2.251,2.251,0,0,0-2.46-2.19c-5.273-.022-10.548-.1-15.818.024a7.911,7.911,0,0,0-7.52,10.229,30.438,30.438,0,0,0,2.925,5.506c.739,1.3,1.3,3.072,2.438,3.66,1.264.652,3.1.2,4.686.22a4.371,4.371,0,0,0,.484-.075M91.9,256.582a5.468,5.468,0,0,0-.7-.728c-2.676-1.617-5.354-3.231-8.048-4.817a1.554,1.554,0,0,0-1.015-.211c-3.329.738-6.648,1.518-10.006,2.294v8.6a15.54,15.54,0,0,0,2.44-1.146q3.321-2.371,6.535-4.891a3.357,3.357,0,0,1,3.04-.646c2.45.544,4.923.986,7.75,1.541M30.563,204.666c-.985,0-1.8-.043-2.606.022a1.338,1.338,0,0,0-.867.474c-1.92,2.594-3.518,5.169-3.2,8.754.2,2.215.683,3.871,2.405,5.206a2.518,2.518,0,0,0,2.611.645,2.337,2.337,0,0,0,1.638-2.28c.043-4.214.018-8.43.018-12.821m78.6,56.859H89.517c0,.727-.034,1.362.007,1.992a2.18,2.18,0,0,0,2.244,2.266q7.571.065,15.143,0a2.183,2.183,0,0,0,2.247-2.265c.043-.63.007-1.265.007-1.993M15.338,224.206H25.62c-1.325-1.175-2.689-2.4-4.071-3.6-.293-.255-.643-.613-.978-.625-1.742-.063-3.488-.029-5.233-.029ZM74.814,265.7H85.293c-.078-1.483-.15-2.86-.224-4.27a13.516,13.516,0,0,1-1.77-.012,5.419,5.419,0,0,0-4.46,1.462c-1.291,1.085-2.766,1.951-4.024,2.82" transform="translate(0 -139.169)" fill="#12263f"/>
        <path id="Trazado_212410" data-name="Trazado 212410" d="M166.295,0c2.431.867,4.334,2.277,4.974,4.935a7.556,7.556,0,0,1,.2,1.748q.014,35.881,0,71.761a6.448,6.448,0,0,1-6.7,6.7q-41.883.01-83.767,0H79.863V80.788h83.814c2.84,0,3.441-.6,3.441-3.426q0-34.79,0-69.578c0-2.826-.6-3.421-3.444-3.421H63.536c-2.82,0-3.41.6-3.41,3.452q0,19.236,0,38.473v1.671H55.77V46.384c0-12.779.084-25.558-.049-38.336C55.679,4.021,57.106,1.319,60.95,0Z" transform="translate(-40.481)" fill="#12263f"/>
        <path id="Trazado_212411" data-name="Trazado 212411" d="M169.4,119.145c0-2.167-.009-4.161,0-6.154.01-1.814.755-2.568,2.557-2.576,3.366-.014,6.731-.011,10.1-.019a2.834,2.834,0,0,0,.443-.111c0-2.477,0-5.006,0-7.533,0-2.736.518-3.256,3.247-3.256H195.6c0-2.608,0-5.137,0-7.665,0-2.732.519-3.251,3.252-3.251H208.7c0-2.067-.005-4.05,0-6.033s.718-2.7,2.71-2.7q6-.009,12.008,0c2.048,0,2.736.71,2.736,2.812q0,22.924,0,45.848v1.5h4.284v4.3H152.025v-4.218H156.3v-6.725c0-.546,0-1.092,0-1.638.019-1.818.753-2.575,2.554-2.581,3.452-.011,6.9,0,10.545,0m43.753,10.805h8.573V84.263h-8.573Zm-13.1,0h8.573V93h-8.573Zm-13.1,0h8.572V103.913h-8.572Zm-4.517-15.086h-8.573v15.125h8.573Zm-13.11,8.721h-8.574V130h8.574Z" transform="translate(-110.449 -58.007)" fill="#12263f"/>
        <path id="Trazado_212412" data-name="Trazado 212412" d="M128,70.98v-4.2c2.535,0,5.063-.046,7.588.023a1.885,1.885,0,0,0,1.992-1.15,6.4,6.4,0,0,1,8.376-2.632,1.486,1.486,0,0,0,1.8-.121c3.3-2.486,6.661-4.9,9.951-7.407a2.219,2.219,0,0,0,.765-1.524,6.606,6.606,0,0,1,8.873-6.477,2.054,2.054,0,0,0,1.565-.254c2.927-2.077,5.8-4.235,8.7-6.344a1.285,1.285,0,0,0,.619-1.442,6.533,6.533,0,0,1,4.383-7.293c3.114-1.036,6.2.269,8,3.286a1.849,1.849,0,0,0,1.344.736c3.637.06,7.275.033,10.912.033h1.4v4.356h-2.381c-3.274,0-6.548.017-9.821-.012a1.51,1.51,0,0,0-1.6.883,6.38,6.38,0,0,1-8.618,2.829,1.375,1.375,0,0,0-1.675.176q-4.039,3.02-8.119,5.984a1.39,1.39,0,0,0-.666,1.685,6.525,6.525,0,0,1-9.657,7.187,1.421,1.421,0,0,0-1.889.124q-4.679,3.53-9.434,6.961a1.483,1.483,0,0,0-.714,1.656,6.535,6.535,0,0,1-12.275,3.934,1.4,1.4,0,0,0-1.477-.856c-2.545.032-5.092,0-7.638-.012-.079,0-.158-.066-.3-.13m56.69-30.414a2.173,2.173,0,1,0-2.168-2.177,2.278,2.278,0,0,0,2.168,2.177M165.027,55.849a2.173,2.173,0,1,0-2.159-2.185,2.278,2.278,0,0,0,2.159,2.185M143.252,71.132A2.173,2.173,0,1,0,141.035,69a2.279,2.279,0,0,0,2.217,2.128" transform="translate(-92.991 -23.109)" fill="#12263f"/>
        <rect id="Rectángulo_52641" data-name="Rectángulo 52641" width="4.186" height="4.21" transform="translate(115.794 13.166)" fill="#12263f"/>
        <rect id="Rectángulo_52642" data-name="Rectángulo 52642" width="4.17" height="4.235" transform="translate(26.286 43.741)" fill="#12263f"/>
        <path id="Trazado_212413" data-name="Trazado 212413" d="M82.041,23.98a2.175,2.175,0,1,1-2.176,2.137,2.133,2.133,0,0,1,2.176-2.137" transform="translate(-58.023 -17.422)" fill="#12263f"/>
        <path id="Trazado_212414" data-name="Trazado 212414" d="M108.159,26.177a2.175,2.175,0,1,1-2.116-2.2,2.136,2.136,0,0,1,2.116,2.2" transform="translate(-75.419 -17.42)" fill="#12263f"/>
        <path id="Trazado_212415" data-name="Trazado 212415" d="M132.109,26.182a2.175,2.175,0,1,1-2.11-2.2,2.136,2.136,0,0,1,2.11,2.2" transform="translate(-92.819 -17.42)" fill="#12263f"/>
        <path id="Trazado_212416" data-name="Trazado 212416" d="M350.43,343.264c-1.716,3.712-3.332,7.2-4.943,10.693-1.9,4.118-3.783,8.245-5.719,12.347-.191.405-.7.937-1.062.943-4.357.065-8.715.042-13.231.042.339-3.012-1.495-4.491-3.763-5.739-1.981-1.09-3.888-2.314-5.935-3.544.4-.889.754-1.708,1.127-2.519,1.727-3.75,3.438-7.507,5.216-11.233a1.773,1.773,0,0,1,1.193-.949c8.955-.054,17.911-.042,27.116-.042" transform="translate(-229.417 -249.387)" fill="url(#linear-gradient)"/>
        <path id="Trazado_212419" data-name="Trazado 212419" d="M346.934,447.4c0,.728.036,1.363-.007,1.993a2.183,2.183,0,0,1-2.247,2.265q-7.571.065-15.143,0a2.18,2.18,0,0,1-2.244-2.266c-.042-.63-.007-1.265-.007-1.992Z" transform="translate(-237.769 -325.041)" fill="#43a99b"/>
        <path id="Trazado_212420" data-name="Trazado 212420" d="M273.562,451.14c1.259-.869,2.733-1.735,4.024-2.82a5.419,5.419,0,0,1,4.46-1.461,13.51,13.51,0,0,0,1.77.012c.074,1.409.146,2.787.224,4.27Z" transform="translate(-198.747 -324.609)" fill="#43a99b"/>
        <rect id="Rectángulo_52643" data-name="Rectángulo 52643" width="8.573" height="45.687" transform="translate(102.708 26.256)" fill="url(#linear-gradient)"/>
        <rect id="Rectángulo_52644" data-name="Rectángulo 52644" width="8.573" height="36.954" transform="translate(89.608 34.989)" fill="#ece5f7"/>
        <rect id="Rectángulo_52645" data-name="Rectángulo 52645" width="8.572" height="26.038" transform="translate(76.508 45.905)" fill="#eeac3a"/>
        <rect id="Rectángulo_52646" data-name="Rectángulo 52646" width="8.573" height="15.125" transform="translate(63.418 56.857)" fill="#0b67d1"/>
        <rect id="Rectángulo_52647" data-name="Rectángulo 52647" width="8.574" height="6.416" transform="translate(50.308 65.578)" fill="#f8f5fd"/>
        <path id="Trazado_212421" data-name="Trazado 212421" d="M329.527,52.285a2.173,2.173,0,1,1,2.176-2.169,2.275,2.275,0,0,1-2.176,2.169" transform="translate(-237.833 -34.828)" fill="#7f4fc7"/>
        <path id="Trazado_212422" data-name="Trazado 212422" d="M257.668,108.168a2.173,2.173,0,1,1,2.185-2.16,2.271,2.271,0,0,1-2.185,2.16" transform="translate(-185.632 -75.428)" fill="#7f4fc7"/>
        <path id="Trazado_212423" data-name="Trazado 212423" d="M177.89,164.05a2.173,2.173,0,1,1,2.127-2.219,2.274,2.274,0,0,1-2.127,2.219" transform="translate(-127.629 -116.027)" fill="#7f4fc7"/>
      </g>
    </g>
    <g id="Grupo_175059" data-name="Grupo 175059" transform="translate(4173.827 -7459.459)">
      <g id="Grupo_171294" data-name="Grupo 171294" clip-path="url(#clip-path-2)">
        <path id="Trazado_212424" data-name="Trazado 212424" d="M13.729,52.853H12.284c-.37-.128-.752-.229-1.108-.389a4.457,4.457,0,0,1-1.279-7.3c3.146-3.175,6.318-6.326,9.479-9.486.069-.069.149-.127.237-.2l.722.679,2.076-2.043h-.548q-10.6,0-21.2,0c-.222,0-.443-.027-.665-.041V0H52.821V34.108h-.586c-1.514,0-3.028.008-4.541-.007a.739.739,0,0,0-.719.368,13.58,13.58,0,0,1-3.184,3.419,14.218,14.218,0,0,1-10.7,2.907,14.389,14.389,0,0,1-5.743-2.038L25.1,40.995l1,.828a3.673,3.673,0,0,0-.567.367c-2.815,2.8-5.636,5.6-8.428,8.431a6.9,6.9,0,0,1-3.373,2.232M51.1,8.582H1.756V32.354H21.636c-2.461-6.957-1.163-12.946,4.706-17.54a13.8,13.8,0,0,1,16.1-.746c6.794,4.457,8.384,10.759,5.854,18.3h2.8ZM51.1,1.763H1.76V6.777H51.1ZM47.713,26.43A12.765,12.765,0,1,0,34.92,39.214,12.786,12.786,0,0,0,47.713,26.43M17.036,40.5a.145.145,0,0,0-.067.028c-2.018,2.017-4.054,4.016-6.041,6.063a2.5,2.5,0,0,0-.529,2.687A2.743,2.743,0,0,0,14.968,50.3c1.964-1.925,3.895-3.884,5.839-5.83a.7.7,0,0,0,.083-.11L17.036,40.5m5.1,2.444,1.222-1.175-3.791-3.809-1.18,1.223,3.748,3.761m1.72-3.313,1.866-1.859-2.109-2.084-1.842,1.851,2.086,2.092" fill="#1a1818"/>
        <path id="Trazado_212425" data-name="Trazado 212425" d="M66.357,22.063H17.015V17.049H66.357ZM18.681,20.421c.517,0,.978.013,1.437-.01.094,0,.254-.14.258-.222.024-.489.012-.98.012-1.458H18.681Zm3.425-.038h1.658V18.711H22.106Zm3.416-.007h1.661V18.722H25.523Z" transform="translate(-15.255 -15.286)" fill="#43a99b"/>
        <path id="Trazado_212426" data-name="Trazado 212426" d="M240.007,144.649a12.765,12.765,0,1,1-12.784-12.792,12.788,12.788,0,0,1,12.784,12.792m-12.743,11.084a11.088,11.088,0,1,0-11.115-11.017,11.091,11.091,0,0,0,11.115,11.017" transform="translate(-192.294 -118.219)" fill="#fff"/>
        <path id="Trazado_212427" data-name="Trazado 212427" d="M105.649,391.527l3.854,3.864a.709.709,0,0,1-.083.11c-1.944,1.945-3.875,3.9-5.838,5.83a2.743,2.743,0,0,1-4.571-1.025,2.5,2.5,0,0,1,.529-2.687c1.987-2.047,4.023-4.046,6.041-6.063a.145.145,0,0,1,.067-.028m-3.405,8.1a.847.847,0,1,0-1.693.019.843.843,0,0,0,.86.829.828.828,0,0,0,.833-.849" transform="translate(-88.614 -351.031)" fill="#eeac3a"/>
        <path id="Trazado_212428" data-name="Trazado 212428" d="M181.511,371.948l-3.748-3.761,1.18-1.223,3.791,3.809-1.222,1.175" transform="translate(-159.377 -329.009)" fill="#deeffb"/>
        <path id="Trazado_212429" data-name="Trazado 212429" d="M212.551,348.946l-2.086-2.092L212.307,345l2.109,2.084-1.866,1.859" transform="translate(-188.697 -309.319)" fill="#eeac3a"/>
        <path id="Trazado_212430" data-name="Trazado 212430" d="M33.161,112.718V99.139h1.692V111h1.672v-5.04h1.749v5.054h1.683v-6.757h1.715V111h1.679v-8.459h1.73V111h1.669V100.839H48.5v10.208h1.661v1.671Z" transform="translate(-29.731 -88.886)" fill="#1a1818"/>
        <path id="Trazado_212431" data-name="Trazado 212431" d="M33.126,35v-1.69h1.707c0,.478.012.969-.012,1.458,0,.082-.164.217-.258.222-.459.023-.92.011-1.437.011" transform="translate(-29.7 -29.863)" fill="#1a1818"/>
        <rect id="Rectángulo_52649" data-name="Rectángulo 52649" width="1.658" height="1.672" transform="translate(6.851 3.425)" fill="#1a1818"/>
        <rect id="Rectángulo_52650" data-name="Rectángulo 52650" width="1.661" height="1.654" transform="translate(10.268 3.436)" fill="#1a1818"/>
        <path id="Trazado_212432" data-name="Trazado 212432" d="M241.76,170.474a11.088,11.088,0,1,1,11.065-11.16,11.119,11.119,0,0,1-11.065,11.16m9.334-11.068a9.356,9.356,0,1,0-9.348,9.357,9.376,9.376,0,0,0,9.348-9.357" transform="translate(-206.79 -132.96)" fill="#1a1818"/>
        <path id="Trazado_212433" data-name="Trazado 212433" d="M117.1,462.294a.828.828,0,0,1-.833.848.843.843,0,0,1-.86-.829.847.847,0,1,1,1.693-.019" transform="translate(-103.471 -413.701)" fill="#1a1818"/>
        <path id="Trazado_212434" data-name="Trazado 212434" d="M266.14,174.233a9.356,9.356,0,1,1-9.36-9.4,9.378,9.378,0,0,1,9.36,9.4m-15.293-2.6h11.884v-1.649H250.847Zm0,6.8h11.89V176.8h-11.89Zm11.891-5.038h-1.656v1.642h1.656Zm-10.241,0h-1.645v1.64H252.5Zm3.426,0h-1.661v1.628h1.661Zm3.4,0h-1.643v1.639h1.643Z" transform="translate(-221.836 -147.788)" fill="#deeffb"/>
        <rect id="Rectángulo_52651" data-name="Rectángulo 52651" width="11.884" height="1.649" transform="translate(29.011 22.196)" fill="#1a1818"/>
        <rect id="Rectángulo_52652" data-name="Rectángulo 52652" width="11.89" height="1.634" transform="translate(29.01 29.015)" fill="#1a1818"/>
        <rect id="Rectángulo_52653" data-name="Rectángulo 52653" width="1.656" height="1.642" transform="translate(39.245 25.611)" fill="#1a1818"/>
        <rect id="Rectángulo_52654" data-name="Rectángulo 52654" width="1.645" height="1.64" transform="translate(29.015 25.613)" fill="#1a1818"/>
        <rect id="Rectángulo_52655" data-name="Rectángulo 52655" width="1.661" height="1.628" transform="translate(32.425 25.612)" fill="#1a1818"/>
        <rect id="Rectángulo_52656" data-name="Rectángulo 52656" width="1.643" height="1.639" transform="translate(35.839 25.615)" fill="#1a1818"/>
      </g>
    </g>
  </g>
</svg>
