<svg xmlns="http://www.w3.org/2000/svg" xmlns:xlink="http://www.w3.org/1999/xlink" width="112.127" height="85.02" viewBox="0 0 112.127 85.02">
  <defs>
    <clipPath id="clip-path">
      <rect id="Rectángulo_53000" data-name="Rectángulo 53000" width="85.127" height="85.02" fill="#fff"/>
    </clipPath>
  </defs>
  <g id="Grupo_175152" data-name="Grupo 175152" transform="translate(-866 -4780.119)">
    <g id="Grupo_172378" data-name="Grupo 172378" transform="translate(893 4780.119)">
      <g id="Grupo_172377" data-name="Grupo 172377" clip-path="url(#clip-path)">
        <path id="Trazado_212878" data-name="Trazado 212878" d="M21.377,49.611c-3.256,0-6.211-.072-9.157.062-.573.026-1.27.751-1.635,1.328a5.552,5.552,0,0,1-6.007,2.7,5.681,5.681,0,0,1-4.53-4.8,5.9,5.9,0,0,1,2.888-5.588,5.527,5.527,0,0,1,7.626,2.232,2.01,2.01,0,0,0,2.133,1.281c2.619-.079,5.243-.029,7.864-.039a4.377,4.377,0,0,0,.694-.133V35.169c-3.075-.685-6.237-1.448-9.431-2.028-.413-.075-1.1.718-1.486,1.24A5.611,5.611,0,0,1,2.5,35.83a5.6,5.6,0,0,1,6.243-9.31,4.233,4.233,0,0,1,1.738,1.868c.536,1.629,1.726,1.986,3.15,2.264,2.489.486,4.962,1.059,7.6,1.63.258-3.339.625-6.3-2.456-8.9-4-3.366-7.465-7.352-11.213-11.018a3.816,3.816,0,0,0-2.022-1.028,5.917,5.917,0,0,1-5.489-5A5.828,5.828,0,0,1,3.492.5a5.651,5.651,0,0,1,6.8,1.916c1.529,2.1,1.35,4.752-.474,7.038-.16.2-.311.407-.356.466L22,22.467c1.888-3.712,5.322-4.312,9.207-3.862l.285-.582c-2.931-2.308-5.669-4.945-8.855-6.822C20,9.647,18.378,8.067,18.554,5.2A5.751,5.751,0,0,1,23.226.086a5.75,5.75,0,0,1,5.876,3c1.276,2.421.814,4.763-1.366,6.916-.186.184-.379.362-.678.647a100.526,100.526,0,0,0,8.581,7.319c1.289.891,3.431.549,5.5.807,0-2.579.046-4.836-.049-7.088-.015-.338-.645-.718-1.06-.961a5.68,5.68,0,0,1-2.858-6.676,5.614,5.614,0,0,1,10.8.1A5.817,5.817,0,0,1,45.2,10.7a2.894,2.894,0,0,0-1.17,1.9,48.627,48.627,0,0,0-.044,5.036,7.052,7.052,0,0,0,.089.723c2.654.344,5.137.579,7.311-1.742,2.01-2.147,4.39-3.947,6.679-5.962C55.9,8.782,54.666,6.613,55.722,3.72A5.813,5.813,0,0,1,61.4.02a5.946,5.946,0,0,1,5.121,4.467,5.3,5.3,0,0,1-2.894,6.073c-4.052,1.578-6.465,5.113-9.885,7.8,3.881-.095,7.512.21,9.28,4L75.551,9.83c-.024-.033-.288-.4-.556-.755A5.47,5.47,0,0,1,75.037,2.2,5.5,5.5,0,0,1,81.726.538a5.815,5.815,0,0,1,3.368,5.7,6.059,6.059,0,0,1-4.987,5.1,5.844,5.844,0,0,0-2.875,1.4c-3.92,3.778-7.68,7.722-11.612,11.486a4.993,4.993,0,0,0-1.893,4.546,29.081,29.081,0,0,1,.026,3.568c3.28-.727,6.351-1.368,9.393-2.129.445-.111.849-.745,1.1-1.228a5.576,5.576,0,0,1,6.283-3.239,5.639,5.639,0,0,1,4.581,5.181A5.857,5.857,0,0,1,81.3,36.534c-2.5.878-5-.07-6.679-2.4-.349-.483-1.142-1.063-1.613-.974-3.072.578-6.111,1.329-9.162,2.023V46.8c3.159,0,6.232.061,9.3-.061.5-.02,1.088-.768,1.424-1.31a5.625,5.625,0,0,1,7.876-1.939A5.563,5.563,0,0,1,84.069,51.4a5.683,5.683,0,0,1-7.841,1.439c-.436-.3-1.025-.657-1.141-1.1-.672-2.541-2.639-2.166-4.49-2.141-2.083.028-4.167.021-6.25.038a1.75,1.75,0,0,0-.435.137,2.606,2.606,0,0,0,1.063,3.267c5.036,3.529,6.7,8.264,6.065,14.378-.531,5.121-.109,10.34-.109,15.517v2.063H68.167V80.8c0-5.781-.119-11.565.058-17.341a6.139,6.139,0,0,0-2.354-5.566,10.543,10.543,0,0,1-1.518-1.868l-.6.262c0,2.235.065,4.473-.038,6.7-.033.7-.361,1.761-.842,1.96a2.483,2.483,0,0,1-2.009-.74C57.343,60.8,53.9,57.294,50.425,53.833c-1.631-1.623-2.947-1.811-4.18-.651-1.3,1.227-1.135,2.634.52,4.333a3.369,3.369,0,0,0,.424.43c4.328,3.052,6.08,7.114,5.37,12.438-.138,1.033,1.258,2.274,1.959,3.412.667,1.083,1.351,2.155,2.028,3.232a17.881,17.881,0,0,1-3.638.833c-4.761.1-9.525.04-14.541.04v7.12H35.591V77.9c-2.422,0-4.678.01-6.934,0-4.441-.025-7.268-2.856-7.277-7.308q-.018-9.276,0-18.553V49.611M49.484,66.682a5.532,5.532,0,0,0-5.522-5.828,18.3,18.3,0,0,1-4.984-.391c-7.25-1.7-11.867-9.36-10.234-16.783A14.151,14.151,0,1,1,55.374,52.8c-.232.519-.412,1.438-.139,1.745,1.713,1.92,3.563,3.718,5.638,5.833v-30.4h-36.6V66.593c.667.035,1.195.086,1.722.086,7.784.005,15.569,0,23.485,0m3.175-14.823a11.318,11.318,0,1,0-20.464-.476c2.078,4.581,6.763,7.346,11.033,6.511-1.054-3.507-.547-5.7,1.67-7.211,2.437-1.664,4.435-1.383,7.761,1.176M24.285,26.914H60.844c.383-3.8-1.15-5.612-4.77-5.622q-13.508-.038-27.017,0c-3.62.01-5.152,1.817-4.772,5.622m24.8,42.655H24.259c-.3,3.9,1.264,5.653,5.055,5.672,6.973.035,13.947.014,20.92,0a3.4,3.4,0,0,0,.839-.121l-1.991-5.552M2.837,48.3a3.033,3.033,0,0,0,2.818,2.846,2.983,2.983,0,0,0,2.853-2.974,2.907,2.907,0,0,0-2.785-2.825A2.963,2.963,0,0,0,2.837,48.3M79.5,45.343a2.9,2.9,0,0,0-2.878,2.78,2.839,2.839,0,1,0,5.672.118,2.969,2.969,0,0,0-2.794-2.9M42.64,2.83a3.009,3.009,0,0,0-2.989,2.875,2.981,2.981,0,0,0,2.835,2.8,2.943,2.943,0,0,0,2.977-2.844A2.988,2.988,0,0,0,42.64,2.83M2.843,30.948a2.868,2.868,0,0,0,2.537,3.09A2.816,2.816,0,0,0,8.5,31.579a3,3,0,0,0-2.6-3.265,3.04,3.04,0,0,0-3.06,2.635m76.652,3.133a2.92,2.92,0,0,0,2.8-2.872A3.034,3.034,0,0,0,79.286,28.3a2.99,2.99,0,0,0-2.663,3.012,2.846,2.846,0,0,0,2.872,2.765M79.407,8.5A2.855,2.855,0,0,0,82.3,5.762a2.958,2.958,0,0,0-2.73-2.933,2.823,2.823,0,0,0-2.942,2.879A2.713,2.713,0,0,0,79.407,8.5M8.505,5.669a2.849,2.849,0,0,0-2.784-2.84A2.954,2.954,0,0,0,2.835,5.6,2.846,2.846,0,0,0,5.764,8.5,2.714,2.714,0,0,0,8.505,5.669m18.514.087A3.01,3.01,0,0,0,24.254,2.83a2.833,2.833,0,0,0-2.936,2.688,2.735,2.735,0,0,0,2.8,2.983,2.929,2.929,0,0,0,2.9-2.746M60.985,2.829a2.992,2.992,0,0,0-2.874,2.814A2.917,2.917,0,0,0,61.1,8.5a2.726,2.726,0,0,0,2.712-2.876,2.836,2.836,0,0,0-2.831-2.8" transform="translate(0 0)" fill="#fff"/>
        <rect id="Rectángulo_52997" data-name="Rectángulo 52997" width="2.487" height="2.63" transform="translate(27.175 55.413)" fill="#fff"/>
        <rect id="Rectángulo_52998" data-name="Rectángulo 52998" width="2.452" height="2.587" transform="translate(27.193 61.114)" fill="#fff"/>
        <rect id="Rectángulo_52999" data-name="Rectángulo 52999" width="2.601" height="2.506" transform="translate(32.824 61.084)" fill="#fff"/>
        <path id="Trazado_212879" data-name="Trazado 212879" d="M98.486,99.329l2.51,2.044c-3.246,3.184-6.2,6.186-9.312,9.021a2.575,2.575,0,0,1-2.392-.159,44.179,44.179,0,0,1-4.051-3.637l2.133-2.233,2.757,3.527,8.354-8.563" transform="translate(-50.86 -59.265)" fill="#fff"/>
      </g>
    </g>
    <path id="Polígono_38" data-name="Polígono 38" d="M12.5,0,25,19H0Z" transform="translate(885 4794.985) rotate(90)" fill="#eeac3a"/>
  </g>
</svg>
