<svg xmlns="http://www.w3.org/2000/svg" xmlns:xlink="http://www.w3.org/1999/xlink" width="280" height="240.856" viewBox="0 0 280 240.856">
  <defs>
    <linearGradient id="linear-gradient" x1="0.5" x2="0.5" y2="1" gradientUnits="objectBoundingBox">
      <stop offset="0" stop-color="#fff"/>
      <stop offset="1" stop-color="#d3d3d3"/>
    </linearGradient>
    <linearGradient id="linear-gradient-4" x1="0.5" x2="0.5" y2="1" gradientUnits="objectBoundingBox">
      <stop offset="0" stop-color="#fff"/>
      <stop offset="1" stop-color="#d2e6ee"/>
    </linearGradient>
  </defs>
  <g id="Grupo_175155" data-name="Grupo 175155" transform="translate(-991 -7921.728)">
    <g id="Grupo_46132" data-name="Grupo 46132" transform="translate(887.638 7890.42)">
      <g id="Grupo_46099" data-name="Grupo 46099" transform="translate(131.123 114.855)">
        <path id="Trazado_96006" data-name="Trazado 96006" d="M116.22,57.032l3.643,4.917c-.981,1.475,6.608-7.82,6.608-7.82L129.14,55.3l-4.95,8.394a3.216,3.216,0,0,1-5.33.209l-5.352-.168-2.563-5.187C111.663,59.119,115.777,56.2,116.22,57.032Z" transform="translate(-110.945 -54.129)" fill="#00223d" fill-rule="evenodd"/>
        <path id="Trazado_96007" data-name="Trazado 96007" d="M112.641,55.664l-.037,6.414C111.536,59.215,112.641,55.664,112.641,55.664Z" transform="translate(-107.769 -50.045)" fill="#191e7f" fill-rule="evenodd"/>
      </g>
      <g id="Grupo_46100" data-name="Grupo 46100" transform="translate(248.253 38.207)">
        <path id="Trazado_96008" data-name="Trazado 96008" d="M184.348,33.192A41.408,41.408,0,1,1,142.94,74.6a41.427,41.427,0,0,1,41.408-41.408Zm0,12.216A29.19,29.19,0,1,1,155.16,74.6a29.189,29.189,0,0,1,29.188-29.192Z" transform="translate(-142.94 -33.192)" fill-rule="evenodd" fill="url(#linear-gradient)"/>
        <path id="Trazado_96009" data-name="Trazado 96009" d="M175.466,36.529a29.19,29.19,0,1,1-29.188,29.192,29.189,29.189,0,0,1,29.188-29.192Zm0,9.617A19.63,19.63,0,1,1,155.9,65.721a19.607,19.607,0,0,1,19.571-19.575Z" transform="translate(-134.058 -24.313)" fill="#5b7393" fill-rule="evenodd"/>
        <path id="Trazado_96010" data-name="Trazado 96010" d="M168.476,39.156A19.63,19.63,0,1,1,148.9,58.731a19.607,19.607,0,0,1,19.571-19.575Zm0,8.145a11.427,11.427,0,1,1-11.426,11.429A11.4,11.4,0,0,1,168.476,47.3Z" transform="translate(-127.068 -17.322)" fill-rule="evenodd" fill="url(#linear-gradient)"/>
        <path id="Trazado_96011" data-name="Trazado 96011" d="M162.556,64.236A11.428,11.428,0,1,0,151.13,52.81a11.4,11.4,0,0,0,11.426,11.426Z" transform="translate(-121.147 -11.402)" fill="#5b7393" fill-rule="evenodd"/>
        <path id="Trazado_96012" data-name="Trazado 96012" d="M159.651,56.672l36.543-7.693,2.037-4.865,14.595-4.865-4.638,8.6,7.467,6-15.5.9-3.394-2.489L159.99,58.143l1.131,2.489-7.24-1.584,5.657-6.109Z" transform="translate(-113.828 -17.075)" fill="#00223d" fill-rule="evenodd"/>
      </g>
      <path id="Trazado_96013" data-name="Trazado 96013" d="M167.059,35.125l1.091,5.866,8.442-1.569L159.2,56.482l-9.452-9.629L126.838,70.667l4.3,4.137,18.657-19.39,9.33,9.506,22.9-22.47.326,8.956,5.964-.217-.724-19.882Z" transform="translate(62.466 0)" fill="#00223d"/>
      <g id="Grupo_46108" data-name="Grupo 46108" transform="translate(327.907 86.629)">
        <g id="Grupo_46103" data-name="Grupo 46103" transform="translate(0 24.045)">
          <g id="Grupo_46101" data-name="Grupo 46101">
            <path id="Trazado_96014" data-name="Trazado 96014" d="M197.375,69.183c.915-.432,1.724-.82,2.435-1.168-.212-.765-.425-1.527-.637-2.292s-.443-1.523-.655-2.288c-.794.088-1.68.183-2.691.3l-2.028.231a12.872,12.872,0,0,0-2.577-3.159l.666-1.973c.333-.952.619-1.8.886-2.555-.7-.384-1.391-.769-2.083-1.142s-1.406-.765-2.1-1.153c-.491.633-1.043,1.329-1.666,2.131l-1.311,1.666a12.992,12.992,0,0,0-3.551-.417l-.864-1.907c-.417-.919-.78-1.732-1.117-2.464-.769.2-1.538.4-2.3.6s-1.538.4-2.3.6c.073.8.139,1.691.238,2.694l.183,2.083a13.394,13.394,0,0,0-2.907,2.109l-1.871-.78c-.937-.4-1.757-.736-2.508-1.047-.421.674-.842,1.351-1.263,2.01l-1.263,2.024c.6.531,1.263,1.135,2,1.8l1.49,1.325a13.307,13.307,0,0,0-.714,4.759l-1.724.82c-.915.432-1.724.82-2.442,1.153.212.765.428,1.53.655,2.288s.425,1.527.637,2.292c.8-.088,1.7-.187,2.7-.282l1.841-.2a13.206,13.206,0,0,0,2.709,3.438l-.586,1.658c-.333.948-.619,1.8-.886,2.552.7.384,1.387.758,2.083,1.142s1.395.769,2.1,1.139c.494-.619,1.058-1.318,1.673-2.1l1.1-1.387a12.819,12.819,0,0,0,3.873.469l.714,1.6c.4.926.776,1.735,1.1,2.456.769-.2,1.534-.4,2.3-.6s1.534-.4,2.3-.6c-.07-.787-.139-1.677-.22-2.683l-.154-1.794a13.567,13.567,0,0,0,3.119-2.328l1.666.685c.937.384,1.754.721,2.5,1.018.425-.659.846-1.336,1.267-2.01s.842-1.336,1.263-2.01c-.6-.531-1.263-1.135-2.017-1.8l-1.424-1.252a12.993,12.993,0,0,0,.611-4.807Zm-13.007,9.537a8.4,8.4,0,1,1,6.018-10.24A8.4,8.4,0,0,1,184.368,78.719Z" transform="translate(-164.698 -52.987)" fill="url(#linear-gradient)"/>
          </g>
          <g id="Grupo_46102" data-name="Grupo 46102" transform="translate(7.276 7.291)">
            <path id="Trazado_96015" data-name="Trazado 96015" d="M175.474,75.46a10.3,10.3,0,1,1,11.693-8.676A10.311,10.311,0,0,1,175.474,75.46Zm2.768-18.667a8.575,8.575,0,1,0,7.223,9.738A8.586,8.586,0,0,0,178.241,56.793Z" transform="translate(-166.685 -54.978)" fill="#00223d"/>
          </g>
        </g>
        <g id="Grupo_46105" data-name="Grupo 46105" transform="translate(10.064)">
          <path id="Trazado_96016" data-name="Trazado 96016" d="M188.6,54.7c.516-.436.967-.824,1.369-1.171-.271-.454-.538-.908-.805-1.366s-.545-.9-.813-1.362c-.5.194-1.051.406-1.684.655l-1.263.494a8.67,8.67,0,0,0-2.2-1.592l.088-1.387c.051-.666.092-1.263.132-1.794-.512-.128-1.029-.256-1.538-.377s-1.036-.253-1.549-.384c-.209.494-.443,1.036-.707,1.658l-.56,1.3a8.571,8.571,0,0,0-2.354.34l-.886-1.08c-.425-.52-.8-.981-1.142-1.395-.458.26-.919.52-1.38.78l-1.376.78c.183.5.377,1.062.611,1.691l.476,1.311a9.027,9.027,0,0,0-1.512,1.856l-1.336-.183c-.67-.1-1.256-.172-1.794-.245-.154.509-.308,1.014-.469,1.512s-.311,1.014-.465,1.519q.714.357,1.6.82l1.19.6a8.751,8.751,0,0,0,.355,3.185l-.97.824c-.516.436-.97.824-1.373,1.164.267.454.535.908.813,1.358s.535.912.8,1.366c.5-.19,1.062-.41,1.688-.644l1.153-.439a8.861,8.861,0,0,0,2.332,1.746l-.092,1.168c-.051.67-.092,1.263-.132,1.794.513.128,1.021.249,1.538.381s1.025.256,1.545.373c.212-.487.454-1.032.718-1.64l.469-1.084a8.477,8.477,0,0,0,2.574-.362l.736.908c.417.527.8.985,1.127,1.395l1.38-.78,1.38-.78c-.179-.494-.377-1.054-.6-1.688l-.4-1.128a9.18,9.18,0,0,0,1.607-2.035l1.19.154c.666.088,1.252.165,1.783.231.161-.5.315-1.007.472-1.512s.315-1.007.469-1.512c-.476-.238-1.007-.513-1.607-.813l-1.131-.564a8.647,8.647,0,0,0-.428-3.2Zm-6.74,8.365a5.594,5.594,0,1,1,2.12-7.622A5.593,5.593,0,0,1,181.864,63.069Z" transform="translate(-167.447 -46.419)" fill="#00223d"/>
          <g id="Grupo_46104" data-name="Grupo 46104" transform="translate(4.81 4.906)">
            <path id="Trazado_96017" data-name="Trazado 96017" d="M176.394,61.436a6.86,6.86,0,1,1,6.044-7.589A6.871,6.871,0,0,1,176.394,61.436Zm-1.417-12.495a5.714,5.714,0,1,0,6.322,5.034A5.724,5.724,0,0,0,174.977,48.941Z" transform="translate(-168.761 -47.759)" fill="#5b7393"/>
          </g>
        </g>
        <g id="Grupo_46107" data-name="Grupo 46107" transform="translate(31.619 13.63)">
          <path id="Trazado_96018" data-name="Trazado 96018" d="M195.253,59.2q.835-.626,1.483-1.12c-.249-.487-.494-.974-.743-1.461s-.505-.966-.754-1.453c-.524.168-1.109.351-1.776.567l-1.336.432a8.9,8.9,0,0,0-2.171-1.779l.179-1.424c.1-.685.172-1.3.249-1.845-.523-.165-1.047-.329-1.563-.483s-1.054-.326-1.574-.491c-.245.494-.52,1.036-.835,1.666l-.655,1.3a8.933,8.933,0,0,0-2.453.2l-.846-1.168c-.406-.564-.761-1.062-1.087-1.512l-1.472.718q-.736.362-1.472.718c.157.531.326,1.124.527,1.786l.406,1.38a9.254,9.254,0,0,0-1.673,1.819l-1.369-.271c-.685-.139-1.281-.256-1.83-.362-.194.513-.384,1.025-.582,1.53l-.571,1.538c.476.275,1,.593,1.6.944l1.186.688a9.186,9.186,0,0,0,.168,3.309l-1.051.791c-.56.414-1.051.787-1.49,1.109.249.487.5.974.754,1.457s.494.97.743,1.457c.527-.168,1.12-.359,1.783-.56l1.215-.384a9.131,9.131,0,0,0,2.3,1.951l-.165,1.2c-.1.685-.172,1.3-.249,1.841.52.168,1.04.322,1.56.487s1.047.329,1.57.483c.249-.487.534-1.036.842-1.647l.553-1.087a8.842,8.842,0,0,0,2.68-.212l.7.981c.4.567.761,1.065,1.076,1.508q.736-.362,1.472-.718c.49-.242.981-.48,1.472-.718-.154-.524-.322-1.113-.516-1.783l-.348-1.186a9.421,9.421,0,0,0,1.787-2l1.219.234c.681.132,1.281.249,1.827.348.194-.505.384-1.018.578-1.53s.388-1.018.578-1.53c-.476-.275-1.007-.593-1.607-.941l-1.135-.648A8.841,8.841,0,0,0,194.187,60Zm-7.472,8.211a5.782,5.782,0,1,1,2.661-7.732A5.783,5.783,0,0,1,187.781,67.41Z" transform="translate(-173.335 -50.142)" fill="#00223d"/>
          <g id="Grupo_46106" data-name="Grupo 46106" transform="translate(4.83 4.969)">
            <path id="Trazado_96019" data-name="Trazado 96019" d="M182.114,65.666a7.088,7.088,0,1,1,6.707-7.45A7.094,7.094,0,0,1,182.114,65.666Zm-.685-12.974a5.9,5.9,0,1,0,6.205,5.587A5.911,5.911,0,0,0,181.43,52.692Z" transform="translate(-174.654 -51.499)" fill="#5b7393"/>
          </g>
        </g>
      </g>
      <g id="Grupo_46109" data-name="Grupo 46109" transform="translate(138.005 67.365)">
        <path id="Trazado_96020" data-name="Trazado 96020" d="M144.609,42.319c39.662,27.892,89.183,56.824,136.8,62.689,0,0,6.242,7.973-.414,33.062-6.634,25-14.622,29.467-14.622,29.467-45.08-16.43-102.34-13.176-150.349-6.366Z" transform="translate(-104.302 -38.064)" fill="#12263f" fill-rule="evenodd"/>
        <path id="Trazado_96021" data-name="Trazado 96021" d="M144.854,41.19l5.784,1.391c8.969,2.156,9.529,31.9,1.2,66.522-8.307,34.53-22.35,60.855-31.319,58.7l-5.781-1.391c8.966,2.156,23.012-24.169,31.315-58.7,8.325-34.617,7.765-64.366-1.2-66.522Z" transform="translate(-107.721 -41.068)" fill="#26aab7" fill-rule="evenodd"/>
        <path id="Trazado_96022" data-name="Trazado 96022" d="M118.727,100c8.325-34.617,22.346-60.859,31.231-58.721,8.969,2.156,9.529,31.9,1.2,66.522-8.3,34.53-22.35,60.855-31.315,58.7-8.885-2.138-9.427-31.967-1.12-66.5Zm3.518.846c7.036-29.251,18.44-51.6,25.4-49.927,7.04,1.691,6.952,26.765-.081,56.015s-18.356,51.622-25.4,49.927c-6.956-1.673-6.952-26.761.081-56.015Z" transform="translate(-112.825 -41.157)" fill="#8ec8c8" fill-rule="evenodd"/>
        <path id="Trazado_96023" data-name="Trazado 96023" d="M119.24,93.814c7.036-29.251,18.44-51.6,25.4-49.927,7.04,1.691,6.952,26.765-.081,56.015s-18.356,51.622-25.4,49.927c-6.956-1.673-6.952-26.761.081-56.015Z" transform="translate(-109.82 -34.126)" fill="#26aab7" fill-rule="evenodd"/>
        <path id="Trazado_96024" data-name="Trazado 96024" d="M116.66,90.75q2.207-9.182,4.415-18.356c1.49-6.2,2.962-12.323,4.452-18.524,2.446-.209,5.14-.359,8.025-.553l8.127-.619a204.267,204.267,0,0,1-4.323,23.521,209.735,209.735,0,0,1-6.923,23.25l-7-4.433c-2.46-1.567-4.69-2.987-6.769-4.287Z" transform="translate(-102.62 -10.444)" fill="#5b7393" fill-rule="evenodd"/>
        <path id="Trazado_96025" data-name="Trazado 96025" d="M118.006,70.414c2.438-10.141,6.359-17.975,8.874-17.371,2.431.586,2.449,9.365.007,19.509s-6.443,17.953-8.874,17.371c-2.515-.6-2.449-9.368-.007-19.509Z" transform="translate(-103.974 -9.616)" fill="#0c2c46" fill-rule="evenodd"/>
        <path id="Trazado_96026" data-name="Trazado 96026" d="M173.055,59.449a20.955,20.955,0,0,1,2.3.373c14.838,3.569,23.437,20.534,19.264,37.883s-19.545,28.548-34.379,24.982a25.3,25.3,0,0,1-3.46-1.1c.417.1.732.264,1.153.366,0,0,7.988-4.463,14.622-29.467,6.37-24.272.816-32.52.5-33.04Z" transform="translate(4.14 7.517)" fill="#26aab7" fill-rule="evenodd"/>
        <path id="Trazado_96027" data-name="Trazado 96027" d="M140.127,69.129l69.9,16.811c1.845.443.842,7.56-1.461,9.4L136.832,84.3c2.669-3.35,4.437-11.078,3.295-15.167Z" transform="translate(-48.944 33.275)" fill="#3b5372" fill-rule="evenodd"/>
        <path id="Trazado_96028" data-name="Trazado 96028" d="M154.642,74.492c1.684,15.123-9.511,53.925-13.644,64.1l31.268,5.66s14.5-47.76,8.362-65.731Z" transform="translate(-37.859 47.545)" fill="#3b5372" fill-rule="evenodd"/>
        <path id="Trazado_96029" data-name="Trazado 96029" d="M143.064,139.151l23.7,4.283s14.5-47.76,8.362-65.731l-18.718-2.9c2.032,14.409-9.119,53.4-13.348,64.351Z" transform="translate(-32.362 48.365)" fill="#12263f" fill-rule="evenodd"/>
      </g>
      <g id="Grupo_46125" data-name="Grupo 46125" transform="translate(222.469 70.904)">
        <g id="Grupo_46121" data-name="Grupo 46121">
          <g id="Grupo_46110" data-name="Grupo 46110" transform="translate(36.466)">
            <rect id="Rectángulo_28267" data-name="Rectángulo 28267" width="1.251" height="13.773" fill="#00223d"/>
          </g>
          <g id="Grupo_46115" data-name="Grupo 46115" transform="translate(43.812 2.286)">
            <g id="Grupo_46111" data-name="Grupo 46111" transform="translate(0 0)">
              <rect id="Rectángulo_28268" data-name="Rectángulo 28268" width="13.308" height="1.252" transform="translate(0 12.393) rotate(-68.628)" fill="#00223d"/>
            </g>
            <g id="Grupo_46112" data-name="Grupo 46112" transform="translate(6.567 6.011)">
              <rect id="Rectángulo_28269" data-name="Rectángulo 28269" width="13.329" height="1.25" transform="translate(0 9.963) rotate(-48.371)" fill="#00223d"/>
            </g>
            <g id="Grupo_46113" data-name="Grupo 46113" transform="translate(11.959 15.823)">
              <rect id="Rectángulo_28270" data-name="Rectángulo 28270" width="12.489" height="1.25" transform="translate(0 5.078) rotate(-23.99)" fill="#00223d"/>
            </g>
            <g id="Grupo_46114" data-name="Grupo 46114" transform="translate(17.34 28.284)">
              <rect id="Rectángulo_28271" data-name="Rectángulo 28271" width="1.25" height="11.535" transform="matrix(0.066, -0.998, 0.998, 0.066, 0, 1.247)" fill="#00223d"/>
            </g>
          </g>
          <g id="Grupo_46120" data-name="Grupo 46120" transform="translate(0 1.47)">
            <g id="Grupo_46116" data-name="Grupo 46116" transform="translate(24.18 0)">
              <rect id="Rectángulo_28272" data-name="Rectángulo 28272" width="1.251" height="13.264" transform="translate(0 0.429) rotate(-20.06)" fill="#00223d"/>
            </g>
            <g id="Grupo_46117" data-name="Grupo 46117" transform="translate(12.065 4.99)">
              <rect id="Rectángulo_28273" data-name="Rectángulo 28273" width="1.25" height="15.119" transform="translate(0 0.855) rotate(-43.167)" fill="#00223d"/>
            </g>
            <g id="Grupo_46118" data-name="Grupo 46118" transform="translate(4.619 15.247)">
              <rect id="Rectángulo_28274" data-name="Rectángulo 28274" width="1.249" height="14.029" transform="translate(0 1.141) rotate(-65.975)" fill="#00223d"/>
            </g>
            <g id="Grupo_46119" data-name="Grupo 46119" transform="translate(0 28.337)">
              <path id="Trazado_96030" data-name="Trazado 96030" d="M135.972,52.277l-.075-1.249,12.483-.763.075,1.249Z" transform="translate(-135.897 -50.265)" fill="#00223d"/>
            </g>
          </g>
        </g>
        <g id="Grupo_46124" data-name="Grupo 46124" transform="translate(13.403 16.163)">
          <path id="Trazado_96031" data-name="Trazado 96031" d="M159.42,65.945a8.781,8.781,0,0,1-7.959,4.162c-3.613-.037-6.634-1.786-7.871-4.324Z" transform="translate(-128.829 4.672)" fill="url(#linear-gradient-4)"/>
          <path id="Trazado_96032" data-name="Trazado 96032" d="M174.4,105.671s-.542-3.273.447-10.031,16.419-18.473,9.035-36.5c-6.828-16.7-34.3-16.756-42.038-.432-7.97,16.723,7.439,29.9,8.285,36.675s.242,10.042.242,10.042Z" transform="translate(-139.558 -46.539)" fill="url(#linear-gradient)"/>
          <path id="Trazado_96033" data-name="Trazado 96033" d="M142.924,62.627l21.449.22-.1,9.291a2.238,2.238,0,0,1-2.259,2.215l-16.976-.176a2.2,2.2,0,0,1-2.211-2.259Z" transform="translate(-130.854 -3.729)" fill="url(#linear-gradient-4)"/>
          <path id="Trazado_96034" data-name="Trazado 96034" d="M143.793,63l21.332.22a1.179,1.179,0,0,1,1.193,1.219h0A1.225,1.225,0,0,1,165.1,65.69l-21.332-.22a1.272,1.272,0,0,1-1.248-1.274h0A1.229,1.229,0,0,1,143.793,63Z" transform="translate(-131.679 -2.728)" fill="#00223d"/>
          <path id="Trazado_96035" data-name="Trazado 96035" d="M143.782,64.006l21.336.22a1.173,1.173,0,0,1,1.19,1.215h0a1.222,1.222,0,0,1-1.215,1.248l-21.336-.216a1.275,1.275,0,0,1-1.248-1.278h0a1.223,1.223,0,0,1,1.274-1.19Z" transform="translate(-131.708 -0.06)" fill="#00223d"/>
          <path id="Trazado_96036" data-name="Trazado 96036" d="M143.773,64.946l21.332.22a1.212,1.212,0,0,1,1.194,1.215h0a1.225,1.225,0,0,1-1.219,1.248l-21.332-.22a1.27,1.27,0,0,1-1.248-1.274h0a1.263,1.263,0,0,1,1.274-1.19Z" transform="translate(-131.732 2.442)" fill="#00223d"/>
          <path id="Trazado_96037" data-name="Trazado 96037" d="M162.3,58.282a4.156,4.156,0,0,0-4.766-2.775c-1.933.26-3.32,1.457-3.372,2.888-.033.582-.062,2.219-.091,4.382l-.685-.007-1.087-.011-.652-.007c.018-2.16.029-3.8.022-4.378-.055-1.468-1.464-2.687-3.419-2.973a4.157,4.157,0,0,0-4.77,2.691,4.876,4.876,0,0,0,2.768,6.059l3.87.1c-.069,7.025-.209,17.671-.209,17.821l1.516.018c.011-.611.143-10.931.209-17.825l.648.007,1.091.011.681.007c-.077,6.893-.128,17.217-.132,17.829l1.516.007c0-.15.055-10.792.135-17.818l3.533.033.3-.059A4.883,4.883,0,0,0,162.3,58.282ZM146.732,62.7a3.355,3.355,0,0,1-1.816-4.129,2.666,2.666,0,0,1,3.115-1.666c1.161.165,2.09.835,2.116,1.5.007.564,0,2.182-.018,4.327Zm12.216.124-3.361-.033c.026-2.142.059-3.76.092-4.327.022-.674.9-1.3,2.054-1.453a2.649,2.649,0,0,1,3.119,1.724A3.337,3.337,0,0,1,158.948,62.825Z" transform="translate(-129.877 -23.095)" fill="#00223d"/>
          <g id="Grupo_46122" data-name="Grupo 46122" transform="translate(40.621 18.863)">
            <path id="Trazado_96038" data-name="Trazado 96038" d="M152.587,56.926l-1.933-.6a16.987,16.987,0,0,0,.589-4.62l2.024-.015A18.836,18.836,0,0,1,152.587,56.926Z" transform="translate(-150.654 -51.691)" fill="#f9eff4"/>
          </g>
          <g id="Grupo_46123" data-name="Grupo 46123" transform="translate(31.121 3.721)">
            <path id="Trazado_96039" data-name="Trazado 96039" d="M157.449,58.256a11.753,11.753,0,0,0-.827-1.911c-2.749-5.048-8.5-6.835-8.563-6.853l.586-1.937c.267.081,6.612,2.054,9.753,7.82a13.606,13.606,0,0,1,.97,2.24Z" transform="translate(-148.059 -47.555)" fill="#f9eff4"/>
          </g>
        </g>
      </g>
      <g id="Grupo_46126" data-name="Grupo 46126" transform="translate(266.386 162.549)">
        <path id="Trazado_96040" data-name="Trazado 96040" d="M160.717,78.412l-.465,59.416-4.265.1s-2.7-15.13-2.7-21.976a31.9,31.9,0,0,1,1.717-11.067L151.945,82s.985-1.333,1.893-2.625c.11-.007.22-.011.326-.022a63.788,63.788,0,0,0,6.553-.937Z" transform="translate(-137.112 -37.208)" fill="#dbdada" fill-rule="evenodd"/>
        <path id="Trazado_96041" data-name="Trazado 96041" d="M167.548,78.957l-5.8,8.962L153.036,138l-4.258.1c-.26-6.088-1.095-29.4,4.55-33.329l-.037-3.7h0c-.278-5.5-.578-15.467.557-20.538l1.867-2.178a16.054,16.054,0,0,0,7.4,1.168c1.8-.179,3.317-.384,4.43-.56Z" transform="translate(-146.067 -37.376)" fill="#dbdada" fill-rule="evenodd"/>
        <path id="Trazado_96042" data-name="Trazado 96042" d="M162.048,99.555l-8.032-.007-1.926-.813-.183.82h-3.024l-.249-4.81,4.258-.1s5.817,3.163,7.93,3.064,1.226,1.849,1.226,1.849Z" transform="translate(-145.922 5.978)" fill="#7d6eb2" fill-rule="evenodd"/>
        <path id="Trazado_96043" data-name="Trazado 96043" d="M166.47,99.555l-8.028-.007-1.933-.813-.176.82h-3.024l-.26-4.81,4.265-.1s5.821,3.163,7.929,3.064,1.226,1.849,1.226,1.849Z" transform="translate(-134.174 5.978)" fill="#7d6eb2" fill-rule="evenodd"/>
        <path id="Trazado_96044" data-name="Trazado 96044" d="M191.007,73.082l-10.2,7.966a2.785,2.785,0,0,1-3.181.172L171.776,77.6l-1.468-.421v0L165.871,75.9l-.794-.813h-2.1l-.7.729-4.188,1.2a7.449,7.449,0,0,0-.952,1.054l2.046-5.766-2.24-2.416-8.859,19.326a2.053,2.053,0,0,0,2.083,2.9l5.367-3.493-.172,16.134c5.217,3.353,13.271,2.021,16.108-.026q.467-9.808.944-19.6l5.938,2.537a2.788,2.788,0,0,0,3.028-.556l11.444-11.03Z" transform="translate(-147.893 -59.885)" fill="#7d6eb2" fill-rule="evenodd"/>
        <path id="Trazado_96045" data-name="Trazado 96045" d="M151.494,69.4c.6-.212,1.369.381,1.71,1.336s.124,1.9-.483,2.12-1.369-.381-1.706-1.336-.128-1.9.48-2.12Z" transform="translate(-140.025 -61.3)" fill="#fc9" stroke="#ff0" stroke-miterlimit="10" stroke-width="0.198" fill-rule="evenodd"/>
        <path id="Trazado_96046" data-name="Trazado 96046" d="M150.41,69.3l.4-.234a.268.268,0,0,1,.359.1l3.086,5.246a.266.266,0,0,1-.092.362l-.4.227a.262.262,0,0,1-.359-.092l-3.086-5.246a.266.266,0,0,1,.092-.362Z" transform="translate(-141.537 -62.162)" fill-rule="evenodd"/>
        <path id="Trazado_96047" data-name="Trazado 96047" d="M154.713,69.27c.637.092,1.04.974.9,1.977s-.765,1.743-1.406,1.658-1.04-.97-.9-1.973.765-1.746,1.406-1.662Z" transform="translate(-133.557 -61.552)" fill="#ffb699" fill-rule="evenodd"/>
        <path id="Trazado_96048" data-name="Trazado 96048" d="M159.651,73.052a7.02,7.02,0,0,1,1.559-2,6.033,6.033,0,0,1,2.9-1.069.707.707,0,0,1-.157.791,4.243,4.243,0,0,1-1.3.783,3.2,3.2,0,0,0,1.655-.3c1.237-.439,2.581-1.472,3.042-.783s-.062,2.281-1.56,3.28a30.817,30.817,0,0,1-4.254,2.087Z" transform="translate(-116.607 -59.645)" fill="#ffb699" fill-rule="evenodd"/>
        <path id="Trazado_96049" data-name="Trazado 96049" d="M151.68,70.411h4.62v4.276A2.312,2.312,0,0,1,153.99,77h0a2.315,2.315,0,0,1-2.31-2.31Z" transform="translate(-137.817 -58.498)" fill="#f49e7f" fill-rule="evenodd"/>
        <path id="Trazado_96050" data-name="Trazado 96050" d="M156.079,80.974c2.8,0,5.085-3.064,5.085-6.813s-2.284-6.813-5.085-6.813-5.085,3.057-5.085,6.813,2.281,6.813,5.085,6.813Z" transform="translate(-139.642 -66.649)" fill="#ffb699" fill-rule="evenodd"/>
        <path id="Trazado_96051" data-name="Trazado 96051" d="M152.953,72.143a10.868,10.868,0,0,0,4.887,1,7.7,7.7,0,0,0,5.5-2.438s-2.2-3.229-5.678-3.533-5.8,3.229-5.8,3.229a1.644,1.644,0,0,0-1.084,1.688c-.048,1.439,1.314,4.433,1.314,4.433l.275-2.343a2.91,2.91,0,0,0,.729-.981,2.233,2.233,0,0,0-.146-1.058Z" transform="translate(-140.21 -67.157)" fill="#12263f" fill-rule="evenodd"/>
        <path id="Trazado_96052" data-name="Trazado 96052" d="M153.629,69.783s-.121.07-.355.172c.132-.355.355-.172.355-.172Zm1.08-1.739a1.645,1.645,0,0,1,1.087,1.688c.051,1.439-1.314,4.433-1.314,4.433l-.275-2.343a3.008,3.008,0,0,1-.732-.981,2.252,2.252,0,0,1,.154-1.058Z" transform="translate(-133.575 -64.797)" fill="#12263f" fill-rule="evenodd"/>
        <path id="Trazado_96053" data-name="Trazado 96053" d="M150.209,74.85A5.851,5.851,0,0,0,150.78,73c-.084-.912.048-3.335,1.208-3.719,1.186-.4,2.738,2.456,1.618,3.148-.015-.015-.322-.582-.373-.524-.04-.026-.073.051-.051.388a3.369,3.369,0,0,1-.439,2.222,6.265,6.265,0,0,1-1.234,1.007Z" transform="translate(-141.731 -61.612)" fill="#ffb699" fill-rule="evenodd"/>
      </g>
      <g id="Grupo_46127" data-name="Grupo 46127" transform="translate(309.429 160.528)">
        <path id="Trazado_96054" data-name="Trazado 96054" d="M167.457,76.083a7,7,0,0,0-1.545-1.984,5.985,5.985,0,0,0-2.888-1.062.708.708,0,0,0,.161.783,4.2,4.2,0,0,0,1.292.772,3.058,3.058,0,0,1-1.64-.3c-1.23-.436-2.559-1.457-3.024-.776s.066,2.262,1.549,3.255a30.154,30.154,0,0,0,4.221,2.072Z" transform="translate(-159.651 -49.49)" fill="#ffbd99" fill-rule="evenodd"/>
        <path id="Trazado_96055" data-name="Trazado 96055" d="M166.6,78.559l.461,59,4.232.1s1.926-16,1.926-22.8-1.358-10.159-1.358-10.159l3.445-22.58s-.974-1.322-1.878-2.6c-.106-.011-.216-.018-.322-.029a63.141,63.141,0,0,1-6.505-.93Z" transform="translate(-141.149 -34.797)" fill="#12263f" fill-rule="evenodd"/>
        <path id="Trazado_96056" data-name="Trazado 96056" d="M167.181,79.1l5.755,8.9,8.647,49.722,4.236.1s.813-19.308-1.186-26.289-3.082-7.805-3.082-7.805.831-15.888-.772-23.064L178.921,78.5a15.934,15.934,0,0,1-7.347,1.157c-1.79-.176-3.287-.381-4.393-.556Z" transform="translate(-139.614 -34.962)" fill="#12263f" fill-rule="evenodd"/>
        <path id="Trazado_96057" data-name="Trazado 96057" d="M189.075,70.688l6.114,1.7a5.742,5.742,0,0,1,3.859,3.562l5.579,15.185a4.033,4.033,0,0,1-.8,4.1l-6.293,6.937-2.493-2.9s-4.646,5.081-8.618,4.7-5.235-1.355-5.235-1.355L180.3,87.1l-1.761,3.32a3.781,3.781,0,0,1-5.2,1.523l-12.213-6.89,1.948-3.533,8.552,4.239A2.445,2.445,0,0,0,175,84.431l2.705-7.256a5.754,5.754,0,0,1,2.61-3.028l4.968-2.746ZM196.2,83.157l2.973,7.216a4.026,4.026,0,0,1-.736,4.239l-2.149,2.376Z" transform="translate(-155.731 -55.741)" fill="#dee7f3" fill-rule="evenodd"/>
        <path id="Trazado_96058" data-name="Trazado 96058" d="M171.523,78.536c-.286.19-.648.439-.868.6-.4.3-.648.491-.648.491a4.141,4.141,0,0,0,2.156,2.727,10.722,10.722,0,0,0,1.358-1.5Z" transform="translate(-132.094 -34.858)" fill="#ffbd99" fill-rule="evenodd"/>
        <path id="Trazado_96059" data-name="Trazado 96059" d="M172.291,69.834h-4.569v3.84a2.293,2.293,0,0,0,2.288,2.284h0a2.291,2.291,0,0,0,2.281-2.284Z" transform="translate(-138.174 -58.013)" fill="#eda27c" fill-rule="evenodd"/>
        <path id="Trazado_96060" data-name="Trazado 96060" d="M171.273,66.953c-2.654.1-4.7,2.914-4.572,6.293s.787,6.538,4.755,6.8,4.971-3.778,4.847-7.157-2.38-6.037-5.03-5.934Z" transform="translate(-140.909 -65.686)" fill="#ffbd99" fill-rule="evenodd"/>
        <path id="Trazado_96061" data-name="Trazado 96061" d="M178.309,69.146a2.965,2.965,0,0,0-2.424-2.467c-2.167-.388-10.13.893-10.13.893s1.2,4.291,4.13,4.84a18.667,18.667,0,0,0,6.593-.344,9.439,9.439,0,0,0,.344,3.353,9.526,9.526,0,0,0,1.446,2.35s2.039-3.229,1.629-5.828-1.589-2.8-1.589-2.8Z" transform="translate(-143.405 -66.605)" fill="#3c4973" fill-rule="evenodd"/>
        <path id="Trazado_96062" data-name="Trazado 96062" d="M168.738,99.774l8.028-.007,1.926-.813.183.82H181.9l.256-4.807-4.261-.1s-5.817,3.159-7.926,3.06-1.23,1.849-1.23,1.849Z" transform="translate(-135.95 8.592)" fill="#dee7f3" fill-rule="evenodd"/>
        <path id="Trazado_96063" data-name="Trazado 96063" d="M164.38,99.547l7.966,0,1.918-.805.176.809h3.006l.253-4.77-4.232-.1s-5.777,3.137-7.867,3.042-1.219,1.83-1.219,1.83Z" transform="translate(-147.55 8.084)" fill="#dee7f3" fill-rule="evenodd"/>
      </g>
      <path id="Trazado_96064" data-name="Trazado 96064" d="M157.832,70.774c-1.538,4.17-3.075,8.255-4.58,12.367-1.794-1.351-3.584-2.647-5.349-3.943s-3.522-2.592-5.25-3.859c1.472-4.056,2.947-8.116,4.452-12.227-.384-.256-.736-.538-1.12-.791q-11.241,30.812-22,60.207-10.516,28.824-20.622,56.378c.351.311.674.619.992.93q1.488-4.058,2.98-8.116c1.567,1.439,3.137,2.9,4.737,4.342,1.571,1.464,3.17,2.958,4.774,4.422-1.025,2.76-2.05,5.5-3.042,8.2.319.311.67.648,1.025.959q10.423-27.891,21.325-57.026,11.191-29.791,22.866-60.994c-.384-.282-.769-.564-1.186-.846ZM117.486,178.793c-1.6-1.464-3.2-2.958-4.8-4.393-1.57-1.468-3.17-2.932-4.741-4.367q1.2-3.212,2.4-6.509c1.571,1.439,3.17,2.874,4.77,4.338,1.6,1.439,3.2,2.9,4.836,4.367-.831,2.2-1.633,4.4-2.464,6.564Zm3.1-8.255c-1.633-1.464-3.233-2.929-4.865-4.393-1.571-1.439-3.17-2.874-4.774-4.313.8-2.167,1.6-4.367,2.4-6.564,1.6,1.439,3.2,2.844,4.836,4.283,1.6,1.435,3.236,2.9,4.869,4.338-.835,2.226-1.666,4.422-2.467,6.648Zm3.108-8.365c-1.636-1.468-3.269-2.9-4.869-4.342-1.633-1.435-3.233-2.844-4.836-4.28.8-2.2,1.6-4.4,2.434-6.623,1.6,1.38,3.233,2.819,4.869,4.225,1.633,1.439,3.266,2.848,4.931,4.313-.868,2.226-1.7,4.481-2.53,6.707Zm3.17-8.453c-1.666-1.439-3.3-2.874-4.935-4.283s-3.266-2.845-4.9-4.225c.835-2.226,1.633-4.481,2.467-6.707,1.633,1.38,3.265,2.79,4.9,4.2,1.666,1.409,3.331,2.844,5,4.254-.868,2.281-1.7,4.536-2.53,6.762Zm3.17-8.508c-1.666-1.439-3.331-2.848-4.964-4.258-1.666-1.406-3.3-2.815-4.931-4.2.831-2.226,1.666-4.507,2.464-6.762,1.666,1.38,3.3,2.76,4.964,4.14,1.666,1.409,3.331,2.819,5.026,4.228-.864,2.281-1.695,4.561-2.559,6.846Zm3.233-8.621c-1.7-1.409-3.394-2.819-5.059-4.2s-3.3-2.76-4.964-4.17c.835-2.255,1.666-4.507,2.53-6.817,1.633,1.38,3.3,2.731,5,4.111,1.666,1.409,3.361,2.79,5.059,4.2-.864,2.31-1.732,4.591-2.563,6.875Zm3.233-8.68c-1.695-1.406-3.394-2.79-5.089-4.17-1.666-1.38-3.331-2.731-5-4.111.835-2.284,1.666-4.594,2.53-6.9,1.666,1.355,3.364,2.705,5.026,4.086,1.7,1.355,3.427,2.735,5.125,4.115-.864,2.339-1.728,4.675-2.6,6.985Zm3.269-8.79c-1.7-1.38-3.427-2.731-5.125-4.111-1.695-1.354-3.361-2.705-5.059-4.06.864-2.31,1.7-4.646,2.563-6.959,1.7,1.325,3.394,2.68,5.092,4,1.728,1.355,3.456,2.735,5.188,4.086-.9,2.369-1.761,4.734-2.658,7.044Zm3.328-8.845c-1.728-1.38-3.456-2.735-5.187-4.086s-3.427-2.676-5.089-4c.831-2.339,1.695-4.679,2.559-7.044,1.7,1.325,3.427,2.647,5.158,3.972,1.728,1.355,3.456,2.705,5.217,4.056-.893,2.369-1.79,4.734-2.658,7.1Zm3.331-8.962c-1.728-1.351-3.489-2.7-5.22-4.027s-3.456-2.65-5.155-3.972q1.3-3.553,2.6-7.1c1.728,1.3,3.456,2.621,5.188,3.946l5.283,3.972-2.691,7.183Zm3.394-9.042q-2.641-1.988-5.283-3.972c-1.761-1.325-3.489-2.621-5.22-3.917.864-2.394,1.761-4.788,2.629-7.183,1.761,1.3,3.489,2.563,5.25,3.859,1.761,1.325,3.555,2.647,5.349,3.972-.93,2.424-1.827,4.847-2.724,7.241Z" transform="translate(0 82.524)" fill="#5b7393" fill-rule="evenodd"/>
      <path id="Trazado_96065" data-name="Trazado 96065" d="M111.74,74.212l1.274,2.123,1.948,1.867s3.9-.373,4.843.205a2.116,2.116,0,0,1,.751,1.97H112.89l-.575-1,.051,1h-2.427l-.161-3.9Z" transform="translate(17.072 114.165)" fill="#00223d" fill-rule="evenodd"/>
      <path id="Trazado_96066" data-name="Trazado 96066" d="M116.123,87.391l-.751,23.228-3.449.1s-1.732-11.191-1.68-15.742a16.9,16.9,0,0,1,1.882-7.677L109,61.479c.48,3.075,8.006,7.4,8.006,7.4Z" transform="translate(14.999 80.284)" fill="#9fbfed" fill-rule="evenodd"/>
      <path id="Trazado_96067" data-name="Trazado 96067" d="M116.3,59.07a6.064,6.064,0,0,1,.227-2.186,5.213,5.213,0,0,1,1.633-2.094.617.617,0,0,1,.256.637,4.016,4.016,0,0,1-.586,1.164s.359-.088,1.054-.974c.718-.9,1.223-2.255,1.882-1.973.633.3.992,1.7.348,3.1a26.756,26.756,0,0,1-2.145,3.492Z" transform="translate(34.373 59.336)" fill="#ffb699" fill-rule="evenodd"/>
      <path id="Trazado_96068" data-name="Trazado 96068" d="M115.44,68.1l1.278,2.123,1.94,1.867s3.9-.377,4.851.205a2.1,2.1,0,0,1,.743,1.97h-7.666l-.575-1,.051,1h-2.416l-.165-3.9Z" transform="translate(26.926 97.907)" fill="#00223d" fill-rule="evenodd"/>
      <path id="Trazado_96069" data-name="Trazado 96069" d="M110.371,57.788h4.342l-.117-4.371a9.833,9.833,0,0,1-2.434.988c-.535-.033-1.79-1.263-1.79-1.263Z" transform="translate(18.65 58.1)" fill="#f4a57d" fill-rule="evenodd"/>
      <path id="Trazado_96070" data-name="Trazado 96070" d="M114.689,54.088s.351.454,2.065.575,2.277-.516,2.277-.516l2.632.7a6.843,6.843,0,0,1,4.261,3.368l3.5,6.531a.662.662,0,0,0,1.128.062l5.784-7.014,2.669,1.172-6.33,10.774a3.216,3.216,0,0,1-5.334.209L124.3,65.792l-.081,14.966c-3.317,2.013-11.393,2.013-14.585,0L108.755,61.4a6.479,6.479,0,0,1,3.5-6.055Z" transform="translate(14.332 60.617)" fill="#12263f" fill-rule="evenodd"/>
      <path id="Trazado_96071" data-name="Trazado 96071" d="M123.576,61.373l15.3,4.961a2.569,2.569,0,0,1,1.366,3.833L128.665,88.131l-3.236.45a67.877,67.877,0,0,1,3.734-11.653,17.175,17.175,0,0,1,5.25-6.385l-15.581.007a7.353,7.353,0,0,1-5.327-2.251c-1.992-2.083-4.554-5.122-4.514-6.926,3.192,2.013,11.268,2.013,14.585,0Z" transform="translate(14.978 80.001)" fill="#b9d2fc" fill-rule="evenodd"/>
      <path id="Trazado_96072" data-name="Trazado 96072" d="M114.179,62.161c2.413,0,4.375-2.548,4.375-5.674s-1.962-5.678-4.375-5.678-4.367,2.548-4.367,5.678,1.966,5.674,4.367,5.674Z" transform="translate(17.163 51.892)" fill="#ffbd99" fill-rule="evenodd"/>
      <path id="Trazado_96073" data-name="Trazado 96073" d="M113.2,50.562h7.549a.394.394,0,0,1,.4.4V52.6a2.056,2.056,0,0,1-2.05,2.05h-1.9l-.2.56a1.106,1.106,0,0,0,.212,1.109l.381.421-.505.6a1.356,1.356,0,0,0-.3.652l-.231,1.256s-.329-1.585-1.043-1.263-.146,2.16.37,2.314a.467.467,0,0,0,.637-.293,8.489,8.489,0,0,0-.666,2.2c-.066,1.278-3.676,1.109-3.676-.209,0,0-3.251-2.786-2.3-6.659a4,4,0,0,1,1.289-2.35V52.6a2.048,2.048,0,0,1,2.043-2.043Z" transform="translate(16.851 51.235)" fill="#3c4973" fill-rule="evenodd"/>
      <g id="Grupo_46131" data-name="Grupo 46131" transform="translate(206.189 233.655)">
        <g id="Grupo_46129" data-name="Grupo 46129" transform="translate(0 0)">
          <path id="Trazado_96115" data-name="Trazado 96115" d="M133.6,93.013h52.054v1.439H134.919a1.583,1.583,0,0,0-1.571,1.585v5.726a1.583,1.583,0,0,0,1.571,1.585h50.733v1.439H133.6a2.106,2.106,0,0,1-2.09-2.09V95.1a2.106,2.106,0,0,1,2.09-2.09Z" transform="translate(-131.298 -69.462)" fill="#69746b" fill-rule="evenodd"/>
          <path id="Trazado_96116" data-name="Trazado 96116" d="M133.581,93.406h50.733v8.9H133.581a1.583,1.583,0,0,1-1.571-1.585V94.991a1.583,1.583,0,0,1,1.571-1.585Z" transform="translate(-129.96 -68.417)" fill="#eadce4" fill-rule="evenodd"/>
          <path id="Trazado_96117" data-name="Trazado 96117" d="M133.6,89.8h52.054v1.439H134.919a1.583,1.583,0,0,0-1.571,1.585v5.726a1.583,1.583,0,0,0,1.571,1.585h50.733v1.439H133.6a2.106,2.106,0,0,1-2.09-2.09V91.887a2.106,2.106,0,0,1,2.09-2.09Z" transform="translate(-131.298 -78.02)" fill="#26aab7" fill-rule="evenodd"/>
          <path id="Trazado_96118" data-name="Trazado 96118" d="M133.581,90.19h50.733v8.9H133.581A1.583,1.583,0,0,1,132.01,97.5V91.775a1.583,1.583,0,0,1,1.571-1.585Z" transform="translate(-129.96 -76.974)" fill="#eadce4" fill-rule="evenodd"/>
          <path id="Trazado_96119" data-name="Trazado 96119" d="M133.54,86.58h52.054v1.439H134.862a1.589,1.589,0,0,0-1.574,1.589V95.33a1.589,1.589,0,0,0,1.574,1.589h50.733v1.439H133.54a2.109,2.109,0,0,1-2.09-2.09v-7.6a2.109,2.109,0,0,1,2.09-2.09Z" transform="translate(-131.45 -86.58)" fill="#5b7393" fill-rule="evenodd"/>
          <path id="Trazado_96120" data-name="Trazado 96120" d="M133.526,86.973h50.733v8.9H133.526a1.589,1.589,0,0,1-1.574-1.589V88.562a1.589,1.589,0,0,1,1.574-1.589Z" transform="translate(-130.114 -85.534)" fill="#eadce4" fill-rule="evenodd"/>
        </g>
      </g>
    </g>
  </g>
</svg>
