<svg xmlns="http://www.w3.org/2000/svg" xmlns:xlink="http://www.w3.org/1999/xlink" width="117.141" height="147.68" viewBox="0 0 117.141 147.68">
  <defs>
    <clipPath id="clip-path">
      <rect id="Rectángulo_55937" data-name="Rectángulo 55937" width="117.14" height="147.68" fill="#12263f"/>
    </clipPath>
    <linearGradient id="linear-gradient" x1="0.5" x2="0.5" y2="1" gradientUnits="objectBoundingBox">
      <stop offset="0" stop-color="#f5f5f5"/>
      <stop offset="0.25" stop-color="#f5f5f5"/>
      <stop offset="1" stop-color="#a7b3cf"/>
    </linearGradient>
  </defs>
  <g id="Grupo_175162" data-name="Grupo 175162" transform="translate(-6794.917 8621.995)">
    <g id="Grupo_175113" data-name="Grupo 175113" transform="translate(6794.917 -8621.995)">
      <g id="Grupo_175112" data-name="Grupo 175112" clip-path="url(#clip-path)">
        <path id="Trazado_217342" data-name="Trazado 217342" d="M117.03,12.064C116.216,4.88,112.2.364,106.324.022c-6.047-.35-10.507,3.392-12.109,10.164a.6.6,0,0,0-.057.589c-.079,1.133-.227,2.266-.228,3.4q-.018,50.824,0,101.647c0,.926.117,1.852.179,2.778.022.407.043.813.065,1.22,2.582,8.723,6.046,17.137,9.047,25.713.362,1.035.919,1.887,2.142,1.951,1.376.071,2.035-.819,2.457-1.963,1.43-3.882,2.969-7.727,4.25-11.657,1.66-5.1,4.137-9.928,4.955-15.295.038-1.244.109-2.487.11-3.73q.009-37.688,0-75.376c-.006-9.134-.067-18.267-.1-27.4M.1,22.652c-.032,1.14-.092,2.281-.092,3.421Q0,74.352.006,122.63c0,7.37.06,14.74.092,22.109.119,3.668,2.983,2.863,5.035,2.868q39.451.1,78.9.032a25.293,25.293,0,0,0,3.09-.234,1.873,1.873,0,0,0,1.867-2.039c.05-.93.143-1.862.143-2.792q.01-43.924,0-87.846C89.12,38.222,89.043,21.715,89,5.207a1.717,1.717,0,0,0-.8-1.955c-1.128-1.116-2.556-.626-3.842-.628Q52.3,2.574,20.258,2.611c-1.133,0-2.265.143-3.4.22a6.27,6.27,0,0,0-1.556.929q-7.018,7.714-13.953,15.5A4.139,4.139,0,0,0,.1,22.652" transform="translate(0 0)" fill="#12263f"/>
        <path id="Trazado_217343" data-name="Trazado 217343" d="M89.028,147.076a1.873,1.873,0,0,1-1.867,2.039,25.409,25.409,0,0,1-3.09.234q-39.451.019-78.9-.032c-2.052,0-4.916.8-5.035-2.869.891-.978.509-2.179.51-3.279Q.674,85.4.644,27.64c0-1.1.379-2.3-.51-3.279a4.14,4.14,0,0,1,1.255-3.39q6.919-7.8,13.953-15.5A6.289,6.289,0,0,1,16.9,4.538a2.612,2.612,0,0,0,2.049.481q34.64-.027,69.281-.058a1.716,1.716,0,0,1,.8,1.955c-.893.977-.511,2.178-.511,3.278q-.029,66.8,0,133.6c0,1.1-.377,2.3.506,3.282M84.149,9.364c-.821-.928-1.924-.595-2.918-.6q-28.555-.026-57.11,0c-.99,0-2.1-.345-2.9.626-.044,4.148-.1,8.3-.127,12.445-.034,5.072-.286,5.344-5.212,5.356-2.594.007-5.2.185-7.778-.05-2.622-.24-3.251.66-3.245,3.244q.132,55.268-.012,110.538c-.008,2.78.933,3.11,3.341,3.1q36.267-.113,72.535.047c2.914.016,3.787-.57,3.779-3.664q-.174-63.832-.09-127.664c0-1.129-.172-2.258-.264-3.387M16.52,15.228,9.032,21.774c8.924-.029,6.975,1.783,7.151-6.86,0-.061-.123-.125.337.314" transform="translate(-0.036 -1.708)" fill="#12263f"/>
        <path id="Trazado_217344" data-name="Trazado 217344" d="M150.788,118.6c-.062-.926-.179-1.852-.179-2.778q-.014-50.824,0-101.648c0-1.133.148-2.266.228-3.4.073-.052.214-.115.208-.154a2.436,2.436,0,0,0-.151-.435C152.5,3.415,156.956-.328,163,.023c5.875.341,9.892,4.857,10.706,12.04-.886.98-.506,2.18-.507,3.28q-.031,49.972,0,99.944c0,1.1-.373,2.3.5,3.284-.818,5.367-3.295,10.2-4.955,15.295-1.28,3.93-2.82,7.776-4.25,11.657-.422,1.144-1.081,2.034-2.457,1.963-1.223-.064-1.779-.916-2.141-1.951-3-8.576-6.465-16.991-9.047-25.715.566-.438.523-.843-.065-1.219m16.8,3.092A20.1,20.1,0,0,0,157,121.652c-.443,3.144.531,4.811,2.969,5.078,5.911.647,7.3-.273,7.613-5.036M155.129,116.1c3.8.792,7.647.065,11.452.387,2.314.2,2.707-.833,2.7-2.884q-.08-46.364-.07-92.728c0-.95.737-2.622-1.172-2.6s-1.078,1.683-1.082,2.6c-.057,12.758-.037,25.516-.041,38.274a16.792,16.792,0,0,1-.08,2.793c-.213,1.251-.616,2.487-2.238,2.523-1.8.041-2.227-1.257-2.425-2.659a17.925,17.925,0,0,1-.06-2.485q0-17.27,0-34.539c0-6.812,0-6.812-6.909-6.493-1.148.852-.69,2.094-.691,3.169q-.036,45.713,0,91.426c0,1.088-.415,2.309.617,3.22M162.1,12.888c1.448,0,2.908-.115,4.343.024,2.832.274,2.838-1.209,2.117-3.2A6.734,6.734,0,0,0,161.9,5.135a6.94,6.94,0,0,0-6.275,5.134c-.571,1.805-.379,2.786,1.82,2.639,1.545-.1,3.1-.02,4.656-.019m-1.847,119.542c.589,1.736.877,3.539,2.12,5.331.337-2.024,2.043-3.57,1.168-5.33-.357-.719-2.072-.369-3.288,0" transform="translate(-56.68 0)" fill="#12263f"/>
        <path id="Trazado_217345" data-name="Trazado 217345" d="M142.341,148.51c-.882-.981-.506-2.181-.506-3.282q-.03-66.8,0-133.6c0-1.1-.382-2.3.511-3.279.047,16.507.124,33.015.137,49.522q.034,43.922,0,87.845c0,.931-.093,1.862-.143,2.793" transform="translate(-53.35 -3.143)" fill="#12263f"/>
        <path id="Trazado_217346" data-name="Trazado 217346" d="M.1,36.322c.889.979.51,2.179.51,3.28q.03,57.763,0,115.528c0,1.1.381,2.3-.51,3.28C.066,151.04.008,143.67.006,136.3q-.016-48.279,0-96.558c0-1.14.06-2.281.092-3.421" transform="translate(0 -13.67)" fill="#12263f"/>
        <path id="Trazado_217347" data-name="Trazado 217347" d="M187.293,125.851c-.872-.985-.5-2.183-.5-3.285q-.03-49.972,0-99.943c0-1.1-.379-2.3.507-3.28.036,9.134.1,18.268.1,27.4q.022,37.688,0,75.376c0,1.244-.071,2.486-.109,3.73" transform="translate(-70.27 -7.28)" fill="#12263f"/>
        <path id="Trazado_217348" data-name="Trazado 217348" d="M98.367,4.773q-34.64.03-69.281.058a2.613,2.613,0,0,1-2.049-.481c1.132-.077,2.264-.219,3.4-.22q32.045-.02,64.091.014c1.287,0,2.714-.487,3.842.629" transform="translate(-10.176 -1.52)" fill="#12263f"/>
        <path id="Trazado_217349" data-name="Trazado 217349" d="M150.9,190.173c.589.376.631.782.065,1.22q-.033-.61-.065-1.22" transform="translate(-56.792 -71.573)" fill="#12263f"/>
        <path id="Trazado_217350" data-name="Trazado 217350" d="M151.006,16.333a2.437,2.437,0,0,1,.152.435c.006.039-.135.1-.208.154a.6.6,0,0,1,.057-.589" transform="translate(-56.791 -6.147)" fill="#12263f"/>
        <path id="Trazado_217351" data-name="Trazado 217351" d="M87.017,12.276c.092,1.129.263,2.258.263,3.386q.021,63.833.09,127.664c.009,3.093-.865,3.68-3.779,3.664q-36.267-.2-72.535-.047c-2.409.007-3.349-.322-3.341-3.1Q7.876,88.571,7.727,33.3c-.006-2.584.623-3.484,3.245-3.244,2.573.236,5.184.057,7.778.05,4.926-.012,5.177-.284,5.212-5.356.028-4.148.084-8.3.127-12.445l62.928-.031M65.187,48.525a164.41,164.41,0,0,0-16.771.029c-2.455,1.963-2.268,3.415.615,4.76H65.179c2.81-1.734,2.813-3.23.008-4.79m0,33.653c-5.589-.173-11.178-.272-16.766.053a2.242,2.242,0,0,0-1.579,3.1c.645,2.127,2.4,1.84,4.051,1.655h11.8c1.739.212,3.615.471,4.327-1.645a2.256,2.256,0,0,0-1.834-3.167M48.42,123.057a127.452,127.452,0,0,0,17.365,0c1.494-.579,1.656-1.807,1.275-3.073a2.5,2.5,0,0,0-2.661-1.727c-4.878.009-9.756,0-14.635.014a2.479,2.479,0,0,0-2.647,1.748c-.361,1.272-.214,2.5,1.3,3.043m1.24-30.266c-1.55.041-2.052,1-2.059,2.372s.539,2.311,2.051,2.407l25.5.009a2.405,2.405,0,0,0,.619-4.761L49.66,92.791m26.106-28.9a2.224,2.224,0,0,0,1.911-2.858,2.027,2.027,0,0,0-2.52-1.918l-25.5.01c-2.95.826-2.618,2.427-1.02,4.326A4.069,4.069,0,0,0,50,64.006c8.588-.012,17.176-.067,25.765-.114m.611,69.766c1.617-.538,1.5-1.857,1.217-3.07a2.266,2.266,0,0,0-2.415-1.613q-12.6-.06-25.206.012a2.116,2.116,0,0,0-2.289,1.735c-.183,1.229-.329,2.549,1.352,2.979,9.115.357,18.229.44,27.342-.044M40.161,67.1q.01-10.566.021-21.132a2.054,2.054,0,0,0-1.8-2.379l-19.254-.036c-1.881.05-2.089,1.431-2.1,2.808-.037,6.608,0,13.216-.026,19.823-.007,2.022.814,3.026,2.955,3,5.78-.058,11.561-.021,17.342-.011,1.469,0,2.687-.308,2.856-2.077m.022,69.8q0-10.565,0-21.131c-.042-2.14-1.551-2.469-3.191-2.479-5.481-.034-10.962.018-16.442-.027-2.434-.021-3.61.99-3.589,3.51q.08,9.462-.006,18.926c-.021,2.438.975,3.633,3.489,3.611,5.48-.049,10.961.015,16.442-.034,1.578-.014,3.194-.2,3.292-2.375m.208-56.3c-.079-2.725-1.454-3.612-4.039-3.535-5.279.158-10.568.119-15.849.016-2.5-.049-3.673.978-3.673,3.439,0,6.321.014,12.642-.013,18.963-.011,2.46,1.125,3.558,3.6,3.53q8.08-.091,16.161,0c2.829.036,3.912-1.292,3.733-4.014-.109-1.651.114-3.328-.05-4.97-.362-3.614.333-6.719,3.339-9.128,1.261-1.011,1.949-2.457.9-4.122-1.206-1.906-2.637-.771-4.1-.176" transform="translate(-2.904 -4.62)" fill="#ece5f7"/>
        <path id="Trazado_217352" data-name="Trazado 217352" d="M96.9,11.881l-62.928.031c.8-.972,1.909-.626,2.9-.626q28.555-.028,57.111,0c.993,0,2.1-.332,2.918.6" transform="translate(-12.785 -4.225)" fill="#12263f"/>
        <path id="Trazado_217353" data-name="Trazado 217353" d="M21.912,21.463c-.46-.439-.336-.375-.337-.314-.176,8.643,1.773,6.831-7.151,6.86l7.488-6.546" transform="translate(-5.429 -7.943)" fill="#12263f"/>
        <path id="Trazado_217354" data-name="Trazado 217354" d="M157.939,29.26c6.908-.319,6.908-.319,6.908,6.493q0,17.27,0,34.54a17.831,17.831,0,0,0,.06,2.485c.2,1.4.627,2.7,2.425,2.659,1.623-.037,2.026-1.273,2.239-2.524a16.786,16.786,0,0,0,.08-2.793c0-12.759-.016-25.516.041-38.274,0-.916-.815-2.578,1.082-2.6s1.171,1.653,1.172,2.6q.059,46.364.07,92.728c0,2.051-.39,3.08-2.7,2.884-3.806-.322-7.655.4-11.453-.387q.038-48.908.077-97.816" transform="translate(-59.412 -10.973)" fill="url(#linear-gradient)"/>
        <path id="Trazado_217355" data-name="Trazado 217355" d="M164.97,15.981c-1.552,0-3.11-.084-4.655.02-2.2.147-2.391-.834-1.82-2.639a6.94,6.94,0,0,1,6.275-5.134,6.735,6.735,0,0,1,6.661,4.582c.721,1.987.715,3.47-2.117,3.2-1.435-.139-2.895-.024-4.344-.024" transform="translate(-59.547 -3.093)" fill="#eeac3a"/>
        <path id="Trazado_217356" data-name="Trazado 217356" d="M157.514,29.322l-.077,97.816c-1.031-.912-.616-2.132-.616-3.22q-.033-45.713,0-91.427c0-1.075-.457-2.317.691-3.169" transform="translate(-58.988 -11.035)" fill="#12263f"/>
        <path id="Trazado_217357" data-name="Trazado 217357" d="M171.384,195.107c-.311,4.762-1.7,5.683-7.613,5.036-2.437-.267-3.413-1.935-2.969-5.078l10.582.042" transform="translate(-60.48 -73.414)" fill="url(#linear-gradient)"/>
        <path id="Trazado_217358" data-name="Trazado 217358" d="M166.081,212.1c1.215-.368,2.931-.718,3.288,0,.875,1.759-.831,3.305-1.168,5.33-1.242-1.792-1.53-3.6-2.12-5.331" transform="translate(-62.505 -79.667)" fill="#7f4fc7"/>
        <path id="Trazado_217359" data-name="Trazado 217359" d="M171.447,194.691l-10.582-.042a20.1,20.1,0,0,1,10.582.042" transform="translate(-60.542 -72.998)" fill="#12263f"/>
        <path id="Trazado_217360" data-name="Trazado 217360" d="M45.884,119.69c1.467-.6,2.9-1.73,4.1.176,1.053,1.665.365,3.11-.9,4.121-3.006,2.41-3.7,5.515-3.339,9.129.164,1.641-.059,3.318.05,4.969.18,2.722-.9,4.05-3.733,4.014q-8.08-.1-16.161,0c-2.475.028-3.61-1.07-3.6-3.53.027-6.321.014-12.642.013-18.963,0-2.461,1.176-3.488,3.673-3.439,5.282.1,10.57.142,15.849-.016,2.585-.077,3.961.81,4.039,3.535m-18.8,2.112c-1.37,3.457-.394,7.055-.57,10.582-.072,1.429-.71,3.09.669,4.352h8.066c-1.414-1.647-2.533-2.947-3.648-4.25-1.326-1.55-3.425-3.267-1.235-5.229,2.154-1.929,3.349.649,4.739,1.854.534.464.942,1.865,1.832.937,1.688-1.759,3.858-3.272,4.321-5.9.211-1.2.341-2.763-1.541-2.709-4.211.12-8.447-.547-12.634.363" transform="translate(-8.396 -43.714)" fill="#12263f"/>
        <path id="Trazado_217361" data-name="Trazado 217361" d="M45.762,197.842c-.1,2.173-1.714,2.361-3.292,2.375-5.481.049-10.962-.014-16.442.034-2.513.022-3.509-1.173-3.489-3.611q.08-9.462.006-18.926c-.021-2.52,1.155-3.53,3.589-3.51,5.48.046,10.961-.006,16.442.027,1.64.01,3.149.339,3.191,2.479-1.174,2.786-.508,5.71-.463,8.545.066,4.193-.734,8.434.458,12.586m-4.684-10.567c0-1.86-.089-3.725.026-5.578.1-1.641-.519-2.165-2.132-2.111-3.1.1-6.205.168-9.294-.019-2.188-.132-2.6.8-2.486,2.694.132,2.162.031,4.337.031,6.508,0,6.037,0,6.037,6.132,6.077,7.723.049,7.723.049,7.723-7.57" transform="translate(-8.483 -65.563)" fill="#12263f"/>
        <path id="Trazado_217362" data-name="Trazado 217362" d="M43.993,62.47a2.055,2.055,0,0,1,1.8,2.38c-1.111,2.367-.514,4.881-.465,7.3.094,4.609-.671,9.256.443,13.831-.17,1.769-1.387,2.079-2.856,2.077-5.781-.009-11.562-.047-17.342.011-2.14.021-2.961-.983-2.955-3,.021-6.608-.011-13.216.026-19.823.007-1.378.216-2.758,2.1-2.808a75.537,75.537,0,0,0,19.254.036M40.952,75.113h.179c0-1.862-.043-3.725.014-5.585.042-1.353-.286-2.124-1.876-2.085-3.411.083-6.826.067-10.237,0-1.357-.024-1.812.5-1.773,1.824.074,2.48.021,4.964.021,7.447,0,6.178,0,6.241,6.015,6.149,2.551-.039,5.948,1.166,7.408-.554,1.219-1.436.25-4.728.25-7.2" transform="translate(-8.512 -23.497)" fill="#12263f"/>
        <path id="Trazado_217363" data-name="Trazado 217363" d="M73.091,204.109c-1.681-.43-1.535-1.75-1.352-2.979a2.116,2.116,0,0,1,2.289-1.736q12.6-.086,25.206-.012A2.266,2.266,0,0,1,101.65,201c.283,1.213.4,2.532-1.217,3.07-.688-.647-1.549-.468-2.359-.469q-11.321-.014-22.643,0c-.809,0-1.673-.173-2.339.513" transform="translate(-26.959 -75.027)" fill="#12263f"/>
        <path id="Trazado_217364" data-name="Trazado 217364" d="M99.125,87.363a2.027,2.027,0,0,1,2.52,1.918,2.223,2.223,0,0,1-1.911,2.858c-.675-.669-1.536-.5-2.345-.5Q85,91.661,72.6,91.7c-1.6-1.9-1.93-3.5,1.02-4.326.765.772,1.747.515,2.651.518q10.1.026,20.2,0c.9,0,1.887.252,2.647-.528" transform="translate(-26.872 -32.867)" fill="#12263f"/>
        <path id="Trazado_217365" data-name="Trazado 217365" d="M99.841,141.408a2.406,2.406,0,0,1-.619,4.762c-.865-.846-1.958-.519-2.958-.523q-9.79-.04-19.579,0c-1,0-2.092-.319-2.963.513-1.512-.1-2.057-1.024-2.051-2.407s.509-2.331,2.059-2.372c.982.867,2.176.489,3.274.5q9.464.054,18.929,0c1.3-.011,2.7.435,3.908-.463" transform="translate(-26.974 -53.209)" fill="#12263f"/>
        <path id="Trazado_217366" data-name="Trazado 217366" d="M72.1,187.011c-1.517-.548-1.665-1.771-1.3-3.043a2.48,2.48,0,0,1,2.648-1.748c4.878-.011,9.756,0,14.635-.014a2.5,2.5,0,0,1,2.661,1.727c.381,1.267.219,2.495-1.275,3.073a65.857,65.857,0,0,0-17.365,0" transform="translate(-26.582 -68.574)" fill="#12263f"/>
        <path id="Trazado_217367" data-name="Trazado 217367" d="M74.41,129.173c-1.655.185-3.406.472-4.052-1.655a2.243,2.243,0,0,1,1.58-3.1,56.731,56.731,0,0,0,16.766-.053,2.256,2.256,0,0,1,1.834,3.167c-.713,2.116-2.589,1.857-4.327,1.645a26.323,26.323,0,0,0-11.8,0" transform="translate(-26.42 -46.804)" fill="#12263f"/>
        <path id="Trazado_217368" data-name="Trazado 217368" d="M72.564,75.19c-2.882-1.346-3.07-2.8-.616-4.76A55.613,55.613,0,0,0,88.72,70.4c2.8,1.56,2.8,3.056-.008,4.79a51.15,51.15,0,0,0-16.148,0" transform="translate(-26.436 -26.495)" fill="#12263f"/>
        <path id="Trazado_217369" data-name="Trazado 217369" d="M73.971,206.657c.666-.687,1.53-.512,2.339-.513q11.322-.012,22.643,0c.81,0,1.671-.178,2.359.469-9.113.483-18.227.4-27.342.044" transform="translate(-27.839 -77.575)" fill="#12263f"/>
        <path id="Trazado_217370" data-name="Trazado 217370" d="M73.332,94.29q12.392-.03,24.784-.055c.809,0,1.671-.174,2.345.5-8.588.046-17.176.1-25.765.113a4.064,4.064,0,0,1-1.364-.553" transform="translate(-27.599 -35.458)" fill="#12263f"/>
        <path id="Trazado_217371" data-name="Trazado 217371" d="M101.083,141.408c-1.211.9-2.6.453-3.908.463q-9.464.075-18.929,0c-1.1-.006-2.292.372-3.274-.5l26.111.027" transform="translate(-28.216 -53.209)" fill="#12263f"/>
        <path id="Trazado_217372" data-name="Trazado 217372" d="M100.468,87.383c-.761.78-1.742.526-2.647.528q-10.1.026-20.2,0c-.9,0-1.886.254-2.651-.518Z" transform="translate(-28.215 -32.887)" fill="#12263f"/>
        <path id="Trazado_217373" data-name="Trazado 217373" d="M74.96,148.7c.871-.832,1.962-.509,2.963-.513q9.79-.039,19.579,0c1,0,2.093-.324,2.958.523l-25.5-.01" transform="translate(-28.212 -55.748)" fill="#12263f"/>
        <path id="Trazado_217374" data-name="Trazado 217374" d="M59.362,199.355c-1.192-4.153-.392-8.394-.458-12.586-.045-2.834-.711-5.757.463-8.545q0,10.566,0,21.131" transform="translate(-22.083 -67.076)" fill="#12263f"/>
        <path id="Trazado_217375" data-name="Trazado 217375" d="M59.351,87.439c-1.114-4.576-.349-9.221-.443-13.831-.049-2.42-.647-4.934.465-7.3q-.011,10.565-.022,21.132" transform="translate(-22.093 -24.955)" fill="#12263f"/>
        <path id="Trazado_217376" data-name="Trazado 217376" d="M45.274,62.47a75.566,75.566,0,0,1-19.254-.036l19.254.036" transform="translate(-9.793 -23.497)" fill="#12263f"/>
        <path id="Trazado_217377" data-name="Trazado 217377" d="M72.985,189.563a65.856,65.856,0,0,1,17.365-.005,127.453,127.453,0,0,1-17.365.005" transform="translate(-27.468 -71.126)" fill="#12263f"/>
        <path id="Trazado_217378" data-name="Trazado 217378" d="M89.753,124.266a56.752,56.752,0,0,1-16.766.053c5.588-.325,11.177-.226,16.766-.053" transform="translate(-27.469 -46.708)" fill="#12263f"/>
        <path id="Trazado_217379" data-name="Trazado 217379" d="M89.749,70.281a55.613,55.613,0,0,1-16.772.029,164.239,164.239,0,0,1,16.772-.029" transform="translate(-27.465 -26.375)" fill="#12263f"/>
        <path id="Trazado_217380" data-name="Trazado 217380" d="M73.964,77.693a51.15,51.15,0,0,1,16.148,0H73.964" transform="translate(-27.837 -28.999)" fill="#12263f"/>
        <path id="Trazado_217381" data-name="Trazado 217381" d="M76.951,131.673a26.323,26.323,0,0,1,11.8,0h-11.8" transform="translate(-28.961 -49.304)" fill="#12263f"/>
        <path id="Trazado_217382" data-name="Trazado 217382" d="M29.972,124.919c4.187-.91,8.423-.243,12.634-.363,1.882-.054,1.752,1.512,1.541,2.709-.463,2.629-2.632,4.142-4.321,5.9-.891.928-1.3-.473-1.832-.937-1.39-1.206-2.585-3.783-4.739-1.854-2.19,1.962-.092,3.679,1.235,5.229,1.115,1.3,2.234,2.6,3.648,4.25H30.071l-.1-14.934" transform="translate(-11.28 -46.831)" fill="url(#linear-gradient)"/>
        <path id="Trazado_217383" data-name="Trazado 217383" d="M29.5,125.213l.1,14.934c-1.38-1.262-.741-2.923-.669-4.352.176-3.527-.8-7.125.57-10.582" transform="translate(-10.81 -47.125)" fill="#12263f"/>
        <path id="Trazado_217384" data-name="Trazado 217384" d="M43.877,190.5c0,7.62,0,7.62-7.723,7.57-6.132-.039-6.132-.039-6.132-6.077,0-2.17.1-4.346-.03-6.508-.115-1.892.3-2.826,2.486-2.694,3.088.187,6.2.12,9.294.019,1.612-.054,2.233.47,2.132,2.111-.115,1.853-.026,3.718-.026,5.578" transform="translate(-11.281 -68.792)" fill="url(#linear-gradient)"/>
        <path id="Trazado_217385" data-name="Trazado 217385" d="M43.752,78.135c0,2.471.969,5.764-.25,7.2-1.46,1.721-4.857.515-7.408.554-6.014.092-6.015.029-6.015-6.149,0-2.483.053-4.967-.021-7.447-.039-1.325.416-1.848,1.773-1.824,3.411.062,6.826.078,10.237,0,1.59-.039,1.918.732,1.876,2.085-.057,1.86-.014,3.723-.014,5.585h-.179" transform="translate(-11.312 -26.519)" fill="url(#linear-gradient)"/>
      </g>
    </g>
  </g>
</svg>
