<svg xmlns="http://www.w3.org/2000/svg" xmlns:xlink="http://www.w3.org/1999/xlink" width="107.171" height="122.125" viewBox="0 0 107.171 122.125">
  <defs>
    <clipPath id="clip-path">
      <rect id="Rect치ngulo_55939" data-name="Rect치ngulo 55939" width="107.171" height="122.125" fill="#12263f"/>
    </clipPath>
    <linearGradient id="linear-gradient" x1="0.5" x2="0.5" y2="1" gradientUnits="objectBoundingBox">
      <stop offset="0" stop-color="#f5f5f5"/>
      <stop offset="0.25" stop-color="#f5f5f5"/>
      <stop offset="1" stop-color="#a7b3cf"/>
    </linearGradient>
    <linearGradient id="linear-gradient-3" x1="0.5" x2="0.5" y2="1" gradientUnits="objectBoundingBox">
      <stop offset="0" stop-color="#116eb9"/>
      <stop offset="1" stop-color="#1894f6"/>
    </linearGradient>
    <linearGradient id="linear-gradient-4" x1="0.5" x2="0.5" y2="1" gradientUnits="objectBoundingBox">
      <stop offset="0" stop-color="#2a9d8d"/>
      <stop offset="1" stop-color="#43a99b"/>
    </linearGradient>
  </defs>
  <g id="Grupo_175163" data-name="Grupo 175163" transform="translate(-6804.887 8326.636)">
    <g id="Grupo_175115" data-name="Grupo 175115" transform="translate(6804.887 -8326.636)">
      <g id="Grupo_175114" data-name="Grupo 175114" clip-path="url(#clip-path)">
        <path id="Trazado_217386" data-name="Trazado 217386" d="M107.171,86.745c-2.289,1.134-2.944,2.917-2.253,5.346.819,2.878.149,5.728-.4,8.551a24.412,24.412,0,0,1-6.685,12.492,25.79,25.79,0,0,1-14.363,7.53,24.753,24.753,0,0,1-15.864-2.517c-1.188-.611-1.907-.521-2.726.443-1.413,1.664-3.053,3.08-5.383,3.02-1.456-.038-3.15,0-4.309-.7-4.42-2.681-5.573-8.137-1.7-11.625,1.878-1.692,2.339-3.138,1.389-5.514A24.615,24.615,0,0,1,54.784,86a5.293,5.293,0,0,0,.071-.969l-6.627,1.1v21.257H44.177V86.177c-2.1-.559-4.072-1.132-6.071-1.565-.343-.074-.883.38-1.216.707C34.78,87.392,32.7,89.5,30.355,91.857l-7.063-21.1-12.33,3.727q-1.367.413-2.733.827A5.572,5.572,0,0,0,4.1,81.1q-.044,19.54-.013,39.08v1.916H0v-1.8q0-19.77,0-39.54a9.623,9.623,0,0,1,6.472-9.174c5.089-1.7,10.308-3.015,15.4-4.72a30,30,0,0,0,5.4-2.914c.91-.535,1.67-1.331,2.591-1.84,1.78-.982,3.316-2.035,2.5-4.681H34.2c5.21,0,10.421.029,15.63-.031a4.746,4.746,0,0,0,2.379-.689c2.678-1.706,5.258-3.565,7.931-5.279a2.183,2.183,0,0,0,1.177-2.083c-.039-4.9.009-9.809-.051-14.712a3.072,3.072,0,0,0-.746-1.852c-1.285-1.427-2.792-2.659-4.021-4.128-.987-1.18-1.748-.754-2.7-.1a13.261,13.261,0,0,1-8.327,2.231,14.99,14.99,0,0,1-8.7-3.307c-1.872,1.884-3.737,3.7-5.508,5.6a2.645,2.645,0,0,0-.489,1.651c-.045,3.269-.019,6.539-.025,9.808,0,.5-.046.994-.078,1.644H27.18v3.524H42.3v4.052H22.988c0-2.123-.037-4.2.016-6.277a1.694,1.694,0,0,0-1.312-1.977,9.708,9.708,0,0,1-3.055-16.44,2.346,2.346,0,0,0,.64-1.641,24.634,24.634,0,0,1,1.692-10.4A26.852,26.852,0,0,1,32.247,3.738,24.186,24.186,0,0,1,41.2.368c.141-.02.254-.241.379-.368h9.195c.077.116.138.317.233.335A26.618,26.618,0,0,1,65.071,7.817a25.781,25.781,0,0,1,7.923,18.492,5.569,5.569,0,0,0,1.58,3.986c4.035,4.394,2.6,12.961-3.935,15.081a53.077,53.077,0,0,1-5.255,1.144c0,1.72.055,3.551-.036,5.376a2.124,2.124,0,0,1-.78,1.406c-1.576,1.169-3.229,2.232-4.753,3.266,0,.96-.018,1.808.01,2.655.01.308.03.761.221.894,1.424.986,2.892,1.908,4.653,3.049V58.88c3.87,3.168,7.633,6.045,11.137,9.21,1.542,1.393,3.143.706,4.715.99a4.858,4.858,0,0,0,5.186-2.332A1.757,1.757,0,0,1,87.9,66c3.708,1,7.429,1.953,11.145,2.923l.353.468L89.23,78.5q0,.455.007.91L94.145,83.5l9.925-9.836c.564,2.18,1,3.974,1.5,5.754.508,1.837,1.067,3.66,1.6,5.488Zm-16.023-15.6A20.4,20.4,0,0,0,88.8,70.55a1.9,1.9,0,0,0-1.392.248c-2.485,2.4-4.934,4.848-7.318,7.353a2.137,2.137,0,0,0-.383,1.675c.388,1.81.966,3.579,1.4,5.381.146.612.342,1.5.039,1.88A39.109,39.109,0,0,1,77.8,90.581c-1.943,1.909-3.938,3.766-5.859,5.7-1.884,1.894-3.691,3.867-5.557,5.78-1.267,1.3-2.569,2.562-3.87,3.826-1.954,1.9-3.928,3.775-5.873,5.683a6.77,6.77,0,0,0-.792,1.1,3.084,3.084,0,0,0,.91,4.327c1.633,1.077,3.019.907,4.547-.619,7.912-7.9,15.8-15.824,23.752-23.687a3,3,0,0,1,2.216-.834c1.969.327,3.876,1.006,5.834,1.428a2.131,2.131,0,0,0,1.674-.347c2.475-2.359,4.886-4.787,7.261-7.247a2.014,2.014,0,0,0,.341-1.4,30.157,30.157,0,0,0-.528-2.978L94.09,89.475,83.507,78.966l7.641-7.821m9.611,22.193-.41-.285c-1.44,1.506-2.855,3.038-4.341,4.5a1.8,1.8,0,0,1-1.36.538c-1.945-.462-3.881-.994-5.773-1.64a2.1,2.1,0,0,0-2.513.639c-5.3,5.377-10.662,10.7-16,16.041-.377.377-.713.8-1.235,1.38,7.887,3.361,15.426,3.258,22.3-1.465,6.764-4.65,10.139-11.3,9.333-19.708m-32-25.891c0,2.4-.108,4.419.038,6.422a2.783,2.783,0,0,1-1.46,2.674,27.13,27.13,0,0,0-4.927,4.234,21.562,21.562,0,0,0-4.956,17.154,48.316,48.316,0,0,0,1.414,5.453c.383-.139.5-.146.566-.21q8.521-8.486,17.014-17a1.446,1.446,0,0,0,.235-1.164c-.512-2.146-1.011-4.3-1.7-6.4-.27-.826-.009-1.117.517-1.617,1.31-1.245,2.524-2.59,3.777-3.9a5.78,5.78,0,0,1-5.639-1.483c-1.449-1.379-3.039-2.608-4.883-4.171M61.028,27.7c.793-4.469-1.77-11.1-7.541-14.168-5.7-3.036-11.354-2.74-17.226,1.641-3.475,2.593-5.992,9.023-5.305,11.992a41.872,41.872,0,0,0,3.624-3.353c1.1-1.264,2.06-1.544,3.375-.4a16.238,16.238,0,0,0,1.9,1.231c4.059,2.623,8.137,2.76,12.256.13,1.259-.8,2.549-1.56,4.049-2.474l4.864,5.4M46.077,81.145c2.463-2.717,4.78-5.2,7-7.758.907-1.047,2.169-2.225,2.284-3.436.316-3.327.109-6.7.109-10.2-.43.139-.788.148-.968.33-1.806,1.821-4.1,1.409-6.3,1.422-1.939.012-3.878,0-5.817,0h-5.5c0,1.044.045,1.908-.008,2.766-.231,3.805-.464,7.6,3.294,10.1.07.046.059.2.123.272,1.908,2.148,3.821,4.292,5.785,6.494M26.892,26.665A19.274,19.274,0,0,1,45.165,7.5,18.053,18.053,0,0,1,57,10.919a19.31,19.31,0,0,1,8.463,15.76h3.321c.493-9.466-6.732-21.706-21.331-22.691-11.929-.8-23.517,7.746-24.254,22.676Zm5.6,38.655c-1.909,1.3-3.528,2.366-5.091,3.509-.177.13-.14.721-.035,1.043,1.538,4.709,3.105,9.408,4.731,14.308.447-.356.764-.563,1.026-.823,1.644-1.632,2.984-3.914,5.938-2.667.188.079.5-.146.853-.26a5.044,5.044,0,0,0-.383-.611c-1.851-2.077-3.689-4.166-5.57-6.215a4.465,4.465,0,0,1-1.5-3.712,43.557,43.557,0,0,0,.032-4.572m27.38-.38c0,2.231.026,4.058-.018,5.883a2.345,2.345,0,0,1-.4,1.386c-1.716,2-3.509,3.929-5.255,5.9-.861.972-1.677,1.983-2.587,3.064.945-.058,1.739-.046,2.513-.168,1.888-.3,3.9-.3,4.923-2.466.3-.639,1.026-1.078,1.555-1.611,2.156-2.174,5.2-3.883,4.077-7.778-.054-.19.033-.423-.029-.607a1.539,1.539,0,0,0-.411-.767c-1.316-.894-2.664-1.741-4.367-2.839m-32.985-33.9C24.175,30.392,21.942,31,20.4,33.25a5.235,5.235,0,0,0-.214,5.969c1.495,2.4,3.829,3.207,6.7,2.763ZM65.469,41.935A5.977,5.977,0,0,0,71.941,39.4,5.2,5.2,0,0,0,71.7,33.1c-1.512-2.06-3.669-2.661-6.235-2.074Z" transform="translate(0)" fill="#12263f"/>
        <rect id="Rect치ngulo_55938" data-name="Rect치ngulo 55938" width="3.853" height="30.274" transform="translate(16.069 91.852)" fill="#12263f"/>
        <path id="Trazado_217387" data-name="Trazado 217387" d="M131.031,112.274h4.16v7.585h3.7v4h-7.863Z" transform="translate(-90.77 -77.776)" fill="#12263f"/>
        <path id="Trazado_217388" data-name="Trazado 217388" d="M215.864,230.14l-7.641,7.821,10.583,10.509,7.763-8.158c.253,1.359.472,2.163.528,2.978a2.016,2.016,0,0,1-.341,1.4c-2.375,2.46-4.786,4.888-7.261,7.247a2.132,2.132,0,0,1-1.674.347c-1.957-.423-3.865-1.1-5.834-1.428a3,3,0,0,0-2.216.834c-7.949,7.863-15.84,15.786-23.752,23.687-1.528,1.526-2.914,1.7-4.547.619a3.084,3.084,0,0,1-.91-4.327,6.754,6.754,0,0,1,.792-1.1c1.945-1.907,3.919-3.784,5.872-5.683,1.3-1.264,2.6-2.528,3.87-3.826,1.866-1.913,3.672-3.886,5.557-5.78,1.921-1.931,3.915-3.788,5.858-5.7a39.063,39.063,0,0,0,3.349-3.495c.3-.383.107-1.267-.039-1.88-.429-1.8-1.007-3.571-1.4-5.381a2.136,2.136,0,0,1,.383-1.675c2.383-2.5,4.833-4.948,7.317-7.353a1.9,1.9,0,0,1,1.392-.248,20.4,20.4,0,0,1,2.344.595" transform="translate(-124.717 -158.996)" fill="#eeac3a"/>
        <path id="Trazado_217389" data-name="Trazado 217389" d="M256.615,303.128c.806,8.4-2.569,15.058-9.333,19.708-6.87,4.723-14.409,4.826-22.3,1.465.521-.585.858-1,1.234-1.381,5.336-5.344,10.7-10.664,16-16.041a2.1,2.1,0,0,1,2.513-.639c1.892.646,3.828,1.178,5.773,1.64a1.8,1.8,0,0,0,1.359-.538c1.486-1.46,2.9-2.992,4.341-4.5l.41.285" transform="translate(-155.856 -209.79)" fill="url(#linear-gradient)"/>
        <path id="Trazado_217390" data-name="Trazado 217390" d="M197.763,219.507c1.844,1.563,3.434,2.793,4.883,4.171a5.779,5.779,0,0,0,5.639,1.483c-1.252,1.3-2.467,2.65-3.776,3.9-.526.5-.787.79-.517,1.616.685,2.094,1.184,4.25,1.7,6.4a1.446,1.446,0,0,1-.236,1.164q-8.476,8.531-17.014,17c-.064.063-.183.071-.565.21a48.335,48.335,0,0,1-1.414-5.453,21.562,21.562,0,0,1,4.956-17.154,27.13,27.13,0,0,1,4.927-4.234,2.782,2.782,0,0,0,1.459-2.674c-.146-2-.038-4.025-.038-6.422" transform="translate(-129.006 -152.06)" fill="url(#linear-gradient)"/>
        <path id="Trazado_217393" data-name="Trazado 217393" d="M79.191,35.54H75.5c.736-14.93,12.325-23.481,24.254-22.676,14.6.984,21.824,13.225,21.331,22.691H117.76a19.311,19.311,0,0,0-8.463-15.76,18.055,18.055,0,0,0-11.833-3.42A19.273,19.273,0,0,0,79.191,35.54" transform="translate(-52.299 -8.875)" fill="url(#linear-gradient-3)"/>
        <path id="Trazado_217394" data-name="Trazado 217394" d="M93.981,212.584a43.555,43.555,0,0,1-.032,4.572,4.465,4.465,0,0,0,1.5,3.712c1.881,2.049,3.72,4.138,5.57,6.215a5.041,5.041,0,0,1,.383.611c-.348.114-.665.339-.853.26-2.953-1.247-4.293,1.035-5.938,2.667-.262.261-.579.468-1.026.823-1.626-4.9-3.192-9.6-4.731-14.308-.105-.322-.142-.913.035-1.043,1.563-1.144,3.182-2.211,5.091-3.509" transform="translate(-61.492 -147.264)" fill="url(#linear-gradient-4)"/>
        <path id="Trazado_217395" data-name="Trazado 217395" d="M176.223,211.348c1.7,1.1,3.051,1.944,4.367,2.839a1.538,1.538,0,0,1,.411.767c.063.184-.025.417.029.606,1.118,3.9-1.922,5.6-4.078,7.778-.529.533-1.253.972-1.555,1.611-1.02,2.161-3.035,2.168-4.923,2.466-.773.122-1.568.109-2.513.168.91-1.081,1.726-2.092,2.587-3.065,1.746-1.972,3.539-3.9,5.255-5.9a2.344,2.344,0,0,0,.4-1.386c.045-1.825.018-3.652.018-5.883" transform="translate(-116.354 -146.408)" fill="url(#linear-gradient-4)"/>
        <path id="Trazado_217396" data-name="Trazado 217396" d="M70.519,100.476v10.937c-2.867.444-5.2-.361-6.7-2.763a5.234,5.234,0,0,1,.214-5.968c1.54-2.251,3.774-2.858,6.481-2.206" transform="translate(-43.636 -69.432)" fill="#eeac3a"/>
        <path id="Trazado_217397" data-name="Trazado 217397" d="M213.069,111.4V100.486c2.565-.587,4.723.014,6.235,2.074a5.2,5.2,0,0,1,.237,6.305,5.977,5.977,0,0,1-6.472,2.532" transform="translate(-147.6 -69.462)" fill="#eeac3a"/>
      </g>
    </g>
  </g>
</svg>
