<svg xmlns="http://www.w3.org/2000/svg" xmlns:xlink="http://www.w3.org/1999/xlink" width="97.543" height="102.412" viewBox="0 0 97.543 102.412">
  <defs>
    <clipPath id="clip-path">
      <rect id="Rect치ngulo_54052" data-name="Rect치ngulo 54052" width="97.543" height="102.412" fill="none"/>
    </clipPath>
    <linearGradient id="linear-gradient" x1="0.5" x2="0.5" y2="1" gradientUnits="objectBoundingBox">
      <stop offset="0" stop-color="#f5f5f5"/>
      <stop offset="0.25" stop-color="#f5f5f5"/>
      <stop offset="1" stop-color="#a7b3cf"/>
    </linearGradient>
  </defs>
  <g id="Grupo_175145" data-name="Grupo 175145" transform="translate(2356.271 10227.278)">
    <g id="Grupo_174742" data-name="Grupo 174742" transform="translate(-2356.271 -10227.278)">
      <g id="Grupo_174741" data-name="Grupo 174741" clip-path="url(#clip-path)">
        <path id="Trazado_215047" data-name="Trazado 215047" d="M89.431,80.465c0,.464,0,.817,0,1.169,0,3.257,0,6.515-.01,9.772,0,1.478-.613,2.064-2.1,2.064H68.35c-.021.368-.051.658-.052.947,0,1.9,0,3.8,0,5.7,0,1.747-.525,2.288-2.242,2.29q-6.922.007-13.844,0H2.442c-1.971,0-2.437-.471-2.437-2.46q0-29.588,0-59.177,0-.543,0-1.086c.011-1.8.5-2.278,2.329-2.278,7.51,0,15.021-.014,22.531.018.871,0,1.19-.153,1.186-1.124-.041-9.26-.025-18.519-.025-27.779V7.313c-.365-.026-.627-.062-.889-.062-4.555,0-9.109.01-13.663-.015-.685,0-.957.149-.934.9.055,1.834.018,3.671.018,5.608.383.021.7.051,1.017.052,1.478.007,2.956-.01,4.434.013a1.651,1.651,0,0,1,1.832,1.775q.018,7.148,0,14.3a1.623,1.623,0,0,1-1.818,1.769q-7.058.011-14.116,0A1.676,1.676,0,0,1,.01,29.76q-.018-7.013,0-14.025c0-1.314.637-1.919,1.973-1.933,1.743-.018,3.487,0,5.363,0,0-.413,0-.733,0-1.053q0-3.3,0-6.605c0-1.5.572-2.081,2.074-2.083,5.188-.005,10.376-.014,15.563.012.712,0,1.053-.132,1.2-.924A3.874,3.874,0,0,1,30.079.008q14.613-.014,29.227,0A4.008,4.008,0,0,1,63.4,4.165c.04,2.292.01,4.584.01,6.877,0,.327,0,.653,0,1.073.391.021.71.052,1.029.052q14.161.005,28.322.006c3.229,0,4.782,1.552,4.781,4.758q0,16.016,0,32.032c0,3.072-1.54,4.633-4.6,4.634q-11.673,0-23.345,0H68.367V90.219c.313.018.631.052.949.052,5.308,0,10.617-.015,15.925.021.815.006,1.018-.246,1-1.029-.046-2.593-.056-5.188,0-7.781.02-.879-.295-1.063-1.088-1.032-1.415.055-2.835.024-4.252.013s-2.029-.64-2.03-2.058q0-6.832,0-13.663c0-1.561.571-2.13,2.127-2.131q6.831,0,13.662,0c1.517,0,2.062.559,2.063,2.081q.005,6.832,0,13.663c0,1.52-.6,2.1-2.152,2.106-1.68,0-3.36,0-5.151,0M68.3,50.412h1.057q11.715,0,23.43,0c1.387,0,1.574-.179,1.575-1.555q0-15.877,0-31.753c0-1.59-.147-1.723-1.781-1.723q-14.384,0-28.768,0c-2.354,0-3.609-1.268-3.613-3.641s0-4.764,0-7.147c0-1.17-.208-1.374-1.366-1.374q-14.067,0-28.134,0c-1.292,0-1.452.16-1.452,1.46q0,15.831,0,31.662c0,.319.03.638.05,1.067h1.329q17.776,0,35.552,0c1.565,0,2.116.563,2.118,2.124q.005,3.664,0,7.328v3.547M65.038,81.32c-.341-.024-.605-.059-.869-.059q-30.029,0-60.059-.016c-.713,0-.924.2-.921.916.029,5.367.016,10.733.019,16.1,0,.289.032.578.048.859H65.038Zm.043-3.269v-1.2q0-7.737,0-15.474c0-1.263,0-1.268-1.27-1.268q-29.771,0-59.542-.02c-.916,0-1.086.312-1.08,1.142.033,5.218.016,10.436.016,15.654,0,1.16,0,1.161,1.191,1.161H65.081ZM3.2,56.849H65.033V40.6H26.564q-11.218,0-22.437,0c-.508,0-.938-.041-.935.714.023,5.125.012,10.25.012,15.541M14.555,17.071H3.275V28.4h11.28Zm67.58,48.8c-.019.3-.043.511-.043.717,0,3.256.021,6.513-.017,9.769-.008.729.214.919.924.911,3.2-.035,6.392-.013,9.588-.017.289,0,.578-.035.872-.054V65.874Z" transform="translate(0 0)" fill="#1a1818"/>
        <path id="Trazado_215048" data-name="Trazado 215048" d="M200.62,64.974c0-1.265,0-2.406,0-3.547q0-3.664,0-7.328c0-1.561-.553-2.124-2.118-2.124q-17.776-.007-35.552,0h-1.329c-.021-.428-.05-.748-.051-1.067q0-15.831,0-31.662c0-1.3.16-1.46,1.452-1.46l28.134,0c1.157,0,1.363.2,1.366,1.374,0,2.382,0,4.764,0,7.147s1.259,3.64,3.613,3.641q14.384,0,28.768,0c1.634,0,1.78.133,1.781,1.723q0,15.876,0,31.753c0,1.376-.188,1.554-1.575,1.555q-11.715,0-23.43,0H200.62M169.695,25.069h1.295c2.712,0,5.424.006,8.136,0,1.2,0,1.936-.6,1.959-1.541.024-.97-.76-1.646-1.968-1.65q-5.289-.016-10.577,0c-1.444,0-2.044.587-2.051,2.023-.017,3.315-.006,6.63-.006,9.944,0,.03,0,.06,0,.09a1.716,1.716,0,0,0,1.626,1.724,1.678,1.678,0,0,0,1.582-1.755c.02-1.416,0-2.833,0-4.249,0-1.474,0-2.948,0-4.581" transform="translate(-132.324 -14.562)" fill="#eeac3a"/>
        <path id="Trazado_215049" data-name="Trazado 215049" d="M79.47,448.977v17.8H17.689c-.016-.281-.048-.57-.048-.859,0-5.367.01-10.734-.019-16.1,0-.721.207-.917.921-.916q30.03.026,60.059.016c.264,0,.527.035.869.059m-21.107,8.438q0,1.31,0,2.619c0,.06,0,.121,0,.181a1.674,1.674,0,0,0,1.633,1.7,1.637,1.637,0,0,0,1.572-1.751q.029-2.664,0-5.328a1.63,1.63,0,0,0-1.622-1.781,1.673,1.673,0,0,0-1.586,1.829c-.015.843,0,1.686,0,2.529m-11.387.055q0,.633,0,1.265c0,.452-.013.9,0,1.355a1.692,1.692,0,0,0,1.6,1.827,1.653,1.653,0,0,0,1.6-1.8q.018-2.621,0-5.241a1.613,1.613,0,1,0-3.2-.023c-.018.873,0,1.747-.006,2.621m-8.179-.005c0-.9.016-1.806,0-2.709a1.593,1.593,0,1,0-3.182-.053q-.064,2.752-.008,5.507a1.6,1.6,0,1,0,3.193-.037c.019-.9,0-1.806,0-2.709" transform="translate(-14.432 -367.657)" fill="#deeffb"/>
        <path id="Trazado_215050" data-name="Trazado 215050" d="M79.507,349.986H18.821c-1.189,0-1.191,0-1.191-1.161,0-5.218.017-10.437-.016-15.655-.005-.831.164-1.144,1.08-1.142q29.771.039,59.542.02c1.269,0,1.27,0,1.27,1.268q0,7.737,0,15.474v1.2m-29.324-8.966c0-1.024.012-2.049,0-3.073a1.611,1.611,0,1,0-3.206,0q-.03,3.072.006,6.145a1.609,1.609,0,1,0,3.2,0c.019-1.024,0-2.048,0-3.073m11.386-.035c0-.994.011-1.988,0-2.982a1.652,1.652,0,0,0-1.59-1.826,1.677,1.677,0,0,0-1.615,1.813q-.027,3.027,0,6.054a1.7,1.7,0,0,0,1.6,1.832,1.675,1.675,0,0,0,1.6-1.819c.014-1.024,0-2.048,0-3.072m-22.782.025h.006c0-1.024.014-2.048,0-3.072a1.6,1.6,0,1,0-3.2-.059q-.05,3.161.01,6.324a1.594,1.594,0,1,0,3.181-.031c.024-1.053.005-2.108.005-3.162" transform="translate(-14.426 -271.936)" fill="#deeffb"/>
        <path id="Trazado_215051" data-name="Trazado 215051" d="M17.646,240.551c0-5.291.011-10.416-.012-15.541,0-.755.427-.714.935-.714q11.218.007,22.436,0H79.475v16.252Zm21.18-8.512h-.008q0-1.264,0-2.527c0-.06,0-.121,0-.181a1.616,1.616,0,0,0-1.589-1.719,1.643,1.643,0,0,0-1.619,1.7q-.033,2.708.006,5.416a1.612,1.612,0,1,0,3.209.015c.025-.9.005-1.805.005-2.708m22.771-.026c0-.842.009-1.685,0-2.527a1.67,1.67,0,0,0-1.636-1.866,1.652,1.652,0,0,0-1.592,1.82q-.027,2.617,0,5.235a1.679,1.679,0,0,0,1.6,1.829c.949.019,1.616-.737,1.632-1.873.012-.872,0-1.745,0-2.617m-11.386,0c0-.872.015-1.744,0-2.616a1.608,1.608,0,0,0-1.536-1.769,1.632,1.632,0,0,0-1.688,1.726q-.044,2.705,0,5.411a1.619,1.619,0,1,0,3.225-.047c.017-.9,0-1.8,0-2.706" transform="translate(-14.442 -183.702)" fill="#deeffb"/>
        <rect id="Rect치ngulo_54051" data-name="Rect치ngulo 54051" width="11.28" height="11.327" transform="translate(3.275 17.071)" fill="url(#linear-gradient)"/>
        <path id="Trazado_215052" data-name="Trazado 215052" d="M453.546,363.975h11.324V375.3c-.294.019-.583.053-.872.054-3.2,0-6.392-.018-9.588.017-.709.008-.932-.182-.924-.911.038-3.256.015-6.513.017-9.769,0-.206.024-.413.043-.717" transform="translate(-371.411 -298.101)" fill="url(#linear-gradient)"/>
        <path id="Trazado_215053" data-name="Trazado 215053" d="M191.931,43.561c0,1.634,0,3.108,0,4.581,0,1.416.017,2.833,0,4.249a1.678,1.678,0,0,1-1.582,1.755,1.716,1.716,0,0,1-1.626-1.724c0-.03,0-.06,0-.09,0-3.315-.011-6.63.006-9.944.007-1.436.607-2.019,2.051-2.023q5.288-.015,10.577,0c1.208,0,1.992.68,1.968,1.65-.023.941-.762,1.537-1.959,1.541-2.712.009-5.424,0-8.136,0h-1.295" transform="translate(-154.56 -33.053)" fill="#1a1818"/>
        <path id="Trazado_215054" data-name="Trazado 215054" d="M242.7,476.217c0-.843-.013-1.686,0-2.529a1.673,1.673,0,0,1,1.586-1.83,1.63,1.63,0,0,1,1.622,1.781q.026,2.664,0,5.328a1.637,1.637,0,0,1-1.572,1.751,1.675,1.675,0,0,1-1.634-1.7c0-.06,0-.12,0-.181q0-1.309,0-2.619" transform="translate(-198.771 -386.458)" fill="#1a1818"/>
        <path id="Trazado_215055" data-name="Trazado 215055" d="M179.787,476.263c0-.874-.014-1.747,0-2.621a1.613,1.613,0,1,1,3.2.023q.019,2.621,0,5.241a1.652,1.652,0,0,1-1.6,1.8,1.692,1.692,0,0,1-1.605-1.827c-.011-.451,0-.9,0-1.355,0-.422,0-.843,0-1.265" transform="translate(-147.242 -386.449)" fill="#1a1818"/>
        <path id="Trazado_215056" data-name="Trazado 215056" d="M120.052,476.244c0,.9.017,1.806,0,2.709a1.6,1.6,0,1,1-3.193.037q-.055-2.753.008-5.507a1.593,1.593,0,1,1,3.182.053c.021.9,0,1.806.006,2.709" transform="translate(-95.686 -386.436)" fill="#1a1818"/>
        <path id="Trazado_215057" data-name="Trazado 215057" d="M182.981,359.815c0,1.024.016,2.049,0,3.073a1.609,1.609,0,1,1-3.2,0q-.038-3.072-.006-6.145a1.611,1.611,0,1,1,3.206,0c.015,1.024,0,2.048,0,3.073" transform="translate(-147.224 -290.73)" fill="#1a1818"/>
        <path id="Trazado_215058" data-name="Trazado 215058" d="M245.9,359.765c0,1.024.011,2.048,0,3.072a1.675,1.675,0,0,1-1.6,1.819,1.7,1.7,0,0,1-1.6-1.832q-.025-3.027,0-6.054a1.677,1.677,0,0,1,1.615-1.813,1.652,1.652,0,0,1,1.59,1.826c.014.994,0,1.988,0,2.982" transform="translate(-198.761 -290.715)" fill="#1a1818"/>
        <path id="Trazado_215059" data-name="Trazado 215059" d="M120.029,359.8c0,1.054.019,2.109-.005,3.162a1.594,1.594,0,1,1-3.181.031q-.06-3.161-.01-6.324a1.6,1.6,0,1,1,3.2.059c.018,1.024,0,2.048,0,3.072Z" transform="translate(-95.669 -290.727)" fill="#1a1818"/>
        <path id="Trazado_215060" data-name="Trazado 215060" d="M120.085,247.041c0,.9.02,1.806-.005,2.708a1.612,1.612,0,1,1-3.208-.015q-.041-2.708-.006-5.416a1.643,1.643,0,0,1,1.619-1.7,1.616,1.616,0,0,1,1.589,1.719c0,.06,0,.12,0,.18q0,1.264,0,2.528h.008" transform="translate(-95.702 -198.704)" fill="#1a1818"/>
        <path id="Trazado_215061" data-name="Trazado 215061" d="M245.861,247.055c0,.873.009,1.745,0,2.617-.016,1.137-.683,1.893-1.632,1.873a1.679,1.679,0,0,1-1.6-1.829q-.022-2.617,0-5.235a1.652,1.652,0,0,1,1.592-1.82,1.67,1.67,0,0,1,1.636,1.866c.011.842,0,1.685,0,2.527" transform="translate(-198.708 -198.744)" fill="#1a1818"/>
        <path id="Trazado_215062" data-name="Trazado 215062" d="M182.929,247.078c0,.9.014,1.8,0,2.706a1.619,1.619,0,1,1-3.225.047q-.039-2.705,0-5.411a1.632,1.632,0,0,1,1.688-1.726,1.608,1.608,0,0,1,1.536,1.769c.019.871,0,1.744,0,2.616" transform="translate(-147.161 -198.768)" fill="#1a1818"/>
      </g>
    </g>
  </g>
</svg>
