<svg xmlns="http://www.w3.org/2000/svg" xmlns:xlink="http://www.w3.org/1999/xlink" width="110.613" height="127.641" viewBox="0 0 110.613 127.641">
  <defs>
    <clipPath id="clip-path">
      <rect id="Rectángulo_55944" data-name="Rectángulo 55944" width="110.613" height="127.64" fill="#12263f"/>
    </clipPath>
    <linearGradient id="linear-gradient" x1="0.5" x2="0.5" y2="1" gradientUnits="objectBoundingBox">
      <stop offset="0" stop-color="#f5f5f5"/>
      <stop offset="0.25" stop-color="#f5f5f5"/>
      <stop offset="1" stop-color="#a7b3cf"/>
    </linearGradient>
    <linearGradient id="linear-gradient-2" x1="0.5" x2="0.5" y2="1" gradientUnits="objectBoundingBox">
      <stop offset="0" stop-color="#2a9d8d"/>
      <stop offset="1" stop-color="#43a99b"/>
    </linearGradient>
  </defs>
  <g id="Grupo_175164" data-name="Grupo 175164" transform="translate(-6809.031 8042.183)">
    <g id="Grupo_175117" data-name="Grupo 175117" transform="translate(6809.031 -8042.183)">
      <g id="Grupo_175116" data-name="Grupo 175116" clip-path="url(#clip-path)">
        <path id="Trazado_217398" data-name="Trazado 217398" d="M5.213,127.64c-2.669-.861-4.589-2.446-5.1-5.354A10.11,10.11,0,0,1,0,120.55Q0,63.841,0,7.132C0,2.6,2.58,0,7.082,0Q38.288,0,69.494,0c4.482,0,7.034,2.538,7.042,7.013q.015,8.6,0,17.2v1.2H72.286V24.027q0-8.475,0-16.951c0-2.155-.675-2.825-2.825-2.828-3.779,0-7.558.033-11.336-.025-.938-.014-1.314.281-1.476,1.185-.226,1.263-.579,2.5-.905,3.748a4.272,4.272,0,0,1-4.563,3.583q-12.893.018-25.787,0a4.2,4.2,0,0,1-4.507-3.47c-.439-1.64-.843-3.289-1.282-5.01-4.466,0-8.9-.031-13.342.021a1.993,1.993,0,0,0-1.976,1.9,8.852,8.852,0,0,0-.036,1.368q0,56.273,0,112.546c0,2.737.555,3.3,3.267,3.3h61.29c3.026,0,3.424-.392,3.483-3.425,0-.2.024-.409.043-.717h4.04a6.6,6.6,0,0,1-4.594,8.176,1.2,1.2,0,0,0-.285.213ZM24.049,4.3c.244,1.041.516,1.993.68,2.964.156.919.536,1.262,1.544,1.256,8.046-.049,16.092-.027,24.138-.03.364,0,.727-.035,1.12-.055l1-4.135Z" transform="translate(0 0)" fill="#12263f"/>
        <path id="Trazado_217399" data-name="Trazado 217399" d="M187.312,168.708a3.132,3.132,0,0,1-2.565,1.687c-2.176.3-4.349.658-6.5,1.092a1.95,1.95,0,0,0-1.189.955,47.119,47.119,0,0,0-1.9,4.589,1.952,1.952,0,0,0,.15,1.52c1.262,1.9,2.63,3.732,3.948,5.6,1,1.409.936,2.32-.258,3.521q-4.172,4.2-8.369,8.372a2.266,2.266,0,0,1-3.42.278c-1.862-1.32-3.737-2.625-5.561-4a1.508,1.508,0,0,0-1.793-.134c-1.461.687-2.993,1.221-4.452,1.911a1.812,1.812,0,0,0-.92,1.083c-.419,2.116-.735,4.252-1.074,6.383-.358,2.25-.932,2.758-3.179,2.76q-5.606,0-11.212,0c-1.872,0-2.5-.549-2.82-2.414-.38-2.208-.792-4.412-1.115-6.629a1.391,1.391,0,0,0-1.064-1.3c-1.52-.541-2.976-1.262-4.5-1.8a1.964,1.964,0,0,0-1.527.122c-1.935,1.286-3.794,2.685-5.7,4.021a2.262,2.262,0,0,1-3.42-.291q-4.2-4.174-8.368-8.373c-1.216-1.224-1.266-2.064-.242-3.512,1.294-1.831,2.578-3.669,3.918-5.466a1.456,1.456,0,0,0,.186-1.768,41.659,41.659,0,0,1-1.8-4.362,1.491,1.491,0,0,0-1.386-1.139c-2.3-.323-4.587-.73-6.871-1.15-1.529-.281-2.05-.9-2.059-2.472q-.034-6.045,0-12.09c.01-1.593.589-2.2,2.2-2.477,2.248-.387,4.491-.809,6.748-1.133a1.48,1.48,0,0,0,1.372-1.14,46.986,46.986,0,0,1,1.8-4.365,1.4,1.4,0,0,0-.118-1.669c-1.389-1.864-2.728-3.766-4.065-5.668-.932-1.326-.875-2.177.252-3.315q4.254-4.293,8.546-8.548a2.131,2.131,0,0,1,3.218-.259c1.938,1.357,3.867,2.728,5.768,4.137a1.32,1.32,0,0,0,1.564.117c1.5-.695,3.075-1.235,4.576-1.932a1.789,1.789,0,0,0,.9-1.089c.458-2.277.814-4.575,1.206-6.865.289-1.687.9-2.271,2.547-2.281q5.98-.037,11.96,0c1.638.009,2.263.527,2.556,2.128.418,2.286.8,4.578,1.142,6.877a1.415,1.415,0,0,0,1.069,1.305,45.886,45.886,0,0,1,4.475,1.854,1.389,1.389,0,0,0,1.662-.171c1.8-1.334,3.637-2.621,5.463-3.921,1.51-1.074,2.325-1.027,3.607.249q4.152,4.13,8.282,8.283c1.2,1.208,1.279,2.124.3,3.52-1.314,1.868-2.622,3.74-3.99,5.568a1.418,1.418,0,0,0-.143,1.684c.684,1.462,1.305,2.959,1.857,4.475a1.287,1.287,0,0,0,1.2.992c2.176.308,4.331.761,6.508,1.061a3.28,3.28,0,0,1,2.608,1.626ZM168.45,131.534c-1.923,1.375-3.9,2.75-5.826,4.18a2.812,2.812,0,0,1-3.229.2,51.5,51.5,0,0,0-6.52-2.721,3.094,3.094,0,0,1-2.44-2.872c-.254-1.974-.683-3.925-.947-5.9-.1-.752-.4-.965-1.11-.956-2.407.03-4.816.043-7.223-.007-.817-.017-1.068.325-1.177,1.061-.3,2.052-.706,4.089-.992,6.142a2.776,2.776,0,0,1-2.109,2.445,57.23,57.23,0,0,0-6.529,2.7,3.145,3.145,0,0,1-3.766-.3c-1.826-1.409-3.748-2.695-5.516-3.953l-6.5,6.52c1.335,1.873,2.7,3.85,4.135,5.78a2.834,2.834,0,0,1,.236,3.229c-1.05,2.245-2,4.545-2.846,6.875a2.734,2.734,0,0,1-2.37,2.035c-2.092.307-4.172.7-6.264,1-.709.1-.985.373-.973,1.115.04,2.45.03,4.9.005,7.351-.006.656.184.939.887,1.037,2.094.291,4.171.7,6.263,1.014a2.864,2.864,0,0,1,2.5,2.212,55.133,55.133,0,0,0,2.7,6.533,3.006,3.006,0,0,1-.236,3.551c-1.423,1.874-2.743,3.827-4.061,5.684l6.518,6.479c1.894-1.342,3.907-2.723,5.866-4.175a2.734,2.734,0,0,1,3.111-.227c2.248,1.042,4.546,1.99,6.873,2.842A2.809,2.809,0,0,1,139,192.876c.336,2.376.785,4.737,1.2,7.193,2.9,0,5.719.019,8.534-.034.242,0,.63-.464.687-.763.395-2.078.761-4.164,1.054-6.258a2.99,2.99,0,0,1,2.353-2.668,44.357,44.357,0,0,0,6.3-2.6,3.118,3.118,0,0,1,3.764.242c1.829,1.41,3.748,2.7,5.465,3.927l6.568-6.5c-1.274-1.786-2.547-3.684-3.941-5.488a3.1,3.1,0,0,1-.275-3.758,42.853,42.853,0,0,0,2.6-6.3,3.046,3.046,0,0,1,2.777-2.393c2.054-.272,4.1-.63,6.132-1.026.313-.061.779-.515.785-.8.059-2.778.035-5.558.035-8.455-2.381-.4-4.7-.858-7.029-1.17a2.939,2.939,0,0,1-2.656-2.2c-.815-2.3-1.762-4.553-2.791-6.762a2.725,2.725,0,0,1,.181-3.113c1.455-1.965,2.841-3.981,4.2-5.9l-6.5-6.512" transform="translate(-76.698 -89.431)" fill="#12263f"/>
        <path id="Trazado_217400" data-name="Trazado 217400" d="M40.428,426.047a6.306,6.306,0,0,1,6.381,6.394,6.372,6.372,0,0,1-6.337,6.348,6.449,6.449,0,0,1-6.411-6.429,6.376,6.376,0,0,1,6.367-6.312m2.11,6.313a2.04,2.04,0,0,0-2.161-2.054,2.116,2.116,0,0,0-2.048,2.075,2.178,2.178,0,0,0,2.13,2.147,2.108,2.108,0,0,0,2.079-2.168" transform="translate(-25.555 -319.65)" fill="#12263f"/>
        <path id="Trazado_217401" data-name="Trazado 217401" d="M113.587,428.365l2.982,2.928c-1.475,1.539-2.913,3.061-4.386,4.55a1.4,1.4,0,0,1-.895.379c-2.885.028-5.769.017-8.728.017v-4.207c2.069,0,4.124-.044,6.176.02a2.609,2.609,0,0,0,2.276-.937c.8-.942,1.691-1.813,2.575-2.75" transform="translate(-76.948 -321.389)" fill="#12263f"/>
        <path id="Trazado_217402" data-name="Trazado 217402" d="M47.081,119.543c0,1.213.037,2.365-.03,3.511a.933.933,0,0,1-.639.646c-3.967.04-7.935.029-12,.029v-4.186Z" transform="translate(-25.818 -89.689)" fill="#12263f"/>
        <path id="Trazado_217403" data-name="Trazado 217403" d="M47.011,153.707c.373,4.184.373,4.184-3.57,4.184H34.422v-4.184Z" transform="translate(-25.826 -115.322)" fill="#12263f"/>
        <path id="Trazado_217404" data-name="Trazado 217404" d="M114.6,124.342l-3.231,3.085c-.8-.9-1.687-1.826-2.5-2.816a2.409,2.409,0,0,0-2.182-.89c-1.358.063-2.72.016-4.147.016v-4.184c2.285,0,4.511-.026,6.736.025a1.844,1.844,0,0,1,1.077.554c1.4,1.349,2.771,2.739,4.246,4.209" transform="translate(-76.933 -89.692)" fill="#12263f"/>
        <rect id="Rectángulo_55940" data-name="Rectángulo 55940" width="4.086" height="4.092" transform="translate(23.462 19.233)" fill="#12263f"/>
        <rect id="Rectángulo_55941" data-name="Rectángulo 55941" width="4.055" height="4.119" transform="translate(32.002 19.263)" fill="#12263f"/>
        <rect id="Rectángulo_55942" data-name="Rectángulo 55942" width="4.081" height="4.102" transform="translate(40.488 19.251)" fill="#12263f"/>
        <rect id="Rectángulo_55943" data-name="Rectángulo 55943" width="4.052" height="4.129" transform="translate(49.003 19.244)" fill="#12263f"/>
        <path id="Trazado_217405" data-name="Trazado 217405" d="M96.3,17.233h28.487l-1,4.135c-.393.02-.756.055-1.12.055-8.046,0-16.092-.019-24.138.03-1.008.006-1.388-.337-1.544-1.256-.165-.971-.437-1.923-.68-2.964" transform="translate(-72.252 -12.929)" fill="url(#linear-gradient)"/>
        <path id="Trazado_217406" data-name="Trazado 217406" d="M181.232,144.334l6.5,6.512c-1.362,1.92-2.747,3.937-4.2,5.9a2.726,2.726,0,0,0-.181,3.113c1.029,2.209,1.976,4.466,2.791,6.763a2.939,2.939,0,0,0,2.656,2.2c2.334.312,4.649.766,7.03,1.169,0,2.9.023,5.677-.036,8.456-.006.281-.472.735-.785.8-2.034.4-4.079.754-6.133,1.026a3.047,3.047,0,0,0-2.777,2.393,42.841,42.841,0,0,1-2.6,6.3,3.1,3.1,0,0,0,.275,3.759c1.394,1.8,2.667,3.7,3.941,5.488l-6.568,6.5c-1.717-1.225-3.636-2.517-5.465-3.927a3.118,3.118,0,0,0-3.764-.241,44.352,44.352,0,0,1-6.3,2.6,2.989,2.989,0,0,0-2.353,2.668c-.292,2.095-.659,4.18-1.054,6.258-.057.3-.445.758-.687.763-2.815.054-5.631.034-8.534.034-.417-2.457-.867-4.817-1.2-7.194a2.809,2.809,0,0,0-2.091-2.464c-2.327-.853-4.625-1.8-6.873-2.842a2.734,2.734,0,0,0-3.111.227c-1.96,1.451-3.972,2.832-5.866,4.175l-6.518-6.479c1.319-1.857,2.638-3.81,4.061-5.684a3.006,3.006,0,0,0,.236-3.551,55.111,55.111,0,0,1-2.7-6.533,2.865,2.865,0,0,0-2.5-2.212c-2.092-.312-4.169-.723-6.262-1.014-.7-.1-.894-.381-.887-1.037.024-2.45.034-4.9-.005-7.351-.012-.743.264-1.012.973-1.116,2.092-.3,4.172-.7,6.264-1a2.733,2.733,0,0,0,2.37-2.035c.844-2.331,1.8-4.63,2.846-6.875a2.834,2.834,0,0,0-.236-3.23c-1.431-1.93-2.8-3.907-4.135-5.78l6.5-6.521c1.768,1.258,3.69,2.543,5.516,3.953a3.145,3.145,0,0,0,3.766.3,57.333,57.333,0,0,1,6.53-2.7,2.776,2.776,0,0,0,2.109-2.445c.286-2.054.689-4.091.992-6.142.109-.736.36-1.077,1.177-1.061,2.407.049,4.816.037,7.223.006.711-.009,1.009.2,1.11.956.265,1.973.693,3.924.947,5.9a3.094,3.094,0,0,0,2.44,2.872,51.5,51.5,0,0,1,6.52,2.721,2.811,2.811,0,0,0,3.229-.2c1.931-1.43,3.9-2.8,5.826-4.18m-23.648,55.757a25.517,25.517,0,1,0-25.542-25.355,25.564,25.564,0,0,0,25.542,25.355" transform="translate(-89.48 -102.231)" fill="#eeac3a"/>
        <path id="Trazado_217407" data-name="Trazado 217407" d="M55.361,445.152a2.108,2.108,0,0,1-2.079,2.168,2.178,2.178,0,0,1-2.13-2.147A2.116,2.116,0,0,1,53.2,443.1a2.04,2.04,0,0,1,2.161,2.054" transform="translate(-38.378 -332.442)" fill="#7f4fc7"/>
        <path id="Trazado_217408" data-name="Trazado 217408" d="M195.974,238.538a25.517,25.517,0,1,1,25.475-25.58,25.506,25.506,0,0,1-25.475,25.58m-21.073-23.3c.492,9.386,9.56,20.015,23.013,18.963,9.723-.76,20-10.924,18.968-19.012l-1.752-.117v-4.124l2.093-.184-1.786-6.5-1.92.975-2.068-3.6,1.815-1.172-4.827-4.789-1.176,1.79-3.557-2.081.944-1.946-6.506-1.735c-.059.855-.1,1.418-.142,2.059h-4.125l-.166-2.061-6.54,1.765.985,1.928-3.588,2.083-1.2-1.808-4.776,4.833,1.8,1.137-2.092,3.6-1.927-.987-1.751,6.545,2.052.181v4.111l-1.775.147" transform="translate(-127.87 -140.677)" fill="#12263f"/>
        <path id="Trazado_217409" data-name="Trazado 217409" d="M187.5,227.836l1.776-.147v-4.111l-2.051-.181,1.751-6.545,1.927.987,2.092-3.6-1.8-1.137,4.776-4.833,1.2,1.808,3.588-2.082-.985-1.928,6.54-1.765.166,2.061H210.6c.044-.64.083-1.2.142-2.059l6.506,1.735-.944,1.946,3.557,2.081,1.176-1.79,4.828,4.789-1.815,1.173,2.068,3.6,1.921-.975,1.786,6.5-2.093.184v4.125l1.752.117c1.033,8.088-9.246,18.252-18.969,19.012-13.453,1.052-22.521-9.577-23.013-18.963M217.457,213.6c-1.843,1.866-3.694,3.711-5.505,5.6a1.249,1.249,0,0,1-1.5.389,6.255,6.255,0,0,0-7.426,2.788,6.372,6.372,0,0,0,8.729,8.723,6.25,6.25,0,0,0,2.83-7.3,1.431,1.431,0,0,1,.453-1.712c1.842-1.783,3.639-3.611,5.473-5.443l-3.057-3.04M198,240.419h21.1v-4.06H197.9c0,1.208,0,2.325,0,3.441a4.327,4.327,0,0,0,.1.619m10.445-29.638c-9.676-.009-15.341,8.876-14.619,14.757h3.97c.705-6.421,4.28-9.95,10.649-10.663Z" transform="translate(-140.466 -153.281)" fill="url(#linear-gradient-2)"/>
        <path id="Trazado_217410" data-name="Trazado 217410" d="M262.328,241.539l3.057,3.04c-1.834,1.831-3.631,3.66-5.473,5.442a1.431,1.431,0,0,0-.454,1.712,6.25,6.25,0,0,1-2.83,7.3,6.372,6.372,0,0,1-8.729-8.723,6.254,6.254,0,0,1,7.426-2.788,1.249,1.249,0,0,0,1.5-.39c1.811-1.884,3.663-3.729,5.505-5.6m-6.811,11.972a2.106,2.106,0,0,0-2.194-2.048,2.031,2.031,0,0,0-2.018,2.189,2.11,2.11,0,0,0,2.1,2.021,2.181,2.181,0,0,0,2.114-2.162" transform="translate(-185.337 -181.219)" fill="#12263f"/>
        <path id="Trazado_217411" data-name="Trazado 217411" d="M230.088,336.729a4.332,4.332,0,0,1-.1-.619c-.009-1.117,0-2.233,0-3.441h21.2v4.06Z" transform="translate(-172.552 -249.591)" fill="#12263f"/>
        <path id="Trazado_217412" data-name="Trazado 217412" d="M228.112,230.249v4.095c-6.369.712-9.944,4.241-10.649,10.663h-3.97c-.722-5.881,4.943-14.766,14.619-14.757" transform="translate(-160.131 -172.749)" fill="#12263f"/>
        <path id="Trazado_217413" data-name="Trazado 217413" d="M268.363,283.322a2.181,2.181,0,0,1-2.114,2.162,2.11,2.11,0,0,1-2.1-2.021,2.031,2.031,0,0,1,2.018-2.189,2.106,2.106,0,0,1,2.194,2.048" transform="translate(-198.183 -211.03)" fill="url(#linear-gradient)"/>
      </g>
    </g>
  </g>
</svg>
