<svg xmlns="http://www.w3.org/2000/svg" xmlns:xlink="http://www.w3.org/1999/xlink" width="194.101" height="194.101" viewBox="0 0 194.101 194.101">
  <defs>
    <filter id="Trazado_150700" x="0" y="0" width="194.101" height="194.101" filterUnits="userSpaceOnUse">
      <feOffset dx="5" dy="5" input="SourceAlpha"/>
      <feGaussianBlur stdDeviation="12.5" result="blur"/>
      <feFlood flood-opacity="0.161"/>
      <feComposite operator="in" in2="blur"/>
      <feComposite in="SourceGraphic"/>
    </filter>
    <clipPath id="clip-path">
      <rect id="Rectángulo_52511" data-name="Rectángulo 52511" width="76.775" height="76.689" fill="#12263f"/>
    </clipPath>
  </defs>
  <g id="Grupo_175158" data-name="Grupo 175158" transform="translate(-707.156 -4914.614)">
    <g id="Grupo_145688" data-name="Grupo 145688" transform="translate(723.535 4930.993)">
      <path id="Trazado_150699" data-name="Trazado 150699" d="M123.864,17.334A75.669,75.669,0,1,1,17.333,27.479a75.668,75.668,0,0,1,106.53-10.145" transform="translate(0 151.343) rotate(-90)" fill="#eeac3a"/>
      <g transform="matrix(1, 0, 0, 1, -16.38, -16.38)" filter="url(#Trazado_150700)">
        <path id="Trazado_150700-2" data-name="Trazado 150700" d="M97.476,13.641a59.549,59.549,0,1,1-83.836,7.984,59.549,59.549,0,0,1,83.836-7.984" transform="translate(32.5 151.6) rotate(-90)" fill="#fff"/>
      </g>
      <g id="Grupo_171259" data-name="Grupo 171259" transform="translate(37.284 37.326)">
        <g id="Grupo_171258" data-name="Grupo 171258" clip-path="url(#clip-path)">
          <path id="Trazado_212264" data-name="Trazado 212264" d="M64.3,38.516c1.066,1.408,2.028,2.747,3.062,4.028a13.73,13.73,0,0,1,2.985,8.814c.044,7.77.019,15.541.011,23.311,0,1.608-.422,2.013-2.062,2.014q-21.8.007-43.6-.005a6.319,6.319,0,0,1-6.661-5.516c-.146-.88-.6-.877-1.223-.876q-5.519.006-11.039,0C2.09,70.277.05,68.236.047,64.58c0-3.035.129-6.076-.039-9.1a5.344,5.344,0,0,1,5.628-5.735c3.22-.009,6.439,0,9.659-.006,1.936-.006,2.628-.709,2.629-2.631q0-6.9,0-13.793c0-1.852-.842-2.681-2.759-2.685-3.266-.008-6.531.006-9.8,0A5.009,5.009,0,0,1,.054,25.265Q.041,15.333.049,5.4A5.045,5.045,0,0,1,5.474,0q12.35-.011,24.7,0c3.118,0,4.8,1.333,5.59,4.392a6.845,6.845,0,0,0,.248.639H51.684c3.271,0,5.624,1.361,6.882,4.49a1.574,1.574,0,0,0,1.222.653c3.771.05,7.543.024,11.314.031,3.519.007,5.644,2.113,5.657,5.659q.03,8.414,0,16.828c-.013,3.53-2.168,5.631-5.7,5.634q-3.173,0-6.347.016a1.88,1.88,0,0,0-.416.167M50.847,73.96l-1.122-7.541H39.737c-.376-2.606-.376-2.606,2.058-2.606,2.714,0,5.429-.052,8.141.02,1.426.038,1.294-1.221,1.769-1.938.137-.207-.185-.883-.469-1.177-1.788-1.853-3.651-3.633-5.436-5.489a5.782,5.782,0,0,1,7.664-8.641c.913.719,1.74,1.549,2.706,2.417V39.528c-1.848,1.233-3.51,2.37-5.2,3.46-1.363.878-2.317.384-2.394-1.24-.052-1.093-.01-2.191-.01-3.249-3.971-1.063-5.151-2.608-5.153-6.609q0-6.9-.007-13.794c0-.86,0-1.721,0-2.734H38.46V12.714c1.571,0,3.042.081,4.5-.037a3.243,3.243,0,0,0,1.831-.815,5.2,5.2,0,0,1,3.66-1.645q2.484-.005,4.968-.006h2.549a3.872,3.872,0,0,0-3.758-2.5q-7.727,0-15.455.006a7.77,7.77,0,0,0-.89.112V9.38c0,5.15-.063,10.3.021,15.449.061,3.713-2.656,6.1-5.8,5.824-1.444-.129-2.908-.022-4.436-.022a26.017,26.017,0,0,1-.035,3.22,2.568,2.568,0,0,1-.82,1.7c-.354.229-1.181-.079-1.7-.342a29.838,29.838,0,0,1-2.546-1.62v13.3c.965-.628,1.793-1.182,2.635-1.712,1.429-.9,2.387-.409,2.455,1.283.042,1.042.008,2.088.008,3.278,1.578,0,2.992-.017,4.405,0,3.71.053,5.791,2.151,5.807,5.856.012,2.9.006,5.793,0,8.69,0,3.967-2.051,5.994-6.049,6q-4.612,0-9.234,0c.226,2.51,1.575,3.734,4.12,3.738q12.695.022,25.39-.006a7.606,7.606,0,0,0,.759-.059M22.977,32.027c0-.787,0-1.244,0-1.7.01-1.938.3-2.229,2.237-2.24,1.608-.009,3.217.014,4.825-.006,2.271-.029,3.148-.921,3.15-3.187q.007-9.439,0-18.879c0-2.628-.809-3.459-3.433-3.461q-11.855-.014-23.71,0c-2.568,0-3.446.9-3.448,3.5q-.007,9.3.009,18.6c0,2.547.858,3.4,3.386,3.413,3.262.012,6.526-.04,9.787.035a4.932,4.932,0,0,1,2.288.693c1.6.949,3.124,2.04,4.909,3.227m40.505,24.3-1.758,2.056c-.411-.393-.746-.7-1.068-1.024-2.829-2.825-5.63-5.678-8.491-8.47a3.194,3.194,0,0,0-5.394,1.358,3.446,3.446,0,0,0,1.142,3.482q2.974,2.972,5.947,5.946c1.453,1.454,1.456,1.456.353,3.232a9.9,9.9,0,0,0-.57,9.956,1.786,1.786,0,0,0,1.889,1.189c3.629-.069,7.261-.019,10.892-.024.395,0,.79-.059,1.205-.093.031-.277.067-.454.068-.631,0-7.581.041-15.162-.048-22.741a8.159,8.159,0,0,0-.949-3.956c-1.5-2.5-3.394-4.774-5.007-7.218-.761-1.153-1.66-1.19-2.855-.931,0,4.293-.019,8.515.029,12.736a2.113,2.113,0,0,0,.653,1.257c1.314,1.344,2.683,2.634,3.962,3.876M51.108,39.746C52.832,38.6,54.294,37.5,55.88,36.63a7,7,0,0,1,3.055-.912c3.9-.1,7.811-.038,11.717-.043,2.721,0,3.436-.7,3.44-3.386q.012-8.062,0-16.124c0-2.518-.861-3.4-3.38-3.4q-10.615-.021-21.231,0c-2.53,0-3.394.867-3.4,3.387q-.025,7.993-.011,15.986c0,2.774.541,3.352,3.316,3.538,1.137.076,1.827.511,1.733,1.783-.05.669-.009,1.346-.009,2.288m-28.131,8.7C21.187,49.625,19.7,50.7,18.116,51.6a5.605,5.605,0,0,1-2.523.771c-3.306.088-6.616.027-9.924.039-2.036.007-3.025.889-3.057,2.868q-.077,4.753,0,9.507c.034,1.944,1,2.837,2.932,2.839q12.406.015,24.812,0a2.489,2.489,0,0,0,2.827-2.766q.03-4.823,0-9.646a2.517,2.517,0,0,0-2.819-2.8c-1.562-.026-3.124-.006-4.687-.006-2.5,0-2.687-.185-2.7-2.62,0-.357,0-.713,0-1.341" transform="translate(0 0)" fill="#12263f"/>
          <path id="Trazado_212265" data-name="Trazado 212265" d="M104.577,94.115a7.606,7.606,0,0,1-.759.059q-12.7.01-25.39.006c-2.546,0-3.894-1.227-4.12-3.738q4.626,0,9.234,0c4,0,6.044-2.029,6.049-6,0-2.9.011-5.794,0-8.69-.015-3.705-2.1-5.8-5.807-5.856-1.413-.02-2.827,0-4.405,0,0-1.19.035-2.236-.008-3.278-.069-1.692-1.026-2.184-2.455-1.283-.842.531-1.67,1.084-2.635,1.712v-13.3a29.905,29.905,0,0,0,2.546,1.62c.517.264,1.344.571,1.7.342a2.568,2.568,0,0,0,.82-1.7,26.017,26.017,0,0,0,.035-3.22c1.528,0,2.992-.107,4.436.022,3.143.281,5.86-2.11,5.8-5.823-.084-5.149-.021-10.3-.021-15.449V27.981a7.777,7.777,0,0,1,.89-.113q7.727-.009,15.455-.005a3.871,3.871,0,0,1,3.758,2.5h-2.549q-2.484,0-4.968.006a5.2,5.2,0,0,0-3.66,1.646,3.241,3.241,0,0,1-1.83.815c-1.455.119-2.926.038-4.5.038v2.649h4.944c0,1.013,0,1.873,0,2.733q0,6.9.007,13.794c0,4,1.182,5.546,5.153,6.609,0,1.058-.042,2.156.01,3.249.077,1.623,1.031,2.118,2.394,1.24,1.692-1.09,3.353-2.227,5.2-3.46v9.477c-.965-.868-1.792-1.7-2.706-2.417a5.782,5.782,0,0,0-7.664,8.641c1.785,1.856,3.649,3.636,5.436,5.489.284.294.606.97.469,1.177-.475.718-.343,1.977-1.769,1.939-2.712-.072-5.427-.02-8.141-.02-2.434,0-2.434,0-2.058,2.606h9.988l1.122,7.541m-11.189-4.66H90.841v2.107h2.548Z" transform="translate(-53.73 -20.155)" fill="#f6f6f6"/>
          <path id="Trazado_212266" data-name="Trazado 212266" d="M29.767,38.682c-1.785-1.187-3.3-2.278-4.909-3.227a4.932,4.932,0,0,0-2.288-.693c-3.261-.075-6.524-.023-9.787-.035-2.528-.009-3.381-.866-3.386-3.413q-.017-9.3-.009-18.6c0-2.6.88-3.5,3.448-3.5q11.855-.015,23.71,0c2.624,0,3.433.833,3.433,3.462q0,9.439,0,18.879c0,2.265-.879,3.157-3.15,3.187-1.608.021-3.216,0-4.825.006-1.941.011-2.226.3-2.237,2.24,0,.457,0,.914,0,1.7m.006-19.423a12.211,12.211,0,0,0-.042-2.784A8.491,8.491,0,0,0,28.413,13.4a4.332,4.332,0,0,0-4.7-1.421c-1.638.756-1.65,2.266-1.626,3.767,0,.092,0,.184,0,.276,0,2.352-1.016,3.346-3.413,3.347-.781,0-1.563.022-2.343,0-1.259-.043-1.861.5-1.848,1.8.03,3.077.036,6.155,0,9.232-.016,1.286.54,1.849,1.807,1.847,5.146-.01,10.292.026,15.438-.01a3.137,3.137,0,0,0,3.242-3.346c.023-1.377,0-2.756,0-4.134,0-4.667-.322-5.024-5.2-5.495" transform="translate(-6.79 -6.656)" fill="#ece5f7"/>
          <path id="Trazado_212267" data-name="Trazado 212267" d="M171.563,73.095c0-.942-.041-1.619.009-2.288.094-1.273-.6-1.707-1.733-1.783-2.775-.186-3.314-.764-3.316-3.538q-.006-7.993.011-15.986c.008-2.52.871-3.382,3.4-3.387q10.615-.019,21.231,0c2.519,0,3.377.883,3.38,3.4q.011,8.062,0,16.124c0,2.684-.719,3.382-3.44,3.386-3.906.005-7.814-.061-11.717.043a7,7,0,0,0-3.055.912c-1.585.874-3.047,1.972-4.771,3.116M180.545,52.2a5.915,5.915,0,0,0-1.009-.776,12.449,12.449,0,0,0-3.467-1.439c-2.293-.278-4.265,1.173-5.269,3.448a5.823,5.823,0,0,0,1.287,6.723c2.447,2.152,5.062,4.115,7.66,6.088a1.581,1.581,0,0,0,1.479.071,100.716,100.716,0,0,0,8.135-6.581c2.2-2.092,1.841-6.04-.359-8.234-2.112-2.106-5.005-2.1-7.561,0-.278.229-.569.444-.9.7" transform="translate(-120.455 -33.349)" fill="#e8e8e8"/>
          <path id="Trazado_212268" data-name="Trazado 212268" d="M29.7,175.132c0,.628,0,.985,0,1.341.016,2.436.206,2.62,2.7,2.621,1.562,0,3.125-.019,4.687.006a2.517,2.517,0,0,1,2.819,2.8q.026,4.823,0,9.646a2.489,2.489,0,0,1-2.827,2.766q-12.406.015-24.812,0c-1.929,0-2.9-.9-2.932-2.839q-.083-4.753,0-9.507c.032-1.979,1.021-2.861,3.057-2.868,3.308-.012,6.618.048,9.924-.039a5.612,5.612,0,0,0,2.523-.771c1.583-.908,3.072-1.979,4.862-3.155m-.065,7.925H12.1v2.283H29.639Zm7.969,4.932H22.325v2.619H37.608Zm-25.5,2.581h7.28v-2.608h-7.28Zm25.473-7.528H32.493v2.33h5.088Z" transform="translate(-6.727 -126.684)" fill="#deeffb"/>
          <rect id="Rectángulo_52505" data-name="Rectángulo 52505" width="2.548" height="2.107" transform="translate(37.111 69.3)" fill="#12263f"/>
          <path id="Trazado_212269" data-name="Trazado 212269" d="M43.095,25.9c4.877.471,5.2.828,5.2,5.495,0,1.378.018,2.756,0,4.134a3.137,3.137,0,0,1-3.242,3.346c-5.146.037-10.292,0-15.438.011-1.267,0-1.823-.561-1.807-1.847.038-3.077.033-6.155,0-9.232-.013-1.3.589-1.844,1.848-1.8.78.027,1.562,0,2.343,0,2.4,0,3.412-.995,3.414-3.347,0-.092,0-.184,0-.276-.024-1.5-.012-3.011,1.626-3.767a4.331,4.331,0,0,1,4.7,1.421,8.493,8.493,0,0,1,1.318,3.074,12.211,12.211,0,0,1,.042,2.784m-5.014-4.827a13.624,13.624,0,0,0,.012,1.755,4.162,4.162,0,0,1-1.706,4.207c-.343.258-.771.695-.78,1.058-.066,2.683-.036,5.367-.036,8.04H45.617c0-2.279.035-4.472-.044-6.66-.01-.274-.6-.731-.948-.754a28.885,28.885,0,0,0-3.99-.016c-1.128.08-1.51-.353-1.365-1.414.049-.356.048-.719.075-1.158l1.148-.206c.3-3.421-.189-4.448-2.413-4.851m-5.278,7.7H30.439v7.391H32.8Z" transform="translate(-20.111 -13.3)" fill="#12263f"/>
          <path id="Trazado_212270" data-name="Trazado 212270" d="M190.331,62.19c.327-.255.618-.469.9-.7,2.555-2.106,5.449-2.108,7.561,0,2.2,2.194,2.558,6.142.359,8.234a100.779,100.779,0,0,1-8.135,6.581,1.581,1.581,0,0,1-1.479-.071c-2.6-1.973-5.214-3.936-7.66-6.088a5.823,5.823,0,0,1-1.287-6.723c1-2.276,2.976-3.726,5.269-3.448a12.44,12.44,0,0,1,3.467,1.439,5.9,5.9,0,0,1,1.009.776m0,11.412c2.153-1.681,4.186-3.255,6.2-4.854a4.31,4.31,0,0,0,.809-.929,3.576,3.576,0,0,0-.456-4.524c-1.1-1.025-2.536-1.017-3.971.19-2.825,2.377-2.523,2.186-5.194-.04a2.858,2.858,0,0,0-3.428-.523,3.2,3.2,0,0,0-1.51,3.428,4.753,4.753,0,0,0,1.31,2.325c1.977,1.708,4.093,3.253,6.241,4.928" transform="translate(-130.241 -43.337)" fill="#12263f"/>
          <rect id="Rectángulo_52506" data-name="Rectángulo 52506" width="17.537" height="2.283" transform="translate(5.376 56.373)" fill="#12263f"/>
          <rect id="Rectángulo_52507" data-name="Rectángulo 52507" width="15.283" height="2.619" transform="translate(15.599 61.306)" fill="#12263f"/>
          <rect id="Rectángulo_52508" data-name="Rectángulo 52508" width="7.28" height="2.608" transform="translate(5.382 61.278)" fill="#12263f"/>
          <rect id="Rectángulo_52509" data-name="Rectángulo 52509" width="5.088" height="2.33" transform="translate(25.767 56.358)" fill="#12263f"/>
          <path id="Trazado_212271" data-name="Trazado 212271" d="M58.376,28.111c2.224.4,2.714,1.429,2.413,4.851l-1.148.206c-.027.439-.026.8-.075,1.158-.145,1.061.237,1.494,1.365,1.414a28.884,28.884,0,0,1,3.99.016c.346.024.938.48.948.754.078,2.189.044,4.382.044,6.66H55.866c0-2.673-.03-5.357.036-8.04.009-.364.437-.8.78-1.058a4.162,4.162,0,0,0,1.706-4.207,13.625,13.625,0,0,1-.012-1.755" transform="translate(-40.406 -20.334)" fill="#eeac3a"/>
          <rect id="Rectángulo_52510" data-name="Rectángulo 52510" width="2.364" height="7.391" transform="translate(10.329 15.476)" fill="#eeac3a"/>
          <path id="Trazado_212272" data-name="Trazado 212272" d="M197.264,80.506c-2.148-1.675-4.264-3.22-6.241-4.928a4.753,4.753,0,0,1-1.31-2.325,3.2,3.2,0,0,1,1.51-3.428,2.858,2.858,0,0,1,3.428.523c2.671,2.227,2.37,2.418,5.194.04,1.435-1.207,2.872-1.214,3.971-.19a3.576,3.576,0,0,1,.456,4.524,4.31,4.31,0,0,1-.809.929c-2.013,1.6-4.045,3.172-6.2,4.854" transform="translate(-137.17 -50.241)" fill="#7f4fc7"/>
        </g>
      </g>
    </g>
  </g>
</svg>
