<svg xmlns="http://www.w3.org/2000/svg" xmlns:xlink="http://www.w3.org/1999/xlink" width="360.524" height="348.964" viewBox="0 0 360.524 348.964">
  <defs>
    <filter id="Rectángulo_46669" x="19.122" y="20.189" width="255.091" height="328.774" filterUnits="userSpaceOnUse">
      <feOffset dy="3" input="SourceAlpha"/>
      <feGaussianBlur stdDeviation="3" result="blur"/>
      <feFlood flood-opacity="0.161"/>
      <feComposite operator="in" in2="blur"/>
      <feComposite in="SourceGraphic"/>
    </filter>
    <clipPath id="clip-path">
      <rect id="Rectángulo_53989" data-name="Rectángulo 53989" width="68.242" height="68.248" fill="#12263f"/>
    </clipPath>
  </defs>
  <g id="Grupo_175161" data-name="Grupo 175161" transform="translate(-182.738 -7582.525)">
    <g id="Grupo_166678" data-name="Grupo 166678" transform="translate(182.738 7582.525)">
      <g id="Grupo_166659" data-name="Grupo 166659" transform="translate(0 1.175)">
        <path id="Trazado_210944" data-name="Trazado 210944" d="M170.8,4171.759h-1.927a2.285,2.285,0,1,1,0-4.548H170.8a2.285,2.285,0,1,1,0,4.548Zm-21.2,0h-1.927a2.285,2.285,0,1,1,0-4.548h1.927a2.285,2.285,0,1,1,0,4.548Zm-21.2,0h-1.927a2.285,2.285,0,1,1,0-4.548h1.927a2.285,2.285,0,1,1,0,4.548Zm-21.2,0h-1.927a2.285,2.285,0,1,1,0-4.548h1.927a2.285,2.285,0,1,1,0,4.548Zm-21.2,0H84.066a2.285,2.285,0,1,1,0-4.548h1.927a2.285,2.285,0,1,1,0,4.548Zm-21.2,0H62.865a2.285,2.285,0,1,1,0-4.548h1.927a2.285,2.285,0,1,1,0,4.548Zm-21.2,0H41.665a2.285,2.285,0,1,1,0-4.548h1.927a2.285,2.285,0,1,1,0,4.548Zm-21.2,0H20.464a2.285,2.285,0,1,1,0-4.548h1.927a2.285,2.285,0,1,1,0,4.548Zm-21.2,0H-.736a2.4,2.4,0,0,1-2.506-2.274,2.4,2.4,0,0,1,2.506-2.274H1.191a2.285,2.285,0,1,1,0,4.548Zm-21.2,0h-1.927a2.4,2.4,0,0,1-2.506-2.274,2.4,2.4,0,0,1,2.506-2.274h1.927a2.4,2.4,0,0,1,2.506,2.274A2.4,2.4,0,0,1-20.01,4171.759Zm-21.2-.057c-.058,0-.116,0-.175-.006-.7-.043-1.406-.111-2.1-.2a2.321,2.321,0,0,1-2.125-2.573,2.479,2.479,0,0,1,2.835-1.929c.571.074,1.154.13,1.733.166a2.361,2.361,0,0,1,2.328,2.425A2.419,2.419,0,0,1-41.205,4171.7Zm219.1-.827a2.485,2.485,0,0,1-2.41-1.658,2.255,2.255,0,0,1,1.732-2.806c.559-.143,1.117-.306,1.658-.484a2.582,2.582,0,0,1,3.21,1.361,2.222,2.222,0,0,1-1.5,2.914c-.656.216-1.332.414-2.009.587A2.747,2.747,0,0,1,177.894,4170.875Zm-237.439-7.727a2.61,2.61,0,0,1-1.931-.823c-.448-.491-.88-1-1.285-1.519a2.143,2.143,0,0,1,.589-3.171,2.673,2.673,0,0,1,3.494.535c.335.428.692.85,1.062,1.254a2.133,2.133,0,0,1-.332,3.2A2.653,2.653,0,0,1-59.545,4163.148Zm253.474-4.041a2.705,2.705,0,0,1-1.17-.265,2.174,2.174,0,0,1-1.042-3.074c.271-.465.525-.943.757-1.424a2.609,2.609,0,0,1,3.3-1.171,2.2,2.2,0,0,1,1.29,3c-.281.583-.59,1.164-.919,1.728A2.552,2.552,0,0,1,193.929,4159.108Zm-259.475-13.919a2.4,2.4,0,0,1-2.506-2.274v-1.75a2.4,2.4,0,0,1,2.506-2.274,2.4,2.4,0,0,1,2.506,2.274v1.75A2.4,2.4,0,0,1-65.546,4145.188Zm262.5-4.873a2.4,2.4,0,0,1-2.506-2.274v-1.75a2.517,2.517,0,0,1,5.011,0v1.75A2.4,2.4,0,0,1,196.955,4140.315Zm-262.5-14.369a2.4,2.4,0,0,1-2.506-2.274v-1.75a2.4,2.4,0,0,1,2.506-2.274,2.4,2.4,0,0,1,2.506,2.274v1.75A2.4,2.4,0,0,1-65.546,4125.946Zm262.5-4.874a2.4,2.4,0,0,1-2.506-2.274v-1.75a2.517,2.517,0,0,1,5.011,0v1.75A2.4,2.4,0,0,1,196.955,4121.073Zm-262.5-14.369a2.4,2.4,0,0,1-2.506-2.274v-1.749a2.4,2.4,0,0,1,2.506-2.274,2.4,2.4,0,0,1,2.506,2.274v1.749A2.4,2.4,0,0,1-65.546,4106.7Zm262.5-4.873a2.4,2.4,0,0,1-2.506-2.274v-1.749a2.517,2.517,0,0,1,5.011,0v1.749A2.4,2.4,0,0,1,196.955,4101.831Zm-262.5-14.369a2.4,2.4,0,0,1-2.506-2.274v-1.749a2.4,2.4,0,0,1,2.506-2.274,2.4,2.4,0,0,1,2.506,2.274v1.749A2.4,2.4,0,0,1-65.546,4087.462Zm262.5-4.873a2.4,2.4,0,0,1-2.506-2.274v-1.749a2.517,2.517,0,0,1,5.011,0v1.749A2.4,2.4,0,0,1,196.955,4082.589Zm-262.5-14.369a2.4,2.4,0,0,1-2.506-2.274V4064.2a2.4,2.4,0,0,1,2.506-2.274,2.4,2.4,0,0,1,2.506,2.274v1.749A2.4,2.4,0,0,1-65.546,4068.219Zm262.5-4.873a2.4,2.4,0,0,1-2.506-2.274v-1.75a2.517,2.517,0,0,1,5.011,0v1.75A2.4,2.4,0,0,1,196.955,4063.346Zm-262.5-14.369a2.4,2.4,0,0,1-2.506-2.274v-1.749a2.4,2.4,0,0,1,2.506-2.274,2.4,2.4,0,0,1,2.506,2.274v1.749A2.4,2.4,0,0,1-65.546,4048.978Zm262.5-4.874a2.4,2.4,0,0,1-2.506-2.274v-1.749a2.517,2.517,0,0,1,5.011,0v1.749A2.4,2.4,0,0,1,196.955,4044.1Zm-262.5-14.369a2.4,2.4,0,0,1-2.506-2.274v-1.75a2.4,2.4,0,0,1,2.506-2.274,2.4,2.4,0,0,1,2.506,2.274v1.75A2.4,2.4,0,0,1-65.546,4029.735Zm262.5-4.874a2.4,2.4,0,0,1-2.506-2.274v-1.749a2.517,2.517,0,0,1,5.011,0v1.749A2.4,2.4,0,0,1,196.955,4024.862Zm-262.5-14.369a2.4,2.4,0,0,1-2.506-2.274v-1.749a2.4,2.4,0,0,1,2.506-2.274,2.4,2.4,0,0,1,2.506,2.274v1.749A2.4,2.4,0,0,1-65.546,4010.493Zm262.5-4.873a2.4,2.4,0,0,1-2.506-2.274V4001.6a2.517,2.517,0,0,1,5.011,0v1.749A2.4,2.4,0,0,1,196.955,4005.62Zm-262.5-14.369a2.4,2.4,0,0,1-2.506-2.274v-1.749a2.4,2.4,0,0,1,2.506-2.274,2.4,2.4,0,0,1,2.506,2.274v1.749A2.4,2.4,0,0,1-65.546,3991.251Zm262.5-4.873a2.4,2.4,0,0,1-2.506-2.274v-1.749a2.517,2.517,0,0,1,5.011,0v1.749A2.4,2.4,0,0,1,196.955,3986.378Zm-262.5-14.369a2.4,2.4,0,0,1-2.506-2.274v-1.75a2.4,2.4,0,0,1,2.506-2.274,2.4,2.4,0,0,1,2.506,2.274v1.75A2.4,2.4,0,0,1-65.546,3972.009Zm262.5-4.873a2.4,2.4,0,0,1-2.506-2.274v-1.75a2.517,2.517,0,0,1,5.011,0v1.75A2.4,2.4,0,0,1,196.955,3967.136Zm-262.5-14.369a2.4,2.4,0,0,1-2.506-2.274v-1.75a2.4,2.4,0,0,1,2.506-2.274,2.4,2.4,0,0,1,2.506,2.274v1.75A2.4,2.4,0,0,1-65.546,3952.767Zm262.5-4.873a2.4,2.4,0,0,1-2.506-2.274v-1.749a2.517,2.517,0,0,1,5.011,0v1.749A2.4,2.4,0,0,1,196.955,3947.894Zm-262.5-14.369a2.4,2.4,0,0,1-2.506-2.274V3929.5a2.4,2.4,0,0,1,2.506-2.274,2.4,2.4,0,0,1,2.506,2.274v1.749A2.4,2.4,0,0,1-65.546,3933.525Zm262.5-4.873a2.4,2.4,0,0,1-2.506-2.274v-1.749a2.517,2.517,0,0,1,5.011,0v1.749A2.4,2.4,0,0,1,196.955,3928.651Zm-262.5-14.369a2.4,2.4,0,0,1-2.506-2.274v-1.749a2.4,2.4,0,0,1,2.506-2.274,2.4,2.4,0,0,1,2.506,2.274v1.749A2.4,2.4,0,0,1-65.546,3914.282Zm262.5-4.873a2.4,2.4,0,0,1-2.506-2.274v-1.749a2.517,2.517,0,0,1,5.011,0v1.749A2.4,2.4,0,0,1,196.955,3909.409Zm-262.5-14.369a2.4,2.4,0,0,1-2.506-2.274v-1.749a2.4,2.4,0,0,1,2.506-2.274,2.4,2.4,0,0,1,2.506,2.274v1.749A2.4,2.4,0,0,1-65.546,3895.04Zm262.5-4.873a2.4,2.4,0,0,1-2.506-2.274v-.44c0-.394-.012-.793-.035-1.186a2.368,2.368,0,0,1,2.366-2.394,2.428,2.428,0,0,1,2.638,2.147c.028.474.043.956.043,1.432v.44A2.4,2.4,0,0,1,196.955,3890.167Zm-258.136-13.58a2.674,2.674,0,0,1-1.386-.381,2.149,2.149,0,0,1-.7-3.153c.389-.53.8-1.053,1.233-1.555a2.68,2.68,0,0,1,3.516-.4,2.137,2.137,0,0,1,.441,3.191c-.355.414-.7.846-1.019,1.284A2.581,2.581,0,0,1-61.181,3876.587Zm250.358-3.753a2.634,2.634,0,0,1-1.761-.657c-.41-.368-.842-.728-1.284-1.07a2.132,2.132,0,0,1-.281-3.206,2.686,2.686,0,0,1,3.532-.255c.535.414,1.058.85,1.555,1.3a2.129,2.129,0,0,1,.02,3.216A2.631,2.631,0,0,1,189.177,3872.834Zm-233.1-6.494a2.451,2.451,0,0,1-2.465-1.883,2.3,2.3,0,0,1,2.036-2.632c.692-.11,1.4-.2,2.092-.26a2.455,2.455,0,0,1,2.741,2.039,2.343,2.343,0,0,1-2.246,2.487c-.574.052-1.153.124-1.724.214A2.714,2.714,0,0,1-43.925,3866.34Zm213.911-.356h-1.927a2.285,2.285,0,1,1,0-4.548h1.927a2.285,2.285,0,1,1,0,4.548Zm-21.2,0h-1.927a2.285,2.285,0,1,1,0-4.548h1.927a2.285,2.285,0,1,1,0,4.548Zm-21.2,0h-1.927a2.285,2.285,0,1,1,0-4.548h1.927a2.285,2.285,0,1,1,0,4.548Zm-21.2,0h-1.927a2.285,2.285,0,1,1,0-4.548h1.927a2.285,2.285,0,1,1,0,4.548Zm-21.2,0H83.257a2.285,2.285,0,1,1,0-4.548h1.927a2.285,2.285,0,1,1,0,4.548Zm-21.2,0H62.056a2.285,2.285,0,1,1,0-4.548h1.927a2.285,2.285,0,1,1,0,4.548Zm-21.2,0H40.856a2.285,2.285,0,1,1,0-4.548h1.927a2.285,2.285,0,1,1,0,4.548Zm-21.2,0H19.655a2.285,2.285,0,1,1,0-4.548h1.927a2.285,2.285,0,1,1,0,4.548Zm-21.2,0H-1.546a2.4,2.4,0,0,1-2.506-2.274,2.4,2.4,0,0,1,2.506-2.274H.382a2.285,2.285,0,1,1,0,4.548Zm-21.2,0h-1.927a2.4,2.4,0,0,1-2.506-2.274,2.4,2.4,0,0,1,2.506-2.274h1.927a2.4,2.4,0,0,1,2.506,2.274A2.4,2.4,0,0,1-20.819,3865.984Z" transform="translate(68.052 -3861.436)" fill="#afafaf"/>
      </g>
      <path id="Trazado_210945" data-name="Trazado 210945" d="M419.852,3858.387h-115.9c-5.565,0-10.077,4.1-10.077,9.153V4161.9c0,5.055,4.512,9.152,10.077,9.152H419.872a10.383,10.383,0,0,0,8.391-4.084,8.71,8.71,0,0,0,.528-.839l86.094-150.851-86.1-151.938a8.793,8.793,0,0,0-.527-.843A10.378,10.378,0,0,0,419.852,3858.387Z" transform="translate(-154.362 -3858.387)" fill="#afafaf"/>
      <g id="Grupo_166662" data-name="Grupo 166662" transform="translate(27.742 26.949)" opacity="0.2" style="mix-blend-mode: multiply;isolation: isolate">
        <g id="Grupo_166661" data-name="Grupo 166661" transform="translate(0 0)">
          <g id="Grupo_166660" data-name="Grupo 166660">
            <rect id="Rectángulo_46668" data-name="Rectángulo 46668" width="237.091" height="260.283" rx="20"/>
          </g>
        </g>
      </g>
      <g id="Grupo_166672" data-name="Grupo 166672" transform="translate(28.122 26.189)">
        <g id="Grupo_166664" data-name="Grupo 166664">
          <g id="Grupo_166663" data-name="Grupo 166663" transform="translate(0)">
            <g transform="matrix(1, 0, 0, 1, -28.12, -26.19)" filter="url(#Rectángulo_46669)">
              <rect id="Rectángulo_46669-2" data-name="Rectángulo 46669" width="237.091" height="310.774" rx="20" transform="translate(28.12 26.19)" fill="#fff"/>
            </g>
          </g>
        </g>
        <g id="Grupo_166665" data-name="Grupo 166665" transform="translate(0.001 8.218)">
          <path id="Trazado_210946" data-name="Trazado 210946" d="M233.778,3970.342v257.174c0,12.534-9.523,22.691-21.273,22.691H26.175c-11.746,0-21.269-10.157-21.269-22.691V3970.342c0-12.534,9.523-22.691,21.269-22.691H212.5C224.255,3947.651,233.778,3957.809,233.778,3970.342Z" transform="translate(-4.906 -3947.651)" fill="#f7f7f7"/>
        </g>
      </g>
      <g id="Grupo_174688" data-name="Grupo 174688" transform="translate(108.387 45.278)">
        <g id="Grupo_174687" data-name="Grupo 174687" clip-path="url(#clip-path)">
          <path id="Trazado_214963" data-name="Trazado 214963" d="M31.321,70.426a11.731,11.731,0,0,1-1.977-.9,4.376,4.376,0,0,1-1.88-3.777c-.01-1.843-.013-3.687.006-5.531a1,1,0,0,0-.453-.936,4.355,4.355,0,0,1-1.816-3.6c-.018-1,0-1.992,0-3.171-.587.583-1.061,1.059-1.54,1.528a1.22,1.22,0,0,1-1.879.186c-.937-.631-1.864-1.277-2.881-1.975-.224,1.039-.433,2-.641,2.969-.051.238-.081.483-.154.714a1.138,1.138,0,0,1-1.162.9q-2.2,0-4.4,0a1.139,1.139,0,0,1-1.212-1c-.228-1.038-.443-2.08-.666-3.119-.027-.125-.074-.245-.137-.45-.939.645-1.828,1.256-2.717,1.866-.942.645-1.322.609-2.139-.205-.959-.957-1.92-1.912-2.873-2.876a1.219,1.219,0,0,1-.183-1.878c.63-.938,1.274-1.866,1.972-2.884-1.062-.228-2.048-.449-3.038-.649C.2,45.358,0,45.134,0,43.785c0-1.244,0-2.488,0-3.732A1.17,1.17,0,0,1,1.073,38.7c1.137-.262,2.279-.5,3.505-.765-.678-.989-1.306-1.9-1.925-2.81-.579-.853-.544-1.264.172-1.986q1.455-1.466,2.921-2.921c.716-.711,1.135-.745,1.984-.167.914.622,1.822,1.253,2.825,1.943.239-1.147.454-2.2.679-3.257s.483-1.278,1.431-1.374c.263-1.423.448-2.851.8-4.239A21.451,21.451,0,0,1,31.609,7.168,27.124,27.124,0,0,1,35.528,7.1a2.16,2.16,0,0,0,1.588-.46c.815-.684,1.689-1.3,2.55-1.926A1.19,1.19,0,0,1,41.6,5.01Q42.772,6.546,43.92,8.1a1.245,1.245,0,0,0,1.337.654c.62-.141.82-.6.9-1.171.156-1.164.355-2.323.5-3.488.176-1.405.571-1.724,1.955-1.526q2.93.418,5.862.822c.953.132,1.331.55,1.228,1.527-.12,1.146-.328,2.282-.47,3.426-.083.666-.335,1.409.41,1.877s1.294-.056,1.845-.467c.925-.691,1.841-1.393,2.773-2.075a1.187,1.187,0,0,1,1.94.263Q64.117,10.457,66,13a1.186,1.186,0,0,1-.294,1.933q-1.532,1.175-3.091,2.316a1.259,1.259,0,0,0-.633,1.412c.163.611.667.775,1.222.852,1.3.179,2.6.313,3.88.571.421.085.777.5,1.162.757V21.91c-.18,1.086-.368,2.171-.538,3.259-.147.942-.259,1.889-.41,2.83a1.2,1.2,0,0,1-1.479,1.07q-2.041-.291-4.079-.6a1.144,1.144,0,0,0-1.149,1.844c.778,1.053,1.57,2.1,2.353,3.146.722.969.657,1.468-.286,2.178q-2.368,1.782-4.741,3.557c-1.007.753-1.509.675-2.274-.341-.734-.976-1.471-1.949-2.2-2.928a1.227,1.227,0,0,0-1.344-.635c-.644.165-.818.694-.9,1.267-.186,1.272-.358,2.546-.546,3.818a1.194,1.194,0,0,1-1.565,1.159q-3.062-.429-6.125-.855c-1.054-.148-1.415-.637-1.263-1.688.18-1.251.355-2.5.538-3.752a1.277,1.277,0,0,0-.5-1.412,1.185,1.185,0,0,0-1.467.2q-1.514,1.144-3.037,2.276c-.914.68-1.444.609-2.137-.307q-1.848-2.443-3.676-4.9A1.216,1.216,0,0,1,31.7,29.1c1.005-.769,2.023-1.521,3.038-2.276.469-.348.86-.753.694-1.389s-.662-.816-1.262-.89c-1.232-.151-2.458-.348-3.687-.52-1.036-.144-1.415-.563-1.284-1.613q.388-3.1.87-6.19c.165-1.071.675-1.37,1.8-1.2,1.249.188,2.5.349,3.751.542a1.143,1.143,0,0,0,1.116-1.909c-.749-.992-1.508-1.977-2.229-2.989a12.108,12.108,0,0,1-.716-1.338A17.77,17.77,0,0,0,25.6,11.3,18.4,18.4,0,0,0,15.141,25.867c-.977,7.5,1.732,13.616,7.8,18.176a11.429,11.429,0,0,1,3.425,3.2,7.3,7.3,0,0,1,1.08,3.586c.018,1.488.012,2.976.019,4.464a2.314,2.314,0,0,0,2.6,2.639q4.2.009,8.4,0c1.751,0,2.573-.862,2.6-2.634a52.923,52.923,0,0,1,.163-5.383,7.06,7.06,0,0,1,3.029-4.9c.943-.7,1.894-1.391,2.883-2.118l1.519,1.69c-.923.689-1.781,1.384-2.694,2a5.744,5.744,0,0,0-2.64,5.08c0,1.355,0,2.71,0,4.065a4.293,4.293,0,0,1-1.84,3.586.946.946,0,0,0-.423.885c.014,1.732.008,3.465.006,5.2,0,2.673-1.047,4.1-3.583,4.917a.643.643,0,0,0-.157.112Zm29.35-36.175c-.666-.892-1.3-1.723-1.911-2.564a3.331,3.331,0,0,1-.7-2.623A3.465,3.465,0,0,1,62.3,26.231c.933.156,1.873.27,2.868.411l.639-4.438c-.728-.107-1.411-.173-2.079-.313a9.043,9.043,0,0,1-2.416-.638,3.313,3.313,0,0,1-.537-5.417c.9-.783,1.877-1.467,2.837-2.208L60.921,10.05c-.959.706-1.846,1.4-2.779,2.035a3.184,3.184,0,0,1-3.693.088,3.265,3.265,0,0,1-1.574-3.413c.136-1.066.287-2.131.435-3.225l-4.437-.618c-.165,1.093-.32,2.1-.468,3.1a3.3,3.3,0,0,1-2.577,2.959,3.347,3.347,0,0,1-3.707-1.468c-.6-.792-1.195-1.587-1.816-2.413l-3.591,2.7c.705.946,1.382,1.8,2,2.693a3.253,3.253,0,0,1,.114,3.813,3.327,3.327,0,0,1-3.562,1.532c-1-.147-2-.279-3.05-.424l-.633,4.434c1.035.157,2.015.323,3,.451a3.4,3.4,0,0,1,3.072,2.548,3.442,3.442,0,0,1-1.494,3.768c-.774.591-1.554,1.173-2.387,1.8L36.461,34c1.02-.741,1.944-1.47,2.926-2.11a3.291,3.291,0,0,1,3.909.233,3.623,3.623,0,0,1,1.17,3.672c-.137.89-.257,1.783-.391,2.721l4.445.629c.142-1,.292-1.917.4-2.838a3.507,3.507,0,0,1,2.554-3.222,3.441,3.441,0,0,1,3.778,1.454c.6.793,1.2,1.589,1.822,2.416l3.6-2.7M20.749,45.273A6.829,6.829,0,0,1,7.876,42.011a6.981,6.981,0,0,1,5.965-6.7c-.162-.573-.341-1.138-.481-1.714-.134-.553-.227-1.117-.36-1.788-.071.184-.1.243-.117.3-.677,2.283-2.136,2.79-4.112,1.43-.614-.423-1.233-.84-1.76-1.2l-2.1,2.006c.538.792,1.1,1.559,1.6,2.369A2.233,2.233,0,0,1,5.1,40.162c-.794.2-1.6.338-2.4.539-.165.042-.408.232-.414.364-.039.79-.019,1.584-.019,2.372.908.193,1.733.354,2.551.546,2.019.473,2.658,2.116,1.5,3.831-.469.693-.945,1.382-1.332,1.949l2.084,2.084c.663-.454,1.386-.97,2.129-1.454a2.249,2.249,0,0,1,3.6,1.443c.218.9.4,1.8.6,2.732.8,0,1.557.02,2.307-.017a.593.593,0,0,0,.411-.367c.181-.707.3-1.43.459-2.143.463-2.054,2.121-2.7,3.871-1.513.69.468,1.379.938,2.11,1.436.6-.622,1.151-1.2,1.713-1.769.738-.746.72-.731.193-1.661-.864-1.527-2.453-2.191-3.715-3.259M10.232,42.089a4.415,4.415,0,0,0,3.529,4.39,4.48,4.48,0,0,0,4.961-2.345.672.672,0,0,0-.13-.915A18.721,18.721,0,0,1,15.1,38.228a.921.921,0,0,0-1.2-.566,4.473,4.473,0,0,0-3.667,4.427M29.805,64.8c-.3,2.252.63,3.35,2.773,3.352,1.2,0,2.4.005,3.6,0a2.457,2.457,0,0,0,2.509-3.35ZM38.739,60.3h-8.95V62.44h8.95Z" transform="translate(0 -2.178)" fill="#12263f"/>
          <path id="Trazado_214964" data-name="Trazado 214964" d="M145.411,96.618l1.151,1.821a38.381,38.381,0,0,0-2.9,2.7,13.511,13.511,0,0,0,4.65,21.274,11.315,11.315,0,0,1,4.83,3.513,9.476,9.476,0,0,1,1.848,5.6h-2.228c-.076-.5-.122-1.006-.231-1.5a6.753,6.753,0,0,0-3.952-4.954,18.211,18.211,0,0,1-6.445-4.362,15.373,15.373,0,0,1-4-8.875,15.565,15.565,0,0,1,5.8-14.138c.453-.384.958-.706,1.481-1.088" transform="translate(-119.603 -83.715)" fill="#12263f"/>
          <path id="Trazado_214965" data-name="Trazado 214965" d="M411.989,365.862l-1.462,1.755-6.8-5.665,1.455-1.763,6.811,5.673" transform="translate(-349.806 -312.087)" fill="#12263f"/>
          <path id="Trazado_214966" data-name="Trazado 214966" d="M425.339,315.745v2.277c-.177.017-.326.043-.475.044-2.283,0-4.566-.009-6.849.011-.467,0-.6-.14-.607-.6-.013-1.728-.029-1.728,1.67-1.728h6.261Z" transform="translate(-361.662 -273.578)" fill="#12263f"/>
          <path id="Trazado_214967" data-name="Trazado 214967" d="M368.913,391.4h-2.245a2.351,2.351,0,0,1-.068-.392c0-2.327,0-4.654-.012-6.981,0-.432.132-.567.569-.574,1.755-.027,1.755-.041,1.755,1.706Z" transform="translate(-317.631 -332.242)" fill="#12263f"/>
          <rect id="Rectángulo_53988" data-name="Rectángulo 53988" width="2.212" height="3.347" transform="translate(33.169 50.163)" fill="#12263f"/>
          <path id="Trazado_214968" data-name="Trazado 214968" d="M22.611,47.976l1.334-1.855,7.933,5.664-1.322,1.865-7.945-5.673" transform="translate(-19.591 -39.962)" fill="#12263f"/>
          <path id="Trazado_214969" data-name="Trazado 214969" d="M95.3.576,97.512,0l2.32,9.071-2.2.579L95.3.576" transform="translate(-82.575)" fill="#12263f"/>
          <path id="Trazado_214970" data-name="Trazado 214970" d="M9.2,134.059l-.535-2.221,9.051-2.262.566,2.215L9.2,134.059" transform="translate(-7.506 -112.271)" fill="#12263f"/>
          <path id="Trazado_214971" data-name="Trazado 214971" d="M314.723,89.9a9.069,9.069,0,1,1-9.024-9.089,9.063,9.063,0,0,1,9.024,9.089m-2.286.014a6.769,6.769,0,1,0-6.755,6.743,6.813,6.813,0,0,0,6.755-6.743" transform="translate(-256.977 -70.023)" fill="#12263f"/>
        </g>
      </g>
    </g>
    <path id="Trazado_217550" data-name="Trazado 217550" d="M8.719,17V5.8h3.094q5.922,0,5.922,5.461a5.5,5.5,0,0,1-1.645,4.168A6.1,6.1,0,0,1,11.688,17ZM10.031,6.984v8.828H11.7a4.745,4.745,0,0,0,3.43-1.18,4.422,4.422,0,0,0,1.227-3.344q0-4.3-4.578-4.3ZM25.492,17H24.211V15.75H24.18a2.682,2.682,0,0,1-2.461,1.438,2.63,2.63,0,0,1-1.871-.633,2.192,2.192,0,0,1-.676-1.68q0-2.242,2.641-2.609l2.4-.336q0-2.039-1.648-2.039a3.938,3.938,0,0,0-2.609.984V9.563a4.958,4.958,0,0,1,2.719-.75q2.82,0,2.82,2.984Zm-1.281-4.047-1.93.266a3.133,3.133,0,0,0-1.344.441,1.273,1.273,0,0,0-.453,1.121,1.221,1.221,0,0,0,.418.957,1.615,1.615,0,0,0,1.113.371,2.056,2.056,0,0,0,1.574-.668,2.387,2.387,0,0,0,.621-1.691Zm7.406,3.969a2.47,2.47,0,0,1-1.2.25q-2.1,0-2.1-2.344V10.094H26.945V9H28.32V7.047L29.6,6.633V9h2.016v1.094H29.6V14.6a1.869,1.869,0,0,0,.273,1.148,1.091,1.091,0,0,0,.906.344,1.347,1.347,0,0,0,.836-.266Zm5.055.266a3.711,3.711,0,0,1-2.832-1.121,4.153,4.153,0,0,1-1.059-2.973,4.326,4.326,0,0,1,1.1-3.148,3.96,3.96,0,0,1,2.977-1.133,3.588,3.588,0,0,1,2.793,1.1,4.368,4.368,0,0,1,1,3.055,4.3,4.3,0,0,1-1.082,3.066A3.791,3.791,0,0,1,36.672,17.188Zm.094-7.3a2.437,2.437,0,0,0-1.953.84,3.449,3.449,0,0,0-.719,2.316,3.262,3.262,0,0,0,.727,2.242,2.469,2.469,0,0,0,1.945.82,2.342,2.342,0,0,0,1.91-.8,3.492,3.492,0,0,0,.668-2.289,3.552,3.552,0,0,0-.668-2.312A2.332,2.332,0,0,0,36.766,9.891Zm5.453,6.82V15.336a3.792,3.792,0,0,0,2.3.773q1.688,0,1.688-1.125a.976.976,0,0,0-.145-.543,1.44,1.44,0,0,0-.391-.395,3.007,3.007,0,0,0-.578-.309q-.332-.137-.715-.285a9.207,9.207,0,0,1-.934-.426,2.82,2.82,0,0,1-.672-.484,1.8,1.8,0,0,1-.406-.613,2.17,2.17,0,0,1-.137-.8,1.912,1.912,0,0,1,.258-1A2.286,2.286,0,0,1,43.18,9.4a3.206,3.206,0,0,1,.98-.441A4.349,4.349,0,0,1,45.3,8.813a4.59,4.59,0,0,1,1.859.359v1.3a3.624,3.624,0,0,0-2.031-.578,2.374,2.374,0,0,0-.648.082,1.587,1.587,0,0,0-.5.23,1.065,1.065,0,0,0-.32.355.936.936,0,0,0-.113.457,1.1,1.1,0,0,0,.113.523,1.152,1.152,0,0,0,.332.375,2.538,2.538,0,0,0,.531.3q.312.133.711.289a9.894,9.894,0,0,1,.953.418,3.269,3.269,0,0,1,.719.484,1.893,1.893,0,0,1,.457.621,2,2,0,0,1,.16.836,1.971,1.971,0,0,1-.262,1.031,2.243,2.243,0,0,1-.7.727,3.2,3.2,0,0,1-1.008.43,4.976,4.976,0,0,1-1.2.141A4.539,4.539,0,0,1,42.219,16.711ZM60.7,17H59.422V15.641h-.031a2.958,2.958,0,0,1-2.75,1.547,2.988,2.988,0,0,1-2.41-1.074,4.407,4.407,0,0,1-.9-2.926,4.794,4.794,0,0,1,1-3.18,3.3,3.3,0,0,1,2.664-1.2,2.564,2.564,0,0,1,2.4,1.3h.031V5.156H60.7Zm-1.281-3.617V12.2a2.289,2.289,0,0,0-.641-1.641,2.149,2.149,0,0,0-1.625-.672,2.212,2.212,0,0,0-1.844.859,3.766,3.766,0,0,0-.672,2.375,3.387,3.387,0,0,0,.645,2.184,2.107,2.107,0,0,0,1.73.8,2.188,2.188,0,0,0,1.738-.773A2.882,2.882,0,0,0,59.422,13.383Zm10.3-.062H64.078a2.992,2.992,0,0,0,.719,2.063,2.478,2.478,0,0,0,1.891.727,3.931,3.931,0,0,0,2.484-.891v1.2a4.643,4.643,0,0,1-2.789.766,3.381,3.381,0,0,1-2.664-1.09,4.461,4.461,0,0,1-.969-3.066,4.375,4.375,0,0,1,1.059-3.043,3.394,3.394,0,0,1,2.629-1.176,3.008,3.008,0,0,1,2.43,1.016,4.234,4.234,0,0,1,.859,2.82Zm-1.312-1.086a2.607,2.607,0,0,0-.535-1.727,1.823,1.823,0,0,0-1.465-.617,2.07,2.07,0,0,0-1.539.648,2.943,2.943,0,0,0-.781,1.7ZM72.945,17H71.664V5.156h1.281Zm13.617,0H85.281V12.438q0-2.547-1.859-2.547a2.017,2.017,0,0,0-1.59.723,2.679,2.679,0,0,0-.629,1.824V17H79.922V9H81.2v1.328h.031a2.887,2.887,0,0,1,2.625-1.516,2.448,2.448,0,0,1,2.008.848,3.776,3.776,0,0,1,.7,2.449Zm8.844-3.68H89.758a2.992,2.992,0,0,0,.719,2.063,2.478,2.478,0,0,0,1.891.727,3.931,3.931,0,0,0,2.484-.891v1.2a4.643,4.643,0,0,1-2.789.766A3.381,3.381,0,0,1,89.4,16.1a4.461,4.461,0,0,1-.969-3.066,4.375,4.375,0,0,1,1.059-3.043,3.394,3.394,0,0,1,2.629-1.176,3.008,3.008,0,0,1,2.43,1.016,4.234,4.234,0,0,1,.859,2.82Zm-1.312-1.086a2.607,2.607,0,0,0-.535-1.727,1.823,1.823,0,0,0-1.465-.617,2.07,2.07,0,0,0-1.539.648,2.943,2.943,0,0,0-.781,1.7Zm10.078,4.125q0,4.406-4.219,4.406a5.664,5.664,0,0,1-2.594-.562V18.922a5.327,5.327,0,0,0,2.578.75q2.953,0,2.953-3.141v-.875h-.031a3.237,3.237,0,0,1-5.152.465,4.263,4.263,0,0,1-.91-2.863,4.981,4.981,0,0,1,.98-3.242,3.275,3.275,0,0,1,2.684-1.2,2.608,2.608,0,0,1,2.4,1.3h.031V9h1.281Zm-1.281-2.977V12.2a2.289,2.289,0,0,0-.645-1.633,2.122,2.122,0,0,0-1.605-.68,2.225,2.225,0,0,0-1.859.863,3.853,3.853,0,0,0-.672,2.418,3.308,3.308,0,0,0,.645,2.137,2.082,2.082,0,0,0,1.707.8,2.23,2.23,0,0,0,1.754-.766A2.854,2.854,0,0,0,102.891,13.383Zm7.219,3.8a3.711,3.711,0,0,1-2.832-1.121,4.153,4.153,0,0,1-1.059-2.973,4.326,4.326,0,0,1,1.1-3.148A3.96,3.96,0,0,1,110.3,8.813a3.588,3.588,0,0,1,2.793,1.1,4.368,4.368,0,0,1,1,3.055,4.3,4.3,0,0,1-1.082,3.066A3.791,3.791,0,0,1,110.109,17.188Zm.094-7.3a2.437,2.437,0,0,0-1.953.84,3.449,3.449,0,0,0-.719,2.316,3.262,3.262,0,0,0,.727,2.242,2.469,2.469,0,0,0,1.945.82,2.342,2.342,0,0,0,1.91-.8,3.492,3.492,0,0,0,.668-2.289,3.552,3.552,0,0,0-.668-2.312A2.332,2.332,0,0,0,110.2,9.891Zm11.391,6.742a4.163,4.163,0,0,1-2.187.555,3.622,3.622,0,0,1-2.762-1.113,4.035,4.035,0,0,1-1.051-2.887,4.435,4.435,0,0,1,1.133-3.176,3.963,3.963,0,0,1,3.023-1.2,4.209,4.209,0,0,1,1.859.391v1.313a3.258,3.258,0,0,0-1.906-.625,2.576,2.576,0,0,0-2.012.879,3.335,3.335,0,0,0-.785,2.309,3.176,3.176,0,0,0,.738,2.219,2.545,2.545,0,0,0,1.98.813,3.211,3.211,0,0,0,1.969-.7Zm2.594-9.664a.812.812,0,0,1-.586-.234.791.791,0,0,1-.242-.594.821.821,0,0,1,.828-.836.827.827,0,0,1,.6.238.835.835,0,0,1,0,1.184A.82.82,0,0,1,124.188,6.969ZM124.813,17h-1.281V9h1.281Zm5.938.188a3.711,3.711,0,0,1-2.832-1.121,4.153,4.153,0,0,1-1.059-2.973,4.326,4.326,0,0,1,1.1-3.148,3.96,3.96,0,0,1,2.977-1.133,3.588,3.588,0,0,1,2.793,1.1,4.368,4.368,0,0,1,1,3.055,4.3,4.3,0,0,1-1.082,3.066A3.791,3.791,0,0,1,130.75,17.188Zm.094-7.3a2.437,2.437,0,0,0-1.953.84,3.449,3.449,0,0,0-.719,2.316,3.262,3.262,0,0,0,.727,2.242,2.469,2.469,0,0,0,1.945.82,2.342,2.342,0,0,0,1.91-.8,3.492,3.492,0,0,0,.668-2.289,3.552,3.552,0,0,0-.668-2.312A2.332,2.332,0,0,0,130.844,9.891Zm14.242-4.281-.867,3.484H143.07l1.1-3.484Zm-2.375,0-.844,3.484H140.7l1.094-3.484Zm9.172,11.578a4.945,4.945,0,0,1-3.82-1.57,5.834,5.834,0,0,1-1.43-4.086,6.154,6.154,0,0,1,1.461-4.312,5.118,5.118,0,0,1,3.977-1.609A4.81,4.81,0,0,1,155.8,7.172a5.836,5.836,0,0,1,1.422,4.086,6.191,6.191,0,0,1-1.453,4.336,4.312,4.312,0,0,1-.734.656l3.148,2.258H155.8L153.7,16.93A6.073,6.073,0,0,1,151.883,17.188ZM151.977,6.8a3.612,3.612,0,0,0-2.867,1.273,4.93,4.93,0,0,0-1.1,3.344,5.011,5.011,0,0,0,1.07,3.336,3.519,3.519,0,0,0,2.8,1.258,3.678,3.678,0,0,0,2.906-1.2,4.917,4.917,0,0,0,1.063-3.367,5.119,5.119,0,0,0-1.031-3.43A3.536,3.536,0,0,0,151.977,6.8ZM165.727,17h-1.281V15.734h-.031a2.631,2.631,0,0,1-2.469,1.453q-2.859,0-2.859-3.406V9h1.273v4.578q0,2.531,1.938,2.531a1.96,1.96,0,0,0,1.543-.691,2.645,2.645,0,0,0,.605-1.809V9h1.281Zm3.242-10.031a.812.812,0,0,1-.586-.234.791.791,0,0,1-.242-.594.821.821,0,0,1,.828-.836.827.827,0,0,1,.6.238.835.835,0,0,1,0,1.184A.82.82,0,0,1,168.969,6.969ZM169.594,17h-1.281V9h1.281Zm9.023-3.68h-5.648a2.992,2.992,0,0,0,.719,2.063,2.478,2.478,0,0,0,1.891.727,3.931,3.931,0,0,0,2.484-.891v1.2a4.643,4.643,0,0,1-2.789.766,3.381,3.381,0,0,1-2.664-1.09,4.461,4.461,0,0,1-.969-3.066A4.374,4.374,0,0,1,172.7,9.988a3.394,3.394,0,0,1,2.629-1.176,3.008,3.008,0,0,1,2.43,1.016,4.234,4.234,0,0,1,.859,2.82ZM177.3,12.234a2.607,2.607,0,0,0-.535-1.727,1.823,1.823,0,0,0-1.465-.617,2.07,2.07,0,0,0-1.539.648,2.943,2.943,0,0,0-.781,1.7Zm-.2-7.312-2.047,2.563h-.992L175.8,4.922ZM187.2,17h-1.281V12.438q0-2.547-1.859-2.547a2.017,2.017,0,0,0-1.59.723,2.679,2.679,0,0,0-.629,1.824V17h-1.281V9h1.281v1.328h.031a2.887,2.887,0,0,1,2.625-1.516,2.448,2.448,0,0,1,2.008.848,3.776,3.776,0,0,1,.7,2.449Zm8.844-3.68h-5.648a2.992,2.992,0,0,0,.719,2.063,2.478,2.478,0,0,0,1.891.727,3.931,3.931,0,0,0,2.484-.891v1.2a4.643,4.643,0,0,1-2.789.766,3.381,3.381,0,0,1-2.664-1.09,4.461,4.461,0,0,1-.969-3.066,4.374,4.374,0,0,1,1.059-3.043,3.394,3.394,0,0,1,2.629-1.176,3.008,3.008,0,0,1,2.43,1.016,4.234,4.234,0,0,1,.859,2.82Zm-1.312-1.086a2.607,2.607,0,0,0-.535-1.727,1.823,1.823,0,0,0-1.465-.617,2.07,2.07,0,0,0-1.539.648,2.943,2.943,0,0,0-.781,1.7Zm2.766,4.477V15.336a3.792,3.792,0,0,0,2.3.773q1.688,0,1.688-1.125a.976.976,0,0,0-.145-.543,1.44,1.44,0,0,0-.391-.395,3.007,3.007,0,0,0-.578-.309q-.332-.137-.715-.285a9.207,9.207,0,0,1-.934-.426,2.82,2.82,0,0,1-.672-.484,1.8,1.8,0,0,1-.406-.613,2.17,2.17,0,0,1-.137-.8,1.912,1.912,0,0,1,.258-1,2.286,2.286,0,0,1,.688-.727,3.206,3.206,0,0,1,.98-.441,4.349,4.349,0,0,1,1.137-.148,4.59,4.59,0,0,1,1.859.359v1.3a3.624,3.624,0,0,0-2.031-.578,2.374,2.374,0,0,0-.648.082,1.587,1.587,0,0,0-.5.23,1.065,1.065,0,0,0-.32.355.936.936,0,0,0-.113.457,1.1,1.1,0,0,0,.113.523,1.152,1.152,0,0,0,.332.375,2.538,2.538,0,0,0,.531.3q.312.133.711.289a9.894,9.894,0,0,1,.953.418,3.269,3.269,0,0,1,.719.484,1.893,1.893,0,0,1,.457.621,2,2,0,0,1,.16.836,1.971,1.971,0,0,1-.262,1.031,2.243,2.243,0,0,1-.7.727,3.2,3.2,0,0,1-1.008.43,4.976,4.976,0,0,1-1.2.141A4.539,4.539,0,0,1,197.492,16.711Zm-196.281,24V39.336a3.792,3.792,0,0,0,2.3.773q1.688,0,1.688-1.125a.976.976,0,0,0-.145-.543,1.44,1.44,0,0,0-.391-.395,3.007,3.007,0,0,0-.578-.309q-.332-.137-.715-.285a9.206,9.206,0,0,1-.934-.426,2.82,2.82,0,0,1-.672-.484,1.8,1.8,0,0,1-.406-.613,2.17,2.17,0,0,1-.137-.8,1.912,1.912,0,0,1,.258-1,2.286,2.286,0,0,1,.688-.727,3.206,3.206,0,0,1,.98-.441,4.349,4.349,0,0,1,1.137-.148,4.59,4.59,0,0,1,1.859.359v1.3a3.624,3.624,0,0,0-2.031-.578,2.374,2.374,0,0,0-.648.082,1.587,1.587,0,0,0-.5.23,1.065,1.065,0,0,0-.32.355.936.936,0,0,0-.113.457,1.1,1.1,0,0,0,.113.523,1.152,1.152,0,0,0,.332.375,2.538,2.538,0,0,0,.531.3q.312.133.711.289a9.894,9.894,0,0,1,.953.418A3.269,3.269,0,0,1,5.9,37.4a1.893,1.893,0,0,1,.457.621,2,2,0,0,1,.16.836,1.971,1.971,0,0,1-.262,1.031,2.243,2.243,0,0,1-.7.727,3.2,3.2,0,0,1-1.008.43,4.976,4.976,0,0,1-1.2.141A4.539,4.539,0,0,1,1.211,40.711Zm10.617.477A3.711,3.711,0,0,1,9,40.066a4.153,4.153,0,0,1-1.059-2.973,4.326,4.326,0,0,1,1.1-3.148,3.96,3.96,0,0,1,2.977-1.133,3.588,3.588,0,0,1,2.793,1.1,4.368,4.368,0,0,1,1,3.055,4.3,4.3,0,0,1-1.082,3.066A3.791,3.791,0,0,1,11.828,41.188Zm.094-7.3a2.437,2.437,0,0,0-1.953.84,3.449,3.449,0,0,0-.719,2.316,3.262,3.262,0,0,0,.727,2.242,2.469,2.469,0,0,0,1.945.82,2.342,2.342,0,0,0,1.91-.8,3.492,3.492,0,0,0,.668-2.289,3.552,3.552,0,0,0-.668-2.312A2.332,2.332,0,0,0,11.922,33.891ZM29.219,41H27.938V36.406a3.466,3.466,0,0,0-.41-1.922,1.555,1.555,0,0,0-1.379-.594,1.708,1.708,0,0,0-1.395.75,2.869,2.869,0,0,0-.574,1.8V41H22.9V36.25q0-2.359-1.82-2.359a1.686,1.686,0,0,0-1.391.707,2.923,2.923,0,0,0-.547,1.84V41H17.859V33h1.281v1.266h.031a2.718,2.718,0,0,1,2.484-1.453,2.311,2.311,0,0,1,2.266,1.656,2.855,2.855,0,0,1,2.656-1.656q2.641,0,2.641,3.258Zm5.766.188a3.711,3.711,0,0,1-2.832-1.121,4.153,4.153,0,0,1-1.059-2.973,4.326,4.326,0,0,1,1.1-3.148,3.96,3.96,0,0,1,2.977-1.133,3.588,3.588,0,0,1,2.793,1.1,4.368,4.368,0,0,1,1,3.055,4.3,4.3,0,0,1-1.082,3.066A3.791,3.791,0,0,1,34.984,41.188Zm.094-7.3a2.437,2.437,0,0,0-1.953.84,3.449,3.449,0,0,0-.719,2.316,3.262,3.262,0,0,0,.727,2.242,2.469,2.469,0,0,0,1.945.82,2.342,2.342,0,0,0,1.91-.8,3.492,3.492,0,0,0,.668-2.289,3.552,3.552,0,0,0-.668-2.312A2.332,2.332,0,0,0,35.078,33.891Zm5.453,6.82V39.336a3.792,3.792,0,0,0,2.3.773q1.688,0,1.688-1.125a.976.976,0,0,0-.145-.543,1.44,1.44,0,0,0-.391-.395,3.007,3.007,0,0,0-.578-.309q-.332-.137-.715-.285a9.206,9.206,0,0,1-.934-.426,2.82,2.82,0,0,1-.672-.484,1.8,1.8,0,0,1-.406-.613,2.17,2.17,0,0,1-.137-.8,1.912,1.912,0,0,1,.258-1,2.286,2.286,0,0,1,.688-.727,3.206,3.206,0,0,1,.98-.441,4.349,4.349,0,0,1,1.137-.148,4.59,4.59,0,0,1,1.859.359v1.3a3.624,3.624,0,0,0-2.031-.578,2.374,2.374,0,0,0-.648.082,1.587,1.587,0,0,0-.5.23,1.065,1.065,0,0,0-.32.355.936.936,0,0,0-.113.457,1.1,1.1,0,0,0,.113.523,1.152,1.152,0,0,0,.332.375,2.538,2.538,0,0,0,.531.3q.312.133.711.289a9.894,9.894,0,0,1,.953.418,3.269,3.269,0,0,1,.719.484,1.893,1.893,0,0,1,.457.621,2,2,0,0,1,.16.836,1.971,1.971,0,0,1-.262,1.031,2.243,2.243,0,0,1-.7.727,3.2,3.2,0,0,1-1.008.43,4.976,4.976,0,0,1-1.2.141A4.539,4.539,0,0,1,40.531,40.711Zm11.227-11.1-1.094,3.484h-.922l.844-3.484Zm-2.375,0-1.094,3.484h-.922l.867-3.484Zm5.625,9.609-1.25,3.844h-.914l.914-3.844Zm12.133,1.414a4.163,4.163,0,0,1-2.187.555,3.622,3.622,0,0,1-2.762-1.113,4.035,4.035,0,0,1-1.051-2.887,4.435,4.435,0,0,1,1.133-3.176,3.963,3.963,0,0,1,3.023-1.2,4.209,4.209,0,0,1,1.859.391v1.313a3.258,3.258,0,0,0-1.906-.625,2.576,2.576,0,0,0-2.012.879,3.335,3.335,0,0,0-.785,2.309,3.176,3.176,0,0,0,.738,2.219,2.545,2.545,0,0,0,1.98.813,3.211,3.211,0,0,0,1.969-.7Zm5.281.555a3.711,3.711,0,0,1-2.832-1.121,4.153,4.153,0,0,1-1.059-2.973,4.326,4.326,0,0,1,1.1-3.148,3.96,3.96,0,0,1,2.977-1.133,3.588,3.588,0,0,1,2.793,1.1,4.368,4.368,0,0,1,1,3.055,4.3,4.3,0,0,1-1.082,3.066A3.791,3.791,0,0,1,72.422,41.188Zm.094-7.3a2.437,2.437,0,0,0-1.953.84,3.449,3.449,0,0,0-.719,2.316,3.262,3.262,0,0,0,.727,2.242,2.469,2.469,0,0,0,1.945.82,2.342,2.342,0,0,0,1.91-.8,3.492,3.492,0,0,0,.668-2.289,3.552,3.552,0,0,0-.668-2.312A2.332,2.332,0,0,0,72.516,33.891ZM85.094,41H83.813V36.438q0-2.547-1.859-2.547a2.017,2.017,0,0,0-1.59.723,2.679,2.679,0,0,0-.629,1.824V41H78.453V33h1.281v1.328h.031a2.887,2.887,0,0,1,2.625-1.516,2.448,2.448,0,0,1,2.008.848,3.776,3.776,0,0,1,.7,2.449Zm6.125-.078a2.47,2.47,0,0,1-1.2.25q-2.1,0-2.1-2.344V34.094H86.547V33h1.375V31.047l1.281-.414V33h2.016v1.094H89.2V38.6a1.869,1.869,0,0,0,.273,1.148,1.091,1.091,0,0,0,.906.344,1.347,1.347,0,0,0,.836-.266ZM98.656,41H97.375V39.75h-.031a2.682,2.682,0,0,1-2.461,1.438,2.63,2.63,0,0,1-1.871-.633,2.192,2.192,0,0,1-.676-1.68q0-2.242,2.641-2.609l2.4-.336q0-2.039-1.648-2.039a3.938,3.938,0,0,0-2.609.984V33.563a4.958,4.958,0,0,1,2.719-.75q2.82,0,2.82,2.984Zm-1.281-4.047-1.93.266a3.133,3.133,0,0,0-1.344.441,1.273,1.273,0,0,0-.453,1.121,1.221,1.221,0,0,0,.418.957,1.615,1.615,0,0,0,1.113.371,2.056,2.056,0,0,0,1.574-.668,2.387,2.387,0,0,0,.621-1.691Zm9.148,3.68a4.163,4.163,0,0,1-2.187.555,3.622,3.622,0,0,1-2.762-1.113,4.035,4.035,0,0,1-1.051-2.887,4.435,4.435,0,0,1,1.133-3.176,3.963,3.963,0,0,1,3.023-1.2,4.209,4.209,0,0,1,1.859.391v1.313a3.258,3.258,0,0,0-1.906-.625,2.576,2.576,0,0,0-2.012.879,3.335,3.335,0,0,0-.785,2.309,3.176,3.176,0,0,0,.738,2.219,2.545,2.545,0,0,0,1.98.813,3.211,3.211,0,0,0,1.969-.7Zm5.648.289a2.47,2.47,0,0,1-1.2.25q-2.1,0-2.1-2.344V34.094H107.5V33h1.375V31.047l1.281-.414V33h2.016v1.094h-2.016V38.6a1.869,1.869,0,0,0,.273,1.148,1.091,1.091,0,0,0,.906.344,1.347,1.347,0,0,0,.836-.266Zm5.055.266a3.711,3.711,0,0,1-2.832-1.121,4.153,4.153,0,0,1-1.059-2.973,4.326,4.326,0,0,1,1.1-3.148,3.96,3.96,0,0,1,2.977-1.133,3.588,3.588,0,0,1,2.793,1.1,4.368,4.368,0,0,1,1,3.055,4.3,4.3,0,0,1-1.082,3.066A3.791,3.791,0,0,1,117.227,41.188Zm.094-7.3a2.437,2.437,0,0,0-1.953.84,3.449,3.449,0,0,0-.719,2.316,3.262,3.262,0,0,0,.727,2.242,2.469,2.469,0,0,0,1.945.82,2.342,2.342,0,0,0,1.91-.8,3.492,3.492,0,0,0,.668-2.289,3.552,3.552,0,0,0-.668-2.312A2.332,2.332,0,0,0,117.32,33.891Zm7.109,5.328-1.25,3.844h-.914l.914-3.844ZM137.938,41h-1.281V39.641h-.031a2.958,2.958,0,0,1-2.75,1.547,2.988,2.988,0,0,1-2.41-1.074,4.407,4.407,0,0,1-.9-2.926,4.794,4.794,0,0,1,1-3.18,3.3,3.3,0,0,1,2.664-1.2,2.564,2.564,0,0,1,2.4,1.3h.031V29.156h1.281Zm-1.281-3.617V36.2a2.289,2.289,0,0,0-.641-1.641,2.149,2.149,0,0,0-1.625-.672,2.212,2.212,0,0,0-1.844.859,3.766,3.766,0,0,0-.672,2.375,3.387,3.387,0,0,0,.645,2.184,2.107,2.107,0,0,0,1.73.8,2.188,2.188,0,0,0,1.738-.773A2.882,2.882,0,0,0,136.656,37.383Zm10.3-.062h-5.648a2.992,2.992,0,0,0,.719,2.063,2.478,2.478,0,0,0,1.891.727,3.931,3.931,0,0,0,2.484-.891v1.2a4.643,4.643,0,0,1-2.789.766,3.381,3.381,0,0,1-2.664-1.09,4.461,4.461,0,0,1-.969-3.066,4.374,4.374,0,0,1,1.059-3.043,3.394,3.394,0,0,1,2.629-1.176,3.008,3.008,0,0,1,2.43,1.016,4.234,4.234,0,0,1,.859,2.82Zm-1.312-1.086a2.607,2.607,0,0,0-.535-1.727,1.823,1.823,0,0,0-1.465-.617,2.07,2.07,0,0,0-1.539.648,2.943,2.943,0,0,0-.781,1.7Zm2.766,4.477V39.336a3.792,3.792,0,0,0,2.3.773q1.688,0,1.688-1.125a.976.976,0,0,0-.145-.543,1.44,1.44,0,0,0-.391-.395,3.007,3.007,0,0,0-.578-.309q-.332-.137-.715-.285a9.206,9.206,0,0,1-.934-.426,2.82,2.82,0,0,1-.672-.484,1.8,1.8,0,0,1-.406-.613,2.17,2.17,0,0,1-.137-.8,1.912,1.912,0,0,1,.258-1,2.286,2.286,0,0,1,.688-.727,3.206,3.206,0,0,1,.98-.441,4.349,4.349,0,0,1,1.137-.148,4.59,4.59,0,0,1,1.859.359v1.3a3.624,3.624,0,0,0-2.031-.578,2.374,2.374,0,0,0-.648.082,1.587,1.587,0,0,0-.5.23,1.065,1.065,0,0,0-.32.355.936.936,0,0,0-.113.457,1.1,1.1,0,0,0,.113.523,1.152,1.152,0,0,0,.332.375,2.538,2.538,0,0,0,.531.3q.312.133.711.289a9.894,9.894,0,0,1,.953.418,3.269,3.269,0,0,1,.719.484,1.893,1.893,0,0,1,.457.621,2,2,0,0,1,.16.836,1.971,1.971,0,0,1-.262,1.031,2.243,2.243,0,0,1-.7.727,3.2,3.2,0,0,1-1.008.43,4.976,4.976,0,0,1-1.2.141A4.539,4.539,0,0,1,148.414,40.711Zm12.727-.078a4.163,4.163,0,0,1-2.187.555,3.622,3.622,0,0,1-2.762-1.113,4.035,4.035,0,0,1-1.051-2.887,4.435,4.435,0,0,1,1.133-3.176,3.963,3.963,0,0,1,3.023-1.2,4.208,4.208,0,0,1,1.859.391v1.313a3.258,3.258,0,0,0-1.906-.625,2.576,2.576,0,0,0-2.012.879,3.335,3.335,0,0,0-.785,2.309,3.176,3.176,0,0,0,.738,2.219,2.545,2.545,0,0,0,1.98.813,3.211,3.211,0,0,0,1.969-.7ZM167.25,34.3a1.567,1.567,0,0,0-.969-.258,1.635,1.635,0,0,0-1.371.773,3.576,3.576,0,0,0-.551,2.109V41h-1.281V33h1.281v1.648h.031a2.794,2.794,0,0,1,.836-1.316,1.906,1.906,0,0,1,1.258-.473,2.092,2.092,0,0,1,.766.109Zm2.047-3.328a.812.812,0,0,1-.586-.234.791.791,0,0,1-.242-.594.821.821,0,0,1,.828-.836.827.827,0,0,1,.6.238.835.835,0,0,1,0,1.184A.82.82,0,0,1,169.3,30.969ZM169.922,41h-1.281V33h1.281Zm3.906-1.156H173.8V44.68h-1.281V33H173.8v1.406h.031a3.03,3.03,0,0,1,2.766-1.594,2.93,2.93,0,0,1,2.414,1.074,4.449,4.449,0,0,1,.867,2.879,4.958,4.958,0,0,1-.977,3.215,3.251,3.251,0,0,1-2.672,1.207A2.676,2.676,0,0,1,173.828,39.844Zm-.031-3.227v1.117a2.379,2.379,0,0,0,.645,1.684,2.3,2.3,0,0,0,3.461-.2,4.086,4.086,0,0,0,.66-2.477,3.225,3.225,0,0,0-.617-2.094,2.043,2.043,0,0,0-1.672-.758,2.27,2.27,0,0,0-1.8.777A2.854,2.854,0,0,0,173.8,36.617Zm13.578,4.016a4.163,4.163,0,0,1-2.187.555,3.622,3.622,0,0,1-2.762-1.113,4.035,4.035,0,0,1-1.051-2.887,4.435,4.435,0,0,1,1.133-3.176,3.963,3.963,0,0,1,3.023-1.2,4.208,4.208,0,0,1,1.859.391v1.313a3.258,3.258,0,0,0-1.906-.625,2.576,2.576,0,0,0-2.012.879,3.335,3.335,0,0,0-.785,2.309,3.176,3.176,0,0,0,.738,2.219,2.545,2.545,0,0,0,1.98.813,3.211,3.211,0,0,0,1.969-.7Zm2.594-9.664a.812.812,0,0,1-.586-.234.791.791,0,0,1-.242-.594.821.821,0,0,1,.828-.836.827.827,0,0,1,.6.238.835.835,0,0,1,0,1.184A.82.82,0,0,1,189.969,30.969ZM190.594,41h-1.281V33h1.281Zm5.938.188a3.711,3.711,0,0,1-2.832-1.121,4.153,4.153,0,0,1-1.059-2.973,4.326,4.326,0,0,1,1.1-3.148,3.96,3.96,0,0,1,2.977-1.133,3.588,3.588,0,0,1,2.793,1.1,4.368,4.368,0,0,1,1,3.055,4.3,4.3,0,0,1-1.082,3.066A3.791,3.791,0,0,1,196.531,41.188Zm.094-7.3a2.437,2.437,0,0,0-1.953.84,3.449,3.449,0,0,0-.719,2.316,3.262,3.262,0,0,0,.727,2.242,2.469,2.469,0,0,0,1.945.82,2.342,2.342,0,0,0,1.91-.8,3.492,3.492,0,0,0,.668-2.289,3.552,3.552,0,0,0-.668-2.312A2.332,2.332,0,0,0,196.625,33.891Zm1.875-4.969-2.047,2.563h-.992l1.742-2.562ZM209.2,41h-1.281V36.438q0-2.547-1.859-2.547a2.017,2.017,0,0,0-1.59.723,2.679,2.679,0,0,0-.629,1.824V41h-1.281V33h1.281v1.328h.031a2.887,2.887,0,0,1,2.625-1.516,2.448,2.448,0,0,1,2.008.848,3.776,3.776,0,0,1,.7,2.449ZM39.938,64.711V63.336a3.792,3.792,0,0,0,2.3.773q1.688,0,1.688-1.125a.976.976,0,0,0-.145-.543,1.44,1.44,0,0,0-.391-.395,3.007,3.007,0,0,0-.578-.309q-.332-.137-.715-.285a9.206,9.206,0,0,1-.934-.426,2.82,2.82,0,0,1-.672-.484,1.8,1.8,0,0,1-.406-.613,2.17,2.17,0,0,1-.137-.8,1.912,1.912,0,0,1,.258-1A2.286,2.286,0,0,1,40.9,57.4a3.206,3.206,0,0,1,.98-.441,4.349,4.349,0,0,1,1.137-.148,4.59,4.59,0,0,1,1.859.359v1.3a3.624,3.624,0,0,0-2.031-.578,2.374,2.374,0,0,0-.648.082,1.587,1.587,0,0,0-.5.23,1.065,1.065,0,0,0-.32.355.936.936,0,0,0-.113.457,1.1,1.1,0,0,0,.113.523,1.152,1.152,0,0,0,.332.375,2.538,2.538,0,0,0,.531.3q.312.133.711.289a9.894,9.894,0,0,1,.953.418,3.269,3.269,0,0,1,.719.484,1.893,1.893,0,0,1,.457.621,2,2,0,0,1,.16.836,1.971,1.971,0,0,1-.262,1.031,2.243,2.243,0,0,1-.7.727,3.2,3.2,0,0,1-1.008.43,4.976,4.976,0,0,1-1.2.141A4.539,4.539,0,0,1,39.938,64.711Zm13.7-3.391H47.992a2.992,2.992,0,0,0,.719,2.063,2.478,2.478,0,0,0,1.891.727,3.931,3.931,0,0,0,2.484-.891v1.2a4.643,4.643,0,0,1-2.789.766,3.381,3.381,0,0,1-2.664-1.09,4.461,4.461,0,0,1-.969-3.066,4.375,4.375,0,0,1,1.059-3.043,3.394,3.394,0,0,1,2.629-1.176,3.008,3.008,0,0,1,2.43,1.016,4.234,4.234,0,0,1,.859,2.82Zm-1.312-1.086a2.607,2.607,0,0,0-.535-1.727,1.823,1.823,0,0,0-1.465-.617,2.07,2.07,0,0,0-1.539.648,2.943,2.943,0,0,0-.781,1.7ZM62.406,65H61.125V63.641h-.031a2.958,2.958,0,0,1-2.75,1.547,2.988,2.988,0,0,1-2.41-1.074,4.407,4.407,0,0,1-.9-2.926,4.794,4.794,0,0,1,1-3.18,3.3,3.3,0,0,1,2.664-1.2,2.564,2.564,0,0,1,2.4,1.3h.031V53.156h1.281Zm-1.281-3.617V60.2a2.289,2.289,0,0,0-.641-1.641,2.149,2.149,0,0,0-1.625-.672,2.212,2.212,0,0,0-1.844.859,3.766,3.766,0,0,0-.672,2.375,3.387,3.387,0,0,0,.645,2.184,2.107,2.107,0,0,0,1.73.8,2.188,2.188,0,0,0,1.738-.773A2.882,2.882,0,0,0,61.125,61.383Zm10.3-.062H65.781a2.992,2.992,0,0,0,.719,2.063,2.478,2.478,0,0,0,1.891.727,3.931,3.931,0,0,0,2.484-.891v1.2a4.643,4.643,0,0,1-2.789.766,3.381,3.381,0,0,1-2.664-1.09,4.461,4.461,0,0,1-.969-3.066,4.375,4.375,0,0,1,1.059-3.043,3.394,3.394,0,0,1,2.629-1.176,3.008,3.008,0,0,1,2.43,1.016,4.234,4.234,0,0,1,.859,2.82Zm-1.312-1.086a2.607,2.607,0,0,0-.535-1.727,1.823,1.823,0,0,0-1.465-.617,2.07,2.07,0,0,0-1.539.648,2.943,2.943,0,0,0-.781,1.7Zm2.766,4.477V63.336a3.792,3.792,0,0,0,2.3.773q1.688,0,1.688-1.125a.976.976,0,0,0-.145-.543,1.44,1.44,0,0,0-.391-.395,3.007,3.007,0,0,0-.578-.309q-.332-.137-.715-.285a9.206,9.206,0,0,1-.934-.426,2.82,2.82,0,0,1-.672-.484,1.8,1.8,0,0,1-.406-.613,2.17,2.17,0,0,1-.137-.8,1.912,1.912,0,0,1,.258-1,2.286,2.286,0,0,1,.688-.727,3.206,3.206,0,0,1,.98-.441,4.349,4.349,0,0,1,1.137-.148,4.59,4.59,0,0,1,1.859.359v1.3a3.624,3.624,0,0,0-2.031-.578,2.374,2.374,0,0,0-.648.082,1.587,1.587,0,0,0-.5.23,1.065,1.065,0,0,0-.32.355.936.936,0,0,0-.113.457,1.1,1.1,0,0,0,.113.523,1.152,1.152,0,0,0,.332.375,2.538,2.538,0,0,0,.531.3q.313.133.711.289a9.9,9.9,0,0,1,.953.418,3.269,3.269,0,0,1,.719.484,1.893,1.893,0,0,1,.457.621,2,2,0,0,1,.16.836,1.971,1.971,0,0,1-.262,1.031,2.243,2.243,0,0,1-.7.727,3.2,3.2,0,0,1-1.008.43,4.976,4.976,0,0,1-1.2.141A4.539,4.539,0,0,1,72.883,64.711Zm8.445-1.492-1.25,3.844h-.914l.914-3.844ZM98.086,57l-2.4,8H94.359l-1.648-5.727a3.732,3.732,0,0,1-.125-.742h-.031a3.5,3.5,0,0,1-.164.727L90.6,65H89.32L86.9,57h1.344L89.9,63.016a3.624,3.624,0,0,1,.109.719h.063A3.362,3.362,0,0,1,90.211,63l1.844-6h1.172l1.656,6.031A4.305,4.305,0,0,1,95,63.75h.063a3.324,3.324,0,0,1,.133-.719L96.82,57ZM106,61.32h-5.648a2.992,2.992,0,0,0,.719,2.063,2.478,2.478,0,0,0,1.891.727,3.931,3.931,0,0,0,2.484-.891v1.2a4.643,4.643,0,0,1-2.789.766,3.381,3.381,0,0,1-2.664-1.09,4.461,4.461,0,0,1-.969-3.066,4.375,4.375,0,0,1,1.059-3.043,3.394,3.394,0,0,1,2.629-1.176,3.008,3.008,0,0,1,2.43,1.016,4.234,4.234,0,0,1,.859,2.82Zm-1.312-1.086a2.607,2.607,0,0,0-.535-1.727,1.823,1.823,0,0,0-1.465-.617,2.07,2.07,0,0,0-1.539.648,2.943,2.943,0,0,0-.781,1.7Zm4.563,3.609h-.031V65h-1.281V53.156h1.281v5.25h.031a3.03,3.03,0,0,1,2.766-1.594,2.932,2.932,0,0,1,2.41,1.074,4.436,4.436,0,0,1,.871,2.879,4.959,4.959,0,0,1-.977,3.215,3.251,3.251,0,0,1-2.672,1.207A2.631,2.631,0,0,1,109.25,63.844Zm-.031-3.227v1.117a2.379,2.379,0,0,0,.645,1.684,2.3,2.3,0,0,0,3.461-.2,4.086,4.086,0,0,0,.66-2.477,3.225,3.225,0,0,0-.617-2.094,2.043,2.043,0,0,0-1.672-.758,2.27,2.27,0,0,0-1.8.777A2.854,2.854,0,0,0,109.219,60.617Zm9.3,2.6-1.25,3.844h-.914l.914-3.844Zm10.633-8.937a1.707,1.707,0,0,0-.852-.211q-1.344,0-1.344,1.7V57h1.875v1.094h-1.875V65H125.68V58.094h-1.367V57h1.367V55.7a2.7,2.7,0,0,1,.727-1.988,2.453,2.453,0,0,1,1.813-.73,2.511,2.511,0,0,1,.93.141Zm4.4,10.906a3.711,3.711,0,0,1-2.832-1.121,4.153,4.153,0,0,1-1.059-2.973,4.326,4.326,0,0,1,1.1-3.148,3.96,3.96,0,0,1,2.977-1.133,3.588,3.588,0,0,1,2.793,1.1,4.368,4.368,0,0,1,1,3.055,4.3,4.3,0,0,1-1.082,3.066A3.791,3.791,0,0,1,133.547,65.188Zm.094-7.3a2.437,2.437,0,0,0-1.953.84,3.449,3.449,0,0,0-.719,2.316,3.262,3.262,0,0,0,.727,2.242,2.469,2.469,0,0,0,1.945.82,2.342,2.342,0,0,0,1.91-.8,3.492,3.492,0,0,0,.668-2.289,3.552,3.552,0,0,0-.668-2.312A2.332,2.332,0,0,0,133.641,57.891Zm9.648,7.031a2.47,2.47,0,0,1-1.2.25q-2.1,0-2.1-2.344V58.094h-1.375V57h1.375V55.047l1.281-.414V57h2.016v1.094h-2.016V62.6a1.869,1.869,0,0,0,.273,1.148,1.091,1.091,0,0,0,.906.344,1.347,1.347,0,0,0,.836-.266Zm5.055.266a3.711,3.711,0,0,1-2.832-1.121,4.153,4.153,0,0,1-1.059-2.973,4.326,4.326,0,0,1,1.1-3.148,3.96,3.96,0,0,1,2.977-1.133,3.588,3.588,0,0,1,2.793,1.1,4.368,4.368,0,0,1,1,3.055,4.3,4.3,0,0,1-1.082,3.066A3.791,3.791,0,0,1,148.344,65.188Zm.094-7.3a2.437,2.437,0,0,0-1.953.84,3.449,3.449,0,0,0-.719,2.316,3.262,3.262,0,0,0,.727,2.242,2.469,2.469,0,0,0,1.945.82,2.342,2.342,0,0,0,1.91-.8,3.492,3.492,0,0,0,.668-2.289,3.552,3.552,0,0,0-.668-2.312A2.332,2.332,0,0,0,148.438,57.891Zm5.453,6.82V63.336a3.792,3.792,0,0,0,2.3.773q1.688,0,1.688-1.125a.976.976,0,0,0-.145-.543,1.44,1.44,0,0,0-.391-.395,3.007,3.007,0,0,0-.578-.309q-.332-.137-.715-.285a9.206,9.206,0,0,1-.934-.426,2.82,2.82,0,0,1-.672-.484,1.8,1.8,0,0,1-.406-.613,2.17,2.17,0,0,1-.137-.8,1.912,1.912,0,0,1,.258-1,2.286,2.286,0,0,1,.688-.727,3.206,3.206,0,0,1,.98-.441,4.349,4.349,0,0,1,1.137-.148,4.59,4.59,0,0,1,1.859.359v1.3a3.624,3.624,0,0,0-2.031-.578,2.374,2.374,0,0,0-.648.082,1.587,1.587,0,0,0-.5.23,1.065,1.065,0,0,0-.32.355.936.936,0,0,0-.113.457,1.1,1.1,0,0,0,.113.523,1.152,1.152,0,0,0,.332.375,2.538,2.538,0,0,0,.531.3q.312.133.711.289a9.894,9.894,0,0,1,.953.418,3.269,3.269,0,0,1,.719.484,1.893,1.893,0,0,1,.457.621,2,2,0,0,1,.16.836,1.971,1.971,0,0,1-.262,1.031,2.243,2.243,0,0,1-.7.727,3.2,3.2,0,0,1-1.008.43,4.976,4.976,0,0,1-1.2.141A4.539,4.539,0,0,1,153.891,64.711Zm15.758.43a.816.816,0,0,1-.605-.25.836.836,0,0,1-.246-.609.876.876,0,0,1,.246-.621.8.8,0,0,1,.605-.262.815.815,0,0,1,.605.262.862.862,0,0,1,.254.621.823.823,0,0,1-.254.609A.833.833,0,0,1,169.648,65.141Zm-3.922,0a.842.842,0,0,1-.613-.25.823.823,0,0,1-.254-.609.862.862,0,0,1,.254-.621.823.823,0,0,1,.613-.262.815.815,0,0,1,.605.262.862.862,0,0,1,.254.621.823.823,0,0,1-.254.609A.833.833,0,0,1,165.727,65.141Zm-3.922,0a.8.8,0,0,1-.6-.25.843.843,0,0,1-.242-.609.884.884,0,0,1,.242-.621.786.786,0,0,1,.6-.262.815.815,0,0,1,.605.262.862.862,0,0,1,.254.621.854.854,0,0,1-.859.859Z" transform="translate(222 7763.821)" fill="#12263f"/>
    <path id="Trazado_217552" data-name="Trazado 217552" d="M75.511,18.174a8.127,8.127,0,0,1-2.127.725,12.21,12.21,0,0,1-2.7.321,7.285,7.285,0,0,1-5.115-1.657,5.994,5.994,0,0,1-1.8-4.645,6.92,6.92,0,0,1,.91-3.56A5.9,5.9,0,0,1,67.24,6.994a8.766,8.766,0,0,1,3.894-.809,14.489,14.489,0,0,1,3.507.466V9.965a7.456,7.456,0,0,0-1.67-.549,9.275,9.275,0,0,0-1.749-.154,3.341,3.341,0,0,0-2.492.94,3.52,3.52,0,0,0-.927,2.584,3.609,3.609,0,0,0,.778,2.461,2.739,2.739,0,0,0,2.175.888,4.709,4.709,0,0,0,.958-.07v-1.8H69.3V11.389h6.214Zm4.931-2.61a1.265,1.265,0,0,0,.668.91,3.012,3.012,0,0,0,1.512.33,6.226,6.226,0,0,0,2.479-.5v2.373a8.908,8.908,0,0,1-3.3.545,5.214,5.214,0,0,1-3.665-1.2A4.277,4.277,0,0,1,76.82,14.7a5.467,5.467,0,0,1,.576-2.558A4.142,4.142,0,0,1,79.1,10.409a5.038,5.038,0,0,1,2.492-.628,4.9,4.9,0,0,1,2.391.545,3.63,3.63,0,0,1,1.507,1.529,4.906,4.906,0,0,1,.514,2.3v1.406Zm2.25-1.96q0-1.556-1.116-1.556a.944.944,0,0,0-.782.426,2.127,2.127,0,0,0-.369,1.129Zm11.918,2.408a2.749,2.749,0,0,1-1.165,2.369,5.474,5.474,0,0,1-3.248.839,11.291,11.291,0,0,1-1.5-.123,9.257,9.257,0,0,1-1.455-.3V16.17a7.162,7.162,0,0,0,2.777.738q1.1,0,1.1-.571a.451.451,0,0,0-.255-.391,9.009,9.009,0,0,0-1.336-.514,3.773,3.773,0,0,1-1.74-1,2.382,2.382,0,0,1-.545-1.626,2.594,2.594,0,0,1,1.112-2.21A5.216,5.216,0,0,1,91.48,9.78a9.931,9.931,0,0,1,2.5.343v2.522a7.549,7.549,0,0,0-1.213-.4,4.9,4.9,0,0,0-1.107-.158,1.205,1.205,0,0,0-.589.123.379.379,0,0,0-.22.343.478.478,0,0,0,.237.413,4.2,4.2,0,0,0,.949.378,4.4,4.4,0,0,1,1.978,1.037A2.272,2.272,0,0,1,94.609,16.012Zm7.717,2.865a3.648,3.648,0,0,1-.835.233,7.634,7.634,0,0,1-1.4.11,3.357,3.357,0,0,1-2.448-.861,3.269,3.269,0,0,1-.883-2.452V12.593H95.348V10h1.415V8.233l3.691-1.02V10h1.872v2.593h-1.872v2.7q0,1.187.94,1.187a2.551,2.551,0,0,0,.932-.193Zm5.133-11.3a1.608,1.608,0,0,1-.576,1.283,2.252,2.252,0,0,1-1.516.492,2.2,2.2,0,0,1-1.5-.51,1.612,1.612,0,0,1-.584-1.266,1.561,1.561,0,0,1,.567-1.252,2.639,2.639,0,0,1,3.032,0A1.551,1.551,0,0,1,107.459,7.574ZM103.5,19V10h3.744v9Zm15.557-4.658a4.687,4.687,0,0,1-1.375,3.577,6.355,6.355,0,0,1-7.664.031,4.546,4.546,0,0,1-1.367-3.5,4.692,4.692,0,0,1,.642-2.487,4.172,4.172,0,0,1,1.828-1.617,6.311,6.311,0,0,1,2.733-.562,6.113,6.113,0,0,1,2.773.589,4.286,4.286,0,0,1,1.8,1.635A4.452,4.452,0,0,1,119.052,14.342Zm-3.8.018q0-1.837-1.406-1.837t-1.406,1.925q0,2.03,1.424,2.03Q115.255,16.478,115.255,14.359ZM126.285,19V14.087a2.184,2.184,0,0,0-.25-1.2.915.915,0,0,0-.813-.365.88.88,0,0,0-.756.378,1.613,1.613,0,0,0-.272.967V19h-3.744V10h3.744v1.406h.035a3.177,3.177,0,0,1,1.2-1.2,3.29,3.29,0,0,1,1.644-.426q2.953,0,2.953,3.727V19Zm10.424,0V17.629h-.035a2.944,2.944,0,0,1-2.742,1.591,2.625,2.625,0,0,1-2-.756,2.808,2.808,0,0,1-.721-2.021q0-2.654,3.261-3.076l2.232-.29a.851.851,0,0,0-.4-.721,1.8,1.8,0,0,0-1.063-.281,7,7,0,0,0-3.19.861V10.5a8.535,8.535,0,0,1,1.828-.519,10.639,10.639,0,0,1,1.881-.2,4.722,4.722,0,0,1,3.327.98,4.368,4.368,0,0,1,1.033,3.274V19Zm-2.215-3.059a.83.83,0,0,0,.233.606.888.888,0,0,0,.664.237,1.18,1.18,0,0,0,.954-.439,1.7,1.7,0,0,0,.365-1.125v-.343l-1.266.176Q134.494,15.212,134.494,15.941Zm14.089-2.733a3.6,3.6,0,0,0-1.169-.255q-1.854,0-1.854,2.145V19h-3.744V10h3.744v1.582h.035a2.81,2.81,0,0,1,.976-1.3,2.506,2.506,0,0,1,1.477-.444,1.269,1.269,0,0,1,.536.105ZM56.777,31.574a1.608,1.608,0,0,1-.576,1.283,2.252,2.252,0,0,1-1.516.492,2.2,2.2,0,0,1-1.5-.51,1.612,1.612,0,0,1-.584-1.266,1.561,1.561,0,0,1,.567-1.252,2.639,2.639,0,0,1,3.032,0A1.551,1.551,0,0,1,56.777,31.574ZM52.813,43V34h3.744v9Zm11.382,0V38.087a2.184,2.184,0,0,0-.25-1.2.915.915,0,0,0-.813-.365.88.88,0,0,0-.756.378,1.613,1.613,0,0,0-.272.967V43H58.359V34H62.1v1.406h.035a3.177,3.177,0,0,1,1.2-1.2,3.29,3.29,0,0,1,1.644-.426q2.953,0,2.953,3.727V43ZM76.561,32.4a3.3,3.3,0,0,0-1.081-.2,1.2,1.2,0,0,0-.923.321,1.22,1.22,0,0,0-.3.866V34h2.083v2.593H74.258V43H70.514V36.593H69V34h1.512v-.826a3.659,3.659,0,0,1,.51-1.938A3.4,3.4,0,0,1,72.5,29.931a5.423,5.423,0,0,1,2.36-.466,6.406,6.406,0,0,1,1.7.193ZM87.4,38.342a4.687,4.687,0,0,1-1.375,3.577,6.355,6.355,0,0,1-7.664.031,4.546,4.546,0,0,1-1.367-3.5,4.692,4.692,0,0,1,.642-2.487,4.172,4.172,0,0,1,1.828-1.617,6.311,6.311,0,0,1,2.733-.562,6.113,6.113,0,0,1,2.773.589A4.286,4.286,0,0,1,86.77,36,4.452,4.452,0,0,1,87.4,38.342Zm-3.8.018q0-1.837-1.406-1.837t-1.406,1.925q0,2.03,1.424,2.03Q83.6,40.478,83.6,38.359Zm11.962-1.151a3.6,3.6,0,0,0-1.169-.255q-1.854,0-1.854,2.145V43H88.8V34H92.54v1.582h.035a2.81,2.81,0,0,1,.976-1.3,2.506,2.506,0,0,1,1.477-.444,1.269,1.269,0,0,1,.536.105ZM108.316,43V37.814a1.654,1.654,0,0,0-.233-.971.876.876,0,0,0-.76-.321.949.949,0,0,0-.809.391,1.79,1.79,0,0,0-.29,1.085v5H102.48V37.9q0-1.38-.94-1.38a1,1,0,0,0-.861.4,1.933,1.933,0,0,0-.29,1.147V43H96.644V34h3.744v1.424h.035a2.9,2.9,0,0,1,.672-.769,3.946,3.946,0,0,1,1.042-.633,3.235,3.235,0,0,1,1.257-.242,3.181,3.181,0,0,1,1.613.378,2.931,2.931,0,0,1,1.094,1.2,3.207,3.207,0,0,1,1.266-1.165,3.772,3.772,0,0,1,1.758-.409,2.645,2.645,0,0,1,2.171.923,4.109,4.109,0,0,1,.756,2.663V43Zm10.424,0V41.629H118.7a2.944,2.944,0,0,1-2.742,1.591,2.625,2.625,0,0,1-2-.756,2.808,2.808,0,0,1-.721-2.021q0-2.654,3.261-3.076l2.232-.29a.851.851,0,0,0-.4-.721,1.8,1.8,0,0,0-1.063-.281,7,7,0,0,0-3.19.861V34.5a8.535,8.535,0,0,1,1.828-.519,10.639,10.639,0,0,1,1.881-.2,4.722,4.722,0,0,1,3.327.98,4.368,4.368,0,0,1,1.033,3.274V43Zm-2.215-3.059a.83.83,0,0,0,.233.606.888.888,0,0,0,.664.237,1.18,1.18,0,0,0,.954-.439,1.7,1.7,0,0,0,.365-1.125v-.343l-1.266.176Q116.525,39.212,116.525,39.941Zm14.739,2.8a3.529,3.529,0,0,1-1.134.343,10.719,10.719,0,0,1-1.784.132,5.488,5.488,0,0,1-2.544-.576,4.2,4.2,0,0,1-1.736-1.613,4.478,4.478,0,0,1-.615-2.329,5.1,5.1,0,0,1,.655-2.65,4.268,4.268,0,0,1,1.868-1.687,6.407,6.407,0,0,1,2.813-.584,9.839,9.839,0,0,1,1.578.114,2.41,2.41,0,0,1,.9.264v2.918a2.6,2.6,0,0,0-.809-.387,3.248,3.248,0,0,0-.976-.167,2.375,2.375,0,0,0-1.666.523,1.9,1.9,0,0,0-.567,1.472,1.868,1.868,0,0,0,.558,1.446,2.177,2.177,0,0,0,1.534.514,3.82,3.82,0,0,0,1.925-.5Zm5.458-11.171a1.608,1.608,0,0,1-.576,1.283,2.252,2.252,0,0,1-1.516.492,2.2,2.2,0,0,1-1.5-.51,1.612,1.612,0,0,1-.584-1.266,1.561,1.561,0,0,1,.567-1.252,2.639,2.639,0,0,1,3.032,0A1.551,1.551,0,0,1,136.722,31.574ZM132.758,43V34H136.5v9Zm15.557-4.658a4.687,4.687,0,0,1-1.375,3.577,6.355,6.355,0,0,1-7.664.031,4.546,4.546,0,0,1-1.367-3.5,4.692,4.692,0,0,1,.642-2.487,4.172,4.172,0,0,1,1.828-1.617,6.311,6.311,0,0,1,2.733-.562,6.113,6.113,0,0,1,2.773.589,4.286,4.286,0,0,1,1.8,1.635A4.452,4.452,0,0,1,148.315,38.342Zm-3.8.018q0-1.837-1.406-1.837t-1.406,1.925q0,2.03,1.424,2.03Q144.518,40.478,144.518,38.359Zm-.94-5.783h-2.646l2.628-2.821h3.146ZM155.548,43V38.087a2.184,2.184,0,0,0-.25-1.2.915.915,0,0,0-.813-.365.88.88,0,0,0-.756.378,1.613,1.613,0,0,0-.272.967V43h-3.744V34h3.744v1.406h.035a3.177,3.177,0,0,1,1.2-1.2,3.29,3.29,0,0,1,1.644-.426q2.953,0,2.953,3.727V43Z" transform="translate(222 7705.987)" fill="#12263f"/>
    <path id="Trazado_217551" data-name="Trazado 217551" d="M16.738.72Q1.988.72,1.988-19.993q0-10.746,3.99-16.378T17.544-42q14.4,0,14.4,21.059,0,10.486-3.932,16.075T16.738.72Zm.4-35.78q-5.906,0-5.906,14.836,0,13.972,5.791,13.972,5.646,0,5.646-14.4T17.141-35.06Zm40.764-7.173V0H48.831V-31.978a10.867,10.867,0,0,1-1.772,1.253,18.29,18.29,0,0,1-2.175,1.066,19.421,19.421,0,0,1-2.391.807,17.464,17.464,0,0,1-2.449.475V-36.04a37.855,37.855,0,0,0,6.684-2.65A38.036,38.036,0,0,0,52.4-42.233Z" transform="translate(460.738 7759.987)" fill="#12263f" opacity="0.273"/>
  </g>
</svg>
