<svg xmlns="http://www.w3.org/2000/svg" xmlns:xlink="http://www.w3.org/1999/xlink" width="360.524" height="348.964" viewBox="0 0 360.524 348.964">
  <defs>
    <filter id="Rectángulo_46669" x="19.122" y="20.189" width="255.091" height="328.774" filterUnits="userSpaceOnUse">
      <feOffset dy="3" input="SourceAlpha"/>
      <feGaussianBlur stdDeviation="3" result="blur"/>
      <feFlood flood-opacity="0.161"/>
      <feComposite operator="in" in2="blur"/>
      <feComposite in="SourceGraphic"/>
    </filter>
    <clipPath id="clip-path">
      <rect id="Rectángulo_53997" data-name="Rectángulo 53997" width="76.228" height="76.23" fill="#12263f"/>
    </clipPath>
  </defs>
  <g id="Grupo_175163" data-name="Grupo 175163" transform="translate(-1022.477 -7582.525)">
    <g id="Grupo_166677" data-name="Grupo 166677" transform="translate(1022.477 7582.525)">
      <g id="Grupo_166659" data-name="Grupo 166659" transform="translate(0 1.175)">
        <path id="Trazado_210944" data-name="Trazado 210944" d="M170.8,4171.759h-1.927a2.285,2.285,0,1,1,0-4.548H170.8a2.285,2.285,0,1,1,0,4.548Zm-21.2,0h-1.927a2.285,2.285,0,1,1,0-4.548h1.927a2.285,2.285,0,1,1,0,4.548Zm-21.2,0h-1.927a2.285,2.285,0,1,1,0-4.548h1.927a2.285,2.285,0,1,1,0,4.548Zm-21.2,0h-1.927a2.285,2.285,0,1,1,0-4.548h1.927a2.285,2.285,0,1,1,0,4.548Zm-21.2,0H84.066a2.285,2.285,0,1,1,0-4.548h1.927a2.285,2.285,0,1,1,0,4.548Zm-21.2,0H62.865a2.285,2.285,0,1,1,0-4.548h1.927a2.285,2.285,0,1,1,0,4.548Zm-21.2,0H41.665a2.285,2.285,0,1,1,0-4.548h1.927a2.285,2.285,0,1,1,0,4.548Zm-21.2,0H20.464a2.285,2.285,0,1,1,0-4.548h1.927a2.285,2.285,0,1,1,0,4.548Zm-21.2,0H-.736a2.4,2.4,0,0,1-2.506-2.274,2.4,2.4,0,0,1,2.506-2.274H1.191a2.285,2.285,0,1,1,0,4.548Zm-21.2,0h-1.927a2.4,2.4,0,0,1-2.506-2.274,2.4,2.4,0,0,1,2.506-2.274h1.927a2.4,2.4,0,0,1,2.506,2.274A2.4,2.4,0,0,1-20.01,4171.759Zm-21.2-.057c-.058,0-.116,0-.175-.006-.7-.043-1.406-.111-2.1-.2a2.321,2.321,0,0,1-2.125-2.573,2.479,2.479,0,0,1,2.835-1.929c.571.074,1.154.13,1.733.166a2.361,2.361,0,0,1,2.328,2.425A2.419,2.419,0,0,1-41.205,4171.7Zm219.1-.827a2.485,2.485,0,0,1-2.41-1.658,2.255,2.255,0,0,1,1.732-2.806c.559-.143,1.117-.306,1.658-.484a2.582,2.582,0,0,1,3.21,1.361,2.222,2.222,0,0,1-1.5,2.914c-.656.216-1.332.414-2.009.587A2.747,2.747,0,0,1,177.894,4170.875Zm-237.439-7.727a2.61,2.61,0,0,1-1.931-.823c-.448-.491-.88-1-1.285-1.519a2.143,2.143,0,0,1,.589-3.171,2.673,2.673,0,0,1,3.494.535c.335.428.692.85,1.062,1.254a2.133,2.133,0,0,1-.332,3.2A2.653,2.653,0,0,1-59.545,4163.148Zm253.474-4.041a2.705,2.705,0,0,1-1.17-.265,2.174,2.174,0,0,1-1.042-3.074c.271-.465.525-.943.757-1.424a2.609,2.609,0,0,1,3.3-1.171,2.2,2.2,0,0,1,1.29,3c-.281.583-.59,1.164-.919,1.728A2.552,2.552,0,0,1,193.929,4159.108Zm-259.475-13.919a2.4,2.4,0,0,1-2.506-2.274v-1.75a2.4,2.4,0,0,1,2.506-2.274,2.4,2.4,0,0,1,2.506,2.274v1.75A2.4,2.4,0,0,1-65.546,4145.188Zm262.5-4.873a2.4,2.4,0,0,1-2.506-2.274v-1.75a2.517,2.517,0,0,1,5.011,0v1.75A2.4,2.4,0,0,1,196.955,4140.315Zm-262.5-14.369a2.4,2.4,0,0,1-2.506-2.274v-1.75a2.4,2.4,0,0,1,2.506-2.274,2.4,2.4,0,0,1,2.506,2.274v1.75A2.4,2.4,0,0,1-65.546,4125.946Zm262.5-4.874a2.4,2.4,0,0,1-2.506-2.274v-1.75a2.517,2.517,0,0,1,5.011,0v1.75A2.4,2.4,0,0,1,196.955,4121.073Zm-262.5-14.369a2.4,2.4,0,0,1-2.506-2.274v-1.749a2.4,2.4,0,0,1,2.506-2.274,2.4,2.4,0,0,1,2.506,2.274v1.749A2.4,2.4,0,0,1-65.546,4106.7Zm262.5-4.873a2.4,2.4,0,0,1-2.506-2.274v-1.749a2.517,2.517,0,0,1,5.011,0v1.749A2.4,2.4,0,0,1,196.955,4101.831Zm-262.5-14.369a2.4,2.4,0,0,1-2.506-2.274v-1.749a2.4,2.4,0,0,1,2.506-2.274,2.4,2.4,0,0,1,2.506,2.274v1.749A2.4,2.4,0,0,1-65.546,4087.462Zm262.5-4.873a2.4,2.4,0,0,1-2.506-2.274v-1.749a2.517,2.517,0,0,1,5.011,0v1.749A2.4,2.4,0,0,1,196.955,4082.589Zm-262.5-14.369a2.4,2.4,0,0,1-2.506-2.274V4064.2a2.4,2.4,0,0,1,2.506-2.274,2.4,2.4,0,0,1,2.506,2.274v1.749A2.4,2.4,0,0,1-65.546,4068.219Zm262.5-4.873a2.4,2.4,0,0,1-2.506-2.274v-1.75a2.517,2.517,0,0,1,5.011,0v1.75A2.4,2.4,0,0,1,196.955,4063.346Zm-262.5-14.369a2.4,2.4,0,0,1-2.506-2.274v-1.749a2.4,2.4,0,0,1,2.506-2.274,2.4,2.4,0,0,1,2.506,2.274v1.749A2.4,2.4,0,0,1-65.546,4048.978Zm262.5-4.874a2.4,2.4,0,0,1-2.506-2.274v-1.749a2.517,2.517,0,0,1,5.011,0v1.749A2.4,2.4,0,0,1,196.955,4044.1Zm-262.5-14.369a2.4,2.4,0,0,1-2.506-2.274v-1.75a2.4,2.4,0,0,1,2.506-2.274,2.4,2.4,0,0,1,2.506,2.274v1.75A2.4,2.4,0,0,1-65.546,4029.735Zm262.5-4.874a2.4,2.4,0,0,1-2.506-2.274v-1.749a2.517,2.517,0,0,1,5.011,0v1.749A2.4,2.4,0,0,1,196.955,4024.862Zm-262.5-14.369a2.4,2.4,0,0,1-2.506-2.274v-1.749a2.4,2.4,0,0,1,2.506-2.274,2.4,2.4,0,0,1,2.506,2.274v1.749A2.4,2.4,0,0,1-65.546,4010.493Zm262.5-4.873a2.4,2.4,0,0,1-2.506-2.274V4001.6a2.517,2.517,0,0,1,5.011,0v1.749A2.4,2.4,0,0,1,196.955,4005.62Zm-262.5-14.369a2.4,2.4,0,0,1-2.506-2.274v-1.749a2.4,2.4,0,0,1,2.506-2.274,2.4,2.4,0,0,1,2.506,2.274v1.749A2.4,2.4,0,0,1-65.546,3991.251Zm262.5-4.873a2.4,2.4,0,0,1-2.506-2.274v-1.749a2.517,2.517,0,0,1,5.011,0v1.749A2.4,2.4,0,0,1,196.955,3986.378Zm-262.5-14.369a2.4,2.4,0,0,1-2.506-2.274v-1.75a2.4,2.4,0,0,1,2.506-2.274,2.4,2.4,0,0,1,2.506,2.274v1.75A2.4,2.4,0,0,1-65.546,3972.009Zm262.5-4.873a2.4,2.4,0,0,1-2.506-2.274v-1.75a2.517,2.517,0,0,1,5.011,0v1.75A2.4,2.4,0,0,1,196.955,3967.136Zm-262.5-14.369a2.4,2.4,0,0,1-2.506-2.274v-1.75a2.4,2.4,0,0,1,2.506-2.274,2.4,2.4,0,0,1,2.506,2.274v1.75A2.4,2.4,0,0,1-65.546,3952.767Zm262.5-4.873a2.4,2.4,0,0,1-2.506-2.274v-1.749a2.517,2.517,0,0,1,5.011,0v1.749A2.4,2.4,0,0,1,196.955,3947.894Zm-262.5-14.369a2.4,2.4,0,0,1-2.506-2.274V3929.5a2.4,2.4,0,0,1,2.506-2.274,2.4,2.4,0,0,1,2.506,2.274v1.749A2.4,2.4,0,0,1-65.546,3933.525Zm262.5-4.873a2.4,2.4,0,0,1-2.506-2.274v-1.749a2.517,2.517,0,0,1,5.011,0v1.749A2.4,2.4,0,0,1,196.955,3928.651Zm-262.5-14.369a2.4,2.4,0,0,1-2.506-2.274v-1.749a2.4,2.4,0,0,1,2.506-2.274,2.4,2.4,0,0,1,2.506,2.274v1.749A2.4,2.4,0,0,1-65.546,3914.282Zm262.5-4.873a2.4,2.4,0,0,1-2.506-2.274v-1.749a2.517,2.517,0,0,1,5.011,0v1.749A2.4,2.4,0,0,1,196.955,3909.409Zm-262.5-14.369a2.4,2.4,0,0,1-2.506-2.274v-1.749a2.4,2.4,0,0,1,2.506-2.274,2.4,2.4,0,0,1,2.506,2.274v1.749A2.4,2.4,0,0,1-65.546,3895.04Zm262.5-4.873a2.4,2.4,0,0,1-2.506-2.274v-.44c0-.394-.012-.793-.035-1.186a2.368,2.368,0,0,1,2.366-2.394,2.428,2.428,0,0,1,2.638,2.147c.028.474.043.956.043,1.432v.44A2.4,2.4,0,0,1,196.955,3890.167Zm-258.136-13.58a2.674,2.674,0,0,1-1.386-.381,2.149,2.149,0,0,1-.7-3.153c.389-.53.8-1.053,1.233-1.555a2.68,2.68,0,0,1,3.516-.4,2.137,2.137,0,0,1,.441,3.191c-.355.414-.7.846-1.019,1.284A2.581,2.581,0,0,1-61.181,3876.587Zm250.358-3.753a2.634,2.634,0,0,1-1.761-.657c-.41-.368-.842-.728-1.284-1.07a2.132,2.132,0,0,1-.281-3.206,2.686,2.686,0,0,1,3.532-.255c.535.414,1.058.85,1.555,1.3a2.129,2.129,0,0,1,.02,3.216A2.631,2.631,0,0,1,189.177,3872.834Zm-233.1-6.494a2.451,2.451,0,0,1-2.465-1.883,2.3,2.3,0,0,1,2.036-2.632c.692-.11,1.4-.2,2.092-.26a2.455,2.455,0,0,1,2.741,2.039,2.343,2.343,0,0,1-2.246,2.487c-.574.052-1.153.124-1.724.214A2.714,2.714,0,0,1-43.925,3866.34Zm213.911-.356h-1.927a2.285,2.285,0,1,1,0-4.548h1.927a2.285,2.285,0,1,1,0,4.548Zm-21.2,0h-1.927a2.285,2.285,0,1,1,0-4.548h1.927a2.285,2.285,0,1,1,0,4.548Zm-21.2,0h-1.927a2.285,2.285,0,1,1,0-4.548h1.927a2.285,2.285,0,1,1,0,4.548Zm-21.2,0h-1.927a2.285,2.285,0,1,1,0-4.548h1.927a2.285,2.285,0,1,1,0,4.548Zm-21.2,0H83.257a2.285,2.285,0,1,1,0-4.548h1.927a2.285,2.285,0,1,1,0,4.548Zm-21.2,0H62.056a2.285,2.285,0,1,1,0-4.548h1.927a2.285,2.285,0,1,1,0,4.548Zm-21.2,0H40.856a2.285,2.285,0,1,1,0-4.548h1.927a2.285,2.285,0,1,1,0,4.548Zm-21.2,0H19.655a2.285,2.285,0,1,1,0-4.548h1.927a2.285,2.285,0,1,1,0,4.548Zm-21.2,0H-1.546a2.4,2.4,0,0,1-2.506-2.274,2.4,2.4,0,0,1,2.506-2.274H.382a2.285,2.285,0,1,1,0,4.548Zm-21.2,0h-1.927a2.4,2.4,0,0,1-2.506-2.274,2.4,2.4,0,0,1,2.506-2.274h1.927a2.4,2.4,0,0,1,2.506,2.274A2.4,2.4,0,0,1-20.819,3865.984Z" transform="translate(68.052 -3861.436)" fill="#43a99b"/>
      </g>
      <path id="Trazado_210945" data-name="Trazado 210945" d="M419.852,3858.387h-115.9c-5.565,0-10.077,4.1-10.077,9.153V4161.9c0,5.055,4.512,9.152,10.077,9.152H419.872a10.383,10.383,0,0,0,8.391-4.084,8.71,8.71,0,0,0,.528-.839l86.094-150.851-86.1-151.938a8.793,8.793,0,0,0-.527-.843A10.378,10.378,0,0,0,419.852,3858.387Z" transform="translate(-154.362 -3858.387)" fill="#43a99b"/>
      <g id="Grupo_166662" data-name="Grupo 166662" transform="translate(27.742 26.949)" opacity="0.2" style="mix-blend-mode: multiply;isolation: isolate">
        <g id="Grupo_166661" data-name="Grupo 166661" transform="translate(0 0)">
          <g id="Grupo_166660" data-name="Grupo 166660">
            <rect id="Rectángulo_46668" data-name="Rectángulo 46668" width="237.091" height="260.283" rx="20"/>
          </g>
        </g>
      </g>
      <g id="Grupo_166672" data-name="Grupo 166672" transform="translate(28.122 26.189)">
        <g id="Grupo_166664" data-name="Grupo 166664">
          <g id="Grupo_166663" data-name="Grupo 166663" transform="translate(0)">
            <g transform="matrix(1, 0, 0, 1, -28.12, -26.19)" filter="url(#Rectángulo_46669)">
              <rect id="Rectángulo_46669-2" data-name="Rectángulo 46669" width="237.091" height="310.774" rx="20" transform="translate(28.12 26.19)" fill="#fff"/>
            </g>
          </g>
        </g>
        <g id="Grupo_166665" data-name="Grupo 166665" transform="translate(0.001 8.218)">
          <path id="Trazado_210946" data-name="Trazado 210946" d="M233.778,3970.342v257.174c0,12.534-9.523,22.691-21.273,22.691H26.175c-11.746,0-21.269-10.157-21.269-22.691V3970.342c0-12.534,9.523-22.691,21.269-22.691H212.5C224.255,3947.651,233.778,3957.809,233.778,3970.342Z" transform="translate(-4.906 -3947.651)" fill="#f7f7f7"/>
        </g>
      </g>
      <g id="Grupo_174692" data-name="Grupo 174692" transform="translate(109.977 39.404)">
        <g id="Grupo_174691" data-name="Grupo 174691" clip-path="url(#clip-path)">
          <path id="Trazado_214981" data-name="Trazado 214981" d="M22.719,183.468c.832-.839,1.61-1.741,2.507-2.5a13.406,13.406,0,0,1,5.457-2.409c.379-.1.752-.225,1.225-.367-1.361-1.839-1.463-3.9-1.415-6.008.051-2.22,0-4.443.013-6.664a5.615,5.615,0,0,1,7.358-5.441c1.21.367,2.415.761,3.6,1.2a6.486,6.486,0,0,1,4.272,6.09c.009,1.878-.042,3.757.014,5.633a8.351,8.351,0,0,1-1.4,5.2c.78.232,1.492.475,2.22.656a11.612,11.612,0,0,1,7.7,5.986,4.213,4.213,0,0,1,.307.553c1.484,4.155,5.174,5.977,8.615,8.153.531-.79,1.083-1.56,1.579-2.366a1.63,1.63,0,0,1,1.627-.889c.579.041,1.163.008,1.745.008,1.176,0,1.4.154,1.828,1.27,1.49,0,3,.032,4.5-.014a1.811,1.811,0,0,1,1.753.8v4.763c-1.311,1.334-2.592,2.7-3.952,3.981a2.343,2.343,0,0,1-1.45.595c-5.283.042-10.566.018-15.849.036a1.931,1.931,0,0,1-1.535-.647c-.8-.857-1.631-1.683-2.449-2.522l-.172.106v.766c0,3.143-.019,6.287.014,9.43a1.847,1.847,0,0,1-.805,1.751H26.215a1.842,1.842,0,0,1-.8-1.754c.033-3.148.014-6.3.014-9.445v-.757l-.187-.1c-.8.828-1.613,1.644-2.4,2.489a2.009,2.009,0,0,1-1.6.684c-5.265-.021-10.53,0-15.794-.037a2.4,2.4,0,0,1-1.458-.581c-1.175-1.064-2.3-2.193-3.368-3.363a2.472,2.472,0,0,1-.572-1.385c-.085-1.052-.028-2.114-.026-3.173,0-1.22.4-1.625,1.6-1.628,1.559,0,3.118,0,4.661,0,.4-1.091.648-1.283,1.749-1.267,3.379.049,2.482-.475,4.409,2.342.206.3.414.6.65.945,2.07-1.382,4.091-2.728,6.106-4.082a1.064,1.064,0,0,0,.314-.347q1.626-2.854,3.24-5.715Zm10.828-3.051c-1.179.338-2.26.671-3.353.956a9.113,9.113,0,0,0-5.934,4.642c-.812,1.483-1.648,2.954-2.53,4.4a4.232,4.232,0,0,1-1.159,1.251c-2,1.382-4.04,2.706-6.058,4.063-.2.136-.488.35-.5.54-.051.963-.023,1.93-.023,2.92,2.318,0,4.513.015,6.708-.019a1.336,1.336,0,0,0,.784-.418q2.044-2,4.045-4.037a1.429,1.429,0,0,1,1.616-.528c.705.269.825.861.822,1.552-.016,3.81-.008,7.62-.008,11.43v.859H48.287v-.913c0-3.81.007-7.62-.007-11.43,0-.665.132-1.221.8-1.487a1.406,1.406,0,0,1,1.621.5c1.336,1.357,2.675,2.714,4.053,4.028a1.772,1.772,0,0,0,1.087.444c1.9.044,3.809.022,5.714.018.226,0,.452-.03.706-.047,0-.865-.024-1.658.009-2.449a.967.967,0,0,0-.5-.961c-2.015-1.314-4.025-2.636-6-4.008a4.676,4.676,0,0,1-1.271-1.355c-.9-1.461-1.671-3-2.591-4.45a13.977,13.977,0,0,0-2.013-2.526c-1.977-1.923-4.68-2.15-7.187-2.98-.595,1.483-1.188,2.89-1.714,4.322a2.547,2.547,0,0,0-.117,1.3c.735,3.782,1.5,7.557,2.273,11.332a1.663,1.663,0,0,1-.487,1.656c-1.174,1.145-2.318,2.322-3.488,3.471a1.279,1.279,0,0,1-2.072.018c-1.19-1.167-2.352-2.363-3.544-3.527a1.6,1.6,0,0,1-.459-1.589c.714-3.517,1.431-7.033,2.126-10.553a3.838,3.838,0,0,0,.147-1.78c-.507-1.549-1.181-3.043-1.821-4.635m-.489-11.686c0,1.837-.1,3.632.023,5.413a5.049,5.049,0,0,0,4.891,4.71,4.9,4.9,0,0,0,5.088-4.263,51.33,51.33,0,0,0,.044-5.86Zm5.007,31.242c.818-.822,1.505-1.479,2.144-2.18a1,1,0,0,0,.233-.748c-.648-3.359-1.325-6.713-2.005-10.066a3.637,3.637,0,0,0-.321-.674,2.551,2.551,0,0,0-.277.494q-1.039,5.147-2.052,10.3a.838.838,0,0,0,.174.628c.663.746,1.36,1.46,2.1,2.247M8.9,192.713v3.874H6.338v-2.424H2.632a2.742,2.742,0,0,0,1.071,3.1,19.375,19.375,0,0,1,1.583,1.55,1.059,1.059,0,0,0,.576.349c1.84.027,3.68.016,5.429.016.678-2.423-.171-4.355-1.647-6.094-.139-.164-.413-.212-.746-.373m58.44.19-.2-.166a3.653,3.653,0,0,0-.608.454,6.305,6.305,0,0,0-1.608,5.992c.811,0,1.652,0,2.493,0a8.836,8.836,0,0,0,3.134-.106c.9-.374,1.477-1.479,2.307-2.117,1.034-.794.87-1.782.771-2.8H69.847v2.425H67.339ZM42.944,166.118a3.874,3.874,0,0,0-2.462-2.475c-1.088-.394-2.185-.768-3.292-1.1a3.108,3.108,0,0,0-4.079,3.579ZM36.7,181.358c.318.788.592,1.527.921,2.241a.671.671,0,0,0,.516.316.687.687,0,0,0,.5-.339c.325-.715.6-1.453.9-2.218Z" transform="translate(0 -134.383)" fill="#12263f"/>
          <path id="Trazado_214982" data-name="Trazado 214982" d="M277.442,3.366c3.214-.99,5.467-.337,6.775,1.923,1.323,2.286.79,4.505-1.672,6.829.628,1.081,1.263,2.173,1.9,3.266.818,1.414.537,2.109-1.022,2.554q-7.491,2.139-14.98,4.282c-.226.065-.448.14-.71.222a3.479,3.479,0,0,0,.235.532,10.793,10.793,0,0,1,1.7,7.306,21.857,21.857,0,0,0-.008,2.617,1.384,1.384,0,0,1-.863,1.381c-.735.36-1.459.742-2.2,1.093a1.324,1.324,0,0,1-2.013-.712c-1.436-2.853-2.874-5.706-4.275-8.576a.99.99,0,0,0-1.071-.679c-1.109.048-2.222-.006-3.332.021a1.433,1.433,0,0,1-1.46-.865q-.765-1.565-1.559-3.116a1.434,1.434,0,0,1,.106-1.633c.951-1.3,1.877-2.622,2.849-3.909a2.122,2.122,0,0,1,.862-.659,23.1,23.1,0,0,0,8.322-6.012c2.734-2.944,5.66-5.71,8.506-8.551,1.007-1.006,1.8-.9,2.521.321.468.792.933,1.585,1.39,2.361m-2.874.186-10.878,10.88,2.834,5.656,15.159-4.339-7.115-12.2m-12.08,21.179,3.916,7.822.29.052a3.339,3.339,0,0,0,.4-.98c.057-.869-.084-1.759.039-2.613.322-2.223-1.061-3.814-1.859-5.674l-2.789,1.393m1.632-3.694-2.664-5.317-2.769,1.388c.451.914.876,1.785,1.311,2.652.442.882.894,1.76,1.354,2.666l2.768-1.388M281.159,9.745a2.274,2.274,0,0,0,.826-3.181,2.269,2.269,0,0,0-3.16-.817l2.334,4m-24.38,9.312c-1.423,1.64-1.515,1.97-.428,3.491.554.775,1.469.177,2.354.365l-1.926-3.856" transform="translate(-212.48 -0.001)" fill="#12263f"/>
          <path id="Trazado_214983" data-name="Trazado 214983" d="M32.054,46.563q0-5.278,0-10.557a3.771,3.771,0,0,1,3.989-3.966c3.36,0,6.72.011,10.081-.007a3.913,3.913,0,0,1,2.914,1.2q2.328,2.331,4.659,4.658a4,4,0,0,1,1.22,2.988c-.018,5.45-.005,10.9-.009,16.351a3.77,3.77,0,0,1-4.023,4.013q-7.421.005-14.843,0a3.77,3.77,0,0,1-3.989-3.967q-.007-5.358,0-10.716M46.026,34.573c-3.29,0-6.462,0-9.635,0-1.386,0-1.8.413-1.8,1.793q0,10.28,0,20.559c0,1.372.421,1.786,1.81,1.786q7.065,0,14.129,0c1.44,0,1.847-.4,1.848-1.83q0-7.581,0-15.161c0-.253-.023-.507-.037-.8-1.634,0-3.193,0-4.751,0-1.146,0-1.558-.424-1.56-1.587,0-1.556,0-3.112,0-4.763m2.591,2.042v1.73h1.726l-1.726-1.73" transform="translate(-26.953 -26.936)" fill="#12263f"/>
          <path id="Trazado_214984" data-name="Trazado 214984" d="M22.834,243.808a8.4,8.4,0,0,1-1.683.476c-1.049.077-2.107.022-3.268.022,0,1.2,0,2.352,0,3.505s-.422,1.573-1.574,1.574q-4.8,0-9.6,0c-1.091,0-1.514-.438-1.518-1.548,0-1.136,0-2.272,0-3.531H1.863c-1.411,0-1.756-.352-1.757-1.788,0-1.561-.01-3.121,0-4.682a6.306,6.306,0,0,1,6.226-6.221q5.2-.027,10.395,0a6.3,6.3,0,0,1,6.229,6.218q.023,2.46,0,4.92a8.183,8.183,0,0,1-.152,1.085l.029-.03m-2.424-2.071c0-1.408.086-2.758-.02-4.093a3.728,3.728,0,0,0-3.752-3.486q-5.115-.058-10.231,0a3.441,3.441,0,0,0-3.466,2.52,39.276,39.276,0,0,0-.4,5.053H5.122c.515-3.822,2.895-6.235,6.147-6.313a6.291,6.291,0,0,1,4.325,1.462,6.409,6.409,0,0,1,2.322,4.859ZM7.73,246.8h7.6c0-1.8.075-3.542-.02-5.279a3.79,3.79,0,0,0-7.569.064c-.075,1.714-.015,3.433-.015,5.215" transform="translate(-0.086 -194.753)" fill="#12263f"/>
          <path id="Trazado_214985" data-name="Trazado 214985" d="M390.566,203.115c0,2.513.005,5.026,0,7.539a3.763,3.763,0,0,1-3.953,3.922q-3.69.008-7.38,0a3.761,3.761,0,0,1-3.9-3.9q-.01-7.539,0-15.078a3.759,3.759,0,0,1,3.912-3.881q3.73-.009,7.459,0a3.754,3.754,0,0,1,3.86,3.854c.01,2.513,0,5.026,0,7.539m-2.535.011q0-3.689,0-7.377a1.3,1.3,0,0,0-.849-1.38,1.269,1.269,0,0,0-1.627.365,2,2,0,0,1-1.946.8,8.223,8.223,0,0,0-1.506,0,1.756,1.756,0,0,1-1.666-.707,1.353,1.353,0,0,0-1.747-.449,1.376,1.376,0,0,0-.827,1.476q.006,7.3,0,14.6c0,1.114.481,1.587,1.6,1.591q3.451.013,6.9,0c1.207,0,1.657-.465,1.66-1.7q.007-3.609,0-7.219" transform="translate(-315.612 -161.214)" fill="#12263f"/>
          <rect id="Rectángulo_53991" data-name="Rectángulo 53991" width="12.6" height="2.44" transform="translate(10.236 26.733)" fill="#12263f"/>
          <rect id="Rectángulo_53992" data-name="Rectángulo 53992" width="7.501" height="2.467" transform="translate(15.326 21.669)" fill="#12263f"/>
          <rect id="Rectángulo_53993" data-name="Rectángulo 53993" width="6.215" height="2.466" transform="translate(10.248 11.469)" fill="#12263f"/>
          <rect id="Rectángulo_53994" data-name="Rectángulo 53994" width="6.241" height="2.449" transform="translate(10.24 16.584)" fill="#12263f"/>
          <rect id="Rectángulo_53995" data-name="Rectángulo 53995" width="3.705" height="2.439" transform="translate(19.136 16.589)" fill="#12263f"/>
          <rect id="Rectángulo_53996" data-name="Rectángulo 53996" width="2.422" height="2.464" transform="translate(10.231 21.63)" fill="#12263f"/>
          <path id="Trazado_214986" data-name="Trazado 214986" d="M65.235,298.059a1.266,1.266,0,1,1,1.3-1.209,1.242,1.242,0,0,1-1.3,1.209" transform="translate(-53.824 -248.508)" fill="#12263f"/>
        </g>
      </g>
    </g>
    <path id="Trazado_217556" data-name="Trazado 217556" d="M13.336,17h-1.3V9.484q0-.891.109-2.18h-.031a6.969,6.969,0,0,1-.336,1.086L7.945,17H7.3L3.484,8.453A6.7,6.7,0,0,1,3.148,7.3H3.117q.062.672.063,2.2V17H1.914V5.8H3.648l3.438,7.813A10,10,0,0,1,7.6,14.953h.047q.336-.922.539-1.375L11.7,5.8h1.641Zm9.2-3.68H16.891a2.992,2.992,0,0,0,.719,2.063,2.478,2.478,0,0,0,1.891.727,3.931,3.931,0,0,0,2.484-.891v1.2a4.643,4.643,0,0,1-2.789.766,3.381,3.381,0,0,1-2.664-1.09,4.461,4.461,0,0,1-.969-3.066,4.375,4.375,0,0,1,1.059-3.043A3.394,3.394,0,0,1,19.25,8.813a3.008,3.008,0,0,1,2.43,1.016,4.234,4.234,0,0,1,.859,2.82Zm-1.312-1.086a2.607,2.607,0,0,0-.535-1.727,1.823,1.823,0,0,0-1.465-.617,2.07,2.07,0,0,0-1.539.648,2.943,2.943,0,0,0-.781,1.7Zm4.531,4.43a5.014,5.014,0,0,1-.793,3.035,2.658,2.658,0,0,1-2.27,1.066,2.409,2.409,0,0,1-1.062-.25v-1.2a2.12,2.12,0,0,0,1.094.352q1.75,0,1.75-2.8V9h1.281Zm-.625-9.7a.812.812,0,0,1-.586-.234.791.791,0,0,1-.242-.594.821.821,0,0,1,.828-.836.827.827,0,0,1,.6.238.835.835,0,0,1,0,1.184A.82.82,0,0,1,25.133,6.969ZM31.7,17.188a3.711,3.711,0,0,1-2.832-1.121A4.153,4.153,0,0,1,27.8,13.094a4.326,4.326,0,0,1,1.1-3.148,3.96,3.96,0,0,1,2.977-1.133,3.588,3.588,0,0,1,2.793,1.1,4.368,4.368,0,0,1,1,3.055A4.3,4.3,0,0,1,34.6,16.035,3.791,3.791,0,0,1,31.7,17.188Zm.094-7.3a2.437,2.437,0,0,0-1.953.84,3.449,3.449,0,0,0-.719,2.316,3.262,3.262,0,0,0,.727,2.242,2.469,2.469,0,0,0,1.945.82,2.342,2.342,0,0,0,1.91-.8,3.492,3.492,0,0,0,.668-2.289A3.552,3.552,0,0,0,33.7,10.7,2.332,2.332,0,0,0,31.789,9.891ZM41.9,10.3a1.567,1.567,0,0,0-.969-.258,1.635,1.635,0,0,0-1.371.773,3.576,3.576,0,0,0-.551,2.109V17H37.727V9h1.281v1.648h.031a2.794,2.794,0,0,1,.836-1.316,1.906,1.906,0,0,1,1.258-.473,2.092,2.092,0,0,1,.766.109ZM49.016,17H47.734V15.75H47.7a2.682,2.682,0,0,1-2.461,1.438,2.63,2.63,0,0,1-1.871-.633,2.192,2.192,0,0,1-.676-1.68q0-2.242,2.641-2.609l2.4-.336q0-2.039-1.648-2.039a3.938,3.938,0,0,0-2.609.984V9.563a4.958,4.958,0,0,1,2.719-.75q2.82,0,2.82,2.984Zm-1.281-4.047-1.93.266a3.133,3.133,0,0,0-1.344.441,1.273,1.273,0,0,0-.453,1.121,1.221,1.221,0,0,0,.418.957,1.615,1.615,0,0,0,1.113.371,2.056,2.056,0,0,0,1.574-.668,2.387,2.387,0,0,0,.621-1.691ZM55.6,10.3a1.567,1.567,0,0,0-.969-.258,1.635,1.635,0,0,0-1.371.773,3.576,3.576,0,0,0-.551,2.109V17H51.43V9h1.281v1.648h.031a2.794,2.794,0,0,1,.836-1.316,1.906,1.906,0,0,1,1.258-.473,2.092,2.092,0,0,1,.766.109Zm7.086,5.547h-.031V20.68H61.375V9h1.281v1.406h.031a3.03,3.03,0,0,1,2.766-1.594,2.93,2.93,0,0,1,2.414,1.074,4.449,4.449,0,0,1,.867,2.879,4.959,4.959,0,0,1-.977,3.215,3.251,3.251,0,0,1-2.672,1.207A2.676,2.676,0,0,1,62.688,15.844Zm-.031-3.227v1.117a2.379,2.379,0,0,0,.645,1.684,2.3,2.3,0,0,0,3.461-.2,4.086,4.086,0,0,0,.66-2.477,3.225,3.225,0,0,0-.617-2.094,2.043,2.043,0,0,0-1.672-.758,2.27,2.27,0,0,0-1.8.777A2.854,2.854,0,0,0,62.656,12.617Zm11.469,4.57a3.711,3.711,0,0,1-2.832-1.121,4.153,4.153,0,0,1-1.059-2.973,4.326,4.326,0,0,1,1.1-3.148,3.96,3.96,0,0,1,2.977-1.133,3.588,3.588,0,0,1,2.793,1.1,4.368,4.368,0,0,1,1,3.055,4.3,4.3,0,0,1-1.082,3.066A3.791,3.791,0,0,1,74.125,17.188Zm.094-7.3a2.437,2.437,0,0,0-1.953.84,3.449,3.449,0,0,0-.719,2.316,3.262,3.262,0,0,0,.727,2.242,2.469,2.469,0,0,0,1.945.82,2.342,2.342,0,0,0,1.91-.8,3.492,3.492,0,0,0,.668-2.289,3.552,3.552,0,0,0-.668-2.312A2.332,2.332,0,0,0,74.219,9.891Zm5.453,6.82V15.336a3.792,3.792,0,0,0,2.3.773q1.688,0,1.688-1.125a.976.976,0,0,0-.145-.543,1.44,1.44,0,0,0-.391-.395,3.007,3.007,0,0,0-.578-.309q-.332-.137-.715-.285a9.207,9.207,0,0,1-.934-.426,2.82,2.82,0,0,1-.672-.484,1.8,1.8,0,0,1-.406-.613,2.17,2.17,0,0,1-.137-.8,1.912,1.912,0,0,1,.258-1,2.286,2.286,0,0,1,.688-.727,3.206,3.206,0,0,1,.98-.441,4.349,4.349,0,0,1,1.137-.148,4.59,4.59,0,0,1,1.859.359v1.3a3.624,3.624,0,0,0-2.031-.578,2.374,2.374,0,0,0-.648.082,1.587,1.587,0,0,0-.5.23,1.065,1.065,0,0,0-.32.355.936.936,0,0,0-.113.457,1.1,1.1,0,0,0,.113.523,1.152,1.152,0,0,0,.332.375,2.538,2.538,0,0,0,.531.3q.313.133.711.289a9.9,9.9,0,0,1,.953.418,3.269,3.269,0,0,1,.719.484,1.893,1.893,0,0,1,.457.621,2,2,0,0,1,.16.836,1.971,1.971,0,0,1-.262,1.031,2.243,2.243,0,0,1-.7.727,3.2,3.2,0,0,1-1.008.43,4.976,4.976,0,0,1-1.2.141A4.539,4.539,0,0,1,79.672,16.711ZM87.6,6.969a.812.812,0,0,1-.586-.234.791.791,0,0,1-.242-.594A.821.821,0,0,1,87.6,5.3a.827.827,0,0,1,.6.238.835.835,0,0,1,0,1.184A.82.82,0,0,1,87.6,6.969ZM88.227,17H86.945V9h1.281Zm8.047-.367a4.163,4.163,0,0,1-2.187.555,3.622,3.622,0,0,1-2.762-1.113,4.035,4.035,0,0,1-1.051-2.887,4.435,4.435,0,0,1,1.133-3.176,3.963,3.963,0,0,1,3.023-1.2,4.209,4.209,0,0,1,1.859.391v1.313a3.258,3.258,0,0,0-1.906-.625,2.576,2.576,0,0,0-2.012.879,3.335,3.335,0,0,0-.785,2.309,3.176,3.176,0,0,0,.738,2.219,2.545,2.545,0,0,0,1.98.813,3.211,3.211,0,0,0,1.969-.7Zm2.594-9.664a.812.812,0,0,1-.586-.234.791.791,0,0,1-.242-.594.821.821,0,0,1,.828-.836.827.827,0,0,1,.6.238.835.835,0,0,1,0,1.184A.82.82,0,0,1,98.867,6.969ZM99.492,17H98.211V9h1.281Zm5.938.188a3.711,3.711,0,0,1-2.832-1.121,4.153,4.153,0,0,1-1.059-2.973,4.326,4.326,0,0,1,1.1-3.148,3.96,3.96,0,0,1,2.977-1.133,3.588,3.588,0,0,1,2.793,1.1,4.368,4.368,0,0,1,1,3.055,4.3,4.3,0,0,1-1.082,3.066A3.791,3.791,0,0,1,105.43,17.188Zm.094-7.3a2.437,2.437,0,0,0-1.953.84,3.449,3.449,0,0,0-.719,2.316,3.262,3.262,0,0,0,.727,2.242,2.469,2.469,0,0,0,1.945.82,2.342,2.342,0,0,0,1.91-.8,3.492,3.492,0,0,0,.668-2.289,3.552,3.552,0,0,0-.668-2.312A2.332,2.332,0,0,0,105.523,9.891ZM118.1,17H116.82V12.438q0-2.547-1.859-2.547a2.017,2.017,0,0,0-1.59.723,2.679,2.679,0,0,0-.629,1.824V17h-1.281V9h1.281v1.328h.031A2.887,2.887,0,0,1,115.4,8.813a2.448,2.448,0,0,1,2.008.848,3.776,3.776,0,0,1,.7,2.449Zm8.141,0h-1.281V15.75h-.031a2.682,2.682,0,0,1-2.461,1.438,2.63,2.63,0,0,1-1.871-.633,2.192,2.192,0,0,1-.676-1.68q0-2.242,2.641-2.609l2.4-.336q0-2.039-1.648-2.039a3.938,3.938,0,0,0-2.609.984V9.563a4.958,4.958,0,0,1,2.719-.75q2.82,0,2.82,2.984Zm-1.281-4.047-1.93.266a3.133,3.133,0,0,0-1.344.441,1.273,1.273,0,0,0-.453,1.121,1.221,1.221,0,0,0,.418.957,1.615,1.615,0,0,0,1.113.371,2.056,2.056,0,0,0,1.574-.668,2.387,2.387,0,0,0,.621-1.691ZM140.016,17h-1.281V12.406a3.466,3.466,0,0,0-.41-1.922,1.555,1.555,0,0,0-1.379-.594,1.708,1.708,0,0,0-1.395.75,2.869,2.869,0,0,0-.574,1.8V17H133.7V12.25q0-2.359-1.82-2.359a1.686,1.686,0,0,0-1.391.707,2.923,2.923,0,0,0-.547,1.84V17h-1.281V9h1.281v1.266h.031a2.718,2.718,0,0,1,2.484-1.453,2.311,2.311,0,0,1,2.266,1.656,2.855,2.855,0,0,1,2.656-1.656q2.641,0,2.641,3.258Zm3.078-10.031a.812.812,0,0,1-.586-.234.791.791,0,0,1-.242-.594.821.821,0,0,1,.828-.836.827.827,0,0,1,.6.238.835.835,0,0,1,0,1.184A.82.82,0,0,1,143.094,6.969ZM143.719,17h-1.281V9h1.281Zm9.023-3.68h-5.648a2.992,2.992,0,0,0,.719,2.063,2.478,2.478,0,0,0,1.891.727,3.931,3.931,0,0,0,2.484-.891v1.2a4.643,4.643,0,0,1-2.789.766,3.381,3.381,0,0,1-2.664-1.09,4.461,4.461,0,0,1-.969-3.066,4.374,4.374,0,0,1,1.059-3.043,3.394,3.394,0,0,1,2.629-1.176,3.008,3.008,0,0,1,2.43,1.016,4.234,4.234,0,0,1,.859,2.82Zm-1.312-1.086a2.607,2.607,0,0,0-.535-1.727,1.823,1.823,0,0,0-1.465-.617,2.07,2.07,0,0,0-1.539.648,2.943,2.943,0,0,0-.781,1.7ZM161.32,17h-1.281V12.438q0-2.547-1.859-2.547a2.017,2.017,0,0,0-1.59.723,2.679,2.679,0,0,0-.629,1.824V17H154.68V9h1.281v1.328h.031a2.887,2.887,0,0,1,2.625-1.516,2.448,2.448,0,0,1,2.008.848,3.776,3.776,0,0,1,.7,2.449Zm6.125-.078a2.47,2.47,0,0,1-1.2.25q-2.1,0-2.1-2.344V10.094h-1.375V9h1.375V7.047l1.281-.414V9h2.016v1.094H165.43V14.6a1.869,1.869,0,0,0,.273,1.148,1.091,1.091,0,0,0,.906.344,1.347,1.347,0,0,0,.836-.266Zm5.055.266a3.711,3.711,0,0,1-2.832-1.121,4.153,4.153,0,0,1-1.059-2.973,4.326,4.326,0,0,1,1.1-3.148,3.96,3.96,0,0,1,2.977-1.133,3.588,3.588,0,0,1,2.793,1.1,4.368,4.368,0,0,1,1,3.055,4.3,4.3,0,0,1-1.082,3.066A3.791,3.791,0,0,1,172.5,17.188Zm.094-7.3a2.437,2.437,0,0,0-1.953.84,3.449,3.449,0,0,0-.719,2.316,3.262,3.262,0,0,0,.727,2.242,2.469,2.469,0,0,0,1.945.82,2.342,2.342,0,0,0,1.91-.8,3.492,3.492,0,0,0,.668-2.289A3.552,3.552,0,0,0,174.5,10.7,2.332,2.332,0,0,0,172.594,9.891Zm9.969,6.656V15a3,3,0,0,0,.637.422,5.158,5.158,0,0,0,.781.316,6.219,6.219,0,0,0,.824.2,4.6,4.6,0,0,0,.766.07,3,3,0,0,0,1.809-.449,1.685,1.685,0,0,0,.4-2.082,2.244,2.244,0,0,0-.551-.613,5.465,5.465,0,0,0-.832-.531q-.48-.254-1.035-.535-.586-.3-1.094-.6a4.739,4.739,0,0,1-.883-.672,2.8,2.8,0,0,1-.59-.832,2.575,2.575,0,0,1-.215-1.09,2.563,2.563,0,0,1,.336-1.332,2.881,2.881,0,0,1,.883-.934,4,4,0,0,1,1.246-.547,5.706,5.706,0,0,1,1.426-.18,5.464,5.464,0,0,1,2.414.4V7.484a4.376,4.376,0,0,0-2.547-.687,4.189,4.189,0,0,0-.859.09,2.428,2.428,0,0,0-.766.293,1.7,1.7,0,0,0-.547.523,1.389,1.389,0,0,0-.211.781,1.608,1.608,0,0,0,.16.742,1.819,1.819,0,0,0,.473.57,4.707,4.707,0,0,0,.762.5q.449.242,1.035.531.6.3,1.141.625a5.213,5.213,0,0,1,.945.727,3.229,3.229,0,0,1,.645.883,2.482,2.482,0,0,1,.238,1.109,2.813,2.813,0,0,1-.324,1.4,2.661,2.661,0,0,1-.875.934,3.821,3.821,0,0,1-1.27.52,6.953,6.953,0,0,1-1.516.16,6.176,6.176,0,0,1-.656-.043q-.391-.043-.8-.125a6.5,6.5,0,0,1-.77-.2A2.394,2.394,0,0,1,182.563,16.547ZM197.523,17h-5.937V5.8h5.688V6.984H192.9v3.727h4.047v1.18H192.9v3.922h4.625Zm6.672.188a4.918,4.918,0,0,1-3.816-1.57,5.824,5.824,0,0,1-1.434-4.086,6.171,6.171,0,0,1,1.461-4.312,5.1,5.1,0,0,1,3.977-1.609,4.807,4.807,0,0,1,3.738,1.563,5.845,5.845,0,0,1,1.418,4.086,6.191,6.191,0,0,1-1.453,4.336A5.008,5.008,0,0,1,204.2,17.188ZM204.289,6.8a3.612,3.612,0,0,0-2.867,1.273,4.93,4.93,0,0,0-1.1,3.344,4.964,4.964,0,0,0,1.074,3.332,3.5,3.5,0,0,0,2.8,1.262,3.678,3.678,0,0,0,2.906-1.2,4.917,4.917,0,0,0,1.063-3.367,5.138,5.138,0,0,0-1.031-3.43A3.536,3.536,0,0,0,204.289,6.8ZM24.156,33l-3.68,9.281q-.984,2.484-2.766,2.484a2.932,2.932,0,0,1-.836-.1V43.516a2.375,2.375,0,0,0,.758.141A1.57,1.57,0,0,0,19.086,42.5l.641-1.516L16.6,33h1.422l2.164,6.156q.039.117.164.609H20.4q.039-.187.156-.594L22.828,33ZM36.742,44.68H35.461V39.625H35.43A2.867,2.867,0,0,1,32.7,41.188a3.011,3.011,0,0,1-2.418-1.074,4.381,4.381,0,0,1-.91-2.926,4.791,4.791,0,0,1,1-3.184,3.328,3.328,0,0,1,2.688-1.191,2.523,2.523,0,0,1,2.375,1.3h.031V33h1.281ZM35.461,37.4V36.234a2.328,2.328,0,0,0-.645-1.664,2.158,2.158,0,0,0-1.637-.68,2.2,2.2,0,0,0-1.828.855,3.819,3.819,0,0,0-.672,2.41,3.307,3.307,0,0,0,.648,2.168A2.069,2.069,0,0,0,33,40.109a2.254,2.254,0,0,0,1.793-.77A2.855,2.855,0,0,0,35.461,37.4ZM45.8,41H44.523V39.734h-.031a2.631,2.631,0,0,1-2.469,1.453q-2.859,0-2.859-3.406V33h1.273v4.578q0,2.531,1.938,2.531a1.96,1.96,0,0,0,1.543-.691,2.645,2.645,0,0,0,.605-1.809V33H45.8Zm9.016-3.68H49.172a2.992,2.992,0,0,0,.719,2.063,2.478,2.478,0,0,0,1.891.727,3.931,3.931,0,0,0,2.484-.891v1.2a4.643,4.643,0,0,1-2.789.766,3.381,3.381,0,0,1-2.664-1.09,4.461,4.461,0,0,1-.969-3.066A4.375,4.375,0,0,1,48.9,33.988a3.394,3.394,0,0,1,2.629-1.176,3.008,3.008,0,0,1,2.43,1.016,4.234,4.234,0,0,1,.859,2.82Zm-1.312-1.086a2.607,2.607,0,0,0-.535-1.727,1.823,1.823,0,0,0-1.465-.617,2.07,2.07,0,0,0-1.539.648,2.943,2.943,0,0,0-.781,1.7ZM62.422,41H61.141V29.156h1.281Zm5.938.188a3.711,3.711,0,0,1-2.832-1.121,4.153,4.153,0,0,1-1.059-2.973,4.326,4.326,0,0,1,1.1-3.148,3.96,3.96,0,0,1,2.977-1.133,3.588,3.588,0,0,1,2.793,1.1,4.368,4.368,0,0,1,1,3.055,4.3,4.3,0,0,1-1.082,3.066A3.791,3.791,0,0,1,68.359,41.188Zm.094-7.3a2.437,2.437,0,0,0-1.953.84,3.449,3.449,0,0,0-.719,2.316,3.262,3.262,0,0,0,.727,2.242,2.469,2.469,0,0,0,1.945.82,2.342,2.342,0,0,0,1.91-.8,3.492,3.492,0,0,0,.668-2.289,3.552,3.552,0,0,0-.668-2.312A2.332,2.332,0,0,0,68.453,33.891Zm5.453,6.82V39.336a3.792,3.792,0,0,0,2.3.773q1.688,0,1.688-1.125a.976.976,0,0,0-.145-.543,1.44,1.44,0,0,0-.391-.395,3.007,3.007,0,0,0-.578-.309q-.332-.137-.715-.285a9.206,9.206,0,0,1-.934-.426,2.82,2.82,0,0,1-.672-.484,1.8,1.8,0,0,1-.406-.613,2.17,2.17,0,0,1-.137-.8,1.912,1.912,0,0,1,.258-1,2.286,2.286,0,0,1,.688-.727,3.206,3.206,0,0,1,.98-.441,4.349,4.349,0,0,1,1.137-.148,4.59,4.59,0,0,1,1.859.359v1.3a3.624,3.624,0,0,0-2.031-.578,2.374,2.374,0,0,0-.648.082,1.587,1.587,0,0,0-.5.23,1.065,1.065,0,0,0-.32.355.936.936,0,0,0-.113.457,1.1,1.1,0,0,0,.113.523,1.152,1.152,0,0,0,.332.375,2.538,2.538,0,0,0,.531.3q.313.133.711.289a9.9,9.9,0,0,1,.953.418,3.269,3.269,0,0,1,.719.484,1.893,1.893,0,0,1,.457.621,2,2,0,0,1,.16.836,1.971,1.971,0,0,1-.262,1.031,2.243,2.243,0,0,1-.7.727,3.2,3.2,0,0,1-1.008.43,4.976,4.976,0,0,1-1.2.141A4.539,4.539,0,0,1,73.906,40.711Zm17.109-.078a4.163,4.163,0,0,1-2.187.555,3.622,3.622,0,0,1-2.762-1.113,4.035,4.035,0,0,1-1.051-2.887,4.435,4.435,0,0,1,1.133-3.176,3.963,3.963,0,0,1,3.023-1.2,4.209,4.209,0,0,1,1.859.391v1.313a3.258,3.258,0,0,0-1.906-.625,2.576,2.576,0,0,0-2.012.879,3.335,3.335,0,0,0-.785,2.309,3.176,3.176,0,0,0,.738,2.219,2.545,2.545,0,0,0,1.98.813,3.211,3.211,0,0,0,1.969-.7ZM94.234,41H92.953V29.156h1.281Zm3.25-10.031a.812.812,0,0,1-.586-.234.791.791,0,0,1-.242-.594.821.821,0,0,1,.828-.836.827.827,0,0,1,.6.238.835.835,0,0,1,0,1.184A.82.82,0,0,1,97.484,30.969ZM98.109,41H96.828V33h1.281Zm9.023-3.68h-5.648a2.992,2.992,0,0,0,.719,2.063,2.478,2.478,0,0,0,1.891.727,3.931,3.931,0,0,0,2.484-.891v1.2a4.643,4.643,0,0,1-2.789.766,3.381,3.381,0,0,1-2.664-1.09,4.461,4.461,0,0,1-.969-3.066,4.375,4.375,0,0,1,1.059-3.043,3.394,3.394,0,0,1,2.629-1.176,3.008,3.008,0,0,1,2.43,1.016,4.234,4.234,0,0,1,.859,2.82Zm-1.312-1.086a2.607,2.607,0,0,0-.535-1.727,1.823,1.823,0,0,0-1.465-.617,2.07,2.07,0,0,0-1.539.648,2.943,2.943,0,0,0-.781,1.7ZM115.711,41H114.43V36.438q0-2.547-1.859-2.547a2.017,2.017,0,0,0-1.59.723,2.679,2.679,0,0,0-.629,1.824V41H109.07V33h1.281v1.328h.031a2.887,2.887,0,0,1,2.625-1.516,2.448,2.448,0,0,1,2.008.848,3.776,3.776,0,0,1,.7,2.449Zm6.125-.078a2.47,2.47,0,0,1-1.2.25q-2.1,0-2.1-2.344V34.094h-1.375V33h1.375V31.047l1.281-.414V33h2.016v1.094H119.82V38.6a1.869,1.869,0,0,0,.273,1.148,1.091,1.091,0,0,0,.906.344,1.347,1.347,0,0,0,.836-.266Zm8.141-3.6h-5.648a2.992,2.992,0,0,0,.719,2.063,2.478,2.478,0,0,0,1.891.727,3.931,3.931,0,0,0,2.484-.891v1.2a4.643,4.643,0,0,1-2.789.766,3.381,3.381,0,0,1-2.664-1.09A4.461,4.461,0,0,1,123,37.031a4.375,4.375,0,0,1,1.059-3.043,3.394,3.394,0,0,1,2.629-1.176,3.008,3.008,0,0,1,2.43,1.016,4.234,4.234,0,0,1,.859,2.82Zm-1.312-1.086a2.607,2.607,0,0,0-.535-1.727,1.823,1.823,0,0,0-1.465-.617,2.07,2.07,0,0,0-1.539.648,2.943,2.943,0,0,0-.781,1.7Zm2.766,4.477V39.336a3.792,3.792,0,0,0,2.3.773q1.688,0,1.688-1.125a.976.976,0,0,0-.145-.543,1.44,1.44,0,0,0-.391-.395,3.007,3.007,0,0,0-.578-.309q-.332-.137-.715-.285a9.206,9.206,0,0,1-.934-.426,2.82,2.82,0,0,1-.672-.484,1.8,1.8,0,0,1-.406-.613,2.17,2.17,0,0,1-.137-.8,1.912,1.912,0,0,1,.258-1,2.286,2.286,0,0,1,.688-.727,3.206,3.206,0,0,1,.98-.441,4.349,4.349,0,0,1,1.137-.148,4.59,4.59,0,0,1,1.859.359v1.3a3.624,3.624,0,0,0-2.031-.578,2.374,2.374,0,0,0-.648.082,1.587,1.587,0,0,0-.5.23,1.065,1.065,0,0,0-.32.355.936.936,0,0,0-.113.457,1.1,1.1,0,0,0,.113.523,1.152,1.152,0,0,0,.332.375,2.538,2.538,0,0,0,.531.3q.312.133.711.289a9.894,9.894,0,0,1,.953.418,3.269,3.269,0,0,1,.719.484,1.893,1.893,0,0,1,.457.621,2,2,0,0,1,.16.836,1.971,1.971,0,0,1-.262,1.031,2.243,2.243,0,0,1-.7.727,3.2,3.2,0,0,1-1.008.43,4.976,4.976,0,0,1-1.2.141A4.539,4.539,0,0,1,131.43,40.711Zm17.109-.078a4.163,4.163,0,0,1-2.187.555,3.622,3.622,0,0,1-2.762-1.113,4.035,4.035,0,0,1-1.051-2.887,4.435,4.435,0,0,1,1.133-3.176,3.963,3.963,0,0,1,3.023-1.2,4.208,4.208,0,0,1,1.859.391v1.313a3.258,3.258,0,0,0-1.906-.625,2.576,2.576,0,0,0-2.012.879,3.335,3.335,0,0,0-.785,2.309,3.176,3.176,0,0,0,.738,2.219,2.545,2.545,0,0,0,1.98.813,3.211,3.211,0,0,0,1.969-.7Zm8.406.367h-1.281V39.734h-.031a2.631,2.631,0,0,1-2.469,1.453q-2.859,0-2.859-3.406V33h1.273v4.578q0,2.531,1.938,2.531a1.96,1.96,0,0,0,1.543-.691,2.645,2.645,0,0,0,.605-1.809V33h1.281Zm8.313,0h-1.281V39.75h-.031a2.682,2.682,0,0,1-2.461,1.438,2.63,2.63,0,0,1-1.871-.633,2.192,2.192,0,0,1-.676-1.68q0-2.242,2.641-2.609l2.4-.336q0-2.039-1.648-2.039a3.938,3.938,0,0,0-2.609.984V33.563a4.958,4.958,0,0,1,2.719-.75q2.82,0,2.82,2.984Zm-1.281-4.047-1.93.266a3.133,3.133,0,0,0-1.344.441,1.273,1.273,0,0,0-.453,1.121,1.221,1.221,0,0,0,.418.957,1.615,1.615,0,0,0,1.113.371,2.056,2.056,0,0,0,1.574-.668,2.387,2.387,0,0,0,.621-1.691ZM174.313,41h-1.281V36.438q0-2.547-1.859-2.547a2.017,2.017,0,0,0-1.59.723,2.679,2.679,0,0,0-.629,1.824V41h-1.281V33h1.281v1.328h.031a2.887,2.887,0,0,1,2.625-1.516,2.448,2.448,0,0,1,2.008.848,3.776,3.776,0,0,1,.7,2.449Zm9.242,0h-1.281V39.641h-.031a2.958,2.958,0,0,1-2.75,1.547,2.988,2.988,0,0,1-2.41-1.074,4.407,4.407,0,0,1-.9-2.926,4.794,4.794,0,0,1,1-3.18,3.3,3.3,0,0,1,2.664-1.2,2.564,2.564,0,0,1,2.4,1.3h.031V29.156h1.281Zm-1.281-3.617V36.2a2.289,2.289,0,0,0-.641-1.641,2.149,2.149,0,0,0-1.625-.672,2.212,2.212,0,0,0-1.844.859,3.766,3.766,0,0,0-.672,2.375,3.387,3.387,0,0,0,.645,2.184,2.107,2.107,0,0,0,1.73.8,2.188,2.188,0,0,0,1.738-.773A2.882,2.882,0,0,0,182.273,37.383Zm7.219,3.8a3.711,3.711,0,0,1-2.832-1.121,4.153,4.153,0,0,1-1.059-2.973,4.326,4.326,0,0,1,1.1-3.148,3.96,3.96,0,0,1,2.977-1.133,3.588,3.588,0,0,1,2.793,1.1,4.368,4.368,0,0,1,1,3.055,4.3,4.3,0,0,1-1.082,3.066A3.791,3.791,0,0,1,189.492,41.188Zm.094-7.3a2.437,2.437,0,0,0-1.953.84,3.449,3.449,0,0,0-.719,2.316,3.262,3.262,0,0,0,.727,2.242,2.469,2.469,0,0,0,1.945.82,2.342,2.342,0,0,0,1.91-.8,3.492,3.492,0,0,0,.668-2.289A3.552,3.552,0,0,0,191.5,34.7,2.332,2.332,0,0,0,189.586,33.891ZM21.215,63.844h-.031V65H19.9V53.156h1.281v5.25h.031a3.03,3.03,0,0,1,2.766-1.594,2.932,2.932,0,0,1,2.41,1.074,4.436,4.436,0,0,1,.871,2.879,4.959,4.959,0,0,1-.977,3.215,3.251,3.251,0,0,1-2.672,1.207A2.631,2.631,0,0,1,21.215,63.844Zm-.031-3.227v1.117a2.379,2.379,0,0,0,.645,1.684,2.3,2.3,0,0,0,3.461-.2,4.086,4.086,0,0,0,.66-2.477,3.225,3.225,0,0,0-.617-2.094,2.043,2.043,0,0,0-1.672-.758,2.27,2.27,0,0,0-1.8.777A2.854,2.854,0,0,0,21.184,60.617ZM35.777,65H34.5V63.734h-.031A2.631,2.631,0,0,1,32,65.188q-2.859,0-2.859-3.406V57H30.41v4.578q0,2.531,1.938,2.531a1.96,1.96,0,0,0,1.543-.691,2.645,2.645,0,0,0,.605-1.809V57h1.281Zm2.1-.289V63.336a3.792,3.792,0,0,0,2.3.773q1.688,0,1.688-1.125a.976.976,0,0,0-.145-.543,1.44,1.44,0,0,0-.391-.395,3.007,3.007,0,0,0-.578-.309q-.332-.137-.715-.285a9.206,9.206,0,0,1-.934-.426,2.82,2.82,0,0,1-.672-.484,1.8,1.8,0,0,1-.406-.613,2.17,2.17,0,0,1-.137-.8,1.912,1.912,0,0,1,.258-1,2.286,2.286,0,0,1,.688-.727,3.206,3.206,0,0,1,.98-.441,4.349,4.349,0,0,1,1.137-.148,4.59,4.59,0,0,1,1.859.359v1.3a3.624,3.624,0,0,0-2.031-.578,2.374,2.374,0,0,0-.648.082,1.587,1.587,0,0,0-.5.23,1.065,1.065,0,0,0-.32.355.936.936,0,0,0-.113.457,1.1,1.1,0,0,0,.113.523,1.152,1.152,0,0,0,.332.375,2.538,2.538,0,0,0,.531.3q.312.133.711.289a9.894,9.894,0,0,1,.953.418,3.269,3.269,0,0,1,.719.484,1.893,1.893,0,0,1,.457.621,2,2,0,0,1,.16.836,1.971,1.971,0,0,1-.262,1.031,2.243,2.243,0,0,1-.7.727,3.2,3.2,0,0,1-1.008.43,4.976,4.976,0,0,1-1.2.141A4.539,4.539,0,0,1,37.879,64.711Zm14.1,3.969H50.7V63.625h-.031a2.867,2.867,0,0,1-2.734,1.563,3.011,3.011,0,0,1-2.418-1.074,4.381,4.381,0,0,1-.91-2.926,4.791,4.791,0,0,1,1-3.184,3.328,3.328,0,0,1,2.688-1.191,2.523,2.523,0,0,1,2.375,1.3H50.7V57H51.98ZM50.7,61.4V60.234a2.328,2.328,0,0,0-.645-1.664,2.158,2.158,0,0,0-1.637-.68,2.2,2.2,0,0,0-1.828.855,3.819,3.819,0,0,0-.672,2.41,3.307,3.307,0,0,0,.648,2.168,2.069,2.069,0,0,0,1.672.785,2.254,2.254,0,0,0,1.793-.77A2.855,2.855,0,0,0,50.7,61.4ZM61.043,65H59.762V63.734H59.73a2.631,2.631,0,0,1-2.469,1.453q-2.859,0-2.859-3.406V57h1.273v4.578q0,2.531,1.938,2.531a1.96,1.96,0,0,0,1.543-.691,2.645,2.645,0,0,0,.605-1.809V57h1.281Zm9.016-3.68H64.41a2.992,2.992,0,0,0,.719,2.063,2.478,2.478,0,0,0,1.891.727,3.931,3.931,0,0,0,2.484-.891v1.2a4.643,4.643,0,0,1-2.789.766,3.381,3.381,0,0,1-2.664-1.09,4.461,4.461,0,0,1-.969-3.066,4.375,4.375,0,0,1,1.059-3.043,3.394,3.394,0,0,1,2.629-1.176,3.008,3.008,0,0,1,2.43,1.016,4.234,4.234,0,0,1,.859,2.82Zm-1.312-1.086a2.607,2.607,0,0,0-.535-1.727,1.823,1.823,0,0,0-1.465-.617,2.07,2.07,0,0,0-1.539.648,2.943,2.943,0,0,0-.781,1.7ZM78.637,65H77.355V60.438q0-2.547-1.859-2.547a2.017,2.017,0,0,0-1.59.723,2.679,2.679,0,0,0-.629,1.824V65H72V57h1.281v1.328h.031a2.887,2.887,0,0,1,2.625-1.516,2.448,2.448,0,0,1,2.008.848,3.776,3.776,0,0,1,.7,2.449Zm6.313-.289V63.336a3.792,3.792,0,0,0,2.3.773q1.688,0,1.688-1.125a.976.976,0,0,0-.145-.543,1.44,1.44,0,0,0-.391-.395,3.007,3.007,0,0,0-.578-.309q-.332-.137-.715-.285a9.206,9.206,0,0,1-.934-.426,2.82,2.82,0,0,1-.672-.484,1.8,1.8,0,0,1-.406-.613,2.17,2.17,0,0,1-.137-.8,1.912,1.912,0,0,1,.258-1,2.286,2.286,0,0,1,.688-.727,3.206,3.206,0,0,1,.98-.441,4.349,4.349,0,0,1,1.137-.148,4.59,4.59,0,0,1,1.859.359v1.3a3.624,3.624,0,0,0-2.031-.578,2.374,2.374,0,0,0-.648.082,1.587,1.587,0,0,0-.5.23,1.065,1.065,0,0,0-.32.355.936.936,0,0,0-.113.457,1.1,1.1,0,0,0,.113.523,1.152,1.152,0,0,0,.332.375,2.538,2.538,0,0,0,.531.3q.313.133.711.289a9.9,9.9,0,0,1,.953.418,3.269,3.269,0,0,1,.719.484,1.893,1.893,0,0,1,.457.621,2,2,0,0,1,.16.836,1.971,1.971,0,0,1-.262,1.031,2.243,2.243,0,0,1-.7.727,3.2,3.2,0,0,1-1.008.43,4.976,4.976,0,0,1-1.2.141A4.539,4.539,0,0,1,84.949,64.711Zm10.617.477a3.711,3.711,0,0,1-2.832-1.121,4.153,4.153,0,0,1-1.059-2.973,4.326,4.326,0,0,1,1.1-3.148,3.96,3.96,0,0,1,2.977-1.133,3.588,3.588,0,0,1,2.793,1.1,4.368,4.368,0,0,1,1,3.055,4.3,4.3,0,0,1-1.082,3.066A3.791,3.791,0,0,1,95.566,65.188Zm.094-7.3a2.437,2.437,0,0,0-1.953.84,3.449,3.449,0,0,0-.719,2.316,3.262,3.262,0,0,0,.727,2.242,2.469,2.469,0,0,0,1.945.82,2.342,2.342,0,0,0,1.91-.8,3.492,3.492,0,0,0,.668-2.289A3.552,3.552,0,0,0,97.57,58.7,2.332,2.332,0,0,0,95.66,57.891ZM102.879,65H101.6V53.156h1.281Zm9.063,0H110.66V63.734h-.031a2.631,2.631,0,0,1-2.469,1.453q-2.859,0-2.859-3.406V57h1.273v4.578q0,2.531,1.938,2.531a1.96,1.96,0,0,0,1.543-.691,2.645,2.645,0,0,0,.605-1.809V57h1.281Zm8.039-.367a4.163,4.163,0,0,1-2.187.555,3.622,3.622,0,0,1-2.762-1.113,4.035,4.035,0,0,1-1.051-2.887,4.435,4.435,0,0,1,1.133-3.176,3.963,3.963,0,0,1,3.023-1.2A4.209,4.209,0,0,1,120,57.2v1.313a3.258,3.258,0,0,0-1.906-.625,2.576,2.576,0,0,0-2.012.879,3.335,3.335,0,0,0-.785,2.309,3.176,3.176,0,0,0,.738,2.219,2.545,2.545,0,0,0,1.98.813,3.211,3.211,0,0,0,1.969-.7Zm2.594-9.664a.812.812,0,0,1-.586-.234.791.791,0,0,1-.242-.594.821.821,0,0,1,.828-.836.827.827,0,0,1,.6.238.835.835,0,0,1,0,1.184A.82.82,0,0,1,122.574,54.969ZM123.2,65h-1.281V57H123.2Zm5.938.188a3.711,3.711,0,0,1-2.832-1.121,4.153,4.153,0,0,1-1.059-2.973,4.326,4.326,0,0,1,1.1-3.148,3.96,3.96,0,0,1,2.977-1.133,3.588,3.588,0,0,1,2.793,1.1,4.368,4.368,0,0,1,1,3.055,4.3,4.3,0,0,1-1.082,3.066A3.791,3.791,0,0,1,129.137,65.188Zm.094-7.3a2.437,2.437,0,0,0-1.953.84,3.449,3.449,0,0,0-.719,2.316,3.262,3.262,0,0,0,.727,2.242,2.469,2.469,0,0,0,1.945.82,2.342,2.342,0,0,0,1.91-.8,3.492,3.492,0,0,0,.668-2.289,3.552,3.552,0,0,0-.668-2.312A2.332,2.332,0,0,0,129.23,57.891Zm1.875-4.969-2.047,2.563h-.992l1.742-2.562ZM141.809,65h-1.281V60.438q0-2.547-1.859-2.547a2.017,2.017,0,0,0-1.59.723,2.679,2.679,0,0,0-.629,1.824V65h-1.281V57h1.281v1.328h.031a2.887,2.887,0,0,1,2.625-1.516,2.448,2.448,0,0,1,2.008.848,3.776,3.776,0,0,1,.7,2.449Zm13.625,0h-1.281V63.641h-.031a2.958,2.958,0,0,1-2.75,1.547,2.988,2.988,0,0,1-2.41-1.074,4.407,4.407,0,0,1-.9-2.926,4.794,4.794,0,0,1,1-3.18,3.3,3.3,0,0,1,2.664-1.2,2.564,2.564,0,0,1,2.4,1.3h.031V53.156h1.281Zm-1.281-3.617V60.2a2.289,2.289,0,0,0-.641-1.641,2.149,2.149,0,0,0-1.625-.672,2.212,2.212,0,0,0-1.844.859,3.766,3.766,0,0,0-.672,2.375,3.387,3.387,0,0,0,.645,2.184,2.107,2.107,0,0,0,1.73.8,2.188,2.188,0,0,0,1.738-.773A2.882,2.882,0,0,0,154.152,61.383Zm10.3-.062h-5.648a2.992,2.992,0,0,0,.719,2.063,2.478,2.478,0,0,0,1.891.727,3.931,3.931,0,0,0,2.484-.891v1.2a4.643,4.643,0,0,1-2.789.766,3.381,3.381,0,0,1-2.664-1.09,4.461,4.461,0,0,1-.969-3.066,4.374,4.374,0,0,1,1.059-3.043,3.394,3.394,0,0,1,2.629-1.176,3.008,3.008,0,0,1,2.43,1.016,4.234,4.234,0,0,1,.859,2.82Zm-1.312-1.086a2.607,2.607,0,0,0-.535-1.727,1.823,1.823,0,0,0-1.465-.617,2.07,2.07,0,0,0-1.539.648,2.943,2.943,0,0,0-.781,1.7Zm7.148,4.477V63.336a3.792,3.792,0,0,0,2.3.773q1.688,0,1.688-1.125a.976.976,0,0,0-.145-.543,1.44,1.44,0,0,0-.391-.395,3.007,3.007,0,0,0-.578-.309q-.332-.137-.715-.285a9.206,9.206,0,0,1-.934-.426,2.82,2.82,0,0,1-.672-.484,1.8,1.8,0,0,1-.406-.613,2.17,2.17,0,0,1-.137-.8,1.912,1.912,0,0,1,.258-1,2.286,2.286,0,0,1,.688-.727,3.206,3.206,0,0,1,.98-.441,4.349,4.349,0,0,1,1.137-.148,4.59,4.59,0,0,1,1.859.359v1.3a3.624,3.624,0,0,0-2.031-.578,2.374,2.374,0,0,0-.648.082,1.587,1.587,0,0,0-.5.23,1.065,1.065,0,0,0-.32.355.936.936,0,0,0-.113.457,1.1,1.1,0,0,0,.113.523,1.152,1.152,0,0,0,.332.375,2.538,2.538,0,0,0,.531.3q.312.133.711.289a9.894,9.894,0,0,1,.953.418,3.269,3.269,0,0,1,.719.484,1.893,1.893,0,0,1,.457.621,2,2,0,0,1,.16.836,1.971,1.971,0,0,1-.262,1.031,2.243,2.243,0,0,1-.7.727,3.2,3.2,0,0,1-1.008.43,4.976,4.976,0,0,1-1.2.141A4.539,4.539,0,0,1,170.293,64.711ZM184.035,65h-1.281V63.734h-.031a2.631,2.631,0,0,1-2.469,1.453q-2.859,0-2.859-3.406V57h1.273v4.578q0,2.531,1.938,2.531a1.96,1.96,0,0,0,1.543-.691,2.645,2.645,0,0,0,.605-1.809V57h1.281Zm2.1-.289V63.336a3.792,3.792,0,0,0,2.3.773q1.688,0,1.688-1.125a.976.976,0,0,0-.145-.543,1.44,1.44,0,0,0-.391-.395,3.007,3.007,0,0,0-.578-.309q-.332-.137-.715-.285a9.206,9.206,0,0,1-.934-.426,2.82,2.82,0,0,1-.672-.484,1.8,1.8,0,0,1-.406-.613,2.17,2.17,0,0,1-.137-.8,1.912,1.912,0,0,1,.258-1,2.286,2.286,0,0,1,.688-.727,3.206,3.206,0,0,1,.98-.441,4.349,4.349,0,0,1,1.137-.148,4.59,4.59,0,0,1,1.859.359v1.3a3.624,3.624,0,0,0-2.031-.578,2.374,2.374,0,0,0-.648.082,1.587,1.587,0,0,0-.5.23,1.065,1.065,0,0,0-.32.355.936.936,0,0,0-.113.457,1.1,1.1,0,0,0,.113.523,1.152,1.152,0,0,0,.332.375,2.538,2.538,0,0,0,.531.3q.312.133.711.289a9.894,9.894,0,0,1,.953.418,3.269,3.269,0,0,1,.719.484,1.893,1.893,0,0,1,.457.621,2,2,0,0,1,.16.836,1.971,1.971,0,0,1-.262,1.031,2.243,2.243,0,0,1-.7.727,3.2,3.2,0,0,1-1.008.43,4.976,4.976,0,0,1-1.2.141A4.539,4.539,0,0,1,186.137,64.711ZM5.922,82.3a1.567,1.567,0,0,0-.969-.258,1.635,1.635,0,0,0-1.371.773,3.576,3.576,0,0,0-.551,2.109V89H1.75V81H3.031v1.648h.031A2.793,2.793,0,0,1,3.9,81.332a1.906,1.906,0,0,1,1.258-.473,2.092,2.092,0,0,1,.766.109Zm7.82,3.023H8.094a2.992,2.992,0,0,0,.719,2.063,2.478,2.478,0,0,0,1.891.727,3.931,3.931,0,0,0,2.484-.891v1.2a4.643,4.643,0,0,1-2.789.766A3.381,3.381,0,0,1,7.734,88.1a4.461,4.461,0,0,1-.969-3.066,4.375,4.375,0,0,1,1.059-3.043,3.394,3.394,0,0,1,2.629-1.176,3.008,3.008,0,0,1,2.43,1.016,4.234,4.234,0,0,1,.859,2.82ZM12.43,84.234a2.607,2.607,0,0,0-.535-1.727,1.823,1.823,0,0,0-1.465-.617,2.07,2.07,0,0,0-1.539.648,2.943,2.943,0,0,0-.781,1.7ZM22.508,92.68H21.227V87.625H21.2a2.867,2.867,0,0,1-2.734,1.563,3.011,3.011,0,0,1-2.418-1.074,4.381,4.381,0,0,1-.91-2.926,4.791,4.791,0,0,1,1-3.184,3.328,3.328,0,0,1,2.688-1.191,2.523,2.523,0,0,1,2.375,1.3h.031V81h1.281ZM21.227,85.4V84.234a2.328,2.328,0,0,0-.645-1.664,2.158,2.158,0,0,0-1.637-.68,2.2,2.2,0,0,0-1.828.855,3.819,3.819,0,0,0-.672,2.41,3.307,3.307,0,0,0,.648,2.168,2.069,2.069,0,0,0,1.672.785,2.254,2.254,0,0,0,1.793-.77A2.855,2.855,0,0,0,21.227,85.4ZM31.57,89H30.289V87.734h-.031a2.631,2.631,0,0,1-2.469,1.453q-2.859,0-2.859-3.406V81H26.2v4.578q0,2.531,1.938,2.531a1.96,1.96,0,0,0,1.543-.691,2.645,2.645,0,0,0,.605-1.809V81H31.57Zm9.016-3.68H34.938a2.992,2.992,0,0,0,.719,2.063,2.478,2.478,0,0,0,1.891.727,3.931,3.931,0,0,0,2.484-.891v1.2a4.643,4.643,0,0,1-2.789.766,3.381,3.381,0,0,1-2.664-1.09,4.461,4.461,0,0,1-.969-3.066,4.375,4.375,0,0,1,1.059-3.043A3.394,3.394,0,0,1,37.3,80.813a3.008,3.008,0,0,1,2.43,1.016,4.234,4.234,0,0,1,.859,2.82Zm-1.312-1.086a2.607,2.607,0,0,0-.535-1.727,1.823,1.823,0,0,0-1.465-.617,2.07,2.07,0,0,0-1.539.648,2.943,2.943,0,0,0-.781,1.7ZM46.7,82.3a1.567,1.567,0,0,0-.969-.258,1.635,1.635,0,0,0-1.371.773,3.576,3.576,0,0,0-.551,2.109V89H42.523V81H43.8v1.648h.031a2.793,2.793,0,0,1,.836-1.316,1.906,1.906,0,0,1,1.258-.473,2.092,2.092,0,0,1,.766.109Zm2.047-3.328a.812.812,0,0,1-.586-.234.791.791,0,0,1-.242-.594.821.821,0,0,1,.828-.836.827.827,0,0,1,.6.238.835.835,0,0,1,0,1.184A.82.82,0,0,1,48.742,78.969ZM49.367,89H48.086V81h1.281ZM63.32,89H62.039V84.406a3.466,3.466,0,0,0-.41-1.922,1.555,1.555,0,0,0-1.379-.594,1.708,1.708,0,0,0-1.395.75,2.869,2.869,0,0,0-.574,1.8V89H57V84.25q0-2.359-1.82-2.359a1.686,1.686,0,0,0-1.391.707,2.923,2.923,0,0,0-.547,1.84V89H51.961V81h1.281v1.266h.031a2.718,2.718,0,0,1,2.484-1.453,2.311,2.311,0,0,1,2.266,1.656,2.855,2.855,0,0,1,2.656-1.656q2.641,0,2.641,3.258ZM66.4,78.969a.812.812,0,0,1-.586-.234.791.791,0,0,1-.242-.594A.821.821,0,0,1,66.4,77.3a.827.827,0,0,1,.6.238.835.835,0,0,1,0,1.184A.82.82,0,0,1,66.4,78.969ZM67.023,89H65.742V81h1.281Zm9.023-3.68H70.4a2.992,2.992,0,0,0,.719,2.063,2.478,2.478,0,0,0,1.891.727,3.931,3.931,0,0,0,2.484-.891v1.2a4.643,4.643,0,0,1-2.789.766,3.381,3.381,0,0,1-2.664-1.09,4.461,4.461,0,0,1-.969-3.066,4.375,4.375,0,0,1,1.059-3.043,3.394,3.394,0,0,1,2.629-1.176,3.008,3.008,0,0,1,2.43,1.016,4.234,4.234,0,0,1,.859,2.82Zm-1.312-1.086a2.607,2.607,0,0,0-.535-1.727,1.823,1.823,0,0,0-1.465-.617,2.07,2.07,0,0,0-1.539.648,2.943,2.943,0,0,0-.781,1.7ZM84.625,89H83.344V84.438q0-2.547-1.859-2.547a2.017,2.017,0,0,0-1.59.723,2.679,2.679,0,0,0-.629,1.824V89H77.984V81h1.281v1.328H79.3a2.887,2.887,0,0,1,2.625-1.516,2.448,2.448,0,0,1,2.008.848,3.776,3.776,0,0,1,.7,2.449Zm6.125-.078a2.47,2.47,0,0,1-1.2.25q-2.1,0-2.1-2.344V82.094H86.078V81h1.375V79.047l1.281-.414V81H90.75v1.094H88.734V86.6a1.869,1.869,0,0,0,.273,1.148,1.091,1.091,0,0,0,.906.344,1.347,1.347,0,0,0,.836-.266Zm5.055.266a3.711,3.711,0,0,1-2.832-1.121,4.153,4.153,0,0,1-1.059-2.973,4.326,4.326,0,0,1,1.1-3.148,3.96,3.96,0,0,1,2.977-1.133,3.588,3.588,0,0,1,2.793,1.1,4.368,4.368,0,0,1,1,3.055,4.3,4.3,0,0,1-1.082,3.066A3.791,3.791,0,0,1,95.8,89.188Zm.094-7.3a2.437,2.437,0,0,0-1.953.84,3.449,3.449,0,0,0-.719,2.316,3.262,3.262,0,0,0,.727,2.242,2.469,2.469,0,0,0,1.945.82,2.342,2.342,0,0,0,1.91-.8,3.492,3.492,0,0,0,.668-2.289,3.552,3.552,0,0,0-.668-2.312A2.332,2.332,0,0,0,95.9,81.891Zm5.453,6.82V87.336a3.792,3.792,0,0,0,2.3.773q1.688,0,1.688-1.125a.976.976,0,0,0-.145-.543,1.44,1.44,0,0,0-.391-.395,3.007,3.007,0,0,0-.578-.309q-.332-.137-.715-.285a9.207,9.207,0,0,1-.934-.426,2.82,2.82,0,0,1-.672-.484,1.8,1.8,0,0,1-.406-.613,2.17,2.17,0,0,1-.137-.8,1.912,1.912,0,0,1,.258-1,2.286,2.286,0,0,1,.688-.727,3.206,3.206,0,0,1,.98-.441,4.349,4.349,0,0,1,1.137-.148,4.59,4.59,0,0,1,1.859.359v1.3a3.624,3.624,0,0,0-2.031-.578,2.374,2.374,0,0,0-.648.082,1.587,1.587,0,0,0-.5.23,1.065,1.065,0,0,0-.32.355.936.936,0,0,0-.113.457,1.1,1.1,0,0,0,.113.523,1.152,1.152,0,0,0,.332.375,2.538,2.538,0,0,0,.531.3q.313.133.711.289a9.9,9.9,0,0,1,.953.418,3.269,3.269,0,0,1,.719.484,1.893,1.893,0,0,1,.457.621,2,2,0,0,1,.16.836,1.971,1.971,0,0,1-.262,1.031,2.243,2.243,0,0,1-.7.727,3.2,3.2,0,0,1-1.008.43,4.976,4.976,0,0,1-1.2.141A4.539,4.539,0,0,1,101.352,88.711Zm18.086-3.391h-5.648a2.992,2.992,0,0,0,.719,2.063,2.478,2.478,0,0,0,1.891.727,3.931,3.931,0,0,0,2.484-.891v1.2a4.643,4.643,0,0,1-2.789.766,3.381,3.381,0,0,1-2.664-1.09,4.461,4.461,0,0,1-.969-3.066,4.375,4.375,0,0,1,1.059-3.043,3.394,3.394,0,0,1,2.629-1.176,3.008,3.008,0,0,1,2.43,1.016,4.234,4.234,0,0,1,.859,2.82Zm-1.312-1.086a2.607,2.607,0,0,0-.535-1.727,1.823,1.823,0,0,0-1.465-.617,2.07,2.07,0,0,0-1.539.648,2.943,2.943,0,0,0-.781,1.7ZM128.016,89h-1.281V84.438q0-2.547-1.859-2.547a2.017,2.017,0,0,0-1.59.723,2.679,2.679,0,0,0-.629,1.824V89h-1.281V81h1.281v1.328h.031a2.887,2.887,0,0,1,2.625-1.516,2.448,2.448,0,0,1,2.008.848,3.776,3.776,0,0,1,.7,2.449Zm7.867-.367a4.163,4.163,0,0,1-2.187.555,3.622,3.622,0,0,1-2.762-1.113,4.035,4.035,0,0,1-1.051-2.887,4.435,4.435,0,0,1,1.133-3.176,3.963,3.963,0,0,1,3.023-1.2,4.209,4.209,0,0,1,1.859.391v1.313a3.258,3.258,0,0,0-1.906-.625,2.576,2.576,0,0,0-2.012.879,3.335,3.335,0,0,0-.785,2.309,3.176,3.176,0,0,0,.738,2.219,2.545,2.545,0,0,0,1.98.813,3.211,3.211,0,0,0,1.969-.7Zm8.406.367h-1.281V87.734h-.031a2.631,2.631,0,0,1-2.469,1.453q-2.859,0-2.859-3.406V81h1.273v4.578q0,2.531,1.938,2.531a1.96,1.96,0,0,0,1.543-.691,2.645,2.645,0,0,0,.605-1.809V81h1.281Zm9.016-3.68h-5.648a2.992,2.992,0,0,0,.719,2.063,2.478,2.478,0,0,0,1.891.727,3.931,3.931,0,0,0,2.484-.891v1.2a4.643,4.643,0,0,1-2.789.766A3.381,3.381,0,0,1,147.3,88.1a4.461,4.461,0,0,1-.969-3.066,4.374,4.374,0,0,1,1.059-3.043,3.394,3.394,0,0,1,2.629-1.176,3.008,3.008,0,0,1,2.43,1.016,4.234,4.234,0,0,1,.859,2.82Zm-1.312-1.086a2.607,2.607,0,0,0-.535-1.727,1.823,1.823,0,0,0-1.465-.617,2.07,2.07,0,0,0-1.539.648,2.943,2.943,0,0,0-.781,1.7ZM161.883,89H160.6V84.438q0-2.547-1.859-2.547a2.017,2.017,0,0,0-1.59.723,2.679,2.679,0,0,0-.629,1.824V89h-1.281V81h1.281v1.328h.031a2.887,2.887,0,0,1,2.625-1.516,2.448,2.448,0,0,1,2.008.848,3.776,3.776,0,0,1,.7,2.449Zm6.125-.078a2.47,2.47,0,0,1-1.2.25q-2.1,0-2.1-2.344V82.094h-1.375V81h1.375V79.047l1.281-.414V81h2.016v1.094h-2.016V86.6a1.869,1.869,0,0,0,.273,1.148,1.091,1.091,0,0,0,.906.344,1.347,1.347,0,0,0,.836-.266Zm5.883-6.625a1.567,1.567,0,0,0-.969-.258,1.635,1.635,0,0,0-1.371.773A3.576,3.576,0,0,0,171,84.922V89h-1.281V81H171v1.648h.031a2.794,2.794,0,0,1,.836-1.316,1.906,1.906,0,0,1,1.258-.473,2.092,2.092,0,0,1,.766.109Zm7.82,3.023h-5.648a2.992,2.992,0,0,0,.719,2.063,2.478,2.478,0,0,0,1.891.727,3.931,3.931,0,0,0,2.484-.891v1.2a4.643,4.643,0,0,1-2.789.766A3.381,3.381,0,0,1,175.7,88.1a4.461,4.461,0,0,1-.969-3.066,4.374,4.374,0,0,1,1.059-3.043,3.394,3.394,0,0,1,2.629-1.176,3.008,3.008,0,0,1,2.43,1.016,4.234,4.234,0,0,1,.859,2.82ZM180.4,84.234a2.607,2.607,0,0,0-.535-1.727,1.823,1.823,0,0,0-1.465-.617,2.07,2.07,0,0,0-1.539.648,2.943,2.943,0,0,0-.781,1.7ZM190.289,89h-1.281V84.438q0-2.547-1.859-2.547a2.017,2.017,0,0,0-1.59.723,2.679,2.679,0,0,0-.629,1.824V89h-1.281V81h1.281v1.328h.031a2.887,2.887,0,0,1,2.625-1.516,2.448,2.448,0,0,1,2.008.848,3.776,3.776,0,0,1,.7,2.449Zm10.508-.078a2.47,2.47,0,0,1-1.2.25q-2.1,0-2.1-2.344V82.094h-1.375V81H197.5V79.047l1.281-.414V81H200.8v1.094h-2.016V86.6a1.869,1.869,0,0,0,.273,1.148,1.091,1.091,0,0,0,.906.344,1.347,1.347,0,0,0,.836-.266Zm8.18.078H207.7V87.734h-.031a2.631,2.631,0,0,1-2.469,1.453q-2.859,0-2.859-3.406V81h1.273v4.578q0,2.531,1.938,2.531a1.96,1.96,0,0,0,1.543-.691,2.645,2.645,0,0,0,.605-1.809V81h1.281ZM83.133,113H81.852v-4.562q0-2.547-1.859-2.547a2.017,2.017,0,0,0-1.59.723,2.679,2.679,0,0,0-.629,1.824V113H76.492v-8h1.281v1.328H77.8a2.887,2.887,0,0,1,2.625-1.516,2.448,2.448,0,0,1,2.008.848,3.776,3.776,0,0,1,.7,2.449Zm8.844-3.68H86.328a2.992,2.992,0,0,0,.719,2.063,2.478,2.478,0,0,0,1.891.727,3.931,3.931,0,0,0,2.484-.891v1.2a4.643,4.643,0,0,1-2.789.766,3.381,3.381,0,0,1-2.664-1.09A4.461,4.461,0,0,1,85,109.031a4.375,4.375,0,0,1,1.059-3.043,3.394,3.394,0,0,1,2.629-1.176,3.008,3.008,0,0,1,2.43,1.016,4.234,4.234,0,0,1,.859,2.82Zm-1.312-1.086a2.607,2.607,0,0,0-.535-1.727,1.823,1.823,0,0,0-1.465-.617,2.07,2.07,0,0,0-1.539.648,2.943,2.943,0,0,0-.781,1.7Zm10.078,4.125q0,4.406-4.219,4.406a5.664,5.664,0,0,1-2.594-.562v-1.281a5.327,5.327,0,0,0,2.578.75q2.953,0,2.953-3.141v-.875H99.43a3.237,3.237,0,0,1-5.152.465,4.263,4.263,0,0,1-.91-2.863,4.981,4.981,0,0,1,.98-3.242,3.275,3.275,0,0,1,2.684-1.2,2.608,2.608,0,0,1,2.4,1.3h.031V105h1.281Zm-1.281-2.977V108.2a2.289,2.289,0,0,0-.645-1.633,2.122,2.122,0,0,0-1.605-.68,2.225,2.225,0,0,0-1.859.863,3.853,3.853,0,0,0-.672,2.418,3.308,3.308,0,0,0,.645,2.137,2.082,2.082,0,0,0,1.707.8,2.23,2.23,0,0,0,1.754-.766A2.854,2.854,0,0,0,99.461,109.383Zm7.219,3.8a3.711,3.711,0,0,1-2.832-1.121,4.153,4.153,0,0,1-1.059-2.973,4.326,4.326,0,0,1,1.1-3.148,3.96,3.96,0,0,1,2.977-1.133,3.588,3.588,0,0,1,2.793,1.1,4.368,4.368,0,0,1,1,3.055,4.3,4.3,0,0,1-1.082,3.066A3.791,3.791,0,0,1,106.68,113.188Zm.094-7.3a2.437,2.437,0,0,0-1.953.84,3.449,3.449,0,0,0-.719,2.316,3.262,3.262,0,0,0,.727,2.242,2.469,2.469,0,0,0,1.945.82,2.342,2.342,0,0,0,1.91-.8,3.492,3.492,0,0,0,.668-2.289,3.552,3.552,0,0,0-.668-2.312A2.332,2.332,0,0,0,106.773,105.891Zm11.391,6.742a4.163,4.163,0,0,1-2.187.555,3.622,3.622,0,0,1-2.762-1.113,4.035,4.035,0,0,1-1.051-2.887,4.435,4.435,0,0,1,1.133-3.176,3.963,3.963,0,0,1,3.023-1.2,4.209,4.209,0,0,1,1.859.391v1.313a3.258,3.258,0,0,0-1.906-.625,2.576,2.576,0,0,0-2.012.879,3.335,3.335,0,0,0-.785,2.309,3.176,3.176,0,0,0,.738,2.219,2.545,2.545,0,0,0,1.98.813,3.211,3.211,0,0,0,1.969-.7Zm2.594-9.664a.812.812,0,0,1-.586-.234.791.791,0,0,1-.242-.594.821.821,0,0,1,.828-.836.827.827,0,0,1,.6.238.835.835,0,0,1,0,1.184A.82.82,0,0,1,120.758,102.969ZM121.383,113H120.1v-8h1.281Zm5.938.188a3.711,3.711,0,0,1-2.832-1.121,4.153,4.153,0,0,1-1.059-2.973,4.326,4.326,0,0,1,1.1-3.148,3.96,3.96,0,0,1,2.977-1.133,3.588,3.588,0,0,1,2.793,1.1,4.368,4.368,0,0,1,1,3.055,4.3,4.3,0,0,1-1.082,3.066A3.791,3.791,0,0,1,127.32,113.188Zm.094-7.3a2.437,2.437,0,0,0-1.953.84,3.449,3.449,0,0,0-.719,2.316,3.262,3.262,0,0,0,.727,2.242,2.469,2.469,0,0,0,1.945.82,2.342,2.342,0,0,0,1.91-.8,3.492,3.492,0,0,0,.668-2.289,3.552,3.552,0,0,0-.668-2.312A2.332,2.332,0,0,0,127.414,105.891Zm6.383,7.281a.829.829,0,0,1-.613-.258.849.849,0,0,1-.254-.617.862.862,0,0,1,.254-.621.823.823,0,0,1,.613-.262.845.845,0,0,1,.625.262.855.855,0,0,1,.258.621.842.842,0,0,1-.258.617A.851.851,0,0,1,133.8,113.172Z" transform="translate(1061.5 7763.821)" fill="#12263f"/>
    <path id="Trazado_217558" data-name="Trazado 217558" d="M15.442,19V12.092q0-.976.062-2.145l.026-.58h-.105q-.281,1.485-.431,2.057L13.139,19H9.571L7.628,11.512q-.079-.281-.413-2.145H7.11q.123,2.953.123,3.691V19H3.9V6.4H9.588l1.731,6.847a8.451,8.451,0,0,1,.163.857q.1.646.127,1h.053q.1-.8.308-1.89L13.587,6.4h5.6V19Zm9.105-3.437a1.265,1.265,0,0,0,.668.91,3.012,3.012,0,0,0,1.512.33,6.226,6.226,0,0,0,2.479-.5v2.373a8.908,8.908,0,0,1-3.3.545,5.214,5.214,0,0,1-3.665-1.2,4.277,4.277,0,0,1-1.31-3.313,5.467,5.467,0,0,1,.576-2.558,4.142,4.142,0,0,1,1.705-1.736A5.038,5.038,0,0,1,25.7,9.78a4.9,4.9,0,0,1,2.391.545A3.63,3.63,0,0,1,29.6,11.854a4.906,4.906,0,0,1,.514,2.3v1.406ZM26.8,13.6q0-1.556-1.116-1.556a.944.944,0,0,0-.782.426A2.127,2.127,0,0,0,24.53,13.6Zm8.569-6.029a1.608,1.608,0,0,1-.576,1.283,2.252,2.252,0,0,1-1.516.492,2.2,2.2,0,0,1-1.5-.51,1.612,1.612,0,0,1-.584-1.266,1.561,1.561,0,0,1,.567-1.252,2.639,2.639,0,0,1,3.032,0A1.551,1.551,0,0,1,35.367,7.574Zm-.22,11.514a4.982,4.982,0,0,1-.466,2.167,3.2,3.2,0,0,1-1.371,1.477,4.413,4.413,0,0,1-2.153.5,4.846,4.846,0,0,1-1.494-.264V20.222a1.883,1.883,0,0,0,.9.272.7.7,0,0,0,.655-.312,1.864,1.864,0,0,0,.189-.945V10h3.744Zm11.813-4.746a4.687,4.687,0,0,1-1.375,3.577,5.375,5.375,0,0,1-3.845,1.3,5.4,5.4,0,0,1-3.819-1.27,4.546,4.546,0,0,1-1.367-3.5,4.692,4.692,0,0,1,.642-2.487,4.172,4.172,0,0,1,1.828-1.617,6.311,6.311,0,0,1,2.733-.562,6.113,6.113,0,0,1,2.773.589A4.286,4.286,0,0,1,46.331,12,4.452,4.452,0,0,1,46.959,14.342Zm-3.8.018q0-1.837-1.406-1.837T40.35,14.447q0,2.03,1.424,2.03Q43.163,16.478,43.163,14.359Zm11.962-1.151a3.6,3.6,0,0,0-1.169-.255q-1.854,0-1.854,2.145V19H48.357V10H52.1v1.582h.035a2.81,2.81,0,0,1,.976-1.3,2.506,2.506,0,0,1,1.477-.444,1.269,1.269,0,0,1,.536.105ZM61.2,19V17.629h-.035A2.944,2.944,0,0,1,58.42,19.22a2.625,2.625,0,0,1-2-.756,2.808,2.808,0,0,1-.721-2.021q0-2.654,3.261-3.076l2.232-.29a.851.851,0,0,0-.4-.721,1.8,1.8,0,0,0-1.063-.281,7,7,0,0,0-3.19.861V10.5a8.535,8.535,0,0,1,1.828-.519,10.639,10.639,0,0,1,1.881-.2,4.722,4.722,0,0,1,3.327.98,4.368,4.368,0,0,1,1.033,3.274V19Zm-2.215-3.059a.83.83,0,0,0,.233.606.888.888,0,0,0,.664.237,1.18,1.18,0,0,0,.954-.439,1.7,1.7,0,0,0,.365-1.125v-.343l-1.266.176Q58.983,15.212,58.983,15.941Zm14.089-2.733a3.6,3.6,0,0,0-1.169-.255q-1.854,0-1.854,2.145V19H66.3V10h3.744v1.582h.035a2.81,2.81,0,0,1,.976-1.3,2.506,2.506,0,0,1,1.477-.444,1.269,1.269,0,0,1,.536.105ZM79.154,19V5.676H82.9V19Zm10.538,0V17.629h-.035a2.944,2.944,0,0,1-2.742,1.591,2.625,2.625,0,0,1-2-.756,2.808,2.808,0,0,1-.721-2.021q0-2.654,3.261-3.076l2.232-.29a.851.851,0,0,0-.4-.721,1.8,1.8,0,0,0-1.063-.281,7,7,0,0,0-3.19.861V10.5a8.535,8.535,0,0,1,1.828-.519,10.639,10.639,0,0,1,1.881-.2,4.722,4.722,0,0,1,3.327.98,4.368,4.368,0,0,1,1.033,3.274V19Zm-2.215-3.059a.83.83,0,0,0,.233.606.888.888,0,0,0,.664.237,1.18,1.18,0,0,0,.954-.439,1.7,1.7,0,0,0,.365-1.125v-.343l-1.266.176Q87.477,15.212,87.477,15.941Zm22.474-1.714a6.4,6.4,0,0,1-.5,2.61,4.046,4.046,0,0,1-1.415,1.758,3.564,3.564,0,0,1-2.057.624,2.755,2.755,0,0,1-2.4-1.151h-.035V23.14H99.8V10h3.744v1.222h.035a3.171,3.171,0,0,1,1.16-1.059,3.364,3.364,0,0,1,1.617-.382,3.215,3.215,0,0,1,2.667,1.16A5.147,5.147,0,0,1,109.951,14.228Zm-3.8.114a2.346,2.346,0,0,0-.33-1.336,1.237,1.237,0,0,0-1.982.026,2.341,2.341,0,0,0-.369,1.4v.176a2.562,2.562,0,0,0,.316,1.362,1.044,1.044,0,0,0,.949.51,1.182,1.182,0,0,0,1.046-.558A2.849,2.849,0,0,0,106.154,14.342Zm11.971-1.134a3.6,3.6,0,0,0-1.169-.255q-1.854,0-1.854,2.145V19h-3.744V10H115.1v1.582h.035a2.81,2.81,0,0,1,.976-1.3,2.506,2.506,0,0,1,1.477-.444,1.269,1.269,0,0,1,.536.105Zm4.307,2.355a1.265,1.265,0,0,0,.668.91,3.012,3.012,0,0,0,1.512.33,6.226,6.226,0,0,0,2.479-.5v2.373a8.908,8.908,0,0,1-3.3.545,5.214,5.214,0,0,1-3.665-1.2,4.277,4.277,0,0,1-1.31-3.313,5.467,5.467,0,0,1,.576-2.558,4.142,4.142,0,0,1,1.705-1.736,5.038,5.038,0,0,1,2.492-.628,4.9,4.9,0,0,1,2.391.545,3.63,3.63,0,0,1,1.507,1.529,4.906,4.906,0,0,1,.514,2.3v1.406Zm2.25-1.96q0-1.556-1.116-1.556a.944.944,0,0,0-.782.426,2.127,2.127,0,0,0-.369,1.129ZM136.6,16.012a2.749,2.749,0,0,1-1.165,2.369,5.474,5.474,0,0,1-3.248.839,11.291,11.291,0,0,1-1.5-.123,9.257,9.257,0,0,1-1.455-.3V16.17a7.162,7.162,0,0,0,2.777.738q1.1,0,1.1-.571a.451.451,0,0,0-.255-.391,9.009,9.009,0,0,0-1.336-.514,3.773,3.773,0,0,1-1.74-1,2.382,2.382,0,0,1-.545-1.626,2.594,2.594,0,0,1,1.112-2.21,5.216,5.216,0,0,1,3.125-.813,9.931,9.931,0,0,1,2.5.343v2.522a7.549,7.549,0,0,0-1.213-.4,4.9,4.9,0,0,0-1.107-.158,1.205,1.205,0,0,0-.589.123.379.379,0,0,0-.22.343.478.478,0,0,0,.237.413,4.2,4.2,0,0,0,.949.378A4.4,4.4,0,0,1,136,14.386,2.272,2.272,0,0,1,136.6,16.012Zm4.605-.448a1.265,1.265,0,0,0,.668.91,3.012,3.012,0,0,0,1.512.33,6.226,6.226,0,0,0,2.479-.5v2.373a8.908,8.908,0,0,1-3.3.545,5.214,5.214,0,0,1-3.665-1.2,4.277,4.277,0,0,1-1.31-3.313,5.467,5.467,0,0,1,.576-2.558,4.142,4.142,0,0,1,1.705-1.736,5.038,5.038,0,0,1,2.492-.628,4.9,4.9,0,0,1,2.391.545,3.63,3.63,0,0,1,1.507,1.529,4.906,4.906,0,0,1,.514,2.3v1.406Zm2.25-1.96q0-1.556-1.116-1.556a.944.944,0,0,0-.782.426,2.127,2.127,0,0,0-.369,1.129ZM153.9,19V14.087a2.184,2.184,0,0,0-.25-1.2.915.915,0,0,0-.813-.365.88.88,0,0,0-.756.378,1.613,1.613,0,0,0-.272.967V19H148.06V10H151.8v1.406h.035a3.177,3.177,0,0,1,1.2-1.2,3.29,3.29,0,0,1,1.644-.426q2.953,0,2.953,3.727V19Zm12.85-.255a3.529,3.529,0,0,1-1.134.343,10.719,10.719,0,0,1-1.784.132,5.488,5.488,0,0,1-2.544-.576,4.2,4.2,0,0,1-1.736-1.613,4.478,4.478,0,0,1-.615-2.329,5.1,5.1,0,0,1,.655-2.65,4.268,4.268,0,0,1,1.868-1.687,6.407,6.407,0,0,1,2.813-.584,9.839,9.839,0,0,1,1.578.114,2.411,2.411,0,0,1,.9.264v2.918a2.6,2.6,0,0,0-.809-.387,3.248,3.248,0,0,0-.976-.167,2.375,2.375,0,0,0-1.666.523,1.9,1.9,0,0,0-.567,1.472,1.868,1.868,0,0,0,.558,1.446,2.177,2.177,0,0,0,1.534.514,3.82,3.82,0,0,0,1.925-.5ZM172.2,7.574a1.608,1.608,0,0,1-.576,1.283,2.252,2.252,0,0,1-1.516.492,2.2,2.2,0,0,1-1.5-.51,1.612,1.612,0,0,1-.584-1.266,1.561,1.561,0,0,1,.567-1.252,2.639,2.639,0,0,1,3.032,0A1.551,1.551,0,0,1,172.2,7.574ZM168.24,19V10h3.744v9Zm10.538,0V17.629h-.035A2.944,2.944,0,0,1,176,19.22a2.625,2.625,0,0,1-2-.756,2.808,2.808,0,0,1-.721-2.021q0-2.654,3.261-3.076l2.232-.29a.851.851,0,0,0-.4-.721,1.8,1.8,0,0,0-1.063-.281,7,7,0,0,0-3.19.861V10.5a8.535,8.535,0,0,1,1.828-.519,10.639,10.639,0,0,1,1.881-.2,4.722,4.722,0,0,1,3.327.98,4.368,4.368,0,0,1,1.033,3.274V19Zm-2.215-3.059a.83.83,0,0,0,.233.606.888.888,0,0,0,.664.237,1.18,1.18,0,0,0,.954-.439,1.7,1.7,0,0,0,.365-1.125v-.343l-1.266.176Q176.563,15.212,176.563,15.941Zm15.548-.378a1.265,1.265,0,0,0,.668.91,3.012,3.012,0,0,0,1.512.33,6.226,6.226,0,0,0,2.479-.5v2.373a8.908,8.908,0,0,1-3.3.545,5.214,5.214,0,0,1-3.665-1.2,4.277,4.277,0,0,1-1.31-3.313,5.467,5.467,0,0,1,.576-2.558,4.142,4.142,0,0,1,1.705-1.736,5.038,5.038,0,0,1,2.492-.628,4.9,4.9,0,0,1,2.391.545,3.63,3.63,0,0,1,1.507,1.529,4.906,4.906,0,0,1,.514,2.3v1.406Zm2.25-1.96q0-1.556-1.116-1.556a.944.944,0,0,0-.782.426,2.127,2.127,0,0,0-.369,1.129ZM204.8,19V14.087a2.184,2.184,0,0,0-.25-1.2.915.915,0,0,0-.813-.365.88.88,0,0,0-.756.378,1.613,1.613,0,0,0-.272.967V19h-3.744V10h3.744v1.406h.035a3.177,3.177,0,0,1,1.2-1.2,3.29,3.29,0,0,1,1.644-.426q2.953,0,2.953,3.727V19ZM41.4,42.745a3.529,3.529,0,0,1-1.134.343,10.719,10.719,0,0,1-1.784.132,5.488,5.488,0,0,1-2.544-.576A4.2,4.2,0,0,1,34.2,41.031a4.478,4.478,0,0,1-.615-2.329,5.1,5.1,0,0,1,.655-2.65,4.268,4.268,0,0,1,1.868-1.687,6.407,6.407,0,0,1,2.813-.584,9.839,9.839,0,0,1,1.578.114,2.41,2.41,0,0,1,.9.264v2.918a2.6,2.6,0,0,0-.809-.387,3.248,3.248,0,0,0-.976-.167,2.375,2.375,0,0,0-1.666.523,1.9,1.9,0,0,0-.567,1.472,1.868,1.868,0,0,0,.558,1.446,2.177,2.177,0,0,0,1.534.514,3.82,3.82,0,0,0,1.925-.5ZM47.887,43V41.629h-.035a2.944,2.944,0,0,1-2.742,1.591,2.625,2.625,0,0,1-2-.756,2.808,2.808,0,0,1-.721-2.021q0-2.654,3.261-3.076l2.232-.29a.851.851,0,0,0-.4-.721,1.8,1.8,0,0,0-1.063-.281,7,7,0,0,0-3.19.861V34.5a8.535,8.535,0,0,1,1.828-.519,10.639,10.639,0,0,1,1.881-.2,4.722,4.722,0,0,1,3.327.98,4.368,4.368,0,0,1,1.033,3.274V43Zm-2.215-3.059a.83.83,0,0,0,.233.606.888.888,0,0,0,.664.237,1.18,1.18,0,0,0,.954-.439,1.7,1.7,0,0,0,.365-1.125v-.343l-1.266.176Q45.672,39.212,45.672,39.941ZM58.829,43V38.087a2.184,2.184,0,0,0-.25-1.2.915.915,0,0,0-.813-.365.88.88,0,0,0-.756.378,1.613,1.613,0,0,0-.272.967V43H52.993V34h3.744v1.406h.035a3.177,3.177,0,0,1,1.2-1.2,3.29,3.29,0,0,1,1.644-.426q2.953,0,2.953,3.727V43Zm10.424,0V41.629h-.035a2.944,2.944,0,0,1-2.742,1.591,2.625,2.625,0,0,1-2-.756,2.808,2.808,0,0,1-.721-2.021q0-2.654,3.261-3.076l2.232-.29a.851.851,0,0,0-.4-.721,1.8,1.8,0,0,0-1.063-.281,7,7,0,0,0-3.19.861V34.5a8.535,8.535,0,0,1,1.828-.519,10.639,10.639,0,0,1,1.881-.2,4.722,4.722,0,0,1,3.327.98,4.368,4.368,0,0,1,1.033,3.274V43Zm-2.215-3.059a.83.83,0,0,0,.233.606.888.888,0,0,0,.664.237,1.18,1.18,0,0,0,.954-.439,1.7,1.7,0,0,0,.365-1.125v-.343l-1.266.176Q67.038,39.212,67.038,39.941ZM74.359,43V29.676H78.1V43Zm8.771-3.437a1.265,1.265,0,0,0,.668.91,3.012,3.012,0,0,0,1.512.33,6.226,6.226,0,0,0,2.479-.5v2.373a8.908,8.908,0,0,1-3.3.545,5.214,5.214,0,0,1-3.665-1.2A4.277,4.277,0,0,1,79.51,38.7a5.467,5.467,0,0,1,.576-2.558,4.142,4.142,0,0,1,1.705-1.736,5.038,5.038,0,0,1,2.492-.628,4.9,4.9,0,0,1,2.391.545,3.63,3.63,0,0,1,1.507,1.529,4.906,4.906,0,0,1,.514,2.3v1.406Zm2.25-1.96q0-1.556-1.116-1.556a.944.944,0,0,0-.782.426,2.127,2.127,0,0,0-.369,1.129ZM97.3,40.012a2.749,2.749,0,0,1-1.165,2.369,5.474,5.474,0,0,1-3.248.839,11.291,11.291,0,0,1-1.5-.123,9.257,9.257,0,0,1-1.455-.3V40.17a7.162,7.162,0,0,0,2.777.738q1.1,0,1.1-.571a.451.451,0,0,0-.255-.391,9.009,9.009,0,0,0-1.336-.514,3.773,3.773,0,0,1-1.74-1,2.382,2.382,0,0,1-.545-1.626,2.594,2.594,0,0,1,1.112-2.21,5.216,5.216,0,0,1,3.125-.813,9.931,9.931,0,0,1,2.5.343v2.522a7.549,7.549,0,0,0-1.213-.4,4.9,4.9,0,0,0-1.107-.158,1.205,1.205,0,0,0-.589.123.379.379,0,0,0-.22.343.478.478,0,0,0,.237.413,4.2,4.2,0,0,0,.949.378A4.4,4.4,0,0,1,96.7,38.386,2.272,2.272,0,0,1,97.3,40.012ZM109.691,43V41.954h-.035a3.089,3.089,0,0,1-1.169.927,3.331,3.331,0,0,1-1.424.338,3.663,3.663,0,0,1-2.03-.567,3.443,3.443,0,0,1-1.314-1.586,6.106,6.106,0,0,1-.435-2.408,5.925,5.925,0,0,1,.519-2.54,4.059,4.059,0,0,1,1.459-1.723,3.769,3.769,0,0,1,2.109-.615,3.193,3.193,0,0,1,1.024.158,2.77,2.77,0,0,1,.817.426,1.273,1.273,0,0,1,.444.532h.035V29.676h3.744V43Zm.079-4.772a1.974,1.974,0,0,0-.356-1.257,1.2,1.2,0,0,0-1.951.11,2.593,2.593,0,0,0-.382,1.49q0,1.907,1.318,1.907a1.173,1.173,0,0,0,1-.514,2.531,2.531,0,0,0,.374-1.5Zm9.431-6.653a1.608,1.608,0,0,1-.576,1.283,2.252,2.252,0,0,1-1.516.492,2.2,2.2,0,0,1-1.5-.51,1.612,1.612,0,0,1-.584-1.266,1.561,1.561,0,0,1,.567-1.252,2.639,2.639,0,0,1,3.032,0A1.551,1.551,0,0,1,119.2,31.574ZM115.237,43V34h3.744v9Zm15.3-1.257a5.116,5.116,0,0,1-1.63,4.039,6.962,6.962,0,0,1-4.759,1.446,9.93,9.93,0,0,1-1.635-.132,4.5,4.5,0,0,1-1.134-.3V43.861a5.656,5.656,0,0,0,2.663.773,3.122,3.122,0,0,0,2.013-.606,1.959,1.959,0,0,0,.756-1.608v-.554h-.035a2.909,2.909,0,0,1-1.112.984,3.23,3.23,0,0,1-1.516.369,3.4,3.4,0,0,1-2.751-1.208,5.045,5.045,0,0,1-1.011-3.335,5.964,5.964,0,0,1,.527-2.575,4.018,4.018,0,0,1,1.468-1.718,3.769,3.769,0,0,1,2.074-.6,2.6,2.6,0,0,1,2.32,1.151h.035V34h3.727Zm-3.665-3.5a2.02,2.02,0,0,0-.356-1.257,1.13,1.13,0,0,0-.945-.466,1.163,1.163,0,0,0-1.011.563,2.656,2.656,0,0,0-.378,1.5,2.6,2.6,0,0,0,.316,1.38,1.092,1.092,0,0,0,1,.51,1.161,1.161,0,0,0,1.006-.523,2.408,2.408,0,0,0,.365-1.4Zm9.431-6.671a1.608,1.608,0,0,1-.576,1.283,2.252,2.252,0,0,1-1.516.492,2.2,2.2,0,0,1-1.5-.51,1.612,1.612,0,0,1-.584-1.266,1.561,1.561,0,0,1,.567-1.252,2.639,2.639,0,0,1,3.032,0A1.551,1.551,0,0,1,136.3,31.574ZM132.341,43V34h3.744v9Zm11.883-.123a3.648,3.648,0,0,1-.835.233,7.634,7.634,0,0,1-1.4.11,3.357,3.357,0,0,1-2.448-.861,3.269,3.269,0,0,1-.883-2.452V36.593h-1.415V34h1.415V32.233l3.691-1.02V34h1.872v2.593h-1.872v2.7q0,1.187.94,1.187a2.551,2.551,0,0,0,.932-.193Zm6.161.123V41.629h-.035a2.944,2.944,0,0,1-2.742,1.591,2.625,2.625,0,0,1-2-.756,2.808,2.808,0,0,1-.721-2.021q0-2.654,3.261-3.076l2.232-.29a.851.851,0,0,0-.4-.721,1.8,1.8,0,0,0-1.063-.281,7,7,0,0,0-3.19.861V34.5a8.535,8.535,0,0,1,1.828-.519,10.639,10.639,0,0,1,1.881-.2,4.722,4.722,0,0,1,3.327.98,4.368,4.368,0,0,1,1.033,3.274V43Zm-2.215-3.059a.83.83,0,0,0,.233.606.888.888,0,0,0,.664.237,1.18,1.18,0,0,0,.954-.439,1.7,1.7,0,0,0,.365-1.125v-.343l-1.266.176Q148.17,39.212,148.17,39.941ZM155.491,43V29.676h3.744V43Zm8.771-3.437a1.265,1.265,0,0,0,.668.91,3.012,3.012,0,0,0,1.512.33,6.226,6.226,0,0,0,2.479-.5v2.373a8.908,8.908,0,0,1-3.3.545,5.214,5.214,0,0,1-3.665-1.2,4.277,4.277,0,0,1-1.31-3.313,5.467,5.467,0,0,1,.576-2.558,4.142,4.142,0,0,1,1.705-1.736,5.038,5.038,0,0,1,2.492-.628,4.9,4.9,0,0,1,2.391.545,3.63,3.63,0,0,1,1.507,1.529,4.906,4.906,0,0,1,.514,2.3v1.406Zm2.25-1.96q0-1.556-1.116-1.556a.944.944,0,0,0-.782.426,2.127,2.127,0,0,0-.369,1.129Zm11.918,2.408a2.749,2.749,0,0,1-1.165,2.369,5.474,5.474,0,0,1-3.248.839,11.291,11.291,0,0,1-1.5-.123,9.257,9.257,0,0,1-1.455-.3V40.17a7.162,7.162,0,0,0,2.777.738q1.1,0,1.1-.571a.451.451,0,0,0-.255-.391,9.009,9.009,0,0,0-1.336-.514,3.773,3.773,0,0,1-1.74-1,2.382,2.382,0,0,1-.545-1.626,2.594,2.594,0,0,1,1.112-2.21,5.216,5.216,0,0,1,3.125-.813,9.931,9.931,0,0,1,2.5.343v2.522a7.549,7.549,0,0,0-1.213-.4,4.9,4.9,0,0,0-1.107-.158,1.205,1.205,0,0,0-.589.123.379.379,0,0,0-.22.343.478.478,0,0,0,.237.413,4.2,4.2,0,0,0,.949.378,4.4,4.4,0,0,1,1.978,1.037A2.272,2.272,0,0,1,178.431,40.012Z" transform="translate(1061.5 7705.987)" fill="#12263f"/>
    <path id="Trazado_217557" data-name="Trazado 217557" d="M16.738.72Q1.988.72,1.988-19.993q0-10.746,3.99-16.378T17.544-42q14.4,0,14.4,21.059,0,10.486-3.932,16.075T16.738.72Zm.4-35.78q-5.906,0-5.906,14.836,0,13.972,5.791,13.972,5.646,0,5.646-14.4T17.141-35.06ZM37.307-1.354V-9.276a15.991,15.991,0,0,0,9.68,3.025,8.715,8.715,0,0,0,5.43-1.5,4.974,4.974,0,0,0,1.945-4.177,4.748,4.748,0,0,0-2.406-4.264,12.462,12.462,0,0,0-6.612-1.5H41.513V-24.66h3.543q8.066,0,8.066-5.358,0-5.042-6.194-5.042a14.121,14.121,0,0,0-8.066,2.679v-7.433A22.278,22.278,0,0,1,49-42q6.338,0,9.867,2.852a9.077,9.077,0,0,1,3.529,7.4q0,8.1-8.21,10.141v.144A11.162,11.162,0,0,1,61.1-18.279a8.976,8.976,0,0,1,2.535,6.468A11.084,11.084,0,0,1,59.4-2.65Q55.168.72,47.707.72A22.606,22.606,0,0,1,37.307-1.354Z" transform="translate(1292.239 7759.987)" fill="#12263f" opacity="0.273"/>
  </g>
</svg>
