<svg xmlns="http://www.w3.org/2000/svg" width="120.195" height="120.195" viewBox="0 0 120.195 120.195">
  <g id="Grupo_175153" data-name="Grupo 175153" transform="translate(-4116.656 7172.459)">
    <g id="analizar" transform="translate(4116.656 -7172.459)">
      <g id="Grupo_165727" data-name="Grupo 165727" transform="translate(1.939 1.939)">
        <g id="Grupo_165714" data-name="Grupo 165714" transform="translate(19.386 100.809)">
          <path id="Trazado_177889" data-name="Trazado 177889" d="M12,54H43.018A15.509,15.509,0,1,1,12,54Z" transform="translate(-12 -54)" fill="#a4a3ff"/>
        </g>
        <g id="Grupo_165715" data-name="Grupo 165715" transform="translate(19.386 85.3)">
          <path id="Trazado_177890" data-name="Trazado 177890" d="M43.018,46V61.509H12V46H43.018Z" transform="translate(-12 -46)" fill="#ccd1d9"/>
        </g>
        <g id="Grupo_165716" data-name="Grupo 165716" transform="translate(0 7.755)">
          <path id="Trazado_177891" data-name="Trazado 177891" d="M71.791,40.9a35.425,35.425,0,0,0-1.784-11.031,33.933,33.933,0,0,0-3.877-8.007c-.407-.64-.853-1.279-1.318-1.9A34.9,34.9,0,0,0,36.9,6V17.632a3.889,3.889,0,0,1-3.877,3.877H31.08V26.86a2.4,2.4,0,0,1-4.536,1.086l-3.218-6.436H7.855v.039a34.616,34.616,0,0,0-4.343,9.228A34.217,34.217,0,0,0,2,40.9a48.451,48.451,0,0,0,9.015,28.13l10.372,14.52H52.4l10.372-14.52c.485-.679.95-1.376,1.4-2.074a26.4,26.4,0,0,1-.136-2.792,27.07,27.07,0,0,1,7.541-18.766c.136-1.493.213-2.985.213-4.5Z" transform="translate(-2 -6)" fill="#ffde96"/>
        </g>
        <g id="Grupo_165717" data-name="Grupo 165717">
          <path id="Trazado_177892" data-name="Trazado 177892" d="M36.9,9.755V21.386a3.889,3.889,0,0,1-3.877,3.877H31.08v5.351A2.4,2.4,0,0,1,26.543,31.7l-3.218-6.436H5.877A3.889,3.889,0,0,1,2,21.386V5.877A3.889,3.889,0,0,1,5.877,2H33.018A3.889,3.889,0,0,1,36.9,5.877Z" transform="translate(-2 -2)" fill="#e6e9ed"/>
        </g>
        <g id="Grupo_165718" data-name="Grupo 165718" transform="translate(46.527 31.018)">
          <path id="Trazado_177893" data-name="Trazado 177893" d="M26,18h7.755V52.9H26Z" transform="translate(-26 -18)" fill="#ff8578"/>
        </g>
        <g id="Grupo_165719" data-name="Grupo 165719" transform="translate(31.018 38.773)">
          <path id="Trazado_177894" data-name="Trazado 177894" d="M18,22h7.755V49.141H18Z" transform="translate(-18 -22)" fill="#ff8578"/>
        </g>
        <g id="Grupo_165720" data-name="Grupo 165720" transform="translate(15.509 46.527)">
          <path id="Trazado_177895" data-name="Trazado 177895" d="M10,26h7.755V45.386H10Z" transform="translate(-10 -26)" fill="#ff8578"/>
        </g>
        <g id="Grupo_165721" data-name="Grupo 165721" transform="translate(96.932)">
          <path id="Trazado_177896" data-name="Trazado 177896" d="M61.693,2A9.705,9.705,0,1,1,52,11.693,9.7,9.7,0,0,1,61.693,2Z" transform="translate(-52 -2)" fill="#ff8578"/>
        </g>
        <g id="Grupo_165722" data-name="Grupo 165722" transform="translate(85.3 23.264)">
          <path id="Trazado_177897" data-name="Trazado 177897" d="M52.611,15.144a3.791,3.791,0,0,1,1.144,2.733,3.877,3.877,0,1,1-7.755,0,3.866,3.866,0,0,1,6.611-2.733Z" transform="translate(-46 -14)" fill="#ff826e"/>
        </g>
        <g id="Grupo_165723" data-name="Grupo 165723" transform="translate(69.791 7.755)">
          <path id="Trazado_177898" data-name="Trazado 177898" d="M43.816,6a5.816,5.816,0,1,1-4.381,9.635A5.741,5.741,0,0,1,38,11.816,5.808,5.808,0,0,1,43.816,6Z" transform="translate(-38 -6)" fill="#ff826e"/>
        </g>
        <g id="Grupo_165724" data-name="Grupo 165724" transform="translate(81.423 91.93)">
          <path id="Trazado_177899" data-name="Trazado 177899" d="M59.509,49.42V67.992a5.808,5.808,0,0,1-5.816,5.816H49.816A5.808,5.808,0,0,1,44,67.992V49.42a27.3,27.3,0,0,0,15.509,0Z" transform="translate(-44 -49.42)" fill="#a4a3ff"/>
        </g>
        <g id="Grupo_165725" data-name="Grupo 165725" transform="translate(62.036 38.773)">
          <path id="Trazado_177900" data-name="Trazado 177900" d="M53.386,75.157A27.2,27.2,0,0,1,34.136,51.933,26.4,26.4,0,0,1,34,49.141,27.114,27.114,0,1,1,53.386,75.157Z" transform="translate(-34 -22)" fill="#e6e9ed"/>
        </g>
        <g id="Grupo_165726" data-name="Grupo 165726" transform="translate(69.755 46.563)">
          <circle id="Elipse_5192" data-name="Elipse 5192" cx="19.302" cy="19.302" r="19.302" fill="#acfcff"/>
        </g>
      </g>
      <g id="Grupo_165728" data-name="Grupo 165728">
        <path id="Trazado_177901" data-name="Trazado 177901" d="M92.116,39.773a28.9,28.9,0,0,0-17.45,5.872c0-.017,0-.037,0-.056a37.077,37.077,0,0,0-5.1-18.644l4.614-4.036a7.622,7.622,0,0,0,8.282.256l4.422,4.422A5.762,5.762,0,0,0,86.3,30.08a5.816,5.816,0,1,0,11.632,0,5.721,5.721,0,0,0-.584-2.491l5.486-5.486a11.668,11.668,0,1,0-2.741-2.741l-5.486,5.486a5.609,5.609,0,0,0-4.982,0L85.2,20.425a7.682,7.682,0,0,0,1.1-3.916,7.755,7.755,0,0,0-15.509,0,7.663,7.663,0,0,0,.853,3.462l-4.22,3.693c-.043-.058-.078-.118-.12-.176A37.022,37.022,0,0,0,39.773,8.813v-2A5.823,5.823,0,0,0,33.957,1H6.816A5.823,5.823,0,0,0,1,6.816V22.325a5.818,5.818,0,0,0,4.5,5.653A36.674,36.674,0,0,0,1,45.589a50.055,50.055,0,0,0,9.375,29.256L20.386,88.859v14.889a17.448,17.448,0,1,0,34.9,0V88.859L64.1,76.519A29.164,29.164,0,0,0,82.423,96.235v17.205a7.762,7.762,0,0,0,7.755,7.755h3.877a7.762,7.762,0,0,0,7.755-7.755V96.235a29.06,29.06,0,0,0-9.693-56.463Zm17.448-34.9a7.755,7.755,0,1,1-7.755,7.755A7.762,7.762,0,0,1,109.564,4.877ZM92.116,28.141a1.939,1.939,0,1,1-1.939,1.939A1.939,1.939,0,0,1,92.116,28.141ZM78.545,12.632a3.877,3.877,0,1,1-3.877,3.877A3.881,3.881,0,0,1,78.545,12.632ZM4.877,22.325V6.816A1.939,1.939,0,0,1,6.816,4.877H33.957A1.939,1.939,0,0,1,35.9,6.816V22.325a1.939,1.939,0,0,1-1.939,1.939H30.08v7.3a.474.474,0,0,1-.867.2l-3.751-7.5H6.816A1.939,1.939,0,0,1,4.877,22.325ZM24.264,90.177H51.4v3.877H24.264Zm0,7.755H51.4v3.877H24.264Zm13.57,19.386a13.581,13.581,0,0,1-13.415-11.632H51.249A13.581,13.581,0,0,1,37.834,117.318Zm24.3-44.726L52.347,86.3h-8.7V70.791H59.159V32.018H47.527V63.036H51.4V35.9h3.877V66.914H39.773V86.3H35.9V66.914H20.386V51.4h3.877V63.036h3.877V47.527H16.509V70.791H32.018V86.3h-8.7L13.527,72.592a46.221,46.221,0,0,1-8.65-27A32.823,32.823,0,0,1,9.9,28.141H23.066l2.681,5.36a4.334,4.334,0,0,0,8.21-1.941v-3.42a5.823,5.823,0,0,0,5.816-5.816V12.69A33.134,33.134,0,0,1,64.2,25.815c.1.136.188.281.287.419L61.761,28.62l2.551,2.92,2.278-1.993a33.158,33.158,0,0,1,4.2,16.042c0,1.247-.074,2.5-.174,3.751a28.93,28.93,0,0,0-7.58,19.512c0,.756.056,1.5.114,2.241-.332.5-.661,1.006-1.012,1.5Zm35.793,40.849a3.881,3.881,0,0,1-3.877,3.877H90.177a3.881,3.881,0,0,1-3.877-3.877V97.346a29.18,29.18,0,0,0,11.632,0ZM92.116,94.054a25.2,25.2,0,1,1,25.2-25.2A25.231,25.231,0,0,1,92.116,94.054Z" transform="translate(-1 -1)"/>
        <path id="Trazado_177902" data-name="Trazado 177902" d="M58.325,25A21.325,21.325,0,1,0,79.65,46.325,21.35,21.35,0,0,0,58.325,25Zm0,38.773A17.448,17.448,0,1,1,75.773,46.325,17.466,17.466,0,0,1,58.325,63.773Z" transform="translate(32.791 21.527)"/>
        <path id="Trazado_177903" data-name="Trazado 177903" d="M43,35h3.877v3.877H43Z" transform="translate(38.423 30.914)"/>
        <path id="Trazado_177904" data-name="Trazado 177904" d="M47,35h3.877v3.877H47Z" transform="translate(42.177 30.914)"/>
        <path id="Trazado_177905" data-name="Trazado 177905" d="M51,35h3.877v3.877H51Z" transform="translate(45.932 30.914)"/>
        <path id="Trazado_177906" data-name="Trazado 177906" d="M17,44.264h3.877V24.877h3.877V44.264h3.877V21H17Z" transform="translate(14.018 17.773)"/>
        <path id="Trazado_177907" data-name="Trazado 177907" d="M5,5h7.755V8.877H5Z" transform="translate(2.755 2.755)"/>
        <path id="Trazado_177908" data-name="Trazado 177908" d="M5,9h7.755v3.877H5Z" transform="translate(2.755 6.509)"/>
        <path id="Trazado_177909" data-name="Trazado 177909" d="M11,5H22.632V8.877H11Z" transform="translate(8.386 2.755)"/>
        <path id="Trazado_177910" data-name="Trazado 177910" d="M11,9h3.877v3.877H11Z" transform="translate(8.386 6.509)"/>
        <path id="Trazado_177911" data-name="Trazado 177911" d="M15,9h3.877v3.877H15Z" transform="translate(12.141 6.509)"/>
      </g>
    </g>
  </g>
</svg>
