<svg xmlns="http://www.w3.org/2000/svg" xmlns:xlink="http://www.w3.org/1999/xlink" width="100.146" height="81.192" viewBox="0 0 100.146 81.192">
  <defs>
    <clipPath id="clip-path">
      <rect id="Rectángulo_52996" data-name="Rectángulo 52996" width="81.146" height="81.192" fill="#fff"/>
    </clipPath>
  </defs>
  <g id="Grupo_175152" data-name="Grupo 175152" transform="translate(-244 -4766.889)">
    <g id="Grupo_172376" data-name="Grupo 172376" transform="translate(263 4766.889)">
      <g id="Grupo_172375" data-name="Grupo 172375" clip-path="url(#clip-path)">
        <path id="Trazado_212867" data-name="Trazado 212867" d="M126.459,25.708a16.046,16.046,0,0,1-1.216,2.717,6.056,6.056,0,0,1-5.283,2.67H103.306c0,1.547,0,3.042,0,4.537a3.893,3.893,0,0,1-1.583,3.294,4.146,4.146,0,0,1-2.611.737c-10.064-.012-20.127,0-30.191-.021a1.9,1.9,0,0,0-1.517.617c-1.653,1.708-3.355,3.369-5.031,5.056a1.7,1.7,0,0,1-3.1-1.255c.011-1.426,0-2.852,0-4.4-.545,0-1.06.007-1.576,0a3.756,3.756,0,0,1-3.827-3.8q-.02-12.523,0-25.046a3.75,3.75,0,0,1,3.912-3.8Q70.548,7,83.306,7h.715a21.96,21.96,0,0,1,1.095-3.631A5.842,5.842,0,0,1,90.562.045C94.206-.01,97.852.029,101.5.029c6.022,0,12.046.069,18.066-.027a6.565,6.565,0,0,1,6.773,5.126,1.512,1.512,0,0,0,.123.288ZM105.3,27.93q7.131,0,14.263,0c2.461,0,3.728-1.252,3.729-3.688q0-8.678,0-17.357c0-2.412-1.26-3.688-3.648-3.689q-14.263,0-28.525,0c-2.389,0-3.649,1.276-3.65,3.688q0,8.679,0,17.357c0,2.437,1.267,3.689,3.728,3.69q7.052,0,14.1,0m-21-17.761H58.308c-1.147,0-1.272.124-1.272,1.267q0,8.043,0,16.087c0,2.641.012,5.283-.007,7.924-.005.736.277,1.076,1.029,1.049s1.531-.007,2.3-.006c1.608,0,2.128.516,2.141,2.127.005.607,0,1.215,0,2.056,1.2-1.2,2.219-2.192,3.192-3.228a2.9,2.9,0,0,1,2.3-.973q15.33.042,30.66.017c.238,0,.52.079.7-.021.285-.157.7-.428.715-.665.064-1.547.033-3.1.033-4.71h-.949c-2.746,0-5.493.005-8.239,0A6.338,6.338,0,0,1,84.3,24.454q-.009-4.755,0-9.509V10.169" transform="translate(-45.314 -0.001)" fill="#fff"/>
        <path id="Trazado_212868" data-name="Trazado 212868" d="M11.25,297.4a2.146,2.146,0,0,1-1.122-2.164c.045-2.667.016-5.335.016-8v-.8a32.025,32.025,0,0,1-3.415-.47A9.068,9.068,0,0,1,.01,276.514a8.957,8.957,0,0,1,7.566-8.262,26.884,26.884,0,0,1,5.447-.147,20.012,20.012,0,0,0,9.4-1.815c7.4-3.129,14.9-6.009,22.326-9.065a1.772,1.772,0,0,1,2.661,1.784c-.094,3.484-.017,6.972-.04,10.459,0,.523.117.785.65.958a7.11,7.11,0,0,1-.054,13.542c-.173.057-.342.126-.584.216v2.192c0,2.985-.028,5.97.016,8.954a2.026,2.026,0,0,1-1.122,2.069h-.951a3.574,3.574,0,0,0-.342-.181q-9.44-3.8-18.882-7.6l-6.3-2.536v.868c0,2.4-.033,4.8.016,7.2A2.251,2.251,0,0,1,18.7,297.4Zm32.942-36.47c-1.072.432-2.077.888-3.117,1.239a1,1,0,0,0-.775,1.148c.027,5.124.016,10.249.012,15.374a6.7,6.7,0,0,1-.069,1.1,1.521,1.521,0,0,1-1.421,1.266,1.5,1.5,0,0,1-1.572-1.07,4.35,4.35,0,0,1-.138-1.17q-.013-7.053-.006-14.106v-.884c-.2.055-.3.072-.4.11-5.472,2.206-10.939,4.423-16.42,6.606-.513.2-.488.526-.487.925,0,3.8.013,7.608-.011,11.411a.934.934,0,0,0,.688,1.041Q31.962,288.5,43.43,293.13c.237.1.483.17.761.267ZM16.555,283V271.246c-2.443,0-4.819-.005-7.2.005a10.019,10.019,0,0,0-1.1.118,5.93,5.93,0,0,0-5.087,5.778,5.769,5.769,0,0,0,5.089,5.821c2.733.164,5.483.035,8.294.035m.007,3.342H13.368v7.862h3.194Zm30.872-12.685v7.051a3.836,3.836,0,0,0,2.331-3.574,3.8,3.8,0,0,0-2.331-3.477" transform="translate(0 -216.205)" fill="#fff"/>
        <path id="Trazado_212870" data-name="Trazado 212870" d="M368.207,377.473c-1.451,0-2.9.023-4.352-.009a1.6,1.6,0,0,1-1.617-1.254,1.527,1.527,0,0,1,.883-1.759,2.765,2.765,0,0,1,1-.161q4.155-.018,8.309,0c1.184.005,1.88.6,1.892,1.557.013.993-.715,1.62-1.922,1.629-1.4.01-2.8,0-4.194,0Z" transform="translate(-304.687 -314.846)" fill="#fff"/>
        <path id="Trazado_212871" data-name="Trazado 212871" d="M352.248,434.166c-.3.383-.563.979-1.008,1.2a1.7,1.7,0,0,1-1.518-.056,48.224,48.224,0,0,1-3.7-3.657,1.539,1.539,0,0,1,2.2-2.091c1.237,1.139,2.407,2.352,3.574,3.564a3.884,3.884,0,0,1,.452,1.044" transform="translate(-290.831 -361.063)" fill="#fff"/>
        <path id="Trazado_212872" data-name="Trazado 212872" d="M346.957,304.593a6.4,6.4,0,0,1-1.188-.953,1.22,1.22,0,0,1,.046-1.611c1.128-1.215,2.293-2.4,3.511-3.524a1.5,1.5,0,0,1,2.014.176,1.449,1.449,0,0,1,.116,2.015c-1.1,1.2-2.286,2.331-3.465,3.459a3.8,3.8,0,0,1-1.034.438" transform="translate(-290.625 -250.838)" fill="#fff"/>
        <path id="Trazado_212873" data-name="Trazado 212873" d="M335.046,56.451c0-1.953-.011-3.906,0-5.86.013-1.785,1.188-2.453,2.742-1.559q5.07,2.917,10.129,5.854c1.553.9,1.567,2.27.027,3.163q-5.094,2.955-10.2,5.888c-1.508.866-2.682.192-2.7-1.548-.017-1.979,0-3.959,0-5.939m9.235.024-6-3.461v6.923l6-3.461" transform="translate(-281.837 -40.914)" fill="#fff"/>
        <path id="Trazado_212874" data-name="Trazado 212874" d="M113.817,104.993q3.8,0,7.593,0c1.166,0,1.881.59,1.906,1.547.025.979-.72,1.614-1.917,1.615q-7.593,0-15.186,0c-1.164,0-1.883-.593-1.908-1.547-.025-.975.724-1.613,1.919-1.615q3.8-.007,7.593,0" transform="translate(-87.741 -88.319)" fill="#fff"/>
        <path id="Trazado_212875" data-name="Trazado 212875" d="M110.871,160.893c1.554,0,3.109-.006,4.663,0,1.137.006,1.851.645,1.833,1.612a1.6,1.6,0,0,1-1.817,1.548q-4.7.011-9.405,0a1.6,1.6,0,1,1-.016-3.16c1.581-.009,3.162,0,4.742,0" transform="translate(-87.74 -135.341)" fill="#fff"/>
        <path id="Trazado_212876" data-name="Trazado 212876" d="M207.284,162.475a1.58,1.58,0,1,1-1.594-1.544,1.608,1.608,0,0,1,1.594,1.544" transform="translate(-171.709 -135.375)" fill="#fff"/>
        <path id="Trazado_212877" data-name="Trazado 212877" d="M236.93,430.928a1.593,1.593,0,0,1-1.566,1.627,1.662,1.662,0,0,1-1.592-1.55,1.61,1.61,0,0,1,1.592-1.607,1.549,1.549,0,0,1,1.566,1.53" transform="translate(-196.648 -361.21)" fill="#fff"/>
      </g>
    </g>
    <path id="Polígono_37" data-name="Polígono 37" d="M12.5,0,25,19H0Z" transform="translate(263 4776.985) rotate(90)" fill="#eeac3a"/>
  </g>
</svg>
